<svg width="602" height="275" viewBox="0 0 602 275" fill="none" xmlns="http://www.w3.org/2000/svg">
<rect width="602" height="275" fill="white"/>
<g clip-path="url(#clip0)">
<rect width="235" height="246" transform="translate(8 24)" fill="white"/>
<path d="M30.5117 177.757L77.7313 187.091V228.82L30.5117 218.388V177.757Z" fill="#A541F8"/>
<path d="M77.7313 187.091L127.147 179.404V217.839L77.7313 228.82V187.091Z" fill="#A541F8"/>
<path d="M30.5117 177.208L79.9276 169.521V207.956L30.5117 218.937V177.208Z" fill="#A541F8"/>
<path d="M77.7313 169.521L127.147 177.751V214.544L77.7313 205.346V169.521Z" fill="#A541F8"/>
<path d="M29.9626 177.757L77.1822 188.697V237.605L29.9626 225.378V177.757Z" fill="#A541F8"/>
<path d="M74.986 186.542L122.206 195.876V237.605L74.986 227.173V186.542Z" fill="#A541F8"/>
<path d="M74.986 185.993L124.402 178.306V216.741L74.986 227.722V185.993Z" fill="#A541F8"/>
<path d="M72.2407 185.993L124.951 197.535V249.136L72.2407 236.235V185.993Z" fill="#A541F8"/>
<path d="M78.2804 167.874L125.5 177.208V218.937L78.2804 208.505V167.874Z" fill="#A541F8"/>
<path d="M30.5117 137.675L77.7313 147.009V188.738L30.5117 178.306V137.675Z" fill="#A541F8"/>
<path d="M77.7313 147.009L127.147 139.322V177.757L77.7313 188.738V147.009Z" fill="#6FCF97"/>
<path d="M30.5117 137.126L79.9276 129.439V167.874L30.5117 178.855V137.126Z" fill="#6FCF97"/>
<path d="M77.7313 129.439L127.147 137.669V174.463L77.7313 165.264V129.439Z" fill="#6FCF97"/>
<g filter="url(#filter0_d)">
<path d="M30.5117 137.675L77.7313 147.009V188.738L30.5117 178.306V137.675Z" fill="#6FCF97"/>
</g>
<path d="M77.1823 147.009L126.598 139.322V177.757L77.1823 188.738V147.009Z" fill="#6FCF97"/>
<path d="M30.5117 137.126L79.9276 129.439V167.874L30.5117 178.855V137.126Z" fill="#6FCF97"/>
<path d="M83.771 147.558L130.991 156.893V198.621L83.771 188.189V147.558Z" fill="#A541F8"/>
<path d="M83.771 147.009L133.187 139.322V177.757L83.771 188.738V147.009Z" fill="#6FCF97"/>
<g filter="url(#filter1_d)">
<path d="M73.8878 147.558L121.107 156.893V198.621L73.8878 188.189V147.558Z" fill="#0072B2"/>
</g>
<path d="M72.7897 145.362L122.206 137.675V176.11L72.7897 187.091V145.362Z" fill="#0072B2"/>
<path d="M28.8645 94.2991L76.0841 103.633V145.362L28.8645 134.93V94.2991Z" fill="#A541F8"/>
<path d="M76.0841 103.633L125.5 95.9463V134.381L76.0841 145.362V103.633Z" fill="#6FCF97"/>
<path d="M28.8645 93.75L78.2804 86.0631V124.498L28.8645 135.479V93.75Z" fill="#6FCF97"/>
<path d="M76.0841 86.0631L125.5 94.2932V131.086L76.0841 121.888V86.0631Z" fill="#A541F8"/>
<g filter="url(#filter2_d)">
<path d="M29.4135 92.1028L76.6332 102.451V148.107L29.4135 137.15V92.1028Z" fill="#A541F8"/>
</g>
<path d="M29.4135 93.75L78.8294 86.0631V124.498L29.4135 135.479V93.75Z" fill="#A541F8"/>
<path d="M76.0841 104.731L125.5 98.6916V138.224L76.0841 148.107V104.731Z" fill="#A541F8"/>
<path d="M31.0607 53.6682L78.2804 63.0023V104.731L31.0607 94.2991V53.6682Z" fill="#A541F8"/>
<g filter="url(#filter3_d)">
<path d="M28.8645 53.6682L76.0841 63.0023V104.731L28.8645 94.2991V53.6682Z" fill="#0072B2"/>
</g>
<g filter="url(#filter4_d)">
<path d="M77.5519 63.0808L125.5 54.7664V96.3385L71.6916 112.967L77.5519 63.0808Z" fill="#0072B2"/>
</g>
<path d="M80.4766 109.124L127.696 118.458V160.187L80.4766 149.755V109.124Z" fill="#A541F8"/>
<path d="M80.4766 108.575L129.893 100.888V139.322L80.4766 150.304V108.575Z" fill="#6FCF97"/>
<g filter="url(#filter5_d)">
<path d="M72.7585 107.102L130.173 116.499V158.509L72.7585 148.006V107.102Z" fill="#6FCF97"/>
</g>
<path d="M72.7897 102.45L124.402 94.8481V132.856L72.7897 143.715V102.45Z" fill="#6FCF97"/>
<g filter="url(#filter6_d)">
<path d="M123.584 97.7557V111.482L71.4233 104.344L123.584 97.7557Z" fill="#6FCF97"/>
</g>
<path d="M122.206 197.523L171.622 189.836V228.271L122.206 239.252V197.523Z" fill="#A541F8"/>
<path d="M122.206 178.306L171.622 186.536V223.329L122.206 214.131V178.306Z" fill="#A541F8"/>
<path d="M122.206 137.675L171.622 145.905V182.699L122.206 173.5V137.675Z" fill="#6FCF97"/>
<path d="M121.107 156.893L171.622 149.206V187.64L121.107 198.621V156.893Z" fill="#0072B2"/>
<path d="M124.402 196.974L171.621 206.308V248.037L124.402 237.605V196.974Z" fill="#A541F8"/>
<path d="M171.621 206.308L221.037 198.621V237.056L171.621 248.037V206.308Z" fill="#6FCF97"/>
<path d="M124.402 196.425L173.818 188.738V227.173L124.402 238.154V196.425Z" fill="#6FCF97"/>
<path d="M171.621 188.738L221.037 196.968V233.762L171.621 224.563V188.738Z" fill="#6FCF97"/>
<path d="M124.402 200.818L171.621 210.152V251.881L124.402 241.449V200.818Z" fill="#6FCF97" fill-opacity="0.64"/>
<g filter="url(#filter7_d)">
<path d="M171.621 217.29L221.037 209.603V248.037L171.621 259.019V217.29Z" fill="#6FCF97"/>
</g>
<path d="M124.402 205.759L173.818 198.072V236.507L124.402 247.488V205.759Z" fill="#6FCF97"/>
<path d="M126.598 156.343L173.818 165.678V207.407L126.598 196.974V156.343Z" fill="#A541F8"/>
<path d="M126.598 155.794L176.014 148.107V186.542L126.598 197.523V155.794Z" fill="#6FCF97"/>
<path d="M171.621 147.009L221.037 155.239V192.033L171.621 182.834V147.009Z" fill="#6FCF97"/>
<path d="M124.402 156.343L171.621 165.678V207.407L124.402 196.974V156.343Z" fill="#6FCF97"/>
<path d="M171.621 167.874L221.037 160.187V198.622L171.621 209.603V167.874Z" fill="#6FCF97"/>
<path d="M124.402 155.245L173.818 147.558V185.993L124.402 196.974V155.245Z" fill="#6FCF97"/>
<path d="M123.304 94.2991L173.818 103.084V141.519L123.304 130.124V94.2991Z" fill="#6FCF97"/>
<path d="M124.402 113.358L173.818 104.731V147.863L124.402 160.187V113.358Z" fill="#6FCF97"/>
<path d="M133.736 116.811L180.956 126.145V167.874L133.736 157.442V116.811Z" fill="#A541F8"/>
<path d="M133.736 116.262L183.152 108.575V147.009L133.736 157.991V116.262Z" fill="#6FCF97"/>
<path d="M171.621 100.888L221.037 110.797V154.147L171.621 141.295V100.888Z" fill="#A541F8"/>
<g filter="url(#filter8_d)">
<path d="M124.402 119.556L177.661 128.89V170.619L124.402 160.187V119.556Z" fill="#A541F8"/>
</g>
<g filter="url(#filter9_d)">
<path d="M176.563 121.472L221.037 112.418V157.686L176.563 170.619V121.472Z" fill="#A541F8"/>
</g>
<path d="M124.402 109.856L173.818 100.888V145.728L124.402 158.54V109.856Z" fill="#A541F8"/>
<path d="M124.402 67.7853L173.818 59.1589V102.291L124.402 114.614V67.7853Z" fill="#6FCF97"/>
<path d="M133.736 71.2383L180.956 80.5724V122.301L133.736 111.869V71.2383Z" fill="#A541F8"/>
<path d="M133.736 70.6893L183.152 63.0023V101.437L133.736 112.418V70.6893Z" fill="#6FCF97"/>
<path d="M171.621 55.3154L221.037 65.2241V108.575L171.621 95.7227V55.3154Z" fill="#A541F8"/>
<path d="M124.402 73.9836L177.661 83.3178V125.047L124.402 114.614V73.9836Z" fill="#A541F8"/>
<path d="M176.563 75.8993L221.037 66.8458V112.113L176.563 125.047V75.8993Z" fill="#A541F8"/>
<path d="M124.402 64.2835L173.818 55.3154V100.156L124.402 112.967V64.2835Z" fill="#A541F8"/>
<g filter="url(#filter10_d)">
<path d="M176.61 223.879L221.037 247.574L172.723 262.862L123.853 247.574L176.61 223.879Z" fill="#6FCF97"/>
</g>
<g filter="url(#filter11_d)">
<path d="M173.269 54.2173L219.939 65.1986L173.269 75.6308L124.402 65.1986L173.269 54.2173Z" fill="#A541F8"/>
</g>
<path d="M31.0607 53.1192L80.4766 45.4322V83.8668L31.0607 94.8481V53.1192Z" fill="#6FCF97"/>
<path d="M78.767 45.0142L124.832 54.3297V95.0852L78.767 83.0026V45.0142Z" fill="#0072B2"/>
<path d="M29.3636 52.9069L76.0966 45.0142L90.1165 84.4776L29.3636 95.7528V52.9069Z" fill="#0072B2"/>
<g filter="url(#filter12_d)">
<path d="M76.6332 44.8832L124.951 53.1192L76.6332 61.9042L30.5117 53.1192L76.6332 44.8832Z" fill="#0072B2"/>
</g>
<path d="M295.316 120.684C295.443 120.551 295.437 120.34 295.304 120.213L293.126 118.143C292.992 118.016 292.781 118.022 292.654 118.155C292.527 118.289 292.532 118.5 292.666 118.627L294.602 120.467L292.763 122.403C292.636 122.536 292.641 122.748 292.775 122.875C292.908 123.002 293.12 122.996 293.247 122.863L295.316 120.684ZM243.009 122.123L295.082 120.788L295.065 120.121L242.991 121.456L243.009 122.123Z" fill="black"/>
</g>
<rect width="127" height="154" transform="translate(465 70)" fill="white"/>
<g filter="url(#filter13_d)">
<path d="M487.7 91H573.8V205.1H487.7V91Z" fill="white"/>
<path d="M488.05 91.35H573.45V204.75H488.05V91.35Z" stroke="black" stroke-width="0.7"/>
</g>
<path d="M499.6 110.6C505.045 110.514 510.487 110.211 515.933 110.211C517.135 110.211 520.324 110.987 521.65 110.25C523.043 109.476 523.341 109.2 525.111 109.2C527.481 109.2 529.807 108.981 531.45 110.989C532.037 111.706 532.988 115.289 533.589 115.461C537.115 116.468 540.308 109.9 544.4 109.9C548.197 109.9 551.86 109.2 555.6 109.2" stroke="black" stroke-width="0.7" stroke-linecap="round" stroke-linejoin="round"/>
<path d="M503.1 131.6C505.17 129.934 507.602 126.7 510.45 126.7C514.317 126.7 518.686 129.469 521.572 131.911C522.606 132.786 523.547 133.819 524.489 134.789C524.628 134.932 526.073 136.829 526.2 136.733C527.48 135.773 527.693 133.393 528.3 132.028C529.981 128.244 540.458 131.243 543 131.444C549.91 131.992 556.499 130.2 563.3 130.2" stroke="black" stroke-width="0.7" stroke-linecap="round" stroke-linejoin="round"/>
<path d="M503.1 175.7C507.248 175.7 511.397 175.671 515.544 175.7C517.836 175.716 522.783 175.007 524.489 177.178C527.612 181.153 530.268 182.882 535.533 181.611C541.086 180.271 544.964 178.5 550.7 178.5" stroke="black" stroke-width="0.7" stroke-linecap="round" stroke-linejoin="round"/>
<path d="M508 187.6C517.386 189.783 529.464 193.23 539.383 190.75C542.451 189.983 545.653 192.98 547.2 195.3" stroke="black" stroke-width="0.7" stroke-linecap="round" stroke-linejoin="round"/>
<path d="M504.5 154C506.965 153.66 509.399 153.3 511.889 153.3C514.445 153.3 516.565 154.871 519.044 155.322C522.469 155.945 528.273 156.272 531.45 155.05C534.303 153.953 538.412 153.606 541.056 155.4C543.075 156.77 544.899 158.524 547.2 159.444C548.005 159.766 549.215 158.462 550 158.2" stroke="black" stroke-width="0.7" stroke-linecap="round" stroke-linejoin="round"/>
<path d="M261.898 114.939C261.74 116.293 261.239 117.339 260.396 118.077C259.558 118.81 258.441 119.176 257.047 119.176C255.535 119.176 254.322 118.634 253.408 117.55C252.5 116.466 252.046 115.016 252.046 113.199V111.969C252.046 110.779 252.257 109.733 252.679 108.831C253.106 107.929 253.71 107.237 254.489 106.757C255.269 106.271 256.171 106.027 257.196 106.027C258.556 106.027 259.646 106.408 260.466 107.17C261.286 107.926 261.764 108.975 261.898 110.316H260.202C260.056 109.297 259.736 108.559 259.244 108.102C258.758 107.645 258.075 107.416 257.196 107.416C256.118 107.416 255.271 107.814 254.656 108.611C254.047 109.408 253.742 110.542 253.742 112.013V113.252C253.742 114.641 254.032 115.745 254.612 116.565C255.192 117.386 256.004 117.796 257.047 117.796C257.984 117.796 258.702 117.585 259.2 117.163C259.704 116.735 260.038 115.994 260.202 114.939H261.898ZM268.552 110.949C268.306 110.908 268.039 110.888 267.752 110.888C266.686 110.888 265.962 111.342 265.581 112.25V119H263.955V109.49H265.537L265.563 110.589C266.097 109.739 266.853 109.314 267.831 109.314C268.147 109.314 268.388 109.355 268.552 109.438V110.949ZM273.825 119.176C272.536 119.176 271.487 118.754 270.679 117.91C269.87 117.061 269.466 115.927 269.466 114.509V114.21C269.466 113.267 269.645 112.426 270.002 111.688C270.365 110.943 270.869 110.363 271.514 109.947C272.164 109.525 272.867 109.314 273.623 109.314C274.859 109.314 275.82 109.722 276.506 110.536C277.191 111.351 277.534 112.517 277.534 114.034V114.711H271.092C271.115 115.648 271.388 116.407 271.909 116.987C272.437 117.562 273.104 117.849 273.913 117.849C274.487 117.849 274.974 117.731 275.372 117.497C275.771 117.263 276.119 116.952 276.418 116.565L277.411 117.339C276.614 118.563 275.419 119.176 273.825 119.176ZM273.623 110.65C272.967 110.65 272.416 110.891 271.971 111.371C271.525 111.846 271.25 112.514 271.145 113.375H275.908V113.252C275.861 112.426 275.639 111.787 275.24 111.336C274.842 110.879 274.303 110.65 273.623 110.65ZM285.295 119C285.201 118.812 285.125 118.479 285.066 117.998C284.311 118.783 283.408 119.176 282.359 119.176C281.422 119.176 280.651 118.912 280.048 118.385C279.45 117.852 279.151 117.178 279.151 116.363C279.151 115.373 279.526 114.605 280.276 114.061C281.032 113.51 282.093 113.234 283.458 113.234H285.04V112.487C285.04 111.919 284.87 111.468 284.53 111.134C284.19 110.794 283.689 110.624 283.027 110.624C282.447 110.624 281.961 110.771 281.568 111.063C281.176 111.356 280.979 111.711 280.979 112.127H279.345C279.345 111.652 279.512 111.195 279.846 110.756C280.186 110.311 280.643 109.959 281.217 109.701C281.797 109.443 282.433 109.314 283.124 109.314C284.22 109.314 285.078 109.59 285.699 110.141C286.32 110.686 286.643 111.438 286.666 112.399V116.776C286.666 117.649 286.777 118.344 287 118.859V119H285.295ZM282.597 117.761C283.106 117.761 283.59 117.629 284.047 117.365C284.504 117.102 284.835 116.759 285.04 116.337V114.386H283.766C281.773 114.386 280.777 114.969 280.777 116.135C280.777 116.645 280.947 117.043 281.287 117.33C281.627 117.617 282.063 117.761 282.597 117.761ZM291.421 107.188V109.49H293.196V110.747H291.421V116.645C291.421 117.025 291.5 117.312 291.658 117.506C291.816 117.693 292.086 117.787 292.467 117.787C292.654 117.787 292.912 117.752 293.24 117.682V119C292.812 119.117 292.396 119.176 291.992 119.176C291.266 119.176 290.718 118.956 290.349 118.517C289.979 118.077 289.795 117.453 289.795 116.645V110.747H288.063V109.49H289.795V107.188H291.421ZM299.05 119.176C297.761 119.176 296.712 118.754 295.903 117.91C295.095 117.061 294.69 115.927 294.69 114.509V114.21C294.69 113.267 294.869 112.426 295.227 111.688C295.59 110.943 296.094 110.363 296.738 109.947C297.389 109.525 298.092 109.314 298.848 109.314C300.084 109.314 301.045 109.722 301.73 110.536C302.416 111.351 302.759 112.517 302.759 114.034V114.711H296.316C296.34 115.648 296.612 116.407 297.134 116.987C297.661 117.562 298.329 117.849 299.138 117.849C299.712 117.849 300.198 117.731 300.597 117.497C300.995 117.263 301.344 116.952 301.643 116.565L302.636 117.339C301.839 118.563 300.644 119.176 299.05 119.176ZM298.848 110.65C298.191 110.65 297.641 110.891 297.195 111.371C296.75 111.846 296.475 112.514 296.369 113.375H301.133V113.252C301.086 112.426 300.863 111.787 300.465 111.336C300.066 110.879 299.527 110.65 298.848 110.65ZM314.984 119C314.891 118.812 314.814 118.479 314.756 117.998C314 118.783 313.098 119.176 312.049 119.176C311.111 119.176 310.341 118.912 309.737 118.385C309.14 117.852 308.841 117.178 308.841 116.363C308.841 115.373 309.216 114.605 309.966 114.061C310.722 113.51 311.782 113.234 313.147 113.234H314.729V112.487C314.729 111.919 314.56 111.468 314.22 111.134C313.88 110.794 313.379 110.624 312.717 110.624C312.137 110.624 311.65 110.771 311.258 111.063C310.865 111.356 310.669 111.711 310.669 112.127H309.034C309.034 111.652 309.201 111.195 309.535 110.756C309.875 110.311 310.332 109.959 310.906 109.701C311.486 109.443 312.122 109.314 312.813 109.314C313.909 109.314 314.768 109.59 315.389 110.141C316.01 110.686 316.332 111.438 316.355 112.399V116.776C316.355 117.649 316.467 118.344 316.689 118.859V119H314.984ZM312.286 117.761C312.796 117.761 313.279 117.629 313.736 117.365C314.193 117.102 314.524 116.759 314.729 116.337V114.386H313.455C311.463 114.386 310.467 114.969 310.467 116.135C310.467 116.645 310.637 117.043 310.977 117.33C311.316 117.617 311.753 117.761 312.286 117.761ZM333.072 117.321C332.639 117.942 332.032 118.408 331.253 118.719C330.479 119.023 329.577 119.176 328.546 119.176C327.503 119.176 326.577 118.933 325.769 118.446C324.96 117.954 324.333 117.257 323.888 116.354C323.448 115.452 323.223 114.406 323.211 113.217V112.101C323.211 110.173 323.659 108.679 324.556 107.618C325.458 106.558 326.724 106.027 328.353 106.027C329.688 106.027 330.764 106.37 331.578 107.056C332.393 107.735 332.891 108.702 333.072 109.956H331.385C331.068 108.263 330.061 107.416 328.361 107.416C327.23 107.416 326.372 107.814 325.786 108.611C325.206 109.402 324.913 110.551 324.907 112.057V113.103C324.907 114.538 325.235 115.681 325.892 116.53C326.548 117.374 327.436 117.796 328.555 117.796C329.188 117.796 329.741 117.726 330.216 117.585C330.69 117.444 331.083 117.207 331.394 116.873V113.999H328.432V112.628H333.072V117.321ZM340.235 110.949C339.989 110.908 339.723 110.888 339.436 110.888C338.369 110.888 337.646 111.342 337.265 112.25V119H335.639V109.49H337.221L337.247 110.589C337.78 109.739 338.536 109.314 339.515 109.314C339.831 109.314 340.071 109.355 340.235 109.438V110.949ZM341.132 114.157C341.132 113.226 341.313 112.388 341.677 111.644C342.046 110.899 342.556 110.325 343.206 109.921C343.862 109.517 344.609 109.314 345.447 109.314C346.742 109.314 347.788 109.763 348.585 110.659C349.388 111.556 349.789 112.748 349.789 114.236V114.351C349.789 115.276 349.61 116.108 349.253 116.847C348.901 117.579 348.395 118.15 347.732 118.561C347.076 118.971 346.32 119.176 345.465 119.176C344.176 119.176 343.13 118.728 342.327 117.831C341.53 116.935 341.132 115.748 341.132 114.271V114.157ZM342.767 114.351C342.767 115.405 343.01 116.252 343.496 116.891C343.988 117.529 344.645 117.849 345.465 117.849C346.291 117.849 346.947 117.526 347.434 116.882C347.92 116.231 348.163 115.323 348.163 114.157C348.163 113.114 347.914 112.271 347.416 111.626C346.924 110.976 346.268 110.65 345.447 110.65C344.645 110.65 343.997 110.97 343.505 111.608C343.013 112.247 342.767 113.161 342.767 114.351ZM357.699 118.06C357.066 118.804 356.138 119.176 354.913 119.176C353.899 119.176 353.126 118.883 352.593 118.297C352.065 117.705 351.799 116.832 351.793 115.678V109.49H353.419V115.634C353.419 117.075 354.005 117.796 355.177 117.796C356.419 117.796 357.245 117.333 357.655 116.407V109.49H359.281V119H357.734L357.699 118.06ZM369.793 114.351C369.793 115.798 369.462 116.964 368.8 117.849C368.138 118.733 367.241 119.176 366.11 119.176C364.956 119.176 364.048 118.81 363.386 118.077V122.656H361.76V109.49H363.245L363.324 110.545C363.986 109.725 364.906 109.314 366.084 109.314C367.227 109.314 368.129 109.745 368.791 110.606C369.459 111.468 369.793 112.666 369.793 114.201V114.351ZM368.167 114.166C368.167 113.094 367.938 112.247 367.481 111.626C367.024 111.005 366.397 110.694 365.601 110.694C364.616 110.694 363.878 111.131 363.386 112.004V116.548C363.872 117.415 364.616 117.849 365.618 117.849C366.397 117.849 367.016 117.541 367.473 116.926C367.936 116.305 368.167 115.385 368.167 114.166ZM372.122 119V106.203H376.306C377.694 106.203 378.737 106.49 379.435 107.064C380.138 107.639 380.489 108.488 380.489 109.613C380.489 110.211 380.319 110.741 379.979 111.204C379.64 111.661 379.177 112.016 378.591 112.268C379.282 112.461 379.827 112.83 380.226 113.375C380.63 113.914 380.832 114.559 380.832 115.309C380.832 116.457 380.46 117.359 379.716 118.016C378.972 118.672 377.92 119 376.561 119H372.122ZM373.81 113.015V117.62H376.596C377.381 117.62 377.999 117.418 378.45 117.014C378.907 116.604 379.136 116.041 379.136 115.326C379.136 113.785 378.298 113.015 376.622 113.015H373.81ZM373.81 111.661H376.358C377.097 111.661 377.686 111.477 378.125 111.107C378.57 110.738 378.793 110.237 378.793 109.604C378.793 108.901 378.588 108.392 378.178 108.075C377.768 107.753 377.144 107.592 376.306 107.592H373.81V111.661ZM386.193 116.618L388.408 109.49H390.148L386.325 120.468C385.733 122.05 384.793 122.841 383.504 122.841L383.196 122.814L382.59 122.7V121.382L383.029 121.417C383.58 121.417 384.008 121.306 384.312 121.083C384.623 120.86 384.878 120.453 385.077 119.861L385.438 118.895L382.045 109.49H383.82L386.193 116.618ZM395.642 114.157C395.642 113.226 395.823 112.388 396.187 111.644C396.556 110.899 397.065 110.325 397.716 109.921C398.372 109.517 399.119 109.314 399.957 109.314C401.252 109.314 402.298 109.763 403.095 110.659C403.897 111.556 404.299 112.748 404.299 114.236V114.351C404.299 115.276 404.12 116.108 403.763 116.847C403.411 117.579 402.904 118.15 402.242 118.561C401.586 118.971 400.83 119.176 399.975 119.176C398.686 119.176 397.64 118.728 396.837 117.831C396.04 116.935 395.642 115.748 395.642 114.271V114.157ZM397.276 114.351C397.276 115.405 397.52 116.252 398.006 116.891C398.498 117.529 399.154 117.849 399.975 117.849C400.801 117.849 401.457 117.526 401.943 116.882C402.43 116.231 402.673 115.323 402.673 114.157C402.673 113.114 402.424 112.271 401.926 111.626C401.434 110.976 400.777 110.65 399.957 110.65C399.154 110.65 398.507 110.97 398.015 111.608C397.522 112.247 397.276 113.161 397.276 114.351ZM414.389 114.351C414.389 115.804 414.055 116.973 413.387 117.857C412.719 118.736 411.822 119.176 410.697 119.176C409.496 119.176 408.567 118.751 407.911 117.901L407.832 119H406.338V105.5H407.964V110.536C408.62 109.722 409.525 109.314 410.68 109.314C411.834 109.314 412.739 109.751 413.396 110.624C414.058 111.497 414.389 112.692 414.389 114.21V114.351ZM412.763 114.166C412.763 113.059 412.549 112.203 412.121 111.6C411.693 110.996 411.078 110.694 410.275 110.694C409.203 110.694 408.433 111.192 407.964 112.188V116.302C408.462 117.298 409.238 117.796 410.293 117.796C411.072 117.796 411.679 117.494 412.112 116.891C412.546 116.287 412.763 115.379 412.763 114.166ZM418.124 109.49V120.099C418.124 121.927 417.295 122.841 415.637 122.841C415.279 122.841 414.948 122.788 414.644 122.683V121.382C414.831 121.429 415.077 121.452 415.382 121.452C415.745 121.452 416.021 121.353 416.208 121.153C416.401 120.96 416.498 120.62 416.498 120.134V109.49H418.124ZM416.331 106.968C416.331 106.71 416.41 106.49 416.568 106.309C416.732 106.121 416.97 106.027 417.28 106.027C417.597 106.027 417.837 106.118 418.001 106.3C418.165 106.481 418.247 106.704 418.247 106.968C418.247 107.231 418.165 107.451 418.001 107.627C417.837 107.803 417.597 107.891 417.28 107.891C416.964 107.891 416.727 107.803 416.568 107.627C416.41 107.451 416.331 107.231 416.331 106.968ZM424.698 119.176C423.409 119.176 422.36 118.754 421.552 117.91C420.743 117.061 420.339 115.927 420.339 114.509V114.21C420.339 113.267 420.518 112.426 420.875 111.688C421.238 110.943 421.742 110.363 422.387 109.947C423.037 109.525 423.74 109.314 424.496 109.314C425.732 109.314 426.693 109.722 427.379 110.536C428.064 111.351 428.407 112.517 428.407 114.034V114.711H421.965C421.988 115.648 422.261 116.407 422.782 116.987C423.31 117.562 423.978 117.849 424.786 117.849C425.36 117.849 425.847 117.731 426.245 117.497C426.644 117.263 426.992 116.952 427.291 116.565L428.284 117.339C427.487 118.563 426.292 119.176 424.698 119.176ZM424.496 110.65C423.84 110.65 423.289 110.891 422.844 111.371C422.398 111.846 422.123 112.514 422.018 113.375H426.781V113.252C426.734 112.426 426.512 111.787 426.113 111.336C425.715 110.879 425.176 110.65 424.496 110.65ZM434.111 117.849C434.691 117.849 435.198 117.673 435.632 117.321C436.065 116.97 436.306 116.53 436.353 116.003H437.891C437.861 116.548 437.674 117.066 437.328 117.559C436.982 118.051 436.52 118.443 435.939 118.736C435.365 119.029 434.756 119.176 434.111 119.176C432.816 119.176 431.785 118.745 431.018 117.884C430.256 117.017 429.875 115.833 429.875 114.333V114.061C429.875 113.135 430.045 112.312 430.385 111.591C430.725 110.87 431.211 110.311 431.844 109.912C432.482 109.514 433.235 109.314 434.103 109.314C435.169 109.314 436.054 109.634 436.757 110.272C437.466 110.911 437.844 111.74 437.891 112.76H436.353C436.306 112.145 436.071 111.641 435.649 111.248C435.233 110.85 434.718 110.65 434.103 110.65C433.276 110.65 432.635 110.949 432.178 111.547C431.727 112.139 431.501 112.997 431.501 114.122V114.43C431.501 115.525 431.727 116.369 432.178 116.961C432.629 117.553 433.273 117.849 434.111 117.849ZM441.925 107.188V109.49H443.7V110.747H441.925V116.645C441.925 117.025 442.004 117.312 442.162 117.506C442.32 117.693 442.59 117.787 442.971 117.787C443.158 117.787 443.416 117.752 443.744 117.682V119C443.316 119.117 442.9 119.176 442.496 119.176C441.77 119.176 441.222 118.956 440.853 118.517C440.483 118.077 440.299 117.453 440.299 116.645V110.747H438.567V109.49H440.299V107.188H441.925ZM445.643 118.147C445.643 117.866 445.725 117.632 445.889 117.444C446.059 117.257 446.311 117.163 446.645 117.163C446.979 117.163 447.23 117.257 447.4 117.444C447.576 117.632 447.664 117.866 447.664 118.147C447.664 118.417 447.576 118.643 447.4 118.824C447.23 119.006 446.979 119.097 446.645 119.097C446.311 119.097 446.059 119.006 445.889 118.824C445.725 118.643 445.643 118.417 445.643 118.147Z" fill="black"/>
<path d="M465.354 147.354C465.549 147.158 465.549 146.842 465.354 146.646L462.172 143.464C461.976 143.269 461.66 143.269 461.464 143.464C461.269 143.66 461.269 143.976 461.464 144.172L464.293 147L461.464 149.828C461.269 150.024 461.269 150.34 461.464 150.536C461.66 150.731 461.976 150.731 462.172 150.536L465.354 147.354ZM251 147.5L465 147.5V146.5L251 146.5V147.5Z" fill="black"/>
<defs>
<filter id="filter0_d" x="28.3154" y="137.675" width="51.6122" height="55.4556" filterUnits="userSpaceOnUse" color-interpolation-filters="sRGB">
<feFlood flood-opacity="0" result="BackgroundImageFix"/>
<feColorMatrix in="SourceAlpha" type="matrix" values="0 0 0 0 0 0 0 0 0 0 0 0 0 0 0 0 0 0 127 0"/>
<feOffset dy="2.19626"/>
<feGaussianBlur stdDeviation="1.09813"/>
<feColorMatrix type="matrix" values="0 0 0 0 0 0 0 0 0 0 0 0 0 0 0 0 0 0 0.25 0"/>
<feBlend mode="normal" in2="BackgroundImageFix" result="effect1_dropShadow"/>
<feBlend mode="normal" in="SourceGraphic" in2="effect1_dropShadow" result="shape"/>
</filter>
<filter id="filter1_d" x="71.6916" y="147.558" width="51.6122" height="55.4556" filterUnits="userSpaceOnUse" color-interpolation-filters="sRGB">
<feFlood flood-opacity="0" result="BackgroundImageFix"/>
<feColorMatrix in="SourceAlpha" type="matrix" values="0 0 0 0 0 0 0 0 0 0 0 0 0 0 0 0 0 0 127 0"/>
<feOffset dy="2.19626"/>
<feGaussianBlur stdDeviation="1.09813"/>
<feColorMatrix type="matrix" values="0 0 0 0 0 0 0 0 0 0 0 0 0 0 0 0 0 0 0.25 0"/>
<feBlend mode="normal" in2="BackgroundImageFix" result="effect1_dropShadow"/>
<feBlend mode="normal" in="SourceGraphic" in2="effect1_dropShadow" result="shape"/>
</filter>
<filter id="filter2_d" x="27.2173" y="92.1028" width="51.6122" height="60.3972" filterUnits="userSpaceOnUse" color-interpolation-filters="sRGB">
<feFlood flood-opacity="0" result="BackgroundImageFix"/>
<feColorMatrix in="SourceAlpha" type="matrix" values="0 0 0 0 0 0 0 0 0 0 0 0 0 0 0 0 0 0 127 0"/>
<feOffset dy="2.19626"/>
<feGaussianBlur stdDeviation="1.09813"/>
<feColorMatrix type="matrix" values="0 0 0 0 0 0 0 0 0 0 0 0 0 0 0 0 0 0 0.25 0"/>
<feBlend mode="normal" in2="BackgroundImageFix" result="effect1_dropShadow"/>
<feBlend mode="normal" in="SourceGraphic" in2="effect1_dropShadow" result="shape"/>
</filter>
<filter id="filter3_d" x="26.6682" y="53.6682" width="51.6122" height="55.4556" filterUnits="userSpaceOnUse" color-interpolation-filters="sRGB">
<feFlood flood-opacity="0" result="BackgroundImageFix"/>
<feColorMatrix in="SourceAlpha" type="matrix" values="0 0 0 0 0 0 0 0 0 0 0 0 0 0 0 0 0 0 127 0"/>
<feOffset dy="2.19626"/>
<feGaussianBlur stdDeviation="1.09813"/>
<feColorMatrix type="matrix" values="0 0 0 0 0 0 0 0 0 0 0 0 0 0 0 0 0 0 0.25 0"/>
<feBlend mode="normal" in2="BackgroundImageFix" result="effect1_dropShadow"/>
<feBlend mode="normal" in="SourceGraphic" in2="effect1_dropShadow" result="shape"/>
</filter>
<filter id="filter4_d" x="69.4953" y="54.7664" width="58.2009" height="62.5935" filterUnits="userSpaceOnUse" color-interpolation-filters="sRGB">
<feFlood flood-opacity="0" result="BackgroundImageFix"/>
<feColorMatrix in="SourceAlpha" type="matrix" values="0 0 0 0 0 0 0 0 0 0 0 0 0 0 0 0 0 0 127 0"/>
<feOffset dy="2.19626"/>
<feGaussianBlur stdDeviation="1.09813"/>
<feColorMatrix type="matrix" values="0 0 0 0 0 0 0 0 0 0 0 0 0 0 0 0 0 0 0.25 0"/>
<feBlend mode="normal" in2="BackgroundImageFix" result="effect1_dropShadow"/>
<feBlend mode="normal" in="SourceGraphic" in2="effect1_dropShadow" result="shape"/>
</filter>
<filter id="filter5_d" x="70.5623" y="107.102" width="61.8073" height="55.7988" filterUnits="userSpaceOnUse" color-interpolation-filters="sRGB">
<feFlood flood-opacity="0" result="BackgroundImageFix"/>
<feColorMatrix in="SourceAlpha" type="matrix" values="0 0 0 0 0 0 0 0 0 0 0 0 0 0 0 0 0 0 127 0"/>
<feOffset dy="2.19626"/>
<feGaussianBlur stdDeviation="1.09813"/>
<feColorMatrix type="matrix" values="0 0 0 0 0 0 0 0 0 0 0 0 0 0 0 0 0 0 0.25 0"/>
<feBlend mode="normal" in2="BackgroundImageFix" result="effect1_dropShadow"/>
<feBlend mode="normal" in="SourceGraphic" in2="effect1_dropShadow" result="shape"/>
</filter>
<filter id="filter6_d" x="69.227" y="97.7557" width="56.5537" height="18.1192" filterUnits="userSpaceOnUse" color-interpolation-filters="sRGB">
<feFlood flood-opacity="0" result="BackgroundImageFix"/>
<feColorMatrix in="SourceAlpha" type="matrix" values="0 0 0 0 0 0 0 0 0 0 0 0 0 0 0 0 0 0 127 0"/>
<feOffset dy="2.19626"/>
<feGaussianBlur stdDeviation="1.09813"/>
<feColorMatrix type="matrix" values="0 0 0 0 0 0 0 0 0 0 0 0 0 0 0 0 0 0 0.25 0"/>
<feBlend mode="normal" in2="BackgroundImageFix" result="effect1_dropShadow"/>
<feBlend mode="normal" in="SourceGraphic" in2="effect1_dropShadow" result="shape"/>
</filter>
<filter id="filter7_d" x="169.425" y="209.603" width="53.8084" height="53.8084" filterUnits="userSpaceOnUse" color-interpolation-filters="sRGB">
<feFlood flood-opacity="0" result="BackgroundImageFix"/>
<feColorMatrix in="SourceAlpha" type="matrix" values="0 0 0 0 0 0 0 0 0 0 0 0 0 0 0 0 0 0 127 0"/>
<feOffset dy="2.19626"/>
<feGaussianBlur stdDeviation="1.09813"/>
<feColorMatrix type="matrix" values="0 0 0 0 0 0 0 0 0 0 0 0 0 0 0 0 0 0 0.25 0"/>
<feBlend mode="normal" in2="BackgroundImageFix" result="effect1_dropShadow"/>
<feBlend mode="normal" in="SourceGraphic" in2="effect1_dropShadow" result="shape"/>
</filter>
<filter id="filter8_d" x="122.206" y="119.556" width="57.6519" height="55.4556" filterUnits="userSpaceOnUse" color-interpolation-filters="sRGB">
<feFlood flood-opacity="0" result="BackgroundImageFix"/>
<feColorMatrix in="SourceAlpha" type="matrix" values="0 0 0 0 0 0 0 0 0 0 0 0 0 0 0 0 0 0 127 0"/>
<feOffset dy="2.19626"/>
<feGaussianBlur stdDeviation="1.09813"/>
<feColorMatrix type="matrix" values="0 0 0 0 0 0 0 0 0 0 0 0 0 0 0 0 0 0 0.25 0"/>
<feBlend mode="normal" in2="BackgroundImageFix" result="effect1_dropShadow"/>
<feBlend mode="normal" in="SourceGraphic" in2="effect1_dropShadow" result="shape"/>
</filter>
<filter id="filter9_d" x="174.367" y="112.418" width="48.8668" height="62.5935" filterUnits="userSpaceOnUse" color-interpolation-filters="sRGB">
<feFlood flood-opacity="0" result="BackgroundImageFix"/>
<feColorMatrix in="SourceAlpha" type="matrix" values="0 0 0 0 0 0 0 0 0 0 0 0 0 0 0 0 0 0 127 0"/>
<feOffset dy="2.19626"/>
<feGaussianBlur stdDeviation="1.09813"/>
<feColorMatrix type="matrix" values="0 0 0 0 0 0 0 0 0 0 0 0 0 0 0 0 0 0 0.25 0"/>
<feBlend mode="normal" in2="BackgroundImageFix" result="effect1_dropShadow"/>
<feBlend mode="normal" in="SourceGraphic" in2="effect1_dropShadow" result="shape"/>
</filter>
<filter id="filter10_d" x="121.657" y="223.879" width="101.577" height="43.3762" filterUnits="userSpaceOnUse" color-interpolation-filters="sRGB">
<feFlood flood-opacity="0" result="BackgroundImageFix"/>
<feColorMatrix in="SourceAlpha" type="matrix" values="0 0 0 0 0 0 0 0 0 0 0 0 0 0 0 0 0 0 127 0"/>
<feOffset dy="2.19626"/>
<feGaussianBlur stdDeviation="1.09813"/>
<feColorMatrix type="matrix" values="0 0 0 0 0 0 0 0 0 0 0 0 0 0 0 0 0 0 0.25 0"/>
<feBlend mode="normal" in2="BackgroundImageFix" result="effect1_dropShadow"/>
<feBlend mode="normal" in="SourceGraphic" in2="effect1_dropShadow" result="shape"/>
</filter>
<filter id="filter11_d" x="122.206" y="54.2173" width="99.9299" height="25.8061" filterUnits="userSpaceOnUse" color-interpolation-filters="sRGB">
<feFlood flood-opacity="0" result="BackgroundImageFix"/>
<feColorMatrix in="SourceAlpha" type="matrix" values="0 0 0 0 0 0 0 0 0 0 0 0 0 0 0 0 0 0 127 0"/>
<feOffset dy="2.19626"/>
<feGaussianBlur stdDeviation="1.09813"/>
<feColorMatrix type="matrix" values="0 0 0 0 0 0 0 0 0 0 0 0 0 0 0 0 0 0 0.25 0"/>
<feBlend mode="normal" in2="BackgroundImageFix" result="effect1_dropShadow"/>
<feBlend mode="normal" in="SourceGraphic" in2="effect1_dropShadow" result="shape"/>
</filter>
<filter id="filter12_d" x="28.3154" y="44.8832" width="98.8318" height="21.4136" filterUnits="userSpaceOnUse" color-interpolation-filters="sRGB">
<feFlood flood-opacity="0" result="BackgroundImageFix"/>
<feColorMatrix in="SourceAlpha" type="matrix" values="0 0 0 0 0 0 0 0 0 0 0 0 0 0 0 0 0 0 127 0"/>
<feOffset dy="2.19626"/>
<feGaussianBlur stdDeviation="1.09813"/>
<feColorMatrix type="matrix" values="0 0 0 0 0 0 0 0 0 0 0 0 0 0 0 0 0 0 0.25 0"/>
<feBlend mode="normal" in2="BackgroundImageFix" result="effect1_dropShadow"/>
<feBlend mode="normal" in="SourceGraphic" in2="effect1_dropShadow" result="shape"/>
</filter>
<filter id="filter13_d" x="484.9" y="91" width="91.7" height="119.7" filterUnits="userSpaceOnUse" color-interpolation-filters="sRGB">
<feFlood flood-opacity="0" result="BackgroundImageFix"/>
<feColorMatrix in="SourceAlpha" type="matrix" values="0 0 0 0 0 0 0 0 0 0 0 0 0 0 0 0 0 0 127 0"/>
<feOffset dy="2.8"/>
<feGaussianBlur stdDeviation="1.4"/>
<feColorMatrix type="matrix" values="0 0 0 0 0 0 0 0 0 0 0 0 0 0 0 0 0 0 0.25 0"/>
<feBlend mode="normal" in2="BackgroundImageFix" result="effect1_dropShadow"/>
<feBlend mode="normal" in="SourceGraphic" in2="effect1_dropShadow" result="shape"/>
</filter>
<clipPath id="clip0">
<rect width="235" height="246" fill="white" transform="translate(8 24)"/>
</clipPath>
</defs>
</svg>
