<svg width="243" height="258" viewBox="0 0 243 258" fill="none" xmlns="http://www.w3.org/2000/svg">
<g clip-path="url(#clip0)">
<rect width="243" height="258" fill="white"/>
<path d="M22.9953 156.956L71.2294 166.49V209.116L22.9953 198.459V156.956Z" fill="#A541F8"/>
<path d="M71.2294 166.49L121.707 158.638V197.899L71.2294 209.116V166.49Z" fill="#A541F8"/>
<path d="M22.9953 156.395L73.4728 148.543V187.803L22.9953 199.02V156.395Z" fill="#A541F8"/>
<path d="M71.2294 148.543L121.707 156.95V194.533L71.2294 185.138V148.543Z" fill="#A541F8"/>
<path d="M22.4344 156.956L70.6685 168.131V218.09L22.4344 205.6V156.956Z" fill="#A541F8"/>
<path d="M68.4251 165.93L116.659 175.464V218.09L68.4251 207.433V165.93Z" fill="#A541F8"/>
<path d="M68.4251 165.369L118.903 157.517V196.777L68.4251 207.994V165.369Z" fill="#A541F8"/>
<path d="M65.6208 165.369L119.463 177.159V229.868L65.6208 216.69V165.369Z" fill="#A541F8"/>
<path d="M71.7902 146.86L120.024 156.395V199.02L71.7902 188.364V146.86Z" fill="#A541F8"/>
<path d="M22.9953 116.013L71.2294 125.548V168.173L22.9953 157.517V116.013Z" fill="#A541F8"/>
<path d="M71.2294 125.548L121.707 117.695V156.956L71.2294 168.173V125.548Z" fill="#6FCF97"/>
<path d="M22.9953 115.452L73.4728 107.6V146.86L22.9953 158.077V115.452Z" fill="#6FCF97"/>
<path d="M71.2294 107.6L121.707 116.007V153.591L71.2294 144.195V107.6Z" fill="#6FCF97"/>
<g filter="url(#filter0_d)">
<path d="M22.9953 116.013L71.2294 125.548V168.173L22.9953 157.517V116.013Z" fill="#6FCF97"/>
</g>
<path d="M70.6685 125.548L121.146 117.695V156.956L70.6685 168.173V125.548Z" fill="#6FCF97"/>
<path d="M22.9953 115.452L73.4728 107.6V146.86L22.9953 158.077V115.452Z" fill="#6FCF97"/>
<path d="M77.3989 126.108L125.633 135.643V178.268L77.3989 167.612V126.108Z" fill="#A541F8"/>
<path d="M77.3989 125.548L127.876 117.695V156.956L77.3989 168.173V125.548Z" fill="#6FCF97"/>
<g filter="url(#filter1_d)">
<path d="M67.3033 126.108L115.537 135.643V178.268L67.3033 167.612V126.108Z" fill="#0072B2"/>
</g>
<path d="M66.1816 123.865L116.659 116.013V155.273L66.1816 166.49V123.865Z" fill="#0072B2"/>
<path d="M21.3127 71.7049L69.5468 81.2395V123.865L21.3127 113.209V71.7049Z" fill="#A541F8"/>
<path d="M69.5468 81.2395L120.024 73.3875V112.648L69.5468 123.865V81.2395Z" fill="#6FCF97"/>
<path d="M21.3127 71.144L71.7902 63.292V102.552L21.3127 113.769V71.144Z" fill="#6FCF97"/>
<path d="M69.5468 63.292L120.024 71.6988V109.283L69.5468 99.8866V63.292Z" fill="#A541F8"/>
<g filter="url(#filter2_d)">
<path d="M21.8736 69.4614L70.1077 80.0324V126.669L21.8736 115.476V69.4614Z" fill="#A541F8"/>
</g>
<path d="M21.8736 71.144L72.3511 63.292V102.552L21.8736 113.769V71.144Z" fill="#A541F8"/>
<path d="M69.5468 82.3612L120.024 76.1918V116.574L69.5468 126.669V82.3612Z" fill="#A541F8"/>
<path d="M23.5562 30.2011L71.7902 39.7358V82.3612L23.5562 71.7049V30.2011Z" fill="#A541F8"/>
<g filter="url(#filter3_d)">
<path d="M21.3127 30.2011L69.5468 39.7358V82.3612L21.3127 71.7049V30.2011Z" fill="#0072B2"/>
</g>
<g filter="url(#filter4_d)">
<path d="M71.0461 39.8159L120.024 31.3229V73.7881L65.0599 90.7741L71.0461 39.8159Z" fill="#0072B2"/>
</g>
<path d="M74.0337 86.8481L122.268 96.3828V139.008L74.0337 128.352V86.8481Z" fill="#A541F8"/>
<path d="M74.0337 86.2873L124.511 78.4352V117.695L74.0337 128.913V86.2873Z" fill="#6FCF97"/>
<g filter="url(#filter5_d)">
<path d="M66.1497 84.7831L124.798 94.3819V137.294L66.1497 126.566V84.7831Z" fill="#6FCF97"/>
</g>
<path d="M66.1816 80.0306L118.903 72.2657V111.09L66.1816 122.182V80.0306Z" fill="#6FCF97"/>
<g filter="url(#filter6_d)">
<path d="M118.068 75.2357V89.2573L64.7858 81.9661L118.068 75.2357Z" fill="#6FCF97"/>
</g>
<path d="M116.659 177.147L167.137 169.295V208.555L116.659 219.772V177.147Z" fill="#A541F8"/>
<path d="M116.659 157.517L167.137 165.924V203.507L116.659 194.111V157.517Z" fill="#A541F8"/>
<path d="M116.659 116.013L167.137 124.42V162.004L116.659 152.608V116.013Z" fill="#6FCF97"/>
<path d="M115.537 135.643L167.137 127.791V167.051L115.537 178.268V135.643Z" fill="#0072B2"/>
<path d="M118.903 176.586L167.137 186.121V228.746L118.903 218.09V176.586Z" fill="#A541F8"/>
<path d="M167.137 186.121L217.614 178.268V217.529L167.137 228.746V186.121Z" fill="#6FCF97"/>
<path d="M118.903 176.025L169.38 168.173V207.433L118.903 218.65V176.025Z" fill="#6FCF97"/>
<path d="M167.137 168.173L217.614 176.58V214.164L167.137 204.768V168.173Z" fill="#6FCF97"/>
<path d="M118.903 180.512L167.137 190.047V232.672L118.903 222.016V180.512Z" fill="#6FCF97" fill-opacity="0.64"/>
<g filter="url(#filter7_d)">
<path d="M167.137 197.338L217.614 189.486V228.746L167.137 239.963V197.338Z" fill="#6FCF97"/>
</g>
<path d="M118.903 185.56L169.38 177.708V216.968L118.903 228.185V185.56Z" fill="#6FCF97"/>
<path d="M121.146 135.082L169.38 144.617V187.242L121.146 176.586V135.082Z" fill="#A541F8"/>
<path d="M121.146 134.521L171.624 126.669V165.93L121.146 177.147V134.521Z" fill="#6FCF97"/>
<path d="M167.137 125.548L217.614 133.954V171.538L167.137 162.142V125.548Z" fill="#6FCF97"/>
<path d="M118.903 135.082L167.137 144.617V187.242L118.903 176.586V135.082Z" fill="#6FCF97"/>
<path d="M167.137 146.86L217.614 139.008V178.268L167.137 189.486V146.86Z" fill="#6FCF97"/>
<path d="M118.903 133.96L169.38 126.108V165.369L118.903 176.586V133.96Z" fill="#6FCF97"/>
<path d="M117.781 71.7049L169.38 80.6786V119.939L117.781 108.3V71.7049Z" fill="#6FCF97"/>
<path d="M118.903 91.173L169.38 82.3612V126.42L118.903 139.008V91.173Z" fill="#6FCF97"/>
<path d="M128.437 94.7002L176.671 104.235V146.86L128.437 136.204V94.7002Z" fill="#A541F8"/>
<path d="M128.437 94.1393L178.915 86.2873V125.548L128.437 136.765V94.1393Z" fill="#6FCF97"/>
<path d="M167.137 78.4352L217.614 88.5568V132.839L167.137 119.711V78.4352Z" fill="#A541F8"/>
<g filter="url(#filter8_d)">
<path d="M118.903 97.5045L173.306 107.039V149.665L118.903 139.008V97.5045Z" fill="#A541F8"/>
</g>
<g filter="url(#filter9_d)">
<path d="M172.184 99.4613L217.614 90.2133V136.453L172.184 149.665V99.4613Z" fill="#A541F8"/>
</g>
<path d="M118.903 87.5959L169.38 78.4352V124.239L118.903 137.326V87.5959Z" fill="#A541F8"/>
<path d="M118.903 44.6215L169.38 35.8098V79.8685L118.903 92.4567V44.6215Z" fill="#6FCF97"/>
<path d="M128.437 48.1487L176.671 57.6833V100.309L128.437 89.6524V48.1487Z" fill="#A541F8"/>
<path d="M128.437 47.5878L178.915 39.7358V78.9961L128.437 90.2133V47.5878Z" fill="#6FCF97"/>
<path d="M167.137 31.8837L217.614 42.0053V86.2873L167.137 73.1591V31.8837Z" fill="#A541F8"/>
<path d="M118.903 50.953L173.306 60.4876V103.113L118.903 92.4567V50.953Z" fill="#A541F8"/>
<path d="M172.184 52.9098L217.614 43.6618V89.9017L172.184 103.113V52.9098Z" fill="#A541F8"/>
<path d="M118.903 41.0445L169.38 31.8837V77.6874L118.903 90.7742V41.0445Z" fill="#A541F8"/>
<g filter="url(#filter10_d)">
<path d="M172.232 204.068L217.614 228.273L168.262 243.889L118.342 228.273L172.232 204.068Z" fill="#6FCF97"/>
</g>
<g filter="url(#filter11_d)">
<path d="M168.819 30.762L216.492 41.9792L168.819 52.6356L118.903 41.9792L168.819 30.762Z" fill="#A541F8"/>
</g>
<path d="M23.5562 29.6403L74.0337 21.7882V61.0485L23.5562 72.2657V29.6403Z" fill="#6FCF97"/>
<path d="M72.2874 21.3612L119.342 30.8769V72.5079L72.2874 60.1657V21.3612Z" fill="#0072B2"/>
<path d="M21.8226 29.4234L69.5595 21.3612L83.8806 61.6724L21.8226 73.1899V29.4234Z" fill="#0072B2"/>
<g filter="url(#filter12_d)">
<path d="M70.1077 21.2274L119.463 29.6403L70.1077 38.6141L22.9953 29.6403L70.1077 21.2274Z" fill="#0072B2"/>
</g>
<path d="M293.488 98.6571C293.618 98.5206 293.613 98.3048 293.476 98.175L291.251 96.0614C291.115 95.9317 290.899 95.9372 290.769 96.0738C290.639 96.2103 290.645 96.4261 290.781 96.5558L292.759 98.4346L290.88 100.412C290.751 100.549 290.756 100.765 290.893 100.894C291.029 101.024 291.245 101.019 291.375 100.882L293.488 98.6571ZM240.057 100.127L293.25 98.7631L293.232 98.0814L240.04 99.4453L240.057 100.127Z" fill="black"/>
</g>
<defs>
<filter id="filter0_d" x="20.7519" y="116.013" width="52.7209" height="56.647" filterUnits="userSpaceOnUse" color-interpolation-filters="sRGB">
<feFlood flood-opacity="0" result="BackgroundImageFix"/>
<feColorMatrix in="SourceAlpha" type="matrix" values="0 0 0 0 0 0 0 0 0 0 0 0 0 0 0 0 0 0 127 0"/>
<feOffset dy="2.24344"/>
<feGaussianBlur stdDeviation="1.12172"/>
<feColorMatrix type="matrix" values="0 0 0 0 0 0 0 0 0 0 0 0 0 0 0 0 0 0 0.25 0"/>
<feBlend mode="normal" in2="BackgroundImageFix" result="effect1_dropShadow"/>
<feBlend mode="normal" in="SourceGraphic" in2="effect1_dropShadow" result="shape"/>
</filter>
<filter id="filter1_d" x="65.0599" y="126.108" width="52.7209" height="56.647" filterUnits="userSpaceOnUse" color-interpolation-filters="sRGB">
<feFlood flood-opacity="0" result="BackgroundImageFix"/>
<feColorMatrix in="SourceAlpha" type="matrix" values="0 0 0 0 0 0 0 0 0 0 0 0 0 0 0 0 0 0 127 0"/>
<feOffset dy="2.24344"/>
<feGaussianBlur stdDeviation="1.12172"/>
<feColorMatrix type="matrix" values="0 0 0 0 0 0 0 0 0 0 0 0 0 0 0 0 0 0 0.25 0"/>
<feBlend mode="normal" in2="BackgroundImageFix" result="effect1_dropShadow"/>
<feBlend mode="normal" in="SourceGraphic" in2="effect1_dropShadow" result="shape"/>
</filter>
<filter id="filter2_d" x="19.6302" y="69.4614" width="52.7209" height="61.6947" filterUnits="userSpaceOnUse" color-interpolation-filters="sRGB">
<feFlood flood-opacity="0" result="BackgroundImageFix"/>
<feColorMatrix in="SourceAlpha" type="matrix" values="0 0 0 0 0 0 0 0 0 0 0 0 0 0 0 0 0 0 127 0"/>
<feOffset dy="2.24344"/>
<feGaussianBlur stdDeviation="1.12172"/>
<feColorMatrix type="matrix" values="0 0 0 0 0 0 0 0 0 0 0 0 0 0 0 0 0 0 0.25 0"/>
<feBlend mode="normal" in2="BackgroundImageFix" result="effect1_dropShadow"/>
<feBlend mode="normal" in="SourceGraphic" in2="effect1_dropShadow" result="shape"/>
</filter>
<filter id="filter3_d" x="19.0693" y="30.2011" width="52.7209" height="56.647" filterUnits="userSpaceOnUse" color-interpolation-filters="sRGB">
<feFlood flood-opacity="0" result="BackgroundImageFix"/>
<feColorMatrix in="SourceAlpha" type="matrix" values="0 0 0 0 0 0 0 0 0 0 0 0 0 0 0 0 0 0 127 0"/>
<feOffset dy="2.24344"/>
<feGaussianBlur stdDeviation="1.12172"/>
<feColorMatrix type="matrix" values="0 0 0 0 0 0 0 0 0 0 0 0 0 0 0 0 0 0 0.25 0"/>
<feBlend mode="normal" in2="BackgroundImageFix" result="effect1_dropShadow"/>
<feBlend mode="normal" in="SourceGraphic" in2="effect1_dropShadow" result="shape"/>
</filter>
<filter id="filter4_d" x="62.8164" y="31.3229" width="59.4513" height="63.9382" filterUnits="userSpaceOnUse" color-interpolation-filters="sRGB">
<feFlood flood-opacity="0" result="BackgroundImageFix"/>
<feColorMatrix in="SourceAlpha" type="matrix" values="0 0 0 0 0 0 0 0 0 0 0 0 0 0 0 0 0 0 127 0"/>
<feOffset dy="2.24344"/>
<feGaussianBlur stdDeviation="1.12172"/>
<feColorMatrix type="matrix" values="0 0 0 0 0 0 0 0 0 0 0 0 0 0 0 0 0 0 0.25 0"/>
<feBlend mode="normal" in2="BackgroundImageFix" result="effect1_dropShadow"/>
<feBlend mode="normal" in="SourceGraphic" in2="effect1_dropShadow" result="shape"/>
</filter>
<filter id="filter5_d" x="63.9063" y="84.7831" width="63.1351" height="56.9975" filterUnits="userSpaceOnUse" color-interpolation-filters="sRGB">
<feFlood flood-opacity="0" result="BackgroundImageFix"/>
<feColorMatrix in="SourceAlpha" type="matrix" values="0 0 0 0 0 0 0 0 0 0 0 0 0 0 0 0 0 0 127 0"/>
<feOffset dy="2.24344"/>
<feGaussianBlur stdDeviation="1.12172"/>
<feColorMatrix type="matrix" values="0 0 0 0 0 0 0 0 0 0 0 0 0 0 0 0 0 0 0.25 0"/>
<feBlend mode="normal" in2="BackgroundImageFix" result="effect1_dropShadow"/>
<feBlend mode="normal" in="SourceGraphic" in2="effect1_dropShadow" result="shape"/>
</filter>
<filter id="filter6_d" x="62.5424" y="75.2357" width="57.7687" height="18.5084" filterUnits="userSpaceOnUse" color-interpolation-filters="sRGB">
<feFlood flood-opacity="0" result="BackgroundImageFix"/>
<feColorMatrix in="SourceAlpha" type="matrix" values="0 0 0 0 0 0 0 0 0 0 0 0 0 0 0 0 0 0 127 0"/>
<feOffset dy="2.24344"/>
<feGaussianBlur stdDeviation="1.12172"/>
<feColorMatrix type="matrix" values="0 0 0 0 0 0 0 0 0 0 0 0 0 0 0 0 0 0 0.25 0"/>
<feBlend mode="normal" in2="BackgroundImageFix" result="effect1_dropShadow"/>
<feBlend mode="normal" in="SourceGraphic" in2="effect1_dropShadow" result="shape"/>
</filter>
<filter id="filter7_d" x="164.893" y="189.486" width="54.9644" height="54.9644" filterUnits="userSpaceOnUse" color-interpolation-filters="sRGB">
<feFlood flood-opacity="0" result="BackgroundImageFix"/>
<feColorMatrix in="SourceAlpha" type="matrix" values="0 0 0 0 0 0 0 0 0 0 0 0 0 0 0 0 0 0 127 0"/>
<feOffset dy="2.24344"/>
<feGaussianBlur stdDeviation="1.12172"/>
<feColorMatrix type="matrix" values="0 0 0 0 0 0 0 0 0 0 0 0 0 0 0 0 0 0 0.25 0"/>
<feBlend mode="normal" in2="BackgroundImageFix" result="effect1_dropShadow"/>
<feBlend mode="normal" in="SourceGraphic" in2="effect1_dropShadow" result="shape"/>
</filter>
<filter id="filter8_d" x="116.659" y="97.5045" width="58.8904" height="56.647" filterUnits="userSpaceOnUse" color-interpolation-filters="sRGB">
<feFlood flood-opacity="0" result="BackgroundImageFix"/>
<feColorMatrix in="SourceAlpha" type="matrix" values="0 0 0 0 0 0 0 0 0 0 0 0 0 0 0 0 0 0 127 0"/>
<feOffset dy="2.24344"/>
<feGaussianBlur stdDeviation="1.12172"/>
<feColorMatrix type="matrix" values="0 0 0 0 0 0 0 0 0 0 0 0 0 0 0 0 0 0 0.25 0"/>
<feBlend mode="normal" in2="BackgroundImageFix" result="effect1_dropShadow"/>
<feBlend mode="normal" in="SourceGraphic" in2="effect1_dropShadow" result="shape"/>
</filter>
<filter id="filter9_d" x="169.941" y="90.2133" width="49.9166" height="63.9382" filterUnits="userSpaceOnUse" color-interpolation-filters="sRGB">
<feFlood flood-opacity="0" result="BackgroundImageFix"/>
<feColorMatrix in="SourceAlpha" type="matrix" values="0 0 0 0 0 0 0 0 0 0 0 0 0 0 0 0 0 0 127 0"/>
<feOffset dy="2.24344"/>
<feGaussianBlur stdDeviation="1.12172"/>
<feColorMatrix type="matrix" values="0 0 0 0 0 0 0 0 0 0 0 0 0 0 0 0 0 0 0.25 0"/>
<feBlend mode="normal" in2="BackgroundImageFix" result="effect1_dropShadow"/>
<feBlend mode="normal" in="SourceGraphic" in2="effect1_dropShadow" result="shape"/>
</filter>
<filter id="filter10_d" x="116.098" y="204.068" width="103.759" height="44.308" filterUnits="userSpaceOnUse" color-interpolation-filters="sRGB">
<feFlood flood-opacity="0" result="BackgroundImageFix"/>
<feColorMatrix in="SourceAlpha" type="matrix" values="0 0 0 0 0 0 0 0 0 0 0 0 0 0 0 0 0 0 127 0"/>
<feOffset dy="2.24344"/>
<feGaussianBlur stdDeviation="1.12172"/>
<feColorMatrix type="matrix" values="0 0 0 0 0 0 0 0 0 0 0 0 0 0 0 0 0 0 0.25 0"/>
<feBlend mode="normal" in2="BackgroundImageFix" result="effect1_dropShadow"/>
<feBlend mode="normal" in="SourceGraphic" in2="effect1_dropShadow" result="shape"/>
</filter>
<filter id="filter11_d" x="116.659" y="30.762" width="102.077" height="26.3605" filterUnits="userSpaceOnUse" color-interpolation-filters="sRGB">
<feFlood flood-opacity="0" result="BackgroundImageFix"/>
<feColorMatrix in="SourceAlpha" type="matrix" values="0 0 0 0 0 0 0 0 0 0 0 0 0 0 0 0 0 0 127 0"/>
<feOffset dy="2.24344"/>
<feGaussianBlur stdDeviation="1.12172"/>
<feColorMatrix type="matrix" values="0 0 0 0 0 0 0 0 0 0 0 0 0 0 0 0 0 0 0.25 0"/>
<feBlend mode="normal" in2="BackgroundImageFix" result="effect1_dropShadow"/>
<feBlend mode="normal" in="SourceGraphic" in2="effect1_dropShadow" result="shape"/>
</filter>
<filter id="filter12_d" x="20.7519" y="21.2274" width="100.955" height="21.8736" filterUnits="userSpaceOnUse" color-interpolation-filters="sRGB">
<feFlood flood-opacity="0" result="BackgroundImageFix"/>
<feColorMatrix in="SourceAlpha" type="matrix" values="0 0 0 0 0 0 0 0 0 0 0 0 0 0 0 0 0 0 127 0"/>
<feOffset dy="2.24344"/>
<feGaussianBlur stdDeviation="1.12172"/>
<feColorMatrix type="matrix" values="0 0 0 0 0 0 0 0 0 0 0 0 0 0 0 0 0 0 0.25 0"/>
<feBlend mode="normal" in2="BackgroundImageFix" result="effect1_dropShadow"/>
<feBlend mode="normal" in="SourceGraphic" in2="effect1_dropShadow" result="shape"/>
</filter>
<clipPath id="clip0">
<rect width="243" height="258" fill="white"/>
</clipPath>
</defs>
</svg>
