<svg width="404" height="419" viewBox="0 0 404 419" fill="none" xmlns="http://www.w3.org/2000/svg">
<rect width="404" height="419" fill="white"/>
<rect x="65.5" y="23.5" width="101" height="37" fill="#C4C4C4" stroke="black"/>
<rect x="34.5" y="23.5" width="30" height="37" fill="#C4C4C4" stroke="black"/>
<rect x="34.5" y="61.5" width="30" height="37" fill="#C4C4C4" stroke="black"/>
<rect x="34.5" y="61.5" width="30" height="37" fill="#F0E442" stroke="black"/>
<rect x="64.5" y="123.5" width="30" height="37" fill="#F0E442" stroke="black"/>
<rect x="34.5" y="176.5" width="30" height="37" fill="#F0E442" stroke="black"/>
<rect x="73.5" y="237.5" width="30" height="37" fill="#F0E442" stroke="black"/>
<rect x="31.5" y="293.5" width="30" height="37" fill="#F0E442" stroke="black"/>
<rect x="73.5" y="353.5" width="30" height="37" fill="#F0E442" stroke="black"/>
<rect x="167.5" y="23.5" width="84" height="37" fill="#C4C4C4" stroke="black"/>
<path d="M102.266 43.293C102.16 44.1953 101.826 44.8926 101.264 45.3848C100.705 45.873 99.9609 46.1172 99.0312 46.1172C98.0234 46.1172 97.2148 45.7559 96.6055 45.0332C96 44.3105 95.6973 43.3438 95.6973 42.1328V41.3125C95.6973 40.5195 95.8379 39.8223 96.1191 39.2207C96.4043 38.6191 96.8066 38.1582 97.3262 37.8379C97.8457 37.5137 98.4473 37.3516 99.1309 37.3516C100.037 37.3516 100.764 37.6055 101.311 38.1133C101.857 38.6172 102.176 39.3164 102.266 40.2109H101.135C101.037 39.5312 100.824 39.0391 100.496 38.7344C100.172 38.4297 99.7168 38.2773 99.1309 38.2773C98.4121 38.2773 97.8477 38.543 97.4375 39.0742C97.0312 39.6055 96.8281 40.3613 96.8281 41.3418V42.168C96.8281 43.0938 97.0215 43.8301 97.4082 44.377C97.7949 44.9238 98.3359 45.1973 99.0312 45.1973C99.6562 45.1973 100.135 45.0566 100.467 44.7754C100.803 44.4902 101.025 43.9961 101.135 43.293H102.266ZM103.35 42.7715C103.35 42.1504 103.471 41.5918 103.713 41.0957C103.959 40.5996 104.299 40.2168 104.732 39.9473C105.17 39.6777 105.668 39.543 106.227 39.543C107.09 39.543 107.787 39.8418 108.318 40.4395C108.854 41.0371 109.121 41.832 109.121 42.8242V42.9004C109.121 43.5176 109.002 44.0723 108.764 44.5645C108.529 45.0527 108.191 45.4336 107.75 45.707C107.312 45.9805 106.809 46.1172 106.238 46.1172C105.379 46.1172 104.682 45.8184 104.146 45.2207C103.615 44.623 103.35 43.832 103.35 42.8477V42.7715ZM104.439 42.9004C104.439 43.6035 104.602 44.168 104.926 44.5938C105.254 45.0195 105.691 45.2324 106.238 45.2324C106.789 45.2324 107.227 45.0176 107.551 44.5879C107.875 44.1543 108.037 43.5488 108.037 42.7715C108.037 42.0762 107.871 41.5137 107.539 41.084C107.211 40.6504 106.773 40.4336 106.227 40.4336C105.691 40.4336 105.26 40.6465 104.932 41.0723C104.604 41.498 104.439 42.1074 104.439 42.9004ZM114.395 45.373C113.973 45.8691 113.354 46.1172 112.537 46.1172C111.861 46.1172 111.346 45.9219 110.99 45.5312C110.639 45.1367 110.461 44.5547 110.457 43.7852V39.6602H111.541V43.7559C111.541 44.7168 111.932 45.1973 112.713 45.1973C113.541 45.1973 114.092 44.8887 114.365 44.2715V39.6602H115.449V46H114.418L114.395 45.373ZM118.127 39.6602L118.162 40.457C118.646 39.8477 119.279 39.543 120.061 39.543C121.4 39.543 122.076 40.2988 122.088 41.8105V46H121.004V41.8047C121 41.3477 120.895 41.0098 120.688 40.791C120.484 40.5723 120.166 40.4629 119.732 40.4629C119.381 40.4629 119.072 40.5566 118.807 40.7441C118.541 40.9316 118.334 41.1777 118.186 41.4824V46H117.102V39.6602H118.127ZM125.193 38.125V39.6602H126.377V40.498H125.193V44.4297C125.193 44.6836 125.246 44.875 125.352 45.0039C125.457 45.1289 125.637 45.1914 125.891 45.1914C126.016 45.1914 126.188 45.168 126.406 45.1211V46C126.121 46.0781 125.844 46.1172 125.574 46.1172C125.09 46.1172 124.725 45.9707 124.479 45.6777C124.232 45.3848 124.109 44.9688 124.109 44.4297V40.498H122.955V39.6602H124.109V38.125H125.193ZM130.713 40.6328C130.549 40.6055 130.371 40.5918 130.18 40.5918C129.469 40.5918 128.986 40.8945 128.732 41.5V46H127.648V39.6602H128.703L128.721 40.3926C129.076 39.8262 129.58 39.543 130.232 39.543C130.443 39.543 130.604 39.5703 130.713 39.625V40.6328ZM133.895 44.4121L135.371 39.6602H136.531L133.982 46.9785C133.588 48.0332 132.961 48.5605 132.102 48.5605L131.896 48.543L131.492 48.4668V47.5879L131.785 47.6113C132.152 47.6113 132.438 47.5371 132.641 47.3887C132.848 47.2402 133.018 46.9688 133.15 46.5742L133.391 45.9297L131.129 39.6602H132.312L133.895 44.4121Z" fill="black"/>
<path d="M189.641 39H188.51V35.0566H184.209V39H183.084V30.4688H184.209V34.1367H188.51V30.4688H189.641V39ZM195.383 39C195.32 38.875 195.27 38.6523 195.23 38.332C194.727 38.8555 194.125 39.1172 193.426 39.1172C192.801 39.1172 192.287 38.9414 191.885 38.5898C191.486 38.2344 191.287 37.7852 191.287 37.2422C191.287 36.582 191.537 36.0703 192.037 35.707C192.541 35.3398 193.248 35.1562 194.158 35.1562H195.213V34.6582C195.213 34.2793 195.1 33.9785 194.873 33.7559C194.646 33.5293 194.312 33.416 193.871 33.416C193.484 33.416 193.16 33.5137 192.898 33.709C192.637 33.9043 192.506 34.1406 192.506 34.418H191.416C191.416 34.1016 191.527 33.7969 191.75 33.5039C191.977 33.207 192.281 32.9727 192.664 32.8008C193.051 32.6289 193.475 32.543 193.936 32.543C194.666 32.543 195.238 32.7266 195.652 33.0938C196.066 33.457 196.281 33.959 196.297 34.5996V37.5176C196.297 38.0996 196.371 38.5625 196.52 38.9062V39H195.383ZM193.584 38.1738C193.924 38.1738 194.246 38.0859 194.551 37.9102C194.855 37.7344 195.076 37.5059 195.213 37.2246V35.9238H194.363C193.035 35.9238 192.371 36.3125 192.371 37.0898C192.371 37.4297 192.484 37.6953 192.711 37.8867C192.938 38.0781 193.229 38.1738 193.584 38.1738ZM203.352 35.9004C203.352 36.8652 203.131 37.6426 202.689 38.2324C202.248 38.8223 201.65 39.1172 200.896 39.1172C200.127 39.1172 199.521 38.873 199.08 38.3848V41.4375H197.996V32.6602H198.986L199.039 33.3633C199.48 32.8164 200.094 32.543 200.879 32.543C201.641 32.543 202.242 32.8301 202.684 33.4043C203.129 33.9785 203.352 34.7773 203.352 35.8008V35.9004ZM202.268 35.7773C202.268 35.0625 202.115 34.498 201.811 34.084C201.506 33.6699 201.088 33.4629 200.557 33.4629C199.9 33.4629 199.408 33.7539 199.08 34.3359V37.3652C199.404 37.9434 199.9 38.2324 200.568 38.2324C201.088 38.2324 201.5 38.0273 201.805 37.6172C202.113 37.2031 202.268 36.5898 202.268 35.7773ZM210.09 35.9004C210.09 36.8652 209.869 37.6426 209.428 38.2324C208.986 38.8223 208.389 39.1172 207.635 39.1172C206.865 39.1172 206.26 38.873 205.818 38.3848V41.4375H204.734V32.6602H205.725L205.777 33.3633C206.219 32.8164 206.832 32.543 207.617 32.543C208.379 32.543 208.98 32.8301 209.422 33.4043C209.867 33.9785 210.09 34.7773 210.09 35.8008V35.9004ZM209.006 35.7773C209.006 35.0625 208.854 34.498 208.549 34.084C208.244 33.6699 207.826 33.4629 207.295 33.4629C206.639 33.4629 206.146 33.7539 205.818 34.3359V37.3652C206.143 37.9434 206.639 38.2324 207.307 38.2324C207.826 38.2324 208.238 38.0273 208.543 37.6172C208.852 37.2031 209.006 36.5898 209.006 35.7773ZM212.65 39H211.566V32.6602H212.65V39ZM211.479 30.9785C211.479 30.8027 211.531 30.6543 211.637 30.5332C211.746 30.4121 211.906 30.3516 212.117 30.3516C212.328 30.3516 212.488 30.4121 212.598 30.5332C212.707 30.6543 212.762 30.8027 212.762 30.9785C212.762 31.1543 212.707 31.3008 212.598 31.418C212.488 31.5352 212.328 31.5938 212.117 31.5938C211.906 31.5938 211.746 31.5352 211.637 31.418C211.531 31.3008 211.479 31.1543 211.479 30.9785ZM215.416 32.6602L215.451 33.457C215.936 32.8477 216.568 32.543 217.35 32.543C218.689 32.543 219.365 33.2988 219.377 34.8105V39H218.293V34.8047C218.289 34.3477 218.184 34.0098 217.977 33.791C217.773 33.5723 217.455 33.4629 217.021 33.4629C216.67 33.4629 216.361 33.5566 216.096 33.7441C215.83 33.9316 215.623 34.1777 215.475 34.4824V39H214.391V32.6602H215.416ZM223.643 39.1172C222.783 39.1172 222.084 38.8359 221.545 38.2734C221.006 37.707 220.736 36.9512 220.736 36.0059V35.8066C220.736 35.1777 220.855 34.6172 221.094 34.125C221.336 33.6289 221.672 33.2422 222.102 32.9648C222.535 32.6836 223.004 32.543 223.508 32.543C224.332 32.543 224.973 32.8145 225.43 33.3574C225.887 33.9004 226.115 34.6777 226.115 35.6895V36.1406H221.82C221.836 36.7656 222.018 37.2715 222.365 37.6582C222.717 38.041 223.162 38.2324 223.701 38.2324C224.084 38.2324 224.408 38.1543 224.674 37.998C224.939 37.8418 225.172 37.6348 225.371 37.377L226.033 37.8926C225.502 38.709 224.705 39.1172 223.643 39.1172ZM223.508 33.4336C223.07 33.4336 222.703 33.5938 222.406 33.9141C222.109 34.2305 221.926 34.6758 221.855 35.25H225.031V35.168C225 34.6172 224.852 34.1914 224.586 33.8906C224.32 33.5859 223.961 33.4336 223.508 33.4336ZM231.066 37.3184C231.066 37.0254 230.955 36.7988 230.732 36.6387C230.514 36.4746 230.129 36.334 229.578 36.2168C229.031 36.0996 228.596 35.959 228.271 35.7949C227.951 35.6309 227.713 35.4355 227.557 35.209C227.404 34.9824 227.328 34.7129 227.328 34.4004C227.328 33.8809 227.547 33.4414 227.984 33.082C228.426 32.7227 228.988 32.543 229.672 32.543C230.391 32.543 230.973 32.7285 231.418 33.0996C231.867 33.4707 232.092 33.9453 232.092 34.5234H231.002C231.002 34.2266 230.875 33.9707 230.621 33.7559C230.371 33.541 230.055 33.4336 229.672 33.4336C229.277 33.4336 228.969 33.5195 228.746 33.6914C228.523 33.8633 228.412 34.0879 228.412 34.3652C228.412 34.627 228.516 34.8242 228.723 34.957C228.93 35.0898 229.303 35.2168 229.842 35.3379C230.385 35.459 230.824 35.6035 231.16 35.7715C231.496 35.9395 231.744 36.1426 231.904 36.3809C232.068 36.6152 232.15 36.9023 232.15 37.2422C232.15 37.8086 231.924 38.2637 231.471 38.6074C231.018 38.9473 230.43 39.1172 229.707 39.1172C229.199 39.1172 228.75 39.0273 228.359 38.8477C227.969 38.668 227.662 38.418 227.439 38.0977C227.221 37.7734 227.111 37.4238 227.111 37.0488H228.195C228.215 37.4121 228.359 37.7012 228.629 37.916C228.902 38.127 229.262 38.2324 229.707 38.2324C230.117 38.2324 230.445 38.1504 230.691 37.9863C230.941 37.8184 231.066 37.5957 231.066 37.3184ZM237.254 37.3184C237.254 37.0254 237.143 36.7988 236.92 36.6387C236.701 36.4746 236.316 36.334 235.766 36.2168C235.219 36.0996 234.783 35.959 234.459 35.7949C234.139 35.6309 233.9 35.4355 233.744 35.209C233.592 34.9824 233.516 34.7129 233.516 34.4004C233.516 33.8809 233.734 33.4414 234.172 33.082C234.613 32.7227 235.176 32.543 235.859 32.543C236.578 32.543 237.16 32.7285 237.605 33.0996C238.055 33.4707 238.279 33.9453 238.279 34.5234H237.189C237.189 34.2266 237.062 33.9707 236.809 33.7559C236.559 33.541 236.242 33.4336 235.859 33.4336C235.465 33.4336 235.156 33.5195 234.934 33.6914C234.711 33.8633 234.6 34.0879 234.6 34.3652C234.6 34.627 234.703 34.8242 234.91 34.957C235.117 35.0898 235.49 35.2168 236.029 35.3379C236.572 35.459 237.012 35.6035 237.348 35.7715C237.684 35.9395 237.932 36.1426 238.092 36.3809C238.256 36.6152 238.338 36.9023 238.338 37.2422C238.338 37.8086 238.111 38.2637 237.658 38.6074C237.205 38.9473 236.617 39.1172 235.895 39.1172C235.387 39.1172 234.938 39.0273 234.547 38.8477C234.156 38.668 233.85 38.418 233.627 38.0977C233.408 37.7734 233.299 37.4238 233.299 37.0488H234.383C234.402 37.4121 234.547 37.7012 234.816 37.916C235.09 38.127 235.449 38.2324 235.895 38.2324C236.305 38.2324 236.633 38.1504 236.879 37.9863C237.129 37.8184 237.254 37.5957 237.254 37.3184ZM202.807 49.5488H200.803V53H199.672V44.4688H202.496C203.457 44.4688 204.195 44.6875 204.711 45.125C205.23 45.5625 205.49 46.1992 205.49 47.0352C205.49 47.5664 205.346 48.0293 205.057 48.4238C204.771 48.8184 204.373 49.1133 203.861 49.3086L205.865 52.9297V53H204.658L202.807 49.5488ZM200.803 48.6289H202.531C203.09 48.6289 203.533 48.4844 203.861 48.1953C204.193 47.9062 204.359 47.5195 204.359 47.0352C204.359 46.5078 204.201 46.1035 203.885 45.8223C203.572 45.541 203.119 45.3984 202.525 45.3945H200.803V48.6289ZM210.816 53C210.754 52.875 210.703 52.6523 210.664 52.332C210.16 52.8555 209.559 53.1172 208.859 53.1172C208.234 53.1172 207.721 52.9414 207.318 52.5898C206.92 52.2344 206.721 51.7852 206.721 51.2422C206.721 50.582 206.971 50.0703 207.471 49.707C207.975 49.3398 208.682 49.1562 209.592 49.1562H210.646V48.6582C210.646 48.2793 210.533 47.9785 210.307 47.7559C210.08 47.5293 209.746 47.416 209.305 47.416C208.918 47.416 208.594 47.5137 208.332 47.709C208.07 47.9043 207.939 48.1406 207.939 48.418H206.85C206.85 48.1016 206.961 47.7969 207.184 47.5039C207.41 47.207 207.715 46.9727 208.098 46.8008C208.484 46.6289 208.908 46.543 209.369 46.543C210.1 46.543 210.672 46.7266 211.086 47.0938C211.5 47.457 211.715 47.959 211.73 48.5996V51.5176C211.73 52.0996 211.805 52.5625 211.953 52.9062V53H210.816ZM209.018 52.1738C209.357 52.1738 209.68 52.0859 209.984 51.9102C210.289 51.7344 210.51 51.5059 210.646 51.2246V49.9238H209.797C208.469 49.9238 207.805 50.3125 207.805 51.0898C207.805 51.4297 207.918 51.6953 208.145 51.8867C208.371 52.0781 208.662 52.1738 209.018 52.1738ZM214.455 46.6602L214.49 47.457C214.975 46.8477 215.607 46.543 216.389 46.543C217.729 46.543 218.404 47.2988 218.416 48.8105V53H217.332V48.8047C217.328 48.3477 217.223 48.0098 217.016 47.791C216.812 47.5723 216.494 47.4629 216.061 47.4629C215.709 47.4629 215.4 47.5566 215.135 47.7441C214.869 47.9316 214.662 48.1777 214.514 48.4824V53H213.43V46.6602H214.455ZM221.82 50.0645L221.141 50.7734V53H220.057V44H221.141V49.4434L221.721 48.7461L223.695 46.6602H225.014L222.547 49.3086L225.301 53H224.029L221.82 50.0645Z" fill="black"/>
<rect x="65.5" y="61.5" width="101" height="37" fill="#2D9CDB" stroke="black"/>
<path d="M85.9902 83V74.4688H88.3984C89.1406 74.4688 89.7969 74.6328 90.3672 74.9609C90.9375 75.2891 91.377 75.7559 91.6855 76.3613C91.998 76.9668 92.1562 77.6621 92.1602 78.4473V78.9922C92.1602 79.7969 92.0039 80.502 91.6914 81.1074C91.3828 81.7129 90.9395 82.1777 90.3613 82.502C89.7871 82.8262 89.1172 82.9922 88.3516 83H85.9902ZM87.1152 75.3945V82.0801H88.2988C89.166 82.0801 89.8398 81.8105 90.3203 81.2715C90.8047 80.7324 91.0469 79.9648 91.0469 78.9688V78.4707C91.0469 77.502 90.8184 76.75 90.3613 76.2148C89.9082 75.6758 89.2637 75.4023 88.4277 75.3945H87.1152ZM96.3262 83.1172C95.4668 83.1172 94.7676 82.8359 94.2285 82.2734C93.6895 81.707 93.4199 80.9512 93.4199 80.0059V79.8066C93.4199 79.1777 93.5391 78.6172 93.7773 78.125C94.0195 77.6289 94.3555 77.2422 94.7852 76.9648C95.2188 76.6836 95.6875 76.543 96.1914 76.543C97.0156 76.543 97.6562 76.8145 98.1133 77.3574C98.5703 77.9004 98.7988 78.6777 98.7988 79.6895V80.1406H94.5039C94.5195 80.7656 94.7012 81.2715 95.0488 81.6582C95.4004 82.041 95.8457 82.2324 96.3848 82.2324C96.7676 82.2324 97.0918 82.1543 97.3574 81.998C97.623 81.8418 97.8555 81.6348 98.0547 81.377L98.7168 81.8926C98.1855 82.709 97.3887 83.1172 96.3262 83.1172ZM96.1914 77.4336C95.7539 77.4336 95.3867 77.5938 95.0898 77.9141C94.793 78.2305 94.6094 78.6758 94.5391 79.25H97.7148V79.168C97.6836 78.6172 97.5352 78.1914 97.2695 77.8906C97.0039 77.5859 96.6445 77.4336 96.1914 77.4336ZM101.084 76.6602L101.119 77.457C101.604 76.8477 102.236 76.543 103.018 76.543C104.357 76.543 105.033 77.2988 105.045 78.8105V83H103.961V78.8047C103.957 78.3477 103.852 78.0098 103.645 77.791C103.441 77.5723 103.123 77.4629 102.689 77.4629C102.338 77.4629 102.029 77.5566 101.764 77.7441C101.498 77.9316 101.291 78.1777 101.143 78.4824V83H100.059V76.6602H101.084ZM107.699 76.6602L107.729 77.3633C108.193 76.8164 108.82 76.543 109.609 76.543C110.496 76.543 111.1 76.8828 111.42 77.5625C111.631 77.2578 111.904 77.0117 112.24 76.8242C112.58 76.6367 112.98 76.543 113.441 76.543C114.832 76.543 115.539 77.2793 115.562 78.752V83H114.479V78.8164C114.479 78.3633 114.375 78.0254 114.168 77.8027C113.961 77.5762 113.613 77.4629 113.125 77.4629C112.723 77.4629 112.389 77.584 112.123 77.8262C111.857 78.0645 111.703 78.3867 111.66 78.793V83H110.57V78.8457C110.57 77.9238 110.119 77.4629 109.217 77.4629C108.506 77.4629 108.02 77.7656 107.758 78.3711V83H106.674V76.6602H107.699ZM121.117 83C121.055 82.875 121.004 82.6523 120.965 82.332C120.461 82.8555 119.859 83.1172 119.16 83.1172C118.535 83.1172 118.021 82.9414 117.619 82.5898C117.221 82.2344 117.021 81.7852 117.021 81.2422C117.021 80.582 117.271 80.0703 117.771 79.707C118.275 79.3398 118.982 79.1562 119.893 79.1562H120.947V78.6582C120.947 78.2793 120.834 77.9785 120.607 77.7559C120.381 77.5293 120.047 77.416 119.605 77.416C119.219 77.416 118.895 77.5137 118.633 77.709C118.371 77.9043 118.24 78.1406 118.24 78.418H117.15C117.15 78.1016 117.262 77.7969 117.484 77.5039C117.711 77.207 118.016 76.9727 118.398 76.8008C118.785 76.6289 119.209 76.543 119.67 76.543C120.4 76.543 120.973 76.7266 121.387 77.0938C121.801 77.457 122.016 77.959 122.031 78.5996V81.5176C122.031 82.0996 122.105 82.5625 122.254 82.9062V83H121.117ZM119.318 82.1738C119.658 82.1738 119.98 82.0859 120.285 81.9102C120.59 81.7344 120.811 81.5059 120.947 81.2246V79.9238H120.098C118.77 79.9238 118.105 80.3125 118.105 81.0898C118.105 81.4297 118.219 81.6953 118.445 81.8867C118.672 82.0781 118.963 82.1738 119.318 82.1738ZM126.795 77.6328C126.631 77.6055 126.453 77.5918 126.262 77.5918C125.551 77.5918 125.068 77.8945 124.814 78.5V83H123.73V76.6602H124.785L124.803 77.3926C125.158 76.8262 125.662 76.543 126.314 76.543C126.525 76.543 126.686 76.5703 126.795 76.625V77.6328ZM129.566 80.0645L128.887 80.7734V83H127.803V74H128.887V79.4434L129.467 78.7461L131.441 76.6602H132.76L130.293 79.3086L133.047 83H131.775L129.566 80.0645Z" fill="black"/>
<rect x="252.5" y="23.5" width="84" height="37" fill="#C4C4C4" stroke="black"/>
<path d="M285.592 41.752L287.818 37.4688H289.096L286.154 42.8184V46H285.029V42.8184L282.088 37.4688H283.377L285.592 41.752ZM292.271 46.1172C291.412 46.1172 290.713 45.8359 290.174 45.2734C289.635 44.707 289.365 43.9512 289.365 43.0059V42.8066C289.365 42.1777 289.484 41.6172 289.723 41.125C289.965 40.6289 290.301 40.2422 290.73 39.9648C291.164 39.6836 291.633 39.543 292.137 39.543C292.961 39.543 293.602 39.8145 294.059 40.3574C294.516 40.9004 294.744 41.6777 294.744 42.6895V43.1406H290.449C290.465 43.7656 290.646 44.2715 290.994 44.6582C291.346 45.041 291.791 45.2324 292.33 45.2324C292.713 45.2324 293.037 45.1543 293.303 44.998C293.568 44.8418 293.801 44.6348 294 44.377L294.662 44.8926C294.131 45.709 293.334 46.1172 292.271 46.1172ZM292.137 40.4336C291.699 40.4336 291.332 40.5938 291.035 40.9141C290.738 41.2305 290.555 41.6758 290.484 42.25H293.66V42.168C293.629 41.6172 293.48 41.1914 293.215 40.8906C292.949 40.5859 292.59 40.4336 292.137 40.4336ZM299.918 46C299.855 45.875 299.805 45.6523 299.766 45.332C299.262 45.8555 298.66 46.1172 297.961 46.1172C297.336 46.1172 296.822 45.9414 296.42 45.5898C296.021 45.2344 295.822 44.7852 295.822 44.2422C295.822 43.582 296.072 43.0703 296.572 42.707C297.076 42.3398 297.783 42.1562 298.693 42.1562H299.748V41.6582C299.748 41.2793 299.635 40.9785 299.408 40.7559C299.182 40.5293 298.848 40.416 298.406 40.416C298.02 40.416 297.695 40.5137 297.434 40.709C297.172 40.9043 297.041 41.1406 297.041 41.418H295.951C295.951 41.1016 296.062 40.7969 296.285 40.5039C296.512 40.207 296.816 39.9727 297.199 39.8008C297.586 39.6289 298.01 39.543 298.471 39.543C299.201 39.543 299.773 39.7266 300.188 40.0938C300.602 40.457 300.816 40.959 300.832 41.5996V44.5176C300.832 45.0996 300.906 45.5625 301.055 45.9062V46H299.918ZM298.119 45.1738C298.459 45.1738 298.781 45.0859 299.086 44.9102C299.391 44.7344 299.611 44.5059 299.748 44.2246V42.9238H298.898C297.57 42.9238 296.906 43.3125 296.906 44.0898C296.906 44.4297 297.02 44.6953 297.246 44.8867C297.473 45.0781 297.764 45.1738 298.119 45.1738ZM305.596 40.6328C305.432 40.6055 305.254 40.5918 305.062 40.5918C304.352 40.5918 303.869 40.8945 303.615 41.5V46H302.531V39.6602H303.586L303.604 40.3926C303.959 39.8262 304.463 39.543 305.115 39.543C305.326 39.543 305.486 39.5703 305.596 39.625V40.6328Z" fill="black"/>
<rect x="167.5" y="61.5" width="84" height="37" fill="#2D9CDB" stroke="black"/>
<rect x="252.5" y="61.5" width="84" height="37" fill="#2D9CDB" stroke="black"/>
<path d="M211.285 78.207H212.1C212.611 78.1992 213.014 78.0645 213.307 77.8027C213.6 77.541 213.746 77.1875 213.746 76.7422C213.746 75.7422 213.248 75.2422 212.252 75.2422C211.783 75.2422 211.408 75.377 211.127 75.6465C210.85 75.9121 210.711 76.2656 210.711 76.707H209.627C209.627 76.0312 209.873 75.4707 210.365 75.0254C210.861 74.5762 211.49 74.3516 212.252 74.3516C213.057 74.3516 213.688 74.5645 214.145 74.9902C214.602 75.416 214.83 76.0078 214.83 76.7656C214.83 77.1367 214.709 77.4961 214.467 77.8438C214.229 78.1914 213.902 78.4512 213.488 78.623C213.957 78.7715 214.318 79.0176 214.572 79.3613C214.83 79.7051 214.959 80.125 214.959 80.6211C214.959 81.3867 214.709 81.9941 214.209 82.4434C213.709 82.8926 213.059 83.1172 212.258 83.1172C211.457 83.1172 210.805 82.9004 210.301 82.4668C209.801 82.0332 209.551 81.4609 209.551 80.75H210.641C210.641 81.1992 210.787 81.5586 211.08 81.8281C211.373 82.0977 211.766 82.2324 212.258 82.2324C212.781 82.2324 213.182 82.0957 213.459 81.8223C213.736 81.5488 213.875 81.1562 213.875 80.6445C213.875 80.1484 213.723 79.7676 213.418 79.502C213.113 79.2363 212.674 79.0996 212.1 79.0918H211.285V78.207Z" fill="black"/>
<path d="M52.2988 83H46.709V82.2207L49.6621 78.9395C50.0996 78.4434 50.4004 78.041 50.5645 77.7324C50.7324 77.4199 50.8164 77.0977 50.8164 76.7656C50.8164 76.3203 50.6816 75.9551 50.4121 75.6699C50.1426 75.3848 49.7832 75.2422 49.334 75.2422C48.7949 75.2422 48.375 75.3965 48.0742 75.7051C47.7773 76.0098 47.6289 76.4355 47.6289 76.9824H46.5449C46.5449 76.1973 46.7969 75.5625 47.3008 75.0781C47.8086 74.5938 48.4863 74.3516 49.334 74.3516C50.127 74.3516 50.7539 74.5605 51.2148 74.9785C51.6758 75.3926 51.9062 75.9453 51.9062 76.6367C51.9062 77.4766 51.3711 78.4766 50.3008 79.6367L48.0156 82.1152H52.2988V83Z" fill="black"/>
<path d="M82.2988 147H76.709V146.221L79.6621 142.939C80.0996 142.443 80.4004 142.041 80.5645 141.732C80.7324 141.42 80.8164 141.098 80.8164 140.766C80.8164 140.32 80.6816 139.955 80.4121 139.67C80.1426 139.385 79.7832 139.242 79.334 139.242C78.7949 139.242 78.375 139.396 78.0742 139.705C77.7773 140.01 77.6289 140.436 77.6289 140.982H76.5449C76.5449 140.197 76.7969 139.562 77.3008 139.078C77.8086 138.594 78.4863 138.352 79.334 138.352C80.127 138.352 80.7539 138.561 81.2148 138.979C81.6758 139.393 81.9062 139.945 81.9062 140.637C81.9062 141.477 81.3711 142.477 80.3008 143.637L78.0156 146.115H82.2988V147Z" fill="black"/>
<path d="M48.2852 312.135H49.4688V313.02H48.2852V315H47.1953V313.02H43.3105V312.381L47.1309 306.469H48.2852V312.135ZM44.541 312.135H47.1953V307.951L47.0664 308.186L44.541 312.135Z" fill="black"/>
<path d="M90.2852 372.135H91.4688V373.02H90.2852V375H89.1953V373.02H85.3105V372.381L89.1309 366.469H90.2852V372.135ZM86.541 372.135H89.1953V367.951L89.0664 368.186L86.541 372.135Z" fill="black"/>
<path d="M285.299 83H279.709V82.2207L282.662 78.9395C283.1 78.4434 283.4 78.041 283.564 77.7324C283.732 77.4199 283.816 77.0977 283.816 76.7656C283.816 76.3203 283.682 75.9551 283.412 75.6699C283.143 75.3848 282.783 75.2422 282.334 75.2422C281.795 75.2422 281.375 75.3965 281.074 75.7051C280.777 76.0098 280.629 76.4355 280.629 76.9824H279.545C279.545 76.1973 279.797 75.5625 280.301 75.0781C280.809 74.5938 281.486 74.3516 282.334 74.3516C283.127 74.3516 283.754 74.5605 284.215 74.9785C284.676 75.3926 284.906 75.9453 284.906 76.6367C284.906 77.4766 284.371 78.4766 283.301 79.6367L281.016 82.1152H285.299V83ZM291.797 79.3613C291.797 80.6309 291.58 81.5742 291.146 82.1914C290.713 82.8086 290.035 83.1172 289.113 83.1172C288.203 83.1172 287.529 82.8164 287.092 82.2148C286.654 81.6094 286.428 80.707 286.412 79.5078V78.0605C286.412 76.8066 286.629 75.875 287.062 75.2656C287.496 74.6562 288.176 74.3516 289.102 74.3516C290.02 74.3516 290.695 74.6465 291.129 75.2363C291.562 75.8223 291.785 76.7285 291.797 77.9551V79.3613ZM290.713 77.8789C290.713 76.9609 290.584 76.293 290.326 75.875C290.068 75.4531 289.66 75.2422 289.102 75.2422C288.547 75.2422 288.143 75.4512 287.889 75.8691C287.635 76.2871 287.504 76.9297 287.496 77.7969V79.5312C287.496 80.4531 287.629 81.1348 287.895 81.5762C288.164 82.0137 288.57 82.2324 289.113 82.2324C289.648 82.2324 290.045 82.0254 290.303 81.6113C290.564 81.1973 290.701 80.5449 290.713 79.6543V77.8789ZM296.748 83H295.658V75.7754L293.473 76.5781V75.5938L296.578 74.4277H296.748V83ZM300.422 78.7227L300.855 74.4688H305.227V75.4707H301.775L301.518 77.7969C301.936 77.5508 302.41 77.4277 302.941 77.4277C303.719 77.4277 304.336 77.6855 304.793 78.2012C305.25 78.7129 305.479 79.4062 305.479 80.2812C305.479 81.1602 305.24 81.8535 304.764 82.3613C304.291 82.8652 303.629 83.1172 302.777 83.1172C302.023 83.1172 301.408 82.9082 300.932 82.4902C300.455 82.0723 300.184 81.4941 300.117 80.7559H301.143C301.209 81.2441 301.383 81.6133 301.664 81.8633C301.945 82.1094 302.316 82.2324 302.777 82.2324C303.281 82.2324 303.676 82.0605 303.961 81.7168C304.25 81.373 304.395 80.8984 304.395 80.293C304.395 79.7227 304.238 79.2656 303.926 78.9219C303.617 78.5742 303.205 78.4004 302.689 78.4004C302.217 78.4004 301.846 78.5039 301.576 78.7109L301.289 78.9453L300.422 78.7227Z" fill="black"/>
<rect x="62.5" y="292.5" width="101" height="38" fill="#2D9CDB" stroke="black"/>
<path d="M96.2656 312.293C96.1602 313.195 95.8262 313.893 95.2637 314.385C94.7051 314.873 93.9609 315.117 93.0312 315.117C92.0234 315.117 91.2148 314.756 90.6055 314.033C90 313.311 89.6973 312.344 89.6973 311.133V310.312C89.6973 309.52 89.8379 308.822 90.1191 308.221C90.4043 307.619 90.8066 307.158 91.3262 306.838C91.8457 306.514 92.4473 306.352 93.1309 306.352C94.0371 306.352 94.7637 306.605 95.3105 307.113C95.8574 307.617 96.1758 308.316 96.2656 309.211H95.1348C95.0371 308.531 94.8242 308.039 94.4961 307.734C94.1719 307.43 93.7168 307.277 93.1309 307.277C92.4121 307.277 91.8477 307.543 91.4375 308.074C91.0312 308.605 90.8281 309.361 90.8281 310.342V311.168C90.8281 312.094 91.0215 312.83 91.4082 313.377C91.7949 313.924 92.3359 314.197 93.0312 314.197C93.6562 314.197 94.1348 314.057 94.4668 313.775C94.8027 313.49 95.0254 312.996 95.1348 312.293H96.2656ZM101.551 315C101.488 314.875 101.438 314.652 101.398 314.332C100.895 314.855 100.293 315.117 99.5938 315.117C98.9688 315.117 98.4551 314.941 98.0527 314.59C97.6543 314.234 97.4551 313.785 97.4551 313.242C97.4551 312.582 97.7051 312.07 98.2051 311.707C98.709 311.34 99.416 311.156 100.326 311.156H101.381V310.658C101.381 310.279 101.268 309.979 101.041 309.756C100.814 309.529 100.48 309.416 100.039 309.416C99.6523 309.416 99.3281 309.514 99.0664 309.709C98.8047 309.904 98.6738 310.141 98.6738 310.418H97.584C97.584 310.102 97.6953 309.797 97.918 309.504C98.1445 309.207 98.4492 308.973 98.832 308.801C99.2188 308.629 99.6426 308.543 100.104 308.543C100.834 308.543 101.406 308.727 101.82 309.094C102.234 309.457 102.449 309.959 102.465 310.6V313.518C102.465 314.1 102.539 314.562 102.688 314.906V315H101.551ZM99.752 314.174C100.092 314.174 100.414 314.086 100.719 313.91C101.023 313.734 101.244 313.506 101.381 313.225V311.924H100.531C99.2031 311.924 98.5391 312.312 98.5391 313.09C98.5391 313.43 98.6523 313.695 98.8789 313.887C99.1055 314.078 99.3965 314.174 99.752 314.174ZM105.189 308.66L105.225 309.457C105.709 308.848 106.342 308.543 107.123 308.543C108.463 308.543 109.139 309.299 109.15 310.811V315H108.066V310.805C108.062 310.348 107.957 310.01 107.75 309.791C107.547 309.572 107.229 309.463 106.795 309.463C106.443 309.463 106.135 309.557 105.869 309.744C105.604 309.932 105.396 310.178 105.248 310.482V315H104.164V308.66H105.189ZM114.699 315C114.637 314.875 114.586 314.652 114.547 314.332C114.043 314.855 113.441 315.117 112.742 315.117C112.117 315.117 111.604 314.941 111.201 314.59C110.803 314.234 110.604 313.785 110.604 313.242C110.604 312.582 110.854 312.07 111.354 311.707C111.857 311.34 112.564 311.156 113.475 311.156H114.529V310.658C114.529 310.279 114.416 309.979 114.189 309.756C113.963 309.529 113.629 309.416 113.188 309.416C112.801 309.416 112.477 309.514 112.215 309.709C111.953 309.904 111.822 310.141 111.822 310.418H110.732C110.732 310.102 110.844 309.797 111.066 309.504C111.293 309.207 111.598 308.973 111.98 308.801C112.367 308.629 112.791 308.543 113.252 308.543C113.982 308.543 114.555 308.727 114.969 309.094C115.383 309.457 115.598 309.959 115.613 310.6V313.518C115.613 314.1 115.688 314.562 115.836 314.906V315H114.699ZM112.9 314.174C113.24 314.174 113.562 314.086 113.867 313.91C114.172 313.734 114.393 313.506 114.529 313.225V311.924H113.68C112.352 311.924 111.688 312.312 111.688 313.09C111.688 313.43 111.801 313.695 112.027 313.887C112.254 314.078 112.545 314.174 112.9 314.174ZM117.049 311.777C117.049 310.805 117.279 310.023 117.74 309.434C118.201 308.84 118.805 308.543 119.551 308.543C120.293 308.543 120.881 308.797 121.314 309.305V306H122.398V315H121.402L121.35 314.32C120.916 314.852 120.312 315.117 119.539 315.117C118.805 315.117 118.205 314.816 117.74 314.215C117.279 313.613 117.049 312.828 117.049 311.859V311.777ZM118.133 311.9C118.133 312.619 118.281 313.182 118.578 313.588C118.875 313.994 119.285 314.197 119.809 314.197C120.496 314.197 120.998 313.889 121.314 313.271V310.359C120.99 309.762 120.492 309.463 119.82 309.463C119.289 309.463 118.875 309.668 118.578 310.078C118.281 310.488 118.133 311.096 118.133 311.9ZM128 315C127.938 314.875 127.887 314.652 127.848 314.332C127.344 314.855 126.742 315.117 126.043 315.117C125.418 315.117 124.904 314.941 124.502 314.59C124.104 314.234 123.904 313.785 123.904 313.242C123.904 312.582 124.154 312.07 124.654 311.707C125.158 311.34 125.865 311.156 126.775 311.156H127.83V310.658C127.83 310.279 127.717 309.979 127.49 309.756C127.264 309.529 126.93 309.416 126.488 309.416C126.102 309.416 125.777 309.514 125.516 309.709C125.254 309.904 125.123 310.141 125.123 310.418H124.033C124.033 310.102 124.145 309.797 124.367 309.504C124.594 309.207 124.898 308.973 125.281 308.801C125.668 308.629 126.092 308.543 126.553 308.543C127.283 308.543 127.855 308.727 128.27 309.094C128.684 309.457 128.898 309.959 128.914 310.6V313.518C128.914 314.1 128.988 314.562 129.137 314.906V315H128ZM126.201 314.174C126.541 314.174 126.863 314.086 127.168 313.91C127.473 313.734 127.693 313.506 127.83 313.225V311.924H126.98C125.652 311.924 124.988 312.312 124.988 313.09C124.988 313.43 125.102 313.695 125.328 313.887C125.555 314.078 125.846 314.174 126.201 314.174Z" fill="black"/>
<rect x="164.5" y="292.5" width="84" height="37" fill="#2D9CDB" stroke="black"/>
<path d="M207.207 310.723L207.641 306.469H212.012V307.471H208.561L208.303 309.797C208.721 309.551 209.195 309.428 209.727 309.428C210.504 309.428 211.121 309.686 211.578 310.201C212.035 310.713 212.264 311.406 212.264 312.281C212.264 313.16 212.025 313.854 211.549 314.361C211.076 314.865 210.414 315.117 209.562 315.117C208.809 315.117 208.193 314.908 207.717 314.49C207.24 314.072 206.969 313.494 206.902 312.756H207.928C207.994 313.244 208.168 313.613 208.449 313.863C208.73 314.109 209.102 314.232 209.562 314.232C210.066 314.232 210.461 314.061 210.746 313.717C211.035 313.373 211.18 312.898 211.18 312.293C211.18 311.723 211.023 311.266 210.711 310.922C210.402 310.574 209.99 310.4 209.475 310.4C209.002 310.4 208.631 310.504 208.361 310.711L208.074 310.945L207.207 310.723Z" fill="black"/>
<rect x="249.5" y="292.5" width="84" height="37" fill="#2D9CDB" stroke="black"/>
<path d="M282.299 315H276.709V314.221L279.662 310.939C280.1 310.443 280.4 310.041 280.564 309.732C280.732 309.42 280.816 309.098 280.816 308.766C280.816 308.32 280.682 307.955 280.412 307.67C280.143 307.385 279.783 307.242 279.334 307.242C278.795 307.242 278.375 307.396 278.074 307.705C277.777 308.01 277.629 308.436 277.629 308.982H276.545C276.545 308.197 276.797 307.562 277.301 307.078C277.809 306.594 278.486 306.352 279.334 306.352C280.127 306.352 280.754 306.561 281.215 306.979C281.676 307.393 281.906 307.945 281.906 308.637C281.906 309.477 281.371 310.477 280.301 311.637L278.016 314.115H282.299V315ZM288.797 311.361C288.797 312.631 288.58 313.574 288.146 314.191C287.713 314.809 287.035 315.117 286.113 315.117C285.203 315.117 284.529 314.816 284.092 314.215C283.654 313.609 283.428 312.707 283.412 311.508V310.061C283.412 308.807 283.629 307.875 284.062 307.266C284.496 306.656 285.176 306.352 286.102 306.352C287.02 306.352 287.695 306.646 288.129 307.236C288.562 307.822 288.785 308.729 288.797 309.955V311.361ZM287.713 309.879C287.713 308.961 287.584 308.293 287.326 307.875C287.068 307.453 286.66 307.242 286.102 307.242C285.547 307.242 285.143 307.451 284.889 307.869C284.635 308.287 284.504 308.93 284.496 309.797V311.531C284.496 312.453 284.629 313.135 284.895 313.576C285.164 314.014 285.57 314.232 286.113 314.232C286.648 314.232 287.045 314.025 287.303 313.611C287.564 313.197 287.701 312.545 287.713 311.654V309.879ZM293.748 315H292.658V307.775L290.473 308.578V307.594L293.578 306.428H293.748V315ZM297.422 310.723L297.855 306.469H302.227V307.471H298.775L298.518 309.797C298.936 309.551 299.41 309.428 299.941 309.428C300.719 309.428 301.336 309.686 301.793 310.201C302.25 310.713 302.479 311.406 302.479 312.281C302.479 313.16 302.24 313.854 301.764 314.361C301.291 314.865 300.629 315.117 299.777 315.117C299.023 315.117 298.408 314.908 297.932 314.49C297.455 314.072 297.184 313.494 297.117 312.756H298.143C298.209 313.244 298.383 313.613 298.664 313.863C298.945 314.109 299.316 314.232 299.777 314.232C300.281 314.232 300.676 314.061 300.961 313.717C301.25 313.373 301.395 312.898 301.395 312.293C301.395 311.723 301.238 311.266 300.926 310.922C300.617 310.574 300.205 310.4 299.689 310.4C299.217 310.4 298.846 310.504 298.576 310.711L298.289 310.945L297.422 310.723Z" fill="black"/>
<rect x="104.5" y="353.5" width="101" height="37" fill="#EB5757" stroke="black"/>
<rect x="206.5" y="353.5" width="84" height="37" fill="#EB5757" stroke="black"/>
<rect x="291.5" y="353.5" width="84" height="37" fill="#EB5757" stroke="black"/>
<rect width="272" height="38" transform="translate(65 176)" fill="white"/>
<rect x="65.5" y="176.5" width="101" height="37" fill="#2D9CDB" stroke="black"/>
<path d="M102.547 198H101.416L97.1211 191.426V198H95.9902V189.469H97.1211L101.428 196.072V189.469H102.547V198ZM104.088 194.771C104.088 194.15 104.209 193.592 104.451 193.096C104.697 192.6 105.037 192.217 105.471 191.947C105.908 191.678 106.406 191.543 106.965 191.543C107.828 191.543 108.525 191.842 109.057 192.439C109.592 193.037 109.859 193.832 109.859 194.824V194.9C109.859 195.518 109.74 196.072 109.502 196.564C109.268 197.053 108.93 197.434 108.488 197.707C108.051 197.98 107.547 198.117 106.977 198.117C106.117 198.117 105.42 197.818 104.885 197.221C104.354 196.623 104.088 195.832 104.088 194.848V194.771ZM105.178 194.9C105.178 195.604 105.34 196.168 105.664 196.594C105.992 197.02 106.43 197.232 106.977 197.232C107.527 197.232 107.965 197.018 108.289 196.588C108.613 196.154 108.775 195.549 108.775 194.771C108.775 194.076 108.609 193.514 108.277 193.084C107.949 192.65 107.512 192.434 106.965 192.434C106.43 192.434 105.998 192.646 105.67 193.072C105.342 193.498 105.178 194.107 105.178 194.9ZM114.283 192.633C114.119 192.605 113.941 192.592 113.75 192.592C113.039 192.592 112.557 192.895 112.303 193.5V198H111.219V191.66H112.273L112.291 192.393C112.646 191.826 113.15 191.543 113.803 191.543C114.014 191.543 114.174 191.57 114.283 191.625V192.633ZM121.004 196.506L122.223 191.66H123.307L121.461 198H120.582L119.041 193.195L117.541 198H116.662L114.822 191.66H115.9L117.148 196.406L118.625 191.66H119.498L121.004 196.506ZM128.328 198C128.266 197.875 128.215 197.652 128.176 197.332C127.672 197.855 127.07 198.117 126.371 198.117C125.746 198.117 125.232 197.941 124.83 197.59C124.432 197.234 124.232 196.785 124.232 196.242C124.232 195.582 124.482 195.07 124.982 194.707C125.486 194.34 126.193 194.156 127.104 194.156H128.158V193.658C128.158 193.279 128.045 192.979 127.818 192.756C127.592 192.529 127.258 192.416 126.816 192.416C126.43 192.416 126.105 192.514 125.844 192.709C125.582 192.904 125.451 193.141 125.451 193.418H124.361C124.361 193.102 124.473 192.797 124.695 192.504C124.922 192.207 125.227 191.973 125.609 191.801C125.996 191.629 126.42 191.543 126.881 191.543C127.611 191.543 128.184 191.727 128.598 192.094C129.012 192.457 129.227 192.959 129.242 193.6V196.518C129.242 197.1 129.316 197.562 129.465 197.906V198H128.328ZM126.529 197.174C126.869 197.174 127.191 197.086 127.496 196.91C127.801 196.734 128.021 196.506 128.158 196.225V194.924H127.309C125.98 194.924 125.316 195.312 125.316 196.09C125.316 196.43 125.43 196.695 125.656 196.887C125.883 197.078 126.174 197.174 126.529 197.174ZM132.922 196.412L134.398 191.66H135.559L133.01 198.979C132.615 200.033 131.988 200.561 131.129 200.561L130.924 200.543L130.52 200.467V199.588L130.812 199.611C131.18 199.611 131.465 199.537 131.668 199.389C131.875 199.24 132.045 198.969 132.178 198.574L132.418 197.93L130.156 191.66H131.34L132.922 196.412Z" fill="black"/>
<rect x="167.5" y="176.5" width="84" height="37" fill="#2D9CDB" stroke="black"/>
<rect x="252.5" y="176.5" width="84" height="37" fill="#2D9CDB" stroke="black"/>
<path d="M214.285 195.135H215.469V196.02H214.285V198H213.195V196.02H209.311V195.381L213.131 189.469H214.285V195.135ZM210.541 195.135H213.195V190.951L213.066 191.186L210.541 195.135Z" fill="black"/>
<path d="M285.299 198H279.709V197.221L282.662 193.939C283.1 193.443 283.4 193.041 283.564 192.732C283.732 192.42 283.816 192.098 283.816 191.766C283.816 191.32 283.682 190.955 283.412 190.67C283.143 190.385 282.783 190.242 282.334 190.242C281.795 190.242 281.375 190.396 281.074 190.705C280.777 191.01 280.629 191.436 280.629 191.982H279.545C279.545 191.197 279.797 190.562 280.301 190.078C280.809 189.594 281.486 189.352 282.334 189.352C283.127 189.352 283.754 189.561 284.215 189.979C284.676 190.393 284.906 190.945 284.906 191.637C284.906 192.477 284.371 193.477 283.301 194.637L281.016 197.115H285.299V198ZM291.797 194.361C291.797 195.631 291.58 196.574 291.146 197.191C290.713 197.809 290.035 198.117 289.113 198.117C288.203 198.117 287.529 197.816 287.092 197.215C286.654 196.609 286.428 195.707 286.412 194.508V193.061C286.412 191.807 286.629 190.875 287.062 190.266C287.496 189.656 288.176 189.352 289.102 189.352C290.02 189.352 290.695 189.646 291.129 190.236C291.562 190.822 291.785 191.729 291.797 192.955V194.361ZM290.713 192.879C290.713 191.961 290.584 191.293 290.326 190.875C290.068 190.453 289.66 190.242 289.102 190.242C288.547 190.242 288.143 190.451 287.889 190.869C287.635 191.287 287.504 191.93 287.496 192.797V194.531C287.496 195.453 287.629 196.135 287.895 196.576C288.164 197.014 288.57 197.232 289.113 197.232C289.648 197.232 290.045 197.025 290.303 196.611C290.564 196.197 290.701 195.545 290.713 194.654V192.879ZM296.748 198H295.658V190.775L293.473 191.578V190.594L296.578 189.428H296.748V198ZM300.422 193.723L300.855 189.469H305.227V190.471H301.775L301.518 192.797C301.936 192.551 302.41 192.428 302.941 192.428C303.719 192.428 304.336 192.686 304.793 193.201C305.25 193.713 305.479 194.406 305.479 195.281C305.479 196.16 305.24 196.854 304.764 197.361C304.291 197.865 303.629 198.117 302.777 198.117C302.023 198.117 301.408 197.908 300.932 197.49C300.455 197.072 300.184 196.494 300.117 195.756H301.143C301.209 196.244 301.383 196.613 301.664 196.863C301.945 197.109 302.316 197.232 302.777 197.232C303.281 197.232 303.676 197.061 303.961 196.717C304.25 196.373 304.395 195.898 304.395 195.293C304.395 194.723 304.238 194.266 303.926 193.922C303.617 193.574 303.205 193.4 302.689 193.4C302.217 193.4 301.846 193.504 301.576 193.711L301.289 193.945L300.422 193.723Z" fill="black"/>
<rect x="291.5" y="237.5" width="84" height="37" fill="#EB5757" stroke="black"/>
<rect x="206.5" y="237.5" width="84" height="37" fill="#EB5757" stroke="black"/>
<rect x="104.5" y="237.5" width="101" height="37" fill="#EB5757" stroke="black"/>
<path d="M140.695 372.232H137.115V376H135.99V367.469H141.275V368.395H137.115V371.312H140.695V372.232ZM143.631 376H142.547V369.66H143.631V376ZM142.459 367.979C142.459 367.803 142.512 367.654 142.617 367.533C142.727 367.412 142.887 367.352 143.098 367.352C143.309 367.352 143.469 367.412 143.578 367.533C143.688 367.654 143.742 367.803 143.742 367.979C143.742 368.154 143.688 368.301 143.578 368.418C143.469 368.535 143.309 368.594 143.098 368.594C142.887 368.594 142.727 368.535 142.617 368.418C142.512 368.301 142.459 368.154 142.459 367.979ZM146.396 369.66L146.432 370.457C146.916 369.848 147.549 369.543 148.33 369.543C149.67 369.543 150.346 370.299 150.357 371.811V376H149.273V371.805C149.27 371.348 149.164 371.01 148.957 370.791C148.754 370.572 148.436 370.463 148.002 370.463C147.65 370.463 147.342 370.557 147.076 370.744C146.811 370.932 146.604 371.178 146.455 371.482V376H145.371V369.66H146.396ZM153.17 376H152.086V367H153.17V376ZM158.824 376C158.762 375.875 158.711 375.652 158.672 375.332C158.168 375.855 157.566 376.117 156.867 376.117C156.242 376.117 155.729 375.941 155.326 375.59C154.928 375.234 154.729 374.785 154.729 374.242C154.729 373.582 154.979 373.07 155.479 372.707C155.982 372.34 156.689 372.156 157.6 372.156H158.654V371.658C158.654 371.279 158.541 370.979 158.314 370.756C158.088 370.529 157.754 370.416 157.312 370.416C156.926 370.416 156.602 370.514 156.34 370.709C156.078 370.904 155.947 371.141 155.947 371.418H154.857C154.857 371.102 154.969 370.797 155.191 370.504C155.418 370.207 155.723 369.973 156.105 369.801C156.492 369.629 156.916 369.543 157.377 369.543C158.107 369.543 158.68 369.727 159.094 370.094C159.508 370.457 159.723 370.959 159.738 371.6V374.518C159.738 375.1 159.812 375.562 159.961 375.906V376H158.824ZM157.025 375.174C157.365 375.174 157.688 375.086 157.992 374.91C158.297 374.734 158.518 374.506 158.654 374.225V372.924H157.805C156.477 372.924 155.812 373.312 155.812 374.09C155.812 374.43 155.926 374.695 156.152 374.887C156.379 375.078 156.67 375.174 157.025 375.174ZM162.463 369.66L162.498 370.457C162.982 369.848 163.615 369.543 164.396 369.543C165.736 369.543 166.412 370.299 166.424 371.811V376H165.34V371.805C165.336 371.348 165.23 371.01 165.023 370.791C164.82 370.572 164.502 370.463 164.068 370.463C163.717 370.463 163.408 370.557 163.143 370.744C162.877 370.932 162.67 371.178 162.521 371.482V376H161.438V369.66H162.463ZM167.795 372.777C167.795 371.805 168.025 371.023 168.486 370.434C168.947 369.84 169.551 369.543 170.297 369.543C171.039 369.543 171.627 369.797 172.061 370.305V367H173.145V376H172.148L172.096 375.32C171.662 375.852 171.059 376.117 170.285 376.117C169.551 376.117 168.951 375.816 168.486 375.215C168.025 374.613 167.795 373.828 167.795 372.859V372.777ZM168.879 372.9C168.879 373.619 169.027 374.182 169.324 374.588C169.621 374.994 170.031 375.197 170.555 375.197C171.242 375.197 171.744 374.889 172.061 374.271V371.359C171.736 370.762 171.238 370.463 170.566 370.463C170.035 370.463 169.621 370.668 169.324 371.078C169.027 371.488 168.879 372.096 168.879 372.9Z" fill="black"/>
<path d="M131.547 260H130.416L126.121 253.426V260H124.99V251.469H126.121L130.428 258.072V251.469H131.547V260ZM133.088 256.771C133.088 256.15 133.209 255.592 133.451 255.096C133.697 254.6 134.037 254.217 134.471 253.947C134.908 253.678 135.406 253.543 135.965 253.543C136.828 253.543 137.525 253.842 138.057 254.439C138.592 255.037 138.859 255.832 138.859 256.824V256.9C138.859 257.518 138.74 258.072 138.502 258.564C138.268 259.053 137.93 259.434 137.488 259.707C137.051 259.98 136.547 260.117 135.977 260.117C135.117 260.117 134.42 259.818 133.885 259.221C133.354 258.623 133.088 257.832 133.088 256.848V256.771ZM134.178 256.9C134.178 257.604 134.34 258.168 134.664 258.594C134.992 259.02 135.43 259.232 135.977 259.232C136.527 259.232 136.965 259.018 137.289 258.588C137.613 258.154 137.775 257.549 137.775 256.771C137.775 256.076 137.609 255.514 137.277 255.084C136.949 254.65 136.512 254.434 135.965 254.434C135.43 254.434 134.998 254.646 134.67 255.072C134.342 255.498 134.178 256.107 134.178 256.9ZM143.283 254.633C143.119 254.605 142.941 254.592 142.75 254.592C142.039 254.592 141.557 254.895 141.303 255.5V260H140.219V253.66H141.273L141.291 254.393C141.646 253.826 142.15 253.543 142.803 253.543C143.014 253.543 143.174 253.57 143.283 253.625V254.633ZM150.004 258.506L151.223 253.66H152.307L150.461 260H149.582L148.041 255.195L146.541 260H145.662L143.822 253.66H144.9L146.148 258.406L147.625 253.66H148.498L150.004 258.506ZM157.328 260C157.266 259.875 157.215 259.652 157.176 259.332C156.672 259.855 156.07 260.117 155.371 260.117C154.746 260.117 154.232 259.941 153.83 259.59C153.432 259.234 153.232 258.785 153.232 258.242C153.232 257.582 153.482 257.07 153.982 256.707C154.486 256.34 155.193 256.156 156.104 256.156H157.158V255.658C157.158 255.279 157.045 254.979 156.818 254.756C156.592 254.529 156.258 254.416 155.816 254.416C155.43 254.416 155.105 254.514 154.844 254.709C154.582 254.904 154.451 255.141 154.451 255.418H153.361C153.361 255.102 153.473 254.797 153.695 254.504C153.922 254.207 154.227 253.973 154.609 253.801C154.996 253.629 155.42 253.543 155.881 253.543C156.611 253.543 157.184 253.727 157.598 254.094C158.012 254.457 158.227 254.959 158.242 255.6V258.518C158.242 259.1 158.316 259.562 158.465 259.906V260H157.328ZM155.529 259.174C155.869 259.174 156.191 259.086 156.496 258.91C156.801 258.734 157.021 258.506 157.158 258.225V256.924H156.309C154.98 256.924 154.316 257.312 154.316 258.09C154.316 258.43 154.43 258.695 154.656 258.887C154.883 259.078 155.174 259.174 155.529 259.174ZM161.922 258.412L163.398 253.66H164.559L162.01 260.979C161.615 262.033 160.988 262.561 160.129 262.561L159.924 262.543L159.52 262.467V261.588L159.812 261.611C160.18 261.611 160.465 261.537 160.668 261.389C160.875 261.24 161.045 260.969 161.178 260.574L161.418 259.93L159.156 253.66H160.34L161.922 258.412Z" fill="black"/>
<path d="M251.285 257.135H252.469V258.02H251.285V260H250.195V258.02H246.311V257.381L250.131 251.469H251.285V257.135ZM247.541 257.135H250.195V252.951L250.066 253.186L247.541 257.135Z" fill="black"/>
<path d="M246.207 372.723L246.641 368.469H251.012V369.471H247.561L247.303 371.797C247.721 371.551 248.195 371.428 248.727 371.428C249.504 371.428 250.121 371.686 250.578 372.201C251.035 372.713 251.264 373.406 251.264 374.281C251.264 375.16 251.025 375.854 250.549 376.361C250.076 376.865 249.414 377.117 248.562 377.117C247.809 377.117 247.193 376.908 246.717 376.49C246.24 376.072 245.969 375.494 245.902 374.756H246.928C246.994 375.244 247.168 375.613 247.449 375.863C247.73 376.109 248.102 376.232 248.562 376.232C249.066 376.232 249.461 376.061 249.746 375.717C250.035 375.373 250.18 374.898 250.18 374.293C250.18 373.723 250.023 373.266 249.711 372.922C249.402 372.574 248.99 372.4 248.475 372.4C248.002 372.4 247.631 372.504 247.361 372.711L247.074 372.945L246.207 372.723Z" fill="black"/>
<path d="M49.2852 195.207H50.0996C50.6113 195.199 51.0137 195.064 51.3066 194.803C51.5996 194.541 51.7461 194.188 51.7461 193.742C51.7461 192.742 51.248 192.242 50.252 192.242C49.7832 192.242 49.4082 192.377 49.127 192.646C48.8496 192.912 48.7109 193.266 48.7109 193.707H47.627C47.627 193.031 47.873 192.471 48.3652 192.025C48.8613 191.576 49.4902 191.352 50.252 191.352C51.0566 191.352 51.6875 191.564 52.1445 191.99C52.6016 192.416 52.8301 193.008 52.8301 193.766C52.8301 194.137 52.709 194.496 52.4668 194.844C52.2285 195.191 51.9023 195.451 51.4883 195.623C51.957 195.771 52.3184 196.018 52.5723 196.361C52.8301 196.705 52.959 197.125 52.959 197.621C52.959 198.387 52.709 198.994 52.209 199.443C51.709 199.893 51.0586 200.117 50.2578 200.117C49.457 200.117 48.8047 199.9 48.3008 199.467C47.8008 199.033 47.5508 198.461 47.5508 197.75H48.6406C48.6406 198.199 48.7871 198.559 49.0801 198.828C49.373 199.098 49.7656 199.232 50.2578 199.232C50.7812 199.232 51.1816 199.096 51.459 198.822C51.7363 198.549 51.875 198.156 51.875 197.645C51.875 197.148 51.7227 196.768 51.418 196.502C51.1133 196.236 50.6738 196.1 50.0996 196.092H49.2852V195.207Z" fill="black"/>
<path d="M85.2852 255.207H86.0996C86.6113 255.199 87.0137 255.064 87.3066 254.803C87.5996 254.541 87.7461 254.188 87.7461 253.742C87.7461 252.742 87.248 252.242 86.252 252.242C85.7832 252.242 85.4082 252.377 85.127 252.646C84.8496 252.912 84.7109 253.266 84.7109 253.707H83.627C83.627 253.031 83.873 252.471 84.3652 252.025C84.8613 251.576 85.4902 251.352 86.252 251.352C87.0566 251.352 87.6875 251.564 88.1445 251.99C88.6016 252.416 88.8301 253.008 88.8301 253.766C88.8301 254.137 88.709 254.496 88.4668 254.844C88.2285 255.191 87.9023 255.451 87.4883 255.623C87.957 255.771 88.3184 256.018 88.5723 256.361C88.8301 256.705 88.959 257.125 88.959 257.621C88.959 258.387 88.709 258.994 88.209 259.443C87.709 259.893 87.0586 260.117 86.2578 260.117C85.457 260.117 84.8047 259.9 84.3008 259.467C83.8008 259.033 83.5508 258.461 83.5508 257.75H84.6406C84.6406 258.199 84.7871 258.559 85.0801 258.828C85.373 259.098 85.7656 259.232 86.2578 259.232C86.7812 259.232 87.1816 259.096 87.459 258.822C87.7363 258.549 87.875 258.156 87.875 257.645C87.875 257.148 87.7227 256.768 87.418 256.502C87.1133 256.236 86.6738 256.1 86.0996 256.092H85.2852V255.207Z" fill="black"/>
<path d="M324.299 260H318.709V259.221L321.662 255.939C322.1 255.443 322.4 255.041 322.564 254.732C322.732 254.42 322.816 254.098 322.816 253.766C322.816 253.32 322.682 252.955 322.412 252.67C322.143 252.385 321.783 252.242 321.334 252.242C320.795 252.242 320.375 252.396 320.074 252.705C319.777 253.01 319.629 253.436 319.629 253.982H318.545C318.545 253.197 318.797 252.562 319.301 252.078C319.809 251.594 320.486 251.352 321.334 251.352C322.127 251.352 322.754 251.561 323.215 251.979C323.676 252.393 323.906 252.945 323.906 253.637C323.906 254.477 323.371 255.477 322.301 256.637L320.016 259.115H324.299V260ZM330.797 256.361C330.797 257.631 330.58 258.574 330.146 259.191C329.713 259.809 329.035 260.117 328.113 260.117C327.203 260.117 326.529 259.816 326.092 259.215C325.654 258.609 325.428 257.707 325.412 256.508V255.061C325.412 253.807 325.629 252.875 326.062 252.266C326.496 251.656 327.176 251.352 328.102 251.352C329.02 251.352 329.695 251.646 330.129 252.236C330.562 252.822 330.785 253.729 330.797 254.955V256.361ZM329.713 254.879C329.713 253.961 329.584 253.293 329.326 252.875C329.068 252.453 328.66 252.242 328.102 252.242C327.547 252.242 327.143 252.451 326.889 252.869C326.635 253.287 326.504 253.93 326.496 254.797V256.531C326.496 257.453 326.629 258.135 326.895 258.576C327.164 259.014 327.57 259.232 328.113 259.232C328.648 259.232 329.045 259.025 329.303 258.611C329.564 258.197 329.701 257.545 329.713 256.654V254.879ZM335.748 260H334.658V252.775L332.473 253.578V252.594L335.578 251.428H335.748V260ZM343.178 251.463V252.383H342.979C342.135 252.398 341.463 252.648 340.963 253.133C340.463 253.617 340.174 254.299 340.096 255.178C340.545 254.662 341.158 254.404 341.936 254.404C342.678 254.404 343.27 254.666 343.711 255.189C344.156 255.713 344.379 256.389 344.379 257.217C344.379 258.096 344.139 258.799 343.658 259.326C343.182 259.854 342.541 260.117 341.736 260.117C340.92 260.117 340.258 259.805 339.75 259.18C339.242 258.551 338.988 257.742 338.988 256.754V256.338C338.988 254.768 339.322 253.568 339.99 252.74C340.662 251.908 341.66 251.482 342.984 251.463H343.178ZM341.754 255.307C341.383 255.307 341.041 255.418 340.729 255.641C340.416 255.863 340.199 256.143 340.078 256.479V256.877C340.078 257.58 340.236 258.146 340.553 258.576C340.869 259.006 341.264 259.221 341.736 259.221C342.225 259.221 342.607 259.041 342.885 258.682C343.166 258.322 343.307 257.852 343.307 257.27C343.307 256.684 343.164 256.211 342.879 255.852C342.598 255.488 342.223 255.307 341.754 255.307Z" fill="black"/>
<path d="M324.299 378H318.709V377.221L321.662 373.939C322.1 373.443 322.4 373.041 322.564 372.732C322.732 372.42 322.816 372.098 322.816 371.766C322.816 371.32 322.682 370.955 322.412 370.67C322.143 370.385 321.783 370.242 321.334 370.242C320.795 370.242 320.375 370.396 320.074 370.705C319.777 371.01 319.629 371.436 319.629 371.982H318.545C318.545 371.197 318.797 370.562 319.301 370.078C319.809 369.594 320.486 369.352 321.334 369.352C322.127 369.352 322.754 369.561 323.215 369.979C323.676 370.393 323.906 370.945 323.906 371.637C323.906 372.477 323.371 373.477 322.301 374.637L320.016 377.115H324.299V378ZM330.797 374.361C330.797 375.631 330.58 376.574 330.146 377.191C329.713 377.809 329.035 378.117 328.113 378.117C327.203 378.117 326.529 377.816 326.092 377.215C325.654 376.609 325.428 375.707 325.412 374.508V373.061C325.412 371.807 325.629 370.875 326.062 370.266C326.496 369.656 327.176 369.352 328.102 369.352C329.02 369.352 329.695 369.646 330.129 370.236C330.562 370.822 330.785 371.729 330.797 372.955V374.361ZM329.713 372.879C329.713 371.961 329.584 371.293 329.326 370.875C329.068 370.453 328.66 370.242 328.102 370.242C327.547 370.242 327.143 370.451 326.889 370.869C326.635 371.287 326.504 371.93 326.496 372.797V374.531C326.496 375.453 326.629 376.135 326.895 376.576C327.164 377.014 327.57 377.232 328.113 377.232C328.648 377.232 329.045 377.025 329.303 376.611C329.564 376.197 329.701 375.545 329.713 374.654V372.879ZM335.748 378H334.658V370.775L332.473 371.578V370.594L335.578 369.428H335.748V378ZM343.178 369.463V370.383H342.979C342.135 370.398 341.463 370.648 340.963 371.133C340.463 371.617 340.174 372.299 340.096 373.178C340.545 372.662 341.158 372.404 341.936 372.404C342.678 372.404 343.27 372.666 343.711 373.189C344.156 373.713 344.379 374.389 344.379 375.217C344.379 376.096 344.139 376.799 343.658 377.326C343.182 377.854 342.541 378.117 341.736 378.117C340.92 378.117 340.258 377.805 339.75 377.18C339.242 376.551 338.988 375.742 338.988 374.754V374.338C338.988 372.768 339.322 371.568 339.99 370.74C340.662 369.908 341.66 369.482 342.984 369.463H343.178ZM341.754 373.307C341.383 373.307 341.041 373.418 340.729 373.641C340.416 373.863 340.199 374.143 340.078 374.479V374.877C340.078 375.58 340.236 376.146 340.553 376.576C340.869 377.006 341.264 377.221 341.736 377.221C342.225 377.221 342.607 377.041 342.885 376.682C343.166 376.322 343.307 375.852 343.307 375.27C343.307 374.684 343.164 374.211 342.879 373.852C342.598 373.488 342.223 373.307 341.754 373.307Z" fill="black"/>
<rect x="95.5" y="123.5" width="101" height="37" fill="#EB5757" stroke="black"/>
<path d="M122.197 145H121.072V136.469H122.197V145ZM126.633 144.232C127.02 144.232 127.357 144.115 127.646 143.881C127.936 143.646 128.096 143.354 128.127 143.002H129.152C129.133 143.365 129.008 143.711 128.777 144.039C128.547 144.367 128.238 144.629 127.852 144.824C127.469 145.02 127.062 145.117 126.633 145.117C125.77 145.117 125.082 144.83 124.57 144.256C124.062 143.678 123.809 142.889 123.809 141.889V141.707C123.809 141.09 123.922 140.541 124.148 140.061C124.375 139.58 124.699 139.207 125.121 138.941C125.547 138.676 126.049 138.543 126.627 138.543C127.338 138.543 127.928 138.756 128.396 139.182C128.869 139.607 129.121 140.16 129.152 140.84H128.127C128.096 140.43 127.939 140.094 127.658 139.832C127.381 139.566 127.037 139.434 126.627 139.434C126.076 139.434 125.648 139.633 125.344 140.031C125.043 140.426 124.893 140.998 124.893 141.748V141.953C124.893 142.684 125.043 143.246 125.344 143.641C125.645 144.035 126.074 144.232 126.633 144.232ZM133.002 145.117C132.143 145.117 131.443 144.836 130.904 144.273C130.365 143.707 130.096 142.951 130.096 142.006V141.807C130.096 141.178 130.215 140.617 130.453 140.125C130.695 139.629 131.031 139.242 131.461 138.965C131.895 138.684 132.363 138.543 132.867 138.543C133.691 138.543 134.332 138.814 134.789 139.357C135.246 139.9 135.475 140.678 135.475 141.689V142.141H131.18C131.195 142.766 131.377 143.271 131.725 143.658C132.076 144.041 132.521 144.232 133.061 144.232C133.443 144.232 133.768 144.154 134.033 143.998C134.299 143.842 134.531 143.635 134.73 143.377L135.393 143.893C134.861 144.709 134.064 145.117 133.002 145.117ZM132.867 139.434C132.43 139.434 132.062 139.594 131.766 139.914C131.469 140.23 131.285 140.676 131.215 141.25H134.391V141.168C134.359 140.617 134.211 140.191 133.945 139.891C133.68 139.586 133.32 139.434 132.867 139.434ZM137.912 145H136.828V136H137.912V145ZM143.566 145C143.504 144.875 143.453 144.652 143.414 144.332C142.91 144.855 142.309 145.117 141.609 145.117C140.984 145.117 140.471 144.941 140.068 144.59C139.67 144.234 139.471 143.785 139.471 143.242C139.471 142.582 139.721 142.07 140.221 141.707C140.725 141.34 141.432 141.156 142.342 141.156H143.396V140.658C143.396 140.279 143.283 139.979 143.057 139.756C142.83 139.529 142.496 139.416 142.055 139.416C141.668 139.416 141.344 139.514 141.082 139.709C140.82 139.904 140.689 140.141 140.689 140.418H139.6C139.6 140.102 139.711 139.797 139.934 139.504C140.16 139.207 140.465 138.973 140.848 138.801C141.234 138.629 141.658 138.543 142.119 138.543C142.85 138.543 143.422 138.727 143.836 139.094C144.25 139.457 144.465 139.959 144.48 140.6V143.518C144.48 144.1 144.555 144.562 144.703 144.906V145H143.566ZM141.768 144.174C142.107 144.174 142.43 144.086 142.734 143.91C143.039 143.734 143.26 143.506 143.396 143.225V141.924H142.547C141.219 141.924 140.555 142.312 140.555 143.09C140.555 143.43 140.668 143.695 140.895 143.887C141.121 144.078 141.412 144.174 141.768 144.174ZM147.205 138.66L147.24 139.457C147.725 138.848 148.357 138.543 149.139 138.543C150.479 138.543 151.154 139.299 151.166 140.811V145H150.082V140.805C150.078 140.348 149.973 140.01 149.766 139.791C149.562 139.572 149.244 139.463 148.811 139.463C148.459 139.463 148.15 139.557 147.885 139.744C147.619 139.932 147.412 140.178 147.264 140.482V145H146.18V138.66H147.205ZM152.537 141.777C152.537 140.805 152.768 140.023 153.229 139.434C153.689 138.84 154.293 138.543 155.039 138.543C155.781 138.543 156.369 138.797 156.803 139.305V136H157.887V145H156.891L156.838 144.32C156.404 144.852 155.801 145.117 155.027 145.117C154.293 145.117 153.693 144.816 153.229 144.215C152.768 143.613 152.537 142.828 152.537 141.859V141.777ZM153.621 141.9C153.621 142.619 153.77 143.182 154.066 143.588C154.363 143.994 154.773 144.197 155.297 144.197C155.984 144.197 156.486 143.889 156.803 143.271V140.359C156.479 139.762 155.98 139.463 155.309 139.463C154.777 139.463 154.363 139.668 154.066 140.078C153.77 140.488 153.621 141.096 153.621 141.9Z" fill="black"/>
<rect x="197.5" y="123.5" width="84" height="37" fill="#EB5757" stroke="black"/>
<path d="M237.285 140.207H238.1C238.611 140.199 239.014 140.064 239.307 139.803C239.6 139.541 239.746 139.188 239.746 138.742C239.746 137.742 239.248 137.242 238.252 137.242C237.783 137.242 237.408 137.377 237.127 137.646C236.85 137.912 236.711 138.266 236.711 138.707H235.627C235.627 138.031 235.873 137.471 236.365 137.025C236.861 136.576 237.49 136.352 238.252 136.352C239.057 136.352 239.688 136.564 240.145 136.99C240.602 137.416 240.83 138.008 240.83 138.766C240.83 139.137 240.709 139.496 240.467 139.844C240.229 140.191 239.902 140.451 239.488 140.623C239.957 140.771 240.318 141.018 240.572 141.361C240.83 141.705 240.959 142.125 240.959 142.621C240.959 143.387 240.709 143.994 240.209 144.443C239.709 144.893 239.059 145.117 238.258 145.117C237.457 145.117 236.805 144.9 236.301 144.467C235.801 144.033 235.551 143.461 235.551 142.75H236.641C236.641 143.199 236.787 143.559 237.08 143.828C237.373 144.098 237.766 144.232 238.258 144.232C238.781 144.232 239.182 144.096 239.459 143.822C239.736 143.549 239.875 143.156 239.875 142.645C239.875 142.148 239.723 141.768 239.418 141.502C239.113 141.236 238.674 141.1 238.1 141.092H237.285V140.207Z" fill="black"/>
<rect x="282.5" y="123.5" width="84" height="37" fill="#EB5757" stroke="black"/>
<path d="M316.299 145H310.709V144.221L313.662 140.939C314.1 140.443 314.4 140.041 314.564 139.732C314.732 139.42 314.816 139.098 314.816 138.766C314.816 138.32 314.682 137.955 314.412 137.67C314.143 137.385 313.783 137.242 313.334 137.242C312.795 137.242 312.375 137.396 312.074 137.705C311.777 138.01 311.629 138.436 311.629 138.982H310.545C310.545 138.197 310.797 137.562 311.301 137.078C311.809 136.594 312.486 136.352 313.334 136.352C314.127 136.352 314.754 136.561 315.215 136.979C315.676 137.393 315.906 137.945 315.906 138.637C315.906 139.477 315.371 140.477 314.301 141.637L312.016 144.115H316.299V145ZM322.797 141.361C322.797 142.631 322.58 143.574 322.146 144.191C321.713 144.809 321.035 145.117 320.113 145.117C319.203 145.117 318.529 144.816 318.092 144.215C317.654 143.609 317.428 142.707 317.412 141.508V140.061C317.412 138.807 317.629 137.875 318.062 137.266C318.496 136.656 319.176 136.352 320.102 136.352C321.02 136.352 321.695 136.646 322.129 137.236C322.562 137.822 322.785 138.729 322.797 139.955V141.361ZM321.713 139.879C321.713 138.961 321.584 138.293 321.326 137.875C321.068 137.453 320.66 137.242 320.102 137.242C319.547 137.242 319.143 137.451 318.889 137.869C318.635 138.287 318.504 138.93 318.496 139.797V141.531C318.496 142.453 318.629 143.135 318.895 143.576C319.164 144.014 319.57 144.232 320.113 144.232C320.648 144.232 321.045 144.025 321.303 143.611C321.564 143.197 321.701 142.545 321.713 141.654V139.879ZM327.748 145H326.658V137.775L324.473 138.578V137.594L327.578 136.428H327.748V145ZM335.178 136.463V137.383H334.979C334.135 137.398 333.463 137.648 332.963 138.133C332.463 138.617 332.174 139.299 332.096 140.178C332.545 139.662 333.158 139.404 333.936 139.404C334.678 139.404 335.27 139.666 335.711 140.189C336.156 140.713 336.379 141.389 336.379 142.217C336.379 143.096 336.139 143.799 335.658 144.326C335.182 144.854 334.541 145.117 333.736 145.117C332.92 145.117 332.258 144.805 331.75 144.18C331.242 143.551 330.988 142.742 330.988 141.754V141.338C330.988 139.768 331.322 138.568 331.99 137.74C332.662 136.908 333.66 136.482 334.984 136.463H335.178ZM333.754 140.307C333.383 140.307 333.041 140.418 332.729 140.641C332.416 140.863 332.199 141.143 332.078 141.479V141.877C332.078 142.58 332.236 143.146 332.553 143.576C332.869 144.006 333.264 144.221 333.736 144.221C334.225 144.221 334.607 144.041 334.885 143.682C335.166 143.322 335.307 142.852 335.307 142.27C335.307 141.684 335.164 141.211 334.879 140.852C334.598 140.488 334.223 140.307 333.754 140.307Z" fill="black"/>
<path d="M58.9849 119.5C59.2609 119.508 59.4914 119.291 59.4998 119.015L59.6361 114.517C59.6444 114.241 59.4275 114.011 59.1514 114.002C58.8754 113.994 58.6449 114.211 58.6365 114.487L58.5154 118.485L54.5172 118.364C54.2412 118.356 54.0107 118.573 54.0023 118.849C53.9939 119.125 54.2109 119.355 54.4869 119.363L58.9849 119.5ZM42.6359 102.343L58.6359 119.343L59.3641 118.657L43.3641 101.657L42.6359 102.343Z" fill="black"/>
<path d="M61.9849 349.5C62.2609 349.508 62.4914 349.291 62.4998 349.015L62.6361 344.517C62.6444 344.241 62.4275 344.011 62.1514 344.002C61.8754 343.994 61.6449 344.211 61.6365 344.487L61.5154 348.485L57.5172 348.364C57.2412 348.356 57.0107 348.573 57.0023 348.849C56.9939 349.125 57.2109 349.355 57.4869 349.363L61.9849 349.5ZM45.6359 332.343L61.6359 349.343L62.3641 348.657L46.3641 331.657L45.6359 332.343Z" fill="black"/>
<path d="M64.9849 234.5C65.2609 234.508 65.4914 234.291 65.4998 234.015L65.6361 229.517C65.6444 229.241 65.4275 229.011 65.1514 229.002C64.8754 228.994 64.6449 229.211 64.6365 229.487L64.5154 233.485L60.5172 233.364C60.2412 233.356 60.0107 233.573 60.0023 233.849C59.9939 234.125 60.2109 234.355 60.4869 234.363L64.9849 234.5ZM48.6359 217.343L64.6359 234.343L65.3641 233.657L49.3641 216.657L48.6359 217.343Z" fill="black"/>
</svg>
