<svg width="278" height="113" viewBox="0 0 278 113" fill="none" xmlns="http://www.w3.org/2000/svg">
<rect width="278" height="113" fill="white"/>
<path d="M25.1651 33.3944C23.7428 32.9856 22.7063 32.4846 22.0557 31.8916C21.4107 31.2927 21.0883 30.5557 21.0883 29.6804C21.0883 28.69 21.4827 27.8724 22.2716 27.2275C23.0662 26.5768 24.0969 26.2514 25.3637 26.2514C26.2274 26.2514 26.9962 26.4184 27.6699 26.7524C28.3493 27.0864 28.8733 27.547 29.2418 28.1344C29.6161 28.7217 29.8033 29.3637 29.8033 30.0605H28.1363C28.1363 29.3004 27.8944 28.7044 27.4107 28.2726C26.9271 27.8349 26.2447 27.6161 25.3637 27.6161C24.5461 27.6161 23.9069 27.7975 23.4463 28.1603C22.9914 28.5173 22.7639 29.0154 22.7639 29.6545C22.7639 30.167 22.9798 30.6017 23.4117 30.9587C23.8493 31.31 24.5892 31.6324 25.6315 31.9261C26.6795 32.2198 27.4971 32.5451 28.0844 32.9021C28.6775 33.2534 29.1152 33.6651 29.3973 34.1372C29.6852 34.6094 29.8292 35.1651 29.8292 35.8042C29.8292 36.8234 29.4319 37.6411 28.6372 38.2572C27.8426 38.8676 26.7802 39.1727 25.4501 39.1727C24.5864 39.1727 23.7802 39.0086 23.0317 38.6804C22.2831 38.3464 21.7044 37.8916 21.2956 37.3157C20.8925 36.7399 20.691 36.0864 20.691 35.3551H22.358C22.358 36.1152 22.6372 36.7169 23.1958 37.1603C23.7601 37.5979 24.5115 37.8167 25.4501 37.8167C26.3253 37.8167 26.9962 37.6382 27.4626 37.2812C27.929 36.9242 28.1622 36.4376 28.1622 35.8215C28.1622 35.2054 27.9463 34.7303 27.5144 34.3964C27.0825 34.0566 26.2994 33.7227 25.1651 33.3944ZM35.5902 39.1727C34.3234 39.1727 33.2927 38.7582 32.4981 37.929C31.7035 37.0941 31.3061 35.9798 31.3061 34.5864V34.2927C31.3061 33.3656 31.4818 32.5393 31.833 31.8138C32.19 31.0825 32.6852 30.5125 33.3186 30.1037C33.9578 29.6891 34.6487 29.4818 35.3915 29.4818C36.6065 29.4818 37.5509 29.882 38.2246 30.6823C38.8983 31.4827 39.2351 32.6286 39.2351 34.12V34.785H32.904C32.9271 35.7063 33.1948 36.452 33.7073 37.0221C34.2255 37.5864 34.882 37.8685 35.6766 37.8685C36.2409 37.8685 36.7188 37.7534 37.1104 37.523C37.5019 37.2927 37.8445 36.9875 38.1382 36.6075L39.1142 37.3676C38.3311 38.571 37.1564 39.1727 35.5902 39.1727ZM35.3915 30.7946C34.7466 30.7946 34.2054 31.0307 33.7677 31.5029C33.3301 31.9693 33.0595 32.6257 32.9558 33.4722H37.6372V33.3512C37.5912 32.5393 37.3724 31.9117 36.9808 31.4683C36.5892 31.0192 36.0595 30.7946 35.3915 30.7946ZM45.6094 31.0883C45.3676 31.048 45.1056 31.0278 44.8234 31.0278C43.7754 31.0278 43.0643 31.4741 42.69 32.3666V39H41.0921V29.6545H42.6468L42.6727 30.7342C43.1967 29.8992 43.9395 29.4818 44.9011 29.4818C45.2121 29.4818 45.4482 29.5221 45.6094 29.6027V31.0883ZM48.8224 39H47.2246V29.6545H48.8224V39ZM47.095 27.1756C47.095 26.9165 47.1727 26.6977 47.3282 26.5192C47.4894 26.3407 47.7255 26.2514 48.0365 26.2514C48.3474 26.2514 48.5835 26.3407 48.7447 26.5192C48.9059 26.6977 48.9866 26.9165 48.9866 27.1756C48.9866 27.4347 48.9059 27.6507 48.7447 27.8234C48.5835 27.9962 48.3474 28.0825 48.0365 28.0825C47.7255 28.0825 47.4894 27.9962 47.3282 27.8234C47.1727 27.6507 47.095 27.4347 47.095 27.1756ZM55.2658 39.1727C53.999 39.1727 52.9683 38.7582 52.1737 37.929C51.3791 37.0941 50.9818 35.9798 50.9818 34.5864V34.2927C50.9818 33.3656 51.1574 32.5393 51.5086 31.8138C51.8656 31.0825 52.3608 30.5125 52.9942 30.1037C53.6334 29.6891 54.3244 29.4818 55.0672 29.4818C56.2821 29.4818 57.2265 29.882 57.9002 30.6823C58.5739 31.4827 58.9107 32.6286 58.9107 34.12V34.785H52.5796C52.6027 35.7063 52.8704 36.452 53.3829 37.0221C53.9011 37.5864 54.5576 37.8685 55.3522 37.8685C55.9165 37.8685 56.3944 37.7534 56.786 37.523C57.1775 37.2927 57.5201 36.9875 57.8138 36.6075L58.7898 37.3676C58.0067 38.571 56.832 39.1727 55.2658 39.1727ZM55.0672 30.7946C54.4223 30.7946 53.881 31.0307 53.4434 31.5029C53.0057 31.9693 52.7351 32.6257 52.6315 33.4722H57.3128V33.3512C57.2668 32.5393 57.048 31.9117 56.6564 31.4683C56.2649 31.0192 55.7351 30.7946 55.0672 30.7946ZM66.2092 36.5211C66.2092 36.0893 66.0451 35.7553 65.7169 35.5192C65.3944 35.2774 64.8272 35.0701 64.0153 34.8973C63.2092 34.7246 62.5672 34.5173 62.0892 34.2754C61.6171 34.0336 61.2658 33.7457 61.0355 33.4117C60.8109 33.0777 60.6986 32.6804 60.6986 32.2198C60.6986 31.4539 61.0211 30.8061 61.666 30.2764C62.3167 29.7466 63.1459 29.4818 64.1535 29.4818C65.213 29.4818 66.071 29.7553 66.7274 30.3023C67.3896 30.8493 67.7207 31.5489 67.7207 32.4012H66.1142C66.1142 31.9635 65.927 31.5864 65.5528 31.2697C65.1842 30.953 64.7178 30.7946 64.1535 30.7946C63.572 30.7946 63.1171 30.9213 62.7889 31.1747C62.4606 31.428 62.2965 31.7591 62.2965 32.1679C62.2965 32.5537 62.4491 32.8445 62.7543 33.0403C63.0595 33.2361 63.6094 33.4232 64.404 33.6017C65.2044 33.7802 65.8522 33.9933 66.3474 34.2409C66.8426 34.4885 67.2082 34.7879 67.4443 35.1392C67.6862 35.4846 67.8071 35.9079 67.8071 36.4088C67.8071 37.2438 67.4731 37.9146 66.8052 38.4213C66.1372 38.9223 65.2706 39.1727 64.2054 39.1727C63.4568 39.1727 62.7946 39.0403 62.2188 38.7754C61.643 38.5106 61.191 38.142 60.8627 37.6699C60.5403 37.1919 60.3791 36.6766 60.3791 36.1238H61.977C62.0057 36.6593 62.2188 37.0854 62.6161 37.4021C63.0192 37.7131 63.5489 37.8685 64.2054 37.8685C64.81 37.8685 65.2936 37.7476 65.6564 37.5058C66.0249 37.2582 66.2092 36.9299 66.2092 36.5211ZM69.9232 38.1622C69.9232 37.8858 70.0038 37.6555 70.165 37.4712C70.332 37.2869 70.5796 37.1948 70.9078 37.1948C71.2361 37.1948 71.4837 37.2869 71.6507 37.4712C71.8234 37.6555 71.9098 37.8858 71.9098 38.1622C71.9098 38.4271 71.8234 38.6488 71.6507 38.8273C71.4837 39.0058 71.2361 39.095 70.9078 39.095C70.5796 39.095 70.332 39.0058 70.165 38.8273C70.0038 38.6488 69.9232 38.4271 69.9232 38.1622ZM117.488 33.8954C117.488 32.5941 117.661 31.3445 118.007 30.1468C118.358 28.9491 118.879 27.8608 119.57 26.882C120.261 25.9031 120.978 25.2121 121.721 24.809L122.049 25.8628C121.208 26.5077 120.517 27.4923 119.976 28.8167C119.44 30.1411 119.147 31.6238 119.095 33.2649L119.086 33.999C119.086 36.2217 119.492 38.1507 120.304 39.786C120.794 40.7649 121.375 41.5307 122.049 42.0835L121.721 43.0595C120.955 42.6334 120.224 41.9194 119.527 40.9175C118.168 38.9597 117.488 36.619 117.488 33.8954ZM124.381 39V30.8896H122.904V29.6545H124.381V28.6958C124.381 27.6939 124.649 26.9194 125.184 26.3724C125.72 25.8253 126.477 25.5518 127.456 25.5518C127.824 25.5518 128.19 25.6008 128.553 25.6987L128.466 26.9942C128.196 26.9424 127.908 26.9165 127.603 26.9165C127.084 26.9165 126.684 27.0691 126.402 27.3743C126.12 27.6737 125.979 28.1056 125.979 28.6699V29.6545H127.974V30.8896H125.979V39H124.381ZM135.514 38.0758C134.892 38.8071 133.98 39.1727 132.776 39.1727C131.78 39.1727 131.02 38.8848 130.496 38.309C129.978 37.7274 129.716 36.8695 129.71 35.7351V29.6545H131.308V35.6919C131.308 37.1084 131.884 37.8167 133.035 37.8167C134.256 37.8167 135.068 37.3618 135.471 36.452V29.6545H137.069V39H135.549L135.514 38.0758ZM141.016 29.6545L141.068 30.8292C141.782 29.9309 142.715 29.4818 143.867 29.4818C145.842 29.4818 146.838 30.596 146.855 32.8244V39H145.257V32.8157C145.251 32.142 145.096 31.644 144.791 31.3215C144.491 30.999 144.022 30.8378 143.383 30.8378C142.865 30.8378 142.41 30.976 142.018 31.2524C141.627 31.5288 141.321 31.8916 141.103 32.3407V39H139.505V29.6545H141.016ZM153.013 37.8685C153.583 37.8685 154.082 37.6958 154.508 37.3503C154.934 37.0048 155.17 36.5729 155.216 36.0547H156.727C156.699 36.5902 156.514 37.0998 156.175 37.5835C155.835 38.0672 155.38 38.453 154.81 38.7409C154.246 39.0288 153.647 39.1727 153.013 39.1727C151.741 39.1727 150.727 38.7495 149.973 37.9031C149.225 37.0509 148.85 35.8877 148.85 34.4136V34.1459C148.85 33.2361 149.017 32.4271 149.351 31.7188C149.685 31.0106 150.163 30.4607 150.785 30.0691C151.413 29.6775 152.153 29.4818 153.005 29.4818C154.053 29.4818 154.922 29.7956 155.613 30.4232C156.31 31.0509 156.681 31.8656 156.727 32.8676H155.216C155.17 32.263 154.939 31.7678 154.525 31.382C154.116 30.9904 153.609 30.7946 153.005 30.7946C152.193 30.7946 151.562 31.0883 151.113 31.6756C150.67 32.2572 150.448 33.1008 150.448 34.2063V34.5086C150.448 35.5854 150.67 36.4146 151.113 36.9962C151.557 37.5777 152.19 37.8685 153.013 37.8685ZM160.692 27.3916V29.6545H162.437V30.8896H160.692V36.6852C160.692 37.0595 160.77 37.3417 160.925 37.5317C161.081 37.7159 161.345 37.8081 161.72 37.8081C161.904 37.8081 162.157 37.7735 162.48 37.7044V39C162.059 39.1152 161.651 39.1727 161.253 39.1727C160.539 39.1727 160.001 38.9568 159.638 38.525C159.275 38.0931 159.094 37.4798 159.094 36.6852V30.8896H157.392V29.6545H159.094V27.3916H160.692ZM166.047 39H164.449V29.6545H166.047V39ZM164.32 27.1756C164.32 26.9165 164.397 26.6977 164.553 26.5192C164.714 26.3407 164.95 26.2514 165.261 26.2514C165.572 26.2514 165.808 26.3407 165.969 26.5192C166.13 26.6977 166.211 26.9165 166.211 27.1756C166.211 27.4347 166.13 27.6507 165.969 27.8234C165.808 27.9962 165.572 28.0825 165.261 28.0825C164.95 28.0825 164.714 27.9962 164.553 27.8234C164.397 27.6507 164.32 27.4347 164.32 27.1756ZM168.189 34.2409C168.189 33.3253 168.368 32.5019 168.725 31.7706C169.087 31.0394 169.588 30.4751 170.227 30.0777C170.872 29.6804 171.606 29.4818 172.43 29.4818C173.702 29.4818 174.73 29.9223 175.513 30.8033C176.302 31.6843 176.697 32.856 176.697 34.3186V34.4309C176.697 35.3407 176.521 36.1584 176.17 36.8839C175.824 37.6036 175.326 38.1651 174.676 38.5681C174.031 38.9712 173.288 39.1727 172.447 39.1727C171.18 39.1727 170.153 38.7322 169.364 37.8512C168.581 36.9703 168.189 35.8042 168.189 34.3532V34.2409ZM169.796 34.4309C169.796 35.4674 170.034 36.2994 170.512 36.9271C170.996 37.5547 171.641 37.8685 172.447 37.8685C173.259 37.8685 173.904 37.5518 174.382 36.9184C174.86 36.2793 175.099 35.3868 175.099 34.2409C175.099 33.2159 174.854 32.3868 174.365 31.7534C173.881 31.1142 173.236 30.7946 172.43 30.7946C171.641 30.7946 171.005 31.1084 170.521 31.7361C170.037 32.3637 169.796 33.262 169.796 34.4309ZM180.212 29.6545L180.264 30.8292C180.978 29.9309 181.911 29.4818 183.062 29.4818C185.037 29.4818 186.034 30.596 186.051 32.8244V39H184.453V32.8157C184.447 32.142 184.292 31.644 183.987 31.3215C183.687 30.999 183.218 30.8378 182.579 30.8378C182.06 30.8378 181.606 30.976 181.214 31.2524C180.822 31.5288 180.517 31.8916 180.298 32.3407V39H178.701V29.6545H180.212ZM195.198 40.3042H187.286V39H195.198V40.3042ZM197.953 29.6545L198.005 30.8292C198.719 29.9309 199.652 29.4818 200.803 29.4818C202.778 29.4818 203.774 30.596 203.792 32.8244V39H202.194V32.8157C202.188 32.142 202.033 31.644 201.727 31.3215C201.428 30.999 200.959 30.8378 200.32 30.8378C199.801 30.8378 199.346 30.976 198.955 31.2524C198.563 31.5288 198.258 31.8916 198.039 32.3407V39H196.441V29.6545H197.953ZM211.971 39C211.879 38.8157 211.804 38.4875 211.747 38.0154C211.004 38.7869 210.117 39.1727 209.086 39.1727C208.165 39.1727 207.408 38.9136 206.815 38.3954C206.227 37.8714 205.934 37.2092 205.934 36.4088C205.934 35.4357 206.302 34.6814 207.039 34.1459C207.782 33.6046 208.824 33.334 210.166 33.334H211.721V32.5998C211.721 32.0413 211.554 31.5979 211.22 31.2697C210.886 30.9357 210.393 30.7687 209.743 30.7687C209.173 30.7687 208.695 30.9127 208.309 31.2006C207.923 31.4885 207.73 31.8369 207.73 32.2457H206.124C206.124 31.7793 206.288 31.3301 206.616 30.8983C206.95 30.4607 207.399 30.1152 207.963 29.8618C208.534 29.6084 209.158 29.4818 209.838 29.4818C210.915 29.4818 211.758 29.7524 212.368 30.2937C212.979 30.8292 213.296 31.5691 213.319 32.5134V36.8148C213.319 37.6727 213.428 38.3551 213.647 38.8618V39H211.971ZM209.32 37.7822C209.82 37.7822 210.296 37.6526 210.745 37.3935C211.194 37.1344 211.519 36.7975 211.721 36.3829V34.4655H210.468C208.51 34.4655 207.532 35.0384 207.532 36.1843C207.532 36.6852 207.699 37.0768 208.033 37.3589C208.367 37.6411 208.796 37.7822 209.32 37.7822ZM217.326 29.6545L217.369 30.691C218.055 29.8848 218.979 29.4818 220.142 29.4818C221.449 29.4818 222.339 29.9827 222.811 30.9846C223.122 30.5355 223.525 30.1727 224.02 29.8964C224.521 29.62 225.111 29.4818 225.791 29.4818C227.841 29.4818 228.883 30.5672 228.917 32.738V39H227.319V32.833C227.319 32.1651 227.167 31.667 226.862 31.3388C226.557 31.0048 226.044 30.8378 225.324 30.8378C224.731 30.8378 224.239 31.0163 223.847 31.3733C223.456 31.7246 223.228 32.1996 223.165 32.7985V39H221.558V32.8762C221.558 31.5173 220.893 30.8378 219.563 30.8378C218.515 30.8378 217.798 31.2841 217.413 32.1766V39H215.815V29.6545H217.326ZM235.214 39.1727C233.947 39.1727 232.916 38.7582 232.122 37.929C231.327 37.0941 230.93 35.9798 230.93 34.5864V34.2927C230.93 33.3656 231.105 32.5393 231.457 31.8138C231.814 31.0825 232.309 30.5125 232.942 30.1037C233.581 29.6891 234.272 29.4818 235.015 29.4818C236.23 29.4818 237.175 29.882 237.848 30.6823C238.522 31.4827 238.859 32.6286 238.859 34.12V34.785H232.528C232.551 35.7063 232.819 36.452 233.331 37.0221C233.849 37.5864 234.506 37.8685 235.3 37.8685C235.865 37.8685 236.343 37.7534 236.734 37.523C237.126 37.2927 237.468 36.9875 237.762 36.6075L238.738 37.3676C237.955 38.571 236.78 39.1727 235.214 39.1727ZM235.015 30.7946C234.37 30.7946 233.829 31.0307 233.391 31.5029C232.954 31.9693 232.683 32.6257 232.58 33.4722H237.261V33.3512C237.215 32.5393 236.996 31.9117 236.605 31.4683C236.213 31.0192 235.683 30.7946 235.015 30.7946ZM244.404 33.9818C244.404 35.2658 244.234 36.4981 243.894 37.6785C243.56 38.8532 243.045 39.9386 242.348 40.9347C241.657 41.9309 240.932 42.6392 240.172 43.0595L239.835 42.0835C240.722 41.404 241.433 40.3503 241.968 38.9223C242.51 37.4885 242.786 35.8992 242.797 34.1545V33.8781C242.797 32.6689 242.671 31.5461 242.417 30.5096C242.164 29.4674 241.81 28.5346 241.355 27.7111C240.906 26.8877 240.399 26.2457 239.835 25.785L240.172 24.809C240.932 25.2294 241.654 25.9319 242.34 26.9165C243.031 27.9012 243.546 28.9866 243.886 30.1727C244.231 31.3589 244.404 32.6286 244.404 33.9818Z" fill="black"/>
<path d="M79.7178 39C79.6027 38.7754 79.5192 38.4962 79.4673 38.1622C78.8627 38.8359 78.0768 39.1727 77.1094 39.1727C76.1938 39.1727 75.4338 38.9079 74.8292 38.3781C74.2303 37.8484 73.9309 37.1804 73.9309 36.3743C73.9309 35.3839 74.2965 34.6238 75.0278 34.0941C75.7649 33.5643 76.8272 33.2965 78.2149 33.2908H79.3637V32.7553C79.3637 32.3234 79.2514 31.9779 79.0268 31.7188C78.808 31.4597 78.4597 31.3301 77.9817 31.3301C77.5614 31.3301 77.2303 31.4309 76.9885 31.6324C76.7524 31.834 76.6343 32.1104 76.6343 32.4616H74.1382C74.1382 31.9203 74.3052 31.4194 74.6391 30.9587C74.9731 30.4981 75.4453 30.1382 76.0556 29.8791C76.666 29.6142 77.3512 29.4818 78.1113 29.4818C79.2629 29.4818 80.1756 29.7726 80.8493 30.3541C81.5288 30.9299 81.8685 31.7418 81.8685 32.7898V36.8407C81.8743 37.7274 81.9981 38.3983 82.2399 38.8532V39H79.7178ZM77.6535 37.2639C78.022 37.2639 78.3618 37.1833 78.6727 37.0221C78.9837 36.8551 79.214 36.6334 79.3637 36.357V34.7505H78.4309C77.1814 34.7505 76.5163 35.1823 76.4357 36.0461L76.427 36.1929C76.427 36.5038 76.5364 36.7601 76.7553 36.9616C76.9741 37.1631 77.2735 37.2639 77.6535 37.2639ZM92.1986 34.4136C92.1986 35.8532 91.8704 37.0077 91.214 37.8772C90.5633 38.7409 89.6823 39.1727 88.571 39.1727C87.6267 39.1727 86.8637 38.8445 86.2821 38.1881V42.5931H83.786V29.6545H86.1007L86.1871 30.5701C86.7917 29.8445 87.5806 29.4818 88.5537 29.4818C89.7053 29.4818 90.6007 29.9079 91.2399 30.7601C91.8791 31.6123 92.1986 32.787 92.1986 34.2841V34.4136ZM89.7025 34.2322C89.7025 33.3628 89.547 32.6919 89.2361 32.2198C88.9309 31.7476 88.4846 31.5115 87.8973 31.5115C87.1142 31.5115 86.5758 31.8109 86.2821 32.4098V36.2361C86.5873 36.8522 87.1315 37.1603 87.9146 37.1603C89.1065 37.1603 89.7025 36.1843 89.7025 34.2322ZM102.166 34.4136C102.166 35.8532 101.838 37.0077 101.181 37.8772C100.531 38.7409 99.6497 39.1727 98.5384 39.1727C97.594 39.1727 96.8311 38.8445 96.2495 38.1881V42.5931H93.7533V29.6545H96.0681L96.1545 30.5701C96.7591 29.8445 97.548 29.4818 98.5211 29.4818C99.6727 29.4818 100.568 29.9079 101.207 30.7601C101.846 31.6123 102.166 32.787 102.166 34.2841V34.4136ZM99.6698 34.2322C99.6698 33.3628 99.5144 32.6919 99.2034 32.2198C98.8982 31.7476 98.452 31.5115 97.8646 31.5115C97.0815 31.5115 96.5432 31.8109 96.2495 32.4098V36.2361C96.5547 36.8522 97.0988 37.1603 97.8819 37.1603C99.0739 37.1603 99.6698 36.1843 99.6698 34.2322ZM106.355 39H103.85V25.7332H106.355V39ZM111.909 35.4674L113.636 29.6545H116.314L112.557 40.4511L112.349 40.9434C111.791 42.1641 110.869 42.7745 109.585 42.7745C109.223 42.7745 108.854 42.7198 108.48 42.6104V40.7188L108.86 40.7274C109.332 40.7274 109.683 40.6555 109.914 40.5115C110.15 40.3676 110.334 40.1286 110.466 39.7946L110.76 39.0259L107.487 29.6545H110.173L111.909 35.4674Z" fill="#B82629"/>
<path d="M33.1651 73.3944C31.7428 72.9856 30.7063 72.4846 30.0557 71.8916C29.4107 71.2927 29.0883 70.5557 29.0883 69.6804C29.0883 68.69 29.4827 67.8724 30.2716 67.2275C31.0662 66.5768 32.0969 66.2514 33.3637 66.2514C34.2274 66.2514 34.9962 66.4184 35.6699 66.7524C36.3493 67.0864 36.8733 67.547 37.2418 68.1344C37.6161 68.7217 37.8033 69.3637 37.8033 70.0605H36.1363C36.1363 69.3004 35.8944 68.7044 35.4107 68.2726C34.9271 67.8349 34.2447 67.6161 33.3637 67.6161C32.5461 67.6161 31.9069 67.7975 31.4463 68.1603C30.9914 68.5173 30.7639 69.0154 30.7639 69.6545C30.7639 70.167 30.9798 70.6017 31.4117 70.9587C31.8493 71.31 32.5892 71.6324 33.6315 71.9261C34.6795 72.2198 35.4971 72.5451 36.0844 72.9021C36.6775 73.2534 37.1152 73.6651 37.3973 74.1372C37.6852 74.6094 37.8292 75.1651 37.8292 75.8042C37.8292 76.8234 37.4319 77.6411 36.6372 78.2572C35.8426 78.8676 34.7802 79.1727 33.4501 79.1727C32.5864 79.1727 31.7802 79.0086 31.0317 78.6804C30.2831 78.3464 29.7044 77.8916 29.2956 77.3157C28.8925 76.7399 28.691 76.0864 28.691 75.3551H30.358C30.358 76.1152 30.6372 76.7169 31.1958 77.1603C31.7601 77.5979 32.5115 77.8167 33.4501 77.8167C34.3253 77.8167 34.9962 77.6382 35.4626 77.2812C35.929 76.9242 36.1622 76.4376 36.1622 75.8215C36.1622 75.2054 35.9463 74.7303 35.5144 74.3964C35.0825 74.0566 34.2994 73.7227 33.1651 73.3944ZM43.5902 79.1727C42.3234 79.1727 41.2927 78.7582 40.4981 77.929C39.7035 77.0941 39.3061 75.9798 39.3061 74.5864V74.2927C39.3061 73.3656 39.4818 72.5393 39.833 71.8138C40.19 71.0825 40.6852 70.5125 41.3186 70.1037C41.9578 69.6891 42.6487 69.4818 43.3915 69.4818C44.6065 69.4818 45.5509 69.882 46.2246 70.6823C46.8983 71.4827 47.2351 72.6286 47.2351 74.12V74.785H40.904C40.9271 75.7063 41.1948 76.452 41.7073 77.0221C42.2255 77.5864 42.882 77.8685 43.6766 77.8685C44.2409 77.8685 44.7188 77.7534 45.1104 77.523C45.5019 77.2927 45.8445 76.9875 46.1382 76.6075L47.1142 77.3676C46.3311 78.571 45.1564 79.1727 43.5902 79.1727ZM43.3915 70.7946C42.7466 70.7946 42.2054 71.0307 41.7677 71.5029C41.3301 71.9693 41.0595 72.6257 40.9558 73.4722H45.6372V73.3512C45.5912 72.5393 45.3724 71.9117 44.9808 71.4683C44.5892 71.0192 44.0595 70.7946 43.3915 70.7946ZM53.6094 71.0883C53.3676 71.048 53.1056 71.0278 52.8234 71.0278C51.7754 71.0278 51.0643 71.4741 50.69 72.3666V79H49.0921V69.6545H50.6468L50.6727 70.7342C51.1967 69.8992 51.9395 69.4818 52.9011 69.4818C53.2121 69.4818 53.4482 69.5221 53.6094 69.6027V71.0883ZM56.8224 79H55.2246V69.6545H56.8224V79ZM55.095 67.1756C55.095 66.9165 55.1727 66.6977 55.3282 66.5192C55.4894 66.3407 55.7255 66.2514 56.0365 66.2514C56.3474 66.2514 56.5835 66.3407 56.7447 66.5192C56.9059 66.6977 56.9866 66.9165 56.9866 67.1756C56.9866 67.4347 56.9059 67.6507 56.7447 67.8234C56.5835 67.9962 56.3474 68.0825 56.0365 68.0825C55.7255 68.0825 55.4894 67.9962 55.3282 67.8234C55.1727 67.6507 55.095 67.4347 55.095 67.1756ZM63.2658 79.1727C61.999 79.1727 60.9683 78.7582 60.1737 77.929C59.3791 77.0941 58.9818 75.9798 58.9818 74.5864V74.2927C58.9818 73.3656 59.1574 72.5393 59.5086 71.8138C59.8656 71.0825 60.3608 70.5125 60.9942 70.1037C61.6334 69.6891 62.3244 69.4818 63.0672 69.4818C64.2821 69.4818 65.2265 69.882 65.9002 70.6823C66.5739 71.4827 66.9107 72.6286 66.9107 74.12V74.785H60.5796C60.6027 75.7063 60.8704 76.452 61.3829 77.0221C61.9011 77.5864 62.5576 77.8685 63.3522 77.8685C63.9165 77.8685 64.3944 77.7534 64.786 77.523C65.1775 77.2927 65.5201 76.9875 65.8138 76.6075L66.7898 77.3676C66.0067 78.571 64.832 79.1727 63.2658 79.1727ZM63.0672 70.7946C62.4223 70.7946 61.881 71.0307 61.4434 71.5029C61.0057 71.9693 60.7351 72.6257 60.6315 73.4722H65.3128V73.3512C65.2668 72.5393 65.048 71.9117 64.6564 71.4683C64.2649 71.0192 63.7351 70.7946 63.0672 70.7946ZM74.2092 76.5211C74.2092 76.0893 74.0451 75.7553 73.7169 75.5192C73.3944 75.2774 72.8272 75.0701 72.0153 74.8973C71.2092 74.7246 70.5672 74.5173 70.0892 74.2754C69.6171 74.0336 69.2658 73.7457 69.0355 73.4117C68.8109 73.0777 68.6986 72.6804 68.6986 72.2198C68.6986 71.4539 69.0211 70.8061 69.666 70.2764C70.3167 69.7466 71.1459 69.4818 72.1535 69.4818C73.213 69.4818 74.071 69.7553 74.7274 70.3023C75.3896 70.8493 75.7207 71.5489 75.7207 72.4012H74.1142C74.1142 71.9635 73.927 71.5864 73.5528 71.2697C73.1842 70.953 72.7178 70.7946 72.1535 70.7946C71.572 70.7946 71.1171 70.9213 70.7889 71.1747C70.4606 71.428 70.2965 71.7591 70.2965 72.1679C70.2965 72.5537 70.4491 72.8445 70.7543 73.0403C71.0595 73.2361 71.6094 73.4232 72.404 73.6017C73.2044 73.7802 73.8522 73.9933 74.3474 74.2409C74.8426 74.4885 75.2082 74.7879 75.4443 75.1392C75.6862 75.4846 75.8071 75.9079 75.8071 76.4088C75.8071 77.2438 75.4731 77.9146 74.8052 78.4213C74.1372 78.9223 73.2706 79.1727 72.2054 79.1727C71.4568 79.1727 70.7946 79.0403 70.2188 78.7754C69.643 78.5106 69.191 78.142 68.8627 77.6699C68.5403 77.1919 68.3791 76.6766 68.3791 76.1238H69.977C70.0057 76.6593 70.2188 77.0854 70.6161 77.4021C71.0192 77.7131 71.5489 77.8685 72.2054 77.8685C72.81 77.8685 73.2936 77.7476 73.6564 77.5058C74.0249 77.2582 74.2092 76.9299 74.2092 76.5211ZM77.9232 78.1622C77.9232 77.8858 78.0038 77.6555 78.165 77.4712C78.332 77.2869 78.5796 77.1948 78.9078 77.1948C79.2361 77.1948 79.4837 77.2869 79.6507 77.4712C79.8234 77.6555 79.9098 77.8858 79.9098 78.1622C79.9098 78.4271 79.8234 78.6488 79.6507 78.8273C79.4837 79.0058 79.2361 79.095 78.9078 79.095C78.5796 79.095 78.332 79.0058 78.165 78.8273C78.0038 78.6488 77.9232 78.4271 77.9232 78.1622ZM117.266 73.8954C117.266 72.5941 117.439 71.3445 117.784 70.1468C118.135 68.9491 118.656 67.8608 119.347 66.882C120.038 65.9031 120.755 65.2121 121.498 64.809L121.826 65.8628C120.986 66.5077 120.295 67.4923 119.753 68.8167C119.218 70.1411 118.924 71.6238 118.872 73.2649L118.864 73.999C118.864 76.2217 119.27 78.1507 120.082 79.786C120.571 80.7649 121.153 81.5307 121.826 82.0835L121.498 83.0595C120.732 82.6334 120.001 81.9194 119.304 80.9175C117.945 78.9597 117.266 76.619 117.266 73.8954ZM124.158 79V70.8896H122.681V69.6545H124.158V68.6958C124.158 67.6939 124.426 66.9194 124.962 66.3724C125.497 65.8253 126.254 65.5518 127.233 65.5518C127.602 65.5518 127.967 65.6008 128.33 65.6987L128.244 66.9942C127.973 66.9424 127.685 66.9165 127.38 66.9165C126.862 66.9165 126.462 67.0691 126.179 67.3743C125.897 67.6737 125.756 68.1056 125.756 68.6699V69.6545H127.751V70.8896H125.756V79H124.158ZM135.292 78.0758C134.67 78.8071 133.757 79.1727 132.554 79.1727C131.558 79.1727 130.797 78.8848 130.273 78.309C129.755 77.7274 129.493 76.8695 129.487 75.7351V69.6545H131.085V75.6919C131.085 77.1084 131.661 77.8167 132.813 77.8167C134.034 77.8167 134.845 77.3618 135.249 76.452V69.6545H136.846V79H135.326L135.292 78.0758ZM140.794 69.6545L140.845 70.8292C141.559 69.9309 142.492 69.4818 143.644 69.4818C145.619 69.4818 146.615 70.596 146.632 72.8244V79H145.035V72.8157C145.029 72.142 144.873 71.644 144.568 71.3215C144.269 70.999 143.799 70.8378 143.16 70.8378C142.642 70.8378 142.187 70.976 141.796 71.2524C141.404 71.5288 141.099 71.8916 140.88 72.3407V79H139.282V69.6545H140.794ZM152.791 77.8685C153.361 77.8685 153.859 77.6958 154.285 77.3503C154.711 77.0048 154.947 76.5729 154.993 76.0547H156.505C156.476 76.5902 156.292 77.0998 155.952 77.5835C155.612 78.0672 155.157 78.453 154.587 78.7409C154.023 79.0288 153.424 79.1727 152.791 79.1727C151.518 79.1727 150.505 78.7495 149.75 77.9031C149.002 77.0509 148.628 75.8877 148.628 74.4136V74.1459C148.628 73.2361 148.795 72.4271 149.129 71.7188C149.463 71.0106 149.94 70.4607 150.562 70.0691C151.19 69.6775 151.93 69.4818 152.782 69.4818C153.83 69.4818 154.7 69.7956 155.391 70.4232C156.087 71.0509 156.459 71.8656 156.505 72.8676H154.993C154.947 72.263 154.717 71.7678 154.302 71.382C153.893 70.9904 153.387 70.7946 152.782 70.7946C151.97 70.7946 151.34 71.0883 150.891 71.6756C150.447 72.2572 150.225 73.1008 150.225 74.2063V74.5086C150.225 75.5854 150.447 76.4146 150.891 76.9962C151.334 77.5777 151.967 77.8685 152.791 77.8685ZM160.469 67.3916V69.6545H162.214V70.8896H160.469V76.6852C160.469 77.0595 160.547 77.3417 160.702 77.5317C160.858 77.7159 161.123 77.8081 161.497 77.8081C161.681 77.8081 161.935 77.7735 162.257 77.7044V79C161.837 79.1152 161.428 79.1727 161.031 79.1727C160.317 79.1727 159.778 78.9568 159.415 78.525C159.053 78.0931 158.871 77.4798 158.871 76.6852V70.8896H157.17V69.6545H158.871V67.3916H160.469ZM165.824 79H164.226V69.6545H165.824V79ZM164.097 67.1756C164.097 66.9165 164.175 66.6977 164.33 66.5192C164.491 66.3407 164.727 66.2514 165.038 66.2514C165.349 66.2514 165.585 66.3407 165.747 66.5192C165.908 66.6977 165.988 66.9165 165.988 67.1756C165.988 67.4347 165.908 67.6507 165.747 67.8234C165.585 67.9962 165.349 68.0825 165.038 68.0825C164.727 68.0825 164.491 67.9962 164.33 67.8234C164.175 67.6507 164.097 67.4347 164.097 67.1756ZM167.966 74.2409C167.966 73.3253 168.145 72.5019 168.502 71.7706C168.865 71.0394 169.366 70.4751 170.005 70.0777C170.65 69.6804 171.384 69.4818 172.207 69.4818C173.48 69.4818 174.508 69.9223 175.291 70.8033C176.08 71.6843 176.474 72.856 176.474 74.3186V74.4309C176.474 75.3407 176.298 76.1584 175.947 76.8839C175.602 77.6036 175.104 78.1651 174.453 78.5681C173.808 78.9712 173.065 79.1727 172.225 79.1727C170.958 79.1727 169.93 78.7322 169.141 77.8512C168.358 76.9703 167.966 75.8042 167.966 74.3532V74.2409ZM169.573 74.4309C169.573 75.4674 169.812 76.2994 170.29 76.9271C170.773 77.5547 171.418 77.8685 172.225 77.8685C173.036 77.8685 173.681 77.5518 174.159 76.9184C174.637 76.2793 174.876 75.3868 174.876 74.2409C174.876 73.2159 174.631 72.3868 174.142 71.7534C173.658 71.1142 173.013 70.7946 172.207 70.7946C171.418 70.7946 170.782 71.1084 170.298 71.7361C169.815 72.3637 169.573 73.262 169.573 74.4309ZM179.989 69.6545L180.041 70.8292C180.755 69.9309 181.688 69.4818 182.84 69.4818C184.815 69.4818 185.811 70.596 185.828 72.8244V79H184.23V72.8157C184.224 72.142 184.069 71.644 183.764 71.3215C183.464 70.999 182.995 70.8378 182.356 70.8378C181.838 70.8378 181.383 70.976 180.991 71.2524C180.6 71.5288 180.295 71.8916 180.076 72.3407V79H178.478V69.6545H179.989ZM194.975 80.3042H187.063V79H194.975V80.3042ZM197.73 69.6545L197.782 70.8292C198.496 69.9309 199.429 69.4818 200.581 69.4818C202.556 69.4818 203.552 70.596 203.569 72.8244V79H201.971V72.8157C201.965 72.142 201.81 71.644 201.505 71.3215C201.205 70.999 200.736 70.8378 200.097 70.8378C199.579 70.8378 199.124 70.976 198.732 71.2524C198.341 71.5288 198.035 71.8916 197.817 72.3407V79H196.219V69.6545H197.73ZM211.748 79C211.656 78.8157 211.582 78.4875 211.524 78.0154C210.781 78.7869 209.894 79.1727 208.864 79.1727C207.942 79.1727 207.185 78.9136 206.592 78.3954C206.005 77.8714 205.711 77.2092 205.711 76.4088C205.711 75.4357 206.08 74.6814 206.817 74.1459C207.559 73.6046 208.602 73.334 209.943 73.334H211.498V72.5998C211.498 72.0413 211.331 71.5979 210.997 71.2697C210.663 70.9357 210.171 70.7687 209.52 70.7687C208.95 70.7687 208.472 70.9127 208.086 71.2006C207.701 71.4885 207.508 71.8369 207.508 72.2457H205.901C205.901 71.7793 206.065 71.3301 206.393 70.8983C206.727 70.4607 207.177 70.1152 207.741 69.8618C208.311 69.6084 208.936 69.4818 209.615 69.4818C210.692 69.4818 211.535 69.7524 212.146 70.2937C212.756 70.8292 213.073 71.5691 213.096 72.5134V76.8148C213.096 77.6727 213.205 78.3551 213.424 78.8618V79H211.748ZM209.097 77.7822C209.598 77.7822 210.073 77.6526 210.522 77.3935C210.971 77.1344 211.296 76.7975 211.498 76.3829V74.4655H210.246C208.288 74.4655 207.309 75.0384 207.309 76.1843C207.309 76.6852 207.476 77.0768 207.81 77.3589C208.144 77.6411 208.573 77.7822 209.097 77.7822ZM217.104 69.6545L217.147 70.691C217.832 69.8848 218.756 69.4818 219.919 69.4818C221.226 69.4818 222.116 69.9827 222.588 70.9846C222.899 70.5355 223.302 70.1727 223.797 69.8964C224.298 69.62 224.889 69.4818 225.568 69.4818C227.618 69.4818 228.66 70.5672 228.695 72.738V79H227.097V72.833C227.097 72.1651 226.944 71.667 226.639 71.3388C226.334 71.0048 225.821 70.8378 225.102 70.8378C224.509 70.8378 224.016 71.0163 223.625 71.3733C223.233 71.7246 223.006 72.1996 222.942 72.7985V79H221.336V72.8762C221.336 71.5173 220.671 70.8378 219.341 70.8378C218.293 70.8378 217.576 71.2841 217.19 72.1766V79H215.592V69.6545H217.104ZM234.991 79.1727C233.724 79.1727 232.694 78.7582 231.899 77.929C231.105 77.0941 230.707 75.9798 230.707 74.5864V74.2927C230.707 73.3656 230.883 72.5393 231.234 71.8138C231.591 71.0825 232.086 70.5125 232.72 70.1037C233.359 69.6891 234.05 69.4818 234.793 69.4818C236.008 69.4818 236.952 69.882 237.626 70.6823C238.299 71.4827 238.636 72.6286 238.636 74.12V74.785H232.305C232.328 75.7063 232.596 76.452 233.108 77.0221C233.627 77.5864 234.283 77.8685 235.078 77.8685C235.642 77.8685 236.12 77.7534 236.511 77.523C236.903 77.2927 237.246 76.9875 237.539 76.6075L238.515 77.3676C237.732 78.571 236.557 79.1727 234.991 79.1727ZM234.793 70.7946C234.148 70.7946 233.606 71.0307 233.169 71.5029C232.731 71.9693 232.461 72.6257 232.357 73.4722H237.038V73.3512C236.992 72.5393 236.773 71.9117 236.382 71.4683C235.99 71.0192 235.461 70.7946 234.793 70.7946ZM244.181 73.9818C244.181 75.2658 244.011 76.4981 243.672 77.6785C243.338 78.8532 242.822 79.9386 242.126 80.9347C241.435 81.9309 240.709 82.6392 239.949 83.0595L239.612 82.0835C240.499 81.404 241.21 80.3503 241.746 78.9223C242.287 77.4885 242.563 75.8992 242.575 74.1545V73.8781C242.575 72.6689 242.448 71.5461 242.195 70.5096C241.941 69.4674 241.587 68.5346 241.132 67.7111C240.683 66.8877 240.176 66.2457 239.612 65.785L239.949 64.809C240.709 65.2294 241.432 65.9319 242.117 66.9165C242.808 67.9012 243.323 68.9866 243.663 70.1727C244.009 71.3589 244.181 72.6286 244.181 73.9818Z" fill="black"/>
<path d="M84.643 69.6545L84.7207 70.6996C85.3829 69.8877 86.2783 69.4818 87.4069 69.4818C88.6103 69.4818 89.4366 69.9568 89.8858 70.9069C90.5422 69.9568 91.4779 69.4818 92.6929 69.4818C93.7063 69.4818 94.4606 69.7783 94.9558 70.3714C95.451 70.9587 95.6986 71.8455 95.6986 73.0317V79H93.1938V73.0403C93.1938 72.5106 93.0902 72.1248 92.8829 71.8829C92.6756 71.6353 92.31 71.5115 91.786 71.5115C91.0374 71.5115 90.5192 71.8685 90.2313 72.5825L90.2399 79H87.7437V73.0489C87.7437 72.5077 87.6372 72.1161 87.4242 71.8743C87.2111 71.6324 86.8483 71.5115 86.3359 71.5115C85.6276 71.5115 85.1151 71.8052 84.7984 72.3925V79H82.3023V69.6545H84.643ZM103.04 79C102.925 78.7754 102.842 78.4962 102.79 78.1622C102.185 78.8359 101.399 79.1727 100.432 79.1727C99.5163 79.1727 98.7562 78.9079 98.1516 78.3781C97.5528 77.8484 97.2533 77.1804 97.2533 76.3743C97.2533 75.3839 97.619 74.6238 98.3503 74.0941C99.0873 73.5643 100.15 73.2965 101.537 73.2908H102.686V72.7553C102.686 72.3234 102.574 71.9779 102.349 71.7188C102.13 71.4597 101.782 71.3301 101.304 71.3301C100.884 71.3301 100.553 71.4309 100.311 71.6324C100.075 71.834 99.9568 72.1104 99.9568 72.4616H97.4606C97.4606 71.9203 97.6276 71.4194 97.9616 70.9587C98.2956 70.4981 98.7677 70.1382 99.3781 69.8791C99.9885 69.6142 100.674 69.4818 101.434 69.4818C102.585 69.4818 103.498 69.7726 104.172 70.3541C104.851 70.9299 105.191 71.7418 105.191 72.7898V76.8407C105.197 77.7274 105.321 78.3983 105.562 78.8532V79H103.04ZM100.976 77.2639C101.345 77.2639 101.684 77.1833 101.995 77.0221C102.306 76.8551 102.536 76.6334 102.686 76.357V74.7505H101.753C100.504 74.7505 99.8387 75.1823 99.7581 76.0461L99.7495 76.1929C99.7495 76.5038 99.8589 76.7601 100.078 76.9616C100.297 77.1631 100.596 77.2639 100.976 77.2639ZM115.521 74.4136C115.521 75.8532 115.193 77.0077 114.536 77.8772C113.886 78.7409 113.005 79.1727 111.893 79.1727C110.949 79.1727 110.186 78.8445 109.605 78.1881V82.5931H107.108V69.6545H109.423L109.51 70.5701C110.114 69.8445 110.903 69.4818 111.876 69.4818C113.028 69.4818 113.923 69.9079 114.562 70.7601C115.202 71.6123 115.521 72.787 115.521 74.2841V74.4136ZM113.025 74.2322C113.025 73.3628 112.869 72.6919 112.559 72.2198C112.253 71.7476 111.807 71.5115 111.22 71.5115C110.437 71.5115 109.898 71.8109 109.605 72.4098V76.2361C109.91 76.8522 110.454 77.1603 111.237 77.1603C112.429 77.1603 113.025 76.1843 113.025 74.2322Z" fill="#B82629"/>
</svg>
