<svg width="554" height="304" viewBox="0 0 554 304" fill="none" xmlns="http://www.w3.org/2000/svg">
<rect width="554" height="304" fill="white"/>
<path d="M161.898 142.939C161.74 144.293 161.239 145.339 160.396 146.077C159.558 146.81 158.441 147.176 157.047 147.176C155.535 147.176 154.322 146.634 153.408 145.55C152.5 144.466 152.046 143.016 152.046 141.199V139.969C152.046 138.779 152.257 137.733 152.679 136.831C153.106 135.929 153.71 135.237 154.489 134.757C155.269 134.271 156.171 134.027 157.196 134.027C158.556 134.027 159.646 134.408 160.466 135.17C161.286 135.926 161.764 136.975 161.898 138.316H160.202C160.056 137.297 159.736 136.559 159.244 136.102C158.758 135.645 158.075 135.416 157.196 135.416C156.118 135.416 155.271 135.814 154.656 136.611C154.047 137.408 153.742 138.542 153.742 140.013V141.252C153.742 142.641 154.032 143.745 154.612 144.565C155.192 145.386 156.004 145.796 157.047 145.796C157.984 145.796 158.702 145.585 159.2 145.163C159.704 144.735 160.038 143.994 160.202 142.939H161.898ZM169.826 147C169.732 146.812 169.656 146.479 169.598 145.998C168.842 146.783 167.939 147.176 166.891 147.176C165.953 147.176 165.183 146.912 164.579 146.385C163.981 145.852 163.683 145.178 163.683 144.363C163.683 143.373 164.058 142.605 164.808 142.061C165.563 141.51 166.624 141.234 167.989 141.234H169.571V140.487C169.571 139.919 169.401 139.468 169.062 139.134C168.722 138.794 168.221 138.624 167.559 138.624C166.979 138.624 166.492 138.771 166.1 139.063C165.707 139.356 165.511 139.711 165.511 140.127H163.876C163.876 139.652 164.043 139.195 164.377 138.756C164.717 138.311 165.174 137.959 165.748 137.701C166.328 137.443 166.964 137.314 167.655 137.314C168.751 137.314 169.609 137.59 170.23 138.141C170.852 138.686 171.174 139.438 171.197 140.399V144.776C171.197 145.649 171.309 146.344 171.531 146.859V147H169.826ZM167.128 145.761C167.638 145.761 168.121 145.629 168.578 145.365C169.035 145.102 169.366 144.759 169.571 144.337V142.386H168.297C166.305 142.386 165.309 142.969 165.309 144.135C165.309 144.645 165.479 145.043 165.818 145.33C166.158 145.617 166.595 145.761 167.128 145.761ZM175.513 147H173.887V133.5H175.513V147ZM179.89 147H178.264V133.5H179.89V147ZM192.836 147C192.742 146.812 192.666 146.479 192.607 145.998C191.852 146.783 190.949 147.176 189.9 147.176C188.963 147.176 188.192 146.912 187.589 146.385C186.991 145.852 186.692 145.178 186.692 144.363C186.692 143.373 187.067 142.605 187.817 142.061C188.573 141.51 189.634 141.234 190.999 141.234H192.581V140.487C192.581 139.919 192.411 139.468 192.071 139.134C191.731 138.794 191.23 138.624 190.568 138.624C189.988 138.624 189.502 138.771 189.109 139.063C188.717 139.356 188.521 139.711 188.521 140.127H186.886C186.886 139.652 187.053 139.195 187.387 138.756C187.727 138.311 188.184 137.959 188.758 137.701C189.338 137.443 189.974 137.314 190.665 137.314C191.761 137.314 192.619 137.59 193.24 138.141C193.861 138.686 194.184 139.438 194.207 140.399V144.776C194.207 145.649 194.318 146.344 194.541 146.859V147H192.836ZM190.138 145.761C190.647 145.761 191.131 145.629 191.588 145.365C192.045 145.102 192.376 144.759 192.581 144.337V142.386H191.307C189.314 142.386 188.318 142.969 188.318 144.135C188.318 144.645 188.488 145.043 188.828 145.33C189.168 145.617 189.604 145.761 190.138 145.761ZM198.294 137.49L198.347 138.686C199.073 137.771 200.022 137.314 201.194 137.314C203.204 137.314 204.218 138.448 204.235 140.716V147H202.609V140.707C202.604 140.021 202.445 139.515 202.135 139.187C201.83 138.858 201.353 138.694 200.702 138.694C200.175 138.694 199.712 138.835 199.313 139.116C198.915 139.397 198.604 139.767 198.382 140.224V147H196.756V137.49H198.294ZM217.023 147C216.93 146.812 216.854 146.479 216.795 145.998C216.039 146.783 215.137 147.176 214.088 147.176C213.15 147.176 212.38 146.912 211.776 146.385C211.179 145.852 210.88 145.178 210.88 144.363C210.88 143.373 211.255 142.605 212.005 142.061C212.761 141.51 213.821 141.234 215.187 141.234H216.769V140.487C216.769 139.919 216.599 139.468 216.259 139.134C215.919 138.794 215.418 138.624 214.756 138.624C214.176 138.624 213.689 138.771 213.297 139.063C212.904 139.356 212.708 139.711 212.708 140.127H211.073C211.073 139.652 211.24 139.195 211.574 138.756C211.914 138.311 212.371 137.959 212.945 137.701C213.525 137.443 214.161 137.314 214.853 137.314C215.948 137.314 216.807 137.59 217.428 138.141C218.049 138.686 218.371 139.438 218.395 140.399V144.776C218.395 145.649 218.506 146.344 218.729 146.859V147H217.023ZM214.325 145.761C214.835 145.761 215.318 145.629 215.775 145.365C216.232 145.102 216.563 144.759 216.769 144.337V142.386H215.494C213.502 142.386 212.506 142.969 212.506 144.135C212.506 144.645 212.676 145.043 213.016 145.33C213.355 145.617 213.792 145.761 214.325 145.761ZM220.557 142.166C220.557 140.684 220.899 139.506 221.585 138.633C222.271 137.754 223.179 137.314 224.31 137.314C225.47 137.314 226.375 137.725 227.025 138.545L227.104 137.49H228.59V146.771C228.59 148.002 228.224 148.972 227.491 149.681C226.765 150.39 225.786 150.744 224.556 150.744C223.87 150.744 223.199 150.598 222.543 150.305C221.887 150.012 221.386 149.61 221.04 149.101L221.884 148.125C222.581 148.986 223.434 149.417 224.441 149.417C225.232 149.417 225.848 149.194 226.287 148.749C226.732 148.304 226.955 147.677 226.955 146.868V146.051C226.305 146.801 225.417 147.176 224.292 147.176C223.179 147.176 222.276 146.728 221.585 145.831C220.899 144.935 220.557 143.713 220.557 142.166ZM222.191 142.351C222.191 143.423 222.411 144.267 222.851 144.882C223.29 145.491 223.905 145.796 224.696 145.796C225.722 145.796 226.475 145.33 226.955 144.398V140.057C226.457 139.148 225.71 138.694 224.714 138.694C223.923 138.694 223.305 139.002 222.859 139.617C222.414 140.232 222.191 141.144 222.191 142.351ZM230.664 142.166C230.664 140.684 231.007 139.506 231.692 138.633C232.378 137.754 233.286 137.314 234.417 137.314C235.577 137.314 236.482 137.725 237.133 138.545L237.212 137.49H238.697V146.771C238.697 148.002 238.331 148.972 237.599 149.681C236.872 150.39 235.894 150.744 234.663 150.744C233.978 150.744 233.307 150.598 232.65 150.305C231.994 150.012 231.493 149.61 231.147 149.101L231.991 148.125C232.688 148.986 233.541 149.417 234.549 149.417C235.34 149.417 235.955 149.194 236.395 148.749C236.84 148.304 237.062 147.677 237.062 146.868V146.051C236.412 146.801 235.524 147.176 234.399 147.176C233.286 147.176 232.384 146.728 231.692 145.831C231.007 144.935 230.664 143.713 230.664 142.166ZM232.299 142.351C232.299 143.423 232.519 144.267 232.958 144.882C233.397 145.491 234.013 145.796 234.804 145.796C235.829 145.796 236.582 145.33 237.062 144.398V140.057C236.564 139.148 235.817 138.694 234.821 138.694C234.03 138.694 233.412 139.002 232.967 139.617C232.521 140.232 232.299 141.144 232.299 142.351ZM245.755 138.949C245.509 138.908 245.242 138.888 244.955 138.888C243.889 138.888 243.165 139.342 242.784 140.25V147H241.158V137.49H242.74L242.767 138.589C243.3 137.739 244.056 137.314 245.034 137.314C245.351 137.314 245.591 137.355 245.755 137.438V138.949ZM251.028 147.176C249.739 147.176 248.69 146.754 247.882 145.91C247.073 145.061 246.669 143.927 246.669 142.509V142.21C246.669 141.267 246.848 140.426 247.205 139.688C247.568 138.943 248.072 138.363 248.717 137.947C249.367 137.525 250.07 137.314 250.826 137.314C252.062 137.314 253.023 137.722 253.709 138.536C254.395 139.351 254.737 140.517 254.737 142.034V142.711H248.295C248.318 143.648 248.591 144.407 249.112 144.987C249.64 145.562 250.308 145.849 251.116 145.849C251.69 145.849 252.177 145.731 252.575 145.497C252.974 145.263 253.322 144.952 253.621 144.565L254.614 145.339C253.817 146.563 252.622 147.176 251.028 147.176ZM250.826 138.65C250.17 138.65 249.619 138.891 249.174 139.371C248.729 139.846 248.453 140.514 248.348 141.375H253.111V141.252C253.064 140.426 252.842 139.787 252.443 139.336C252.045 138.879 251.506 138.65 250.826 138.65ZM256.24 142.166C256.24 140.684 256.583 139.506 257.269 138.633C257.954 137.754 258.862 137.314 259.993 137.314C261.153 137.314 262.059 137.725 262.709 138.545L262.788 137.49H264.273V146.771C264.273 148.002 263.907 148.972 263.175 149.681C262.448 150.39 261.47 150.744 260.239 150.744C259.554 150.744 258.883 150.598 258.227 150.305C257.57 150.012 257.069 149.61 256.724 149.101L257.567 148.125C258.265 148.986 259.117 149.417 260.125 149.417C260.916 149.417 261.531 149.194 261.971 148.749C262.416 148.304 262.639 147.677 262.639 146.868V146.051C261.988 146.801 261.101 147.176 259.976 147.176C258.862 147.176 257.96 146.728 257.269 145.831C256.583 144.935 256.24 143.713 256.24 142.166ZM257.875 142.351C257.875 143.423 258.095 144.267 258.534 144.882C258.974 145.491 259.589 145.796 260.38 145.796C261.405 145.796 262.158 145.33 262.639 144.398V140.057C262.141 139.148 261.394 138.694 260.397 138.694C259.606 138.694 258.988 139.002 258.543 139.617C258.098 140.232 257.875 141.144 257.875 142.351ZM272.605 147C272.512 146.812 272.436 146.479 272.377 145.998C271.621 146.783 270.719 147.176 269.67 147.176C268.732 147.176 267.962 146.912 267.358 146.385C266.761 145.852 266.462 145.178 266.462 144.363C266.462 143.373 266.837 142.605 267.587 142.061C268.343 141.51 269.403 141.234 270.769 141.234H272.351V140.487C272.351 139.919 272.181 139.468 271.841 139.134C271.501 138.794 271 138.624 270.338 138.624C269.758 138.624 269.271 138.771 268.879 139.063C268.486 139.356 268.29 139.711 268.29 140.127H266.655C266.655 139.652 266.822 139.195 267.156 138.756C267.496 138.311 267.953 137.959 268.527 137.701C269.107 137.443 269.743 137.314 270.435 137.314C271.53 137.314 272.389 137.59 273.01 138.141C273.631 138.686 273.953 139.438 273.977 140.399V144.776C273.977 145.649 274.088 146.344 274.311 146.859V147H272.605ZM269.907 145.761C270.417 145.761 270.9 145.629 271.357 145.365C271.814 145.102 272.146 144.759 272.351 144.337V142.386H271.076C269.084 142.386 268.088 142.969 268.088 144.135C268.088 144.645 268.258 145.043 268.598 145.33C268.938 145.617 269.374 145.761 269.907 145.761ZM278.731 135.188V137.49H280.507V138.747H278.731V144.645C278.731 145.025 278.811 145.312 278.969 145.506C279.127 145.693 279.396 145.787 279.777 145.787C279.965 145.787 280.223 145.752 280.551 145.682V147C280.123 147.117 279.707 147.176 279.303 147.176C278.576 147.176 278.028 146.956 277.659 146.517C277.29 146.077 277.105 145.453 277.105 144.645V138.747H275.374V137.49H277.105V135.188H278.731ZM284.181 147H282.555V137.49H284.181V147ZM282.423 134.968C282.423 134.704 282.502 134.481 282.66 134.3C282.824 134.118 283.064 134.027 283.381 134.027C283.697 134.027 283.938 134.118 284.102 134.3C284.266 134.481 284.348 134.704 284.348 134.968C284.348 135.231 284.266 135.451 284.102 135.627C283.938 135.803 283.697 135.891 283.381 135.891C283.064 135.891 282.824 135.803 282.66 135.627C282.502 135.451 282.423 135.231 282.423 134.968ZM286.36 142.157C286.36 141.226 286.542 140.388 286.905 139.644C287.274 138.899 287.784 138.325 288.435 137.921C289.091 137.517 289.838 137.314 290.676 137.314C291.971 137.314 293.017 137.763 293.813 138.659C294.616 139.556 295.018 140.748 295.018 142.236V142.351C295.018 143.276 294.839 144.108 294.481 144.847C294.13 145.579 293.623 146.15 292.961 146.561C292.305 146.971 291.549 147.176 290.693 147.176C289.404 147.176 288.358 146.728 287.556 145.831C286.759 144.935 286.36 143.748 286.36 142.271V142.157ZM287.995 142.351C287.995 143.405 288.238 144.252 288.725 144.891C289.217 145.529 289.873 145.849 290.693 145.849C291.52 145.849 292.176 145.526 292.662 144.882C293.148 144.231 293.392 143.323 293.392 142.157C293.392 141.114 293.143 140.271 292.645 139.626C292.152 138.976 291.496 138.65 290.676 138.65C289.873 138.65 289.226 138.97 288.733 139.608C288.241 140.247 287.995 141.161 287.995 142.351ZM298.595 137.49L298.647 138.686C299.374 137.771 300.323 137.314 301.495 137.314C303.505 137.314 304.519 138.448 304.536 140.716V147H302.91V140.707C302.904 140.021 302.746 139.515 302.436 139.187C302.131 138.858 301.653 138.694 301.003 138.694C300.476 138.694 300.013 138.835 299.614 139.116C299.216 139.397 298.905 139.767 298.683 140.224V147H297.057V137.49H298.595ZM312.253 147V138.747H310.75V137.49H312.253V136.515C312.253 135.495 312.525 134.707 313.07 134.15C313.615 133.594 314.386 133.315 315.382 133.315C315.757 133.315 316.129 133.365 316.498 133.465L316.41 134.783C316.135 134.73 315.842 134.704 315.531 134.704C315.004 134.704 314.597 134.859 314.31 135.17C314.022 135.475 313.879 135.914 313.879 136.488V137.49H315.909V138.747H313.879V147H312.253ZM323.582 146.06C322.949 146.804 322.021 147.176 320.796 147.176C319.782 147.176 319.009 146.883 318.476 146.297C317.948 145.705 317.682 144.832 317.676 143.678V137.49H319.302V143.634C319.302 145.075 319.888 145.796 321.06 145.796C322.302 145.796 323.128 145.333 323.538 144.407V137.49H325.164V147H323.617L323.582 146.06ZM329.181 137.49L329.233 138.686C329.96 137.771 330.909 137.314 332.081 137.314C334.091 137.314 335.104 138.448 335.122 140.716V147H333.496V140.707C333.49 140.021 333.332 139.515 333.021 139.187C332.717 138.858 332.239 138.694 331.589 138.694C331.062 138.694 330.599 138.835 330.2 139.116C329.802 139.397 329.491 139.767 329.269 140.224V147H327.643V137.49H329.181ZM341.389 145.849C341.969 145.849 342.476 145.673 342.909 145.321C343.343 144.97 343.583 144.53 343.63 144.003H345.168C345.139 144.548 344.951 145.066 344.605 145.559C344.26 146.051 343.797 146.443 343.217 146.736C342.643 147.029 342.033 147.176 341.389 147.176C340.094 147.176 339.062 146.745 338.295 145.884C337.533 145.017 337.152 143.833 337.152 142.333V142.061C337.152 141.135 337.322 140.312 337.662 139.591C338.002 138.87 338.488 138.311 339.121 137.912C339.76 137.514 340.513 137.314 341.38 137.314C342.446 137.314 343.331 137.634 344.034 138.272C344.743 138.911 345.121 139.74 345.168 140.76H343.63C343.583 140.145 343.349 139.641 342.927 139.248C342.511 138.85 341.995 138.65 341.38 138.65C340.554 138.65 339.912 138.949 339.455 139.547C339.004 140.139 338.778 140.997 338.778 142.122V142.43C338.778 143.525 339.004 144.369 339.455 144.961C339.906 145.553 340.551 145.849 341.389 145.849ZM349.202 135.188V137.49H350.978V138.747H349.202V144.645C349.202 145.025 349.281 145.312 349.439 145.506C349.598 145.693 349.867 145.787 350.248 145.787C350.436 145.787 350.693 145.752 351.021 145.682V147C350.594 147.117 350.178 147.176 349.773 147.176C349.047 147.176 348.499 146.956 348.13 146.517C347.761 146.077 347.576 145.453 347.576 144.645V138.747H345.845V137.49H347.576V135.188H349.202ZM354.651 147H353.025V137.49H354.651V147ZM352.894 134.968C352.894 134.704 352.973 134.481 353.131 134.3C353.295 134.118 353.535 134.027 353.852 134.027C354.168 134.027 354.408 134.118 354.572 134.3C354.736 134.481 354.818 134.704 354.818 134.968C354.818 135.231 354.736 135.451 354.572 135.627C354.408 135.803 354.168 135.891 353.852 135.891C353.535 135.891 353.295 135.803 353.131 135.627C352.973 135.451 352.894 135.231 352.894 134.968ZM356.831 142.157C356.831 141.226 357.013 140.388 357.376 139.644C357.745 138.899 358.255 138.325 358.905 137.921C359.562 137.517 360.309 137.314 361.146 137.314C362.441 137.314 363.487 137.763 364.284 138.659C365.087 139.556 365.488 140.748 365.488 142.236V142.351C365.488 143.276 365.31 144.108 364.952 144.847C364.601 145.579 364.094 146.15 363.432 146.561C362.775 146.971 362.02 147.176 361.164 147.176C359.875 147.176 358.829 146.728 358.026 145.831C357.229 144.935 356.831 143.748 356.831 142.271V142.157ZM358.466 142.351C358.466 143.405 358.709 144.252 359.195 144.891C359.688 145.529 360.344 145.849 361.164 145.849C361.99 145.849 362.646 145.526 363.133 144.882C363.619 144.231 363.862 143.323 363.862 142.157C363.862 141.114 363.613 140.271 363.115 139.626C362.623 138.976 361.967 138.65 361.146 138.65C360.344 138.65 359.696 138.97 359.204 139.608C358.712 140.247 358.466 141.161 358.466 142.351ZM369.065 137.49L369.118 138.686C369.845 137.771 370.794 137.314 371.966 137.314C373.976 137.314 374.989 138.448 375.007 140.716V147H373.381V140.707C373.375 140.021 373.217 139.515 372.906 139.187C372.602 138.858 372.124 138.694 371.474 138.694C370.946 138.694 370.483 138.835 370.085 139.116C369.687 139.397 369.376 139.767 369.153 140.224V147H367.527V137.49H369.065ZM377.494 146.147C377.494 145.866 377.576 145.632 377.74 145.444C377.91 145.257 378.162 145.163 378.496 145.163C378.83 145.163 379.082 145.257 379.252 145.444C379.428 145.632 379.516 145.866 379.516 146.147C379.516 146.417 379.428 146.643 379.252 146.824C379.082 147.006 378.83 147.097 378.496 147.097C378.162 147.097 377.91 147.006 377.74 146.824C377.576 146.643 377.494 146.417 377.494 146.147Z" fill="black"/>
<rect width="127" height="151" transform="translate(18 84)" fill="white"/>
<g filter="url(#filter0_d)">
<path d="M41.2322 105.469H129.256V222.118H41.2322V105.469Z" fill="white"/>
<path d="M41.59 105.827H128.898V221.761H41.59V105.827Z" stroke="black" stroke-width="0.71564"/>
</g>
<path d="M53.3981 125.507C58.9647 125.419 64.5284 125.11 70.0964 125.11C71.3245 125.11 74.5848 125.903 75.9408 125.149C77.3646 124.358 77.6697 124.076 79.4792 124.076C81.9022 124.076 84.2804 123.852 85.9597 125.905C86.5594 126.638 87.5321 130.301 88.1464 130.477C91.7508 131.507 95.0159 124.791 99.1991 124.791C103.081 124.791 106.825 124.076 110.649 124.076" stroke="black" stroke-width="0.71564" stroke-linecap="round" stroke-linejoin="round"/>
<path d="M56.9763 146.976C59.0921 145.273 61.5793 141.967 64.4905 141.967C68.4443 141.967 72.9102 144.797 75.8612 147.294C76.9179 148.188 77.8802 149.245 78.8431 150.236C78.9855 150.383 80.4626 152.322 80.5924 152.224C81.9013 151.243 82.1192 148.809 82.7393 147.414C84.4584 143.546 95.1685 146.611 97.7678 146.817C104.833 147.377 111.568 145.545 118.521 145.545" stroke="black" stroke-width="0.71564" stroke-linecap="round" stroke-linejoin="round"/>
<path d="M56.9763 192.062C61.2167 192.062 65.4585 192.032 69.6988 192.062C72.0414 192.078 77.099 191.353 78.8431 193.572C82.0359 197.636 84.7508 199.404 90.1343 198.105C95.8113 196.734 99.7759 194.924 105.64 194.924" stroke="black" stroke-width="0.71564" stroke-linecap="round" stroke-linejoin="round"/>
<path d="M61.9858 204.227C71.5817 206.459 83.9298 209.983 94.0703 207.448C97.2062 206.664 100.481 209.728 102.062 212.1" stroke="black" stroke-width="0.71564" stroke-linecap="round" stroke-linejoin="round"/>
<path d="M58.4076 169.877C60.9282 169.529 63.4164 169.161 65.9616 169.161C68.5751 169.161 70.7425 170.768 73.277 171.229C76.7778 171.865 82.7119 172.199 85.9597 170.95C88.8766 169.828 93.0776 169.474 95.7799 171.308C97.8443 172.709 99.709 174.502 102.062 175.443C102.884 175.772 104.122 174.438 104.924 174.171" stroke="black" stroke-width="0.71564" stroke-linecap="round" stroke-linejoin="round"/>
<rect width="141" height="255" transform="translate(387 32)" fill="white"/>
<path d="M406.519 203.885L457.467 213.956V258.981L406.519 247.725V203.885Z" fill="#A541F8"/>
<path d="M457.467 213.956L510.786 205.662V247.132L457.467 258.981V213.956Z" fill="#6FCF97"/>
<path d="M406.519 203.293L459.837 194.999V236.469L406.519 248.317V203.293Z" fill="#6FCF97"/>
<path d="M457.467 194.999L510.786 203.879V243.578L457.467 233.653V194.999Z" fill="#A541F8"/>
<path d="M406.519 208.032L457.467 218.103V263.128L406.519 251.872V208.032Z" fill="#6FCF97" fill-opacity="0.64"/>
<g filter="url(#filter1_dd)">
<path d="M463.89 226.139L510.712 217.847V259.307L463.89 271.153V226.139Z" fill="#A541F8"/>
</g>
<path d="M406.519 213.364L459.837 205.07V246.54L406.519 258.388V213.364Z" fill="#A541F8"/>
<path d="M408.888 160.045L459.837 170.117V215.141L408.888 203.885V160.045Z" fill="#A541F8"/>
<path d="M408.888 159.453L462.207 151.159V192.629L408.888 204.477V159.453Z" fill="#6FCF97"/>
<path d="M457.467 149.974L510.786 158.854V198.553L457.467 188.628V149.974Z" fill="#6FCF97"/>
<path d="M406.263 160.22L457.407 173.52V232.975L406.263 218.111V160.22Z" fill="#A541F8"/>
<path d="M457.407 169.955L510.725 161.661V203.131L457.407 214.98V169.955Z" fill="#A541F8"/>
<path d="M406.519 158.86L459.837 150.566V192.036L406.519 203.885V158.86Z" fill="#A541F8"/>
<path d="M406.519 113.665L459.837 104.357V150.896L406.519 164.192V113.665Z" fill="#6FCF97"/>
<path d="M416.59 117.39L467.539 127.462V172.486L416.59 161.23V117.39Z" fill="#A541F8"/>
<path d="M416.59 116.798L469.908 108.504V149.974L416.59 161.823V116.798Z" fill="#6FCF97"/>
<path d="M457.467 100.21L510.786 110.901V157.676L457.467 143.809V100.21Z" fill="#A541F8"/>
<g filter="url(#filter2_d)">
<path d="M406.263 108.356L463.89 120.602V175.347L406.263 161.661V108.356Z" fill="#0072B2"/>
</g>
<g filter="url(#filter3_d)">
<path d="M463.89 123.147L510.712 113.398V162.141L463.89 176.068V123.147Z" fill="#0072B2"/>
</g>
<path d="M406.263 112.95L469.653 103.314V151.496L406.263 165.263V112.95Z" fill="#0072B2"/>
<path d="M406.263 63.3427L459.568 55.0508V96.5104L406.263 108.356V63.3427Z" fill="#6FCF97"/>
<path d="M416.59 68.2189L467.539 78.2902V123.315L416.59 112.059V68.2189Z" fill="#A541F8"/>
<path d="M416.59 67.6265L469.908 59.3325V100.802L416.59 112.651V67.6265Z" fill="#6FCF97"/>
<path d="M457.467 51.0385L510.786 61.7298V108.504L457.467 94.637V51.0385Z" fill="#6FCF97"/>
<g filter="url(#filter4_d)">
<path d="M406.263 72.339L463.89 81.6879V123.483L406.263 113.034V72.339Z" fill="#6FCF97"/>
</g>
<g filter="url(#filter5_d)">
<path d="M462.449 73.6036L510.712 64.4153V110.357L462.449 123.483V73.6036Z" fill="#6FCF97"/>
</g>
<path d="M406.263 59.693L459.568 50.7288V95.5499L406.263 108.356V59.693Z" fill="#6FCF97"/>
<g filter="url(#filter6_d)">
<path d="M463.89 215.953V271.153L406.263 260.327V203.441L463.89 215.953Z" fill="#A541F8"/>
</g>
<g filter="url(#filter7_d)">
<path d="M455.966 51.4491L506.39 60.8135L461.729 72.339L409.144 60.8135L455.966 51.4491Z" fill="#6FCF97"/>
</g>
<path d="M381.354 171.354C381.549 171.158 381.549 170.842 381.354 170.646L378.172 167.464C377.976 167.269 377.66 167.269 377.464 167.464C377.269 167.66 377.269 167.976 377.464 168.172L380.293 171L377.464 173.828C377.269 174.024 377.269 174.34 377.464 174.536C377.66 174.731 377.976 174.731 378.172 174.536L381.354 171.354ZM152 171.5H381V170.5H152V171.5Z" fill="black"/>
<defs>
<filter id="filter0_d" x="38.3697" y="105.469" width="93.7488" height="122.374" filterUnits="userSpaceOnUse" color-interpolation-filters="sRGB">
<feFlood flood-opacity="0" result="BackgroundImageFix"/>
<feColorMatrix in="SourceAlpha" type="matrix" values="0 0 0 0 0 0 0 0 0 0 0 0 0 0 0 0 0 0 127 0"/>
<feOffset dy="2.86256"/>
<feGaussianBlur stdDeviation="1.43128"/>
<feColorMatrix type="matrix" values="0 0 0 0 0 0 0 0 0 0 0 0 0 0 0 0 0 0 0.25 0"/>
<feBlend mode="normal" in2="BackgroundImageFix" result="effect1_dropShadow"/>
<feBlend mode="normal" in="SourceGraphic" in2="effect1_dropShadow" result="shape"/>
</filter>
<filter id="filter1_dd" x="461.008" y="217.847" width="52.5847" height="59.0678" filterUnits="userSpaceOnUse" color-interpolation-filters="sRGB">
<feFlood flood-opacity="0" result="BackgroundImageFix"/>
<feColorMatrix in="SourceAlpha" type="matrix" values="0 0 0 0 0 0 0 0 0 0 0 0 0 0 0 0 0 0 127 0"/>
<feOffset dy="2.36971"/>
<feGaussianBlur stdDeviation="1.18486"/>
<feColorMatrix type="matrix" values="0 0 0 0 0 0 0 0 0 0 0 0 0 0 0 0 0 0 0.25 0"/>
<feBlend mode="normal" in2="BackgroundImageFix" result="effect1_dropShadow"/>
<feColorMatrix in="SourceAlpha" type="matrix" values="0 0 0 0 0 0 0 0 0 0 0 0 0 0 0 0 0 0 127 0"/>
<feOffset dy="2.88136"/>
<feGaussianBlur stdDeviation="1.44068"/>
<feColorMatrix type="matrix" values="0 0 0 0 0 0 0 0 0 0 0 0 0 0 0 0 0 0 0.25 0"/>
<feBlend mode="normal" in2="effect1_dropShadow" result="effect2_dropShadow"/>
<feBlend mode="normal" in="SourceGraphic" in2="effect2_dropShadow" result="shape"/>
</filter>
<filter id="filter2_d" x="403.893" y="108.356" width="62.3665" height="71.731" filterUnits="userSpaceOnUse" color-interpolation-filters="sRGB">
<feFlood flood-opacity="0" result="BackgroundImageFix"/>
<feColorMatrix in="SourceAlpha" type="matrix" values="0 0 0 0 0 0 0 0 0 0 0 0 0 0 0 0 0 0 127 0"/>
<feOffset dy="2.36971"/>
<feGaussianBlur stdDeviation="1.18486"/>
<feColorMatrix type="matrix" values="0 0 0 0 0 0 0 0 0 0 0 0 0 0 0 0 0 0 0.25 0"/>
<feBlend mode="normal" in2="BackgroundImageFix" result="effect1_dropShadow"/>
<feBlend mode="normal" in="SourceGraphic" in2="effect1_dropShadow" result="shape"/>
</filter>
<filter id="filter3_d" x="461.52" y="113.398" width="51.5615" height="67.4089" filterUnits="userSpaceOnUse" color-interpolation-filters="sRGB">
<feFlood flood-opacity="0" result="BackgroundImageFix"/>
<feColorMatrix in="SourceAlpha" type="matrix" values="0 0 0 0 0 0 0 0 0 0 0 0 0 0 0 0 0 0 127 0"/>
<feOffset dy="2.36971"/>
<feGaussianBlur stdDeviation="1.18486"/>
<feColorMatrix type="matrix" values="0 0 0 0 0 0 0 0 0 0 0 0 0 0 0 0 0 0 0.25 0"/>
<feBlend mode="normal" in2="BackgroundImageFix" result="effect1_dropShadow"/>
<feBlend mode="normal" in="SourceGraphic" in2="effect1_dropShadow" result="shape"/>
</filter>
<filter id="filter4_d" x="403.381" y="72.339" width="63.3898" height="56.9068" filterUnits="userSpaceOnUse" color-interpolation-filters="sRGB">
<feFlood flood-opacity="0" result="BackgroundImageFix"/>
<feColorMatrix in="SourceAlpha" type="matrix" values="0 0 0 0 0 0 0 0 0 0 0 0 0 0 0 0 0 0 127 0"/>
<feOffset dy="2.88136"/>
<feGaussianBlur stdDeviation="1.44068"/>
<feColorMatrix type="matrix" values="0 0 0 0 0 0 0 0 0 0 0 0 0 0 0 0 0 0 0.25 0"/>
<feBlend mode="normal" in2="BackgroundImageFix" result="effect1_dropShadow"/>
<feBlend mode="normal" in="SourceGraphic" in2="effect1_dropShadow" result="shape"/>
</filter>
<filter id="filter5_d" x="459.568" y="64.4153" width="54.0254" height="64.8305" filterUnits="userSpaceOnUse" color-interpolation-filters="sRGB">
<feFlood flood-opacity="0" result="BackgroundImageFix"/>
<feColorMatrix in="SourceAlpha" type="matrix" values="0 0 0 0 0 0 0 0 0 0 0 0 0 0 0 0 0 0 127 0"/>
<feOffset dy="2.88136"/>
<feGaussianBlur stdDeviation="1.44068"/>
<feColorMatrix type="matrix" values="0 0 0 0 0 0 0 0 0 0 0 0 0 0 0 0 0 0 0.25 0"/>
<feBlend mode="normal" in2="BackgroundImageFix" result="effect1_dropShadow"/>
<feBlend mode="normal" in="SourceGraphic" in2="effect1_dropShadow" result="shape"/>
</filter>
<filter id="filter6_d" x="403.381" y="203.441" width="63.3898" height="73.4746" filterUnits="userSpaceOnUse" color-interpolation-filters="sRGB">
<feFlood flood-opacity="0" result="BackgroundImageFix"/>
<feColorMatrix in="SourceAlpha" type="matrix" values="0 0 0 0 0 0 0 0 0 0 0 0 0 0 0 0 0 0 127 0"/>
<feOffset dy="2.88136"/>
<feGaussianBlur stdDeviation="1.44068"/>
<feColorMatrix type="matrix" values="0 0 0 0 0 0 0 0 0 0 0 0 0 0 0 0 0 0 0.25 0"/>
<feBlend mode="normal" in2="BackgroundImageFix" result="effect1_dropShadow"/>
<feBlend mode="normal" in="SourceGraphic" in2="effect1_dropShadow" result="shape"/>
</filter>
<filter id="filter7_d" x="406.263" y="51.4491" width="103.008" height="26.6525" filterUnits="userSpaceOnUse" color-interpolation-filters="sRGB">
<feFlood flood-opacity="0" result="BackgroundImageFix"/>
<feColorMatrix in="SourceAlpha" type="matrix" values="0 0 0 0 0 0 0 0 0 0 0 0 0 0 0 0 0 0 127 0"/>
<feOffset dy="2.88136"/>
<feGaussianBlur stdDeviation="1.44068"/>
<feColorMatrix type="matrix" values="0 0 0 0 0 0 0 0 0 0 0 0 0 0 0 0 0 0 0.25 0"/>
<feBlend mode="normal" in2="BackgroundImageFix" result="effect1_dropShadow"/>
<feBlend mode="normal" in="SourceGraphic" in2="effect1_dropShadow" result="shape"/>
</filter>
</defs>
</svg>
