<svg width="228" height="320" viewBox="0 0 228 320" fill="none" xmlns="http://www.w3.org/2000/svg">
<rect width="228" height="320" fill="white"/>
<rect x="47.5" y="77.5" width="33" height="31" fill="#C4C4C4" stroke="black"/>
<rect x="81.5" y="77.5" width="96" height="31" fill="#C4C4C4" stroke="black"/>
<path d="M115.266 94.293C115.16 95.1953 114.826 95.8926 114.264 96.3848C113.705 96.873 112.961 97.1172 112.031 97.1172C111.023 97.1172 110.215 96.7559 109.605 96.0332C109 95.3105 108.697 94.3438 108.697 93.1328V92.3125C108.697 91.5195 108.838 90.8223 109.119 90.2207C109.404 89.6191 109.807 89.1582 110.326 88.8379C110.846 88.5137 111.447 88.3516 112.131 88.3516C113.037 88.3516 113.764 88.6055 114.311 89.1133C114.857 89.6172 115.176 90.3164 115.266 91.2109H114.135C114.037 90.5312 113.824 90.0391 113.496 89.7344C113.172 89.4297 112.717 89.2773 112.131 89.2773C111.412 89.2773 110.848 89.543 110.438 90.0742C110.031 90.6055 109.828 91.3613 109.828 92.3418V93.168C109.828 94.0938 110.021 94.8301 110.408 95.377C110.795 95.9238 111.336 96.1973 112.031 96.1973C112.656 96.1973 113.135 96.0566 113.467 95.7754C113.803 95.4902 114.025 94.9961 114.135 94.293H115.266ZM116.35 93.7715C116.35 93.1504 116.471 92.5918 116.713 92.0957C116.959 91.5996 117.299 91.2168 117.732 90.9473C118.17 90.6777 118.668 90.543 119.227 90.543C120.09 90.543 120.787 90.8418 121.318 91.4395C121.854 92.0371 122.121 92.832 122.121 93.8242V93.9004C122.121 94.5176 122.002 95.0723 121.764 95.5645C121.529 96.0527 121.191 96.4336 120.75 96.707C120.312 96.9805 119.809 97.1172 119.238 97.1172C118.379 97.1172 117.682 96.8184 117.146 96.2207C116.615 95.623 116.35 94.832 116.35 93.8477V93.7715ZM117.439 93.9004C117.439 94.6035 117.602 95.168 117.926 95.5938C118.254 96.0195 118.691 96.2324 119.238 96.2324C119.789 96.2324 120.227 96.0176 120.551 95.5879C120.875 95.1543 121.037 94.5488 121.037 93.7715C121.037 93.0762 120.871 92.5137 120.539 92.084C120.211 91.6504 119.773 91.4336 119.227 91.4336C118.691 91.4336 118.26 91.6465 117.932 92.0723C117.604 92.498 117.439 93.1074 117.439 93.9004ZM127.395 96.373C126.973 96.8691 126.354 97.1172 125.537 97.1172C124.861 97.1172 124.346 96.9219 123.99 96.5312C123.639 96.1367 123.461 95.5547 123.457 94.7852V90.6602H124.541V94.7559C124.541 95.7168 124.932 96.1973 125.713 96.1973C126.541 96.1973 127.092 95.8887 127.365 95.2715V90.6602H128.449V97H127.418L127.395 96.373ZM131.127 90.6602L131.162 91.457C131.646 90.8477 132.279 90.543 133.061 90.543C134.4 90.543 135.076 91.2988 135.088 92.8105V97H134.004V92.8047C134 92.3477 133.895 92.0098 133.688 91.791C133.484 91.5723 133.166 91.4629 132.732 91.4629C132.381 91.4629 132.072 91.5566 131.807 91.7441C131.541 91.9316 131.334 92.1777 131.186 92.4824V97H130.102V90.6602H131.127ZM138.193 89.125V90.6602H139.377V91.498H138.193V95.4297C138.193 95.6836 138.246 95.875 138.352 96.0039C138.457 96.1289 138.637 96.1914 138.891 96.1914C139.016 96.1914 139.188 96.168 139.406 96.1211V97C139.121 97.0781 138.844 97.1172 138.574 97.1172C138.09 97.1172 137.725 96.9707 137.479 96.6777C137.232 96.3848 137.109 95.9688 137.109 95.4297V91.498H135.955V90.6602H137.109V89.125H138.193ZM143.713 91.6328C143.549 91.6055 143.371 91.5918 143.18 91.5918C142.469 91.5918 141.986 91.8945 141.732 92.5V97H140.648V90.6602H141.703L141.721 91.3926C142.076 90.8262 142.58 90.543 143.232 90.543C143.443 90.543 143.604 90.5703 143.713 90.625V91.6328ZM146.895 95.4121L148.371 90.6602H149.531L146.982 97.9785C146.588 99.0332 145.961 99.5605 145.102 99.5605L144.896 99.543L144.492 99.4668V98.5879L144.785 98.6113C145.152 98.6113 145.438 98.5371 145.641 98.3887C145.848 98.2402 146.018 97.9688 146.15 97.5742L146.391 96.9297L144.129 90.6602H145.312L146.895 95.4121Z" fill="black"/>
<rect x="81.5" y="109.5" width="96" height="41" fill="#F0E442" stroke="black"/>
<rect x="81.5" y="151.5" width="96" height="41" fill="#F0E442" stroke="black"/>
<rect x="81.5" y="193.5" width="96" height="41" fill="#F0E442" stroke="black"/>
<path d="M101.504 130.197C100.539 129.92 99.8359 129.58 99.3945 129.178C98.957 128.771 98.7383 128.271 98.7383 127.678C98.7383 127.006 99.0059 126.451 99.541 126.014C100.08 125.572 100.779 125.352 101.639 125.352C102.225 125.352 102.746 125.465 103.203 125.691C103.664 125.918 104.02 126.23 104.27 126.629C104.523 127.027 104.65 127.463 104.65 127.936H103.52C103.52 127.42 103.355 127.016 103.027 126.723C102.699 126.426 102.236 126.277 101.639 126.277C101.084 126.277 100.65 126.4 100.338 126.646C100.029 126.889 99.875 127.227 99.875 127.66C99.875 128.008 100.021 128.303 100.314 128.545C100.611 128.783 101.113 129.002 101.82 129.201C102.531 129.4 103.086 129.621 103.484 129.863C103.887 130.102 104.184 130.381 104.375 130.701C104.57 131.021 104.668 131.398 104.668 131.832C104.668 132.523 104.398 133.078 103.859 133.496C103.32 133.91 102.6 134.117 101.697 134.117C101.111 134.117 100.564 134.006 100.057 133.783C99.5488 133.557 99.1562 133.248 98.8789 132.857C98.6055 132.467 98.4688 132.023 98.4688 131.527H99.5996C99.5996 132.043 99.7891 132.451 100.168 132.752C100.551 133.049 101.061 133.197 101.697 133.197C102.291 133.197 102.746 133.076 103.062 132.834C103.379 132.592 103.537 132.262 103.537 131.844C103.537 131.426 103.391 131.104 103.098 130.877C102.805 130.646 102.273 130.42 101.504 130.197ZM111.559 132.506L112.777 127.66H113.861L112.016 134H111.137L109.596 129.195L108.096 134H107.217L105.377 127.66H106.455L107.703 132.406L109.18 127.66H110.053L111.559 132.506ZM116.146 134H115.062V127.66H116.146V134ZM114.975 125.979C114.975 125.803 115.027 125.654 115.133 125.533C115.242 125.412 115.402 125.352 115.613 125.352C115.824 125.352 115.984 125.412 116.094 125.533C116.203 125.654 116.258 125.803 116.258 125.979C116.258 126.154 116.203 126.301 116.094 126.418C115.984 126.535 115.824 126.594 115.613 126.594C115.402 126.594 115.242 126.535 115.133 126.418C115.027 126.301 114.975 126.154 114.975 125.979ZM119.357 126.125V127.66H120.541V128.498H119.357V132.43C119.357 132.684 119.41 132.875 119.516 133.004C119.621 133.129 119.801 133.191 120.055 133.191C120.18 133.191 120.352 133.168 120.57 133.121V134C120.285 134.078 120.008 134.117 119.738 134.117C119.254 134.117 118.889 133.971 118.643 133.678C118.396 133.385 118.273 132.969 118.273 132.43V128.498H117.119V127.66H118.273V126.125H119.357ZM122.832 133.115H126.541V134H121.508V133.203L125.006 128.557H121.561V127.66H126.365V128.428L122.832 133.115ZM130.303 134.117C129.443 134.117 128.744 133.836 128.205 133.273C127.666 132.707 127.396 131.951 127.396 131.006V130.807C127.396 130.178 127.516 129.617 127.754 129.125C127.996 128.629 128.332 128.242 128.762 127.965C129.195 127.684 129.664 127.543 130.168 127.543C130.992 127.543 131.633 127.814 132.09 128.357C132.547 128.9 132.775 129.678 132.775 130.689V131.141H128.48C128.496 131.766 128.678 132.271 129.025 132.658C129.377 133.041 129.822 133.232 130.361 133.232C130.744 133.232 131.068 133.154 131.334 132.998C131.6 132.842 131.832 132.635 132.031 132.377L132.693 132.893C132.162 133.709 131.365 134.117 130.303 134.117ZM130.168 128.434C129.73 128.434 129.363 128.594 129.066 128.914C128.77 129.23 128.586 129.676 128.516 130.25H131.691V130.168C131.66 129.617 131.512 129.191 131.246 128.891C130.98 128.586 130.621 128.434 130.168 128.434ZM137.1 128.633C136.936 128.605 136.758 128.592 136.566 128.592C135.855 128.592 135.373 128.895 135.119 129.5V134H134.035V127.66H135.09L135.107 128.393C135.463 127.826 135.967 127.543 136.619 127.543C136.83 127.543 136.99 127.57 137.1 127.625V128.633ZM139.279 134H138.195V125H139.279V134ZM144.934 134C144.871 133.875 144.82 133.652 144.781 133.332C144.277 133.855 143.676 134.117 142.977 134.117C142.352 134.117 141.838 133.941 141.436 133.59C141.037 133.234 140.838 132.785 140.838 132.242C140.838 131.582 141.088 131.07 141.588 130.707C142.092 130.34 142.799 130.156 143.709 130.156H144.764V129.658C144.764 129.279 144.65 128.979 144.424 128.756C144.197 128.529 143.863 128.416 143.422 128.416C143.035 128.416 142.711 128.514 142.449 128.709C142.188 128.904 142.057 129.141 142.057 129.418H140.967C140.967 129.102 141.078 128.797 141.301 128.504C141.527 128.207 141.832 127.973 142.215 127.801C142.602 127.629 143.025 127.543 143.486 127.543C144.217 127.543 144.789 127.727 145.203 128.094C145.617 128.457 145.832 128.959 145.848 129.6V132.518C145.848 133.1 145.922 133.562 146.07 133.906V134H144.934ZM143.135 133.174C143.475 133.174 143.797 133.086 144.102 132.91C144.406 132.734 144.627 132.506 144.764 132.225V130.924H143.914C142.586 130.924 141.922 131.312 141.922 132.09C141.922 132.43 142.035 132.695 142.262 132.887C142.488 133.078 142.779 133.174 143.135 133.174ZM148.572 127.66L148.607 128.457C149.092 127.848 149.725 127.543 150.506 127.543C151.846 127.543 152.521 128.299 152.533 129.811V134H151.449V129.805C151.445 129.348 151.34 129.01 151.133 128.791C150.93 128.572 150.611 128.463 150.178 128.463C149.826 128.463 149.518 128.557 149.252 128.744C148.986 128.932 148.779 129.178 148.631 129.482V134H147.547V127.66H148.572ZM153.904 130.777C153.904 129.805 154.135 129.023 154.596 128.434C155.057 127.84 155.66 127.543 156.406 127.543C157.148 127.543 157.736 127.797 158.17 128.305V125H159.254V134H158.258L158.205 133.32C157.771 133.852 157.168 134.117 156.395 134.117C155.66 134.117 155.061 133.816 154.596 133.215C154.135 132.613 153.904 131.828 153.904 130.859V130.777ZM154.988 130.9C154.988 131.619 155.137 132.182 155.434 132.588C155.73 132.994 156.141 133.197 156.664 133.197C157.352 133.197 157.854 132.889 158.17 132.271V129.359C157.846 128.762 157.348 128.463 156.676 128.463C156.145 128.463 155.73 128.668 155.434 129.078C155.137 129.488 154.988 130.096 154.988 130.9Z" fill="black"/>
<path d="M113.197 176H112.072V167.469H113.197V176ZM117.633 175.232C118.02 175.232 118.357 175.115 118.646 174.881C118.936 174.646 119.096 174.354 119.127 174.002H120.152C120.133 174.365 120.008 174.711 119.777 175.039C119.547 175.367 119.238 175.629 118.852 175.824C118.469 176.02 118.062 176.117 117.633 176.117C116.77 176.117 116.082 175.83 115.57 175.256C115.062 174.678 114.809 173.889 114.809 172.889V172.707C114.809 172.09 114.922 171.541 115.148 171.061C115.375 170.58 115.699 170.207 116.121 169.941C116.547 169.676 117.049 169.543 117.627 169.543C118.338 169.543 118.928 169.756 119.396 170.182C119.869 170.607 120.121 171.16 120.152 171.84H119.127C119.096 171.43 118.939 171.094 118.658 170.832C118.381 170.566 118.037 170.434 117.627 170.434C117.076 170.434 116.648 170.633 116.344 171.031C116.043 171.426 115.893 171.998 115.893 172.748V172.953C115.893 173.684 116.043 174.246 116.344 174.641C116.645 175.035 117.074 175.232 117.633 175.232ZM124.002 176.117C123.143 176.117 122.443 175.836 121.904 175.273C121.365 174.707 121.096 173.951 121.096 173.006V172.807C121.096 172.178 121.215 171.617 121.453 171.125C121.695 170.629 122.031 170.242 122.461 169.965C122.895 169.684 123.363 169.543 123.867 169.543C124.691 169.543 125.332 169.814 125.789 170.357C126.246 170.9 126.475 171.678 126.475 172.689V173.141H122.18C122.195 173.766 122.377 174.271 122.725 174.658C123.076 175.041 123.521 175.232 124.061 175.232C124.443 175.232 124.768 175.154 125.033 174.998C125.299 174.842 125.531 174.635 125.73 174.377L126.393 174.893C125.861 175.709 125.064 176.117 124.002 176.117ZM123.867 170.434C123.43 170.434 123.062 170.594 122.766 170.914C122.469 171.23 122.285 171.676 122.215 172.25H125.391V172.168C125.359 171.617 125.211 171.191 124.945 170.891C124.68 170.586 124.32 170.434 123.867 170.434ZM128.912 176H127.828V167H128.912V176ZM134.566 176C134.504 175.875 134.453 175.652 134.414 175.332C133.91 175.855 133.309 176.117 132.609 176.117C131.984 176.117 131.471 175.941 131.068 175.59C130.67 175.234 130.471 174.785 130.471 174.242C130.471 173.582 130.721 173.07 131.221 172.707C131.725 172.34 132.432 172.156 133.342 172.156H134.396V171.658C134.396 171.279 134.283 170.979 134.057 170.756C133.83 170.529 133.496 170.416 133.055 170.416C132.668 170.416 132.344 170.514 132.082 170.709C131.82 170.904 131.689 171.141 131.689 171.418H130.6C130.6 171.102 130.711 170.797 130.934 170.504C131.16 170.207 131.465 169.973 131.848 169.801C132.234 169.629 132.658 169.543 133.119 169.543C133.85 169.543 134.422 169.727 134.836 170.094C135.25 170.457 135.465 170.959 135.48 171.6V174.518C135.48 175.1 135.555 175.562 135.703 175.906V176H134.566ZM132.768 175.174C133.107 175.174 133.43 175.086 133.734 174.91C134.039 174.734 134.26 174.506 134.396 174.225V172.924H133.547C132.219 172.924 131.555 173.312 131.555 174.09C131.555 174.43 131.668 174.695 131.895 174.887C132.121 175.078 132.412 175.174 132.768 175.174ZM138.205 169.66L138.24 170.457C138.725 169.848 139.357 169.543 140.139 169.543C141.479 169.543 142.154 170.299 142.166 171.811V176H141.082V171.805C141.078 171.348 140.973 171.01 140.766 170.791C140.562 170.572 140.244 170.463 139.811 170.463C139.459 170.463 139.15 170.557 138.885 170.744C138.619 170.932 138.412 171.178 138.264 171.482V176H137.18V169.66H138.205ZM143.537 172.777C143.537 171.805 143.768 171.023 144.229 170.434C144.689 169.84 145.293 169.543 146.039 169.543C146.781 169.543 147.369 169.797 147.803 170.305V167H148.887V176H147.891L147.838 175.32C147.404 175.852 146.801 176.117 146.027 176.117C145.293 176.117 144.693 175.816 144.229 175.215C143.768 174.613 143.537 173.828 143.537 172.859V172.777ZM144.621 172.9C144.621 173.619 144.77 174.182 145.066 174.588C145.363 174.994 145.773 175.197 146.297 175.197C146.984 175.197 147.486 174.889 147.803 174.271V171.359C147.479 170.762 146.98 170.463 146.309 170.463C145.777 170.463 145.363 170.668 145.066 171.078C144.77 171.488 144.621 172.096 144.621 172.9Z" fill="black"/>
<path d="M105.99 218V209.469H108.398C109.141 209.469 109.797 209.633 110.367 209.961C110.938 210.289 111.377 210.756 111.686 211.361C111.998 211.967 112.156 212.662 112.16 213.447V213.992C112.16 214.797 112.004 215.502 111.691 216.107C111.383 216.713 110.939 217.178 110.361 217.502C109.787 217.826 109.117 217.992 108.352 218H105.99ZM107.115 210.395V217.08H108.299C109.166 217.08 109.84 216.811 110.32 216.271C110.805 215.732 111.047 214.965 111.047 213.969V213.471C111.047 212.502 110.818 211.75 110.361 211.215C109.908 210.676 109.264 210.402 108.428 210.395H107.115ZM116.326 218.117C115.467 218.117 114.768 217.836 114.229 217.273C113.689 216.707 113.42 215.951 113.42 215.006V214.807C113.42 214.178 113.539 213.617 113.777 213.125C114.02 212.629 114.355 212.242 114.785 211.965C115.219 211.684 115.688 211.543 116.191 211.543C117.016 211.543 117.656 211.814 118.113 212.357C118.57 212.9 118.799 213.678 118.799 214.689V215.141H114.504C114.52 215.766 114.701 216.271 115.049 216.658C115.4 217.041 115.846 217.232 116.385 217.232C116.768 217.232 117.092 217.154 117.357 216.998C117.623 216.842 117.855 216.635 118.055 216.377L118.717 216.893C118.186 217.709 117.389 218.117 116.326 218.117ZM116.191 212.434C115.754 212.434 115.387 212.594 115.09 212.914C114.793 213.23 114.609 213.676 114.539 214.25H117.715V214.168C117.684 213.617 117.535 213.191 117.27 212.891C117.004 212.586 116.645 212.434 116.191 212.434ZM121.084 211.66L121.119 212.457C121.604 211.848 122.236 211.543 123.018 211.543C124.357 211.543 125.033 212.299 125.045 213.811V218H123.961V213.805C123.957 213.348 123.852 213.01 123.645 212.791C123.441 212.572 123.123 212.463 122.689 212.463C122.338 212.463 122.029 212.557 121.764 212.744C121.498 212.932 121.291 213.178 121.143 213.482V218H120.059V211.66H121.084ZM127.699 211.66L127.729 212.363C128.193 211.816 128.82 211.543 129.609 211.543C130.496 211.543 131.1 211.883 131.42 212.562C131.631 212.258 131.904 212.012 132.24 211.824C132.58 211.637 132.98 211.543 133.441 211.543C134.832 211.543 135.539 212.279 135.562 213.752V218H134.479V213.816C134.479 213.363 134.375 213.025 134.168 212.803C133.961 212.576 133.613 212.463 133.125 212.463C132.723 212.463 132.389 212.584 132.123 212.826C131.857 213.064 131.703 213.387 131.66 213.793V218H130.57V213.846C130.57 212.924 130.119 212.463 129.217 212.463C128.506 212.463 128.02 212.766 127.758 213.371V218H126.674V211.66H127.699ZM141.117 218C141.055 217.875 141.004 217.652 140.965 217.332C140.461 217.855 139.859 218.117 139.16 218.117C138.535 218.117 138.021 217.941 137.619 217.59C137.221 217.234 137.021 216.785 137.021 216.242C137.021 215.582 137.271 215.07 137.771 214.707C138.275 214.34 138.982 214.156 139.893 214.156H140.947V213.658C140.947 213.279 140.834 212.979 140.607 212.756C140.381 212.529 140.047 212.416 139.605 212.416C139.219 212.416 138.895 212.514 138.633 212.709C138.371 212.904 138.24 213.141 138.24 213.418H137.15C137.15 213.102 137.262 212.797 137.484 212.504C137.711 212.207 138.016 211.973 138.398 211.801C138.785 211.629 139.209 211.543 139.67 211.543C140.4 211.543 140.973 211.727 141.387 212.094C141.801 212.457 142.016 212.959 142.031 213.6V216.518C142.031 217.1 142.105 217.562 142.254 217.906V218H141.117ZM139.318 217.174C139.658 217.174 139.98 217.086 140.285 216.91C140.59 216.734 140.811 216.506 140.947 216.225V214.924H140.098C138.77 214.924 138.105 215.312 138.105 216.09C138.105 216.43 138.219 216.695 138.445 216.887C138.672 217.078 138.963 217.174 139.318 217.174ZM146.795 212.633C146.631 212.605 146.453 212.592 146.262 212.592C145.551 212.592 145.068 212.895 144.814 213.5V218H143.73V211.66H144.785L144.803 212.393C145.158 211.826 145.662 211.543 146.314 211.543C146.525 211.543 146.686 211.57 146.795 211.625V212.633ZM149.566 215.064L148.887 215.773V218H147.803V209H148.887V214.443L149.467 213.746L151.441 211.66H152.76L150.293 214.309L153.047 218H151.775L149.566 215.064Z" fill="black"/>
<rect x="47.5" y="109.5" width="33" height="41" fill="#F4EFA9" stroke="black"/>
<rect x="47.5" y="151.5" width="33" height="41" fill="#F4EFA9" stroke="black"/>
<rect x="47.5" y="193.5" width="33" height="41" fill="#F4EFA9" stroke="black"/>
<path d="M67.0586 130.361C67.0586 131.631 66.8418 132.574 66.4082 133.191C65.9746 133.809 65.2969 134.117 64.375 134.117C63.4648 134.117 62.791 133.816 62.3535 133.215C61.916 132.609 61.6895 131.707 61.6738 130.508V129.061C61.6738 127.807 61.8906 126.875 62.3242 126.266C62.7578 125.656 63.4375 125.352 64.3633 125.352C65.2812 125.352 65.957 125.646 66.3906 126.236C66.8242 126.822 67.0469 127.729 67.0586 128.955V130.361ZM65.9746 128.879C65.9746 127.961 65.8457 127.293 65.5879 126.875C65.3301 126.453 64.9219 126.242 64.3633 126.242C63.8086 126.242 63.4043 126.451 63.1504 126.869C62.8965 127.287 62.7656 127.93 62.7578 128.797V130.531C62.7578 131.453 62.8906 132.135 63.1562 132.576C63.4258 133.014 63.832 133.232 64.375 133.232C64.9102 133.232 65.3066 133.025 65.5645 132.611C65.8262 132.197 65.9629 131.545 65.9746 130.654V128.879Z" fill="black"/>
<path d="M65.2715 176H64.1816V168.775L61.9961 169.578V168.594L65.1016 167.428H65.2715V176Z" fill="black"/>
<path d="M67.2988 218H61.709V217.221L64.6621 213.939C65.0996 213.443 65.4004 213.041 65.5645 212.732C65.7324 212.42 65.8164 212.098 65.8164 211.766C65.8164 211.32 65.6816 210.955 65.4121 210.67C65.1426 210.385 64.7832 210.242 64.334 210.242C63.7949 210.242 63.375 210.396 63.0742 210.705C62.7773 211.01 62.6289 211.436 62.6289 211.982H61.5449C61.5449 211.197 61.7969 210.562 62.3008 210.078C62.8086 209.594 63.4863 209.352 64.334 209.352C65.127 209.352 65.7539 209.561 66.2148 209.979C66.6758 210.393 66.9062 210.945 66.9062 211.637C66.9062 212.477 66.3711 213.477 65.3008 214.637L63.0156 217.115H67.2988V218Z" fill="black"/>
<path d="M39.9463 31H37.3096V18.2031H39.9463V31ZM44.5693 21.4902L44.6484 22.5889C45.3281 21.7393 46.2393 21.3145 47.3818 21.3145C48.3896 21.3145 49.1396 21.6104 49.6318 22.2021C50.124 22.7939 50.376 23.6787 50.3877 24.8564V31H47.8477V24.918C47.8477 24.3789 47.7305 23.9893 47.4961 23.749C47.2617 23.5029 46.8721 23.3799 46.3271 23.3799C45.6123 23.3799 45.0762 23.6846 44.7188 24.2939V31H42.1787V21.4902H44.5693ZM51.9258 26.1748C51.9258 24.6924 52.2568 23.5117 52.9189 22.6328C53.5869 21.7539 54.498 21.3145 55.6523 21.3145C56.5781 21.3145 57.3428 21.6602 57.9463 22.3516V17.5H60.4951V31H58.2012L58.0781 29.9893C57.4453 30.7803 56.6309 31.1758 55.6348 31.1758C54.5156 31.1758 53.6162 30.7363 52.9365 29.8574C52.2627 28.9727 51.9258 27.7451 51.9258 26.1748ZM54.4658 26.3594C54.4658 27.25 54.6211 27.9326 54.9316 28.4072C55.2422 28.8818 55.6934 29.1191 56.2852 29.1191C57.0703 29.1191 57.624 28.7881 57.9463 28.126V24.373C57.6299 23.7109 57.082 23.3799 56.3027 23.3799C55.0781 23.3799 54.4658 24.373 54.4658 26.3594ZM66.8408 31.1758C65.4463 31.1758 64.3096 30.748 63.4307 29.8926C62.5576 29.0371 62.1211 27.8975 62.1211 26.4736V26.2275C62.1211 25.2725 62.3057 24.4199 62.6748 23.6699C63.0439 22.9141 63.5654 22.334 64.2393 21.9297C64.9189 21.5195 65.6924 21.3145 66.5596 21.3145C67.8604 21.3145 68.8828 21.7246 69.627 22.5449C70.377 23.3652 70.752 24.5283 70.752 26.0342V27.0713H64.6963C64.7783 27.6924 65.0244 28.1904 65.4346 28.5654C65.8506 28.9404 66.375 29.1279 67.0078 29.1279C67.9863 29.1279 68.751 28.7734 69.3018 28.0645L70.5498 29.4619C70.1689 30.001 69.6533 30.4229 69.0029 30.7275C68.3525 31.0264 67.6318 31.1758 66.8408 31.1758ZM66.5508 23.3711C66.0469 23.3711 65.6367 23.541 65.3203 23.8809C65.0098 24.2207 64.8105 24.707 64.7227 25.3398H68.2559V25.1377C68.2441 24.5752 68.0918 24.1416 67.7988 23.8369C67.5059 23.5264 67.0898 23.3711 66.5508 23.3711ZM75.8232 24.3291L77.4229 21.4902H80.1387L77.4316 26.1484L80.2529 31H77.5283L75.832 28.0117L74.1445 31H71.4111L74.2324 26.1484L71.5342 21.4902H74.2588L75.8232 24.3291Z" fill="black"/>
<path d="M60.6464 67.3536C60.8417 67.5488 61.1583 67.5488 61.3536 67.3536L64.5355 64.1716C64.7308 63.9763 64.7308 63.6597 64.5355 63.4645C64.3403 63.2692 64.0237 63.2692 63.8284 63.4645L61 66.2929L58.1716 63.4645C57.9763 63.2692 57.6597 63.2692 57.4645 63.4645C57.2692 63.6597 57.2692 63.9763 57.4645 64.1716L60.6464 67.3536ZM60.5 38V67H61.5V38H60.5Z" fill="black"/>
<path d="M39.9463 298H37.3096V285.203H39.9463V298ZM44.5693 288.49L44.6484 289.589C45.3281 288.739 46.2393 288.314 47.3818 288.314C48.3896 288.314 49.1396 288.61 49.6318 289.202C50.124 289.794 50.376 290.679 50.3877 291.856V298H47.8477V291.918C47.8477 291.379 47.7305 290.989 47.4961 290.749C47.2617 290.503 46.8721 290.38 46.3271 290.38C45.6123 290.38 45.0762 290.685 44.7188 291.294V298H42.1787V288.49H44.5693ZM51.9258 293.175C51.9258 291.692 52.2568 290.512 52.9189 289.633C53.5869 288.754 54.498 288.314 55.6523 288.314C56.5781 288.314 57.3428 288.66 57.9463 289.352V284.5H60.4951V298H58.2012L58.0781 296.989C57.4453 297.78 56.6309 298.176 55.6348 298.176C54.5156 298.176 53.6162 297.736 52.9365 296.857C52.2627 295.973 51.9258 294.745 51.9258 293.175ZM54.4658 293.359C54.4658 294.25 54.6211 294.933 54.9316 295.407C55.2422 295.882 55.6934 296.119 56.2852 296.119C57.0703 296.119 57.624 295.788 57.9463 295.126V291.373C57.6299 290.711 57.082 290.38 56.3027 290.38C55.0781 290.38 54.4658 291.373 54.4658 293.359ZM66.8408 298.176C65.4463 298.176 64.3096 297.748 63.4307 296.893C62.5576 296.037 62.1211 294.897 62.1211 293.474V293.228C62.1211 292.272 62.3057 291.42 62.6748 290.67C63.0439 289.914 63.5654 289.334 64.2393 288.93C64.9189 288.52 65.6924 288.314 66.5596 288.314C67.8604 288.314 68.8828 288.725 69.627 289.545C70.377 290.365 70.752 291.528 70.752 293.034V294.071H64.6963C64.7783 294.692 65.0244 295.19 65.4346 295.565C65.8506 295.94 66.375 296.128 67.0078 296.128C67.9863 296.128 68.751 295.773 69.3018 295.064L70.5498 296.462C70.1689 297.001 69.6533 297.423 69.0029 297.728C68.3525 298.026 67.6318 298.176 66.8408 298.176ZM66.5508 290.371C66.0469 290.371 65.6367 290.541 65.3203 290.881C65.0098 291.221 64.8105 291.707 64.7227 292.34H68.2559V292.138C68.2441 291.575 68.0918 291.142 67.7988 290.837C67.5059 290.526 67.0898 290.371 66.5508 290.371ZM75.8232 291.329L77.4229 288.49H80.1387L77.4316 293.148L80.2529 298H77.5283L75.832 295.012L74.1445 298H71.4111L74.2324 293.148L71.5342 288.49H74.2588L75.8232 291.329Z" fill="black"/>
<path d="M61.3536 244.646C61.1583 244.451 60.8417 244.451 60.6464 244.646L57.4645 247.828C57.2692 248.024 57.2692 248.34 57.4645 248.536C57.6597 248.731 57.9763 248.731 58.1716 248.536L61 245.707L63.8284 248.536C64.0237 248.731 64.3403 248.731 64.5355 248.536C64.7308 248.34 64.7308 248.024 64.5355 247.828L61.3536 244.646ZM61.5 279L61.5 245H60.5L60.5 279H61.5Z" fill="black"/>
</svg>
