<svg width="612" height="187" viewBox="0 0 612 187" fill="none" xmlns="http://www.w3.org/2000/svg">
<rect width="612" height="187" fill="white"/>
<rect x="16.5" y="22.5" width="101" height="37" fill="#C4C4C4" stroke="black"/>
<rect x="118.5" y="22.5" width="84" height="37" fill="#C4C4C4" stroke="black"/>
<path d="M53.2656 42.293C53.1602 43.1953 52.8262 43.8926 52.2637 44.3848C51.7051 44.873 50.9609 45.1172 50.0312 45.1172C49.0234 45.1172 48.2148 44.7559 47.6055 44.0332C47 43.3105 46.6973 42.3438 46.6973 41.1328V40.3125C46.6973 39.5195 46.8379 38.8223 47.1191 38.2207C47.4043 37.6191 47.8066 37.1582 48.3262 36.8379C48.8457 36.5137 49.4473 36.3516 50.1309 36.3516C51.0371 36.3516 51.7637 36.6055 52.3105 37.1133C52.8574 37.6172 53.1758 38.3164 53.2656 39.2109H52.1348C52.0371 38.5312 51.8242 38.0391 51.4961 37.7344C51.1719 37.4297 50.7168 37.2773 50.1309 37.2773C49.4121 37.2773 48.8477 37.543 48.4375 38.0742C48.0312 38.6055 47.8281 39.3613 47.8281 40.3418V41.168C47.8281 42.0938 48.0215 42.8301 48.4082 43.377C48.7949 43.9238 49.3359 44.1973 50.0312 44.1973C50.6562 44.1973 51.1348 44.0566 51.4668 43.7754C51.8027 43.4902 52.0254 42.9961 52.1348 42.293H53.2656ZM54.3496 41.7715C54.3496 41.1504 54.4707 40.5918 54.7129 40.0957C54.959 39.5996 55.2988 39.2168 55.7324 38.9473C56.1699 38.6777 56.668 38.543 57.2266 38.543C58.0898 38.543 58.7871 38.8418 59.3184 39.4395C59.8535 40.0371 60.1211 40.832 60.1211 41.8242V41.9004C60.1211 42.5176 60.002 43.0723 59.7637 43.5645C59.5293 44.0527 59.1914 44.4336 58.75 44.707C58.3125 44.9805 57.8086 45.1172 57.2383 45.1172C56.3789 45.1172 55.6816 44.8184 55.1465 44.2207C54.6152 43.623 54.3496 42.832 54.3496 41.8477V41.7715ZM55.4395 41.9004C55.4395 42.6035 55.6016 43.168 55.9258 43.5938C56.2539 44.0195 56.6914 44.2324 57.2383 44.2324C57.7891 44.2324 58.2266 44.0176 58.5508 43.5879C58.875 43.1543 59.0371 42.5488 59.0371 41.7715C59.0371 41.0762 58.8711 40.5137 58.5391 40.084C58.2109 39.6504 57.7734 39.4336 57.2266 39.4336C56.6914 39.4336 56.2598 39.6465 55.9316 40.0723C55.6035 40.498 55.4395 41.1074 55.4395 41.9004ZM65.3945 44.373C64.9727 44.8691 64.3535 45.1172 63.5371 45.1172C62.8613 45.1172 62.3457 44.9219 61.9902 44.5312C61.6387 44.1367 61.4609 43.5547 61.457 42.7852V38.6602H62.541V42.7559C62.541 43.7168 62.9316 44.1973 63.7129 44.1973C64.541 44.1973 65.0918 43.8887 65.3652 43.2715V38.6602H66.4492V45H65.418L65.3945 44.373ZM69.127 38.6602L69.1621 39.457C69.6465 38.8477 70.2793 38.543 71.0605 38.543C72.4004 38.543 73.0762 39.2988 73.0879 40.8105V45H72.0039V40.8047C72 40.3477 71.8945 40.0098 71.6875 39.791C71.4844 39.5723 71.166 39.4629 70.7324 39.4629C70.3809 39.4629 70.0723 39.5566 69.8066 39.7441C69.541 39.9316 69.334 40.1777 69.1855 40.4824V45H68.1016V38.6602H69.127ZM76.1934 37.125V38.6602H77.377V39.498H76.1934V43.4297C76.1934 43.6836 76.2461 43.875 76.3516 44.0039C76.457 44.1289 76.6367 44.1914 76.8906 44.1914C77.0156 44.1914 77.1875 44.168 77.4062 44.1211V45C77.1211 45.0781 76.8438 45.1172 76.5742 45.1172C76.0898 45.1172 75.7246 44.9707 75.4785 44.6777C75.2324 44.3848 75.1094 43.9688 75.1094 43.4297V39.498H73.9551V38.6602H75.1094V37.125H76.1934ZM81.7129 39.6328C81.5488 39.6055 81.3711 39.5918 81.1797 39.5918C80.4688 39.5918 79.9863 39.8945 79.7324 40.5V45H78.6484V38.6602H79.7031L79.7207 39.3926C80.0762 38.8262 80.5801 38.543 81.2324 38.543C81.4434 38.543 81.6035 38.5703 81.7129 38.625V39.6328ZM84.8945 43.4121L86.3711 38.6602H87.5312L84.9824 45.9785C84.5879 47.0332 83.9609 47.5605 83.1016 47.5605L82.8965 47.543L82.4922 47.4668V46.5879L82.7852 46.6113C83.1523 46.6113 83.4375 46.5371 83.6406 46.3887C83.8477 46.2402 84.0176 45.9688 84.1504 45.5742L84.3906 44.9297L82.1289 38.6602H83.3125L84.8945 43.4121Z" fill="black"/>
<path d="M129.901 4.44336V6.13184H131.075V7.47754H129.901V10.9053C129.901 11.1592 129.95 11.3411 130.047 11.4512C130.144 11.5612 130.33 11.6162 130.605 11.6162C130.809 11.6162 130.988 11.6014 131.145 11.5718V12.9619C130.785 13.0719 130.415 13.127 130.034 13.127C128.748 13.127 128.092 12.4774 128.066 11.1782V7.47754H127.063V6.13184H128.066V4.44336H129.901ZM133.887 6.88086C134.374 6.29688 134.985 6.00488 135.722 6.00488C137.211 6.00488 137.967 6.87028 137.988 8.60107V13H136.153V8.65186C136.153 8.2583 136.069 7.96842 135.899 7.78223C135.73 7.5918 135.449 7.49658 135.055 7.49658C134.518 7.49658 134.128 7.70394 133.887 8.11865V13H132.053V3.25H133.887V6.88086ZM143.231 7.85205C142.981 7.8182 142.761 7.80127 142.571 7.80127C141.877 7.80127 141.422 8.03613 141.206 8.50586V13H139.372V6.13184H141.104L141.155 6.95068C141.523 6.32015 142.033 6.00488 142.685 6.00488C142.888 6.00488 143.079 6.03239 143.256 6.0874L143.231 7.85205ZM147.154 13.127C146.147 13.127 145.326 12.818 144.691 12.2002C144.06 11.5824 143.745 10.7593 143.745 9.73096V9.55322C143.745 8.86344 143.878 8.24772 144.145 7.70605C144.412 7.16016 144.788 6.74121 145.275 6.44922C145.766 6.15299 146.324 6.00488 146.951 6.00488C147.89 6.00488 148.629 6.30111 149.166 6.89355C149.708 7.486 149.979 8.32601 149.979 9.41357V10.1626H145.605C145.664 10.6112 145.842 10.9709 146.138 11.2417C146.439 11.5125 146.817 11.6479 147.274 11.6479C147.981 11.6479 148.533 11.3919 148.931 10.8799L149.833 11.8892C149.557 12.2785 149.185 12.5832 148.715 12.8032C148.246 13.019 147.725 13.127 147.154 13.127ZM146.944 7.49023C146.58 7.49023 146.284 7.61296 146.056 7.8584C145.831 8.10384 145.688 8.45508 145.624 8.91211H148.176V8.76611C148.167 8.35986 148.057 8.04671 147.846 7.82666C147.634 7.60238 147.334 7.49023 146.944 7.49023ZM154.187 13.127C153.18 13.127 152.359 12.818 151.724 12.2002C151.094 11.5824 150.778 10.7593 150.778 9.73096V9.55322C150.778 8.86344 150.912 8.24772 151.178 7.70605C151.445 7.16016 151.821 6.74121 152.308 6.44922C152.799 6.15299 153.358 6.00488 153.984 6.00488C154.923 6.00488 155.662 6.30111 156.199 6.89355C156.741 7.486 157.012 8.32601 157.012 9.41357V10.1626H152.638C152.697 10.6112 152.875 10.9709 153.171 11.2417C153.472 11.5125 153.851 11.6479 154.308 11.6479C155.014 11.6479 155.567 11.3919 155.964 10.8799L156.866 11.8892C156.591 12.2785 156.218 12.5832 155.749 12.8032C155.279 13.019 154.758 13.127 154.187 13.127ZM153.978 7.49023C153.614 7.49023 153.317 7.61296 153.089 7.8584C152.865 8.10384 152.721 8.45508 152.657 8.91211H155.209V8.76611C155.201 8.35986 155.09 8.04671 154.879 7.82666C154.667 7.60238 154.367 7.49023 153.978 7.49023ZM163.144 14.4346H157.361V13H163.144V14.4346ZM170.12 13H163.785V11.7432L166.774 8.55664C167.185 8.10807 167.487 7.71663 167.682 7.38232C167.881 7.04801 167.98 6.73063 167.98 6.43018C167.98 6.01969 167.877 5.69808 167.669 5.46533C167.462 5.22835 167.166 5.10986 166.781 5.10986C166.366 5.10986 166.038 5.25374 165.797 5.5415C165.56 5.82503 165.441 6.19954 165.441 6.66504H163.601C163.601 6.10221 163.734 5.58805 164 5.12256C164.271 4.65706 164.652 4.29313 165.143 4.03076C165.634 3.76416 166.19 3.63086 166.812 3.63086C167.765 3.63086 168.503 3.85938 169.028 4.31641C169.557 4.77344 169.821 5.41878 169.821 6.25244C169.821 6.70947 169.703 7.17497 169.466 7.64893C169.229 8.12288 168.823 8.67513 168.247 9.30566L166.146 11.521H170.12V13ZM177.47 9.17871C177.47 10.4567 177.206 11.4342 176.677 12.1113C176.148 12.7884 175.373 13.127 174.354 13.127C173.346 13.127 172.576 12.7948 172.043 12.1304C171.51 11.466 171.237 10.5138 171.224 9.27393V7.57275C171.224 6.28206 171.491 5.30241 172.024 4.63379C172.561 3.96517 173.334 3.63086 174.341 3.63086C175.348 3.63086 176.118 3.96305 176.651 4.62744C177.185 5.2876 177.458 6.23763 177.47 7.47754V9.17871ZM175.636 7.3125C175.636 6.54655 175.53 5.99007 175.318 5.64307C175.111 5.29183 174.785 5.11621 174.341 5.11621C173.909 5.11621 173.59 5.28337 173.382 5.61768C173.179 5.94775 173.071 6.46615 173.059 7.17285V9.41992C173.059 10.1732 173.16 10.7339 173.363 11.1021C173.571 11.466 173.901 11.6479 174.354 11.6479C174.802 11.6479 175.126 11.4723 175.325 11.1211C175.524 10.7699 175.627 10.2324 175.636 9.50879V7.3125ZM183.17 13H181.336V5.92871L179.146 6.60791V5.11621L182.974 3.74512H183.17V13ZM186.452 8.45508L186.985 3.75781H192.165V5.2876H188.49L188.261 7.27441C188.697 7.04167 189.16 6.92529 189.651 6.92529C190.532 6.92529 191.221 7.19824 191.721 7.74414C192.22 8.29004 192.47 9.05387 192.47 10.0356C192.47 10.6323 192.343 11.1676 192.089 11.6416C191.839 12.1113 191.479 12.4774 191.01 12.7397C190.54 12.9979 189.986 13.127 189.347 13.127C188.788 13.127 188.27 13.0148 187.792 12.7905C187.313 12.562 186.935 12.2425 186.655 11.832C186.38 11.4215 186.234 10.9539 186.217 10.4292H188.033C188.071 10.8143 188.204 11.1147 188.433 11.3306C188.665 11.5422 188.968 11.6479 189.34 11.6479C189.755 11.6479 190.075 11.4998 190.299 11.2036C190.523 10.9032 190.635 10.48 190.635 9.93408C190.635 9.40934 190.506 9.00732 190.248 8.72803C189.99 8.44873 189.624 8.30908 189.15 8.30908C188.714 8.30908 188.361 8.42334 188.09 8.65186L187.912 8.81689L186.452 8.45508Z" fill="black"/>
<path d="M137.641 38H136.51V34.0566H132.209V38H131.084V29.4688H132.209V33.1367H136.51V29.4688H137.641V38ZM143.383 38C143.32 37.875 143.27 37.6523 143.23 37.332C142.727 37.8555 142.125 38.1172 141.426 38.1172C140.801 38.1172 140.287 37.9414 139.885 37.5898C139.486 37.2344 139.287 36.7852 139.287 36.2422C139.287 35.582 139.537 35.0703 140.037 34.707C140.541 34.3398 141.248 34.1562 142.158 34.1562H143.213V33.6582C143.213 33.2793 143.1 32.9785 142.873 32.7559C142.646 32.5293 142.312 32.416 141.871 32.416C141.484 32.416 141.16 32.5137 140.898 32.709C140.637 32.9043 140.506 33.1406 140.506 33.418H139.416C139.416 33.1016 139.527 32.7969 139.75 32.5039C139.977 32.207 140.281 31.9727 140.664 31.8008C141.051 31.6289 141.475 31.543 141.936 31.543C142.666 31.543 143.238 31.7266 143.652 32.0938C144.066 32.457 144.281 32.959 144.297 33.5996V36.5176C144.297 37.0996 144.371 37.5625 144.52 37.9062V38H143.383ZM141.584 37.1738C141.924 37.1738 142.246 37.0859 142.551 36.9102C142.855 36.7344 143.076 36.5059 143.213 36.2246V34.9238H142.363C141.035 34.9238 140.371 35.3125 140.371 36.0898C140.371 36.4297 140.484 36.6953 140.711 36.8867C140.938 37.0781 141.229 37.1738 141.584 37.1738ZM151.352 34.9004C151.352 35.8652 151.131 36.6426 150.689 37.2324C150.248 37.8223 149.65 38.1172 148.896 38.1172C148.127 38.1172 147.521 37.873 147.08 37.3848V40.4375H145.996V31.6602H146.986L147.039 32.3633C147.48 31.8164 148.094 31.543 148.879 31.543C149.641 31.543 150.242 31.8301 150.684 32.4043C151.129 32.9785 151.352 33.7773 151.352 34.8008V34.9004ZM150.268 34.7773C150.268 34.0625 150.115 33.498 149.811 33.084C149.506 32.6699 149.088 32.4629 148.557 32.4629C147.9 32.4629 147.408 32.7539 147.08 33.3359V36.3652C147.404 36.9434 147.9 37.2324 148.568 37.2324C149.088 37.2324 149.5 37.0273 149.805 36.6172C150.113 36.2031 150.268 35.5898 150.268 34.7773ZM158.09 34.9004C158.09 35.8652 157.869 36.6426 157.428 37.2324C156.986 37.8223 156.389 38.1172 155.635 38.1172C154.865 38.1172 154.26 37.873 153.818 37.3848V40.4375H152.734V31.6602H153.725L153.777 32.3633C154.219 31.8164 154.832 31.543 155.617 31.543C156.379 31.543 156.98 31.8301 157.422 32.4043C157.867 32.9785 158.09 33.7773 158.09 34.8008V34.9004ZM157.006 34.7773C157.006 34.0625 156.854 33.498 156.549 33.084C156.244 32.6699 155.826 32.4629 155.295 32.4629C154.639 32.4629 154.146 32.7539 153.818 33.3359V36.3652C154.143 36.9434 154.639 37.2324 155.307 37.2324C155.826 37.2324 156.238 37.0273 156.543 36.6172C156.852 36.2031 157.006 35.5898 157.006 34.7773ZM160.65 38H159.566V31.6602H160.65V38ZM159.479 29.9785C159.479 29.8027 159.531 29.6543 159.637 29.5332C159.746 29.4121 159.906 29.3516 160.117 29.3516C160.328 29.3516 160.488 29.4121 160.598 29.5332C160.707 29.6543 160.762 29.8027 160.762 29.9785C160.762 30.1543 160.707 30.3008 160.598 30.418C160.488 30.5352 160.328 30.5938 160.117 30.5938C159.906 30.5938 159.746 30.5352 159.637 30.418C159.531 30.3008 159.479 30.1543 159.479 29.9785ZM163.416 31.6602L163.451 32.457C163.936 31.8477 164.568 31.543 165.35 31.543C166.689 31.543 167.365 32.2988 167.377 33.8105V38H166.293V33.8047C166.289 33.3477 166.184 33.0098 165.977 32.791C165.773 32.5723 165.455 32.4629 165.021 32.4629C164.67 32.4629 164.361 32.5566 164.096 32.7441C163.83 32.9316 163.623 33.1777 163.475 33.4824V38H162.391V31.6602H163.416ZM171.643 38.1172C170.783 38.1172 170.084 37.8359 169.545 37.2734C169.006 36.707 168.736 35.9512 168.736 35.0059V34.8066C168.736 34.1777 168.855 33.6172 169.094 33.125C169.336 32.6289 169.672 32.2422 170.102 31.9648C170.535 31.6836 171.004 31.543 171.508 31.543C172.332 31.543 172.973 31.8145 173.43 32.3574C173.887 32.9004 174.115 33.6777 174.115 34.6895V35.1406H169.82C169.836 35.7656 170.018 36.2715 170.365 36.6582C170.717 37.041 171.162 37.2324 171.701 37.2324C172.084 37.2324 172.408 37.1543 172.674 36.998C172.939 36.8418 173.172 36.6348 173.371 36.377L174.033 36.8926C173.502 37.709 172.705 38.1172 171.643 38.1172ZM171.508 32.4336C171.07 32.4336 170.703 32.5938 170.406 32.9141C170.109 33.2305 169.926 33.6758 169.855 34.25H173.031V34.168C173 33.6172 172.852 33.1914 172.586 32.8906C172.32 32.5859 171.961 32.4336 171.508 32.4336ZM179.066 36.3184C179.066 36.0254 178.955 35.7988 178.732 35.6387C178.514 35.4746 178.129 35.334 177.578 35.2168C177.031 35.0996 176.596 34.959 176.271 34.7949C175.951 34.6309 175.713 34.4355 175.557 34.209C175.404 33.9824 175.328 33.7129 175.328 33.4004C175.328 32.8809 175.547 32.4414 175.984 32.082C176.426 31.7227 176.988 31.543 177.672 31.543C178.391 31.543 178.973 31.7285 179.418 32.0996C179.867 32.4707 180.092 32.9453 180.092 33.5234H179.002C179.002 33.2266 178.875 32.9707 178.621 32.7559C178.371 32.541 178.055 32.4336 177.672 32.4336C177.277 32.4336 176.969 32.5195 176.746 32.6914C176.523 32.8633 176.412 33.0879 176.412 33.3652C176.412 33.627 176.516 33.8242 176.723 33.957C176.93 34.0898 177.303 34.2168 177.842 34.3379C178.385 34.459 178.824 34.6035 179.16 34.7715C179.496 34.9395 179.744 35.1426 179.904 35.3809C180.068 35.6152 180.15 35.9023 180.15 36.2422C180.15 36.8086 179.924 37.2637 179.471 37.6074C179.018 37.9473 178.43 38.1172 177.707 38.1172C177.199 38.1172 176.75 38.0273 176.359 37.8477C175.969 37.668 175.662 37.418 175.439 37.0977C175.221 36.7734 175.111 36.4238 175.111 36.0488H176.195C176.215 36.4121 176.359 36.7012 176.629 36.916C176.902 37.127 177.262 37.2324 177.707 37.2324C178.117 37.2324 178.445 37.1504 178.691 36.9863C178.941 36.8184 179.066 36.5957 179.066 36.3184ZM185.254 36.3184C185.254 36.0254 185.143 35.7988 184.92 35.6387C184.701 35.4746 184.316 35.334 183.766 35.2168C183.219 35.0996 182.783 34.959 182.459 34.7949C182.139 34.6309 181.9 34.4355 181.744 34.209C181.592 33.9824 181.516 33.7129 181.516 33.4004C181.516 32.8809 181.734 32.4414 182.172 32.082C182.613 31.7227 183.176 31.543 183.859 31.543C184.578 31.543 185.16 31.7285 185.605 32.0996C186.055 32.4707 186.279 32.9453 186.279 33.5234H185.189C185.189 33.2266 185.062 32.9707 184.809 32.7559C184.559 32.541 184.242 32.4336 183.859 32.4336C183.465 32.4336 183.156 32.5195 182.934 32.6914C182.711 32.8633 182.6 33.0879 182.6 33.3652C182.6 33.627 182.703 33.8242 182.91 33.957C183.117 34.0898 183.49 34.2168 184.029 34.3379C184.572 34.459 185.012 34.6035 185.348 34.7715C185.684 34.9395 185.932 35.1426 186.092 35.3809C186.256 35.6152 186.338 35.9023 186.338 36.2422C186.338 36.8086 186.111 37.2637 185.658 37.6074C185.205 37.9473 184.617 38.1172 183.895 38.1172C183.387 38.1172 182.938 38.0273 182.547 37.8477C182.156 37.668 181.85 37.418 181.627 37.0977C181.408 36.7734 181.299 36.4238 181.299 36.0488H182.383C182.402 36.4121 182.547 36.7012 182.816 36.916C183.09 37.127 183.449 37.2324 183.895 37.2324C184.305 37.2324 184.633 37.1504 184.879 36.9863C185.129 36.8184 185.254 36.5957 185.254 36.3184ZM150.807 48.5488H148.803V52H147.672V43.4688H150.496C151.457 43.4688 152.195 43.6875 152.711 44.125C153.23 44.5625 153.49 45.1992 153.49 46.0352C153.49 46.5664 153.346 47.0293 153.057 47.4238C152.771 47.8184 152.373 48.1133 151.861 48.3086L153.865 51.9297V52H152.658L150.807 48.5488ZM148.803 47.6289H150.531C151.09 47.6289 151.533 47.4844 151.861 47.1953C152.193 46.9062 152.359 46.5195 152.359 46.0352C152.359 45.5078 152.201 45.1035 151.885 44.8223C151.572 44.541 151.119 44.3984 150.525 44.3945H148.803V47.6289ZM158.816 52C158.754 51.875 158.703 51.6523 158.664 51.332C158.16 51.8555 157.559 52.1172 156.859 52.1172C156.234 52.1172 155.721 51.9414 155.318 51.5898C154.92 51.2344 154.721 50.7852 154.721 50.2422C154.721 49.582 154.971 49.0703 155.471 48.707C155.975 48.3398 156.682 48.1562 157.592 48.1562H158.646V47.6582C158.646 47.2793 158.533 46.9785 158.307 46.7559C158.08 46.5293 157.746 46.416 157.305 46.416C156.918 46.416 156.594 46.5137 156.332 46.709C156.07 46.9043 155.939 47.1406 155.939 47.418H154.85C154.85 47.1016 154.961 46.7969 155.184 46.5039C155.41 46.207 155.715 45.9727 156.098 45.8008C156.484 45.6289 156.908 45.543 157.369 45.543C158.1 45.543 158.672 45.7266 159.086 46.0938C159.5 46.457 159.715 46.959 159.73 47.5996V50.5176C159.73 51.0996 159.805 51.5625 159.953 51.9062V52H158.816ZM157.018 51.1738C157.357 51.1738 157.68 51.0859 157.984 50.9102C158.289 50.7344 158.51 50.5059 158.646 50.2246V48.9238H157.797C156.469 48.9238 155.805 49.3125 155.805 50.0898C155.805 50.4297 155.918 50.6953 156.145 50.8867C156.371 51.0781 156.662 51.1738 157.018 51.1738ZM162.455 45.6602L162.49 46.457C162.975 45.8477 163.607 45.543 164.389 45.543C165.729 45.543 166.404 46.2988 166.416 47.8105V52H165.332V47.8047C165.328 47.3477 165.223 47.0098 165.016 46.791C164.812 46.5723 164.494 46.4629 164.061 46.4629C163.709 46.4629 163.4 46.5566 163.135 46.7441C162.869 46.9316 162.662 47.1777 162.514 47.4824V52H161.43V45.6602H162.455ZM169.82 49.0645L169.141 49.7734V52H168.057V43H169.141V48.4434L169.721 47.7461L171.695 45.6602H173.014L170.547 48.3086L173.301 52H172.029L169.82 49.0645Z" fill="black"/>
<rect x="16.5" y="60.5" width="101" height="37" fill="#4F4F4F" stroke="black"/>
<path d="M40.9902 82V73.4688H43.3984C44.1406 73.4688 44.7969 73.6328 45.3672 73.9609C45.9375 74.2891 46.377 74.7559 46.6855 75.3613C46.998 75.9668 47.1562 76.6621 47.1602 77.4473V77.9922C47.1602 78.7969 47.0039 79.502 46.6914 80.1074C46.3828 80.7129 45.9395 81.1777 45.3613 81.502C44.7871 81.8262 44.1172 81.9922 43.3516 82H40.9902ZM42.1152 74.3945V81.0801H43.2988C44.166 81.0801 44.8398 80.8105 45.3203 80.2715C45.8047 79.7324 46.0469 78.9648 46.0469 77.9688V77.4707C46.0469 76.502 45.8184 75.75 45.3613 75.2148C44.9082 74.6758 44.2637 74.4023 43.4277 74.3945H42.1152ZM51.3262 82.1172C50.4668 82.1172 49.7676 81.8359 49.2285 81.2734C48.6895 80.707 48.4199 79.9512 48.4199 79.0059V78.8066C48.4199 78.1777 48.5391 77.6172 48.7773 77.125C49.0195 76.6289 49.3555 76.2422 49.7852 75.9648C50.2188 75.6836 50.6875 75.543 51.1914 75.543C52.0156 75.543 52.6562 75.8145 53.1133 76.3574C53.5703 76.9004 53.7988 77.6777 53.7988 78.6895V79.1406H49.5039C49.5195 79.7656 49.7012 80.2715 50.0488 80.6582C50.4004 81.041 50.8457 81.2324 51.3848 81.2324C51.7676 81.2324 52.0918 81.1543 52.3574 80.998C52.623 80.8418 52.8555 80.6348 53.0547 80.377L53.7168 80.8926C53.1855 81.709 52.3887 82.1172 51.3262 82.1172ZM51.1914 76.4336C50.7539 76.4336 50.3867 76.5938 50.0898 76.9141C49.793 77.2305 49.6094 77.6758 49.5391 78.25H52.7148V78.168C52.6836 77.6172 52.5352 77.1914 52.2695 76.8906C52.0039 76.5859 51.6445 76.4336 51.1914 76.4336ZM56.084 75.6602L56.1191 76.457C56.6035 75.8477 57.2363 75.543 58.0176 75.543C59.3574 75.543 60.0332 76.2988 60.0449 77.8105V82H58.9609V77.8047C58.957 77.3477 58.8516 77.0098 58.6445 76.791C58.4414 76.5723 58.123 76.4629 57.6895 76.4629C57.3379 76.4629 57.0293 76.5566 56.7637 76.7441C56.498 76.9316 56.291 77.1777 56.1426 77.4824V82H55.0586V75.6602H56.084ZM62.6992 75.6602L62.7285 76.3633C63.1934 75.8164 63.8203 75.543 64.6094 75.543C65.4961 75.543 66.0996 75.8828 66.4199 76.5625C66.6309 76.2578 66.9043 76.0117 67.2402 75.8242C67.5801 75.6367 67.9805 75.543 68.4414 75.543C69.832 75.543 70.5391 76.2793 70.5625 77.752V82H69.4785V77.8164C69.4785 77.3633 69.375 77.0254 69.168 76.8027C68.9609 76.5762 68.6133 76.4629 68.125 76.4629C67.7227 76.4629 67.3887 76.584 67.123 76.8262C66.8574 77.0645 66.7031 77.3867 66.6602 77.793V82H65.5703V77.8457C65.5703 76.9238 65.1191 76.4629 64.2168 76.4629C63.5059 76.4629 63.0195 76.7656 62.7578 77.3711V82H61.6738V75.6602H62.6992ZM76.1172 82C76.0547 81.875 76.0039 81.6523 75.9648 81.332C75.4609 81.8555 74.8594 82.1172 74.1602 82.1172C73.5352 82.1172 73.0215 81.9414 72.6191 81.5898C72.2207 81.2344 72.0215 80.7852 72.0215 80.2422C72.0215 79.582 72.2715 79.0703 72.7715 78.707C73.2754 78.3398 73.9824 78.1562 74.8926 78.1562H75.9473V77.6582C75.9473 77.2793 75.834 76.9785 75.6074 76.7559C75.3809 76.5293 75.0469 76.416 74.6055 76.416C74.2188 76.416 73.8945 76.5137 73.6328 76.709C73.3711 76.9043 73.2402 77.1406 73.2402 77.418H72.1504C72.1504 77.1016 72.2617 76.7969 72.4844 76.5039C72.7109 76.207 73.0156 75.9727 73.3984 75.8008C73.7852 75.6289 74.209 75.543 74.6699 75.543C75.4004 75.543 75.9727 75.7266 76.3867 76.0938C76.8008 76.457 77.0156 76.959 77.0312 77.5996V80.5176C77.0312 81.0996 77.1055 81.5625 77.2539 81.9062V82H76.1172ZM74.3184 81.1738C74.6582 81.1738 74.9805 81.0859 75.2852 80.9102C75.5898 80.7344 75.8105 80.5059 75.9473 80.2246V78.9238H75.0977C73.7695 78.9238 73.1055 79.3125 73.1055 80.0898C73.1055 80.4297 73.2188 80.6953 73.4453 80.8867C73.6719 81.0781 73.9629 81.1738 74.3184 81.1738ZM81.7949 76.6328C81.6309 76.6055 81.4531 76.5918 81.2617 76.5918C80.5508 76.5918 80.0684 76.8945 79.8145 77.5V82H78.7305V75.6602H79.7852L79.8027 76.3926C80.1582 75.8262 80.6621 75.543 81.3145 75.543C81.5254 75.543 81.6855 75.5703 81.7949 75.625V76.6328ZM84.5664 79.0645L83.8867 79.7734V82H82.8027V73H83.8867V78.4434L84.4668 77.7461L86.4414 75.6602H87.7598L85.293 78.3086L88.0469 82H86.7754L84.5664 79.0645Z" fill="black"/>
<rect x="203.5" y="22.5" width="84" height="37" fill="#C4C4C4" stroke="black"/>
<rect x="118.5" y="60.5" width="84" height="37" fill="#4F4F4F" stroke="black"/>
<rect x="203.5" y="60.5" width="84" height="37" fill="#4F4F4F" stroke="black"/>
<path d="M162.285 77.207H163.1C163.611 77.1992 164.014 77.0645 164.307 76.8027C164.6 76.541 164.746 76.1875 164.746 75.7422C164.746 74.7422 164.248 74.2422 163.252 74.2422C162.783 74.2422 162.408 74.377 162.127 74.6465C161.85 74.9121 161.711 75.2656 161.711 75.707H160.627C160.627 75.0312 160.873 74.4707 161.365 74.0254C161.861 73.5762 162.49 73.3516 163.252 73.3516C164.057 73.3516 164.688 73.5645 165.145 73.9902C165.602 74.416 165.83 75.0078 165.83 75.7656C165.83 76.1367 165.709 76.4961 165.467 76.8438C165.229 77.1914 164.902 77.4512 164.488 77.623C164.957 77.7715 165.318 78.0176 165.572 78.3613C165.83 78.7051 165.959 79.125 165.959 79.6211C165.959 80.3867 165.709 80.9941 165.209 81.4434C164.709 81.8926 164.059 82.1172 163.258 82.1172C162.457 82.1172 161.805 81.9004 161.301 81.4668C160.801 81.0332 160.551 80.4609 160.551 79.75H161.641C161.641 80.1992 161.787 80.5586 162.08 80.8281C162.373 81.0977 162.766 81.2324 163.258 81.2324C163.781 81.2324 164.182 81.0957 164.459 80.8223C164.736 80.5488 164.875 80.1562 164.875 79.6445C164.875 79.1484 164.723 78.7676 164.418 78.502C164.113 78.2363 163.674 78.0996 163.1 78.0918H162.285V77.207Z" fill="black"/>
<path d="M236.299 82H230.709V81.2207L233.662 77.9395C234.1 77.4434 234.4 77.041 234.564 76.7324C234.732 76.4199 234.816 76.0977 234.816 75.7656C234.816 75.3203 234.682 74.9551 234.412 74.6699C234.143 74.3848 233.783 74.2422 233.334 74.2422C232.795 74.2422 232.375 74.3965 232.074 74.7051C231.777 75.0098 231.629 75.4355 231.629 75.9824H230.545C230.545 75.1973 230.797 74.5625 231.301 74.0781C231.809 73.5938 232.486 73.3516 233.334 73.3516C234.127 73.3516 234.754 73.5605 235.215 73.9785C235.676 74.3926 235.906 74.9453 235.906 75.6367C235.906 76.4766 235.371 77.4766 234.301 78.6367L232.016 81.1152H236.299V82ZM242.797 78.3613C242.797 79.6309 242.58 80.5742 242.146 81.1914C241.713 81.8086 241.035 82.1172 240.113 82.1172C239.203 82.1172 238.529 81.8164 238.092 81.2148C237.654 80.6094 237.428 79.707 237.412 78.5078V77.0605C237.412 75.8066 237.629 74.875 238.062 74.2656C238.496 73.6562 239.176 73.3516 240.102 73.3516C241.02 73.3516 241.695 73.6465 242.129 74.2363C242.562 74.8223 242.785 75.7285 242.797 76.9551V78.3613ZM241.713 76.8789C241.713 75.9609 241.584 75.293 241.326 74.875C241.068 74.4531 240.66 74.2422 240.102 74.2422C239.547 74.2422 239.143 74.4512 238.889 74.8691C238.635 75.2871 238.504 75.9297 238.496 76.7969V78.5312C238.496 79.4531 238.629 80.1348 238.895 80.5762C239.164 81.0137 239.57 81.2324 240.113 81.2324C240.648 81.2324 241.045 81.0254 241.303 80.6113C241.564 80.1973 241.701 79.5449 241.713 78.6543V76.8789ZM247.748 82H246.658V74.7754L244.473 75.5781V74.5938L247.578 73.4277H247.748V82ZM251.422 77.7227L251.855 73.4688H256.227V74.4707H252.775L252.518 76.7969C252.936 76.5508 253.41 76.4277 253.941 76.4277C254.719 76.4277 255.336 76.6855 255.793 77.2012C256.25 77.7129 256.479 78.4062 256.479 79.2812C256.479 80.1602 256.24 80.8535 255.764 81.3613C255.291 81.8652 254.629 82.1172 253.777 82.1172C253.023 82.1172 252.408 81.9082 251.932 81.4902C251.455 81.0723 251.184 80.4941 251.117 79.7559H252.143C252.209 80.2441 252.383 80.6133 252.664 80.8633C252.945 81.1094 253.316 81.2324 253.777 81.2324C254.281 81.2324 254.676 81.0605 254.961 80.7168C255.25 80.373 255.395 79.8984 255.395 79.293C255.395 78.7227 255.238 78.2656 254.926 77.9219C254.617 77.5742 254.205 77.4004 253.689 77.4004C253.217 77.4004 252.846 77.5039 252.576 77.7109L252.289 77.9453L251.422 77.7227Z" fill="black"/>
<rect x="16.5" y="98.5" width="101" height="37" fill="#F0E442" stroke="black"/>
<path d="M53.5469 120H52.416L48.1211 113.426V120H46.9902V111.469H48.1211L52.4277 118.072V111.469H53.5469V120ZM55.0879 116.771C55.0879 116.15 55.209 115.592 55.4512 115.096C55.6973 114.6 56.0371 114.217 56.4707 113.947C56.9082 113.678 57.4062 113.543 57.9648 113.543C58.8281 113.543 59.5254 113.842 60.0566 114.439C60.5918 115.037 60.8594 115.832 60.8594 116.824V116.9C60.8594 117.518 60.7402 118.072 60.502 118.564C60.2676 119.053 59.9297 119.434 59.4883 119.707C59.0508 119.98 58.5469 120.117 57.9766 120.117C57.1172 120.117 56.4199 119.818 55.8848 119.221C55.3535 118.623 55.0879 117.832 55.0879 116.848V116.771ZM56.1777 116.9C56.1777 117.604 56.3398 118.168 56.6641 118.594C56.9922 119.02 57.4297 119.232 57.9766 119.232C58.5273 119.232 58.9648 119.018 59.2891 118.588C59.6133 118.154 59.7754 117.549 59.7754 116.771C59.7754 116.076 59.6094 115.514 59.2773 115.084C58.9492 114.65 58.5117 114.434 57.9648 114.434C57.4297 114.434 56.998 114.646 56.6699 115.072C56.3418 115.498 56.1777 116.107 56.1777 116.9ZM65.2832 114.633C65.1191 114.605 64.9414 114.592 64.75 114.592C64.0391 114.592 63.5566 114.895 63.3027 115.5V120H62.2188V113.66H63.2734L63.291 114.393C63.6465 113.826 64.1504 113.543 64.8027 113.543C65.0137 113.543 65.1738 113.57 65.2832 113.625V114.633ZM72.0039 118.506L73.2227 113.66H74.3066L72.4609 120H71.582L70.041 115.195L68.541 120H67.6621L65.8223 113.66H66.9004L68.1484 118.406L69.625 113.66H70.498L72.0039 118.506ZM79.3281 120C79.2656 119.875 79.2148 119.652 79.1758 119.332C78.6719 119.855 78.0703 120.117 77.3711 120.117C76.7461 120.117 76.2324 119.941 75.8301 119.59C75.4316 119.234 75.2324 118.785 75.2324 118.242C75.2324 117.582 75.4824 117.07 75.9824 116.707C76.4863 116.34 77.1934 116.156 78.1035 116.156H79.1582V115.658C79.1582 115.279 79.0449 114.979 78.8184 114.756C78.5918 114.529 78.2578 114.416 77.8164 114.416C77.4297 114.416 77.1055 114.514 76.8438 114.709C76.582 114.904 76.4512 115.141 76.4512 115.418H75.3613C75.3613 115.102 75.4727 114.797 75.6953 114.504C75.9219 114.207 76.2266 113.973 76.6094 113.801C76.9961 113.629 77.4199 113.543 77.8809 113.543C78.6113 113.543 79.1836 113.727 79.5977 114.094C80.0117 114.457 80.2266 114.959 80.2422 115.6V118.518C80.2422 119.1 80.3164 119.562 80.4648 119.906V120H79.3281ZM77.5293 119.174C77.8691 119.174 78.1914 119.086 78.4961 118.91C78.8008 118.734 79.0215 118.506 79.1582 118.225V116.924H78.3086C76.9805 116.924 76.3164 117.312 76.3164 118.09C76.3164 118.43 76.4297 118.695 76.6562 118.887C76.8828 119.078 77.1738 119.174 77.5293 119.174ZM83.9219 118.412L85.3984 113.66H86.5586L84.0098 120.979C83.6152 122.033 82.9883 122.561 82.1289 122.561L81.9238 122.543L81.5195 122.467V121.588L81.8125 121.611C82.1797 121.611 82.4648 121.537 82.668 121.389C82.875 121.24 83.0449 120.969 83.1777 120.574L83.418 119.93L81.1562 113.66H82.3398L83.9219 118.412Z" fill="black"/>
<rect x="118.5" y="98.5" width="84" height="37" fill="white" stroke="black"/>
<rect x="203.5" y="98.5" width="84" height="37" fill="white" stroke="black"/>
<path d="M165.285 117.135H166.469V118.02H165.285V120H164.195V118.02H160.311V117.381L164.131 111.469H165.285V117.135ZM161.541 117.135H164.195V112.951L164.066 113.186L161.541 117.135Z" fill="black"/>
<path d="M236.299 120H230.709V119.221L233.662 115.939C234.1 115.443 234.4 115.041 234.564 114.732C234.732 114.42 234.816 114.098 234.816 113.766C234.816 113.32 234.682 112.955 234.412 112.67C234.143 112.385 233.783 112.242 233.334 112.242C232.795 112.242 232.375 112.396 232.074 112.705C231.777 113.01 231.629 113.436 231.629 113.982H230.545C230.545 113.197 230.797 112.562 231.301 112.078C231.809 111.594 232.486 111.352 233.334 111.352C234.127 111.352 234.754 111.561 235.215 111.979C235.676 112.393 235.906 112.945 235.906 113.637C235.906 114.477 235.371 115.477 234.301 116.637L232.016 119.115H236.299V120ZM242.797 116.361C242.797 117.631 242.58 118.574 242.146 119.191C241.713 119.809 241.035 120.117 240.113 120.117C239.203 120.117 238.529 119.816 238.092 119.215C237.654 118.609 237.428 117.707 237.412 116.508V115.061C237.412 113.807 237.629 112.875 238.062 112.266C238.496 111.656 239.176 111.352 240.102 111.352C241.02 111.352 241.695 111.646 242.129 112.236C242.562 112.822 242.785 113.729 242.797 114.955V116.361ZM241.713 114.879C241.713 113.961 241.584 113.293 241.326 112.875C241.068 112.453 240.66 112.242 240.102 112.242C239.547 112.242 239.143 112.451 238.889 112.869C238.635 113.287 238.504 113.93 238.496 114.797V116.531C238.496 117.453 238.629 118.135 238.895 118.576C239.164 119.014 239.57 119.232 240.113 119.232C240.648 119.232 241.045 119.025 241.303 118.611C241.564 118.197 241.701 117.545 241.713 116.654V114.879ZM247.748 120H246.658V112.775L244.473 113.578V112.594L247.578 111.428H247.748V120ZM251.422 115.723L251.855 111.469H256.227V112.471H252.775L252.518 114.797C252.936 114.551 253.41 114.428 253.941 114.428C254.719 114.428 255.336 114.686 255.793 115.201C256.25 115.713 256.479 116.406 256.479 117.281C256.479 118.16 256.24 118.854 255.764 119.361C255.291 119.865 254.629 120.117 253.777 120.117C253.023 120.117 252.408 119.908 251.932 119.49C251.455 119.072 251.184 118.494 251.117 117.756H252.143C252.209 118.244 252.383 118.613 252.664 118.863C252.945 119.109 253.316 119.232 253.777 119.232C254.281 119.232 254.676 119.061 254.961 118.717C255.25 118.373 255.395 117.898 255.395 117.293C255.395 116.723 255.238 116.266 254.926 115.922C254.617 115.574 254.205 115.4 253.689 115.4C253.217 115.4 252.846 115.504 252.576 115.711L252.289 115.945L251.422 115.723Z" fill="black"/>
<rect x="16.5" y="136.5" width="101" height="37" fill="#4F4F4F" stroke="black"/>
<path d="M53.2656 156.293C53.1602 157.195 52.8262 157.893 52.2637 158.385C51.7051 158.873 50.9609 159.117 50.0312 159.117C49.0234 159.117 48.2148 158.756 47.6055 158.033C47 157.311 46.6973 156.344 46.6973 155.133V154.312C46.6973 153.52 46.8379 152.822 47.1191 152.221C47.4043 151.619 47.8066 151.158 48.3262 150.838C48.8457 150.514 49.4473 150.352 50.1309 150.352C51.0371 150.352 51.7637 150.605 52.3105 151.113C52.8574 151.617 53.1758 152.316 53.2656 153.211H52.1348C52.0371 152.531 51.8242 152.039 51.4961 151.734C51.1719 151.43 50.7168 151.277 50.1309 151.277C49.4121 151.277 48.8477 151.543 48.4375 152.074C48.0312 152.605 47.8281 153.361 47.8281 154.342V155.168C47.8281 156.094 48.0215 156.83 48.4082 157.377C48.7949 157.924 49.3359 158.197 50.0312 158.197C50.6562 158.197 51.1348 158.057 51.4668 157.775C51.8027 157.49 52.0254 156.996 52.1348 156.293H53.2656ZM58.5508 159C58.4883 158.875 58.4375 158.652 58.3984 158.332C57.8945 158.855 57.293 159.117 56.5938 159.117C55.9688 159.117 55.4551 158.941 55.0527 158.59C54.6543 158.234 54.4551 157.785 54.4551 157.242C54.4551 156.582 54.7051 156.07 55.2051 155.707C55.709 155.34 56.416 155.156 57.3262 155.156H58.3809V154.658C58.3809 154.279 58.2676 153.979 58.041 153.756C57.8145 153.529 57.4805 153.416 57.0391 153.416C56.6523 153.416 56.3281 153.514 56.0664 153.709C55.8047 153.904 55.6738 154.141 55.6738 154.418H54.584C54.584 154.102 54.6953 153.797 54.918 153.504C55.1445 153.207 55.4492 152.973 55.832 152.801C56.2188 152.629 56.6426 152.543 57.1035 152.543C57.834 152.543 58.4062 152.727 58.8203 153.094C59.2344 153.457 59.4492 153.959 59.4648 154.6V157.518C59.4648 158.1 59.5391 158.562 59.6875 158.906V159H58.5508ZM56.752 158.174C57.0918 158.174 57.4141 158.086 57.7188 157.91C58.0234 157.734 58.2441 157.506 58.3809 157.225V155.924H57.5312C56.2031 155.924 55.5391 156.312 55.5391 157.09C55.5391 157.43 55.6523 157.695 55.8789 157.887C56.1055 158.078 56.3965 158.174 56.752 158.174ZM62.1895 152.66L62.2246 153.457C62.709 152.848 63.3418 152.543 64.123 152.543C65.4629 152.543 66.1387 153.299 66.1504 154.811V159H65.0664V154.805C65.0625 154.348 64.957 154.01 64.75 153.791C64.5469 153.572 64.2285 153.463 63.7949 153.463C63.4434 153.463 63.1348 153.557 62.8691 153.744C62.6035 153.932 62.3965 154.178 62.248 154.482V159H61.1641V152.66H62.1895ZM71.6992 159C71.6367 158.875 71.5859 158.652 71.5469 158.332C71.043 158.855 70.4414 159.117 69.7422 159.117C69.1172 159.117 68.6035 158.941 68.2012 158.59C67.8027 158.234 67.6035 157.785 67.6035 157.242C67.6035 156.582 67.8535 156.07 68.3535 155.707C68.8574 155.34 69.5645 155.156 70.4746 155.156H71.5293V154.658C71.5293 154.279 71.416 153.979 71.1895 153.756C70.9629 153.529 70.6289 153.416 70.1875 153.416C69.8008 153.416 69.4766 153.514 69.2148 153.709C68.9531 153.904 68.8223 154.141 68.8223 154.418H67.7324C67.7324 154.102 67.8438 153.797 68.0664 153.504C68.293 153.207 68.5977 152.973 68.9805 152.801C69.3672 152.629 69.791 152.543 70.252 152.543C70.9824 152.543 71.5547 152.727 71.9688 153.094C72.3828 153.457 72.5977 153.959 72.6133 154.6V157.518C72.6133 158.1 72.6875 158.562 72.8359 158.906V159H71.6992ZM69.9004 158.174C70.2402 158.174 70.5625 158.086 70.8672 157.91C71.1719 157.734 71.3926 157.506 71.5293 157.225V155.924H70.6797C69.3516 155.924 68.6875 156.312 68.6875 157.09C68.6875 157.43 68.8008 157.695 69.0273 157.887C69.2539 158.078 69.5449 158.174 69.9004 158.174ZM74.0488 155.777C74.0488 154.805 74.2793 154.023 74.7402 153.434C75.2012 152.84 75.8047 152.543 76.5508 152.543C77.293 152.543 77.8809 152.797 78.3145 153.305V150H79.3984V159H78.4023L78.3496 158.32C77.916 158.852 77.3125 159.117 76.5391 159.117C75.8047 159.117 75.2051 158.816 74.7402 158.215C74.2793 157.613 74.0488 156.828 74.0488 155.859V155.777ZM75.1328 155.9C75.1328 156.619 75.2812 157.182 75.5781 157.588C75.875 157.994 76.2852 158.197 76.8086 158.197C77.4961 158.197 77.998 157.889 78.3145 157.271V154.359C77.9902 153.762 77.4922 153.463 76.8203 153.463C76.2891 153.463 75.875 153.668 75.5781 154.078C75.2812 154.488 75.1328 155.096 75.1328 155.9ZM85 159C84.9375 158.875 84.8867 158.652 84.8477 158.332C84.3438 158.855 83.7422 159.117 83.043 159.117C82.418 159.117 81.9043 158.941 81.502 158.59C81.1035 158.234 80.9043 157.785 80.9043 157.242C80.9043 156.582 81.1543 156.07 81.6543 155.707C82.1582 155.34 82.8652 155.156 83.7754 155.156H84.8301V154.658C84.8301 154.279 84.7168 153.979 84.4902 153.756C84.2637 153.529 83.9297 153.416 83.4883 153.416C83.1016 153.416 82.7773 153.514 82.5156 153.709C82.2539 153.904 82.123 154.141 82.123 154.418H81.0332C81.0332 154.102 81.1445 153.797 81.3672 153.504C81.5938 153.207 81.8984 152.973 82.2812 152.801C82.668 152.629 83.0918 152.543 83.5527 152.543C84.2832 152.543 84.8555 152.727 85.2695 153.094C85.6836 153.457 85.8984 153.959 85.9141 154.6V157.518C85.9141 158.1 85.9883 158.562 86.1367 158.906V159H85ZM83.2012 158.174C83.541 158.174 83.8633 158.086 84.168 157.91C84.4727 157.734 84.6934 157.506 84.8301 157.225V155.924H83.9805C82.6523 155.924 81.9883 156.312 81.9883 157.09C81.9883 157.43 82.1016 157.695 82.3281 157.887C82.5547 158.078 82.8457 158.174 83.2012 158.174Z" fill="black"/>
<rect x="118.5" y="136.5" width="84" height="37" fill="#4F4F4F" stroke="black"/>
<path d="M161.207 154.723L161.641 150.469H166.012V151.471H162.561L162.303 153.797C162.721 153.551 163.195 153.428 163.727 153.428C164.504 153.428 165.121 153.686 165.578 154.201C166.035 154.713 166.264 155.406 166.264 156.281C166.264 157.16 166.025 157.854 165.549 158.361C165.076 158.865 164.414 159.117 163.562 159.117C162.809 159.117 162.193 158.908 161.717 158.49C161.24 158.072 160.969 157.494 160.902 156.756H161.928C161.994 157.244 162.168 157.613 162.449 157.863C162.73 158.109 163.102 158.232 163.562 158.232C164.066 158.232 164.461 158.061 164.746 157.717C165.035 157.373 165.18 156.898 165.18 156.293C165.18 155.723 165.023 155.266 164.711 154.922C164.402 154.574 163.99 154.4 163.475 154.4C163.002 154.4 162.631 154.504 162.361 154.711L162.074 154.945L161.207 154.723Z" fill="black"/>
<rect x="203.5" y="136.5" width="84" height="37" fill="#4F4F4F" stroke="black"/>
<path d="M236.299 159H230.709V158.221L233.662 154.939C234.1 154.443 234.4 154.041 234.564 153.732C234.732 153.42 234.816 153.098 234.816 152.766C234.816 152.32 234.682 151.955 234.412 151.67C234.143 151.385 233.783 151.242 233.334 151.242C232.795 151.242 232.375 151.396 232.074 151.705C231.777 152.01 231.629 152.436 231.629 152.982H230.545C230.545 152.197 230.797 151.562 231.301 151.078C231.809 150.594 232.486 150.352 233.334 150.352C234.127 150.352 234.754 150.561 235.215 150.979C235.676 151.393 235.906 151.945 235.906 152.637C235.906 153.477 235.371 154.477 234.301 155.637L232.016 158.115H236.299V159ZM242.797 155.361C242.797 156.631 242.58 157.574 242.146 158.191C241.713 158.809 241.035 159.117 240.113 159.117C239.203 159.117 238.529 158.816 238.092 158.215C237.654 157.609 237.428 156.707 237.412 155.508V154.061C237.412 152.807 237.629 151.875 238.062 151.266C238.496 150.656 239.176 150.352 240.102 150.352C241.02 150.352 241.695 150.646 242.129 151.236C242.562 151.822 242.785 152.729 242.797 153.955V155.361ZM241.713 153.879C241.713 152.961 241.584 152.293 241.326 151.875C241.068 151.453 240.66 151.242 240.102 151.242C239.547 151.242 239.143 151.451 238.889 151.869C238.635 152.287 238.504 152.93 238.496 153.797V155.531C238.496 156.453 238.629 157.135 238.895 157.576C239.164 158.014 239.57 158.232 240.113 158.232C240.648 158.232 241.045 158.025 241.303 157.611C241.564 157.197 241.701 156.545 241.713 155.654V153.879ZM247.748 159H246.658V151.775L244.473 152.578V151.594L247.578 150.428H247.748V159ZM251.422 154.723L251.855 150.469H256.227V151.471H252.775L252.518 153.797C252.936 153.551 253.41 153.428 253.941 153.428C254.719 153.428 255.336 153.686 255.793 154.201C256.25 154.713 256.479 155.406 256.479 156.281C256.479 157.16 256.24 157.854 255.764 158.361C255.291 158.865 254.629 159.117 253.777 159.117C253.023 159.117 252.408 158.908 251.932 158.49C251.455 158.072 251.184 157.494 251.117 156.756H252.143C252.209 157.244 252.383 157.613 252.664 157.863C252.945 158.109 253.316 158.232 253.777 158.232C254.281 158.232 254.676 158.061 254.961 157.717C255.25 157.373 255.395 156.898 255.395 156.293C255.395 155.723 255.238 155.266 254.926 154.922C254.617 154.574 254.205 154.4 253.689 154.4C253.217 154.4 252.846 154.504 252.576 154.711L252.289 154.945L251.422 154.723Z" fill="black"/>
<rect x="326.5" y="21.5" width="101" height="37" fill="#C4C4C4" stroke="black"/>
<rect x="428.5" y="21.5" width="84" height="37" fill="#C4C4C4" stroke="black"/>
<rect x="513.5" y="21.5" width="84" height="37" fill="#C4C4C4" stroke="black"/>
<path d="M455.592 97.752L457.818 93.4688H459.096L456.154 98.8184V102H455.029V98.8184L452.088 93.4688H453.377L455.592 97.752ZM462.271 102.117C461.412 102.117 460.713 101.836 460.174 101.273C459.635 100.707 459.365 99.9512 459.365 99.0059V98.8066C459.365 98.1777 459.484 97.6172 459.723 97.125C459.965 96.6289 460.301 96.2422 460.73 95.9648C461.164 95.6836 461.633 95.543 462.137 95.543C462.961 95.543 463.602 95.8145 464.059 96.3574C464.516 96.9004 464.744 97.6777 464.744 98.6895V99.1406H460.449C460.465 99.7656 460.646 100.271 460.994 100.658C461.346 101.041 461.791 101.232 462.33 101.232C462.713 101.232 463.037 101.154 463.303 100.998C463.568 100.842 463.801 100.635 464 100.377L464.662 100.893C464.131 101.709 463.334 102.117 462.271 102.117ZM462.137 96.4336C461.699 96.4336 461.332 96.5938 461.035 96.9141C460.738 97.2305 460.555 97.6758 460.484 98.25H463.66V98.168C463.629 97.6172 463.48 97.1914 463.215 96.8906C462.949 96.5859 462.59 96.4336 462.137 96.4336ZM469.918 102C469.855 101.875 469.805 101.652 469.766 101.332C469.262 101.855 468.66 102.117 467.961 102.117C467.336 102.117 466.822 101.941 466.42 101.59C466.021 101.234 465.822 100.785 465.822 100.242C465.822 99.582 466.072 99.0703 466.572 98.707C467.076 98.3398 467.783 98.1562 468.693 98.1562H469.748V97.6582C469.748 97.2793 469.635 96.9785 469.408 96.7559C469.182 96.5293 468.848 96.416 468.406 96.416C468.02 96.416 467.695 96.5137 467.434 96.709C467.172 96.9043 467.041 97.1406 467.041 97.418H465.951C465.951 97.1016 466.062 96.7969 466.285 96.5039C466.512 96.207 466.816 95.9727 467.199 95.8008C467.586 95.6289 468.01 95.543 468.471 95.543C469.201 95.543 469.773 95.7266 470.188 96.0938C470.602 96.457 470.816 96.959 470.832 97.5996V100.518C470.832 101.1 470.906 101.562 471.055 101.906V102H469.918ZM468.119 101.174C468.459 101.174 468.781 101.086 469.086 100.91C469.391 100.734 469.611 100.506 469.748 100.225V98.9238H468.898C467.57 98.9238 466.906 99.3125 466.906 100.09C466.906 100.43 467.02 100.695 467.246 100.887C467.473 101.078 467.764 101.174 468.119 101.174ZM475.596 96.6328C475.432 96.6055 475.254 96.5918 475.062 96.5918C474.352 96.5918 473.869 96.8945 473.615 97.5V102H472.531V95.6602H473.586L473.604 96.3926C473.959 95.8262 474.463 95.543 475.115 95.543C475.326 95.543 475.486 95.5703 475.596 95.625V96.6328Z" fill="black"/>
<path d="M363.266 41.293C363.16 42.1953 362.826 42.8926 362.264 43.3848C361.705 43.873 360.961 44.1172 360.031 44.1172C359.023 44.1172 358.215 43.7559 357.605 43.0332C357 42.3105 356.697 41.3438 356.697 40.1328V39.3125C356.697 38.5195 356.838 37.8223 357.119 37.2207C357.404 36.6191 357.807 36.1582 358.326 35.8379C358.846 35.5137 359.447 35.3516 360.131 35.3516C361.037 35.3516 361.764 35.6055 362.311 36.1133C362.857 36.6172 363.176 37.3164 363.266 38.2109H362.135C362.037 37.5312 361.824 37.0391 361.496 36.7344C361.172 36.4297 360.717 36.2773 360.131 36.2773C359.412 36.2773 358.848 36.543 358.438 37.0742C358.031 37.6055 357.828 38.3613 357.828 39.3418V40.168C357.828 41.0938 358.021 41.8301 358.408 42.377C358.795 42.9238 359.336 43.1973 360.031 43.1973C360.656 43.1973 361.135 43.0566 361.467 42.7754C361.803 42.4902 362.025 41.9961 362.135 41.293H363.266ZM364.35 40.7715C364.35 40.1504 364.471 39.5918 364.713 39.0957C364.959 38.5996 365.299 38.2168 365.732 37.9473C366.17 37.6777 366.668 37.543 367.227 37.543C368.09 37.543 368.787 37.8418 369.318 38.4395C369.854 39.0371 370.121 39.832 370.121 40.8242V40.9004C370.121 41.5176 370.002 42.0723 369.764 42.5645C369.529 43.0527 369.191 43.4336 368.75 43.707C368.312 43.9805 367.809 44.1172 367.238 44.1172C366.379 44.1172 365.682 43.8184 365.146 43.2207C364.615 42.623 364.35 41.832 364.35 40.8477V40.7715ZM365.439 40.9004C365.439 41.6035 365.602 42.168 365.926 42.5938C366.254 43.0195 366.691 43.2324 367.238 43.2324C367.789 43.2324 368.227 43.0176 368.551 42.5879C368.875 42.1543 369.037 41.5488 369.037 40.7715C369.037 40.0762 368.871 39.5137 368.539 39.084C368.211 38.6504 367.773 38.4336 367.227 38.4336C366.691 38.4336 366.26 38.6465 365.932 39.0723C365.604 39.498 365.439 40.1074 365.439 40.9004ZM375.395 43.373C374.973 43.8691 374.354 44.1172 373.537 44.1172C372.861 44.1172 372.346 43.9219 371.99 43.5312C371.639 43.1367 371.461 42.5547 371.457 41.7852V37.6602H372.541V41.7559C372.541 42.7168 372.932 43.1973 373.713 43.1973C374.541 43.1973 375.092 42.8887 375.365 42.2715V37.6602H376.449V44H375.418L375.395 43.373ZM379.127 37.6602L379.162 38.457C379.646 37.8477 380.279 37.543 381.061 37.543C382.4 37.543 383.076 38.2988 383.088 39.8105V44H382.004V39.8047C382 39.3477 381.895 39.0098 381.688 38.791C381.484 38.5723 381.166 38.4629 380.732 38.4629C380.381 38.4629 380.072 38.5566 379.807 38.7441C379.541 38.9316 379.334 39.1777 379.186 39.4824V44H378.102V37.6602H379.127ZM386.193 36.125V37.6602H387.377V38.498H386.193V42.4297C386.193 42.6836 386.246 42.875 386.352 43.0039C386.457 43.1289 386.637 43.1914 386.891 43.1914C387.016 43.1914 387.188 43.168 387.406 43.1211V44C387.121 44.0781 386.844 44.1172 386.574 44.1172C386.09 44.1172 385.725 43.9707 385.479 43.6777C385.232 43.3848 385.109 42.9688 385.109 42.4297V38.498H383.955V37.6602H385.109V36.125H386.193ZM391.713 38.6328C391.549 38.6055 391.371 38.5918 391.18 38.5918C390.469 38.5918 389.986 38.8945 389.732 39.5V44H388.648V37.6602H389.703L389.721 38.3926C390.076 37.8262 390.58 37.543 391.232 37.543C391.443 37.543 391.604 37.5703 391.713 37.625V38.6328ZM394.895 42.4121L396.371 37.6602H397.531L394.982 44.9785C394.588 46.0332 393.961 46.5605 393.102 46.5605L392.896 46.543L392.492 46.4668V45.5879L392.785 45.6113C393.152 45.6113 393.438 45.5371 393.641 45.3887C393.848 45.2402 394.018 44.9688 394.15 44.5742L394.391 43.9297L392.129 37.6602H393.312L394.895 42.4121Z" fill="black"/>
<rect x="326.5" y="59.5" width="101" height="37" fill="#4F4F4F" stroke="black"/>
<path d="M358.197 81H357.072V72.4688H358.197V81ZM362.633 80.2324C363.02 80.2324 363.357 80.1152 363.646 79.8809C363.936 79.6465 364.096 79.3535 364.127 79.002H365.152C365.133 79.3652 365.008 79.7109 364.777 80.0391C364.547 80.3672 364.238 80.6289 363.852 80.8242C363.469 81.0195 363.062 81.1172 362.633 81.1172C361.77 81.1172 361.082 80.8301 360.57 80.2559C360.062 79.6777 359.809 78.8887 359.809 77.8887V77.707C359.809 77.0898 359.922 76.541 360.148 76.0605C360.375 75.5801 360.699 75.207 361.121 74.9414C361.547 74.6758 362.049 74.543 362.627 74.543C363.338 74.543 363.928 74.7559 364.396 75.1816C364.869 75.6074 365.121 76.1602 365.152 76.8398H364.127C364.096 76.4297 363.939 76.0938 363.658 75.832C363.381 75.5664 363.037 75.4336 362.627 75.4336C362.076 75.4336 361.648 75.6328 361.344 76.0312C361.043 76.4258 360.893 76.998 360.893 77.748V77.9531C360.893 78.6836 361.043 79.2461 361.344 79.6406C361.645 80.0352 362.074 80.2324 362.633 80.2324ZM369.002 81.1172C368.143 81.1172 367.443 80.8359 366.904 80.2734C366.365 79.707 366.096 78.9512 366.096 78.0059V77.8066C366.096 77.1777 366.215 76.6172 366.453 76.125C366.695 75.6289 367.031 75.2422 367.461 74.9648C367.895 74.6836 368.363 74.543 368.867 74.543C369.691 74.543 370.332 74.8145 370.789 75.3574C371.246 75.9004 371.475 76.6777 371.475 77.6895V78.1406H367.18C367.195 78.7656 367.377 79.2715 367.725 79.6582C368.076 80.041 368.521 80.2324 369.061 80.2324C369.443 80.2324 369.768 80.1543 370.033 79.998C370.299 79.8418 370.531 79.6348 370.73 79.377L371.393 79.8926C370.861 80.709 370.064 81.1172 369.002 81.1172ZM368.867 75.4336C368.43 75.4336 368.062 75.5938 367.766 75.9141C367.469 76.2305 367.285 76.6758 367.215 77.25H370.391V77.168C370.359 76.6172 370.211 76.1914 369.945 75.8906C369.68 75.5859 369.32 75.4336 368.867 75.4336ZM373.912 81H372.828V72H373.912V81ZM379.566 81C379.504 80.875 379.453 80.6523 379.414 80.332C378.91 80.8555 378.309 81.1172 377.609 81.1172C376.984 81.1172 376.471 80.9414 376.068 80.5898C375.67 80.2344 375.471 79.7852 375.471 79.2422C375.471 78.582 375.721 78.0703 376.221 77.707C376.725 77.3398 377.432 77.1562 378.342 77.1562H379.396V76.6582C379.396 76.2793 379.283 75.9785 379.057 75.7559C378.83 75.5293 378.496 75.416 378.055 75.416C377.668 75.416 377.344 75.5137 377.082 75.709C376.82 75.9043 376.689 76.1406 376.689 76.418H375.6C375.6 76.1016 375.711 75.7969 375.934 75.5039C376.16 75.207 376.465 74.9727 376.848 74.8008C377.234 74.6289 377.658 74.543 378.119 74.543C378.85 74.543 379.422 74.7266 379.836 75.0938C380.25 75.457 380.465 75.959 380.48 76.5996V79.5176C380.48 80.0996 380.555 80.5625 380.703 80.9062V81H379.566ZM377.768 80.1738C378.107 80.1738 378.43 80.0859 378.734 79.9102C379.039 79.7344 379.26 79.5059 379.396 79.2246V77.9238H378.547C377.219 77.9238 376.555 78.3125 376.555 79.0898C376.555 79.4297 376.668 79.6953 376.895 79.8867C377.121 80.0781 377.412 80.1738 377.768 80.1738ZM383.205 74.6602L383.24 75.457C383.725 74.8477 384.357 74.543 385.139 74.543C386.479 74.543 387.154 75.2988 387.166 76.8105V81H386.082V76.8047C386.078 76.3477 385.973 76.0098 385.766 75.791C385.562 75.5723 385.244 75.4629 384.811 75.4629C384.459 75.4629 384.15 75.5566 383.885 75.7441C383.619 75.9316 383.412 76.1777 383.264 76.4824V81H382.18V74.6602H383.205ZM388.537 77.7773C388.537 76.8047 388.768 76.0234 389.229 75.4336C389.689 74.8398 390.293 74.543 391.039 74.543C391.781 74.543 392.369 74.7969 392.803 75.3047V72H393.887V81H392.891L392.838 80.3203C392.404 80.8516 391.801 81.1172 391.027 81.1172C390.293 81.1172 389.693 80.8164 389.229 80.2148C388.768 79.6133 388.537 78.8281 388.537 77.8594V77.7773ZM389.621 77.9004C389.621 78.6191 389.77 79.1816 390.066 79.5879C390.363 79.9941 390.773 80.1973 391.297 80.1973C391.984 80.1973 392.486 79.8887 392.803 79.2715V76.3594C392.479 75.7617 391.98 75.4629 391.309 75.4629C390.777 75.4629 390.363 75.668 390.066 76.0781C389.77 76.4883 389.621 77.0957 389.621 77.9004Z" fill="black"/>
<path d="M436.504 97.1973C435.539 96.9199 434.836 96.5801 434.395 96.1777C433.957 95.7715 433.738 95.2715 433.738 94.6777C433.738 94.0059 434.006 93.4512 434.541 93.0137C435.08 92.5723 435.779 92.3516 436.639 92.3516C437.225 92.3516 437.746 92.4648 438.203 92.6914C438.664 92.918 439.02 93.2305 439.27 93.6289C439.523 94.0273 439.65 94.4629 439.65 94.9355H438.52C438.52 94.4199 438.355 94.0156 438.027 93.7227C437.699 93.4258 437.236 93.2773 436.639 93.2773C436.084 93.2773 435.65 93.4004 435.338 93.6465C435.029 93.8887 434.875 94.2266 434.875 94.6602C434.875 95.0078 435.021 95.3027 435.314 95.5449C435.611 95.7832 436.113 96.002 436.82 96.2012C437.531 96.4004 438.086 96.6211 438.484 96.8633C438.887 97.1016 439.184 97.3809 439.375 97.7012C439.57 98.0215 439.668 98.3984 439.668 98.832C439.668 99.5234 439.398 100.078 438.859 100.496C438.32 100.91 437.6 101.117 436.697 101.117C436.111 101.117 435.564 101.006 435.057 100.783C434.549 100.557 434.156 100.248 433.879 99.8574C433.605 99.4668 433.469 99.0234 433.469 98.5273H434.6C434.6 99.043 434.789 99.4512 435.168 99.752C435.551 100.049 436.061 100.197 436.697 100.197C437.291 100.197 437.746 100.076 438.062 99.834C438.379 99.5918 438.537 99.2617 438.537 98.8438C438.537 98.4258 438.391 98.1035 438.098 97.877C437.805 97.6465 437.273 97.4199 436.504 97.1973ZM446.559 99.5059L447.777 94.6602H448.861L447.016 101H446.137L444.596 96.1953L443.096 101H442.217L440.377 94.6602H441.455L442.703 99.4062L444.18 94.6602H445.053L446.559 99.5059ZM451.146 101H450.062V94.6602H451.146V101ZM449.975 92.9785C449.975 92.8027 450.027 92.6543 450.133 92.5332C450.242 92.4121 450.402 92.3516 450.613 92.3516C450.824 92.3516 450.984 92.4121 451.094 92.5332C451.203 92.6543 451.258 92.8027 451.258 92.9785C451.258 93.1543 451.203 93.3008 451.094 93.418C450.984 93.5352 450.824 93.5938 450.613 93.5938C450.402 93.5938 450.242 93.5352 450.133 93.418C450.027 93.3008 449.975 93.1543 449.975 92.9785ZM454.357 93.125V94.6602H455.541V95.498H454.357V99.4297C454.357 99.6836 454.41 99.875 454.516 100.004C454.621 100.129 454.801 100.191 455.055 100.191C455.18 100.191 455.352 100.168 455.57 100.121V101C455.285 101.078 455.008 101.117 454.738 101.117C454.254 101.117 453.889 100.971 453.643 100.678C453.396 100.385 453.273 99.9688 453.273 99.4297V95.498H452.119V94.6602H453.273V93.125H454.357ZM457.832 100.115H461.541V101H456.508V100.203L460.006 95.5566H456.561V94.6602H461.365V95.4277L457.832 100.115ZM465.303 101.117C464.443 101.117 463.744 100.836 463.205 100.273C462.666 99.707 462.396 98.9512 462.396 98.0059V97.8066C462.396 97.1777 462.516 96.6172 462.754 96.125C462.996 95.6289 463.332 95.2422 463.762 94.9648C464.195 94.6836 464.664 94.543 465.168 94.543C465.992 94.543 466.633 94.8145 467.09 95.3574C467.547 95.9004 467.775 96.6777 467.775 97.6895V98.1406H463.48C463.496 98.7656 463.678 99.2715 464.025 99.6582C464.377 100.041 464.822 100.232 465.361 100.232C465.744 100.232 466.068 100.154 466.334 99.998C466.6 99.8418 466.832 99.6348 467.031 99.377L467.693 99.8926C467.162 100.709 466.365 101.117 465.303 101.117ZM465.168 95.4336C464.73 95.4336 464.363 95.5938 464.066 95.9141C463.77 96.2305 463.586 96.6758 463.516 97.25H466.691V97.168C466.66 96.6172 466.512 96.1914 466.246 95.8906C465.98 95.5859 465.621 95.4336 465.168 95.4336ZM472.1 95.6328C471.936 95.6055 471.758 95.5918 471.566 95.5918C470.855 95.5918 470.373 95.8945 470.119 96.5V101H469.035V94.6602H470.09L470.107 95.3926C470.463 94.8262 470.967 94.543 471.619 94.543C471.83 94.543 471.99 94.5703 472.1 94.625V95.6328ZM474.279 101H473.195V92H474.279V101ZM479.934 101C479.871 100.875 479.82 100.652 479.781 100.332C479.277 100.855 478.676 101.117 477.977 101.117C477.352 101.117 476.838 100.941 476.436 100.59C476.037 100.234 475.838 99.7852 475.838 99.2422C475.838 98.582 476.088 98.0703 476.588 97.707C477.092 97.3398 477.799 97.1562 478.709 97.1562H479.764V96.6582C479.764 96.2793 479.65 95.9785 479.424 95.7559C479.197 95.5293 478.863 95.416 478.422 95.416C478.035 95.416 477.711 95.5137 477.449 95.709C477.188 95.9043 477.057 96.1406 477.057 96.418H475.967C475.967 96.1016 476.078 95.7969 476.301 95.5039C476.527 95.207 476.832 94.9727 477.215 94.8008C477.602 94.6289 478.025 94.543 478.486 94.543C479.217 94.543 479.789 94.7266 480.203 95.0938C480.617 95.457 480.832 95.959 480.848 96.5996V99.5176C480.848 100.1 480.922 100.562 481.07 100.906V101H479.934ZM478.135 100.174C478.475 100.174 478.797 100.086 479.102 99.9102C479.406 99.7344 479.627 99.5059 479.764 99.2246V97.9238H478.914C477.586 97.9238 476.922 98.3125 476.922 99.0898C476.922 99.4297 477.035 99.6953 477.262 99.8867C477.488 100.078 477.779 100.174 478.135 100.174ZM483.572 94.6602L483.607 95.457C484.092 94.8477 484.725 94.543 485.506 94.543C486.846 94.543 487.521 95.2988 487.533 96.8105V101H486.449V96.8047C486.445 96.3477 486.34 96.0098 486.133 95.791C485.93 95.5723 485.611 95.4629 485.178 95.4629C484.826 95.4629 484.518 95.5566 484.252 95.7441C483.986 95.9316 483.779 96.1777 483.631 96.4824V101H482.547V94.6602H483.572ZM488.904 97.7773C488.904 96.8047 489.135 96.0234 489.596 95.4336C490.057 94.8398 490.66 94.543 491.406 94.543C492.148 94.543 492.736 94.7969 493.17 95.3047V92H494.254V101H493.258L493.205 100.32C492.771 100.852 492.168 101.117 491.395 101.117C490.66 101.117 490.061 100.816 489.596 100.215C489.135 99.6133 488.904 98.8281 488.904 97.8594V97.7773ZM489.988 97.9004C489.988 98.6191 490.137 99.1816 490.434 99.5879C490.73 99.9941 491.141 100.197 491.664 100.197C492.352 100.197 492.854 99.8887 493.17 99.2715V96.3594C492.846 95.7617 492.348 95.4629 491.676 95.4629C491.145 95.4629 490.73 95.668 490.434 96.0781C490.137 96.4883 489.988 97.0957 489.988 97.9004Z" fill="black"/>
<rect x="326.5" y="97.5" width="101" height="37" fill="#F0E442" stroke="black"/>
<path d="M363.547 119H362.416L358.121 112.426V119H356.99V110.469H358.121L362.428 117.072V110.469H363.547V119ZM365.088 115.771C365.088 115.15 365.209 114.592 365.451 114.096C365.697 113.6 366.037 113.217 366.471 112.947C366.908 112.678 367.406 112.543 367.965 112.543C368.828 112.543 369.525 112.842 370.057 113.439C370.592 114.037 370.859 114.832 370.859 115.824V115.9C370.859 116.518 370.74 117.072 370.502 117.564C370.268 118.053 369.93 118.434 369.488 118.707C369.051 118.98 368.547 119.117 367.977 119.117C367.117 119.117 366.42 118.818 365.885 118.221C365.354 117.623 365.088 116.832 365.088 115.848V115.771ZM366.178 115.9C366.178 116.604 366.34 117.168 366.664 117.594C366.992 118.02 367.43 118.232 367.977 118.232C368.527 118.232 368.965 118.018 369.289 117.588C369.613 117.154 369.775 116.549 369.775 115.771C369.775 115.076 369.609 114.514 369.277 114.084C368.949 113.65 368.512 113.434 367.965 113.434C367.43 113.434 366.998 113.646 366.67 114.072C366.342 114.498 366.178 115.107 366.178 115.9ZM375.283 113.633C375.119 113.605 374.941 113.592 374.75 113.592C374.039 113.592 373.557 113.895 373.303 114.5V119H372.219V112.66H373.273L373.291 113.393C373.646 112.826 374.15 112.543 374.803 112.543C375.014 112.543 375.174 112.57 375.283 112.625V113.633ZM382.004 117.506L383.223 112.66H384.307L382.461 119H381.582L380.041 114.195L378.541 119H377.662L375.822 112.66H376.9L378.148 117.406L379.625 112.66H380.498L382.004 117.506ZM389.328 119C389.266 118.875 389.215 118.652 389.176 118.332C388.672 118.855 388.07 119.117 387.371 119.117C386.746 119.117 386.232 118.941 385.83 118.59C385.432 118.234 385.232 117.785 385.232 117.242C385.232 116.582 385.482 116.07 385.982 115.707C386.486 115.34 387.193 115.156 388.104 115.156H389.158V114.658C389.158 114.279 389.045 113.979 388.818 113.756C388.592 113.529 388.258 113.416 387.816 113.416C387.43 113.416 387.105 113.514 386.844 113.709C386.582 113.904 386.451 114.141 386.451 114.418H385.361C385.361 114.102 385.473 113.797 385.695 113.504C385.922 113.207 386.227 112.973 386.609 112.801C386.996 112.629 387.42 112.543 387.881 112.543C388.611 112.543 389.184 112.727 389.598 113.094C390.012 113.457 390.227 113.959 390.242 114.6V117.518C390.242 118.1 390.316 118.562 390.465 118.906V119H389.328ZM387.529 118.174C387.869 118.174 388.191 118.086 388.496 117.91C388.801 117.734 389.021 117.506 389.158 117.225V115.924H388.309C386.98 115.924 386.316 116.312 386.316 117.09C386.316 117.43 386.43 117.695 386.656 117.887C386.883 118.078 387.174 118.174 387.529 118.174ZM393.922 117.412L395.398 112.66H396.559L394.01 119.979C393.615 121.033 392.988 121.561 392.129 121.561L391.924 121.543L391.52 121.467V120.588L391.812 120.611C392.18 120.611 392.465 120.537 392.668 120.389C392.875 120.24 393.045 119.969 393.178 119.574L393.418 118.93L391.156 112.66H392.34L393.922 117.412Z" fill="black"/>
<rect x="326.5" y="134.5" width="101" height="37" fill="#4F4F4F" stroke="black"/>
<rect x="428.5" y="59.5" width="84" height="37" fill="#4F4F4F" stroke="black"/>
<rect x="428.5" y="97.5" width="84" height="37" fill="white" stroke="black"/>
<path d="M470.285 117.135H471.469V118.02H470.285V120H469.195V118.02H465.311V117.381L469.131 111.469H470.285V117.135ZM466.541 117.135H469.195V112.951L469.066 113.186L466.541 117.135Z" fill="black"/>
<rect x="428.5" y="134.5" width="84" height="37" fill="#4F4F4F" stroke="black"/>
<path d="M466.207 152.723L466.641 148.469H471.012V149.471H467.561L467.303 151.797C467.721 151.551 468.195 151.428 468.727 151.428C469.504 151.428 470.121 151.686 470.578 152.201C471.035 152.713 471.264 153.406 471.264 154.281C471.264 155.16 471.025 155.854 470.549 156.361C470.076 156.865 469.414 157.117 468.562 157.117C467.809 157.117 467.193 156.908 466.717 156.49C466.24 156.072 465.969 155.494 465.902 154.756H466.928C466.994 155.244 467.168 155.613 467.449 155.863C467.73 156.109 468.102 156.232 468.562 156.232C469.066 156.232 469.461 156.061 469.746 155.717C470.035 155.373 470.18 154.898 470.18 154.293C470.18 153.723 470.023 153.266 469.711 152.922C469.402 152.574 468.99 152.4 468.475 152.4C468.002 152.4 467.631 152.504 467.361 152.711L467.074 152.945L466.207 152.723Z" fill="black"/>
<rect x="513.5" y="59.5" width="84" height="37" fill="#4F4F4F" stroke="black"/>
<rect x="513.5" y="97.5" width="84" height="37" fill="white" stroke="black"/>
<path d="M550.299 121H544.709V120.221L547.662 116.939C548.1 116.443 548.4 116.041 548.564 115.732C548.732 115.42 548.816 115.098 548.816 114.766C548.816 114.32 548.682 113.955 548.412 113.67C548.143 113.385 547.783 113.242 547.334 113.242C546.795 113.242 546.375 113.396 546.074 113.705C545.777 114.01 545.629 114.436 545.629 114.982H544.545C544.545 114.197 544.797 113.562 545.301 113.078C545.809 112.594 546.486 112.352 547.334 112.352C548.127 112.352 548.754 112.561 549.215 112.979C549.676 113.393 549.906 113.945 549.906 114.637C549.906 115.477 549.371 116.477 548.301 117.637L546.016 120.115H550.299V121ZM556.797 117.361C556.797 118.631 556.58 119.574 556.146 120.191C555.713 120.809 555.035 121.117 554.113 121.117C553.203 121.117 552.529 120.816 552.092 120.215C551.654 119.609 551.428 118.707 551.412 117.508V116.061C551.412 114.807 551.629 113.875 552.062 113.266C552.496 112.656 553.176 112.352 554.102 112.352C555.02 112.352 555.695 112.646 556.129 113.236C556.562 113.822 556.785 114.729 556.797 115.955V117.361ZM555.713 115.879C555.713 114.961 555.584 114.293 555.326 113.875C555.068 113.453 554.66 113.242 554.102 113.242C553.547 113.242 553.143 113.451 552.889 113.869C552.635 114.287 552.504 114.93 552.496 115.797V117.531C552.496 118.453 552.629 119.135 552.895 119.576C553.164 120.014 553.57 120.232 554.113 120.232C554.648 120.232 555.045 120.025 555.303 119.611C555.564 119.197 555.701 118.545 555.713 117.654V115.879ZM561.748 121H560.658V113.775L558.473 114.578V113.594L561.578 112.428H561.748V121ZM569.178 112.463V113.383H568.979C568.135 113.398 567.463 113.648 566.963 114.133C566.463 114.617 566.174 115.299 566.096 116.178C566.545 115.662 567.158 115.404 567.936 115.404C568.678 115.404 569.27 115.666 569.711 116.189C570.156 116.713 570.379 117.389 570.379 118.217C570.379 119.096 570.139 119.799 569.658 120.326C569.182 120.854 568.541 121.117 567.736 121.117C566.92 121.117 566.258 120.805 565.75 120.18C565.242 119.551 564.988 118.742 564.988 117.754V117.338C564.988 115.768 565.322 114.568 565.99 113.74C566.662 112.908 567.66 112.482 568.984 112.463H569.178ZM567.754 116.307C567.383 116.307 567.041 116.418 566.729 116.641C566.416 116.863 566.199 117.143 566.078 117.479V117.877C566.078 118.58 566.236 119.146 566.553 119.576C566.869 120.006 567.264 120.221 567.736 120.221C568.225 120.221 568.607 120.041 568.885 119.682C569.166 119.322 569.307 118.852 569.307 118.27C569.307 117.684 569.164 117.211 568.879 116.852C568.598 116.488 568.223 116.307 567.754 116.307Z" fill="black"/>
<rect x="513.5" y="134.5" width="84" height="37" fill="#4F4F4F" stroke="black"/>
<path d="M361.695 153.232H358.115V157H356.99V148.469H362.275V149.395H358.115V152.312H361.695V153.232ZM364.631 157H363.547V150.66H364.631V157ZM363.459 148.979C363.459 148.803 363.512 148.654 363.617 148.533C363.727 148.412 363.887 148.352 364.098 148.352C364.309 148.352 364.469 148.412 364.578 148.533C364.688 148.654 364.742 148.803 364.742 148.979C364.742 149.154 364.688 149.301 364.578 149.418C364.469 149.535 364.309 149.594 364.098 149.594C363.887 149.594 363.727 149.535 363.617 149.418C363.512 149.301 363.459 149.154 363.459 148.979ZM367.396 150.66L367.432 151.457C367.916 150.848 368.549 150.543 369.33 150.543C370.67 150.543 371.346 151.299 371.357 152.811V157H370.273V152.805C370.27 152.348 370.164 152.01 369.957 151.791C369.754 151.572 369.436 151.463 369.002 151.463C368.65 151.463 368.342 151.557 368.076 151.744C367.811 151.932 367.604 152.178 367.455 152.482V157H366.371V150.66H367.396ZM374.17 157H373.086V148H374.17V157ZM379.824 157C379.762 156.875 379.711 156.652 379.672 156.332C379.168 156.855 378.566 157.117 377.867 157.117C377.242 157.117 376.729 156.941 376.326 156.59C375.928 156.234 375.729 155.785 375.729 155.242C375.729 154.582 375.979 154.07 376.479 153.707C376.982 153.34 377.689 153.156 378.6 153.156H379.654V152.658C379.654 152.279 379.541 151.979 379.314 151.756C379.088 151.529 378.754 151.416 378.312 151.416C377.926 151.416 377.602 151.514 377.34 151.709C377.078 151.904 376.947 152.141 376.947 152.418H375.857C375.857 152.102 375.969 151.797 376.191 151.504C376.418 151.207 376.723 150.973 377.105 150.801C377.492 150.629 377.916 150.543 378.377 150.543C379.107 150.543 379.68 150.727 380.094 151.094C380.508 151.457 380.723 151.959 380.738 152.6V155.518C380.738 156.1 380.812 156.562 380.961 156.906V157H379.824ZM378.025 156.174C378.365 156.174 378.688 156.086 378.992 155.91C379.297 155.734 379.518 155.506 379.654 155.225V153.924H378.805C377.477 153.924 376.812 154.312 376.812 155.09C376.812 155.43 376.926 155.695 377.152 155.887C377.379 156.078 377.67 156.174 378.025 156.174ZM383.463 150.66L383.498 151.457C383.982 150.848 384.615 150.543 385.396 150.543C386.736 150.543 387.412 151.299 387.424 152.811V157H386.34V152.805C386.336 152.348 386.23 152.01 386.023 151.791C385.82 151.572 385.502 151.463 385.068 151.463C384.717 151.463 384.408 151.557 384.143 151.744C383.877 151.932 383.67 152.178 383.521 152.482V157H382.438V150.66H383.463ZM388.795 153.777C388.795 152.805 389.025 152.023 389.486 151.434C389.947 150.84 390.551 150.543 391.297 150.543C392.039 150.543 392.627 150.797 393.061 151.305V148H394.145V157H393.148L393.096 156.32C392.662 156.852 392.059 157.117 391.285 157.117C390.551 157.117 389.951 156.816 389.486 156.215C389.025 155.613 388.795 154.828 388.795 153.859V153.777ZM389.879 153.9C389.879 154.619 390.027 155.182 390.324 155.588C390.621 155.994 391.031 156.197 391.555 156.197C392.242 156.197 392.744 155.889 393.061 155.271V152.359C392.736 151.762 392.238 151.463 391.566 151.463C391.035 151.463 390.621 151.668 390.324 152.078C390.027 152.488 389.879 153.096 389.879 153.9Z" fill="black"/>
<path d="M448.641 37H447.51V33.0566H443.209V37H442.084V28.4688H443.209V32.1367H447.51V28.4688H448.641V37ZM454.383 37C454.32 36.875 454.27 36.6523 454.23 36.332C453.727 36.8555 453.125 37.1172 452.426 37.1172C451.801 37.1172 451.287 36.9414 450.885 36.5898C450.486 36.2344 450.287 35.7852 450.287 35.2422C450.287 34.582 450.537 34.0703 451.037 33.707C451.541 33.3398 452.248 33.1562 453.158 33.1562H454.213V32.6582C454.213 32.2793 454.1 31.9785 453.873 31.7559C453.646 31.5293 453.312 31.416 452.871 31.416C452.484 31.416 452.16 31.5137 451.898 31.709C451.637 31.9043 451.506 32.1406 451.506 32.418H450.416C450.416 32.1016 450.527 31.7969 450.75 31.5039C450.977 31.207 451.281 30.9727 451.664 30.8008C452.051 30.6289 452.475 30.543 452.936 30.543C453.666 30.543 454.238 30.7266 454.652 31.0938C455.066 31.457 455.281 31.959 455.297 32.5996V35.5176C455.297 36.0996 455.371 36.5625 455.52 36.9062V37H454.383ZM452.584 36.1738C452.924 36.1738 453.246 36.0859 453.551 35.9102C453.855 35.7344 454.076 35.5059 454.213 35.2246V33.9238H453.363C452.035 33.9238 451.371 34.3125 451.371 35.0898C451.371 35.4297 451.484 35.6953 451.711 35.8867C451.938 36.0781 452.229 36.1738 452.584 36.1738ZM462.352 33.9004C462.352 34.8652 462.131 35.6426 461.689 36.2324C461.248 36.8223 460.65 37.1172 459.896 37.1172C459.127 37.1172 458.521 36.873 458.08 36.3848V39.4375H456.996V30.6602H457.986L458.039 31.3633C458.48 30.8164 459.094 30.543 459.879 30.543C460.641 30.543 461.242 30.8301 461.684 31.4043C462.129 31.9785 462.352 32.7773 462.352 33.8008V33.9004ZM461.268 33.7773C461.268 33.0625 461.115 32.498 460.811 32.084C460.506 31.6699 460.088 31.4629 459.557 31.4629C458.9 31.4629 458.408 31.7539 458.08 32.3359V35.3652C458.404 35.9434 458.9 36.2324 459.568 36.2324C460.088 36.2324 460.5 36.0273 460.805 35.6172C461.113 35.2031 461.268 34.5898 461.268 33.7773ZM469.09 33.9004C469.09 34.8652 468.869 35.6426 468.428 36.2324C467.986 36.8223 467.389 37.1172 466.635 37.1172C465.865 37.1172 465.26 36.873 464.818 36.3848V39.4375H463.734V30.6602H464.725L464.777 31.3633C465.219 30.8164 465.832 30.543 466.617 30.543C467.379 30.543 467.98 30.8301 468.422 31.4043C468.867 31.9785 469.09 32.7773 469.09 33.8008V33.9004ZM468.006 33.7773C468.006 33.0625 467.854 32.498 467.549 32.084C467.244 31.6699 466.826 31.4629 466.295 31.4629C465.639 31.4629 465.146 31.7539 464.818 32.3359V35.3652C465.143 35.9434 465.639 36.2324 466.307 36.2324C466.826 36.2324 467.238 36.0273 467.543 35.6172C467.852 35.2031 468.006 34.5898 468.006 33.7773ZM471.65 37H470.566V30.6602H471.65V37ZM470.479 28.9785C470.479 28.8027 470.531 28.6543 470.637 28.5332C470.746 28.4121 470.906 28.3516 471.117 28.3516C471.328 28.3516 471.488 28.4121 471.598 28.5332C471.707 28.6543 471.762 28.8027 471.762 28.9785C471.762 29.1543 471.707 29.3008 471.598 29.418C471.488 29.5352 471.328 29.5938 471.117 29.5938C470.906 29.5938 470.746 29.5352 470.637 29.418C470.531 29.3008 470.479 29.1543 470.479 28.9785ZM474.416 30.6602L474.451 31.457C474.936 30.8477 475.568 30.543 476.35 30.543C477.689 30.543 478.365 31.2988 478.377 32.8105V37H477.293V32.8047C477.289 32.3477 477.184 32.0098 476.977 31.791C476.773 31.5723 476.455 31.4629 476.021 31.4629C475.67 31.4629 475.361 31.5566 475.096 31.7441C474.83 31.9316 474.623 32.1777 474.475 32.4824V37H473.391V30.6602H474.416ZM482.643 37.1172C481.783 37.1172 481.084 36.8359 480.545 36.2734C480.006 35.707 479.736 34.9512 479.736 34.0059V33.8066C479.736 33.1777 479.855 32.6172 480.094 32.125C480.336 31.6289 480.672 31.2422 481.102 30.9648C481.535 30.6836 482.004 30.543 482.508 30.543C483.332 30.543 483.973 30.8145 484.43 31.3574C484.887 31.9004 485.115 32.6777 485.115 33.6895V34.1406H480.82C480.836 34.7656 481.018 35.2715 481.365 35.6582C481.717 36.041 482.162 36.2324 482.701 36.2324C483.084 36.2324 483.408 36.1543 483.674 35.998C483.939 35.8418 484.172 35.6348 484.371 35.377L485.033 35.8926C484.502 36.709 483.705 37.1172 482.643 37.1172ZM482.508 31.4336C482.07 31.4336 481.703 31.5938 481.406 31.9141C481.109 32.2305 480.926 32.6758 480.855 33.25H484.031V33.168C484 32.6172 483.852 32.1914 483.586 31.8906C483.32 31.5859 482.961 31.4336 482.508 31.4336ZM490.066 35.3184C490.066 35.0254 489.955 34.7988 489.732 34.6387C489.514 34.4746 489.129 34.334 488.578 34.2168C488.031 34.0996 487.596 33.959 487.271 33.7949C486.951 33.6309 486.713 33.4355 486.557 33.209C486.404 32.9824 486.328 32.7129 486.328 32.4004C486.328 31.8809 486.547 31.4414 486.984 31.082C487.426 30.7227 487.988 30.543 488.672 30.543C489.391 30.543 489.973 30.7285 490.418 31.0996C490.867 31.4707 491.092 31.9453 491.092 32.5234H490.002C490.002 32.2266 489.875 31.9707 489.621 31.7559C489.371 31.541 489.055 31.4336 488.672 31.4336C488.277 31.4336 487.969 31.5195 487.746 31.6914C487.523 31.8633 487.412 32.0879 487.412 32.3652C487.412 32.627 487.516 32.8242 487.723 32.957C487.93 33.0898 488.303 33.2168 488.842 33.3379C489.385 33.459 489.824 33.6035 490.16 33.7715C490.496 33.9395 490.744 34.1426 490.904 34.3809C491.068 34.6152 491.15 34.9023 491.15 35.2422C491.15 35.8086 490.924 36.2637 490.471 36.6074C490.018 36.9473 489.43 37.1172 488.707 37.1172C488.199 37.1172 487.75 37.0273 487.359 36.8477C486.969 36.668 486.662 36.418 486.439 36.0977C486.221 35.7734 486.111 35.4238 486.111 35.0488H487.195C487.215 35.4121 487.359 35.7012 487.629 35.916C487.902 36.127 488.262 36.2324 488.707 36.2324C489.117 36.2324 489.445 36.1504 489.691 35.9863C489.941 35.8184 490.066 35.5957 490.066 35.3184ZM496.254 35.3184C496.254 35.0254 496.143 34.7988 495.92 34.6387C495.701 34.4746 495.316 34.334 494.766 34.2168C494.219 34.0996 493.783 33.959 493.459 33.7949C493.139 33.6309 492.9 33.4355 492.744 33.209C492.592 32.9824 492.516 32.7129 492.516 32.4004C492.516 31.8809 492.734 31.4414 493.172 31.082C493.613 30.7227 494.176 30.543 494.859 30.543C495.578 30.543 496.16 30.7285 496.605 31.0996C497.055 31.4707 497.279 31.9453 497.279 32.5234H496.189C496.189 32.2266 496.062 31.9707 495.809 31.7559C495.559 31.541 495.242 31.4336 494.859 31.4336C494.465 31.4336 494.156 31.5195 493.934 31.6914C493.711 31.8633 493.6 32.0879 493.6 32.3652C493.6 32.627 493.703 32.8242 493.91 32.957C494.117 33.0898 494.49 33.2168 495.029 33.3379C495.572 33.459 496.012 33.6035 496.348 33.7715C496.684 33.9395 496.932 34.1426 497.092 34.3809C497.256 34.6152 497.338 34.9023 497.338 35.2422C497.338 35.8086 497.111 36.2637 496.658 36.6074C496.205 36.9473 495.617 37.1172 494.895 37.1172C494.387 37.1172 493.938 37.0273 493.547 36.8477C493.156 36.668 492.85 36.418 492.627 36.0977C492.408 35.7734 492.299 35.4238 492.299 35.0488H493.383C493.402 35.4121 493.547 35.7012 493.816 35.916C494.09 36.127 494.449 36.2324 494.895 36.2324C495.305 36.2324 495.633 36.1504 495.879 35.9863C496.129 35.8184 496.254 35.5957 496.254 35.3184ZM461.807 47.5488H459.803V51H458.672V42.4688H461.496C462.457 42.4688 463.195 42.6875 463.711 43.125C464.23 43.5625 464.49 44.1992 464.49 45.0352C464.49 45.5664 464.346 46.0293 464.057 46.4238C463.771 46.8184 463.373 47.1133 462.861 47.3086L464.865 50.9297V51H463.658L461.807 47.5488ZM459.803 46.6289H461.531C462.09 46.6289 462.533 46.4844 462.861 46.1953C463.193 45.9062 463.359 45.5195 463.359 45.0352C463.359 44.5078 463.201 44.1035 462.885 43.8223C462.572 43.541 462.119 43.3984 461.525 43.3945H459.803V46.6289ZM469.816 51C469.754 50.875 469.703 50.6523 469.664 50.332C469.16 50.8555 468.559 51.1172 467.859 51.1172C467.234 51.1172 466.721 50.9414 466.318 50.5898C465.92 50.2344 465.721 49.7852 465.721 49.2422C465.721 48.582 465.971 48.0703 466.471 47.707C466.975 47.3398 467.682 47.1562 468.592 47.1562H469.646V46.6582C469.646 46.2793 469.533 45.9785 469.307 45.7559C469.08 45.5293 468.746 45.416 468.305 45.416C467.918 45.416 467.594 45.5137 467.332 45.709C467.07 45.9043 466.939 46.1406 466.939 46.418H465.85C465.85 46.1016 465.961 45.7969 466.184 45.5039C466.41 45.207 466.715 44.9727 467.098 44.8008C467.484 44.6289 467.908 44.543 468.369 44.543C469.1 44.543 469.672 44.7266 470.086 45.0938C470.5 45.457 470.715 45.959 470.73 46.5996V49.5176C470.73 50.0996 470.805 50.5625 470.953 50.9062V51H469.816ZM468.018 50.1738C468.357 50.1738 468.68 50.0859 468.984 49.9102C469.289 49.7344 469.51 49.5059 469.646 49.2246V47.9238H468.797C467.469 47.9238 466.805 48.3125 466.805 49.0898C466.805 49.4297 466.918 49.6953 467.145 49.8867C467.371 50.0781 467.662 50.1738 468.018 50.1738ZM473.455 44.6602L473.49 45.457C473.975 44.8477 474.607 44.543 475.389 44.543C476.729 44.543 477.404 45.2988 477.416 46.8105V51H476.332V46.8047C476.328 46.3477 476.223 46.0098 476.016 45.791C475.812 45.5723 475.494 45.4629 475.061 45.4629C474.709 45.4629 474.4 45.5566 474.135 45.7441C473.869 45.9316 473.662 46.1777 473.514 46.4824V51H472.43V44.6602H473.455ZM480.82 48.0645L480.141 48.7734V51H479.057V42H480.141V47.4434L480.721 46.7461L482.695 44.6602H484.014L481.547 47.3086L484.301 51H483.029L480.82 48.0645Z" fill="black"/>
<path d="M547.592 39.752L549.818 35.4688H551.096L548.154 40.8184V44H547.029V40.8184L544.088 35.4688H545.377L547.592 39.752ZM554.271 44.1172C553.412 44.1172 552.713 43.8359 552.174 43.2734C551.635 42.707 551.365 41.9512 551.365 41.0059V40.8066C551.365 40.1777 551.484 39.6172 551.723 39.125C551.965 38.6289 552.301 38.2422 552.73 37.9648C553.164 37.6836 553.633 37.543 554.137 37.543C554.961 37.543 555.602 37.8145 556.059 38.3574C556.516 38.9004 556.744 39.6777 556.744 40.6895V41.1406H552.449C552.465 41.7656 552.646 42.2715 552.994 42.6582C553.346 43.041 553.791 43.2324 554.33 43.2324C554.713 43.2324 555.037 43.1543 555.303 42.998C555.568 42.8418 555.801 42.6348 556 42.377L556.662 42.8926C556.131 43.709 555.334 44.1172 554.271 44.1172ZM554.137 38.4336C553.699 38.4336 553.332 38.5938 553.035 38.9141C552.738 39.2305 552.555 39.6758 552.484 40.25H555.66V40.168C555.629 39.6172 555.48 39.1914 555.215 38.8906C554.949 38.5859 554.59 38.4336 554.137 38.4336ZM561.918 44C561.855 43.875 561.805 43.6523 561.766 43.332C561.262 43.8555 560.66 44.1172 559.961 44.1172C559.336 44.1172 558.822 43.9414 558.42 43.5898C558.021 43.2344 557.822 42.7852 557.822 42.2422C557.822 41.582 558.072 41.0703 558.572 40.707C559.076 40.3398 559.783 40.1562 560.693 40.1562H561.748V39.6582C561.748 39.2793 561.635 38.9785 561.408 38.7559C561.182 38.5293 560.848 38.416 560.406 38.416C560.02 38.416 559.695 38.5137 559.434 38.709C559.172 38.9043 559.041 39.1406 559.041 39.418H557.951C557.951 39.1016 558.062 38.7969 558.285 38.5039C558.512 38.207 558.816 37.9727 559.199 37.8008C559.586 37.6289 560.01 37.543 560.471 37.543C561.201 37.543 561.773 37.7266 562.188 38.0938C562.602 38.457 562.816 38.959 562.832 39.5996V42.5176C562.832 43.0996 562.906 43.5625 563.055 43.9062V44H561.918ZM560.119 43.1738C560.459 43.1738 560.781 43.0859 561.086 42.9102C561.391 42.7344 561.611 42.5059 561.748 42.2246V40.9238H560.898C559.57 40.9238 558.906 41.3125 558.906 42.0898C558.906 42.4297 559.02 42.6953 559.246 42.8867C559.473 43.0781 559.764 43.1738 560.119 43.1738ZM567.596 38.6328C567.432 38.6055 567.254 38.5918 567.062 38.5918C566.352 38.5918 565.869 38.8945 565.615 39.5V44H564.531V37.6602H565.586L565.604 38.3926C565.959 37.8262 566.463 37.543 567.115 37.543C567.326 37.543 567.486 37.5703 567.596 37.625V38.6328Z" fill="black"/>
<path d="M467.285 76.207H468.1C468.611 76.1992 469.014 76.0645 469.307 75.8027C469.6 75.541 469.746 75.1875 469.746 74.7422C469.746 73.7422 469.248 73.2422 468.252 73.2422C467.783 73.2422 467.408 73.377 467.127 73.6465C466.85 73.9121 466.711 74.2656 466.711 74.707H465.627C465.627 74.0312 465.873 73.4707 466.365 73.0254C466.861 72.5762 467.49 72.3516 468.252 72.3516C469.057 72.3516 469.688 72.5645 470.145 72.9902C470.602 73.416 470.83 74.0078 470.83 74.7656C470.83 75.1367 470.709 75.4961 470.467 75.8438C470.229 76.1914 469.902 76.4512 469.488 76.623C469.957 76.7715 470.318 77.0176 470.572 77.3613C470.83 77.7051 470.959 78.125 470.959 78.6211C470.959 79.3867 470.709 79.9941 470.209 80.4434C469.709 80.8926 469.059 81.1172 468.258 81.1172C467.457 81.1172 466.805 80.9004 466.301 80.4668C465.801 80.0332 465.551 79.4609 465.551 78.75H466.641C466.641 79.1992 466.787 79.5586 467.08 79.8281C467.373 80.0977 467.766 80.2324 468.258 80.2324C468.781 80.2324 469.182 80.0957 469.459 79.8223C469.736 79.5488 469.875 79.1562 469.875 78.6445C469.875 78.1484 469.723 77.7676 469.418 77.502C469.113 77.2363 468.674 77.0996 468.1 77.0918H467.285V76.207Z" fill="black"/>
<path d="M550.299 81H544.709V80.2207L547.662 76.9395C548.1 76.4434 548.4 76.041 548.564 75.7324C548.732 75.4199 548.816 75.0977 548.816 74.7656C548.816 74.3203 548.682 73.9551 548.412 73.6699C548.143 73.3848 547.783 73.2422 547.334 73.2422C546.795 73.2422 546.375 73.3965 546.074 73.7051C545.777 74.0098 545.629 74.4355 545.629 74.9824H544.545C544.545 74.1973 544.797 73.5625 545.301 73.0781C545.809 72.5938 546.486 72.3516 547.334 72.3516C548.127 72.3516 548.754 72.5605 549.215 72.9785C549.676 73.3926 549.906 73.9453 549.906 74.6367C549.906 75.4766 549.371 76.4766 548.301 77.6367L546.016 80.1152H550.299V81ZM556.797 77.3613C556.797 78.6309 556.58 79.5742 556.146 80.1914C555.713 80.8086 555.035 81.1172 554.113 81.1172C553.203 81.1172 552.529 80.8164 552.092 80.2148C551.654 79.6094 551.428 78.707 551.412 77.5078V76.0605C551.412 74.8066 551.629 73.875 552.062 73.2656C552.496 72.6562 553.176 72.3516 554.102 72.3516C555.02 72.3516 555.695 72.6465 556.129 73.2363C556.562 73.8223 556.785 74.7285 556.797 75.9551V77.3613ZM555.713 75.8789C555.713 74.9609 555.584 74.293 555.326 73.875C555.068 73.4531 554.66 73.2422 554.102 73.2422C553.547 73.2422 553.143 73.4512 552.889 73.8691C552.635 74.2871 552.504 74.9297 552.496 75.7969V77.5312C552.496 78.4531 552.629 79.1348 552.895 79.5762C553.164 80.0137 553.57 80.2324 554.113 80.2324C554.648 80.2324 555.045 80.0254 555.303 79.6113C555.564 79.1973 555.701 78.5449 555.713 77.6543V75.8789ZM561.748 81H560.658V73.7754L558.473 74.5781V73.5938L561.578 72.4277H561.748V81ZM569.178 72.4629V73.3828H568.979C568.135 73.3984 567.463 73.6484 566.963 74.1328C566.463 74.6172 566.174 75.2988 566.096 76.1777C566.545 75.6621 567.158 75.4043 567.936 75.4043C568.678 75.4043 569.27 75.666 569.711 76.1895C570.156 76.7129 570.379 77.3887 570.379 78.2168C570.379 79.0957 570.139 79.7988 569.658 80.3262C569.182 80.8535 568.541 81.1172 567.736 81.1172C566.92 81.1172 566.258 80.8047 565.75 80.1797C565.242 79.5508 564.988 78.7422 564.988 77.7539V77.3379C564.988 75.7676 565.322 74.5684 565.99 73.7402C566.662 72.9082 567.66 72.4824 568.984 72.4629H569.178ZM567.754 76.3066C567.383 76.3066 567.041 76.418 566.729 76.6406C566.416 76.8633 566.199 77.1426 566.078 77.4785V77.877C566.078 78.5801 566.236 79.1465 566.553 79.5762C566.869 80.0059 567.264 80.2207 567.736 80.2207C568.225 80.2207 568.607 80.041 568.885 79.6816C569.166 79.3223 569.307 78.8516 569.307 78.2695C569.307 77.6836 569.164 77.2109 568.879 76.8516C568.598 76.4883 568.223 76.3066 567.754 76.3066Z" fill="black"/>
<path d="M550.299 157H544.709V156.221L547.662 152.939C548.1 152.443 548.4 152.041 548.564 151.732C548.732 151.42 548.816 151.098 548.816 150.766C548.816 150.32 548.682 149.955 548.412 149.67C548.143 149.385 547.783 149.242 547.334 149.242C546.795 149.242 546.375 149.396 546.074 149.705C545.777 150.01 545.629 150.436 545.629 150.982H544.545C544.545 150.197 544.797 149.562 545.301 149.078C545.809 148.594 546.486 148.352 547.334 148.352C548.127 148.352 548.754 148.561 549.215 148.979C549.676 149.393 549.906 149.945 549.906 150.637C549.906 151.477 549.371 152.477 548.301 153.637L546.016 156.115H550.299V157ZM556.797 153.361C556.797 154.631 556.58 155.574 556.146 156.191C555.713 156.809 555.035 157.117 554.113 157.117C553.203 157.117 552.529 156.816 552.092 156.215C551.654 155.609 551.428 154.707 551.412 153.508V152.061C551.412 150.807 551.629 149.875 552.062 149.266C552.496 148.656 553.176 148.352 554.102 148.352C555.02 148.352 555.695 148.646 556.129 149.236C556.562 149.822 556.785 150.729 556.797 151.955V153.361ZM555.713 151.879C555.713 150.961 555.584 150.293 555.326 149.875C555.068 149.453 554.66 149.242 554.102 149.242C553.547 149.242 553.143 149.451 552.889 149.869C552.635 150.287 552.504 150.93 552.496 151.797V153.531C552.496 154.453 552.629 155.135 552.895 155.576C553.164 156.014 553.57 156.232 554.113 156.232C554.648 156.232 555.045 156.025 555.303 155.611C555.564 155.197 555.701 154.545 555.713 153.654V151.879ZM561.748 157H560.658V149.775L558.473 150.578V149.594L561.578 148.428H561.748V157ZM569.178 148.463V149.383H568.979C568.135 149.398 567.463 149.648 566.963 150.133C566.463 150.617 566.174 151.299 566.096 152.178C566.545 151.662 567.158 151.404 567.936 151.404C568.678 151.404 569.27 151.666 569.711 152.189C570.156 152.713 570.379 153.389 570.379 154.217C570.379 155.096 570.139 155.799 569.658 156.326C569.182 156.854 568.541 157.117 567.736 157.117C566.92 157.117 566.258 156.805 565.75 156.18C565.242 155.551 564.988 154.742 564.988 153.754V153.338C564.988 151.768 565.322 150.568 565.99 149.74C566.662 148.908 567.66 148.482 568.984 148.463H569.178ZM567.754 152.307C567.383 152.307 567.041 152.418 566.729 152.641C566.416 152.863 566.199 153.143 566.078 153.479V153.877C566.078 154.58 566.236 155.146 566.553 155.576C566.869 156.006 567.264 156.221 567.736 156.221C568.225 156.221 568.607 156.041 568.885 155.682C569.166 155.322 569.307 154.852 569.307 154.27C569.307 153.684 569.164 153.211 568.879 152.852C568.598 152.488 568.223 152.307 567.754 152.307Z" fill="black"/>
<path d="M439.901 3.44336V5.13184H441.075V6.47754H439.901V9.90527C439.901 10.1592 439.95 10.3411 440.047 10.4512C440.144 10.5612 440.33 10.6162 440.605 10.6162C440.809 10.6162 440.988 10.6014 441.145 10.5718V11.9619C440.785 12.0719 440.415 12.127 440.034 12.127C438.748 12.127 438.092 11.4774 438.066 10.1782V6.47754H437.063V5.13184H438.066V3.44336H439.901ZM443.887 5.88086C444.374 5.29688 444.985 5.00488 445.722 5.00488C447.211 5.00488 447.967 5.87028 447.988 7.60107V12H446.153V7.65186C446.153 7.2583 446.069 6.96842 445.899 6.78223C445.73 6.5918 445.449 6.49658 445.055 6.49658C444.518 6.49658 444.128 6.70394 443.887 7.11865V12H442.053V2.25H443.887V5.88086ZM453.231 6.85205C452.981 6.8182 452.761 6.80127 452.571 6.80127C451.877 6.80127 451.422 7.03613 451.206 7.50586V12H449.372V5.13184H451.104L451.155 5.95068C451.523 5.32015 452.033 5.00488 452.685 5.00488C452.888 5.00488 453.079 5.03239 453.256 5.0874L453.231 6.85205ZM457.154 12.127C456.147 12.127 455.326 11.818 454.691 11.2002C454.06 10.5824 453.745 9.75928 453.745 8.73096V8.55322C453.745 7.86344 453.878 7.24772 454.145 6.70605C454.412 6.16016 454.788 5.74121 455.275 5.44922C455.766 5.15299 456.324 5.00488 456.951 5.00488C457.89 5.00488 458.629 5.30111 459.166 5.89355C459.708 6.486 459.979 7.32601 459.979 8.41357V9.1626H455.605C455.664 9.61117 455.842 9.97087 456.138 10.2417C456.439 10.5125 456.817 10.6479 457.274 10.6479C457.981 10.6479 458.533 10.3919 458.931 9.87988L459.833 10.8892C459.557 11.2785 459.185 11.5832 458.715 11.8032C458.246 12.019 457.725 12.127 457.154 12.127ZM456.944 6.49023C456.58 6.49023 456.284 6.61296 456.056 6.8584C455.831 7.10384 455.688 7.45508 455.624 7.91211H458.176V7.76611C458.167 7.35986 458.057 7.04671 457.846 6.82666C457.634 6.60238 457.334 6.49023 456.944 6.49023ZM464.187 12.127C463.18 12.127 462.359 11.818 461.724 11.2002C461.094 10.5824 460.778 9.75928 460.778 8.73096V8.55322C460.778 7.86344 460.912 7.24772 461.178 6.70605C461.445 6.16016 461.821 5.74121 462.308 5.44922C462.799 5.15299 463.358 5.00488 463.984 5.00488C464.923 5.00488 465.662 5.30111 466.199 5.89355C466.741 6.486 467.012 7.32601 467.012 8.41357V9.1626H462.638C462.697 9.61117 462.875 9.97087 463.171 10.2417C463.472 10.5125 463.851 10.6479 464.308 10.6479C465.014 10.6479 465.567 10.3919 465.964 9.87988L466.866 10.8892C466.591 11.2785 466.218 11.5832 465.749 11.8032C465.279 12.019 464.758 12.127 464.187 12.127ZM463.978 6.49023C463.614 6.49023 463.317 6.61296 463.089 6.8584C462.865 7.10384 462.721 7.45508 462.657 7.91211H465.209V7.76611C465.201 7.35986 465.09 7.04671 464.879 6.82666C464.667 6.60238 464.367 6.49023 463.978 6.49023ZM473.144 13.4346H467.361V12H473.144V13.4346ZM480.12 12H473.785V10.7432L476.774 7.55664C477.185 7.10807 477.487 6.71663 477.682 6.38232C477.881 6.04801 477.98 5.73063 477.98 5.43018C477.98 5.01969 477.877 4.69808 477.669 4.46533C477.462 4.22835 477.166 4.10986 476.781 4.10986C476.366 4.10986 476.038 4.25374 475.797 4.5415C475.56 4.82503 475.441 5.19954 475.441 5.66504H473.601C473.601 5.10221 473.734 4.58805 474 4.12256C474.271 3.65706 474.652 3.29313 475.143 3.03076C475.634 2.76416 476.19 2.63086 476.812 2.63086C477.765 2.63086 478.503 2.85938 479.028 3.31641C479.557 3.77344 479.821 4.41878 479.821 5.25244C479.821 5.70947 479.703 6.17497 479.466 6.64893C479.229 7.12288 478.823 7.67513 478.247 8.30566L476.146 10.521H480.12V12ZM487.47 8.17871C487.47 9.45671 487.206 10.4342 486.677 11.1113C486.148 11.7884 485.373 12.127 484.354 12.127C483.346 12.127 482.576 11.7948 482.043 11.1304C481.51 10.466 481.237 9.51383 481.224 8.27393V6.57275C481.224 5.28206 481.491 4.30241 482.024 3.63379C482.561 2.96517 483.334 2.63086 484.341 2.63086C485.348 2.63086 486.118 2.96305 486.651 3.62744C487.185 4.2876 487.458 5.23763 487.47 6.47754V8.17871ZM485.636 6.3125C485.636 5.54655 485.53 4.99007 485.318 4.64307C485.111 4.29183 484.785 4.11621 484.341 4.11621C483.909 4.11621 483.59 4.28337 483.382 4.61768C483.179 4.94775 483.071 5.46615 483.059 6.17285V8.41992C483.059 9.17318 483.16 9.73389 483.363 10.1021C483.571 10.466 483.901 10.6479 484.354 10.6479C484.802 10.6479 485.126 10.4723 485.325 10.1211C485.524 9.76986 485.627 9.23242 485.636 8.50879V6.3125ZM493.17 12H491.336V4.92871L489.146 5.60791V4.11621L492.974 2.74512H493.17V12ZM501.156 2.6626V4.17334H500.978C500.149 4.18604 499.48 4.40186 498.972 4.8208C498.469 5.23975 498.166 5.82161 498.064 6.56641C498.555 6.06706 499.175 5.81738 499.924 5.81738C500.728 5.81738 501.367 6.10514 501.841 6.68066C502.315 7.25618 502.552 8.01367 502.552 8.95312C502.552 9.55404 502.421 10.0978 502.159 10.5845C501.901 11.0711 501.532 11.4499 501.054 11.7207C500.58 11.9915 500.043 12.127 499.442 12.127C498.469 12.127 497.681 11.7884 497.081 11.1113C496.484 10.4342 496.186 9.53076 496.186 8.40088V7.74072C496.186 6.73779 496.374 5.85335 496.75 5.0874C497.131 4.31722 497.675 3.72266 498.382 3.30371C499.093 2.88053 499.916 2.66683 500.851 2.6626H501.156ZM499.366 7.29004C499.069 7.29004 498.801 7.36833 498.56 7.5249C498.318 7.67725 498.141 7.88037 498.026 8.13428V8.69287C498.026 9.30648 498.147 9.78678 498.388 10.1338C498.629 10.4766 498.968 10.6479 499.404 10.6479C499.797 10.6479 500.115 10.4935 500.356 10.1846C500.601 9.87142 500.724 9.46729 500.724 8.97217C500.724 8.46859 500.601 8.06234 500.356 7.75342C500.111 7.4445 499.78 7.29004 499.366 7.29004Z" fill="black"/>
<path d="M239.592 40.752L241.818 36.4688H243.096L240.154 41.8184V45H239.029V41.8184L236.088 36.4688H237.377L239.592 40.752ZM246.271 45.1172C245.412 45.1172 244.713 44.8359 244.174 44.2734C243.635 43.707 243.365 42.9512 243.365 42.0059V41.8066C243.365 41.1777 243.484 40.6172 243.723 40.125C243.965 39.6289 244.301 39.2422 244.73 38.9648C245.164 38.6836 245.633 38.543 246.137 38.543C246.961 38.543 247.602 38.8145 248.059 39.3574C248.516 39.9004 248.744 40.6777 248.744 41.6895V42.1406H244.449C244.465 42.7656 244.646 43.2715 244.994 43.6582C245.346 44.041 245.791 44.2324 246.33 44.2324C246.713 44.2324 247.037 44.1543 247.303 43.998C247.568 43.8418 247.801 43.6348 248 43.377L248.662 43.8926C248.131 44.709 247.334 45.1172 246.271 45.1172ZM246.137 39.4336C245.699 39.4336 245.332 39.5938 245.035 39.9141C244.738 40.2305 244.555 40.6758 244.484 41.25H247.66V41.168C247.629 40.6172 247.48 40.1914 247.215 39.8906C246.949 39.5859 246.59 39.4336 246.137 39.4336ZM253.918 45C253.855 44.875 253.805 44.6523 253.766 44.332C253.262 44.8555 252.66 45.1172 251.961 45.1172C251.336 45.1172 250.822 44.9414 250.42 44.5898C250.021 44.2344 249.822 43.7852 249.822 43.2422C249.822 42.582 250.072 42.0703 250.572 41.707C251.076 41.3398 251.783 41.1562 252.693 41.1562H253.748V40.6582C253.748 40.2793 253.635 39.9785 253.408 39.7559C253.182 39.5293 252.848 39.416 252.406 39.416C252.02 39.416 251.695 39.5137 251.434 39.709C251.172 39.9043 251.041 40.1406 251.041 40.418H249.951C249.951 40.1016 250.062 39.7969 250.285 39.5039C250.512 39.207 250.816 38.9727 251.199 38.8008C251.586 38.6289 252.01 38.543 252.471 38.543C253.201 38.543 253.773 38.7266 254.188 39.0938C254.602 39.457 254.816 39.959 254.832 40.5996V43.5176C254.832 44.0996 254.906 44.5625 255.055 44.9062V45H253.918ZM252.119 44.1738C252.459 44.1738 252.781 44.0859 253.086 43.9102C253.391 43.7344 253.611 43.5059 253.748 43.2246V41.9238H252.898C251.57 41.9238 250.906 42.3125 250.906 43.0898C250.906 43.4297 251.02 43.6953 251.246 43.8867C251.473 44.0781 251.764 44.1738 252.119 44.1738ZM259.596 39.6328C259.432 39.6055 259.254 39.5918 259.062 39.5918C258.352 39.5918 257.869 39.8945 257.615 40.5V45H256.531V38.6602H257.586L257.604 39.3926C257.959 38.8262 258.463 38.543 259.115 38.543C259.326 38.543 259.486 38.5703 259.596 38.625V39.6328Z" fill="black"/>
</svg>
