<svg width="639" height="222" viewBox="0 0 639 222" fill="none" xmlns="http://www.w3.org/2000/svg">
<rect width="639" height="222" fill="white"/>
<rect x="339.5" y="39.5" width="101" height="37" fill="#C4C4C4" stroke="black"/>
<rect x="441.5" y="39.5" width="84" height="37" fill="#C4C4C4" stroke="black"/>
<path d="M376.266 59.293C376.16 60.1953 375.826 60.8926 375.264 61.3848C374.705 61.873 373.961 62.1172 373.031 62.1172C372.023 62.1172 371.215 61.7559 370.605 61.0332C370 60.3105 369.697 59.3438 369.697 58.1328V57.3125C369.697 56.5195 369.838 55.8223 370.119 55.2207C370.404 54.6191 370.807 54.1582 371.326 53.8379C371.846 53.5137 372.447 53.3516 373.131 53.3516C374.037 53.3516 374.764 53.6055 375.311 54.1133C375.857 54.6172 376.176 55.3164 376.266 56.2109H375.135C375.037 55.5312 374.824 55.0391 374.496 54.7344C374.172 54.4297 373.717 54.2773 373.131 54.2773C372.412 54.2773 371.848 54.543 371.438 55.0742C371.031 55.6055 370.828 56.3613 370.828 57.3418V58.168C370.828 59.0938 371.021 59.8301 371.408 60.377C371.795 60.9238 372.336 61.1973 373.031 61.1973C373.656 61.1973 374.135 61.0566 374.467 60.7754C374.803 60.4902 375.025 59.9961 375.135 59.293H376.266ZM377.35 58.7715C377.35 58.1504 377.471 57.5918 377.713 57.0957C377.959 56.5996 378.299 56.2168 378.732 55.9473C379.17 55.6777 379.668 55.543 380.227 55.543C381.09 55.543 381.787 55.8418 382.318 56.4395C382.854 57.0371 383.121 57.832 383.121 58.8242V58.9004C383.121 59.5176 383.002 60.0723 382.764 60.5645C382.529 61.0527 382.191 61.4336 381.75 61.707C381.312 61.9805 380.809 62.1172 380.238 62.1172C379.379 62.1172 378.682 61.8184 378.146 61.2207C377.615 60.623 377.35 59.832 377.35 58.8477V58.7715ZM378.439 58.9004C378.439 59.6035 378.602 60.168 378.926 60.5938C379.254 61.0195 379.691 61.2324 380.238 61.2324C380.789 61.2324 381.227 61.0176 381.551 60.5879C381.875 60.1543 382.037 59.5488 382.037 58.7715C382.037 58.0762 381.871 57.5137 381.539 57.084C381.211 56.6504 380.773 56.4336 380.227 56.4336C379.691 56.4336 379.26 56.6465 378.932 57.0723C378.604 57.498 378.439 58.1074 378.439 58.9004ZM388.395 61.373C387.973 61.8691 387.354 62.1172 386.537 62.1172C385.861 62.1172 385.346 61.9219 384.99 61.5312C384.639 61.1367 384.461 60.5547 384.457 59.7852V55.6602H385.541V59.7559C385.541 60.7168 385.932 61.1973 386.713 61.1973C387.541 61.1973 388.092 60.8887 388.365 60.2715V55.6602H389.449V62H388.418L388.395 61.373ZM392.127 55.6602L392.162 56.457C392.646 55.8477 393.279 55.543 394.061 55.543C395.4 55.543 396.076 56.2988 396.088 57.8105V62H395.004V57.8047C395 57.3477 394.895 57.0098 394.688 56.791C394.484 56.5723 394.166 56.4629 393.732 56.4629C393.381 56.4629 393.072 56.5566 392.807 56.7441C392.541 56.9316 392.334 57.1777 392.186 57.4824V62H391.102V55.6602H392.127ZM399.193 54.125V55.6602H400.377V56.498H399.193V60.4297C399.193 60.6836 399.246 60.875 399.352 61.0039C399.457 61.1289 399.637 61.1914 399.891 61.1914C400.016 61.1914 400.188 61.168 400.406 61.1211V62C400.121 62.0781 399.844 62.1172 399.574 62.1172C399.09 62.1172 398.725 61.9707 398.479 61.6777C398.232 61.3848 398.109 60.9688 398.109 60.4297V56.498H396.955V55.6602H398.109V54.125H399.193ZM404.713 56.6328C404.549 56.6055 404.371 56.5918 404.18 56.5918C403.469 56.5918 402.986 56.8945 402.732 57.5V62H401.648V55.6602H402.703L402.721 56.3926C403.076 55.8262 403.58 55.543 404.232 55.543C404.443 55.543 404.604 55.5703 404.713 55.625V56.6328ZM407.895 60.4121L409.371 55.6602H410.531L407.982 62.9785C407.588 64.0332 406.961 64.5605 406.102 64.5605L405.896 64.543L405.492 64.4668V63.5879L405.785 63.6113C406.152 63.6113 406.438 63.5371 406.641 63.3887C406.848 63.2402 407.018 62.9688 407.15 62.5742L407.391 61.9297L405.129 55.6602H406.312L407.895 60.4121Z" fill="black"/>
<path d="M452.901 21.4434V23.1318H454.075V24.4775H452.901V27.9053C452.901 28.1592 452.95 28.3411 453.047 28.4512C453.144 28.5612 453.33 28.6162 453.605 28.6162C453.809 28.6162 453.988 28.6014 454.145 28.5718V29.9619C453.785 30.0719 453.415 30.127 453.034 30.127C451.748 30.127 451.092 29.4774 451.066 28.1782V24.4775H450.063V23.1318H451.066V21.4434H452.901ZM456.887 23.8809C457.374 23.2969 457.985 23.0049 458.722 23.0049C460.211 23.0049 460.967 23.8703 460.988 25.6011V30H459.153V25.6519C459.153 25.2583 459.069 24.9684 458.899 24.7822C458.73 24.5918 458.449 24.4966 458.055 24.4966C457.518 24.4966 457.128 24.7039 456.887 25.1187V30H455.053V20.25H456.887V23.8809ZM466.231 24.8521C465.981 24.8182 465.761 24.8013 465.571 24.8013C464.877 24.8013 464.422 25.0361 464.206 25.5059V30H462.372V23.1318H464.104L464.155 23.9507C464.523 23.3201 465.033 23.0049 465.685 23.0049C465.888 23.0049 466.079 23.0324 466.256 23.0874L466.231 24.8521ZM470.154 30.127C469.147 30.127 468.326 29.818 467.691 29.2002C467.06 28.5824 466.745 27.7593 466.745 26.731V26.5532C466.745 25.8634 466.878 25.2477 467.145 24.7061C467.412 24.1602 467.788 23.7412 468.275 23.4492C468.766 23.153 469.324 23.0049 469.951 23.0049C470.89 23.0049 471.629 23.3011 472.166 23.8936C472.708 24.486 472.979 25.326 472.979 26.4136V27.1626H468.605C468.664 27.6112 468.842 27.9709 469.138 28.2417C469.439 28.5125 469.817 28.6479 470.274 28.6479C470.981 28.6479 471.533 28.3919 471.931 27.8799L472.833 28.8892C472.557 29.2785 472.185 29.5832 471.715 29.8032C471.246 30.019 470.725 30.127 470.154 30.127ZM469.944 24.4902C469.58 24.4902 469.284 24.613 469.056 24.8584C468.831 25.1038 468.688 25.4551 468.624 25.9121H471.176V25.7661C471.167 25.3599 471.057 25.0467 470.846 24.8267C470.634 24.6024 470.334 24.4902 469.944 24.4902ZM477.187 30.127C476.18 30.127 475.359 29.818 474.724 29.2002C474.094 28.5824 473.778 27.7593 473.778 26.731V26.5532C473.778 25.8634 473.912 25.2477 474.178 24.7061C474.445 24.1602 474.821 23.7412 475.308 23.4492C475.799 23.153 476.358 23.0049 476.984 23.0049C477.923 23.0049 478.662 23.3011 479.199 23.8936C479.741 24.486 480.012 25.326 480.012 26.4136V27.1626H475.638C475.697 27.6112 475.875 27.9709 476.171 28.2417C476.472 28.5125 476.851 28.6479 477.308 28.6479C478.014 28.6479 478.567 28.3919 478.964 27.8799L479.866 28.8892C479.591 29.2785 479.218 29.5832 478.749 29.8032C478.279 30.019 477.758 30.127 477.187 30.127ZM476.978 24.4902C476.614 24.4902 476.317 24.613 476.089 24.8584C475.865 25.1038 475.721 25.4551 475.657 25.9121H478.209V25.7661C478.201 25.3599 478.09 25.0467 477.879 24.8267C477.667 24.6024 477.367 24.4902 476.978 24.4902ZM486.144 31.4346H480.361V30H486.144V31.4346ZM493.12 30H486.785V28.7432L489.774 25.5566C490.185 25.1081 490.487 24.7166 490.682 24.3823C490.881 24.048 490.98 23.7306 490.98 23.4302C490.98 23.0197 490.877 22.6981 490.669 22.4653C490.462 22.2284 490.166 22.1099 489.781 22.1099C489.366 22.1099 489.038 22.2537 488.797 22.5415C488.56 22.825 488.441 23.1995 488.441 23.665H486.601C486.601 23.1022 486.734 22.5881 487 22.1226C487.271 21.6571 487.652 21.2931 488.143 21.0308C488.634 20.7642 489.19 20.6309 489.812 20.6309C490.765 20.6309 491.503 20.8594 492.028 21.3164C492.557 21.7734 492.821 22.4188 492.821 23.2524C492.821 23.7095 492.703 24.175 492.466 24.6489C492.229 25.1229 491.823 25.6751 491.247 26.3057L489.146 28.521H493.12V30ZM500.47 26.1787C500.47 27.4567 500.206 28.4342 499.677 29.1113C499.148 29.7884 498.373 30.127 497.354 30.127C496.346 30.127 495.576 29.7948 495.043 29.1304C494.51 28.466 494.237 27.5138 494.224 26.2739V24.5728C494.224 23.2821 494.491 22.3024 495.024 21.6338C495.561 20.9652 496.334 20.6309 497.341 20.6309C498.348 20.6309 499.118 20.9631 499.651 21.6274C500.185 22.2876 500.458 23.2376 500.47 24.4775V26.1787ZM498.636 24.3125C498.636 23.5465 498.53 22.9901 498.318 22.6431C498.111 22.2918 497.785 22.1162 497.341 22.1162C496.909 22.1162 496.59 22.2834 496.382 22.6177C496.179 22.9478 496.071 23.4661 496.059 24.1729V26.4199C496.059 27.1732 496.16 27.7339 496.363 28.1021C496.571 28.466 496.901 28.6479 497.354 28.6479C497.802 28.6479 498.126 28.4723 498.325 28.1211C498.524 27.7699 498.627 27.2324 498.636 26.5088V24.3125ZM506.17 30H504.336V22.9287L502.146 23.6079V22.1162L505.974 20.7451H506.17V30ZM509.452 25.4551L509.985 20.7578H515.165V22.2876H511.49L511.261 24.2744C511.697 24.0417 512.16 23.9253 512.651 23.9253C513.532 23.9253 514.221 24.1982 514.721 24.7441C515.22 25.29 515.47 26.0539 515.47 27.0356C515.47 27.6323 515.343 28.1676 515.089 28.6416C514.839 29.1113 514.479 29.4774 514.01 29.7397C513.54 29.9979 512.986 30.127 512.347 30.127C511.788 30.127 511.27 30.0148 510.792 29.7905C510.313 29.562 509.935 29.2425 509.655 28.832C509.38 28.4215 509.234 27.9539 509.217 27.4292H511.033C511.071 27.8143 511.204 28.1147 511.433 28.3306C511.665 28.5422 511.968 28.6479 512.34 28.6479C512.755 28.6479 513.075 28.4998 513.299 28.2036C513.523 27.9032 513.635 27.48 513.635 26.9341C513.635 26.4093 513.506 26.0073 513.248 25.728C512.99 25.4487 512.624 25.3091 512.15 25.3091C511.714 25.3091 511.361 25.4233 511.09 25.6519L510.912 25.8169L509.452 25.4551Z" fill="black"/>
<path d="M460.641 55H459.51V51.0566H455.209V55H454.084V46.4688H455.209V50.1367H459.51V46.4688H460.641V55ZM466.383 55C466.32 54.875 466.27 54.6523 466.23 54.332C465.727 54.8555 465.125 55.1172 464.426 55.1172C463.801 55.1172 463.287 54.9414 462.885 54.5898C462.486 54.2344 462.287 53.7852 462.287 53.2422C462.287 52.582 462.537 52.0703 463.037 51.707C463.541 51.3398 464.248 51.1562 465.158 51.1562H466.213V50.6582C466.213 50.2793 466.1 49.9785 465.873 49.7559C465.646 49.5293 465.312 49.416 464.871 49.416C464.484 49.416 464.16 49.5137 463.898 49.709C463.637 49.9043 463.506 50.1406 463.506 50.418H462.416C462.416 50.1016 462.527 49.7969 462.75 49.5039C462.977 49.207 463.281 48.9727 463.664 48.8008C464.051 48.6289 464.475 48.543 464.936 48.543C465.666 48.543 466.238 48.7266 466.652 49.0938C467.066 49.457 467.281 49.959 467.297 50.5996V53.5176C467.297 54.0996 467.371 54.5625 467.52 54.9062V55H466.383ZM464.584 54.1738C464.924 54.1738 465.246 54.0859 465.551 53.9102C465.855 53.7344 466.076 53.5059 466.213 53.2246V51.9238H465.363C464.035 51.9238 463.371 52.3125 463.371 53.0898C463.371 53.4297 463.484 53.6953 463.711 53.8867C463.938 54.0781 464.229 54.1738 464.584 54.1738ZM474.352 51.9004C474.352 52.8652 474.131 53.6426 473.689 54.2324C473.248 54.8223 472.65 55.1172 471.896 55.1172C471.127 55.1172 470.521 54.873 470.08 54.3848V57.4375H468.996V48.6602H469.986L470.039 49.3633C470.48 48.8164 471.094 48.543 471.879 48.543C472.641 48.543 473.242 48.8301 473.684 49.4043C474.129 49.9785 474.352 50.7773 474.352 51.8008V51.9004ZM473.268 51.7773C473.268 51.0625 473.115 50.498 472.811 50.084C472.506 49.6699 472.088 49.4629 471.557 49.4629C470.9 49.4629 470.408 49.7539 470.08 50.3359V53.3652C470.404 53.9434 470.9 54.2324 471.568 54.2324C472.088 54.2324 472.5 54.0273 472.805 53.6172C473.113 53.2031 473.268 52.5898 473.268 51.7773ZM481.09 51.9004C481.09 52.8652 480.869 53.6426 480.428 54.2324C479.986 54.8223 479.389 55.1172 478.635 55.1172C477.865 55.1172 477.26 54.873 476.818 54.3848V57.4375H475.734V48.6602H476.725L476.777 49.3633C477.219 48.8164 477.832 48.543 478.617 48.543C479.379 48.543 479.98 48.8301 480.422 49.4043C480.867 49.9785 481.09 50.7773 481.09 51.8008V51.9004ZM480.006 51.7773C480.006 51.0625 479.854 50.498 479.549 50.084C479.244 49.6699 478.826 49.4629 478.295 49.4629C477.639 49.4629 477.146 49.7539 476.818 50.3359V53.3652C477.143 53.9434 477.639 54.2324 478.307 54.2324C478.826 54.2324 479.238 54.0273 479.543 53.6172C479.852 53.2031 480.006 52.5898 480.006 51.7773ZM483.65 55H482.566V48.6602H483.65V55ZM482.479 46.9785C482.479 46.8027 482.531 46.6543 482.637 46.5332C482.746 46.4121 482.906 46.3516 483.117 46.3516C483.328 46.3516 483.488 46.4121 483.598 46.5332C483.707 46.6543 483.762 46.8027 483.762 46.9785C483.762 47.1543 483.707 47.3008 483.598 47.418C483.488 47.5352 483.328 47.5938 483.117 47.5938C482.906 47.5938 482.746 47.5352 482.637 47.418C482.531 47.3008 482.479 47.1543 482.479 46.9785ZM486.416 48.6602L486.451 49.457C486.936 48.8477 487.568 48.543 488.35 48.543C489.689 48.543 490.365 49.2988 490.377 50.8105V55H489.293V50.8047C489.289 50.3477 489.184 50.0098 488.977 49.791C488.773 49.5723 488.455 49.4629 488.021 49.4629C487.67 49.4629 487.361 49.5566 487.096 49.7441C486.83 49.9316 486.623 50.1777 486.475 50.4824V55H485.391V48.6602H486.416ZM494.643 55.1172C493.783 55.1172 493.084 54.8359 492.545 54.2734C492.006 53.707 491.736 52.9512 491.736 52.0059V51.8066C491.736 51.1777 491.855 50.6172 492.094 50.125C492.336 49.6289 492.672 49.2422 493.102 48.9648C493.535 48.6836 494.004 48.543 494.508 48.543C495.332 48.543 495.973 48.8145 496.43 49.3574C496.887 49.9004 497.115 50.6777 497.115 51.6895V52.1406H492.82C492.836 52.7656 493.018 53.2715 493.365 53.6582C493.717 54.041 494.162 54.2324 494.701 54.2324C495.084 54.2324 495.408 54.1543 495.674 53.998C495.939 53.8418 496.172 53.6348 496.371 53.377L497.033 53.8926C496.502 54.709 495.705 55.1172 494.643 55.1172ZM494.508 49.4336C494.07 49.4336 493.703 49.5938 493.406 49.9141C493.109 50.2305 492.926 50.6758 492.855 51.25H496.031V51.168C496 50.6172 495.852 50.1914 495.586 49.8906C495.32 49.5859 494.961 49.4336 494.508 49.4336ZM502.066 53.3184C502.066 53.0254 501.955 52.7988 501.732 52.6387C501.514 52.4746 501.129 52.334 500.578 52.2168C500.031 52.0996 499.596 51.959 499.271 51.7949C498.951 51.6309 498.713 51.4355 498.557 51.209C498.404 50.9824 498.328 50.7129 498.328 50.4004C498.328 49.8809 498.547 49.4414 498.984 49.082C499.426 48.7227 499.988 48.543 500.672 48.543C501.391 48.543 501.973 48.7285 502.418 49.0996C502.867 49.4707 503.092 49.9453 503.092 50.5234H502.002C502.002 50.2266 501.875 49.9707 501.621 49.7559C501.371 49.541 501.055 49.4336 500.672 49.4336C500.277 49.4336 499.969 49.5195 499.746 49.6914C499.523 49.8633 499.412 50.0879 499.412 50.3652C499.412 50.627 499.516 50.8242 499.723 50.957C499.93 51.0898 500.303 51.2168 500.842 51.3379C501.385 51.459 501.824 51.6035 502.16 51.7715C502.496 51.9395 502.744 52.1426 502.904 52.3809C503.068 52.6152 503.15 52.9023 503.15 53.2422C503.15 53.8086 502.924 54.2637 502.471 54.6074C502.018 54.9473 501.43 55.1172 500.707 55.1172C500.199 55.1172 499.75 55.0273 499.359 54.8477C498.969 54.668 498.662 54.418 498.439 54.0977C498.221 53.7734 498.111 53.4238 498.111 53.0488H499.195C499.215 53.4121 499.359 53.7012 499.629 53.916C499.902 54.127 500.262 54.2324 500.707 54.2324C501.117 54.2324 501.445 54.1504 501.691 53.9863C501.941 53.8184 502.066 53.5957 502.066 53.3184ZM508.254 53.3184C508.254 53.0254 508.143 52.7988 507.92 52.6387C507.701 52.4746 507.316 52.334 506.766 52.2168C506.219 52.0996 505.783 51.959 505.459 51.7949C505.139 51.6309 504.9 51.4355 504.744 51.209C504.592 50.9824 504.516 50.7129 504.516 50.4004C504.516 49.8809 504.734 49.4414 505.172 49.082C505.613 48.7227 506.176 48.543 506.859 48.543C507.578 48.543 508.16 48.7285 508.605 49.0996C509.055 49.4707 509.279 49.9453 509.279 50.5234H508.189C508.189 50.2266 508.062 49.9707 507.809 49.7559C507.559 49.541 507.242 49.4336 506.859 49.4336C506.465 49.4336 506.156 49.5195 505.934 49.6914C505.711 49.8633 505.6 50.0879 505.6 50.3652C505.6 50.627 505.703 50.8242 505.91 50.957C506.117 51.0898 506.49 51.2168 507.029 51.3379C507.572 51.459 508.012 51.6035 508.348 51.7715C508.684 51.9395 508.932 52.1426 509.092 52.3809C509.256 52.6152 509.338 52.9023 509.338 53.2422C509.338 53.8086 509.111 54.2637 508.658 54.6074C508.205 54.9473 507.617 55.1172 506.895 55.1172C506.387 55.1172 505.938 55.0273 505.547 54.8477C505.156 54.668 504.85 54.418 504.627 54.0977C504.408 53.7734 504.299 53.4238 504.299 53.0488H505.383C505.402 53.4121 505.547 53.7012 505.816 53.916C506.09 54.127 506.449 54.2324 506.895 54.2324C507.305 54.2324 507.633 54.1504 507.879 53.9863C508.129 53.8184 508.254 53.5957 508.254 53.3184ZM473.807 65.5488H471.803V69H470.672V60.4688H473.496C474.457 60.4688 475.195 60.6875 475.711 61.125C476.23 61.5625 476.49 62.1992 476.49 63.0352C476.49 63.5664 476.346 64.0293 476.057 64.4238C475.771 64.8184 475.373 65.1133 474.861 65.3086L476.865 68.9297V69H475.658L473.807 65.5488ZM471.803 64.6289H473.531C474.09 64.6289 474.533 64.4844 474.861 64.1953C475.193 63.9062 475.359 63.5195 475.359 63.0352C475.359 62.5078 475.201 62.1035 474.885 61.8223C474.572 61.541 474.119 61.3984 473.525 61.3945H471.803V64.6289ZM481.816 69C481.754 68.875 481.703 68.6523 481.664 68.332C481.16 68.8555 480.559 69.1172 479.859 69.1172C479.234 69.1172 478.721 68.9414 478.318 68.5898C477.92 68.2344 477.721 67.7852 477.721 67.2422C477.721 66.582 477.971 66.0703 478.471 65.707C478.975 65.3398 479.682 65.1562 480.592 65.1562H481.646V64.6582C481.646 64.2793 481.533 63.9785 481.307 63.7559C481.08 63.5293 480.746 63.416 480.305 63.416C479.918 63.416 479.594 63.5137 479.332 63.709C479.07 63.9043 478.939 64.1406 478.939 64.418H477.85C477.85 64.1016 477.961 63.7969 478.184 63.5039C478.41 63.207 478.715 62.9727 479.098 62.8008C479.484 62.6289 479.908 62.543 480.369 62.543C481.1 62.543 481.672 62.7266 482.086 63.0938C482.5 63.457 482.715 63.959 482.73 64.5996V67.5176C482.73 68.0996 482.805 68.5625 482.953 68.9062V69H481.816ZM480.018 68.1738C480.357 68.1738 480.68 68.0859 480.984 67.9102C481.289 67.7344 481.51 67.5059 481.646 67.2246V65.9238H480.797C479.469 65.9238 478.805 66.3125 478.805 67.0898C478.805 67.4297 478.918 67.6953 479.145 67.8867C479.371 68.0781 479.662 68.1738 480.018 68.1738ZM485.455 62.6602L485.49 63.457C485.975 62.8477 486.607 62.543 487.389 62.543C488.729 62.543 489.404 63.2988 489.416 64.8105V69H488.332V64.8047C488.328 64.3477 488.223 64.0098 488.016 63.791C487.812 63.5723 487.494 63.4629 487.061 63.4629C486.709 63.4629 486.4 63.5566 486.135 63.7441C485.869 63.9316 485.662 64.1777 485.514 64.4824V69H484.43V62.6602H485.455ZM492.82 66.0645L492.141 66.7734V69H491.057V60H492.141V65.4434L492.721 64.7461L494.695 62.6602H496.014L493.547 65.3086L496.301 69H495.029L492.82 66.0645Z" fill="black"/>
<rect x="339.5" y="77.5" width="101" height="37" fill="#4F4F4F" stroke="black"/>
<path d="M363.99 99V90.4688H366.398C367.141 90.4688 367.797 90.6328 368.367 90.9609C368.938 91.2891 369.377 91.7559 369.686 92.3613C369.998 92.9668 370.156 93.6621 370.16 94.4473V94.9922C370.16 95.7969 370.004 96.502 369.691 97.1074C369.383 97.7129 368.939 98.1777 368.361 98.502C367.787 98.8262 367.117 98.9922 366.352 99H363.99ZM365.115 91.3945V98.0801H366.299C367.166 98.0801 367.84 97.8105 368.32 97.2715C368.805 96.7324 369.047 95.9648 369.047 94.9688V94.4707C369.047 93.502 368.818 92.75 368.361 92.2148C367.908 91.6758 367.264 91.4023 366.428 91.3945H365.115ZM374.326 99.1172C373.467 99.1172 372.768 98.8359 372.229 98.2734C371.689 97.707 371.42 96.9512 371.42 96.0059V95.8066C371.42 95.1777 371.539 94.6172 371.777 94.125C372.02 93.6289 372.355 93.2422 372.785 92.9648C373.219 92.6836 373.688 92.543 374.191 92.543C375.016 92.543 375.656 92.8145 376.113 93.3574C376.57 93.9004 376.799 94.6777 376.799 95.6895V96.1406H372.504C372.52 96.7656 372.701 97.2715 373.049 97.6582C373.4 98.041 373.846 98.2324 374.385 98.2324C374.768 98.2324 375.092 98.1543 375.357 97.998C375.623 97.8418 375.855 97.6348 376.055 97.377L376.717 97.8926C376.186 98.709 375.389 99.1172 374.326 99.1172ZM374.191 93.4336C373.754 93.4336 373.387 93.5938 373.09 93.9141C372.793 94.2305 372.609 94.6758 372.539 95.25H375.715V95.168C375.684 94.6172 375.535 94.1914 375.27 93.8906C375.004 93.5859 374.645 93.4336 374.191 93.4336ZM379.084 92.6602L379.119 93.457C379.604 92.8477 380.236 92.543 381.018 92.543C382.357 92.543 383.033 93.2988 383.045 94.8105V99H381.961V94.8047C381.957 94.3477 381.852 94.0098 381.645 93.791C381.441 93.5723 381.123 93.4629 380.689 93.4629C380.338 93.4629 380.029 93.5566 379.764 93.7441C379.498 93.9316 379.291 94.1777 379.143 94.4824V99H378.059V92.6602H379.084ZM385.699 92.6602L385.729 93.3633C386.193 92.8164 386.82 92.543 387.609 92.543C388.496 92.543 389.1 92.8828 389.42 93.5625C389.631 93.2578 389.904 93.0117 390.24 92.8242C390.58 92.6367 390.98 92.543 391.441 92.543C392.832 92.543 393.539 93.2793 393.562 94.752V99H392.479V94.8164C392.479 94.3633 392.375 94.0254 392.168 93.8027C391.961 93.5762 391.613 93.4629 391.125 93.4629C390.723 93.4629 390.389 93.584 390.123 93.8262C389.857 94.0645 389.703 94.3867 389.66 94.793V99H388.57V94.8457C388.57 93.9238 388.119 93.4629 387.217 93.4629C386.506 93.4629 386.02 93.7656 385.758 94.3711V99H384.674V92.6602H385.699ZM399.117 99C399.055 98.875 399.004 98.6523 398.965 98.332C398.461 98.8555 397.859 99.1172 397.16 99.1172C396.535 99.1172 396.021 98.9414 395.619 98.5898C395.221 98.2344 395.021 97.7852 395.021 97.2422C395.021 96.582 395.271 96.0703 395.771 95.707C396.275 95.3398 396.982 95.1562 397.893 95.1562H398.947V94.6582C398.947 94.2793 398.834 93.9785 398.607 93.7559C398.381 93.5293 398.047 93.416 397.605 93.416C397.219 93.416 396.895 93.5137 396.633 93.709C396.371 93.9043 396.24 94.1406 396.24 94.418H395.15C395.15 94.1016 395.262 93.7969 395.484 93.5039C395.711 93.207 396.016 92.9727 396.398 92.8008C396.785 92.6289 397.209 92.543 397.67 92.543C398.4 92.543 398.973 92.7266 399.387 93.0938C399.801 93.457 400.016 93.959 400.031 94.5996V97.5176C400.031 98.0996 400.105 98.5625 400.254 98.9062V99H399.117ZM397.318 98.1738C397.658 98.1738 397.98 98.0859 398.285 97.9102C398.59 97.7344 398.811 97.5059 398.947 97.2246V95.9238H398.098C396.77 95.9238 396.105 96.3125 396.105 97.0898C396.105 97.4297 396.219 97.6953 396.445 97.8867C396.672 98.0781 396.963 98.1738 397.318 98.1738ZM404.795 93.6328C404.631 93.6055 404.453 93.5918 404.262 93.5918C403.551 93.5918 403.068 93.8945 402.814 94.5V99H401.73V92.6602H402.785L402.803 93.3926C403.158 92.8262 403.662 92.543 404.314 92.543C404.525 92.543 404.686 92.5703 404.795 92.625V93.6328ZM407.566 96.0645L406.887 96.7734V99H405.803V90H406.887V95.4434L407.467 94.7461L409.441 92.6602H410.76L408.293 95.3086L411.047 99H409.775L407.566 96.0645Z" fill="black"/>
<rect x="526.5" y="39.5" width="84" height="37" fill="#C4C4C4" stroke="black"/>
<rect x="441.5" y="77.5" width="84" height="37" fill="#4F4F4F" stroke="black"/>
<rect x="526.5" y="77.5" width="84" height="37" fill="#4F4F4F" stroke="black"/>
<path d="M485.285 94.207H486.1C486.611 94.1992 487.014 94.0645 487.307 93.8027C487.6 93.541 487.746 93.1875 487.746 92.7422C487.746 91.7422 487.248 91.2422 486.252 91.2422C485.783 91.2422 485.408 91.377 485.127 91.6465C484.85 91.9121 484.711 92.2656 484.711 92.707H483.627C483.627 92.0312 483.873 91.4707 484.365 91.0254C484.861 90.5762 485.49 90.3516 486.252 90.3516C487.057 90.3516 487.688 90.5645 488.145 90.9902C488.602 91.416 488.83 92.0078 488.83 92.7656C488.83 93.1367 488.709 93.4961 488.467 93.8438C488.229 94.1914 487.902 94.4512 487.488 94.623C487.957 94.7715 488.318 95.0176 488.572 95.3613C488.83 95.7051 488.959 96.125 488.959 96.6211C488.959 97.3867 488.709 97.9941 488.209 98.4434C487.709 98.8926 487.059 99.1172 486.258 99.1172C485.457 99.1172 484.805 98.9004 484.301 98.4668C483.801 98.0332 483.551 97.4609 483.551 96.75H484.641C484.641 97.1992 484.787 97.5586 485.08 97.8281C485.373 98.0977 485.766 98.2324 486.258 98.2324C486.781 98.2324 487.182 98.0957 487.459 97.8223C487.736 97.5488 487.875 97.1562 487.875 96.6445C487.875 96.1484 487.723 95.7676 487.418 95.502C487.113 95.2363 486.674 95.0996 486.1 95.0918H485.285V94.207Z" fill="black"/>
<path d="M559.299 99H553.709V98.2207L556.662 94.9395C557.1 94.4434 557.4 94.041 557.564 93.7324C557.732 93.4199 557.816 93.0977 557.816 92.7656C557.816 92.3203 557.682 91.9551 557.412 91.6699C557.143 91.3848 556.783 91.2422 556.334 91.2422C555.795 91.2422 555.375 91.3965 555.074 91.7051C554.777 92.0098 554.629 92.4355 554.629 92.9824H553.545C553.545 92.1973 553.797 91.5625 554.301 91.0781C554.809 90.5938 555.486 90.3516 556.334 90.3516C557.127 90.3516 557.754 90.5605 558.215 90.9785C558.676 91.3926 558.906 91.9453 558.906 92.6367C558.906 93.4766 558.371 94.4766 557.301 95.6367L555.016 98.1152H559.299V99ZM565.797 95.3613C565.797 96.6309 565.58 97.5742 565.146 98.1914C564.713 98.8086 564.035 99.1172 563.113 99.1172C562.203 99.1172 561.529 98.8164 561.092 98.2148C560.654 97.6094 560.428 96.707 560.412 95.5078V94.0605C560.412 92.8066 560.629 91.875 561.062 91.2656C561.496 90.6562 562.176 90.3516 563.102 90.3516C564.02 90.3516 564.695 90.6465 565.129 91.2363C565.562 91.8223 565.785 92.7285 565.797 93.9551V95.3613ZM564.713 93.8789C564.713 92.9609 564.584 92.293 564.326 91.875C564.068 91.4531 563.66 91.2422 563.102 91.2422C562.547 91.2422 562.143 91.4512 561.889 91.8691C561.635 92.2871 561.504 92.9297 561.496 93.7969V95.5312C561.496 96.4531 561.629 97.1348 561.895 97.5762C562.164 98.0137 562.57 98.2324 563.113 98.2324C563.648 98.2324 564.045 98.0254 564.303 97.6113C564.564 97.1973 564.701 96.5449 564.713 95.6543V93.8789ZM570.748 99H569.658V91.7754L567.473 92.5781V91.5938L570.578 90.4277H570.748V99ZM574.422 94.7227L574.855 90.4688H579.227V91.4707H575.775L575.518 93.7969C575.936 93.5508 576.41 93.4277 576.941 93.4277C577.719 93.4277 578.336 93.6855 578.793 94.2012C579.25 94.7129 579.479 95.4062 579.479 96.2812C579.479 97.1602 579.24 97.8535 578.764 98.3613C578.291 98.8652 577.629 99.1172 576.777 99.1172C576.023 99.1172 575.408 98.9082 574.932 98.4902C574.455 98.0723 574.184 97.4941 574.117 96.7559H575.143C575.209 97.2441 575.383 97.6133 575.664 97.8633C575.945 98.1094 576.316 98.2324 576.777 98.2324C577.281 98.2324 577.676 98.0605 577.961 97.7168C578.25 97.373 578.395 96.8984 578.395 96.293C578.395 95.7227 578.238 95.2656 577.926 94.9219C577.617 94.5742 577.205 94.4004 576.689 94.4004C576.217 94.4004 575.846 94.5039 575.576 94.7109L575.289 94.9453L574.422 94.7227Z" fill="black"/>
<rect x="339.5" y="115.5" width="101" height="37" fill="#F0E442" stroke="black"/>
<path d="M376.547 137H375.416L371.121 130.426V137H369.99V128.469H371.121L375.428 135.072V128.469H376.547V137ZM378.088 133.771C378.088 133.15 378.209 132.592 378.451 132.096C378.697 131.6 379.037 131.217 379.471 130.947C379.908 130.678 380.406 130.543 380.965 130.543C381.828 130.543 382.525 130.842 383.057 131.439C383.592 132.037 383.859 132.832 383.859 133.824V133.9C383.859 134.518 383.74 135.072 383.502 135.564C383.268 136.053 382.93 136.434 382.488 136.707C382.051 136.98 381.547 137.117 380.977 137.117C380.117 137.117 379.42 136.818 378.885 136.221C378.354 135.623 378.088 134.832 378.088 133.848V133.771ZM379.178 133.9C379.178 134.604 379.34 135.168 379.664 135.594C379.992 136.02 380.43 136.232 380.977 136.232C381.527 136.232 381.965 136.018 382.289 135.588C382.613 135.154 382.775 134.549 382.775 133.771C382.775 133.076 382.609 132.514 382.277 132.084C381.949 131.65 381.512 131.434 380.965 131.434C380.43 131.434 379.998 131.646 379.67 132.072C379.342 132.498 379.178 133.107 379.178 133.9ZM388.283 131.633C388.119 131.605 387.941 131.592 387.75 131.592C387.039 131.592 386.557 131.895 386.303 132.5V137H385.219V130.66H386.273L386.291 131.393C386.646 130.826 387.15 130.543 387.803 130.543C388.014 130.543 388.174 130.57 388.283 130.625V131.633ZM395.004 135.506L396.223 130.66H397.307L395.461 137H394.582L393.041 132.195L391.541 137H390.662L388.822 130.66H389.9L391.148 135.406L392.625 130.66H393.498L395.004 135.506ZM402.328 137C402.266 136.875 402.215 136.652 402.176 136.332C401.672 136.855 401.07 137.117 400.371 137.117C399.746 137.117 399.232 136.941 398.83 136.59C398.432 136.234 398.232 135.785 398.232 135.242C398.232 134.582 398.482 134.07 398.982 133.707C399.486 133.34 400.193 133.156 401.104 133.156H402.158V132.658C402.158 132.279 402.045 131.979 401.818 131.756C401.592 131.529 401.258 131.416 400.816 131.416C400.43 131.416 400.105 131.514 399.844 131.709C399.582 131.904 399.451 132.141 399.451 132.418H398.361C398.361 132.102 398.473 131.797 398.695 131.504C398.922 131.207 399.227 130.973 399.609 130.801C399.996 130.629 400.42 130.543 400.881 130.543C401.611 130.543 402.184 130.727 402.598 131.094C403.012 131.457 403.227 131.959 403.242 132.6V135.518C403.242 136.1 403.316 136.562 403.465 136.906V137H402.328ZM400.529 136.174C400.869 136.174 401.191 136.086 401.496 135.91C401.801 135.734 402.021 135.506 402.158 135.225V133.924H401.309C399.98 133.924 399.316 134.312 399.316 135.09C399.316 135.43 399.43 135.695 399.656 135.887C399.883 136.078 400.174 136.174 400.529 136.174ZM406.922 135.412L408.398 130.66H409.559L407.01 137.979C406.615 139.033 405.988 139.561 405.129 139.561L404.924 139.543L404.52 139.467V138.588L404.812 138.611C405.18 138.611 405.465 138.537 405.668 138.389C405.875 138.24 406.045 137.969 406.178 137.574L406.418 136.93L404.156 130.66H405.34L406.922 135.412Z" fill="black"/>
<rect x="441.5" y="115.5" width="84" height="37" fill="#6FCF97" stroke="black"/>
<rect x="526.5" y="115.5" width="84" height="37" fill="#6FCF97" stroke="black"/>
<path d="M488.285 134.135H489.469V135.02H488.285V137H487.195V135.02H483.311V134.381L487.131 128.469H488.285V134.135ZM484.541 134.135H487.195V129.951L487.066 130.186L484.541 134.135Z" fill="black"/>
<path d="M559.299 137H553.709V136.221L556.662 132.939C557.1 132.443 557.4 132.041 557.564 131.732C557.732 131.42 557.816 131.098 557.816 130.766C557.816 130.32 557.682 129.955 557.412 129.67C557.143 129.385 556.783 129.242 556.334 129.242C555.795 129.242 555.375 129.396 555.074 129.705C554.777 130.01 554.629 130.436 554.629 130.982H553.545C553.545 130.197 553.797 129.562 554.301 129.078C554.809 128.594 555.486 128.352 556.334 128.352C557.127 128.352 557.754 128.561 558.215 128.979C558.676 129.393 558.906 129.945 558.906 130.637C558.906 131.477 558.371 132.477 557.301 133.637L555.016 136.115H559.299V137ZM565.797 133.361C565.797 134.631 565.58 135.574 565.146 136.191C564.713 136.809 564.035 137.117 563.113 137.117C562.203 137.117 561.529 136.816 561.092 136.215C560.654 135.609 560.428 134.707 560.412 133.508V132.061C560.412 130.807 560.629 129.875 561.062 129.266C561.496 128.656 562.176 128.352 563.102 128.352C564.02 128.352 564.695 128.646 565.129 129.236C565.562 129.822 565.785 130.729 565.797 131.955V133.361ZM564.713 131.879C564.713 130.961 564.584 130.293 564.326 129.875C564.068 129.453 563.66 129.242 563.102 129.242C562.547 129.242 562.143 129.451 561.889 129.869C561.635 130.287 561.504 130.93 561.496 131.797V133.531C561.496 134.453 561.629 135.135 561.895 135.576C562.164 136.014 562.57 136.232 563.113 136.232C563.648 136.232 564.045 136.025 564.303 135.611C564.564 135.197 564.701 134.545 564.713 133.654V131.879ZM570.748 137H569.658V129.775L567.473 130.578V129.594L570.578 128.428H570.748V137ZM574.422 132.723L574.855 128.469H579.227V129.471H575.775L575.518 131.797C575.936 131.551 576.41 131.428 576.941 131.428C577.719 131.428 578.336 131.686 578.793 132.201C579.25 132.713 579.479 133.406 579.479 134.281C579.479 135.16 579.24 135.854 578.764 136.361C578.291 136.865 577.629 137.117 576.777 137.117C576.023 137.117 575.408 136.908 574.932 136.49C574.455 136.072 574.184 135.494 574.117 134.756H575.143C575.209 135.244 575.383 135.613 575.664 135.863C575.945 136.109 576.316 136.232 576.777 136.232C577.281 136.232 577.676 136.061 577.961 135.717C578.25 135.373 578.395 134.898 578.395 134.293C578.395 133.723 578.238 133.266 577.926 132.922C577.617 132.574 577.205 132.4 576.689 132.4C576.217 132.4 575.846 132.504 575.576 132.711L575.289 132.945L574.422 132.723Z" fill="black"/>
<rect x="339.5" y="153.5" width="101" height="37" fill="#4F4F4F" stroke="black"/>
<rect x="441.5" y="153.5" width="84" height="37" fill="#4F4F4F" stroke="black"/>
<path d="M484.207 171.723L484.641 167.469H489.012V168.471H485.561L485.303 170.797C485.721 170.551 486.195 170.428 486.727 170.428C487.504 170.428 488.121 170.686 488.578 171.201C489.035 171.713 489.264 172.406 489.264 173.281C489.264 174.16 489.025 174.854 488.549 175.361C488.076 175.865 487.414 176.117 486.562 176.117C485.809 176.117 485.193 175.908 484.717 175.49C484.24 175.072 483.969 174.494 483.902 173.756H484.928C484.994 174.244 485.168 174.613 485.449 174.863C485.73 175.109 486.102 175.232 486.562 175.232C487.066 175.232 487.461 175.061 487.746 174.717C488.035 174.373 488.18 173.898 488.18 173.293C488.18 172.723 488.023 172.266 487.711 171.922C487.402 171.574 486.99 171.4 486.475 171.4C486.002 171.4 485.631 171.504 485.361 171.711L485.074 171.945L484.207 171.723Z" fill="black"/>
<rect x="526.5" y="153.5" width="84" height="37" fill="#4F4F4F" stroke="black"/>
<path d="M559.299 176H553.709V175.221L556.662 171.939C557.1 171.443 557.4 171.041 557.564 170.732C557.732 170.42 557.816 170.098 557.816 169.766C557.816 169.32 557.682 168.955 557.412 168.67C557.143 168.385 556.783 168.242 556.334 168.242C555.795 168.242 555.375 168.396 555.074 168.705C554.777 169.01 554.629 169.436 554.629 169.982H553.545C553.545 169.197 553.797 168.562 554.301 168.078C554.809 167.594 555.486 167.352 556.334 167.352C557.127 167.352 557.754 167.561 558.215 167.979C558.676 168.393 558.906 168.945 558.906 169.637C558.906 170.477 558.371 171.477 557.301 172.637L555.016 175.115H559.299V176ZM565.797 172.361C565.797 173.631 565.58 174.574 565.146 175.191C564.713 175.809 564.035 176.117 563.113 176.117C562.203 176.117 561.529 175.816 561.092 175.215C560.654 174.609 560.428 173.707 560.412 172.508V171.061C560.412 169.807 560.629 168.875 561.062 168.266C561.496 167.656 562.176 167.352 563.102 167.352C564.02 167.352 564.695 167.646 565.129 168.236C565.562 168.822 565.785 169.729 565.797 170.955V172.361ZM564.713 170.879C564.713 169.961 564.584 169.293 564.326 168.875C564.068 168.453 563.66 168.242 563.102 168.242C562.547 168.242 562.143 168.451 561.889 168.869C561.635 169.287 561.504 169.93 561.496 170.797V172.531C561.496 173.453 561.629 174.135 561.895 174.576C562.164 175.014 562.57 175.232 563.113 175.232C563.648 175.232 564.045 175.025 564.303 174.611C564.564 174.197 564.701 173.545 564.713 172.654V170.879ZM570.748 176H569.658V168.775L567.473 169.578V168.594L570.578 167.428H570.748V176ZM574.422 171.723L574.855 167.469H579.227V168.471H575.775L575.518 170.797C575.936 170.551 576.41 170.428 576.941 170.428C577.719 170.428 578.336 170.686 578.793 171.201C579.25 171.713 579.479 172.406 579.479 173.281C579.479 174.16 579.24 174.854 578.764 175.361C578.291 175.865 577.629 176.117 576.777 176.117C576.023 176.117 575.408 175.908 574.932 175.49C574.455 175.072 574.184 174.494 574.117 173.756H575.143C575.209 174.244 575.383 174.613 575.664 174.863C575.945 175.109 576.316 175.232 576.777 175.232C577.281 175.232 577.676 175.061 577.961 174.717C578.25 174.373 578.395 173.898 578.395 173.293C578.395 172.723 578.238 172.266 577.926 171.922C577.617 171.574 577.205 171.4 576.689 171.4C576.217 171.4 575.846 171.504 575.576 171.711L575.289 171.945L574.422 171.723Z" fill="black"/>
<path d="M562.592 57.752L564.818 53.4688H566.096L563.154 58.8184V62H562.029V58.8184L559.088 53.4688H560.377L562.592 57.752ZM569.271 62.1172C568.412 62.1172 567.713 61.8359 567.174 61.2734C566.635 60.707 566.365 59.9512 566.365 59.0059V58.8066C566.365 58.1777 566.484 57.6172 566.723 57.125C566.965 56.6289 567.301 56.2422 567.73 55.9648C568.164 55.6836 568.633 55.543 569.137 55.543C569.961 55.543 570.602 55.8145 571.059 56.3574C571.516 56.9004 571.744 57.6777 571.744 58.6895V59.1406H567.449C567.465 59.7656 567.646 60.2715 567.994 60.6582C568.346 61.041 568.791 61.2324 569.33 61.2324C569.713 61.2324 570.037 61.1543 570.303 60.998C570.568 60.8418 570.801 60.6348 571 60.377L571.662 60.8926C571.131 61.709 570.334 62.1172 569.271 62.1172ZM569.137 56.4336C568.699 56.4336 568.332 56.5938 568.035 56.9141C567.738 57.2305 567.555 57.6758 567.484 58.25H570.66V58.168C570.629 57.6172 570.48 57.1914 570.215 56.8906C569.949 56.5859 569.59 56.4336 569.137 56.4336ZM576.918 62C576.855 61.875 576.805 61.6523 576.766 61.332C576.262 61.8555 575.66 62.1172 574.961 62.1172C574.336 62.1172 573.822 61.9414 573.42 61.5898C573.021 61.2344 572.822 60.7852 572.822 60.2422C572.822 59.582 573.072 59.0703 573.572 58.707C574.076 58.3398 574.783 58.1562 575.693 58.1562H576.748V57.6582C576.748 57.2793 576.635 56.9785 576.408 56.7559C576.182 56.5293 575.848 56.416 575.406 56.416C575.02 56.416 574.695 56.5137 574.434 56.709C574.172 56.9043 574.041 57.1406 574.041 57.418H572.951C572.951 57.1016 573.062 56.7969 573.285 56.5039C573.512 56.207 573.816 55.9727 574.199 55.8008C574.586 55.6289 575.01 55.543 575.471 55.543C576.201 55.543 576.773 55.7266 577.188 56.0938C577.602 56.457 577.816 56.959 577.832 57.5996V60.5176C577.832 61.0996 577.906 61.5625 578.055 61.9062V62H576.918ZM575.119 61.1738C575.459 61.1738 575.781 61.0859 576.086 60.9102C576.391 60.7344 576.611 60.5059 576.748 60.2246V58.9238H575.898C574.57 58.9238 573.906 59.3125 573.906 60.0898C573.906 60.4297 574.02 60.6953 574.246 60.8867C574.473 61.0781 574.764 61.1738 575.119 61.1738ZM582.596 56.6328C582.432 56.6055 582.254 56.5918 582.062 56.5918C581.352 56.5918 580.869 56.8945 580.615 57.5V62H579.531V55.6602H580.586L580.604 56.3926C580.959 55.8262 581.463 55.543 582.115 55.543C582.326 55.543 582.486 55.5703 582.596 55.625V56.6328Z" fill="black"/>
<rect width="296" height="193" transform="translate(10 10)" fill="white"/>
<rect x="23.5" y="40.5" width="101" height="37" fill="#C4C4C4" stroke="black"/>
<rect x="125.5" y="40.5" width="84" height="37" fill="#C4C4C4" stroke="black"/>
<rect x="210.5" y="40.5" width="84" height="37" fill="#C4C4C4" stroke="black"/>
<path d="M152.592 116.752L154.818 112.469H156.096L153.154 117.818V121H152.029V117.818L149.088 112.469H150.377L152.592 116.752ZM159.271 121.117C158.412 121.117 157.713 120.836 157.174 120.273C156.635 119.707 156.365 118.951 156.365 118.006V117.807C156.365 117.178 156.484 116.617 156.723 116.125C156.965 115.629 157.301 115.242 157.73 114.965C158.164 114.684 158.633 114.543 159.137 114.543C159.961 114.543 160.602 114.814 161.059 115.357C161.516 115.9 161.744 116.678 161.744 117.689V118.141H157.449C157.465 118.766 157.646 119.271 157.994 119.658C158.346 120.041 158.791 120.232 159.33 120.232C159.713 120.232 160.037 120.154 160.303 119.998C160.568 119.842 160.801 119.635 161 119.377L161.662 119.893C161.131 120.709 160.334 121.117 159.271 121.117ZM159.137 115.434C158.699 115.434 158.332 115.594 158.035 115.914C157.738 116.23 157.555 116.676 157.484 117.25H160.66V117.168C160.629 116.617 160.48 116.191 160.215 115.891C159.949 115.586 159.59 115.434 159.137 115.434ZM166.918 121C166.855 120.875 166.805 120.652 166.766 120.332C166.262 120.855 165.66 121.117 164.961 121.117C164.336 121.117 163.822 120.941 163.42 120.59C163.021 120.234 162.822 119.785 162.822 119.242C162.822 118.582 163.072 118.07 163.572 117.707C164.076 117.34 164.783 117.156 165.693 117.156H166.748V116.658C166.748 116.279 166.635 115.979 166.408 115.756C166.182 115.529 165.848 115.416 165.406 115.416C165.02 115.416 164.695 115.514 164.434 115.709C164.172 115.904 164.041 116.141 164.041 116.418H162.951C162.951 116.102 163.062 115.797 163.285 115.504C163.512 115.207 163.816 114.973 164.199 114.801C164.586 114.629 165.01 114.543 165.471 114.543C166.201 114.543 166.773 114.727 167.188 115.094C167.602 115.457 167.816 115.959 167.832 116.6V119.518C167.832 120.1 167.906 120.562 168.055 120.906V121H166.918ZM165.119 120.174C165.459 120.174 165.781 120.086 166.086 119.91C166.391 119.734 166.611 119.506 166.748 119.225V117.924H165.898C164.57 117.924 163.906 118.312 163.906 119.09C163.906 119.43 164.02 119.695 164.246 119.887C164.473 120.078 164.764 120.174 165.119 120.174ZM172.596 115.633C172.432 115.605 172.254 115.592 172.062 115.592C171.352 115.592 170.869 115.895 170.615 116.5V121H169.531V114.66H170.586L170.604 115.393C170.959 114.826 171.463 114.543 172.115 114.543C172.326 114.543 172.486 114.57 172.596 114.625V115.633Z" fill="black"/>
<path d="M60.2656 60.293C60.1602 61.1953 59.8262 61.8926 59.2637 62.3848C58.7051 62.873 57.9609 63.1172 57.0312 63.1172C56.0234 63.1172 55.2148 62.7559 54.6055 62.0332C54 61.3105 53.6973 60.3438 53.6973 59.1328V58.3125C53.6973 57.5195 53.8379 56.8223 54.1191 56.2207C54.4043 55.6191 54.8066 55.1582 55.3262 54.8379C55.8457 54.5137 56.4473 54.3516 57.1309 54.3516C58.0371 54.3516 58.7637 54.6055 59.3105 55.1133C59.8574 55.6172 60.1758 56.3164 60.2656 57.2109H59.1348C59.0371 56.5312 58.8242 56.0391 58.4961 55.7344C58.1719 55.4297 57.7168 55.2773 57.1309 55.2773C56.4121 55.2773 55.8477 55.543 55.4375 56.0742C55.0312 56.6055 54.8281 57.3613 54.8281 58.3418V59.168C54.8281 60.0938 55.0215 60.8301 55.4082 61.377C55.7949 61.9238 56.3359 62.1973 57.0312 62.1973C57.6562 62.1973 58.1348 62.0566 58.4668 61.7754C58.8027 61.4902 59.0254 60.9961 59.1348 60.293H60.2656ZM61.3496 59.7715C61.3496 59.1504 61.4707 58.5918 61.7129 58.0957C61.959 57.5996 62.2988 57.2168 62.7324 56.9473C63.1699 56.6777 63.668 56.543 64.2266 56.543C65.0898 56.543 65.7871 56.8418 66.3184 57.4395C66.8535 58.0371 67.1211 58.832 67.1211 59.8242V59.9004C67.1211 60.5176 67.002 61.0723 66.7637 61.5645C66.5293 62.0527 66.1914 62.4336 65.75 62.707C65.3125 62.9805 64.8086 63.1172 64.2383 63.1172C63.3789 63.1172 62.6816 62.8184 62.1465 62.2207C61.6152 61.623 61.3496 60.832 61.3496 59.8477V59.7715ZM62.4395 59.9004C62.4395 60.6035 62.6016 61.168 62.9258 61.5938C63.2539 62.0195 63.6914 62.2324 64.2383 62.2324C64.7891 62.2324 65.2266 62.0176 65.5508 61.5879C65.875 61.1543 66.0371 60.5488 66.0371 59.7715C66.0371 59.0762 65.8711 58.5137 65.5391 58.084C65.2109 57.6504 64.7734 57.4336 64.2266 57.4336C63.6914 57.4336 63.2598 57.6465 62.9316 58.0723C62.6035 58.498 62.4395 59.1074 62.4395 59.9004ZM72.3945 62.373C71.9727 62.8691 71.3535 63.1172 70.5371 63.1172C69.8613 63.1172 69.3457 62.9219 68.9902 62.5312C68.6387 62.1367 68.4609 61.5547 68.457 60.7852V56.6602H69.541V60.7559C69.541 61.7168 69.9316 62.1973 70.7129 62.1973C71.541 62.1973 72.0918 61.8887 72.3652 61.2715V56.6602H73.4492V63H72.418L72.3945 62.373ZM76.127 56.6602L76.1621 57.457C76.6465 56.8477 77.2793 56.543 78.0605 56.543C79.4004 56.543 80.0762 57.2988 80.0879 58.8105V63H79.0039V58.8047C79 58.3477 78.8945 58.0098 78.6875 57.791C78.4844 57.5723 78.166 57.4629 77.7324 57.4629C77.3809 57.4629 77.0723 57.5566 76.8066 57.7441C76.541 57.9316 76.334 58.1777 76.1855 58.4824V63H75.1016V56.6602H76.127ZM83.1934 55.125V56.6602H84.377V57.498H83.1934V61.4297C83.1934 61.6836 83.2461 61.875 83.3516 62.0039C83.457 62.1289 83.6367 62.1914 83.8906 62.1914C84.0156 62.1914 84.1875 62.168 84.4062 62.1211V63C84.1211 63.0781 83.8438 63.1172 83.5742 63.1172C83.0898 63.1172 82.7246 62.9707 82.4785 62.6777C82.2324 62.3848 82.1094 61.9688 82.1094 61.4297V57.498H80.9551V56.6602H82.1094V55.125H83.1934ZM88.7129 57.6328C88.5488 57.6055 88.3711 57.5918 88.1797 57.5918C87.4688 57.5918 86.9863 57.8945 86.7324 58.5V63H85.6484V56.6602H86.7031L86.7207 57.3926C87.0762 56.8262 87.5801 56.543 88.2324 56.543C88.4434 56.543 88.6035 56.5703 88.7129 56.625V57.6328ZM91.8945 61.4121L93.3711 56.6602H94.5312L91.9824 63.9785C91.5879 65.0332 90.9609 65.5605 90.1016 65.5605L89.8965 65.543L89.4922 65.4668V64.5879L89.7852 64.6113C90.1523 64.6113 90.4375 64.5371 90.6406 64.3887C90.8477 64.2402 91.0176 63.9688 91.1504 63.5742L91.3906 62.9297L89.1289 56.6602H90.3125L91.8945 61.4121Z" fill="black"/>
<rect x="23.5" y="78.5" width="101" height="37" fill="#6FCF97" stroke="black"/>
<path d="M55.1973 100H54.0723V91.4688H55.1973V100ZM59.6328 99.2324C60.0195 99.2324 60.3574 99.1152 60.6465 98.8809C60.9355 98.6465 61.0957 98.3535 61.127 98.002H62.1523C62.1328 98.3652 62.0078 98.7109 61.7773 99.0391C61.5469 99.3672 61.2383 99.6289 60.8516 99.8242C60.4688 100.02 60.0625 100.117 59.6328 100.117C58.7695 100.117 58.082 99.8301 57.5703 99.2559C57.0625 98.6777 56.8086 97.8887 56.8086 96.8887V96.707C56.8086 96.0898 56.9219 95.541 57.1484 95.0605C57.375 94.5801 57.6992 94.207 58.1211 93.9414C58.5469 93.6758 59.0488 93.543 59.627 93.543C60.3379 93.543 60.9277 93.7559 61.3965 94.1816C61.8691 94.6074 62.1211 95.1602 62.1523 95.8398H61.127C61.0957 95.4297 60.9395 95.0938 60.6582 94.832C60.3809 94.5664 60.0371 94.4336 59.627 94.4336C59.0762 94.4336 58.6484 94.6328 58.3438 95.0312C58.043 95.4258 57.8926 95.998 57.8926 96.748V96.9531C57.8926 97.6836 58.043 98.2461 58.3438 98.6406C58.6445 99.0352 59.0742 99.2324 59.6328 99.2324ZM66.002 100.117C65.1426 100.117 64.4434 99.8359 63.9043 99.2734C63.3652 98.707 63.0957 97.9512 63.0957 97.0059V96.8066C63.0957 96.1777 63.2148 95.6172 63.4531 95.125C63.6953 94.6289 64.0312 94.2422 64.4609 93.9648C64.8945 93.6836 65.3633 93.543 65.8672 93.543C66.6914 93.543 67.332 93.8145 67.7891 94.3574C68.2461 94.9004 68.4746 95.6777 68.4746 96.6895V97.1406H64.1797C64.1953 97.7656 64.377 98.2715 64.7246 98.6582C65.0762 99.041 65.5215 99.2324 66.0605 99.2324C66.4434 99.2324 66.7676 99.1543 67.0332 98.998C67.2988 98.8418 67.5312 98.6348 67.7305 98.377L68.3926 98.8926C67.8613 99.709 67.0645 100.117 66.002 100.117ZM65.8672 94.4336C65.4297 94.4336 65.0625 94.5938 64.7656 94.9141C64.4688 95.2305 64.2852 95.6758 64.2148 96.25H67.3906V96.168C67.3594 95.6172 67.2109 95.1914 66.9453 94.8906C66.6797 94.5859 66.3203 94.4336 65.8672 94.4336ZM70.9121 100H69.8281V91H70.9121V100ZM76.5664 100C76.5039 99.875 76.4531 99.6523 76.4141 99.332C75.9102 99.8555 75.3086 100.117 74.6094 100.117C73.9844 100.117 73.4707 99.9414 73.0684 99.5898C72.6699 99.2344 72.4707 98.7852 72.4707 98.2422C72.4707 97.582 72.7207 97.0703 73.2207 96.707C73.7246 96.3398 74.4316 96.1562 75.3418 96.1562H76.3965V95.6582C76.3965 95.2793 76.2832 94.9785 76.0566 94.7559C75.8301 94.5293 75.4961 94.416 75.0547 94.416C74.668 94.416 74.3438 94.5137 74.082 94.709C73.8203 94.9043 73.6895 95.1406 73.6895 95.418H72.5996C72.5996 95.1016 72.7109 94.7969 72.9336 94.5039C73.1602 94.207 73.4648 93.9727 73.8477 93.8008C74.2344 93.6289 74.6582 93.543 75.1191 93.543C75.8496 93.543 76.4219 93.7266 76.8359 94.0938C77.25 94.457 77.4648 94.959 77.4805 95.5996V98.5176C77.4805 99.0996 77.5547 99.5625 77.7031 99.9062V100H76.5664ZM74.7676 99.1738C75.1074 99.1738 75.4297 99.0859 75.7344 98.9102C76.0391 98.7344 76.2598 98.5059 76.3965 98.2246V96.9238H75.5469C74.2188 96.9238 73.5547 97.3125 73.5547 98.0898C73.5547 98.4297 73.668 98.6953 73.8945 98.8867C74.1211 99.0781 74.4121 99.1738 74.7676 99.1738ZM80.2051 93.6602L80.2402 94.457C80.7246 93.8477 81.3574 93.543 82.1387 93.543C83.4785 93.543 84.1543 94.2988 84.166 95.8105V100H83.082V95.8047C83.0781 95.3477 82.9727 95.0098 82.7656 94.791C82.5625 94.5723 82.2441 94.4629 81.8105 94.4629C81.459 94.4629 81.1504 94.5566 80.8848 94.7441C80.6191 94.9316 80.4121 95.1777 80.2637 95.4824V100H79.1797V93.6602H80.2051ZM85.5371 96.7773C85.5371 95.8047 85.7676 95.0234 86.2285 94.4336C86.6895 93.8398 87.293 93.543 88.0391 93.543C88.7812 93.543 89.3691 93.7969 89.8027 94.3047V91H90.8867V100H89.8906L89.8379 99.3203C89.4043 99.8516 88.8008 100.117 88.0273 100.117C87.293 100.117 86.6934 99.8164 86.2285 99.2148C85.7676 98.6133 85.5371 97.8281 85.5371 96.8594V96.7773ZM86.6211 96.9004C86.6211 97.6191 86.7695 98.1816 87.0664 98.5879C87.3633 98.9941 87.7734 99.1973 88.2969 99.1973C88.9844 99.1973 89.4863 98.8887 89.8027 98.2715V95.3594C89.4785 94.7617 88.9805 94.4629 88.3086 94.4629C87.7773 94.4629 87.3633 94.668 87.0664 95.0781C86.7695 95.4883 86.6211 96.0957 86.6211 96.9004Z" fill="black"/>
<path d="M133.504 116.197C132.539 115.92 131.836 115.58 131.395 115.178C130.957 114.771 130.738 114.271 130.738 113.678C130.738 113.006 131.006 112.451 131.541 112.014C132.08 111.572 132.779 111.352 133.639 111.352C134.225 111.352 134.746 111.465 135.203 111.691C135.664 111.918 136.02 112.23 136.27 112.629C136.523 113.027 136.65 113.463 136.65 113.936H135.52C135.52 113.42 135.355 113.016 135.027 112.723C134.699 112.426 134.236 112.277 133.639 112.277C133.084 112.277 132.65 112.4 132.338 112.646C132.029 112.889 131.875 113.227 131.875 113.66C131.875 114.008 132.021 114.303 132.314 114.545C132.611 114.783 133.113 115.002 133.82 115.201C134.531 115.4 135.086 115.621 135.484 115.863C135.887 116.102 136.184 116.381 136.375 116.701C136.57 117.021 136.668 117.398 136.668 117.832C136.668 118.523 136.398 119.078 135.859 119.496C135.32 119.91 134.6 120.117 133.697 120.117C133.111 120.117 132.564 120.006 132.057 119.783C131.549 119.557 131.156 119.248 130.879 118.857C130.605 118.467 130.469 118.023 130.469 117.527H131.6C131.6 118.043 131.789 118.451 132.168 118.752C132.551 119.049 133.061 119.197 133.697 119.197C134.291 119.197 134.746 119.076 135.062 118.834C135.379 118.592 135.537 118.262 135.537 117.844C135.537 117.426 135.391 117.104 135.098 116.877C134.805 116.646 134.273 116.42 133.504 116.197ZM143.559 118.506L144.777 113.66H145.861L144.016 120H143.137L141.596 115.195L140.096 120H139.217L137.377 113.66H138.455L139.703 118.406L141.18 113.66H142.053L143.559 118.506ZM148.146 120H147.062V113.66H148.146V120ZM146.975 111.979C146.975 111.803 147.027 111.654 147.133 111.533C147.242 111.412 147.402 111.352 147.613 111.352C147.824 111.352 147.984 111.412 148.094 111.533C148.203 111.654 148.258 111.803 148.258 111.979C148.258 112.154 148.203 112.301 148.094 112.418C147.984 112.535 147.824 112.594 147.613 112.594C147.402 112.594 147.242 112.535 147.133 112.418C147.027 112.301 146.975 112.154 146.975 111.979ZM151.357 112.125V113.66H152.541V114.498H151.357V118.43C151.357 118.684 151.41 118.875 151.516 119.004C151.621 119.129 151.801 119.191 152.055 119.191C152.18 119.191 152.352 119.168 152.57 119.121V120C152.285 120.078 152.008 120.117 151.738 120.117C151.254 120.117 150.889 119.971 150.643 119.678C150.396 119.385 150.273 118.969 150.273 118.43V114.498H149.119V113.66H150.273V112.125H151.357ZM154.832 119.115H158.541V120H153.508V119.203L157.006 114.557H153.561V113.66H158.365V114.428L154.832 119.115ZM162.303 120.117C161.443 120.117 160.744 119.836 160.205 119.273C159.666 118.707 159.396 117.951 159.396 117.006V116.807C159.396 116.178 159.516 115.617 159.754 115.125C159.996 114.629 160.332 114.242 160.762 113.965C161.195 113.684 161.664 113.543 162.168 113.543C162.992 113.543 163.633 113.814 164.09 114.357C164.547 114.9 164.775 115.678 164.775 116.689V117.141H160.48C160.496 117.766 160.678 118.271 161.025 118.658C161.377 119.041 161.822 119.232 162.361 119.232C162.744 119.232 163.068 119.154 163.334 118.998C163.6 118.842 163.832 118.635 164.031 118.377L164.693 118.893C164.162 119.709 163.365 120.117 162.303 120.117ZM162.168 114.434C161.73 114.434 161.363 114.594 161.066 114.914C160.77 115.23 160.586 115.676 160.516 116.25H163.691V116.168C163.66 115.617 163.512 115.191 163.246 114.891C162.98 114.586 162.621 114.434 162.168 114.434ZM169.1 114.633C168.936 114.605 168.758 114.592 168.566 114.592C167.855 114.592 167.373 114.895 167.119 115.5V120H166.035V113.66H167.09L167.107 114.393C167.463 113.826 167.967 113.543 168.619 113.543C168.83 113.543 168.99 113.57 169.1 113.625V114.633ZM171.279 120H170.195V111H171.279V120ZM176.934 120C176.871 119.875 176.82 119.652 176.781 119.332C176.277 119.855 175.676 120.117 174.977 120.117C174.352 120.117 173.838 119.941 173.436 119.59C173.037 119.234 172.838 118.785 172.838 118.242C172.838 117.582 173.088 117.07 173.588 116.707C174.092 116.34 174.799 116.156 175.709 116.156H176.764V115.658C176.764 115.279 176.65 114.979 176.424 114.756C176.197 114.529 175.863 114.416 175.422 114.416C175.035 114.416 174.711 114.514 174.449 114.709C174.188 114.904 174.057 115.141 174.057 115.418H172.967C172.967 115.102 173.078 114.797 173.301 114.504C173.527 114.207 173.832 113.973 174.215 113.801C174.602 113.629 175.025 113.543 175.486 113.543C176.217 113.543 176.789 113.727 177.203 114.094C177.617 114.457 177.832 114.959 177.848 115.6V118.518C177.848 119.1 177.922 119.562 178.07 119.906V120H176.934ZM175.135 119.174C175.475 119.174 175.797 119.086 176.102 118.91C176.406 118.734 176.627 118.506 176.764 118.225V116.924H175.914C174.586 116.924 173.922 117.312 173.922 118.09C173.922 118.43 174.035 118.695 174.262 118.887C174.488 119.078 174.779 119.174 175.135 119.174ZM180.572 113.66L180.607 114.457C181.092 113.848 181.725 113.543 182.506 113.543C183.846 113.543 184.521 114.299 184.533 115.811V120H183.449V115.805C183.445 115.348 183.34 115.01 183.133 114.791C182.93 114.572 182.611 114.463 182.178 114.463C181.826 114.463 181.518 114.557 181.252 114.744C180.986 114.932 180.779 115.178 180.631 115.482V120H179.547V113.66H180.572ZM185.904 116.777C185.904 115.805 186.135 115.023 186.596 114.434C187.057 113.84 187.66 113.543 188.406 113.543C189.148 113.543 189.736 113.797 190.17 114.305V111H191.254V120H190.258L190.205 119.32C189.771 119.852 189.168 120.117 188.395 120.117C187.66 120.117 187.061 119.816 186.596 119.215C186.135 118.613 185.904 117.828 185.904 116.859V116.777ZM186.988 116.9C186.988 117.619 187.137 118.182 187.434 118.588C187.73 118.994 188.141 119.197 188.664 119.197C189.352 119.197 189.854 118.889 190.17 118.271V115.359C189.846 114.762 189.348 114.463 188.676 114.463C188.145 114.463 187.73 114.668 187.434 115.078C187.137 115.488 186.988 116.096 186.988 116.9Z" fill="black"/>
<rect x="23.5" y="116.5" width="101" height="37" fill="#F0E442" stroke="black"/>
<path d="M60.5469 138H59.416L55.1211 131.426V138H53.9902V129.469H55.1211L59.4277 136.072V129.469H60.5469V138ZM62.0879 134.771C62.0879 134.15 62.209 133.592 62.4512 133.096C62.6973 132.6 63.0371 132.217 63.4707 131.947C63.9082 131.678 64.4062 131.543 64.9648 131.543C65.8281 131.543 66.5254 131.842 67.0566 132.439C67.5918 133.037 67.8594 133.832 67.8594 134.824V134.9C67.8594 135.518 67.7402 136.072 67.502 136.564C67.2676 137.053 66.9297 137.434 66.4883 137.707C66.0508 137.98 65.5469 138.117 64.9766 138.117C64.1172 138.117 63.4199 137.818 62.8848 137.221C62.3535 136.623 62.0879 135.832 62.0879 134.848V134.771ZM63.1777 134.9C63.1777 135.604 63.3398 136.168 63.6641 136.594C63.9922 137.02 64.4297 137.232 64.9766 137.232C65.5273 137.232 65.9648 137.018 66.2891 136.588C66.6133 136.154 66.7754 135.549 66.7754 134.771C66.7754 134.076 66.6094 133.514 66.2773 133.084C65.9492 132.65 65.5117 132.434 64.9648 132.434C64.4297 132.434 63.998 132.646 63.6699 133.072C63.3418 133.498 63.1777 134.107 63.1777 134.9ZM72.2832 132.633C72.1191 132.605 71.9414 132.592 71.75 132.592C71.0391 132.592 70.5566 132.895 70.3027 133.5V138H69.2188V131.66H70.2734L70.291 132.393C70.6465 131.826 71.1504 131.543 71.8027 131.543C72.0137 131.543 72.1738 131.57 72.2832 131.625V132.633ZM79.0039 136.506L80.2227 131.66H81.3066L79.4609 138H78.582L77.041 133.195L75.541 138H74.6621L72.8223 131.66H73.9004L75.1484 136.406L76.625 131.66H77.498L79.0039 136.506ZM86.3281 138C86.2656 137.875 86.2148 137.652 86.1758 137.332C85.6719 137.855 85.0703 138.117 84.3711 138.117C83.7461 138.117 83.2324 137.941 82.8301 137.59C82.4316 137.234 82.2324 136.785 82.2324 136.242C82.2324 135.582 82.4824 135.07 82.9824 134.707C83.4863 134.34 84.1934 134.156 85.1035 134.156H86.1582V133.658C86.1582 133.279 86.0449 132.979 85.8184 132.756C85.5918 132.529 85.2578 132.416 84.8164 132.416C84.4297 132.416 84.1055 132.514 83.8438 132.709C83.582 132.904 83.4512 133.141 83.4512 133.418H82.3613C82.3613 133.102 82.4727 132.797 82.6953 132.504C82.9219 132.207 83.2266 131.973 83.6094 131.801C83.9961 131.629 84.4199 131.543 84.8809 131.543C85.6113 131.543 86.1836 131.727 86.5977 132.094C87.0117 132.457 87.2266 132.959 87.2422 133.6V136.518C87.2422 137.1 87.3164 137.562 87.4648 137.906V138H86.3281ZM84.5293 137.174C84.8691 137.174 85.1914 137.086 85.4961 136.91C85.8008 136.734 86.0215 136.506 86.1582 136.225V134.924H85.3086C83.9805 134.924 83.3164 135.312 83.3164 136.09C83.3164 136.43 83.4297 136.695 83.6562 136.887C83.8828 137.078 84.1738 137.174 84.5293 137.174ZM90.9219 136.412L92.3984 131.66H93.5586L91.0098 138.979C90.6152 140.033 89.9883 140.561 89.1289 140.561L88.9238 140.543L88.5195 140.467V139.588L88.8125 139.611C89.1797 139.611 89.4648 139.537 89.668 139.389C89.875 139.24 90.0449 138.969 90.1777 138.574L90.418 137.93L88.1562 131.66H89.3398L90.9219 136.412Z" fill="black"/>
<rect x="23.5" y="153.5" width="101" height="37" fill="#6FCF97" stroke="black"/>
<rect x="125.5" y="78.5" width="84" height="37" fill="#6FCF97" stroke="black"/>
<rect x="125.5" y="116.5" width="84" height="37" fill="#6FCF97" stroke="black"/>
<path d="M167.285 136.135H168.469V137.02H167.285V139H166.195V137.02H162.311V136.381L166.131 130.469H167.285V136.135ZM163.541 136.135H166.195V131.951L166.066 132.186L163.541 136.135Z" fill="black"/>
<rect x="125.5" y="153.5" width="84" height="37" fill="#6FCF97" stroke="black"/>
<path d="M163.207 171.723L163.641 167.469H168.012V168.471H164.561L164.303 170.797C164.721 170.551 165.195 170.428 165.727 170.428C166.504 170.428 167.121 170.686 167.578 171.201C168.035 171.713 168.264 172.406 168.264 173.281C168.264 174.16 168.025 174.854 167.549 175.361C167.076 175.865 166.414 176.117 165.562 176.117C164.809 176.117 164.193 175.908 163.717 175.49C163.24 175.072 162.969 174.494 162.902 173.756H163.928C163.994 174.244 164.168 174.613 164.449 174.863C164.73 175.109 165.102 175.232 165.562 175.232C166.066 175.232 166.461 175.061 166.746 174.717C167.035 174.373 167.18 173.898 167.18 173.293C167.18 172.723 167.023 172.266 166.711 171.922C166.402 171.574 165.99 171.4 165.475 171.4C165.002 171.4 164.631 171.504 164.361 171.711L164.074 171.945L163.207 171.723Z" fill="black"/>
<rect x="210.5" y="78.5" width="84" height="37" fill="#6FCF97" stroke="black"/>
<rect x="210.5" y="116.5" width="84" height="37" fill="#6FCF97" stroke="black"/>
<path d="M247.299 140H241.709V139.221L244.662 135.939C245.1 135.443 245.4 135.041 245.564 134.732C245.732 134.42 245.816 134.098 245.816 133.766C245.816 133.32 245.682 132.955 245.412 132.67C245.143 132.385 244.783 132.242 244.334 132.242C243.795 132.242 243.375 132.396 243.074 132.705C242.777 133.01 242.629 133.436 242.629 133.982H241.545C241.545 133.197 241.797 132.562 242.301 132.078C242.809 131.594 243.486 131.352 244.334 131.352C245.127 131.352 245.754 131.561 246.215 131.979C246.676 132.393 246.906 132.945 246.906 133.637C246.906 134.477 246.371 135.477 245.301 136.637L243.016 139.115H247.299V140ZM253.797 136.361C253.797 137.631 253.58 138.574 253.146 139.191C252.713 139.809 252.035 140.117 251.113 140.117C250.203 140.117 249.529 139.816 249.092 139.215C248.654 138.609 248.428 137.707 248.412 136.508V135.061C248.412 133.807 248.629 132.875 249.062 132.266C249.496 131.656 250.176 131.352 251.102 131.352C252.02 131.352 252.695 131.646 253.129 132.236C253.562 132.822 253.785 133.729 253.797 134.955V136.361ZM252.713 134.879C252.713 133.961 252.584 133.293 252.326 132.875C252.068 132.453 251.66 132.242 251.102 132.242C250.547 132.242 250.143 132.451 249.889 132.869C249.635 133.287 249.504 133.93 249.496 134.797V136.531C249.496 137.453 249.629 138.135 249.895 138.576C250.164 139.014 250.57 139.232 251.113 139.232C251.648 139.232 252.045 139.025 252.303 138.611C252.564 138.197 252.701 137.545 252.713 136.654V134.879ZM258.748 140H257.658V132.775L255.473 133.578V132.594L258.578 131.428H258.748V140ZM266.178 131.463V132.383H265.979C265.135 132.398 264.463 132.648 263.963 133.133C263.463 133.617 263.174 134.299 263.096 135.178C263.545 134.662 264.158 134.404 264.936 134.404C265.678 134.404 266.27 134.666 266.711 135.189C267.156 135.713 267.379 136.389 267.379 137.217C267.379 138.096 267.139 138.799 266.658 139.326C266.182 139.854 265.541 140.117 264.736 140.117C263.92 140.117 263.258 139.805 262.75 139.18C262.242 138.551 261.988 137.742 261.988 136.754V136.338C261.988 134.768 262.322 133.568 262.99 132.74C263.662 131.908 264.66 131.482 265.984 131.463H266.178ZM264.754 135.307C264.383 135.307 264.041 135.418 263.729 135.641C263.416 135.863 263.199 136.143 263.078 136.479V136.877C263.078 137.58 263.236 138.146 263.553 138.576C263.869 139.006 264.264 139.221 264.736 139.221C265.225 139.221 265.607 139.041 265.885 138.682C266.166 138.322 266.307 137.852 266.307 137.27C266.307 136.684 266.164 136.211 265.879 135.852C265.598 135.488 265.223 135.307 264.754 135.307Z" fill="black"/>
<rect x="210.5" y="153.5" width="84" height="37" fill="#6FCF97" stroke="black"/>
<path d="M58.6953 172.232H55.1152V176H53.9902V167.469H59.2754V168.395H55.1152V171.312H58.6953V172.232ZM61.6309 176H60.5469V169.66H61.6309V176ZM60.459 167.979C60.459 167.803 60.5117 167.654 60.6172 167.533C60.7266 167.412 60.8867 167.352 61.0977 167.352C61.3086 167.352 61.4688 167.412 61.5781 167.533C61.6875 167.654 61.7422 167.803 61.7422 167.979C61.7422 168.154 61.6875 168.301 61.5781 168.418C61.4688 168.535 61.3086 168.594 61.0977 168.594C60.8867 168.594 60.7266 168.535 60.6172 168.418C60.5117 168.301 60.459 168.154 60.459 167.979ZM64.3965 169.66L64.4316 170.457C64.916 169.848 65.5488 169.543 66.3301 169.543C67.6699 169.543 68.3457 170.299 68.3574 171.811V176H67.2734V171.805C67.2695 171.348 67.1641 171.01 66.957 170.791C66.7539 170.572 66.4355 170.463 66.002 170.463C65.6504 170.463 65.3418 170.557 65.0762 170.744C64.8105 170.932 64.6035 171.178 64.4551 171.482V176H63.3711V169.66H64.3965ZM71.1699 176H70.0859V167H71.1699V176ZM76.8242 176C76.7617 175.875 76.7109 175.652 76.6719 175.332C76.168 175.855 75.5664 176.117 74.8672 176.117C74.2422 176.117 73.7285 175.941 73.3262 175.59C72.9277 175.234 72.7285 174.785 72.7285 174.242C72.7285 173.582 72.9785 173.07 73.4785 172.707C73.9824 172.34 74.6895 172.156 75.5996 172.156H76.6543V171.658C76.6543 171.279 76.541 170.979 76.3145 170.756C76.0879 170.529 75.7539 170.416 75.3125 170.416C74.9258 170.416 74.6016 170.514 74.3398 170.709C74.0781 170.904 73.9473 171.141 73.9473 171.418H72.8574C72.8574 171.102 72.9688 170.797 73.1914 170.504C73.418 170.207 73.7227 169.973 74.1055 169.801C74.4922 169.629 74.916 169.543 75.377 169.543C76.1074 169.543 76.6797 169.727 77.0938 170.094C77.5078 170.457 77.7227 170.959 77.7383 171.6V174.518C77.7383 175.1 77.8125 175.562 77.9609 175.906V176H76.8242ZM75.0254 175.174C75.3652 175.174 75.6875 175.086 75.9922 174.91C76.2969 174.734 76.5176 174.506 76.6543 174.225V172.924H75.8047C74.4766 172.924 73.8125 173.312 73.8125 174.09C73.8125 174.43 73.9258 174.695 74.1523 174.887C74.3789 175.078 74.6699 175.174 75.0254 175.174ZM80.4629 169.66L80.498 170.457C80.9824 169.848 81.6152 169.543 82.3965 169.543C83.7363 169.543 84.4121 170.299 84.4238 171.811V176H83.3398V171.805C83.3359 171.348 83.2305 171.01 83.0234 170.791C82.8203 170.572 82.502 170.463 82.0684 170.463C81.7168 170.463 81.4082 170.557 81.1426 170.744C80.877 170.932 80.6699 171.178 80.5215 171.482V176H79.4375V169.66H80.4629ZM85.7949 172.777C85.7949 171.805 86.0254 171.023 86.4863 170.434C86.9473 169.84 87.5508 169.543 88.2969 169.543C89.0391 169.543 89.627 169.797 90.0605 170.305V167H91.1445V176H90.1484L90.0957 175.32C89.6621 175.852 89.0586 176.117 88.2852 176.117C87.5508 176.117 86.9512 175.816 86.4863 175.215C86.0254 174.613 85.7949 173.828 85.7949 172.859V172.777ZM86.8789 172.9C86.8789 173.619 87.0273 174.182 87.3242 174.588C87.6211 174.994 88.0312 175.197 88.5547 175.197C89.2422 175.197 89.7441 174.889 90.0605 174.271V171.359C89.7363 170.762 89.2383 170.463 88.5664 170.463C88.0352 170.463 87.6211 170.668 87.3242 171.078C87.0273 171.488 86.8789 172.096 86.8789 172.9Z" fill="black"/>
<path d="M145.641 56H144.51V52.0566H140.209V56H139.084V47.4688H140.209V51.1367H144.51V47.4688H145.641V56ZM151.383 56C151.32 55.875 151.27 55.6523 151.23 55.332C150.727 55.8555 150.125 56.1172 149.426 56.1172C148.801 56.1172 148.287 55.9414 147.885 55.5898C147.486 55.2344 147.287 54.7852 147.287 54.2422C147.287 53.582 147.537 53.0703 148.037 52.707C148.541 52.3398 149.248 52.1562 150.158 52.1562H151.213V51.6582C151.213 51.2793 151.1 50.9785 150.873 50.7559C150.646 50.5293 150.312 50.416 149.871 50.416C149.484 50.416 149.16 50.5137 148.898 50.709C148.637 50.9043 148.506 51.1406 148.506 51.418H147.416C147.416 51.1016 147.527 50.7969 147.75 50.5039C147.977 50.207 148.281 49.9727 148.664 49.8008C149.051 49.6289 149.475 49.543 149.936 49.543C150.666 49.543 151.238 49.7266 151.652 50.0938C152.066 50.457 152.281 50.959 152.297 51.5996V54.5176C152.297 55.0996 152.371 55.5625 152.52 55.9062V56H151.383ZM149.584 55.1738C149.924 55.1738 150.246 55.0859 150.551 54.9102C150.855 54.7344 151.076 54.5059 151.213 54.2246V52.9238H150.363C149.035 52.9238 148.371 53.3125 148.371 54.0898C148.371 54.4297 148.484 54.6953 148.711 54.8867C148.938 55.0781 149.229 55.1738 149.584 55.1738ZM159.352 52.9004C159.352 53.8652 159.131 54.6426 158.689 55.2324C158.248 55.8223 157.65 56.1172 156.896 56.1172C156.127 56.1172 155.521 55.873 155.08 55.3848V58.4375H153.996V49.6602H154.986L155.039 50.3633C155.48 49.8164 156.094 49.543 156.879 49.543C157.641 49.543 158.242 49.8301 158.684 50.4043C159.129 50.9785 159.352 51.7773 159.352 52.8008V52.9004ZM158.268 52.7773C158.268 52.0625 158.115 51.498 157.811 51.084C157.506 50.6699 157.088 50.4629 156.557 50.4629C155.9 50.4629 155.408 50.7539 155.08 51.3359V54.3652C155.404 54.9434 155.9 55.2324 156.568 55.2324C157.088 55.2324 157.5 55.0273 157.805 54.6172C158.113 54.2031 158.268 53.5898 158.268 52.7773ZM166.09 52.9004C166.09 53.8652 165.869 54.6426 165.428 55.2324C164.986 55.8223 164.389 56.1172 163.635 56.1172C162.865 56.1172 162.26 55.873 161.818 55.3848V58.4375H160.734V49.6602H161.725L161.777 50.3633C162.219 49.8164 162.832 49.543 163.617 49.543C164.379 49.543 164.98 49.8301 165.422 50.4043C165.867 50.9785 166.09 51.7773 166.09 52.8008V52.9004ZM165.006 52.7773C165.006 52.0625 164.854 51.498 164.549 51.084C164.244 50.6699 163.826 50.4629 163.295 50.4629C162.639 50.4629 162.146 50.7539 161.818 51.3359V54.3652C162.143 54.9434 162.639 55.2324 163.307 55.2324C163.826 55.2324 164.238 55.0273 164.543 54.6172C164.852 54.2031 165.006 53.5898 165.006 52.7773ZM168.65 56H167.566V49.6602H168.65V56ZM167.479 47.9785C167.479 47.8027 167.531 47.6543 167.637 47.5332C167.746 47.4121 167.906 47.3516 168.117 47.3516C168.328 47.3516 168.488 47.4121 168.598 47.5332C168.707 47.6543 168.762 47.8027 168.762 47.9785C168.762 48.1543 168.707 48.3008 168.598 48.418C168.488 48.5352 168.328 48.5938 168.117 48.5938C167.906 48.5938 167.746 48.5352 167.637 48.418C167.531 48.3008 167.479 48.1543 167.479 47.9785ZM171.416 49.6602L171.451 50.457C171.936 49.8477 172.568 49.543 173.35 49.543C174.689 49.543 175.365 50.2988 175.377 51.8105V56H174.293V51.8047C174.289 51.3477 174.184 51.0098 173.977 50.791C173.773 50.5723 173.455 50.4629 173.021 50.4629C172.67 50.4629 172.361 50.5566 172.096 50.7441C171.83 50.9316 171.623 51.1777 171.475 51.4824V56H170.391V49.6602H171.416ZM179.643 56.1172C178.783 56.1172 178.084 55.8359 177.545 55.2734C177.006 54.707 176.736 53.9512 176.736 53.0059V52.8066C176.736 52.1777 176.855 51.6172 177.094 51.125C177.336 50.6289 177.672 50.2422 178.102 49.9648C178.535 49.6836 179.004 49.543 179.508 49.543C180.332 49.543 180.973 49.8145 181.43 50.3574C181.887 50.9004 182.115 51.6777 182.115 52.6895V53.1406H177.82C177.836 53.7656 178.018 54.2715 178.365 54.6582C178.717 55.041 179.162 55.2324 179.701 55.2324C180.084 55.2324 180.408 55.1543 180.674 54.998C180.939 54.8418 181.172 54.6348 181.371 54.377L182.033 54.8926C181.502 55.709 180.705 56.1172 179.643 56.1172ZM179.508 50.4336C179.07 50.4336 178.703 50.5938 178.406 50.9141C178.109 51.2305 177.926 51.6758 177.855 52.25H181.031V52.168C181 51.6172 180.852 51.1914 180.586 50.8906C180.32 50.5859 179.961 50.4336 179.508 50.4336ZM187.066 54.3184C187.066 54.0254 186.955 53.7988 186.732 53.6387C186.514 53.4746 186.129 53.334 185.578 53.2168C185.031 53.0996 184.596 52.959 184.271 52.7949C183.951 52.6309 183.713 52.4355 183.557 52.209C183.404 51.9824 183.328 51.7129 183.328 51.4004C183.328 50.8809 183.547 50.4414 183.984 50.082C184.426 49.7227 184.988 49.543 185.672 49.543C186.391 49.543 186.973 49.7285 187.418 50.0996C187.867 50.4707 188.092 50.9453 188.092 51.5234H187.002C187.002 51.2266 186.875 50.9707 186.621 50.7559C186.371 50.541 186.055 50.4336 185.672 50.4336C185.277 50.4336 184.969 50.5195 184.746 50.6914C184.523 50.8633 184.412 51.0879 184.412 51.3652C184.412 51.627 184.516 51.8242 184.723 51.957C184.93 52.0898 185.303 52.2168 185.842 52.3379C186.385 52.459 186.824 52.6035 187.16 52.7715C187.496 52.9395 187.744 53.1426 187.904 53.3809C188.068 53.6152 188.15 53.9023 188.15 54.2422C188.15 54.8086 187.924 55.2637 187.471 55.6074C187.018 55.9473 186.43 56.1172 185.707 56.1172C185.199 56.1172 184.75 56.0273 184.359 55.8477C183.969 55.668 183.662 55.418 183.439 55.0977C183.221 54.7734 183.111 54.4238 183.111 54.0488H184.195C184.215 54.4121 184.359 54.7012 184.629 54.916C184.902 55.127 185.262 55.2324 185.707 55.2324C186.117 55.2324 186.445 55.1504 186.691 54.9863C186.941 54.8184 187.066 54.5957 187.066 54.3184ZM193.254 54.3184C193.254 54.0254 193.143 53.7988 192.92 53.6387C192.701 53.4746 192.316 53.334 191.766 53.2168C191.219 53.0996 190.783 52.959 190.459 52.7949C190.139 52.6309 189.9 52.4355 189.744 52.209C189.592 51.9824 189.516 51.7129 189.516 51.4004C189.516 50.8809 189.734 50.4414 190.172 50.082C190.613 49.7227 191.176 49.543 191.859 49.543C192.578 49.543 193.16 49.7285 193.605 50.0996C194.055 50.4707 194.279 50.9453 194.279 51.5234H193.189C193.189 51.2266 193.062 50.9707 192.809 50.7559C192.559 50.541 192.242 50.4336 191.859 50.4336C191.465 50.4336 191.156 50.5195 190.934 50.6914C190.711 50.8633 190.6 51.0879 190.6 51.3652C190.6 51.627 190.703 51.8242 190.91 51.957C191.117 52.0898 191.49 52.2168 192.029 52.3379C192.572 52.459 193.012 52.6035 193.348 52.7715C193.684 52.9395 193.932 53.1426 194.092 53.3809C194.256 53.6152 194.338 53.9023 194.338 54.2422C194.338 54.8086 194.111 55.2637 193.658 55.6074C193.205 55.9473 192.617 56.1172 191.895 56.1172C191.387 56.1172 190.938 56.0273 190.547 55.8477C190.156 55.668 189.85 55.418 189.627 55.0977C189.408 54.7734 189.299 54.4238 189.299 54.0488H190.383C190.402 54.4121 190.547 54.7012 190.816 54.916C191.09 55.127 191.449 55.2324 191.895 55.2324C192.305 55.2324 192.633 55.1504 192.879 54.9863C193.129 54.8184 193.254 54.5957 193.254 54.3184ZM158.807 66.5488H156.803V70H155.672V61.4688H158.496C159.457 61.4688 160.195 61.6875 160.711 62.125C161.23 62.5625 161.49 63.1992 161.49 64.0352C161.49 64.5664 161.346 65.0293 161.057 65.4238C160.771 65.8184 160.373 66.1133 159.861 66.3086L161.865 69.9297V70H160.658L158.807 66.5488ZM156.803 65.6289H158.531C159.09 65.6289 159.533 65.4844 159.861 65.1953C160.193 64.9062 160.359 64.5195 160.359 64.0352C160.359 63.5078 160.201 63.1035 159.885 62.8223C159.572 62.541 159.119 62.3984 158.525 62.3945H156.803V65.6289ZM166.816 70C166.754 69.875 166.703 69.6523 166.664 69.332C166.16 69.8555 165.559 70.1172 164.859 70.1172C164.234 70.1172 163.721 69.9414 163.318 69.5898C162.92 69.2344 162.721 68.7852 162.721 68.2422C162.721 67.582 162.971 67.0703 163.471 66.707C163.975 66.3398 164.682 66.1562 165.592 66.1562H166.646V65.6582C166.646 65.2793 166.533 64.9785 166.307 64.7559C166.08 64.5293 165.746 64.416 165.305 64.416C164.918 64.416 164.594 64.5137 164.332 64.709C164.07 64.9043 163.939 65.1406 163.939 65.418H162.85C162.85 65.1016 162.961 64.7969 163.184 64.5039C163.41 64.207 163.715 63.9727 164.098 63.8008C164.484 63.6289 164.908 63.543 165.369 63.543C166.1 63.543 166.672 63.7266 167.086 64.0938C167.5 64.457 167.715 64.959 167.73 65.5996V68.5176C167.73 69.0996 167.805 69.5625 167.953 69.9062V70H166.816ZM165.018 69.1738C165.357 69.1738 165.68 69.0859 165.984 68.9102C166.289 68.7344 166.51 68.5059 166.646 68.2246V66.9238H165.797C164.469 66.9238 163.805 67.3125 163.805 68.0898C163.805 68.4297 163.918 68.6953 164.145 68.8867C164.371 69.0781 164.662 69.1738 165.018 69.1738ZM170.455 63.6602L170.49 64.457C170.975 63.8477 171.607 63.543 172.389 63.543C173.729 63.543 174.404 64.2988 174.416 65.8105V70H173.332V65.8047C173.328 65.3477 173.223 65.0098 173.016 64.791C172.812 64.5723 172.494 64.4629 172.061 64.4629C171.709 64.4629 171.4 64.5566 171.135 64.7441C170.869 64.9316 170.662 65.1777 170.514 65.4824V70H169.43V63.6602H170.455ZM177.82 67.0645L177.141 67.7734V70H176.057V61H177.141V66.4434L177.721 65.7461L179.695 63.6602H181.014L178.547 66.3086L181.301 70H180.029L177.82 67.0645Z" fill="black"/>
<path d="M244.592 58.752L246.818 54.4688H248.096L245.154 59.8184V63H244.029V59.8184L241.088 54.4688H242.377L244.592 58.752ZM251.271 63.1172C250.412 63.1172 249.713 62.8359 249.174 62.2734C248.635 61.707 248.365 60.9512 248.365 60.0059V59.8066C248.365 59.1777 248.484 58.6172 248.723 58.125C248.965 57.6289 249.301 57.2422 249.73 56.9648C250.164 56.6836 250.633 56.543 251.137 56.543C251.961 56.543 252.602 56.8145 253.059 57.3574C253.516 57.9004 253.744 58.6777 253.744 59.6895V60.1406H249.449C249.465 60.7656 249.646 61.2715 249.994 61.6582C250.346 62.041 250.791 62.2324 251.33 62.2324C251.713 62.2324 252.037 62.1543 252.303 61.998C252.568 61.8418 252.801 61.6348 253 61.377L253.662 61.8926C253.131 62.709 252.334 63.1172 251.271 63.1172ZM251.137 57.4336C250.699 57.4336 250.332 57.5938 250.035 57.9141C249.738 58.2305 249.555 58.6758 249.484 59.25H252.66V59.168C252.629 58.6172 252.48 58.1914 252.215 57.8906C251.949 57.5859 251.59 57.4336 251.137 57.4336ZM258.918 63C258.855 62.875 258.805 62.6523 258.766 62.332C258.262 62.8555 257.66 63.1172 256.961 63.1172C256.336 63.1172 255.822 62.9414 255.42 62.5898C255.021 62.2344 254.822 61.7852 254.822 61.2422C254.822 60.582 255.072 60.0703 255.572 59.707C256.076 59.3398 256.783 59.1562 257.693 59.1562H258.748V58.6582C258.748 58.2793 258.635 57.9785 258.408 57.7559C258.182 57.5293 257.848 57.416 257.406 57.416C257.02 57.416 256.695 57.5137 256.434 57.709C256.172 57.9043 256.041 58.1406 256.041 58.418H254.951C254.951 58.1016 255.062 57.7969 255.285 57.5039C255.512 57.207 255.816 56.9727 256.199 56.8008C256.586 56.6289 257.01 56.543 257.471 56.543C258.201 56.543 258.773 56.7266 259.188 57.0938C259.602 57.457 259.816 57.959 259.832 58.5996V61.5176C259.832 62.0996 259.906 62.5625 260.055 62.9062V63H258.918ZM257.119 62.1738C257.459 62.1738 257.781 62.0859 258.086 61.9102C258.391 61.7344 258.611 61.5059 258.748 61.2246V59.9238H257.898C256.57 59.9238 255.906 60.3125 255.906 61.0898C255.906 61.4297 256.02 61.6953 256.246 61.8867C256.473 62.0781 256.764 62.1738 257.119 62.1738ZM264.596 57.6328C264.432 57.6055 264.254 57.5918 264.062 57.5918C263.352 57.5918 262.869 57.8945 262.615 58.5V63H261.531V56.6602H262.586L262.604 57.3926C262.959 56.8262 263.463 56.543 264.115 56.543C264.326 56.543 264.486 56.5703 264.596 56.625V57.6328Z" fill="black"/>
<path d="M164.285 95.207H165.1C165.611 95.1992 166.014 95.0645 166.307 94.8027C166.6 94.541 166.746 94.1875 166.746 93.7422C166.746 92.7422 166.248 92.2422 165.252 92.2422C164.783 92.2422 164.408 92.377 164.127 92.6465C163.85 92.9121 163.711 93.2656 163.711 93.707H162.627C162.627 93.0312 162.873 92.4707 163.365 92.0254C163.861 91.5762 164.49 91.3516 165.252 91.3516C166.057 91.3516 166.688 91.5645 167.145 91.9902C167.602 92.416 167.83 93.0078 167.83 93.7656C167.83 94.1367 167.709 94.4961 167.467 94.8438C167.229 95.1914 166.902 95.4512 166.488 95.623C166.957 95.7715 167.318 96.0176 167.572 96.3613C167.83 96.7051 167.959 97.125 167.959 97.6211C167.959 98.3867 167.709 98.9941 167.209 99.4434C166.709 99.8926 166.059 100.117 165.258 100.117C164.457 100.117 163.805 99.9004 163.301 99.4668C162.801 99.0332 162.551 98.4609 162.551 97.75H163.641C163.641 98.1992 163.787 98.5586 164.08 98.8281C164.373 99.0977 164.766 99.2324 165.258 99.2324C165.781 99.2324 166.182 99.0957 166.459 98.8223C166.736 98.5488 166.875 98.1562 166.875 97.6445C166.875 97.1484 166.723 96.7676 166.418 96.502C166.113 96.2363 165.674 96.0996 165.1 96.0918H164.285V95.207Z" fill="black"/>
<path d="M247.299 100H241.709V99.2207L244.662 95.9395C245.1 95.4434 245.4 95.041 245.564 94.7324C245.732 94.4199 245.816 94.0977 245.816 93.7656C245.816 93.3203 245.682 92.9551 245.412 92.6699C245.143 92.3848 244.783 92.2422 244.334 92.2422C243.795 92.2422 243.375 92.3965 243.074 92.7051C242.777 93.0098 242.629 93.4355 242.629 93.9824H241.545C241.545 93.1973 241.797 92.5625 242.301 92.0781C242.809 91.5938 243.486 91.3516 244.334 91.3516C245.127 91.3516 245.754 91.5605 246.215 91.9785C246.676 92.3926 246.906 92.9453 246.906 93.6367C246.906 94.4766 246.371 95.4766 245.301 96.6367L243.016 99.1152H247.299V100ZM253.797 96.3613C253.797 97.6309 253.58 98.5742 253.146 99.1914C252.713 99.8086 252.035 100.117 251.113 100.117C250.203 100.117 249.529 99.8164 249.092 99.2148C248.654 98.6094 248.428 97.707 248.412 96.5078V95.0605C248.412 93.8066 248.629 92.875 249.062 92.2656C249.496 91.6562 250.176 91.3516 251.102 91.3516C252.02 91.3516 252.695 91.6465 253.129 92.2363C253.562 92.8223 253.785 93.7285 253.797 94.9551V96.3613ZM252.713 94.8789C252.713 93.9609 252.584 93.293 252.326 92.875C252.068 92.4531 251.66 92.2422 251.102 92.2422C250.547 92.2422 250.143 92.4512 249.889 92.8691C249.635 93.2871 249.504 93.9297 249.496 94.7969V96.5312C249.496 97.4531 249.629 98.1348 249.895 98.5762C250.164 99.0137 250.57 99.2324 251.113 99.2324C251.648 99.2324 252.045 99.0254 252.303 98.6113C252.564 98.1973 252.701 97.5449 252.713 96.6543V94.8789ZM258.748 100H257.658V92.7754L255.473 93.5781V92.5938L258.578 91.4277H258.748V100ZM266.178 91.4629V92.3828H265.979C265.135 92.3984 264.463 92.6484 263.963 93.1328C263.463 93.6172 263.174 94.2988 263.096 95.1777C263.545 94.6621 264.158 94.4043 264.936 94.4043C265.678 94.4043 266.27 94.666 266.711 95.1895C267.156 95.7129 267.379 96.3887 267.379 97.2168C267.379 98.0957 267.139 98.7988 266.658 99.3262C266.182 99.8535 265.541 100.117 264.736 100.117C263.92 100.117 263.258 99.8047 262.75 99.1797C262.242 98.5508 261.988 97.7422 261.988 96.7539V96.3379C261.988 94.7676 262.322 93.5684 262.99 92.7402C263.662 91.9082 264.66 91.4824 265.984 91.4629H266.178ZM264.754 95.3066C264.383 95.3066 264.041 95.418 263.729 95.6406C263.416 95.8633 263.199 96.1426 263.078 96.4785V96.877C263.078 97.5801 263.236 98.1465 263.553 98.5762C263.869 99.0059 264.264 99.2207 264.736 99.2207C265.225 99.2207 265.607 99.041 265.885 98.6816C266.166 98.3223 266.307 97.8516 266.307 97.2695C266.307 96.6836 266.164 96.2109 265.879 95.8516C265.598 95.4883 265.223 95.3066 264.754 95.3066Z" fill="black"/>
<path d="M247.299 176H241.709V175.221L244.662 171.939C245.1 171.443 245.4 171.041 245.564 170.732C245.732 170.42 245.816 170.098 245.816 169.766C245.816 169.32 245.682 168.955 245.412 168.67C245.143 168.385 244.783 168.242 244.334 168.242C243.795 168.242 243.375 168.396 243.074 168.705C242.777 169.01 242.629 169.436 242.629 169.982H241.545C241.545 169.197 241.797 168.562 242.301 168.078C242.809 167.594 243.486 167.352 244.334 167.352C245.127 167.352 245.754 167.561 246.215 167.979C246.676 168.393 246.906 168.945 246.906 169.637C246.906 170.477 246.371 171.477 245.301 172.637L243.016 175.115H247.299V176ZM253.797 172.361C253.797 173.631 253.58 174.574 253.146 175.191C252.713 175.809 252.035 176.117 251.113 176.117C250.203 176.117 249.529 175.816 249.092 175.215C248.654 174.609 248.428 173.707 248.412 172.508V171.061C248.412 169.807 248.629 168.875 249.062 168.266C249.496 167.656 250.176 167.352 251.102 167.352C252.02 167.352 252.695 167.646 253.129 168.236C253.562 168.822 253.785 169.729 253.797 170.955V172.361ZM252.713 170.879C252.713 169.961 252.584 169.293 252.326 168.875C252.068 168.453 251.66 168.242 251.102 168.242C250.547 168.242 250.143 168.451 249.889 168.869C249.635 169.287 249.504 169.93 249.496 170.797V172.531C249.496 173.453 249.629 174.135 249.895 174.576C250.164 175.014 250.57 175.232 251.113 175.232C251.648 175.232 252.045 175.025 252.303 174.611C252.564 174.197 252.701 173.545 252.713 172.654V170.879ZM258.748 176H257.658V168.775L255.473 169.578V168.594L258.578 167.428H258.748V176ZM266.178 167.463V168.383H265.979C265.135 168.398 264.463 168.648 263.963 169.133C263.463 169.617 263.174 170.299 263.096 171.178C263.545 170.662 264.158 170.404 264.936 170.404C265.678 170.404 266.27 170.666 266.711 171.189C267.156 171.713 267.379 172.389 267.379 173.217C267.379 174.096 267.139 174.799 266.658 175.326C266.182 175.854 265.541 176.117 264.736 176.117C263.92 176.117 263.258 175.805 262.75 175.18C262.242 174.551 261.988 173.742 261.988 172.754V172.338C261.988 170.768 262.322 169.568 262.99 168.74C263.662 167.908 264.66 167.482 265.984 167.463H266.178ZM264.754 171.307C264.383 171.307 264.041 171.418 263.729 171.641C263.416 171.863 263.199 172.143 263.078 172.479V172.877C263.078 173.58 263.236 174.146 263.553 174.576C263.869 175.006 264.264 175.221 264.736 175.221C265.225 175.221 265.607 175.041 265.885 174.682C266.166 174.322 266.307 173.852 266.307 173.27C266.307 172.684 266.164 172.211 265.879 171.852C265.598 171.488 265.223 171.307 264.754 171.307Z" fill="black"/>
<path d="M136.901 22.4434V24.1318H138.075V25.4775H136.901V28.9053C136.901 29.1592 136.95 29.3411 137.047 29.4512C137.144 29.5612 137.33 29.6162 137.605 29.6162C137.809 29.6162 137.988 29.6014 138.145 29.5718V30.9619C137.785 31.0719 137.415 31.127 137.034 31.127C135.748 31.127 135.092 30.4774 135.066 29.1782V25.4775H134.063V24.1318H135.066V22.4434H136.901ZM140.887 24.8809C141.374 24.2969 141.985 24.0049 142.722 24.0049C144.211 24.0049 144.967 24.8703 144.988 26.6011V31H143.153V26.6519C143.153 26.2583 143.069 25.9684 142.899 25.7822C142.73 25.5918 142.449 25.4966 142.055 25.4966C141.518 25.4966 141.128 25.7039 140.887 26.1187V31H139.053V21.25H140.887V24.8809ZM150.231 25.8521C149.981 25.8182 149.761 25.8013 149.571 25.8013C148.877 25.8013 148.422 26.0361 148.206 26.5059V31H146.372V24.1318H148.104L148.155 24.9507C148.523 24.3201 149.033 24.0049 149.685 24.0049C149.888 24.0049 150.079 24.0324 150.256 24.0874L150.231 25.8521ZM154.154 31.127C153.147 31.127 152.326 30.818 151.691 30.2002C151.06 29.5824 150.745 28.7593 150.745 27.731V27.5532C150.745 26.8634 150.878 26.2477 151.145 25.7061C151.412 25.1602 151.788 24.7412 152.275 24.4492C152.766 24.153 153.324 24.0049 153.951 24.0049C154.89 24.0049 155.629 24.3011 156.166 24.8936C156.708 25.486 156.979 26.326 156.979 27.4136V28.1626H152.605C152.664 28.6112 152.842 28.9709 153.138 29.2417C153.439 29.5125 153.817 29.6479 154.274 29.6479C154.981 29.6479 155.533 29.3919 155.931 28.8799L156.833 29.8892C156.557 30.2785 156.185 30.5832 155.715 30.8032C155.246 31.019 154.725 31.127 154.154 31.127ZM153.944 25.4902C153.58 25.4902 153.284 25.613 153.056 25.8584C152.831 26.1038 152.688 26.4551 152.624 26.9121H155.176V26.7661C155.167 26.3599 155.057 26.0467 154.846 25.8267C154.634 25.6024 154.334 25.4902 153.944 25.4902ZM161.187 31.127C160.18 31.127 159.359 30.818 158.724 30.2002C158.094 29.5824 157.778 28.7593 157.778 27.731V27.5532C157.778 26.8634 157.912 26.2477 158.178 25.7061C158.445 25.1602 158.821 24.7412 159.308 24.4492C159.799 24.153 160.358 24.0049 160.984 24.0049C161.923 24.0049 162.662 24.3011 163.199 24.8936C163.741 25.486 164.012 26.326 164.012 27.4136V28.1626H159.638C159.697 28.6112 159.875 28.9709 160.171 29.2417C160.472 29.5125 160.851 29.6479 161.308 29.6479C162.014 29.6479 162.567 29.3919 162.964 28.8799L163.866 29.8892C163.591 30.2785 163.218 30.5832 162.749 30.8032C162.279 31.019 161.758 31.127 161.187 31.127ZM160.978 25.4902C160.614 25.4902 160.317 25.613 160.089 25.8584C159.865 26.1038 159.721 26.4551 159.657 26.9121H162.209V26.7661C162.201 26.3599 162.09 26.0467 161.879 25.8267C161.667 25.6024 161.367 25.4902 160.978 25.4902ZM170.144 32.4346H164.361V31H170.144V32.4346ZM177.12 31H170.785V29.7432L173.774 26.5566C174.185 26.1081 174.487 25.7166 174.682 25.3823C174.881 25.048 174.98 24.7306 174.98 24.4302C174.98 24.0197 174.877 23.6981 174.669 23.4653C174.462 23.2284 174.166 23.1099 173.781 23.1099C173.366 23.1099 173.038 23.2537 172.797 23.5415C172.56 23.825 172.441 24.1995 172.441 24.665H170.601C170.601 24.1022 170.734 23.5881 171 23.1226C171.271 22.6571 171.652 22.2931 172.143 22.0308C172.634 21.7642 173.19 21.6309 173.812 21.6309C174.765 21.6309 175.503 21.8594 176.028 22.3164C176.557 22.7734 176.821 23.4188 176.821 24.2524C176.821 24.7095 176.703 25.175 176.466 25.6489C176.229 26.1229 175.823 26.6751 175.247 27.3057L173.146 29.521H177.12V31ZM184.47 27.1787C184.47 28.4567 184.206 29.4342 183.677 30.1113C183.148 30.7884 182.373 31.127 181.354 31.127C180.346 31.127 179.576 30.7948 179.043 30.1304C178.51 29.466 178.237 28.5138 178.224 27.2739V25.5728C178.224 24.2821 178.491 23.3024 179.024 22.6338C179.561 21.9652 180.334 21.6309 181.341 21.6309C182.348 21.6309 183.118 21.9631 183.651 22.6274C184.185 23.2876 184.458 24.2376 184.47 25.4775V27.1787ZM182.636 25.3125C182.636 24.5465 182.53 23.9901 182.318 23.6431C182.111 23.2918 181.785 23.1162 181.341 23.1162C180.909 23.1162 180.59 23.2834 180.382 23.6177C180.179 23.9478 180.071 24.4661 180.059 25.1729V27.4199C180.059 28.1732 180.16 28.7339 180.363 29.1021C180.571 29.466 180.901 29.6479 181.354 29.6479C181.802 29.6479 182.126 29.4723 182.325 29.1211C182.524 28.7699 182.627 28.2324 182.636 27.5088V25.3125ZM190.17 31H188.336V23.9287L186.146 24.6079V23.1162L189.974 21.7451H190.17V31ZM198.156 21.6626V23.1733H197.978C197.149 23.186 196.48 23.4019 195.972 23.8208C195.469 24.2397 195.166 24.8216 195.064 25.5664C195.555 25.0671 196.175 24.8174 196.924 24.8174C197.728 24.8174 198.367 25.1051 198.841 25.6807C199.315 26.2562 199.552 27.0137 199.552 27.9531C199.552 28.554 199.421 29.0978 199.159 29.5845C198.901 30.0711 198.532 30.4499 198.054 30.7207C197.58 30.9915 197.043 31.127 196.442 31.127C195.469 31.127 194.681 30.7884 194.081 30.1113C193.484 29.4342 193.186 28.5308 193.186 27.4009V26.7407C193.186 25.7378 193.374 24.8534 193.75 24.0874C194.131 23.3172 194.675 22.7227 195.382 22.3037C196.093 21.8805 196.916 21.6668 197.851 21.6626H198.156ZM196.366 26.29C196.069 26.29 195.801 26.3683 195.56 26.5249C195.318 26.6772 195.141 26.8804 195.026 27.1343V27.6929C195.026 28.3065 195.147 28.7868 195.388 29.1338C195.629 29.4766 195.968 29.6479 196.404 29.6479C196.797 29.6479 197.115 29.4935 197.356 29.1846C197.601 28.8714 197.724 28.4673 197.724 27.9722C197.724 27.4686 197.601 27.0623 197.356 26.7534C197.111 26.4445 196.78 26.29 196.366 26.29Z" fill="black"/>
<path d="M376.266 173.293C376.16 174.195 375.826 174.893 375.264 175.385C374.705 175.873 373.961 176.117 373.031 176.117C372.023 176.117 371.215 175.756 370.605 175.033C370 174.311 369.697 173.344 369.697 172.133V171.312C369.697 170.52 369.838 169.822 370.119 169.221C370.404 168.619 370.807 168.158 371.326 167.838C371.846 167.514 372.447 167.352 373.131 167.352C374.037 167.352 374.764 167.605 375.311 168.113C375.857 168.617 376.176 169.316 376.266 170.211H375.135C375.037 169.531 374.824 169.039 374.496 168.734C374.172 168.43 373.717 168.277 373.131 168.277C372.412 168.277 371.848 168.543 371.438 169.074C371.031 169.605 370.828 170.361 370.828 171.342V172.168C370.828 173.094 371.021 173.83 371.408 174.377C371.795 174.924 372.336 175.197 373.031 175.197C373.656 175.197 374.135 175.057 374.467 174.775C374.803 174.49 375.025 173.996 375.135 173.293H376.266ZM381.551 176C381.488 175.875 381.438 175.652 381.398 175.332C380.895 175.855 380.293 176.117 379.594 176.117C378.969 176.117 378.455 175.941 378.053 175.59C377.654 175.234 377.455 174.785 377.455 174.242C377.455 173.582 377.705 173.07 378.205 172.707C378.709 172.34 379.416 172.156 380.326 172.156H381.381V171.658C381.381 171.279 381.268 170.979 381.041 170.756C380.814 170.529 380.48 170.416 380.039 170.416C379.652 170.416 379.328 170.514 379.066 170.709C378.805 170.904 378.674 171.141 378.674 171.418H377.584C377.584 171.102 377.695 170.797 377.918 170.504C378.145 170.207 378.449 169.973 378.832 169.801C379.219 169.629 379.643 169.543 380.104 169.543C380.834 169.543 381.406 169.727 381.82 170.094C382.234 170.457 382.449 170.959 382.465 171.6V174.518C382.465 175.1 382.539 175.562 382.688 175.906V176H381.551ZM379.752 175.174C380.092 175.174 380.414 175.086 380.719 174.91C381.023 174.734 381.244 174.506 381.381 174.225V172.924H380.531C379.203 172.924 378.539 173.312 378.539 174.09C378.539 174.43 378.652 174.695 378.879 174.887C379.105 175.078 379.396 175.174 379.752 175.174ZM385.189 169.66L385.225 170.457C385.709 169.848 386.342 169.543 387.123 169.543C388.463 169.543 389.139 170.299 389.15 171.811V176H388.066V171.805C388.062 171.348 387.957 171.01 387.75 170.791C387.547 170.572 387.229 170.463 386.795 170.463C386.443 170.463 386.135 170.557 385.869 170.744C385.604 170.932 385.396 171.178 385.248 171.482V176H384.164V169.66H385.189ZM394.699 176C394.637 175.875 394.586 175.652 394.547 175.332C394.043 175.855 393.441 176.117 392.742 176.117C392.117 176.117 391.604 175.941 391.201 175.59C390.803 175.234 390.604 174.785 390.604 174.242C390.604 173.582 390.854 173.07 391.354 172.707C391.857 172.34 392.564 172.156 393.475 172.156H394.529V171.658C394.529 171.279 394.416 170.979 394.189 170.756C393.963 170.529 393.629 170.416 393.188 170.416C392.801 170.416 392.477 170.514 392.215 170.709C391.953 170.904 391.822 171.141 391.822 171.418H390.732C390.732 171.102 390.844 170.797 391.066 170.504C391.293 170.207 391.598 169.973 391.98 169.801C392.367 169.629 392.791 169.543 393.252 169.543C393.982 169.543 394.555 169.727 394.969 170.094C395.383 170.457 395.598 170.959 395.613 171.6V174.518C395.613 175.1 395.688 175.562 395.836 175.906V176H394.699ZM392.9 175.174C393.24 175.174 393.562 175.086 393.867 174.91C394.172 174.734 394.393 174.506 394.529 174.225V172.924H393.68C392.352 172.924 391.688 173.312 391.688 174.09C391.688 174.43 391.801 174.695 392.027 174.887C392.254 175.078 392.545 175.174 392.9 175.174ZM397.049 172.777C397.049 171.805 397.279 171.023 397.74 170.434C398.201 169.84 398.805 169.543 399.551 169.543C400.293 169.543 400.881 169.797 401.314 170.305V167H402.398V176H401.402L401.35 175.32C400.916 175.852 400.312 176.117 399.539 176.117C398.805 176.117 398.205 175.816 397.74 175.215C397.279 174.613 397.049 173.828 397.049 172.859V172.777ZM398.133 172.9C398.133 173.619 398.281 174.182 398.578 174.588C398.875 174.994 399.285 175.197 399.809 175.197C400.496 175.197 400.998 174.889 401.314 174.271V171.359C400.99 170.762 400.492 170.463 399.82 170.463C399.289 170.463 398.875 170.668 398.578 171.078C398.281 171.488 398.133 172.096 398.133 172.9ZM408 176C407.938 175.875 407.887 175.652 407.848 175.332C407.344 175.855 406.742 176.117 406.043 176.117C405.418 176.117 404.904 175.941 404.502 175.59C404.104 175.234 403.904 174.785 403.904 174.242C403.904 173.582 404.154 173.07 404.654 172.707C405.158 172.34 405.865 172.156 406.775 172.156H407.83V171.658C407.83 171.279 407.717 170.979 407.49 170.756C407.264 170.529 406.93 170.416 406.488 170.416C406.102 170.416 405.777 170.514 405.516 170.709C405.254 170.904 405.123 171.141 405.123 171.418H404.033C404.033 171.102 404.145 170.797 404.367 170.504C404.594 170.207 404.898 169.973 405.281 169.801C405.668 169.629 406.092 169.543 406.553 169.543C407.283 169.543 407.855 169.727 408.27 170.094C408.684 170.457 408.898 170.959 408.914 171.6V174.518C408.914 175.1 408.988 175.562 409.137 175.906V176H408ZM406.201 175.174C406.541 175.174 406.863 175.086 407.168 174.91C407.473 174.734 407.693 174.506 407.83 174.225V172.924H406.98C405.652 172.924 404.988 173.312 404.988 174.09C404.988 174.43 405.102 174.695 405.328 174.887C405.555 175.078 405.846 175.174 406.201 175.174Z" fill="black"/>
</svg>
