<svg width="1120" height="488" viewBox="0 0 1120 488" version="1.1" xmlns="http://www.w3.org/2000/svg" xmlns:xlink="http://www.w3.org/1999/xlink">
<title>Frame</title>
<desc>Created using Figma</desc>
<g id="Canvas" transform="matrix(2 0 0 2 100 1748)">
<clipPath id="clip-0" clip-rule="evenodd">
<path d="M -50 -874L 510 -874L 510 -630L -50 -630L -50 -874Z" fill="#FFFFFF"/>
</clipPath>
<g id="Frame" clip-path="url(#clip-0)">
<path d="M -50 -874L 510 -874L 510 -630L -50 -630L -50 -874Z" fill="#FFFFFF"/>
<g id="ndarray.max(axis=1)">
<use xlink:href="#path0_fill" transform="translate(198 -854)" fill="#2E383C"/>
<use xlink:href="#path1_fill" transform="translate(198 -854)" fill="#197D1C"/>
</g>
<g id="2D ndarray">
<use xlink:href="#path2_fill" transform="translate(6 -852)" fill="#333333"/>
</g>
<g id="Result">
<use xlink:href="#path3_fill" transform="translate(384 -852)" fill="#333333"/>
</g>
<g id="Rectangle">
<use xlink:href="#path4_stroke" transform="translate(205 -822)"/>
</g>
<g id="Rectangle">
<use xlink:href="#path4_stroke" transform="translate(205 -784.218)"/>
</g>
<g id="Rectangle">
<use xlink:href="#path4_stroke" transform="translate(205 -746.437)"/>
</g>
<g id="Rectangle">
<use xlink:href="#path4_stroke" transform="translate(205 -708.655)"/>
</g>
<g id="Rectangle">
<use xlink:href="#path4_stroke" transform="translate(242.25 -822)"/>
</g>
<g id="Rectangle">
<use xlink:href="#path4_stroke" transform="translate(242.25 -784.218)"/>
</g>
<g id="Rectangle">
<use xlink:href="#path4_stroke" transform="translate(242.25 -746.437)"/>
</g>
<g id="Rectangle">
<use xlink:href="#path4_stroke" transform="translate(242.25 -708.655)"/>
</g>
<g id="Rectangle">
<use xlink:href="#path4_stroke" transform="translate(280.5 -822)"/>
</g>
<g id="Rectangle">
<use xlink:href="#path4_stroke" transform="translate(280.5 -784.218)"/>
</g>
<g id="Rectangle">
<use xlink:href="#path4_stroke" transform="translate(280.5 -746.437)"/>
</g>
<g id="Rectangle">
<use xlink:href="#path4_stroke" transform="translate(280.5 -708.655)"/>
</g>
<g id="Rectangle">
<use xlink:href="#path4_stroke" transform="translate(318.75 -822)"/>
</g>
<g id="Rectangle">
<use xlink:href="#path4_stroke" transform="translate(318.75 -784.218)"/>
</g>
<g id="Rectangle">
<use xlink:href="#path4_stroke" transform="translate(318.75 -746.437)"/>
</g>
<g id="Rectangle">
<use xlink:href="#path4_stroke" transform="translate(318.75 -708.655)"/>
</g>
<g id="Rectangle">
<use xlink:href="#path5_fill" transform="translate(205 -822)" fill="#56CCF2" fill-opacity="0.6"/>
<mask id="mask0_outline_ins">
<use xlink:href="#path5_fill" fill="white" transform="translate(205 -822)"/>
</mask>
<g mask="url(#mask0_outline_ins)">
<use xlink:href="#path6_stroke_2x" transform="translate(205 -822)" fill="#56CCF2"/>
</g>
</g>
<g id="Rectangle">
<use xlink:href="#path7_fill" transform="translate(205 -745)" fill="#F2994A" fill-opacity="0.6"/>
<mask id="mask1_outline_ins">
<use xlink:href="#path7_fill" fill="white" transform="translate(205 -745)"/>
</mask>
<g mask="url(#mask1_outline_ins)">
<use xlink:href="#path8_stroke_2x" transform="translate(205 -745)" fill="#F2994A"/>
</g>
</g>
<g id="Rectangle">
<use xlink:href="#path9_fill" transform="translate(205 -784)" fill="#EB5757" fill-opacity="0.6"/>
<mask id="mask2_outline_ins">
<use xlink:href="#path9_fill" fill="white" transform="translate(205 -784)"/>
</mask>
<g mask="url(#mask2_outline_ins)">
<use xlink:href="#path10_stroke_2x" transform="translate(205 -784)" fill="#EB5757"/>
</g>
</g>
<g id="Rectangle">
<use xlink:href="#path5_fill" transform="matrix(1 0 0 -1 205 -670)" fill="#9B51E0" fill-opacity="0.6"/>
<mask id="mask3_outline_ins">
<use xlink:href="#path5_fill" fill="white" transform="matrix(1 0 0 -1 205 -670)"/>
</mask>
<g mask="url(#mask3_outline_ins)">
<use xlink:href="#path6_stroke_2x" transform="matrix(1 0 0 -1 205 -670)" fill="#9B51E0"/>
</g>
</g>
<g id="1">
<use xlink:href="#path11_fill" transform="translate(325.705 -814.204)" fill="#333333"/>
</g>
<g id="1">
<use xlink:href="#path11_fill" transform="translate(287.455 -814.204)" fill="#333333"/>
</g>
<g id="0">
<use xlink:href="#path12_fill" transform="translate(249.205 -814.204)" fill="#333333"/>
</g>
<g id="1">
<use xlink:href="#path13_fill" transform="translate(215.432 -814.204)" fill="#333333"/>
</g>
<g id="3">
<use xlink:href="#path14_fill" transform="translate(325.705 -775.767)" fill="#333333"/>
</g>
<g id="4">
<use xlink:href="#path15_fill" transform="translate(287.455 -775.767)" fill="#333333"/>
</g>
<g id="1">
<use xlink:href="#path11_fill" transform="translate(249.205 -775.767)" fill="#333333"/>
</g>
<g id="0">
<use xlink:href="#path16_fill" transform="translate(215.432 -775.767)" fill="#333333"/>
</g>
<g id="2">
<use xlink:href="#path17_fill" transform="translate(325.705 -739.078)" fill="#333333"/>
</g>
<g id="0">
<use xlink:href="#path12_fill" transform="translate(287.455 -739.078)" fill="#333333"/>
</g>
<g id="1">
<use xlink:href="#path11_fill" transform="translate(249.205 -739.078)" fill="#333333"/>
</g>
<g id="0">
<use xlink:href="#path16_fill" transform="translate(215.432 -739.078)" fill="#333333"/>
</g>
<g id="3">
<use xlink:href="#path14_fill" transform="translate(325.705 -700.641)" fill="#333333"/>
</g>
<g id="1">
<use xlink:href="#path11_fill" transform="translate(287.455 -700.641)" fill="#333333"/>
</g>
<g id="0">
<use xlink:href="#path12_fill" transform="translate(249.205 -700.641)" fill="#333333"/>
</g>
<g id="3">
<use xlink:href="#path18_fill" transform="translate(215.432 -700.641)" fill="#333333"/>
</g>
<g id="Rectangle">
<use xlink:href="#path4_stroke" transform="translate(6 -822)"/>
</g>
<g id="Rectangle">
<use xlink:href="#path4_stroke" transform="translate(6 -784.218)"/>
</g>
<g id="Rectangle">
<use xlink:href="#path4_stroke" transform="translate(6 -746.437)"/>
</g>
<g id="Rectangle">
<use xlink:href="#path4_stroke" transform="translate(6 -708.655)"/>
</g>
<g id="Rectangle">
<use xlink:href="#path4_stroke" transform="translate(44.25 -822)"/>
</g>
<g id="Rectangle">
<use xlink:href="#path4_stroke" transform="translate(44.25 -784.218)"/>
</g>
<g id="Rectangle">
<use xlink:href="#path4_stroke" transform="translate(44.25 -746.437)"/>
</g>
<g id="Rectangle">
<use xlink:href="#path4_stroke" transform="translate(44.25 -708.655)"/>
</g>
<g id="Rectangle">
<use xlink:href="#path4_stroke" transform="translate(82.5 -822)"/>
</g>
<g id="Rectangle">
<use xlink:href="#path4_stroke" transform="translate(82.5 -784.218)"/>
</g>
<g id="Rectangle">
<use xlink:href="#path4_stroke" transform="translate(82.5 -746.437)"/>
</g>
<g id="Rectangle">
<use xlink:href="#path4_stroke" transform="translate(82.5 -708.655)"/>
</g>
<g id="Rectangle">
<use xlink:href="#path4_stroke" transform="translate(120.75 -822)"/>
</g>
<g id="Rectangle">
<use xlink:href="#path4_stroke" transform="translate(120.75 -784.218)"/>
</g>
<g id="Rectangle">
<use xlink:href="#path4_stroke" transform="translate(120.75 -746.437)"/>
</g>
<g id="Rectangle">
<use xlink:href="#path4_stroke" transform="translate(120.75 -708.655)"/>
</g>
<g id="1">
<use xlink:href="#path11_fill" transform="translate(127.705 -814.204)" fill="#333333"/>
</g>
<g id="1">
<use xlink:href="#path11_fill" transform="translate(89.4545 -814.204)" fill="#333333"/>
</g>
<g id="0">
<use xlink:href="#path12_fill" transform="translate(51.2045 -814.204)" fill="#333333"/>
</g>
<g id="1">
<use xlink:href="#path13_fill" transform="translate(16.4318 -814.204)" fill="#333333"/>
</g>
<g id="3">
<use xlink:href="#path14_fill" transform="translate(127.705 -775.767)" fill="#333333"/>
</g>
<g id="4">
<use xlink:href="#path15_fill" transform="translate(89.4545 -775.767)" fill="#333333"/>
</g>
<g id="1">
<use xlink:href="#path11_fill" transform="translate(51.2045 -775.767)" fill="#333333"/>
</g>
<g id="0">
<use xlink:href="#path16_fill" transform="translate(16.4318 -775.767)" fill="#333333"/>
</g>
<g id="2">
<use xlink:href="#path17_fill" transform="translate(127.705 -739.078)" fill="#333333"/>
</g>
<g id="0">
<use xlink:href="#path12_fill" transform="translate(89.4545 -739.078)" fill="#333333"/>
</g>
<g id="1">
<use xlink:href="#path11_fill" transform="translate(51.2045 -739.078)" fill="#333333"/>
</g>
<g id="0">
<use xlink:href="#path16_fill" transform="translate(16.4318 -739.078)" fill="#333333"/>
</g>
<g id="3">
<use xlink:href="#path14_fill" transform="translate(127.705 -700.641)" fill="#333333"/>
</g>
<g id="1">
<use xlink:href="#path11_fill" transform="translate(89.4545 -700.641)" fill="#333333"/>
</g>
<g id="0">
<use xlink:href="#path12_fill" transform="translate(51.2045 -700.641)" fill="#333333"/>
</g>
<g id="3">
<use xlink:href="#path18_fill" transform="translate(16.4318 -700.641)" fill="#333333"/>
</g>
<g id="Rectangle">
<use xlink:href="#path4_stroke" transform="translate(395 -821)"/>
</g>
<g id="Rectangle">
<use xlink:href="#path4_stroke" transform="translate(395 -783.218)"/>
</g>
<g id="Rectangle">
<use xlink:href="#path4_stroke" transform="translate(395 -745.437)"/>
</g>
<g id="Rectangle">
<use xlink:href="#path4_stroke" transform="translate(395 -707.655)"/>
</g>
<g id="Rectangle">
<use xlink:href="#path19_fill" transform="translate(395.25 -821)" fill="#56CCF2" fill-opacity="0.6"/>
<mask id="mask4_outline_ins">
<use xlink:href="#path19_fill" fill="white" transform="translate(395.25 -821)"/>
</mask>
<g mask="url(#mask4_outline_ins)">
<use xlink:href="#path20_stroke_2x" transform="translate(395.25 -821)" fill="#56CCF2"/>
</g>
</g>
<g id="Rectangle">
<use xlink:href="#path21_fill" transform="translate(395.25 -744.126)" fill="#F2994A" fill-opacity="0.6"/>
<mask id="mask5_outline_ins">
<use xlink:href="#path21_fill" fill="white" transform="translate(395.25 -744.126)"/>
</mask>
<g mask="url(#mask5_outline_ins)">
<use xlink:href="#path22_stroke_2x" transform="translate(395.25 -744.126)" fill="#F2994A"/>
</g>
</g>
<g id="Rectangle">
<use xlink:href="#path19_fill" transform="translate(395.25 -782.563)" fill="#EB5757" fill-opacity="0.6"/>
<mask id="mask6_outline_ins">
<use xlink:href="#path19_fill" fill="white" transform="translate(395.25 -782.563)"/>
</mask>
<g mask="url(#mask6_outline_ins)">
<use xlink:href="#path20_stroke_2x" transform="translate(395.25 -782.563)" fill="#EB5757"/>
</g>
</g>
<g id="Rectangle">
<use xlink:href="#path19_fill" transform="matrix(1 0 0 -1 395.25 -669)" fill="#9B51E0" fill-opacity="0.6"/>
<mask id="mask7_outline_ins">
<use xlink:href="#path19_fill" fill="white" transform="matrix(1 0 0 -1 395.25 -669)"/>
</mask>
<g mask="url(#mask7_outline_ins)">
<use xlink:href="#path20_stroke_2x" transform="matrix(1 0 0 -1 395.25 -669)" fill="#9B51E0"/>
</g>
</g>
<g id="1">
<use xlink:href="#path11_fill" transform="translate(401.955 -813.204)" fill="#333333"/>
</g>
<g id="4">
<use xlink:href="#path15_fill" transform="translate(401.955 -774.767)" fill="#333333"/>
</g>
<g id="2">
<use xlink:href="#path17_fill" transform="translate(401.955 -738.078)" fill="#333333"/>
</g>
<g id="3">
<use xlink:href="#path14_fill" transform="translate(401.955 -699.641)" fill="#333333"/>
</g>
</g>
</g>
<defs>
<path id="path0_fill" d="M 4.39995 7.126L 5.72995 7.126L 5.85595 8.162L 5.91195 8.162C 6.23862 7.83533 6.59795 7.55533 6.98995 7.322C 7.39129 7.07933 7.85795 6.958 8.38995 6.958C 9.18329 6.958 9.76662 7.20067 10.14 7.686C 10.5133 8.162 10.7 8.848 10.7 9.744L 10.7 14L 9.07595 14L 9.07595 9.954C 9.07595 9.394 8.97795 8.988 8.78195 8.736C 8.59529 8.47467 8.26395 8.344 7.78795 8.344C 7.45195 8.344 7.15329 8.42333 6.89195 8.582C 6.63062 8.74067 6.34129 8.98333 6.02395 9.31L 6.02395 14L 4.39995 14L 4.39995 7.126ZM 12.3885 10.57C 12.3885 10.01 12.4725 9.506 12.6405 9.058C 12.8085 8.61 13.0325 8.232 13.3125 7.924C 13.6018 7.616 13.9285 7.378 14.2925 7.21C 14.6565 7.042 15.0345 6.958 15.4265 6.958C 15.8372 6.958 16.1872 7.03267 16.4765 7.182C 16.7752 7.322 17.0645 7.518 17.3445 7.77L 17.2745 6.608L 17.2745 4.116L 18.8985 4.116L 18.8985 14L 17.5685 14L 17.4425 13.202L 17.4005 13.202C 17.1298 13.4727 16.8125 13.7013 16.4485 13.888C 16.0938 14.0747 15.7205 14.168 15.3285 14.168C 14.8898 14.168 14.4885 14.0887 14.1245 13.93C 13.7605 13.762 13.4478 13.524 13.1865 13.216C 12.9345 12.908 12.7385 12.5347 12.5985 12.096C 12.4585 11.648 12.3885 11.1393 12.3885 10.57ZM 14.0545 10.556C 14.0545 11.3027 14.1992 11.872 14.4885 12.264C 14.7778 12.6467 15.1885 12.838 15.7205 12.838C 16.2898 12.838 16.8078 12.5627 17.2745 12.012L 17.2745 8.918C 17.0318 8.68467 16.7892 8.52133 16.5465 8.428C 16.3038 8.33467 16.0565 8.288 15.8045 8.288C 15.5618 8.288 15.3332 8.33933 15.1185 8.442C 14.9132 8.54467 14.7312 8.694 14.5725 8.89C 14.4138 9.07667 14.2878 9.31 14.1945 9.59C 14.1012 9.87 14.0545 10.192 14.0545 10.556ZM 21.035 12.152C 21.035 11.7693 21.1237 11.4333 21.301 11.144C 21.4783 10.8453 21.7583 10.5933 22.141 10.388C 22.5237 10.1827 23.0137 10.0147 23.611 9.884C 24.2083 9.75333 24.9317 9.66 25.781 9.604C 25.753 9.212 25.613 8.89 25.361 8.638C 25.109 8.386 24.703 8.26 24.143 8.26C 23.751 8.26 23.3637 8.33467 22.981 8.484C 22.6077 8.624 22.2437 8.792 21.889 8.988L 21.301 7.91C 21.721 7.66733 22.2017 7.448 22.743 7.252C 23.2843 7.056 23.849 6.958 24.437 6.958C 25.3983 6.958 26.131 7.21467 26.635 7.728C 27.139 8.232 27.391 8.96467 27.391 9.926L 27.391 14L 26.075 14L 25.949 13.146L 25.907 13.146C 25.543 13.426 25.137 13.6687 24.689 13.874C 24.2503 14.07 23.7977 14.168 23.331 14.168C 22.995 14.168 22.687 14.1167 22.407 14.014C 22.127 13.9207 21.8843 13.7853 21.679 13.608C 21.4737 13.4307 21.315 13.2207 21.203 12.978C 21.091 12.726 21.035 12.4507 21.035 12.152ZM 22.589 12.026C 22.589 12.334 22.7057 12.558 22.939 12.698C 23.1817 12.838 23.4757 12.908 23.821 12.908C 24.1663 12.908 24.4977 12.8333 24.815 12.684C 25.1417 12.5253 25.4637 12.32 25.781 12.068L 25.781 10.612C 25.165 10.6587 24.6517 10.724 24.241 10.808C 23.8303 10.8827 23.5037 10.9807 23.261 11.102C 23.0183 11.2233 22.8457 11.3633 22.743 11.522C 22.6403 11.6713 22.589 11.8393 22.589 12.026ZM 30.2555 7.126L 31.5855 7.126L 31.7255 8.68L 31.7675 8.68C 32.1222 8.12 32.5469 7.69533 33.0415 7.406C 33.5455 7.10733 34.0962 6.958 34.6935 6.958C 34.9735 6.958 35.2115 6.98133 35.4075 7.028C 35.6129 7.06533 35.8182 7.13533 36.0235 7.238L 35.6875 8.596C 35.4635 8.52133 35.2629 8.47 35.0855 8.442C 34.9175 8.40467 34.7029 8.386 34.4415 8.386C 33.9655 8.386 33.5082 8.52133 33.0695 8.792C 32.6309 9.06267 32.2342 9.534 31.8795 10.206L 31.8795 14L 30.2555 14L 30.2555 7.126ZM 38.6501 7.126L 39.9801 7.126L 40.1201 8.68L 40.1621 8.68C 40.5167 8.12 40.9414 7.69533 41.4361 7.406C 41.9401 7.10733 42.4907 6.958 43.0881 6.958C 43.3681 6.958 43.6061 6.98133 43.8021 7.028C 44.0074 7.06533 44.2127 7.13533 44.4181 7.238L 44.0821 8.596C 43.8581 8.52133 43.6574 8.47 43.4801 8.442C 43.3121 8.40467 43.0974 8.386 42.8361 8.386C 42.3601 8.386 41.9027 8.52133 41.4641 8.792C 41.0254 9.06267 40.6287 9.534 40.2741 10.206L 40.2741 14L 38.6501 14L 38.6501 7.126ZM 46.2186 12.152C 46.2186 11.7693 46.3073 11.4333 46.4846 11.144C 46.6619 10.8453 46.9419 10.5933 47.3246 10.388C 47.7073 10.1827 48.1973 10.0147 48.7946 9.884C 49.3919 9.75333 50.1153 9.66 50.9646 9.604C 50.9366 9.212 50.7966 8.89 50.5446 8.638C 50.2926 8.386 49.8866 8.26 49.3266 8.26C 48.9346 8.26 48.5473 8.33467 48.1646 8.484C 47.7913 8.624 47.4273 8.792 47.0726 8.988L 46.4846 7.91C 46.9046 7.66733 47.3853 7.448 47.9266 7.252C 48.4679 7.056 49.0326 6.958 49.6206 6.958C 50.5819 6.958 51.3146 7.21467 51.8186 7.728C 52.3226 8.232 52.5746 8.96467 52.5746 9.926L 52.5746 14L 51.2586 14L 51.1326 13.146L 51.0906 13.146C 50.7266 13.426 50.3206 13.6687 49.8726 13.874C 49.4339 14.07 48.9813 14.168 48.5146 14.168C 48.1786 14.168 47.8706 14.1167 47.5906 14.014C 47.3106 13.9207 47.0679 13.7853 46.8626 13.608C 46.6573 13.4307 46.4986 13.2207 46.3866 12.978C 46.2746 12.726 46.2186 12.4507 46.2186 12.152ZM 47.7726 12.026C 47.7726 12.334 47.8893 12.558 48.1226 12.698C 48.3653 12.838 48.6593 12.908 49.0046 12.908C 49.3499 12.908 49.6813 12.8333 49.9986 12.684C 50.3253 12.5253 50.6473 12.32 50.9646 12.068L 50.9646 10.612C 50.3486 10.6587 49.8353 10.724 49.4246 10.808C 49.0139 10.8827 48.6873 10.9807 48.4446 11.102C 48.2019 11.2233 48.0293 11.3633 47.9266 11.522C 47.8239 11.6713 47.7726 11.8393 47.7726 12.026ZM 54.8651 15.428C 54.9585 15.456 55.0518 15.4793 55.1451 15.498C 55.2385 15.5167 55.3365 15.526 55.4391 15.526C 55.8778 15.526 56.2278 15.414 56.4891 15.19C 56.7505 14.9753 56.9511 14.6953 57.0911 14.35L 57.2591 13.916L 54.1791 7.126L 55.7891 7.126L 57.2031 10.5C 57.3338 10.808 57.4598 11.1347 57.5811 11.48C 57.7025 11.8253 57.8285 12.1707 57.9591 12.516L 58.0151 12.516C 58.1178 12.1893 58.2298 11.8533 58.3511 11.508C 58.4725 11.1627 58.5891 10.8267 58.7011 10.5L 59.9471 7.126L 61.4731 7.126L 58.6031 14.308C 58.4538 14.7 58.2858 15.05 58.0991 15.358C 57.9218 15.666 57.7118 15.9273 57.4691 16.142C 57.2265 16.366 56.9465 16.534 56.6291 16.646C 56.3118 16.7673 55.9478 16.828 55.5371 16.828C 55.3505 16.828 55.1731 16.814 55.0051 16.786C 54.8371 16.7673 54.6878 16.7347 54.5571 16.688L 54.8651 15.428ZM 64.8277 12.754C 64.8277 12.3433 64.9583 12.0073 65.2197 11.746C 65.481 11.4753 65.8123 11.34 66.2137 11.34C 66.615 11.34 66.9463 11.4753 67.2077 11.746C 67.469 12.0073 67.5997 12.3433 67.5997 12.754C 67.5997 13.1647 67.469 13.5053 67.2077 13.776C 66.9463 14.0373 66.615 14.168 66.2137 14.168C 65.8123 14.168 65.481 14.0373 65.2197 13.776C 64.9583 13.5053 64.8277 13.1647 64.8277 12.754ZM 71.0802 7.126L 72.2982 7.126L 72.4242 8.008L 72.4662 8.008C 72.6249 7.70933 72.8162 7.462 73.0402 7.266C 73.2735 7.06067 73.5862 6.958 73.9782 6.958C 74.6502 6.958 75.0702 7.34067 75.2382 8.106C 75.3969 7.77933 75.5975 7.50867 75.8402 7.294C 76.0922 7.07 76.4095 6.958 76.7922 6.958C 77.2775 6.958 77.6509 7.14933 77.9122 7.532C 78.1829 7.90533 78.3182 8.43733 78.3182 9.128L 78.3182 14L 76.7922 14L 76.7922 9.254C 76.7922 8.64733 76.6009 8.344 76.2182 8.344C 76.0315 8.344 75.8682 8.414 75.7282 8.554C 75.5882 8.694 75.4529 8.90867 75.3222 9.198L 75.3222 14L 74.0622 14L 74.0622 9.254C 74.0622 8.64733 73.8662 8.344 73.4742 8.344C 73.2875 8.344 73.1289 8.414 72.9982 8.554C 72.8675 8.694 72.7369 8.90867 72.6062 9.198L 72.6062 14L 71.0802 14L 71.0802 7.126ZM 79.7967 12.152C 79.7967 11.7693 79.8854 11.4333 80.0627 11.144C 80.2401 10.8453 80.5201 10.5933 80.9027 10.388C 81.2854 10.1827 81.7754 10.0147 82.3727 9.884C 82.9701 9.75333 83.6934 9.66 84.5427 9.604C 84.5147 9.212 84.3747 8.89 84.1227 8.638C 83.8707 8.386 83.4647 8.26 82.9047 8.26C 82.5127 8.26 82.1254 8.33467 81.7427 8.484C 81.3694 8.624 81.0054 8.792 80.6507 8.988L 80.0627 7.91C 80.4827 7.66733 80.9634 7.448 81.5047 7.252C 82.0461 7.056 82.6107 6.958 83.1987 6.958C 84.1601 6.958 84.8927 7.21467 85.3967 7.728C 85.9007 8.232 86.1527 8.96467 86.1527 9.926L 86.1527 14L 84.8367 14L 84.7107 13.146L 84.6687 13.146C 84.3047 13.426 83.8987 13.6687 83.4507 13.874C 83.0121 14.07 82.5594 14.168 82.0927 14.168C 81.7567 14.168 81.4487 14.1167 81.1687 14.014C 80.8887 13.9207 80.6461 13.7853 80.4407 13.608C 80.2354 13.4307 80.0767 13.2207 79.9647 12.978C 79.8527 12.726 79.7967 12.4507 79.7967 12.152ZM 81.3507 12.026C 81.3507 12.334 81.4674 12.558 81.7007 12.698C 81.9434 12.838 82.2374 12.908 82.5827 12.908C 82.9281 12.908 83.2594 12.8333 83.5767 12.684C 83.9034 12.5253 84.2254 12.32 84.5427 12.068L 84.5427 10.612C 83.9267 10.6587 83.4134 10.724 83.0027 10.808C 82.5921 10.8827 82.2654 10.9807 82.0227 11.102C 81.7801 11.2233 81.6074 11.3633 81.5047 11.522C 81.4021 11.6713 81.3507 11.8393 81.3507 12.026ZM 90.4033 10.43L 88.0793 7.126L 89.8293 7.126L 90.7253 8.428C 90.8373 8.61467 90.9586 8.81067 91.0893 9.016C 91.2199 9.212 91.3506 9.408 91.4813 9.604L 91.5373 9.604C 91.6399 9.408 91.7519 9.20733 91.8733 9.002C 91.9946 8.79667 92.1066 8.60067 92.2093 8.414L 93.0213 7.126L 94.7153 7.126L 92.3773 10.598L 94.8833 14L 93.1333 14L 92.1393 12.642C 92.0086 12.4553 91.8686 12.2547 91.7193 12.04C 91.5793 11.8253 91.4393 11.62 91.2993 11.424L 91.2433 11.424C 91.1126 11.6293 90.9866 11.8347 90.8653 12.04C 90.7533 12.236 90.6319 12.4413 90.5013 12.656L 89.6053 14L 87.9113 14L 90.4033 10.43ZM 101.36 16.478C 100.417 15.694 99.6705 14.77 99.1198 13.706C 98.5785 12.642 98.3078 11.4427 98.3078 10.108C 98.3078 8.77333 98.5785 7.574 99.1198 6.51C 99.6705 5.446 100.417 4.522 101.36 3.738L 102.256 4.48C 101.369 5.28267 100.72 6.13667 100.31 7.042C 99.8991 7.94733 99.6938 8.96933 99.6938 10.108C 99.6938 11.2467 99.8991 12.2687 100.31 13.174C 100.72 14.0793 101.369 14.9333 102.256 15.736L 101.36 16.478ZM 104.98 12.152C 104.98 11.7693 105.069 11.4333 105.246 11.144C 105.424 10.8453 105.704 10.5933 106.086 10.388C 106.469 10.1827 106.959 10.0147 107.556 9.884C 108.154 9.75333 108.877 9.66 109.726 9.604C 109.698 9.212 109.558 8.89 109.306 8.638C 109.054 8.386 108.648 8.26 108.088 8.26C 107.696 8.26 107.309 8.33467 106.926 8.484C 106.553 8.624 106.189 8.792 105.834 8.988L 105.246 7.91C 105.666 7.66733 106.147 7.448 106.688 7.252C 107.23 7.056 107.794 6.958 108.382 6.958C 109.344 6.958 110.076 7.21467 110.58 7.728C 111.084 8.232 111.336 8.96467 111.336 9.926L 111.336 14L 110.02 14L 109.894 13.146L 109.852 13.146C 109.488 13.426 109.082 13.6687 108.634 13.874C 108.196 14.07 107.743 14.168 107.276 14.168C 106.94 14.168 106.632 14.1167 106.352 14.014C 106.072 13.9207 105.83 13.7853 105.624 13.608C 105.419 13.4307 105.26 13.2207 105.148 12.978C 105.036 12.726 104.98 12.4507 104.98 12.152ZM 106.534 12.026C 106.534 12.334 106.651 12.558 106.884 12.698C 107.127 12.838 107.421 12.908 107.766 12.908C 108.112 12.908 108.443 12.8333 108.76 12.684C 109.087 12.5253 109.409 12.32 109.726 12.068L 109.726 10.612C 109.11 10.6587 108.597 10.724 108.186 10.808C 107.776 10.8827 107.449 10.9807 107.206 11.102C 106.964 11.2233 106.791 11.3633 106.688 11.522C 106.586 11.6713 106.534 11.8393 106.534 12.026ZM 115.587 10.43L 113.263 7.126L 115.013 7.126L 115.909 8.428C 116.021 8.61467 116.142 8.81067 116.273 9.016C 116.404 9.212 116.534 9.408 116.665 9.604L 116.721 9.604C 116.824 9.408 116.936 9.20733 117.057 9.002C 117.178 8.79667 117.29 8.60067 117.393 8.414L 118.205 7.126L 119.899 7.126L 117.561 10.598L 120.067 14L 118.317 14L 117.323 12.642C 117.192 12.4553 117.052 12.2547 116.903 12.04C 116.763 11.8253 116.623 11.62 116.483 11.424L 116.427 11.424C 116.296 11.6293 116.17 11.8347 116.049 12.04C 115.937 12.236 115.816 12.4413 115.685 12.656L 114.789 14L 113.095 14L 115.587 10.43ZM 121.951 7.126L 126.543 7.126L 126.543 14L 124.933 14L 124.933 8.4L 121.951 8.4L 121.951 7.126ZM 125.619 5.922C 125.293 5.922 125.017 5.824 124.793 5.628C 124.579 5.432 124.471 5.17067 124.471 4.844C 124.471 4.51733 124.579 4.256 124.793 4.06C 125.017 3.85467 125.293 3.752 125.619 3.752C 125.955 3.752 126.231 3.85467 126.445 4.06C 126.66 4.256 126.767 4.51733 126.767 4.844C 126.767 5.17067 126.66 5.432 126.445 5.628C 126.231 5.824 125.955 5.922 125.619 5.922ZM 130.794 12.082C 131.186 12.3527 131.592 12.5673 132.012 12.726C 132.441 12.8753 132.922 12.95 133.454 12.95C 133.995 12.95 134.392 12.8753 134.644 12.726C 134.896 12.5673 135.022 12.3667 135.022 12.124C 135.022 11.8813 134.859 11.6807 134.532 11.522C 134.205 11.354 133.692 11.1767 132.992 10.99C 132.665 10.906 132.348 10.8033 132.04 10.682C 131.732 10.5607 131.461 10.4207 131.228 10.262C 130.995 10.1033 130.808 9.92133 130.668 9.716C 130.528 9.51067 130.458 9.27733 130.458 9.016C 130.458 8.40933 130.719 7.91467 131.242 7.532C 131.765 7.14933 132.516 6.958 133.496 6.958C 134.056 6.958 134.583 7.05133 135.078 7.238C 135.573 7.42467 135.997 7.63467 136.352 7.868L 135.61 8.862C 135.302 8.65667 134.971 8.49333 134.616 8.372C 134.271 8.24133 133.902 8.176 133.51 8.176C 132.978 8.176 132.605 8.25067 132.39 8.4C 132.175 8.54 132.068 8.71733 132.068 8.932C 132.068 9.05333 132.115 9.16533 132.208 9.268C 132.311 9.36133 132.446 9.45 132.614 9.534C 132.791 9.60867 132.997 9.68333 133.23 9.758C 133.463 9.83267 133.72 9.90267 134 9.968C 134.401 10.0707 134.761 10.1873 135.078 10.318C 135.405 10.4393 135.68 10.5793 135.904 10.738C 136.137 10.8967 136.315 11.0833 136.436 11.298C 136.567 11.5127 136.632 11.76 136.632 12.04C 136.632 12.3387 136.562 12.6187 136.422 12.88C 136.282 13.132 136.077 13.356 135.806 13.552C 135.535 13.7387 135.199 13.888 134.798 14C 134.397 14.112 133.935 14.168 133.412 14.168C 132.768 14.168 132.152 14.0653 131.564 13.86C 130.976 13.6547 130.467 13.4027 130.038 13.104L 130.794 12.082ZM 138.656 7.224L 144.872 7.224L 144.872 8.4L 138.656 8.4L 138.656 7.224ZM 138.656 10.346L 144.872 10.346L 144.872 11.522L 138.656 11.522L 138.656 10.346Z"/>
<path id="path1_fill" d="M 153.421 12.684L 153.421 14L 147.219 14L 147.219 12.684L 149.627 12.684L 149.627 6.832L 147.765 6.832L 147.765 5.824C 148.269 5.74 148.698 5.642 149.053 5.53C 149.417 5.40867 149.753 5.264 150.061 5.096L 151.237 5.096L 151.237 12.684L 153.421 12.684ZM 156.09 15.736C 156.976 14.9333 157.625 14.0793 158.036 13.174C 158.446 12.2687 158.652 11.2467 158.652 10.108C 158.652 8.96933 158.446 7.94733 158.036 7.042C 157.625 6.13667 156.976 5.28267 156.09 4.48L 156.986 3.738C 157.928 4.522 158.67 5.446 159.212 6.51C 159.762 7.574 160.038 8.77333 160.038 10.108C 160.038 11.4427 159.762 12.642 159.212 13.706C 158.67 14.77 157.928 15.694 156.986 16.478L 156.09 15.736Z"/>
<path id="path2_fill" d="M 52.1631 12L 46.1074 12L 46.1074 11.1558L 49.3066 7.60107C 49.7806 7.06364 50.1064 6.62777 50.2842 6.29346C 50.4661 5.95492 50.5571 5.60579 50.5571 5.24609C 50.5571 4.76367 50.4111 4.368 50.1191 4.05908C 49.8271 3.75016 49.4378 3.5957 48.9512 3.5957C 48.3672 3.5957 47.9123 3.76286 47.5864 4.09717C 47.2648 4.42725 47.104 4.88851 47.104 5.48096L 45.9297 5.48096C 45.9297 4.63037 46.2026 3.94271 46.7485 3.41797C 47.2987 2.89323 48.0329 2.63086 48.9512 2.63086C 49.8102 2.63086 50.4894 2.85726 50.9888 3.31006C 51.4881 3.75863 51.7378 4.35742 51.7378 5.10645C 51.7378 6.01628 51.158 7.09961 49.9985 8.35645L 47.5229 11.0415L 52.1631 11.0415L 52.1631 12ZM 53.7119 12L 53.7119 2.75781L 56.3208 2.75781C 57.1248 2.75781 57.8358 2.93555 58.4536 3.29102C 59.0715 3.64648 59.5475 4.15218 59.8818 4.80811C 60.2204 5.46403 60.3918 6.21729 60.396 7.06787L 60.396 7.6582C 60.396 8.52995 60.2267 9.29378 59.8882 9.94971C 59.5539 10.6056 59.0736 11.1092 58.4473 11.4604C 57.8252 11.8117 57.0994 11.9915 56.27 12L 53.7119 12ZM 54.9307 3.76074L 54.9307 11.0034L 56.2129 11.0034C 57.1523 11.0034 57.8823 10.7114 58.4028 10.1274C 58.9276 9.54346 59.1899 8.71191 59.1899 7.63281L 59.1899 7.09326C 59.1899 6.04378 58.9424 5.22917 58.4473 4.64941C 57.9564 4.06543 57.2581 3.76921 56.3525 3.76074L 54.9307 3.76074ZM 66.3945 5.13184L 66.4326 5.99512C 66.9574 5.33496 67.6429 5.00488 68.4893 5.00488C 69.9408 5.00488 70.6729 5.82373 70.6855 7.46143L 70.6855 12L 69.5112 12L 69.5112 7.45508C 69.507 6.95996 69.3927 6.59391 69.1685 6.35693C 68.9484 6.11995 68.6035 6.00146 68.1338 6.00146C 67.7529 6.00146 67.4186 6.10303 67.1309 6.30615C 66.8431 6.50928 66.6188 6.77588 66.458 7.10596L 66.458 12L 65.2837 12L 65.2837 5.13184L 66.3945 5.13184ZM 72.1709 8.50879C 72.1709 7.45508 72.4206 6.60872 72.9199 5.96973C 73.4193 5.3265 74.0731 5.00488 74.8813 5.00488C 75.6854 5.00488 76.3223 5.27995 76.792 5.83008L 76.792 2.25L 77.9663 2.25L 77.9663 12L 76.8872 12L 76.8301 11.2637C 76.3604 11.8392 75.7065 12.127 74.8687 12.127C 74.0731 12.127 73.4235 11.8011 72.9199 11.1494C 72.4206 10.4977 72.1709 9.64714 72.1709 8.59766L 72.1709 8.50879ZM 73.3452 8.64209C 73.3452 9.42074 73.506 10.0301 73.8276 10.4702C 74.1493 10.9103 74.5936 11.1304 75.1606 11.1304C 75.9054 11.1304 76.4492 10.7961 76.792 10.1274L 76.792 6.97266C 76.4408 6.3252 75.9012 6.00146 75.1733 6.00146C 74.5978 6.00146 74.1493 6.22363 73.8276 6.66797C 73.506 7.1123 73.3452 7.77035 73.3452 8.64209ZM 84.0347 12C 83.967 11.8646 83.9119 11.6234 83.8696 11.2764C 83.3237 11.8434 82.672 12.127 81.9146 12.127C 81.2375 12.127 80.681 11.9365 80.2451 11.5557C 79.8135 11.1706 79.5977 10.6839 79.5977 10.0957C 79.5977 9.38053 79.8685 8.82617 80.4102 8.43262C 80.9561 8.03483 81.722 7.83594 82.708 7.83594L 83.8506 7.83594L 83.8506 7.29639C 83.8506 6.8859 83.7279 6.56006 83.4824 6.31885C 83.237 6.0734 82.8752 5.95068 82.397 5.95068C 81.978 5.95068 81.6268 6.05648 81.3433 6.26807C 81.0597 6.47965 80.918 6.73568 80.918 7.03613L 79.7373 7.03613C 79.7373 6.69336 79.8579 6.36328 80.0991 6.0459C 80.3446 5.72428 80.6746 5.47038 81.0894 5.28418C 81.5083 5.09798 81.9674 5.00488 82.4668 5.00488C 83.2581 5.00488 83.8781 5.20378 84.3267 5.60156C 84.7752 5.99512 85.008 6.5389 85.0249 7.23291L 85.0249 10.394C 85.0249 11.0246 85.1053 11.526 85.2661 11.8984L 85.2661 12L 84.0347 12ZM 82.0859 11.105C 82.4541 11.105 82.8032 11.0098 83.1333 10.8193C 83.4634 10.6289 83.7025 10.3813 83.8506 10.0767L 83.8506 8.66748L 82.9302 8.66748C 81.4914 8.66748 80.772 9.08854 80.772 9.93066C 80.772 10.2988 80.8947 10.5866 81.1401 10.7939C 81.3856 11.0013 81.7008 11.105 82.0859 11.105ZM 90.1855 6.18555C 90.0078 6.15592 89.8153 6.14111 89.6079 6.14111C 88.8377 6.14111 88.3151 6.46908 88.04 7.125L 88.04 12L 86.8657 12L 86.8657 5.13184L 88.0083 5.13184L 88.0273 5.92529C 88.4124 5.31169 88.9583 5.00488 89.665 5.00488C 89.8936 5.00488 90.0671 5.0345 90.1855 5.09375L 90.1855 6.18555ZM 94.5908 6.18555C 94.4131 6.15592 94.2205 6.14111 94.0132 6.14111C 93.243 6.14111 92.7204 6.46908 92.4453 7.125L 92.4453 12L 91.271 12L 91.271 5.13184L 92.4136 5.13184L 92.4326 5.92529C 92.8177 5.31169 93.3636 5.00488 94.0703 5.00488C 94.2988 5.00488 94.4723 5.0345 94.5908 5.09375L 94.5908 6.18555ZM 99.6626 12C 99.5949 11.8646 99.5399 11.6234 99.4976 11.2764C 98.9517 11.8434 98.3 12.127 97.5425 12.127C 96.8654 12.127 96.3089 11.9365 95.873 11.5557C 95.4414 11.1706 95.2256 10.6839 95.2256 10.0957C 95.2256 9.38053 95.4964 8.82617 96.0381 8.43262C 96.584 8.03483 97.3499 7.83594 98.3359 7.83594L 99.4785 7.83594L 99.4785 7.29639C 99.4785 6.8859 99.3558 6.56006 99.1104 6.31885C 98.8649 6.0734 98.5031 5.95068 98.0249 5.95068C 97.606 5.95068 97.2547 6.05648 96.9712 6.26807C 96.6877 6.47965 96.5459 6.73568 96.5459 7.03613L 95.3652 7.03613C 95.3652 6.69336 95.4858 6.36328 95.7271 6.0459C 95.9725 5.72428 96.3026 5.47038 96.7173 5.28418C 97.1362 5.09798 97.5954 5.00488 98.0947 5.00488C 98.8861 5.00488 99.506 5.20378 99.9546 5.60156C 100.403 5.99512 100.636 6.5389 100.653 7.23291L 100.653 10.394C 100.653 11.0246 100.733 11.526 100.894 11.8984L 100.894 12L 99.6626 12ZM 97.7139 11.105C 98.082 11.105 98.4312 11.0098 98.7612 10.8193C 99.0913 10.6289 99.3304 10.3813 99.4785 10.0767L 99.4785 8.66748L 98.5581 8.66748C 97.1193 8.66748 96.3999 9.08854 96.3999 9.93066C 96.3999 10.2988 96.5226 10.5866 96.7681 10.7939C 97.0135 11.0013 97.3288 11.105 97.7139 11.105ZM 104.639 10.2798L 106.239 5.13184L 107.496 5.13184L 104.734 13.0601C 104.307 14.2026 103.628 14.7739 102.697 14.7739L 102.475 14.7549L 102.037 14.6724L 102.037 13.7202L 102.354 13.7456C 102.752 13.7456 103.061 13.6652 103.281 13.5044C 103.505 13.3436 103.689 13.0495 103.833 12.6221L 104.093 11.9238L 101.643 5.13184L 102.925 5.13184L 104.639 10.2798Z"/>
<path id="path3_fill" d="M 17.3652 8.26123L 15.1943 8.26123L 15.1943 12L 13.9692 12L 13.9692 2.75781L 17.0288 2.75781C 18.0698 2.75781 18.8696 2.99479 19.4282 3.46875C 19.991 3.94271 20.2725 4.63249 20.2725 5.53809C 20.2725 6.11361 20.1159 6.61507 19.8027 7.04248C 19.4938 7.46989 19.0622 7.78939 18.5078 8.00098L 20.6787 11.9238L 20.6787 12L 19.3711 12L 17.3652 8.26123ZM 15.1943 7.26465L 17.0669 7.26465C 17.672 7.26465 18.1523 7.10807 18.5078 6.79492C 18.8675 6.48177 19.0474 6.06283 19.0474 5.53809C 19.0474 4.9668 18.876 4.52881 18.5332 4.22412C 18.1947 3.91943 17.7038 3.76497 17.0605 3.76074L 15.1943 3.76074L 15.1943 7.26465ZM 24.6523 12.127C 23.7214 12.127 22.9639 11.8223 22.3799 11.2129C 21.7959 10.5993 21.5039 9.78044 21.5039 8.75635L 21.5039 8.54053C 21.5039 7.85921 21.633 7.25195 21.8911 6.71875C 22.1535 6.18132 22.5174 5.76237 22.9829 5.46191C 23.4526 5.15723 23.9604 5.00488 24.5063 5.00488C 25.3993 5.00488 26.0933 5.29899 26.5884 5.88721C 27.0835 6.47542 27.3311 7.31755 27.3311 8.41357L 27.3311 8.90234L 22.6782 8.90234C 22.6951 9.57943 22.8919 10.1274 23.2686 10.5464C 23.6494 10.9611 24.1318 11.1685 24.7158 11.1685C 25.1305 11.1685 25.4818 11.0838 25.7695 10.9146C 26.0573 10.7453 26.3091 10.521 26.5249 10.2417L 27.2422 10.8003C 26.6667 11.6847 25.8034 12.127 24.6523 12.127ZM 24.5063 5.96973C 24.0324 5.96973 23.6346 6.14323 23.313 6.49023C 22.9914 6.83301 22.7925 7.31543 22.7163 7.9375L 26.1567 7.9375L 26.1567 7.84863C 26.1229 7.25195 25.9621 6.79069 25.6743 6.46484C 25.3866 6.13477 24.9972 5.96973 24.5063 5.96973ZM 32.6948 10.1782C 32.6948 9.86084 32.5742 9.6154 32.333 9.44189C 32.096 9.26416 31.6792 9.11182 31.0825 8.98486C 30.4901 8.85791 30.0182 8.70557 29.667 8.52783C 29.32 8.3501 29.0618 8.13851 28.8926 7.89307C 28.7275 7.64762 28.645 7.35563 28.645 7.01709C 28.645 6.45426 28.882 5.97819 29.356 5.58887C 29.8341 5.19954 30.4435 5.00488 31.1841 5.00488C 31.9627 5.00488 32.5933 5.20589 33.0757 5.60791C 33.5623 6.00993 33.8057 6.52409 33.8057 7.15039L 32.625 7.15039C 32.625 6.82878 32.4875 6.5516 32.2124 6.31885C 31.9416 6.0861 31.5988 5.96973 31.1841 5.96973C 30.7567 5.96973 30.4224 6.06283 30.1812 6.24902C 29.9399 6.43522 29.8193 6.67855 29.8193 6.979C 29.8193 7.26253 29.9315 7.47624 30.1558 7.62012C 30.38 7.764 30.7842 7.90153 31.3682 8.03271C 31.9564 8.1639 32.4325 8.32048 32.7964 8.50244C 33.1603 8.68441 33.429 8.90446 33.6025 9.1626C 33.7803 9.4165 33.8691 9.72754 33.8691 10.0957C 33.8691 10.7093 33.6237 11.2023 33.1328 11.5747C 32.6419 11.9429 32.005 12.127 31.2222 12.127C 30.672 12.127 30.1854 12.0296 29.7622 11.835C 29.339 11.6403 29.0068 11.3695 28.7656 11.0225C 28.5286 10.6712 28.4102 10.2925 28.4102 9.88623L 29.5845 9.88623C 29.6056 10.2798 29.7622 10.5929 30.0542 10.8257C 30.3504 11.0542 30.7397 11.1685 31.2222 11.1685C 31.6665 11.1685 32.022 11.0796 32.2886 10.9019C 32.5594 10.7199 32.6948 10.4787 32.6948 10.1782ZM 39.6392 11.3208C 39.1821 11.8582 38.5114 12.127 37.627 12.127C 36.8949 12.127 36.3363 11.9154 35.9512 11.4922C 35.5703 11.0648 35.3778 10.4342 35.3735 9.60059L 35.3735 5.13184L 36.5479 5.13184L 36.5479 9.56885C 36.5479 10.6099 36.971 11.1304 37.8174 11.1304C 38.7145 11.1304 39.3112 10.7961 39.6074 10.1274L 39.6074 5.13184L 40.7817 5.13184L 40.7817 12L 39.6646 12L 39.6392 11.3208ZM 43.8477 12L 42.6733 12L 42.6733 2.25L 43.8477 2.25L 43.8477 12ZM 47.3262 3.46875L 47.3262 5.13184L 48.6084 5.13184L 48.6084 6.03955L 47.3262 6.03955L 47.3262 10.2988C 47.3262 10.5739 47.3833 10.7812 47.4976 10.9209C 47.6118 11.0563 47.8065 11.124 48.0815 11.124C 48.217 11.124 48.4032 11.0986 48.6401 11.0479L 48.6401 12C 48.3312 12.0846 48.0308 12.127 47.7388 12.127C 47.214 12.127 46.8184 11.9683 46.5518 11.6509C 46.2852 11.3335 46.1519 10.8828 46.1519 10.2988L 46.1519 6.03955L 44.9014 6.03955L 44.9014 5.13184L 46.1519 5.13184L 46.1519 3.46875L 47.3262 3.46875Z"/>
<path id="path4_stroke" d="M 0 0L 0 -0.5L -0.5 -0.5L -0.5 0L 0 0ZM 38.25 0L 38.75 0L 38.75 -0.5L 38.25 -0.5L 38.25 0ZM 38.25 38.4368L 38.25 38.9368L 38.75 38.9368L 38.75 38.4368L 38.25 38.4368ZM 0 38.4368L -0.5 38.4368L -0.5 38.9368L 0 38.9368L 0 38.4368ZM 0 0.5L 38.25 0.5L 38.25 -0.5L 0 -0.5L 0 0.5ZM 37.75 0L 37.75 38.4368L 38.75 38.4368L 38.75 0L 37.75 0ZM 38.25 37.9368L 0 37.9368L 0 38.9368L 38.25 38.9368L 38.25 37.9368ZM 0.5 38.4368L 0.5 0L -0.5 0L -0.5 38.4368L 0.5 38.4368Z"/>
<path id="path5_fill" d="M 0 0L 152 0L 152 38L 0 38L 0 0Z"/>
<path id="path6_stroke_2x" d="M 0 0L 0 -2L -2 -2L -2 0L 0 0ZM 152 0L 154 0L 154 -2L 152 -2L 152 0ZM 152 38L 152 40L 154 40L 154 38L 152 38ZM 0 38L -2 38L -2 40L 0 40L 0 38ZM 0 2L 152 2L 152 -2L 0 -2L 0 2ZM 150 0L 150 38L 154 38L 154 0L 150 0ZM 152 36L 0 36L 0 40L 152 40L 152 36ZM 2 38L 2 0L -2 0L -2 38L 2 38Z"/>
<path id="path7_fill" d="M 0 0L 152 0L 152 37L 0 37L 0 0Z"/>
<path id="path8_stroke_2x" d="M 0 0L 0 -2L -2 -2L -2 0L 0 0ZM 152 0L 154 0L 154 -2L 152 -2L 152 0ZM 152 37L 152 39L 154 39L 154 37L 152 37ZM 0 37L -2 37L -2 39L 0 39L 0 37ZM 0 2L 152 2L 152 -2L 0 -2L 0 2ZM 150 0L 150 37L 154 37L 154 0L 150 0ZM 152 35L 0 35L 0 39L 152 39L 152 35ZM 2 37L 2 0L -2 0L -2 37L 2 37Z"/>
<path id="path9_fill" d="M 0 0L 152 0L 152 39L 0 39L 0 0Z"/>
<path id="path10_stroke_2x" d="M 0 0L 0 -2L -2 -2L -2 0L 0 0ZM 152 0L 154 0L 154 -2L 152 -2L 152 0ZM 152 39L 152 41L 154 41L 154 39L 152 39ZM 0 39L -2 39L -2 41L 0 41L 0 39ZM 0 2L 152 2L 152 -2L 0 -2L 0 2ZM 150 0L 150 39L 154 39L 154 0L 150 0ZM 152 37L 0 37L 0 41L 152 41L 152 37ZM 2 39L 2 0L -2 0L -2 39L 2 39Z"/>
<path id="path11_fill" d="M 14.3933 17L 12.7585 17L 12.7585 6.16309L 9.4802 7.36719L 9.4802 5.89062L 14.1384 4.1416L 14.3933 4.1416L 14.3933 17Z"/>
<path id="path12_fill" d="M 17.074 11.542C 17.074 13.4463 16.7488 14.8613 16.0984 15.7871C 15.448 16.7129 14.4314 17.1758 13.0486 17.1758C 11.6833 17.1758 10.6726 16.7246 10.0163 15.8223C 9.36008 14.9141 9.02024 13.5605 8.9968 11.7617L 8.9968 9.59082C 8.9968 7.70996 9.322 6.3125 9.97239 5.39844C 10.6228 4.48438 11.6423 4.02734 13.031 4.02734C 14.4079 4.02734 15.4216 4.46973 16.072 5.35449C 16.7224 6.2334 17.0564 7.59277 17.074 9.43262L 17.074 11.542ZM 15.448 9.31836C 15.448 7.94141 15.2546 6.93945 14.8679 6.3125C 14.4812 5.67969 13.8689 5.36328 13.031 5.36328C 12.199 5.36328 11.5925 5.67676 11.2116 6.30371C 10.8308 6.93066 10.6345 7.89453 10.6228 9.19531L 10.6228 11.7969C 10.6228 13.1797 10.822 14.2021 11.2204 14.8643C 11.6247 15.5205 12.2341 15.8486 13.0486 15.8486C 13.8513 15.8486 14.446 15.5381 14.8327 14.917C 15.2253 14.2959 15.4304 13.3174 15.448 11.9814L 15.448 9.31836Z"/>
<path id="path13_fill" d="M 10.916 17L 9.28125 17L 9.28125 6.16309L 6.00293 7.36719L 6.00293 5.89062L 10.6611 4.1416L 10.916 4.1416L 10.916 17Z"/>
<path id="path14_fill" d="M 11.4138 9.81055L 12.6355 9.81055C 13.4031 9.79883 14.0066 9.59668 14.446 9.2041C 14.8855 8.81152 15.1052 8.28125 15.1052 7.61328C 15.1052 6.11328 14.3581 5.36328 12.864 5.36328C 12.1609 5.36328 11.5984 5.56543 11.1765 5.96973C 10.7605 6.36816 10.5525 6.89844 10.5525 7.56055L 8.92649 7.56055C 8.92649 6.54687 9.29563 5.70605 10.0339 5.03809C 10.7781 4.36426 11.7214 4.02734 12.864 4.02734C 14.071 4.02734 15.0173 4.34668 15.7029 4.98535C 16.3884 5.62402 16.7312 6.51172 16.7312 7.64844C 16.7312 8.20508 16.5495 8.74414 16.1863 9.26562C 15.8288 9.78711 15.3396 10.1768 14.7185 10.4346C 15.4216 10.6572 15.9636 11.0264 16.3445 11.542C 16.7312 12.0576 16.9245 12.6875 16.9245 13.4316C 16.9245 14.5801 16.5495 15.4912 15.7995 16.165C 15.0495 16.8389 14.074 17.1758 12.8728 17.1758C 11.6716 17.1758 10.6931 16.8506 9.93723 16.2002C 9.18723 15.5498 8.81223 14.6914 8.81223 13.625L 10.447 13.625C 10.447 14.2988 10.6667 14.8379 11.1062 15.2422C 11.5456 15.6465 12.1345 15.8486 12.8728 15.8486C 13.6579 15.8486 14.2585 15.6436 14.6745 15.2334C 15.0906 14.8232 15.2986 14.2344 15.2986 13.4668C 15.2986 12.7227 15.07 12.1514 14.613 11.7529C 14.156 11.3545 13.4968 11.1494 12.6355 11.1377L 11.4138 11.1377L 11.4138 9.81055Z"/>
<path id="path15_fill" d="M 15.9138 12.7021L 17.6892 12.7021L 17.6892 14.0293L 15.9138 14.0293L 15.9138 17L 14.279 17L 14.279 14.0293L 8.45188 14.0293L 8.45188 13.0713L 14.1823 4.20312L 15.9138 4.20312L 15.9138 12.7021ZM 10.2976 12.7021L 14.279 12.7021L 14.279 6.42676L 14.0857 6.77832L 10.2976 12.7021Z"/>
<path id="path16_fill" d="M 13.5967 11.542C 13.5967 13.4463 13.2715 14.8613 12.6211 15.7871C 11.9707 16.7129 10.9541 17.1758 9.57129 17.1758C 8.20605 17.1758 7.19531 16.7246 6.53906 15.8223C 5.88281 14.9141 5.54297 13.5605 5.51953 11.7617L 5.51953 9.59082C 5.51953 7.70996 5.84473 6.3125 6.49512 5.39844C 7.14551 4.48438 8.16504 4.02734 9.55371 4.02734C 10.9307 4.02734 11.9443 4.46973 12.5947 5.35449C 13.2451 6.2334 13.5791 7.59277 13.5967 9.43262L 13.5967 11.542ZM 11.9707 9.31836C 11.9707 7.94141 11.7773 6.93945 11.3906 6.3125C 11.0039 5.67969 10.3916 5.36328 9.55371 5.36328C 8.72168 5.36328 8.11523 5.67676 7.73438 6.30371C 7.35352 6.93066 7.15723 7.89453 7.14551 9.19531L 7.14551 11.7969C 7.14551 13.1797 7.34473 14.2021 7.74316 14.8643C 8.14746 15.5205 8.75684 15.8486 9.57129 15.8486C 10.374 15.8486 10.9688 15.5381 11.3555 14.917C 11.748 14.2959 11.9531 13.3174 11.9707 11.9814L 11.9707 9.31836Z"/>
<path id="path17_fill" d="M 17.4343 17L 9.04954 17L 9.04954 15.8311L 13.4792 10.9092C 14.1355 10.165 14.5866 9.56152 14.8327 9.09863C 15.0847 8.62988 15.2107 8.14648 15.2107 7.64844C 15.2107 6.98047 15.0085 6.43262 14.6042 6.00488C 14.1999 5.57715 13.6609 5.36328 12.987 5.36328C 12.1784 5.36328 11.5486 5.59473 11.0974 6.05762C 10.6521 6.51465 10.4294 7.15332 10.4294 7.97363L 8.80344 7.97363C 8.80344 6.7959 9.18137 5.84375 9.93723 5.11719C 10.699 4.39063 11.7156 4.02734 12.987 4.02734C 14.1765 4.02734 15.1169 4.34082 15.8083 4.96777C 16.4997 5.58887 16.8454 6.41797 16.8454 7.45508C 16.8454 8.71484 16.0427 10.2148 14.4372 11.9551L 11.0095 15.6729L 17.4343 15.6729L 17.4343 17Z"/>
<path id="path18_fill" d="M 7.93652 9.81055L 9.1582 9.81055C 9.92578 9.79883 10.5293 9.59668 10.9688 9.2041C 11.4082 8.81152 11.6279 8.28125 11.6279 7.61328C 11.6279 6.11328 10.8809 5.36328 9.38672 5.36328C 8.68359 5.36328 8.12109 5.56543 7.69922 5.96973C 7.2832 6.36816 7.0752 6.89844 7.0752 7.56055L 5.44922 7.56055C 5.44922 6.54687 5.81836 5.70605 6.55664 5.03809C 7.30078 4.36426 8.24414 4.02734 9.38672 4.02734C 10.5937 4.02734 11.54 4.34668 12.2256 4.98535C 12.9111 5.62402 13.2539 6.51172 13.2539 7.64844C 13.2539 8.20508 13.0723 8.74414 12.709 9.26562C 12.3516 9.78711 11.8623 10.1768 11.2412 10.4346C 11.9443 10.6572 12.4863 11.0264 12.8672 11.542C 13.2539 12.0576 13.4473 12.6875 13.4473 13.4316C 13.4473 14.5801 13.0723 15.4912 12.3223 16.165C 11.5723 16.8389 10.5967 17.1758 9.39551 17.1758C 8.19434 17.1758 7.21582 16.8506 6.45996 16.2002C 5.70996 15.5498 5.33496 14.6914 5.33496 13.625L 6.96973 13.625C 6.96973 14.2988 7.18945 14.8379 7.62891 15.2422C 8.06836 15.6465 8.65723 15.8486 9.39551 15.8486C 10.1807 15.8486 10.7813 15.6436 11.1973 15.2334C 11.6133 14.8232 11.8213 14.2344 11.8213 13.4668C 11.8213 12.7227 11.5928 12.1514 11.1357 11.7529C 10.6787 11.3545 10.0195 11.1494 9.1582 11.1377L 7.93652 11.1377L 7.93652 9.81055Z"/>
<path id="path19_fill" d="M 0 0L 38 0L 38 38.4368L 0 38.4368L 0 0Z"/>
<path id="path20_stroke_2x" d="M 0 0L 0 -2L -2 -2L -2 0L 0 0ZM 38 0L 40 0L 40 -2L 38 -2L 38 0ZM 38 38.4368L 38 40.4368L 40 40.4368L 40 38.4368L 38 38.4368ZM 0 38.4368L -2 38.4368L -2 40.4368L 0 40.4368L 0 38.4368ZM 0 2L 38 2L 38 -2L 0 -2L 0 2ZM 36 0L 36 38.4368L 40 38.4368L 40 0L 36 0ZM 38 36.4368L 0 36.4368L 0 40.4368L 38 40.4368L 38 36.4368ZM 2 38.4368L 2 0L -2 0L -2 38.4368L 2 38.4368Z"/>
<path id="path21_fill" d="M 0 0L 38 0L 38 36.6897L 0 36.6897L 0 0Z"/>
<path id="path22_stroke_2x" d="M 0 0L 0 -2L -2 -2L -2 0L 0 0ZM 38 0L 40 0L 40 -2L 38 -2L 38 0ZM 38 36.6897L 38 38.6897L 40 38.6897L 40 36.6897L 38 36.6897ZM 0 36.6897L -2 36.6897L -2 38.6897L 0 38.6897L 0 36.6897ZM 0 2L 38 2L 38 -2L 0 -2L 0 2ZM 36 0L 36 36.6897L 40 36.6897L 40 0L 36 0ZM 38 34.6897L 0 34.6897L 0 38.6897L 38 38.6897L 38 34.6897ZM 2 36.6897L 2 0L -2 0L -2 36.6897L 2 36.6897Z"/>
</defs>
</svg>
