<svg width="733" height="255" viewBox="0 0 733 255" fill="none" xmlns="http://www.w3.org/2000/svg">
<rect width="733" height="255" fill="white"/>
<rect x="18.5" y="18.5" width="130" height="50" fill="white" stroke="black"/>
<rect x="18.5" y="69.5" width="130" height="50" fill="white" stroke="black"/>
<rect x="18.5" y="120.5" width="130" height="50" fill="white" stroke="black"/>
<rect x="18.5" y="171.5" width="130" height="50" fill="#C4C4C4" stroke="black"/>
<rect x="149.5" y="171.5" width="130" height="50" fill="#C4C4C4" stroke="black"/>
<rect x="280.5" y="171.5" width="130" height="50" fill="#C4C4C4" stroke="black"/>
<rect x="149.5" y="120.5" width="130" height="50" fill="white" stroke="black"/>
<rect x="149.5" y="69.5" width="130" height="50" fill="white" stroke="black"/>
<rect x="149.5" y="18.5" width="130" height="50" fill="white" stroke="black"/>
<rect x="280.5" y="18.5" width="130" height="50" fill="white" stroke="black"/>
<rect x="573.5" y="18.5" width="130" height="50" fill="#56B4E9" stroke="black"/>
<rect x="573.5" y="18.5" width="130" height="50" fill="white" stroke="black"/>
<rect x="280.5" y="69.5" width="130" height="50" fill="white" stroke="black"/>
<rect x="573.5" y="171.5" width="130" height="50" fill="#C4C4C4" stroke="black"/>
<rect x="573.5" y="120.5" width="130" height="50" fill="white" stroke="black"/>
<rect x="573.5" y="69.5" width="130" height="50" fill="white" stroke="black"/>
<rect x="280.5" y="120.5" width="130" height="50" fill="white" stroke="black"/>
<path d="M79.0322 40.127H75.833V49H74.5273V40.127H71.335V39.0469H79.0322V40.127ZM83.3662 42.7383C83.1748 42.7064 82.9674 42.6904 82.7441 42.6904C81.9147 42.6904 81.3519 43.0436 81.0557 43.75V49H79.791V41.6035H81.0215L81.042 42.458C81.4567 41.7972 82.0446 41.4668 82.8057 41.4668C83.0518 41.4668 83.2386 41.4987 83.3662 41.5625V42.7383ZM89.1016 48.2686C88.6094 48.8473 87.887 49.1367 86.9346 49.1367C86.1462 49.1367 85.5446 48.9089 85.1299 48.4531C84.7197 47.9928 84.5124 47.3138 84.5078 46.416V41.6035H85.7725V46.3818C85.7725 47.5029 86.2282 48.0635 87.1396 48.0635C88.1058 48.0635 88.7484 47.7035 89.0674 46.9834V41.6035H90.332V49H89.1289L89.1016 48.2686ZM95.3291 49.1367C94.3265 49.1367 93.5107 48.8086 92.8818 48.1523C92.2529 47.4915 91.9385 46.6097 91.9385 45.5068V45.2744C91.9385 44.5407 92.0775 43.8867 92.3555 43.3125C92.638 42.7337 93.0299 42.2826 93.5312 41.959C94.0371 41.6309 94.584 41.4668 95.1719 41.4668C96.1335 41.4668 96.8809 41.7835 97.4141 42.417C97.9473 43.0505 98.2139 43.9574 98.2139 45.1377V45.6641H93.2031C93.2214 46.3932 93.4333 46.9834 93.8389 47.4346C94.249 47.8812 94.7686 48.1045 95.3975 48.1045C95.8441 48.1045 96.2223 48.0133 96.5322 47.8311C96.8421 47.6488 97.1133 47.4072 97.3457 47.1064L98.1182 47.708C97.4984 48.6605 96.5687 49.1367 95.3291 49.1367ZM95.1719 42.5059C94.6615 42.5059 94.2331 42.6927 93.8867 43.0664C93.5404 43.4355 93.3262 43.9551 93.2441 44.625H96.9492V44.5293C96.9128 43.8867 96.7396 43.39 96.4297 43.0391C96.1198 42.6836 95.7005 42.5059 95.1719 42.5059Z" fill="black"/>
<path d="M339.032 90.127H335.833V99H334.527V90.127H331.335V89.0469H339.032V90.127ZM343.366 92.7383C343.175 92.7064 342.967 92.6904 342.744 92.6904C341.915 92.6904 341.352 93.0436 341.056 93.75V99H339.791V91.6035H341.021L341.042 92.458C341.457 91.7972 342.045 91.4668 342.806 91.4668C343.052 91.4668 343.239 91.4987 343.366 91.5625V92.7383ZM349.102 98.2686C348.609 98.8473 347.887 99.1367 346.935 99.1367C346.146 99.1367 345.545 98.9089 345.13 98.4531C344.72 97.9928 344.512 97.3138 344.508 96.416V91.6035H345.772V96.3818C345.772 97.5029 346.228 98.0635 347.14 98.0635C348.106 98.0635 348.748 97.7035 349.067 96.9834V91.6035H350.332V99H349.129L349.102 98.2686ZM355.329 99.1367C354.326 99.1367 353.511 98.8086 352.882 98.1523C352.253 97.4915 351.938 96.6097 351.938 95.5068V95.2744C351.938 94.5407 352.077 93.8867 352.355 93.3125C352.638 92.7337 353.03 92.2826 353.531 91.959C354.037 91.6309 354.584 91.4668 355.172 91.4668C356.133 91.4668 356.881 91.7835 357.414 92.417C357.947 93.0505 358.214 93.9574 358.214 95.1377V95.6641H353.203C353.221 96.3932 353.433 96.9834 353.839 97.4346C354.249 97.8812 354.769 98.1045 355.397 98.1045C355.844 98.1045 356.222 98.0133 356.532 97.8311C356.842 97.6488 357.113 97.4072 357.346 97.1064L358.118 97.708C357.498 98.6605 356.569 99.1367 355.329 99.1367ZM355.172 92.5059C354.661 92.5059 354.233 92.6927 353.887 93.0664C353.54 93.4355 353.326 93.9551 353.244 94.625H356.949V94.5293C356.913 93.8867 356.74 93.39 356.43 93.0391C356.12 92.6836 355.701 92.5059 355.172 92.5059Z" fill="black"/>
<path d="M77.6445 94.6045H73.4678V99H72.1553V89.0469H78.3213V90.127H73.4678V93.5312H77.6445V94.6045ZM84.0293 99C83.9564 98.8542 83.8971 98.5944 83.8516 98.2207C83.2637 98.8314 82.5618 99.1367 81.7461 99.1367C81.0169 99.1367 80.4176 98.9316 79.9482 98.5215C79.4834 98.1068 79.251 97.5827 79.251 96.9492C79.251 96.179 79.5426 95.582 80.126 95.1582C80.7139 94.7298 81.5387 94.5156 82.6006 94.5156H83.8311V93.9346C83.8311 93.4925 83.6989 93.1416 83.4346 92.8818C83.1702 92.6175 82.7806 92.4854 82.2656 92.4854C81.8145 92.4854 81.4362 92.5993 81.1309 92.8271C80.8255 93.055 80.6729 93.3307 80.6729 93.6543H79.4014C79.4014 93.2852 79.5312 92.9297 79.791 92.5879C80.0553 92.2415 80.4108 91.9681 80.8574 91.7676C81.3086 91.5671 81.8031 91.4668 82.3408 91.4668C83.193 91.4668 83.8607 91.681 84.3438 92.1094C84.8268 92.5332 85.0775 93.1188 85.0957 93.8662V97.2705C85.0957 97.9495 85.1823 98.4896 85.3555 98.8906V99H84.0293ZM81.9307 98.0361C82.3271 98.0361 82.7031 97.9336 83.0586 97.7285C83.4141 97.5234 83.6715 97.2568 83.8311 96.9287V95.4111H82.8398C81.2904 95.4111 80.5156 95.8646 80.5156 96.7715C80.5156 97.168 80.6478 97.4779 80.9121 97.7012C81.1764 97.9245 81.516 98.0361 81.9307 98.0361ZM88.4521 99H87.1875V88.5H88.4521V99ZM94.7891 97.0381C94.7891 96.6963 94.6592 96.432 94.3994 96.2451C94.1442 96.0537 93.6953 95.8896 93.0527 95.7529C92.4147 95.6162 91.9066 95.4521 91.5283 95.2607C91.1546 95.0693 90.8766 94.8415 90.6943 94.5771C90.5166 94.3128 90.4277 93.9984 90.4277 93.6338C90.4277 93.0277 90.6829 92.515 91.1934 92.0957C91.7083 91.6764 92.3646 91.4668 93.1621 91.4668C94.0007 91.4668 94.6797 91.6833 95.1992 92.1162C95.7233 92.5492 95.9854 93.1029 95.9854 93.7773H94.7139C94.7139 93.431 94.5658 93.1325 94.2695 92.8818C93.9779 92.6312 93.6087 92.5059 93.1621 92.5059C92.7018 92.5059 92.3418 92.6061 92.082 92.8066C91.8223 93.0072 91.6924 93.2692 91.6924 93.5928C91.6924 93.8981 91.8132 94.1283 92.0547 94.2832C92.2962 94.4382 92.7314 94.5863 93.3604 94.7275C93.9938 94.8688 94.5065 95.0374 94.8984 95.2334C95.2904 95.4294 95.5798 95.6663 95.7666 95.9443C95.958 96.2178 96.0537 96.5527 96.0537 96.9492C96.0537 97.61 95.7894 98.141 95.2607 98.542C94.7321 98.9385 94.0462 99.1367 93.2031 99.1367C92.6107 99.1367 92.0866 99.0319 91.6309 98.8223C91.1751 98.6126 90.8174 98.321 90.5576 97.9473C90.3024 97.569 90.1748 97.1611 90.1748 96.7236H91.4395C91.4622 97.1475 91.6309 97.4847 91.9453 97.7354C92.2643 97.9814 92.6836 98.1045 93.2031 98.1045C93.6816 98.1045 94.0645 98.0088 94.3516 97.8174C94.6432 97.6214 94.7891 97.3617 94.7891 97.0381ZM100.771 99.1367C99.7679 99.1367 98.9521 98.8086 98.3232 98.1523C97.6943 97.4915 97.3799 96.6097 97.3799 95.5068V95.2744C97.3799 94.5407 97.5189 93.8867 97.7969 93.3125C98.0794 92.7337 98.4714 92.2826 98.9727 91.959C99.4785 91.6309 100.025 91.4668 100.613 91.4668C101.575 91.4668 102.322 91.7835 102.855 92.417C103.389 93.0505 103.655 93.9574 103.655 95.1377V95.6641H98.6445C98.6628 96.3932 98.8747 96.9834 99.2803 97.4346C99.6904 97.8812 100.21 98.1045 100.839 98.1045C101.285 98.1045 101.664 98.0133 101.974 97.8311C102.284 97.6488 102.555 97.4072 102.787 97.1064L103.56 97.708C102.94 98.6605 102.01 99.1367 100.771 99.1367ZM100.613 92.5059C100.103 92.5059 99.6745 92.6927 99.3281 93.0664C98.9818 93.4355 98.7676 93.9551 98.6855 94.625H102.391V94.5293C102.354 93.8867 102.181 93.39 101.871 93.0391C101.561 92.6836 101.142 92.5059 100.613 92.5059Z" fill="black"/>
<path d="M200.645 94.6045H196.468V99H195.155V89.0469H201.321V90.127H196.468V93.5312H200.645V94.6045ZM207.029 99C206.956 98.8542 206.897 98.5944 206.852 98.2207C206.264 98.8314 205.562 99.1367 204.746 99.1367C204.017 99.1367 203.418 98.9316 202.948 98.5215C202.483 98.1068 202.251 97.5827 202.251 96.9492C202.251 96.179 202.543 95.582 203.126 95.1582C203.714 94.7298 204.539 94.5156 205.601 94.5156H206.831V93.9346C206.831 93.4925 206.699 93.1416 206.435 92.8818C206.17 92.6175 205.781 92.4854 205.266 92.4854C204.814 92.4854 204.436 92.5993 204.131 92.8271C203.826 93.055 203.673 93.3307 203.673 93.6543H202.401C202.401 93.2852 202.531 92.9297 202.791 92.5879C203.055 92.2415 203.411 91.9681 203.857 91.7676C204.309 91.5671 204.803 91.4668 205.341 91.4668C206.193 91.4668 206.861 91.681 207.344 92.1094C207.827 92.5332 208.077 93.1188 208.096 93.8662V97.2705C208.096 97.9495 208.182 98.4896 208.355 98.8906V99H207.029ZM204.931 98.0361C205.327 98.0361 205.703 97.9336 206.059 97.7285C206.414 97.5234 206.672 97.2568 206.831 96.9287V95.4111H205.84C204.29 95.4111 203.516 95.8646 203.516 96.7715C203.516 97.168 203.648 97.4779 203.912 97.7012C204.176 97.9245 204.516 98.0361 204.931 98.0361ZM211.452 99H210.188V88.5H211.452V99ZM217.789 97.0381C217.789 96.6963 217.659 96.432 217.399 96.2451C217.144 96.0537 216.695 95.8896 216.053 95.7529C215.415 95.6162 214.907 95.4521 214.528 95.2607C214.155 95.0693 213.877 94.8415 213.694 94.5771C213.517 94.3128 213.428 93.9984 213.428 93.6338C213.428 93.0277 213.683 92.515 214.193 92.0957C214.708 91.6764 215.365 91.4668 216.162 91.4668C217.001 91.4668 217.68 91.6833 218.199 92.1162C218.723 92.5492 218.985 93.1029 218.985 93.7773H217.714C217.714 93.431 217.566 93.1325 217.27 92.8818C216.978 92.6312 216.609 92.5059 216.162 92.5059C215.702 92.5059 215.342 92.6061 215.082 92.8066C214.822 93.0072 214.692 93.2692 214.692 93.5928C214.692 93.8981 214.813 94.1283 215.055 94.2832C215.296 94.4382 215.731 94.5863 216.36 94.7275C216.994 94.8688 217.507 95.0374 217.898 95.2334C218.29 95.4294 218.58 95.6663 218.767 95.9443C218.958 96.2178 219.054 96.5527 219.054 96.9492C219.054 97.61 218.789 98.141 218.261 98.542C217.732 98.9385 217.046 99.1367 216.203 99.1367C215.611 99.1367 215.087 99.0319 214.631 98.8223C214.175 98.6126 213.817 98.321 213.558 97.9473C213.302 97.569 213.175 97.1611 213.175 96.7236H214.439C214.462 97.1475 214.631 97.4847 214.945 97.7354C215.264 97.9814 215.684 98.1045 216.203 98.1045C216.682 98.1045 217.064 98.0088 217.352 97.8174C217.643 97.6214 217.789 97.3617 217.789 97.0381ZM223.771 99.1367C222.768 99.1367 221.952 98.8086 221.323 98.1523C220.694 97.4915 220.38 96.6097 220.38 95.5068V95.2744C220.38 94.5407 220.519 93.8867 220.797 93.3125C221.079 92.7337 221.471 92.2826 221.973 91.959C222.479 91.6309 223.025 91.4668 223.613 91.4668C224.575 91.4668 225.322 91.7835 225.855 92.417C226.389 93.0505 226.655 93.9574 226.655 95.1377V95.6641H221.645C221.663 96.3932 221.875 96.9834 222.28 97.4346C222.69 97.8812 223.21 98.1045 223.839 98.1045C224.285 98.1045 224.664 98.0133 224.974 97.8311C225.284 97.6488 225.555 97.4072 225.787 97.1064L226.56 97.708C225.94 98.6605 225.01 99.1367 223.771 99.1367ZM223.613 92.5059C223.103 92.5059 222.674 92.6927 222.328 93.0664C221.982 93.4355 221.768 93.9551 221.686 94.625H225.391V94.5293C225.354 93.8867 225.181 93.39 224.871 93.0391C224.561 92.6836 224.142 92.5059 223.613 92.5059Z" fill="black"/>
<path d="M335.645 147.604H331.468V152H330.155V142.047H336.321V143.127H331.468V146.531H335.645V147.604ZM342.029 152C341.956 151.854 341.897 151.594 341.852 151.221C341.264 151.831 340.562 152.137 339.746 152.137C339.017 152.137 338.418 151.932 337.948 151.521C337.483 151.107 337.251 150.583 337.251 149.949C337.251 149.179 337.543 148.582 338.126 148.158C338.714 147.73 339.539 147.516 340.601 147.516H341.831V146.935C341.831 146.493 341.699 146.142 341.435 145.882C341.17 145.618 340.781 145.485 340.266 145.485C339.814 145.485 339.436 145.599 339.131 145.827C338.826 146.055 338.673 146.331 338.673 146.654H337.401C337.401 146.285 337.531 145.93 337.791 145.588C338.055 145.242 338.411 144.968 338.857 144.768C339.309 144.567 339.803 144.467 340.341 144.467C341.193 144.467 341.861 144.681 342.344 145.109C342.827 145.533 343.077 146.119 343.096 146.866V150.271C343.096 150.95 343.182 151.49 343.355 151.891V152H342.029ZM339.931 151.036C340.327 151.036 340.703 150.934 341.059 150.729C341.414 150.523 341.672 150.257 341.831 149.929V148.411H340.84C339.29 148.411 338.516 148.865 338.516 149.771C338.516 150.168 338.648 150.478 338.912 150.701C339.176 150.924 339.516 151.036 339.931 151.036ZM346.452 152H345.188V141.5H346.452V152ZM352.789 150.038C352.789 149.696 352.659 149.432 352.399 149.245C352.144 149.054 351.695 148.89 351.053 148.753C350.415 148.616 349.907 148.452 349.528 148.261C349.155 148.069 348.877 147.841 348.694 147.577C348.517 147.313 348.428 146.998 348.428 146.634C348.428 146.028 348.683 145.515 349.193 145.096C349.708 144.676 350.365 144.467 351.162 144.467C352.001 144.467 352.68 144.683 353.199 145.116C353.723 145.549 353.985 146.103 353.985 146.777H352.714C352.714 146.431 352.566 146.132 352.27 145.882C351.978 145.631 351.609 145.506 351.162 145.506C350.702 145.506 350.342 145.606 350.082 145.807C349.822 146.007 349.692 146.269 349.692 146.593C349.692 146.898 349.813 147.128 350.055 147.283C350.296 147.438 350.731 147.586 351.36 147.728C351.994 147.869 352.507 148.037 352.898 148.233C353.29 148.429 353.58 148.666 353.767 148.944C353.958 149.218 354.054 149.553 354.054 149.949C354.054 150.61 353.789 151.141 353.261 151.542C352.732 151.938 352.046 152.137 351.203 152.137C350.611 152.137 350.087 152.032 349.631 151.822C349.175 151.613 348.817 151.321 348.558 150.947C348.302 150.569 348.175 150.161 348.175 149.724H349.439C349.462 150.147 349.631 150.485 349.945 150.735C350.264 150.981 350.684 151.104 351.203 151.104C351.682 151.104 352.064 151.009 352.352 150.817C352.643 150.621 352.789 150.362 352.789 150.038ZM358.771 152.137C357.768 152.137 356.952 151.809 356.323 151.152C355.694 150.492 355.38 149.61 355.38 148.507V148.274C355.38 147.541 355.519 146.887 355.797 146.312C356.079 145.734 356.471 145.283 356.973 144.959C357.479 144.631 358.025 144.467 358.613 144.467C359.575 144.467 360.322 144.784 360.855 145.417C361.389 146.05 361.655 146.957 361.655 148.138V148.664H356.645C356.663 149.393 356.875 149.983 357.28 150.435C357.69 150.881 358.21 151.104 358.839 151.104C359.285 151.104 359.664 151.013 359.974 150.831C360.284 150.649 360.555 150.407 360.787 150.106L361.56 150.708C360.94 151.66 360.01 152.137 358.771 152.137ZM358.613 145.506C358.103 145.506 357.674 145.693 357.328 146.066C356.982 146.436 356.768 146.955 356.686 147.625H360.391V147.529C360.354 146.887 360.181 146.39 359.871 146.039C359.561 145.684 359.142 145.506 358.613 145.506Z" fill="black"/>
<path d="M628.645 149.604H624.468V154H623.155V144.047H629.321V145.127H624.468V148.531H628.645V149.604ZM635.029 154C634.956 153.854 634.897 153.594 634.852 153.221C634.264 153.831 633.562 154.137 632.746 154.137C632.017 154.137 631.418 153.932 630.948 153.521C630.483 153.107 630.251 152.583 630.251 151.949C630.251 151.179 630.543 150.582 631.126 150.158C631.714 149.73 632.539 149.516 633.601 149.516H634.831V148.935C634.831 148.493 634.699 148.142 634.435 147.882C634.17 147.618 633.781 147.485 633.266 147.485C632.814 147.485 632.436 147.599 632.131 147.827C631.826 148.055 631.673 148.331 631.673 148.654H630.401C630.401 148.285 630.531 147.93 630.791 147.588C631.055 147.242 631.411 146.968 631.857 146.768C632.309 146.567 632.803 146.467 633.341 146.467C634.193 146.467 634.861 146.681 635.344 147.109C635.827 147.533 636.077 148.119 636.096 148.866V152.271C636.096 152.95 636.182 153.49 636.355 153.891V154H635.029ZM632.931 153.036C633.327 153.036 633.703 152.934 634.059 152.729C634.414 152.523 634.672 152.257 634.831 151.929V150.411H633.84C632.29 150.411 631.516 150.865 631.516 151.771C631.516 152.168 631.648 152.478 631.912 152.701C632.176 152.924 632.516 153.036 632.931 153.036ZM639.452 154H638.188V143.5H639.452V154ZM645.789 152.038C645.789 151.696 645.659 151.432 645.399 151.245C645.144 151.054 644.695 150.89 644.053 150.753C643.415 150.616 642.907 150.452 642.528 150.261C642.155 150.069 641.877 149.841 641.694 149.577C641.517 149.313 641.428 148.998 641.428 148.634C641.428 148.028 641.683 147.515 642.193 147.096C642.708 146.676 643.365 146.467 644.162 146.467C645.001 146.467 645.68 146.683 646.199 147.116C646.723 147.549 646.985 148.103 646.985 148.777H645.714C645.714 148.431 645.566 148.132 645.27 147.882C644.978 147.631 644.609 147.506 644.162 147.506C643.702 147.506 643.342 147.606 643.082 147.807C642.822 148.007 642.692 148.269 642.692 148.593C642.692 148.898 642.813 149.128 643.055 149.283C643.296 149.438 643.731 149.586 644.36 149.728C644.994 149.869 645.507 150.037 645.898 150.233C646.29 150.429 646.58 150.666 646.767 150.944C646.958 151.218 647.054 151.553 647.054 151.949C647.054 152.61 646.789 153.141 646.261 153.542C645.732 153.938 645.046 154.137 644.203 154.137C643.611 154.137 643.087 154.032 642.631 153.822C642.175 153.613 641.817 153.321 641.558 152.947C641.302 152.569 641.175 152.161 641.175 151.724H642.439C642.462 152.147 642.631 152.485 642.945 152.735C643.264 152.981 643.684 153.104 644.203 153.104C644.682 153.104 645.064 153.009 645.352 152.817C645.643 152.621 645.789 152.362 645.789 152.038ZM651.771 154.137C650.768 154.137 649.952 153.809 649.323 153.152C648.694 152.492 648.38 151.61 648.38 150.507V150.274C648.38 149.541 648.519 148.887 648.797 148.312C649.079 147.734 649.471 147.283 649.973 146.959C650.479 146.631 651.025 146.467 651.613 146.467C652.575 146.467 653.322 146.784 653.855 147.417C654.389 148.05 654.655 148.957 654.655 150.138V150.664H649.645C649.663 151.393 649.875 151.983 650.28 152.435C650.69 152.881 651.21 153.104 651.839 153.104C652.285 153.104 652.664 153.013 652.974 152.831C653.284 152.649 653.555 152.407 653.787 152.106L654.56 152.708C653.94 153.66 653.01 154.137 651.771 154.137ZM651.613 147.506C651.103 147.506 650.674 147.693 650.328 148.066C649.982 148.436 649.768 148.955 649.686 149.625H653.391V149.529C653.354 148.887 653.181 148.39 652.871 148.039C652.561 147.684 652.142 147.506 651.613 147.506Z" fill="black"/>
<path d="M201.645 147.604H197.468V152H196.155V142.047H202.321V143.127H197.468V146.531H201.645V147.604ZM208.029 152C207.956 151.854 207.897 151.594 207.852 151.221C207.264 151.831 206.562 152.137 205.746 152.137C205.017 152.137 204.418 151.932 203.948 151.521C203.483 151.107 203.251 150.583 203.251 149.949C203.251 149.179 203.543 148.582 204.126 148.158C204.714 147.73 205.539 147.516 206.601 147.516H207.831V146.935C207.831 146.493 207.699 146.142 207.435 145.882C207.17 145.618 206.781 145.485 206.266 145.485C205.814 145.485 205.436 145.599 205.131 145.827C204.826 146.055 204.673 146.331 204.673 146.654H203.401C203.401 146.285 203.531 145.93 203.791 145.588C204.055 145.242 204.411 144.968 204.857 144.768C205.309 144.567 205.803 144.467 206.341 144.467C207.193 144.467 207.861 144.681 208.344 145.109C208.827 145.533 209.077 146.119 209.096 146.866V150.271C209.096 150.95 209.182 151.49 209.355 151.891V152H208.029ZM205.931 151.036C206.327 151.036 206.703 150.934 207.059 150.729C207.414 150.523 207.672 150.257 207.831 149.929V148.411H206.84C205.29 148.411 204.516 148.865 204.516 149.771C204.516 150.168 204.648 150.478 204.912 150.701C205.176 150.924 205.516 151.036 205.931 151.036ZM212.452 152H211.188V141.5H212.452V152ZM218.789 150.038C218.789 149.696 218.659 149.432 218.399 149.245C218.144 149.054 217.695 148.89 217.053 148.753C216.415 148.616 215.907 148.452 215.528 148.261C215.155 148.069 214.877 147.841 214.694 147.577C214.517 147.313 214.428 146.998 214.428 146.634C214.428 146.028 214.683 145.515 215.193 145.096C215.708 144.676 216.365 144.467 217.162 144.467C218.001 144.467 218.68 144.683 219.199 145.116C219.723 145.549 219.985 146.103 219.985 146.777H218.714C218.714 146.431 218.566 146.132 218.27 145.882C217.978 145.631 217.609 145.506 217.162 145.506C216.702 145.506 216.342 145.606 216.082 145.807C215.822 146.007 215.692 146.269 215.692 146.593C215.692 146.898 215.813 147.128 216.055 147.283C216.296 147.438 216.731 147.586 217.36 147.728C217.994 147.869 218.507 148.037 218.898 148.233C219.29 148.429 219.58 148.666 219.767 148.944C219.958 149.218 220.054 149.553 220.054 149.949C220.054 150.61 219.789 151.141 219.261 151.542C218.732 151.938 218.046 152.137 217.203 152.137C216.611 152.137 216.087 152.032 215.631 151.822C215.175 151.613 214.817 151.321 214.558 150.947C214.302 150.569 214.175 150.161 214.175 149.724H215.439C215.462 150.147 215.631 150.485 215.945 150.735C216.264 150.981 216.684 151.104 217.203 151.104C217.682 151.104 218.064 151.009 218.352 150.817C218.643 150.621 218.789 150.362 218.789 150.038ZM224.771 152.137C223.768 152.137 222.952 151.809 222.323 151.152C221.694 150.492 221.38 149.61 221.38 148.507V148.274C221.38 147.541 221.519 146.887 221.797 146.312C222.079 145.734 222.471 145.283 222.973 144.959C223.479 144.631 224.025 144.467 224.613 144.467C225.575 144.467 226.322 144.784 226.855 145.417C227.389 146.05 227.655 146.957 227.655 148.138V148.664H222.645C222.663 149.393 222.875 149.983 223.28 150.435C223.69 150.881 224.21 151.104 224.839 151.104C225.285 151.104 225.664 151.013 225.974 150.831C226.284 150.649 226.555 150.407 226.787 150.106L227.56 150.708C226.94 151.66 226.01 152.137 224.771 152.137ZM224.613 145.506C224.103 145.506 223.674 145.693 223.328 146.066C222.982 146.436 222.768 146.955 222.686 147.625H226.391V147.529C226.354 146.887 226.181 146.39 225.871 146.039C225.561 145.684 225.142 145.506 224.613 145.506Z" fill="black"/>
<path d="M75.6445 147.604H71.4678V152H70.1553V142.047H76.3213V143.127H71.4678V146.531H75.6445V147.604ZM82.0293 152C81.9564 151.854 81.8971 151.594 81.8516 151.221C81.2637 151.831 80.5618 152.137 79.7461 152.137C79.0169 152.137 78.4176 151.932 77.9482 151.521C77.4834 151.107 77.251 150.583 77.251 149.949C77.251 149.179 77.5426 148.582 78.126 148.158C78.7139 147.73 79.5387 147.516 80.6006 147.516H81.8311V146.935C81.8311 146.493 81.6989 146.142 81.4346 145.882C81.1702 145.618 80.7806 145.485 80.2656 145.485C79.8145 145.485 79.4362 145.599 79.1309 145.827C78.8255 146.055 78.6729 146.331 78.6729 146.654H77.4014C77.4014 146.285 77.5312 145.93 77.791 145.588C78.0553 145.242 78.4108 144.968 78.8574 144.768C79.3086 144.567 79.8031 144.467 80.3408 144.467C81.193 144.467 81.8607 144.681 82.3438 145.109C82.8268 145.533 83.0775 146.119 83.0957 146.866V150.271C83.0957 150.95 83.1823 151.49 83.3555 151.891V152H82.0293ZM79.9307 151.036C80.3271 151.036 80.7031 150.934 81.0586 150.729C81.4141 150.523 81.6715 150.257 81.8311 149.929V148.411H80.8398C79.2904 148.411 78.5156 148.865 78.5156 149.771C78.5156 150.168 78.6478 150.478 78.9121 150.701C79.1764 150.924 79.516 151.036 79.9307 151.036ZM86.4521 152H85.1875V141.5H86.4521V152ZM92.7891 150.038C92.7891 149.696 92.6592 149.432 92.3994 149.245C92.1442 149.054 91.6953 148.89 91.0527 148.753C90.4147 148.616 89.9066 148.452 89.5283 148.261C89.1546 148.069 88.8766 147.841 88.6943 147.577C88.5166 147.313 88.4277 146.998 88.4277 146.634C88.4277 146.028 88.6829 145.515 89.1934 145.096C89.7083 144.676 90.3646 144.467 91.1621 144.467C92.0007 144.467 92.6797 144.683 93.1992 145.116C93.7233 145.549 93.9854 146.103 93.9854 146.777H92.7139C92.7139 146.431 92.5658 146.132 92.2695 145.882C91.9779 145.631 91.6087 145.506 91.1621 145.506C90.7018 145.506 90.3418 145.606 90.082 145.807C89.8223 146.007 89.6924 146.269 89.6924 146.593C89.6924 146.898 89.8132 147.128 90.0547 147.283C90.2962 147.438 90.7314 147.586 91.3604 147.728C91.9938 147.869 92.5065 148.037 92.8984 148.233C93.2904 148.429 93.5798 148.666 93.7666 148.944C93.958 149.218 94.0537 149.553 94.0537 149.949C94.0537 150.61 93.7894 151.141 93.2607 151.542C92.7321 151.938 92.0462 152.137 91.2031 152.137C90.6107 152.137 90.0866 152.032 89.6309 151.822C89.1751 151.613 88.8174 151.321 88.5576 150.947C88.3024 150.569 88.1748 150.161 88.1748 149.724H89.4395C89.4622 150.147 89.6309 150.485 89.9453 150.735C90.2643 150.981 90.6836 151.104 91.2031 151.104C91.6816 151.104 92.0645 151.009 92.3516 150.817C92.6432 150.621 92.7891 150.362 92.7891 150.038ZM98.7705 152.137C97.7679 152.137 96.9521 151.809 96.3232 151.152C95.6943 150.492 95.3799 149.61 95.3799 148.507V148.274C95.3799 147.541 95.5189 146.887 95.7969 146.312C96.0794 145.734 96.4714 145.283 96.9727 144.959C97.4785 144.631 98.0254 144.467 98.6133 144.467C99.5749 144.467 100.322 144.784 100.855 145.417C101.389 146.05 101.655 146.957 101.655 148.138V148.664H96.6445C96.6628 149.393 96.8747 149.983 97.2803 150.435C97.6904 150.881 98.21 151.104 98.8389 151.104C99.2855 151.104 99.6637 151.013 99.9736 150.831C100.284 150.649 100.555 150.407 100.787 150.106L101.56 150.708C100.94 151.66 100.01 152.137 98.7705 152.137ZM98.6133 145.506C98.1029 145.506 97.6745 145.693 97.3281 146.066C96.9818 146.436 96.7676 146.955 96.6855 147.625H100.391V147.529C100.354 146.887 100.181 146.39 99.8711 146.039C99.5612 145.684 99.1419 145.506 98.6133 145.506Z" fill="black"/>
<path d="M76.8047 200H75.4854L70.4746 192.33V200H69.1553V190.047H70.4746L75.499 197.751V190.047H76.8047V200ZM83.5039 200C83.431 199.854 83.3717 199.594 83.3262 199.221C82.7383 199.831 82.0365 200.137 81.2207 200.137C80.4915 200.137 79.8923 199.932 79.4229 199.521C78.958 199.107 78.7256 198.583 78.7256 197.949C78.7256 197.179 79.0173 196.582 79.6006 196.158C80.1885 195.73 81.0133 195.516 82.0752 195.516H83.3057V194.935C83.3057 194.493 83.1735 194.142 82.9092 193.882C82.6449 193.618 82.2552 193.485 81.7402 193.485C81.2891 193.485 80.9108 193.599 80.6055 193.827C80.3001 194.055 80.1475 194.331 80.1475 194.654H78.876C78.876 194.285 79.0059 193.93 79.2656 193.588C79.5299 193.242 79.8854 192.968 80.332 192.768C80.7832 192.567 81.2777 192.467 81.8154 192.467C82.6676 192.467 83.3353 192.681 83.8184 193.109C84.3014 193.533 84.5521 194.119 84.5703 194.866V198.271C84.5703 198.95 84.6569 199.49 84.8301 199.891V200H83.5039ZM81.4053 199.036C81.8018 199.036 82.1777 198.934 82.5332 198.729C82.8887 198.523 83.1462 198.257 83.3057 197.929V196.411H82.3145C80.765 196.411 79.9902 196.865 79.9902 197.771C79.9902 198.168 80.1224 198.478 80.3867 198.701C80.651 198.924 80.9906 199.036 81.4053 199.036ZM94.4004 200H93.0811L88.0703 192.33V200H86.751V190.047H88.0703L93.0947 197.751V190.047H94.4004V200Z" fill="black"/>
<path d="M203.805 200H202.485L197.475 192.33V200H196.155V190.047H197.475L202.499 197.751V190.047H203.805V200ZM210.504 200C210.431 199.854 210.372 199.594 210.326 199.221C209.738 199.831 209.036 200.137 208.221 200.137C207.492 200.137 206.892 199.932 206.423 199.521C205.958 199.107 205.726 198.583 205.726 197.949C205.726 197.179 206.017 196.582 206.601 196.158C207.188 195.73 208.013 195.516 209.075 195.516H210.306V194.935C210.306 194.493 210.174 194.142 209.909 193.882C209.645 193.618 209.255 193.485 208.74 193.485C208.289 193.485 207.911 193.599 207.605 193.827C207.3 194.055 207.147 194.331 207.147 194.654H205.876C205.876 194.285 206.006 193.93 206.266 193.588C206.53 193.242 206.885 192.968 207.332 192.768C207.783 192.567 208.278 192.467 208.815 192.467C209.668 192.467 210.335 192.681 210.818 193.109C211.301 193.533 211.552 194.119 211.57 194.866V198.271C211.57 198.95 211.657 199.49 211.83 199.891V200H210.504ZM208.405 199.036C208.802 199.036 209.178 198.934 209.533 198.729C209.889 198.523 210.146 198.257 210.306 197.929V196.411H209.314C207.765 196.411 206.99 196.865 206.99 197.771C206.99 198.168 207.122 198.478 207.387 198.701C207.651 198.924 207.991 199.036 208.405 199.036ZM221.4 200H220.081L215.07 192.33V200H213.751V190.047H215.07L220.095 197.751V190.047H221.4V200Z" fill="black"/>
<path d="M337.805 200H336.485L331.475 192.33V200H330.155V190.047H331.475L336.499 197.751V190.047H337.805V200ZM344.504 200C344.431 199.854 344.372 199.594 344.326 199.221C343.738 199.831 343.036 200.137 342.221 200.137C341.492 200.137 340.892 199.932 340.423 199.521C339.958 199.107 339.726 198.583 339.726 197.949C339.726 197.179 340.017 196.582 340.601 196.158C341.188 195.73 342.013 195.516 343.075 195.516H344.306V194.935C344.306 194.493 344.174 194.142 343.909 193.882C343.645 193.618 343.255 193.485 342.74 193.485C342.289 193.485 341.911 193.599 341.605 193.827C341.3 194.055 341.147 194.331 341.147 194.654H339.876C339.876 194.285 340.006 193.93 340.266 193.588C340.53 193.242 340.885 192.968 341.332 192.768C341.783 192.567 342.278 192.467 342.815 192.467C343.668 192.467 344.335 192.681 344.818 193.109C345.301 193.533 345.552 194.119 345.57 194.866V198.271C345.57 198.95 345.657 199.49 345.83 199.891V200H344.504ZM342.405 199.036C342.802 199.036 343.178 198.934 343.533 198.729C343.889 198.523 344.146 198.257 344.306 197.929V196.411H343.314C341.765 196.411 340.99 196.865 340.99 197.771C340.99 198.168 341.122 198.478 341.387 198.701C341.651 198.924 341.991 199.036 342.405 199.036ZM355.4 200H354.081L349.07 192.33V200H347.751V190.047H349.07L354.095 197.751V190.047H355.4V200Z" fill="black"/>
<path d="M636.805 202H635.485L630.475 194.33V202H629.155V192.047H630.475L635.499 199.751V192.047H636.805V202ZM643.504 202C643.431 201.854 643.372 201.594 643.326 201.221C642.738 201.831 642.036 202.137 641.221 202.137C640.492 202.137 639.892 201.932 639.423 201.521C638.958 201.107 638.726 200.583 638.726 199.949C638.726 199.179 639.017 198.582 639.601 198.158C640.188 197.73 641.013 197.516 642.075 197.516H643.306V196.935C643.306 196.493 643.174 196.142 642.909 195.882C642.645 195.618 642.255 195.485 641.74 195.485C641.289 195.485 640.911 195.599 640.605 195.827C640.3 196.055 640.147 196.331 640.147 196.654H638.876C638.876 196.285 639.006 195.93 639.266 195.588C639.53 195.242 639.885 194.968 640.332 194.768C640.783 194.567 641.278 194.467 641.815 194.467C642.668 194.467 643.335 194.681 643.818 195.109C644.301 195.533 644.552 196.119 644.57 196.866V200.271C644.57 200.95 644.657 201.49 644.83 201.891V202H643.504ZM641.405 201.036C641.802 201.036 642.178 200.934 642.533 200.729C642.889 200.523 643.146 200.257 643.306 199.929V198.411H642.314C640.765 198.411 639.99 198.865 639.99 199.771C639.99 200.168 640.122 200.478 640.387 200.701C640.651 200.924 640.991 201.036 641.405 201.036ZM654.4 202H653.081L648.07 194.33V202H646.751V192.047H648.07L653.095 199.751V192.047H654.4V202Z" fill="black"/>
<path d="M200.645 44.6045H196.468V49H195.155V39.0469H201.321V40.127H196.468V43.5312H200.645V44.6045ZM207.029 49C206.956 48.8542 206.897 48.5944 206.852 48.2207C206.264 48.8314 205.562 49.1367 204.746 49.1367C204.017 49.1367 203.418 48.9316 202.948 48.5215C202.483 48.1068 202.251 47.5827 202.251 46.9492C202.251 46.179 202.543 45.582 203.126 45.1582C203.714 44.7298 204.539 44.5156 205.601 44.5156H206.831V43.9346C206.831 43.4925 206.699 43.1416 206.435 42.8818C206.17 42.6175 205.781 42.4854 205.266 42.4854C204.814 42.4854 204.436 42.5993 204.131 42.8271C203.826 43.055 203.673 43.3307 203.673 43.6543H202.401C202.401 43.2852 202.531 42.9297 202.791 42.5879C203.055 42.2415 203.411 41.9681 203.857 41.7676C204.309 41.5671 204.803 41.4668 205.341 41.4668C206.193 41.4668 206.861 41.681 207.344 42.1094C207.827 42.5332 208.077 43.1188 208.096 43.8662V47.2705C208.096 47.9495 208.182 48.4896 208.355 48.8906V49H207.029ZM204.931 48.0361C205.327 48.0361 205.703 47.9336 206.059 47.7285C206.414 47.5234 206.672 47.2568 206.831 46.9287V45.4111H205.84C204.29 45.4111 203.516 45.8646 203.516 46.7715C203.516 47.168 203.648 47.4779 203.912 47.7012C204.176 47.9245 204.516 48.0361 204.931 48.0361ZM211.452 49H210.188V38.5H211.452V49ZM217.789 47.0381C217.789 46.6963 217.659 46.432 217.399 46.2451C217.144 46.0537 216.695 45.8896 216.053 45.7529C215.415 45.6162 214.907 45.4521 214.528 45.2607C214.155 45.0693 213.877 44.8415 213.694 44.5771C213.517 44.3128 213.428 43.9984 213.428 43.6338C213.428 43.0277 213.683 42.515 214.193 42.0957C214.708 41.6764 215.365 41.4668 216.162 41.4668C217.001 41.4668 217.68 41.6833 218.199 42.1162C218.723 42.5492 218.985 43.1029 218.985 43.7773H217.714C217.714 43.431 217.566 43.1325 217.27 42.8818C216.978 42.6312 216.609 42.5059 216.162 42.5059C215.702 42.5059 215.342 42.6061 215.082 42.8066C214.822 43.0072 214.692 43.2692 214.692 43.5928C214.692 43.8981 214.813 44.1283 215.055 44.2832C215.296 44.4382 215.731 44.5863 216.36 44.7275C216.994 44.8688 217.507 45.0374 217.898 45.2334C218.29 45.4294 218.58 45.6663 218.767 45.9443C218.958 46.2178 219.054 46.5527 219.054 46.9492C219.054 47.61 218.789 48.141 218.261 48.542C217.732 48.9385 217.046 49.1367 216.203 49.1367C215.611 49.1367 215.087 49.0319 214.631 48.8223C214.175 48.6126 213.817 48.321 213.558 47.9473C213.302 47.569 213.175 47.1611 213.175 46.7236H214.439C214.462 47.1475 214.631 47.4847 214.945 47.7354C215.264 47.9814 215.684 48.1045 216.203 48.1045C216.682 48.1045 217.064 48.0088 217.352 47.8174C217.643 47.6214 217.789 47.3617 217.789 47.0381ZM223.771 49.1367C222.768 49.1367 221.952 48.8086 221.323 48.1523C220.694 47.4915 220.38 46.6097 220.38 45.5068V45.2744C220.38 44.5407 220.519 43.8867 220.797 43.3125C221.079 42.7337 221.471 42.2826 221.973 41.959C222.479 41.6309 223.025 41.4668 223.613 41.4668C224.575 41.4668 225.322 41.7835 225.855 42.417C226.389 43.0505 226.655 43.9574 226.655 45.1377V45.6641H221.645C221.663 46.3932 221.875 46.9834 222.28 47.4346C222.69 47.8812 223.21 48.1045 223.839 48.1045C224.285 48.1045 224.664 48.0133 224.974 47.8311C225.284 47.6488 225.555 47.4072 225.787 47.1064L226.56 47.708C225.94 48.6605 225.01 49.1367 223.771 49.1367ZM223.613 42.5059C223.103 42.5059 222.674 42.6927 222.328 43.0664C221.982 43.4355 221.768 43.9551 221.686 44.625H225.391V44.5293C225.354 43.8867 225.181 43.39 224.871 43.0391C224.561 42.6836 224.142 42.5059 223.613 42.5059Z" fill="black"/>
<path d="M339.032 39.127H335.833V48H334.527V39.127H331.335V38.0469H339.032V39.127ZM343.366 41.7383C343.175 41.7064 342.967 41.6904 342.744 41.6904C341.915 41.6904 341.352 42.0436 341.056 42.75V48H339.791V40.6035H341.021L341.042 41.458C341.457 40.7972 342.045 40.4668 342.806 40.4668C343.052 40.4668 343.239 40.4987 343.366 40.5625V41.7383ZM349.102 47.2686C348.609 47.8473 347.887 48.1367 346.935 48.1367C346.146 48.1367 345.545 47.9089 345.13 47.4531C344.72 46.9928 344.512 46.3138 344.508 45.416V40.6035H345.772V45.3818C345.772 46.5029 346.228 47.0635 347.14 47.0635C348.106 47.0635 348.748 46.7035 349.067 45.9834V40.6035H350.332V48H349.129L349.102 47.2686ZM355.329 48.1367C354.326 48.1367 353.511 47.8086 352.882 47.1523C352.253 46.4915 351.938 45.6097 351.938 44.5068V44.2744C351.938 43.5407 352.077 42.8867 352.355 42.3125C352.638 41.7337 353.03 41.2826 353.531 40.959C354.037 40.6309 354.584 40.4668 355.172 40.4668C356.133 40.4668 356.881 40.7835 357.414 41.417C357.947 42.0505 358.214 42.9574 358.214 44.1377V44.6641H353.203C353.221 45.3932 353.433 45.9834 353.839 46.4346C354.249 46.8812 354.769 47.1045 355.397 47.1045C355.844 47.1045 356.222 47.0133 356.532 46.8311C356.842 46.6488 357.113 46.4072 357.346 46.1064L358.118 46.708C357.498 47.6605 356.569 48.1367 355.329 48.1367ZM355.172 41.5059C354.661 41.5059 354.233 41.6927 353.887 42.0664C353.54 42.4355 353.326 42.9551 353.244 43.625H356.949V43.5293C356.913 42.8867 356.74 42.39 356.43 42.0391C356.12 41.6836 355.701 41.5059 355.172 41.5059Z" fill="black"/>
<path d="M633.032 39.127H629.833V48H628.527V39.127H625.335V38.0469H633.032V39.127ZM637.366 41.7383C637.175 41.7064 636.967 41.6904 636.744 41.6904C635.915 41.6904 635.352 42.0436 635.056 42.75V48H633.791V40.6035H635.021L635.042 41.458C635.457 40.7972 636.045 40.4668 636.806 40.4668C637.052 40.4668 637.239 40.4987 637.366 40.5625V41.7383ZM643.102 47.2686C642.609 47.8473 641.887 48.1367 640.935 48.1367C640.146 48.1367 639.545 47.9089 639.13 47.4531C638.72 46.9928 638.512 46.3138 638.508 45.416V40.6035H639.772V45.3818C639.772 46.5029 640.228 47.0635 641.14 47.0635C642.106 47.0635 642.748 46.7035 643.067 45.9834V40.6035H644.332V48H643.129L643.102 47.2686ZM649.329 48.1367C648.326 48.1367 647.511 47.8086 646.882 47.1523C646.253 46.4915 645.938 45.6097 645.938 44.5068V44.2744C645.938 43.5407 646.077 42.8867 646.355 42.3125C646.638 41.7337 647.03 41.2826 647.531 40.959C648.037 40.6309 648.584 40.4668 649.172 40.4668C650.133 40.4668 650.881 40.7835 651.414 41.417C651.947 42.0505 652.214 42.9574 652.214 44.1377V44.6641H647.203C647.221 45.3932 647.433 45.9834 647.839 46.4346C648.249 46.8812 648.769 47.1045 649.397 47.1045C649.844 47.1045 650.222 47.0133 650.532 46.8311C650.842 46.6488 651.113 46.4072 651.346 46.1064L652.118 46.708C651.498 47.6605 650.569 48.1367 649.329 48.1367ZM649.172 41.5059C648.661 41.5059 648.233 41.6927 647.887 42.0664C647.54 42.4355 647.326 42.9551 647.244 43.625H650.949V43.5293C650.913 42.8867 650.74 42.39 650.43 42.0391C650.12 41.6836 649.701 41.5059 649.172 41.5059Z" fill="black"/>
<path d="M633.032 90.127H629.833V99H628.527V90.127H625.335V89.0469H633.032V90.127ZM637.366 92.7383C637.175 92.7064 636.967 92.6904 636.744 92.6904C635.915 92.6904 635.352 93.0436 635.056 93.75V99H633.791V91.6035H635.021L635.042 92.458C635.457 91.7972 636.045 91.4668 636.806 91.4668C637.052 91.4668 637.239 91.4987 637.366 91.5625V92.7383ZM643.102 98.2686C642.609 98.8473 641.887 99.1367 640.935 99.1367C640.146 99.1367 639.545 98.9089 639.13 98.4531C638.72 97.9928 638.512 97.3138 638.508 96.416V91.6035H639.772V96.3818C639.772 97.5029 640.228 98.0635 641.14 98.0635C642.106 98.0635 642.748 97.7035 643.067 96.9834V91.6035H644.332V99H643.129L643.102 98.2686ZM649.329 99.1367C648.326 99.1367 647.511 98.8086 646.882 98.1523C646.253 97.4915 645.938 96.6097 645.938 95.5068V95.2744C645.938 94.5407 646.077 93.8867 646.355 93.3125C646.638 92.7337 647.03 92.2826 647.531 91.959C648.037 91.6309 648.584 91.4668 649.172 91.4668C650.133 91.4668 650.881 91.7835 651.414 92.417C651.947 93.0505 652.214 93.9574 652.214 95.1377V95.6641H647.203C647.221 96.3932 647.433 96.9834 647.839 97.4346C648.249 97.8812 648.769 98.1045 649.397 98.1045C649.844 98.1045 650.222 98.0133 650.532 97.8311C650.842 97.6488 651.113 97.4072 651.346 97.1064L652.118 97.708C651.498 98.6605 650.569 99.1367 649.329 99.1367ZM649.172 92.5059C648.661 92.5059 648.233 92.6927 647.887 93.0664C647.54 93.4355 647.326 93.9551 647.244 94.625H650.949V94.5293C650.913 93.8867 650.74 93.39 650.43 93.0391C650.12 92.6836 649.701 92.5059 649.172 92.5059Z" fill="black"/>
<path d="M533.354 120.354C533.549 120.158 533.549 119.842 533.354 119.646L530.172 116.464C529.976 116.269 529.66 116.269 529.464 116.464C529.269 116.66 529.269 116.976 529.464 117.172L532.293 120L529.464 122.828C529.269 123.024 529.269 123.34 529.464 123.536C529.66 123.731 529.976 123.731 530.172 123.536L533.354 120.354ZM433 120.5H533V119.5H433V120.5Z" fill="black"/>
</svg>
