<svg width="381" height="523" viewBox="0 0 381 523" fill="none" xmlns="http://www.w3.org/2000/svg">
<rect width="381" height="523" fill="white"/>
<rect x="148.779" y="46.1663" width="71.4347" height="61.5132" fill="#BDBDBD" stroke="black" stroke-width="0.992149"/>
<rect x="148.496" y="108.496" width="72.0079" height="45.0079" fill="#F0E442" stroke="black" stroke-width="0.992149"/>
<rect x="221.206" y="46.1663" width="71.4347" height="61.5132" fill="#BDBDBD" stroke="black" stroke-width="0.992149"/>
<rect x="221.496" y="108.496" width="71.0079" height="45.0079" fill="#F0E442" stroke="black" stroke-width="0.992149"/>
<path d="M255.982 136V127.536H258.75C259.668 127.536 260.358 127.726 260.819 128.105C261.284 128.485 261.517 129.047 261.517 129.791C261.517 130.187 261.404 130.537 261.18 130.844C260.955 131.146 260.649 131.38 260.261 131.547C260.718 131.675 261.079 131.919 261.342 132.279C261.61 132.636 261.744 133.062 261.744 133.558C261.744 134.318 261.497 134.915 261.005 135.349C260.513 135.783 259.817 136 258.918 136H255.982ZM257.099 132.041V135.087H258.941C259.461 135.087 259.87 134.954 260.168 134.686C260.47 134.415 260.622 134.043 260.622 133.57C260.622 132.551 260.067 132.041 258.959 132.041H257.099ZM257.099 131.146H258.785C259.273 131.146 259.662 131.024 259.953 130.78C260.248 130.535 260.395 130.204 260.395 129.786C260.395 129.32 260.259 128.983 259.988 128.774C259.717 128.561 259.304 128.454 258.75 128.454H257.099V131.146Z" fill="black"/>
<path d="M198.982 32V23.5357H201.372C202.108 23.5357 202.759 23.6985 203.325 24.0241C203.891 24.3496 204.327 24.8127 204.633 25.4134C204.943 26.0142 205.1 26.704 205.104 27.483V28.0237C205.104 28.822 204.949 29.5216 204.639 30.1223C204.333 30.723 203.893 31.1842 203.319 31.5059C202.75 31.8275 202.085 31.9922 201.325 32H198.982ZM200.099 24.4542V31.0873H201.273C202.133 31.0873 202.802 30.8199 203.279 30.2851C203.759 29.7502 203.999 28.9887 203.999 28.0004V27.5063C203.999 26.5451 203.773 25.7991 203.319 25.2681C202.87 24.7333 202.23 24.462 201.401 24.4542H200.099ZM207.156 32V26.5412H206.162V25.7099H207.156V25.0646C207.156 24.3903 207.336 23.869 207.697 23.5008C208.057 23.1327 208.567 22.9486 209.226 22.9486C209.474 22.9486 209.72 22.9815 209.964 23.0474L209.906 23.9194C209.724 23.8845 209.53 23.8671 209.324 23.8671C208.976 23.8671 208.706 23.9698 208.516 24.1752C208.326 24.3767 208.232 24.6674 208.232 25.0472V25.7099H209.574V26.5412H208.232V32H207.156ZM214.19 32H213.109V24.8321L210.941 25.6285V24.6519L214.022 23.495H214.19V32Z" fill="black"/>
<path d="M57.6564 223.791H54.1103L53.3138 226H52.1628L55.395 217.536H56.3717L59.6097 226H58.4645L57.6564 223.791ZM54.4474 222.872H57.3251L55.8833 218.913L54.4474 222.872ZM62.6908 222.006L64.086 219.71H65.3417L63.2838 222.82L65.4056 226H64.1616L62.7082 223.646L61.2549 226H60.005L62.1269 222.82L60.069 219.71H61.313L62.6908 222.006ZM67.6554 226H66.5799V219.71H67.6554V226ZM66.4927 218.041C66.4927 217.867 66.5451 217.72 66.6497 217.6C66.7582 217.48 66.9171 217.419 67.1264 217.419C67.3357 217.419 67.4946 217.48 67.6031 217.6C67.7116 217.72 67.7659 217.867 67.7659 218.041C67.7659 218.216 67.7116 218.361 67.6031 218.477C67.4946 218.594 67.3357 218.652 67.1264 218.652C66.9171 218.652 66.7582 218.594 66.6497 218.477C66.5451 218.361 66.4927 218.216 66.4927 218.041ZM73.0444 224.332C73.0444 224.041 72.934 223.816 72.7131 223.657C72.496 223.494 72.1143 223.355 71.5678 223.239C71.0252 223.122 70.5931 222.983 70.2714 222.82C69.9536 222.657 69.7172 222.464 69.5622 222.239C69.4111 222.014 69.3355 221.747 69.3355 221.437C69.3355 220.921 69.5525 220.485 69.9866 220.128C70.4245 219.772 70.9826 219.594 71.6608 219.594C72.3739 219.594 72.9514 219.778 73.3932 220.146C73.8389 220.514 74.0618 220.985 74.0618 221.559H72.9805C72.9805 221.264 72.8545 221.01 72.6026 220.797C72.3546 220.584 72.0406 220.477 71.6608 220.477C71.2694 220.477 70.9632 220.563 70.7423 220.733C70.5214 220.904 70.411 221.126 70.411 221.402C70.411 221.661 70.5137 221.857 70.7191 221.989C70.9245 222.121 71.2946 222.246 71.8294 222.367C72.3681 222.487 72.8041 222.63 73.1374 222.797C73.4707 222.963 73.7168 223.165 73.8757 223.401C74.0385 223.634 74.1199 223.919 74.1199 224.256C74.1199 224.818 73.8951 225.269 73.4455 225.611C72.996 225.948 72.4127 226.116 71.6957 226.116C71.1919 226.116 70.7462 226.027 70.3586 225.849C69.9711 225.671 69.6668 225.423 69.4459 225.105C69.2289 224.783 69.1204 224.436 69.1204 224.064H70.1959C70.2152 224.425 70.3586 224.711 70.6261 224.925C70.8973 225.134 71.2539 225.238 71.6957 225.238C72.1026 225.238 72.4282 225.157 72.6724 224.994C72.9204 224.828 73.0444 224.607 73.0444 224.332ZM83.3922 221.268H78.5439V220.332H83.3922V221.268ZM83.3922 223.68H78.5439V222.75H83.3922V223.68ZM93.1587 222.39C93.1587 223.649 92.9436 224.585 92.5134 225.198C92.0832 225.81 91.4108 226.116 90.4962 226.116C89.5932 226.116 88.9246 225.818 88.4905 225.221C88.0565 224.62 87.8317 223.725 87.8162 222.535V221.099C87.8162 219.855 88.0313 218.931 88.4615 218.326C88.8917 217.722 89.566 217.419 90.4845 217.419C91.3953 217.419 92.0658 217.712 92.496 218.297C92.9262 218.879 93.1471 219.778 93.1587 220.995V222.39ZM92.0832 220.919C92.0832 220.008 91.9553 219.346 91.6995 218.931C91.4437 218.512 91.0387 218.303 90.4845 218.303C89.9342 218.303 89.5331 218.51 89.2812 218.925C89.0293 219.34 88.8994 219.977 88.8917 220.838V222.558C88.8917 223.473 89.0234 224.149 89.287 224.587C89.5544 225.021 89.9575 225.238 90.4962 225.238C91.0271 225.238 91.4205 225.033 91.6763 224.622C91.9359 224.211 92.0716 223.564 92.0832 222.681V220.919Z" fill="black"/>
<path d="M164.266 77.293C164.16 78.1953 163.826 78.8926 163.264 79.3848C162.705 79.873 161.961 80.1172 161.031 80.1172C160.023 80.1172 159.215 79.7559 158.605 79.0332C158 78.3105 157.697 77.3438 157.697 76.1328V75.3125C157.697 74.5195 157.838 73.8223 158.119 73.2207C158.404 72.6191 158.807 72.1582 159.326 71.8379C159.846 71.5137 160.447 71.3516 161.131 71.3516C162.037 71.3516 162.764 71.6055 163.311 72.1133C163.857 72.6172 164.176 73.3164 164.266 74.2109H163.135C163.037 73.5312 162.824 73.0391 162.496 72.7344C162.172 72.4297 161.717 72.2773 161.131 72.2773C160.412 72.2773 159.848 72.543 159.438 73.0742C159.031 73.6055 158.828 74.3613 158.828 75.3418V76.168C158.828 77.0938 159.021 77.8301 159.408 78.377C159.795 78.9238 160.336 79.1973 161.031 79.1973C161.656 79.1973 162.135 79.0566 162.467 78.7754C162.803 78.4902 163.025 77.9961 163.135 77.293H164.266ZM165.35 76.7715C165.35 76.1504 165.471 75.5918 165.713 75.0957C165.959 74.5996 166.299 74.2168 166.732 73.9473C167.17 73.6777 167.668 73.543 168.227 73.543C169.09 73.543 169.787 73.8418 170.318 74.4395C170.854 75.0371 171.121 75.832 171.121 76.8242V76.9004C171.121 77.5176 171.002 78.0723 170.764 78.5645C170.529 79.0527 170.191 79.4336 169.75 79.707C169.312 79.9805 168.809 80.1172 168.238 80.1172C167.379 80.1172 166.682 79.8184 166.146 79.2207C165.615 78.623 165.35 77.832 165.35 76.8477V76.7715ZM166.439 76.9004C166.439 77.6035 166.602 78.168 166.926 78.5938C167.254 79.0195 167.691 79.2324 168.238 79.2324C168.789 79.2324 169.227 79.0176 169.551 78.5879C169.875 78.1543 170.037 77.5488 170.037 76.7715C170.037 76.0762 169.871 75.5137 169.539 75.084C169.211 74.6504 168.773 74.4336 168.227 74.4336C167.691 74.4336 167.26 74.6465 166.932 75.0723C166.604 75.498 166.439 76.1074 166.439 76.9004ZM173.658 80H172.574V71H173.658V80ZM179.312 79.373C178.891 79.8691 178.271 80.1172 177.455 80.1172C176.779 80.1172 176.264 79.9219 175.908 79.5312C175.557 79.1367 175.379 78.5547 175.375 77.7852V73.6602H176.459V77.7559C176.459 78.7168 176.85 79.1973 177.631 79.1973C178.459 79.1973 179.01 78.8887 179.283 78.2715V73.6602H180.367V80H179.336L179.312 79.373ZM183.039 73.6602L183.068 74.3633C183.533 73.8164 184.16 73.543 184.949 73.543C185.836 73.543 186.439 73.8828 186.76 74.5625C186.971 74.2578 187.244 74.0117 187.58 73.8242C187.92 73.6367 188.32 73.543 188.781 73.543C190.172 73.543 190.879 74.2793 190.902 75.752V80H189.818V75.8164C189.818 75.3633 189.715 75.0254 189.508 74.8027C189.301 74.5762 188.953 74.4629 188.465 74.4629C188.062 74.4629 187.729 74.584 187.463 74.8262C187.197 75.0645 187.043 75.3867 187 75.793V80H185.91V75.8457C185.91 74.9238 185.459 74.4629 184.557 74.4629C183.846 74.4629 183.359 74.7656 183.098 75.3711V80H182.014V73.6602H183.039ZM193.568 73.6602L193.604 74.457C194.088 73.8477 194.721 73.543 195.502 73.543C196.842 73.543 197.518 74.2988 197.529 75.8105V80H196.445V75.8047C196.441 75.3477 196.336 75.0098 196.129 74.791C195.926 74.5723 195.607 74.4629 195.174 74.4629C194.822 74.4629 194.514 74.5566 194.248 74.7441C193.982 74.9316 193.775 75.1777 193.627 75.4824V80H192.543V73.6602H193.568ZM205.592 80H204.502V72.7754L202.316 73.5781V72.5938L205.422 71.4277H205.592V80Z" fill="black"/>
<path d="M186.656 133.791H183.11L182.314 136H181.163L184.395 127.536H185.372L188.61 136H187.464L186.656 133.791ZM183.447 132.872H186.325L184.883 128.913L183.447 132.872Z" fill="black"/>
<path d="M239.266 77.293C239.16 78.1953 238.826 78.8926 238.264 79.3848C237.705 79.873 236.961 80.1172 236.031 80.1172C235.023 80.1172 234.215 79.7559 233.605 79.0332C233 78.3105 232.697 77.3438 232.697 76.1328V75.3125C232.697 74.5195 232.838 73.8223 233.119 73.2207C233.404 72.6191 233.807 72.1582 234.326 71.8379C234.846 71.5137 235.447 71.3516 236.131 71.3516C237.037 71.3516 237.764 71.6055 238.311 72.1133C238.857 72.6172 239.176 73.3164 239.266 74.2109H238.135C238.037 73.5312 237.824 73.0391 237.496 72.7344C237.172 72.4297 236.717 72.2773 236.131 72.2773C235.412 72.2773 234.848 72.543 234.438 73.0742C234.031 73.6055 233.828 74.3613 233.828 75.3418V76.168C233.828 77.0938 234.021 77.8301 234.408 78.377C234.795 78.9238 235.336 79.1973 236.031 79.1973C236.656 79.1973 237.135 79.0566 237.467 78.7754C237.803 78.4902 238.025 77.9961 238.135 77.293H239.266ZM240.35 76.7715C240.35 76.1504 240.471 75.5918 240.713 75.0957C240.959 74.5996 241.299 74.2168 241.732 73.9473C242.17 73.6777 242.668 73.543 243.227 73.543C244.09 73.543 244.787 73.8418 245.318 74.4395C245.854 75.0371 246.121 75.832 246.121 76.8242V76.9004C246.121 77.5176 246.002 78.0723 245.764 78.5645C245.529 79.0527 245.191 79.4336 244.75 79.707C244.312 79.9805 243.809 80.1172 243.238 80.1172C242.379 80.1172 241.682 79.8184 241.146 79.2207C240.615 78.623 240.35 77.832 240.35 76.8477V76.7715ZM241.439 76.9004C241.439 77.6035 241.602 78.168 241.926 78.5938C242.254 79.0195 242.691 79.2324 243.238 79.2324C243.789 79.2324 244.227 79.0176 244.551 78.5879C244.875 78.1543 245.037 77.5488 245.037 76.7715C245.037 76.0762 244.871 75.5137 244.539 75.084C244.211 74.6504 243.773 74.4336 243.227 74.4336C242.691 74.4336 242.26 74.6465 241.932 75.0723C241.604 75.498 241.439 76.1074 241.439 76.9004ZM248.658 80H247.574V71H248.658V80ZM254.312 79.373C253.891 79.8691 253.271 80.1172 252.455 80.1172C251.779 80.1172 251.264 79.9219 250.908 79.5312C250.557 79.1367 250.379 78.5547 250.375 77.7852V73.6602H251.459V77.7559C251.459 78.7168 251.85 79.1973 252.631 79.1973C253.459 79.1973 254.01 78.8887 254.283 78.2715V73.6602H255.367V80H254.336L254.312 79.373ZM258.039 73.6602L258.068 74.3633C258.533 73.8164 259.16 73.543 259.949 73.543C260.836 73.543 261.439 73.8828 261.76 74.5625C261.971 74.2578 262.244 74.0117 262.58 73.8242C262.92 73.6367 263.32 73.543 263.781 73.543C265.172 73.543 265.879 74.2793 265.902 75.752V80H264.818V75.8164C264.818 75.3633 264.715 75.0254 264.508 74.8027C264.301 74.5762 263.953 74.4629 263.465 74.4629C263.062 74.4629 262.729 74.584 262.463 74.8262C262.197 75.0645 262.043 75.3867 262 75.793V80H260.91V75.8457C260.91 74.9238 260.459 74.4629 259.557 74.4629C258.846 74.4629 258.359 74.7656 258.098 75.3711V80H257.014V73.6602H258.039ZM268.568 73.6602L268.604 74.457C269.088 73.8477 269.721 73.543 270.502 73.543C271.842 73.543 272.518 74.2988 272.529 75.8105V80H271.445V75.8047C271.441 75.3477 271.336 75.0098 271.129 74.791C270.926 74.5723 270.607 74.4629 270.174 74.4629C269.822 74.4629 269.514 74.5566 269.248 74.7441C268.982 74.9316 268.775 75.1777 268.627 75.4824V80H267.543V73.6602H268.568ZM282.619 80H277.029V79.2207L279.982 75.9395C280.42 75.4434 280.721 75.041 280.885 74.7324C281.053 74.4199 281.137 74.0977 281.137 73.7656C281.137 73.3203 281.002 72.9551 280.732 72.6699C280.463 72.3848 280.104 72.2422 279.654 72.2422C279.115 72.2422 278.695 72.3965 278.395 72.7051C278.098 73.0098 277.949 73.4355 277.949 73.9824H276.865C276.865 73.1973 277.117 72.5625 277.621 72.0781C278.129 71.5938 278.807 71.3516 279.654 71.3516C280.447 71.3516 281.074 71.5605 281.535 71.9785C281.996 72.3926 282.227 72.9453 282.227 73.6367C282.227 74.4766 281.691 75.4766 280.621 76.6367L278.336 79.1152H282.619V80Z" fill="black"/>
<rect x="115.496" y="108.496" width="32.0079" height="45.0079" fill="#C4C4C4" stroke="black" stroke-width="0.992149"/>
<path d="M136.011 132.39C136.011 133.649 135.796 134.585 135.366 135.198C134.936 135.81 134.263 136.116 133.349 136.116C132.445 136.116 131.777 135.818 131.343 135.221C130.909 134.62 130.684 133.725 130.669 132.535V131.099C130.669 129.855 130.884 128.931 131.314 128.326C131.744 127.722 132.418 127.419 133.337 127.419C134.248 127.419 134.918 127.712 135.348 128.297C135.778 128.879 135.999 129.778 136.011 130.995V132.39ZM134.936 130.919C134.936 130.008 134.808 129.346 134.552 128.931C134.296 128.512 133.891 128.303 133.337 128.303C132.787 128.303 132.385 128.51 132.134 128.925C131.882 129.34 131.752 129.977 131.744 130.838V132.558C131.744 133.473 131.876 134.149 132.139 134.587C132.407 135.021 132.81 135.238 133.349 135.238C133.879 135.238 134.273 135.033 134.529 134.622C134.788 134.211 134.924 133.564 134.936 132.681V130.919Z" fill="black"/>
<path d="M83.6492 196.746C83.843 196.94 84.157 196.94 84.3508 196.746L87.5078 193.589C87.7015 193.396 87.7015 193.081 87.5078 192.888C87.314 192.694 87 192.694 86.8062 192.888L84 195.694L81.1938 192.888C81 192.694 80.686 192.694 80.4922 192.888C80.2985 193.081 80.2985 193.396 80.4922 193.589L83.6492 196.746ZM83.5039 120V196.395H84.4961V120H83.5039Z" fill="black"/>
<rect x="115.046" y="46.1663" width="32.7409" height="61.5132" fill="#C4C4C4" stroke="black" stroke-width="0.992149"/>
<rect width="224" height="148" transform="translate(95 166)" fill="white"/>
<rect x="150.496" y="191.496" width="71.4347" height="61.5132" fill="#BDBDBD" stroke="black" stroke-width="0.992149"/>
<path d="M165.209 224.314C165.104 225.209 164.773 225.901 164.214 226.39C163.66 226.874 162.922 227.116 162 227.116C161 227.116 160.197 226.758 159.593 226.041C158.992 225.324 158.692 224.365 158.692 223.163V222.349C158.692 221.563 158.831 220.871 159.11 220.274C159.393 219.677 159.792 219.22 160.308 218.902C160.823 218.58 161.42 218.419 162.098 218.419C162.998 218.419 163.718 218.671 164.261 219.175C164.804 219.675 165.119 220.369 165.209 221.256H164.087C163.99 220.582 163.778 220.094 163.453 219.791C163.131 219.489 162.68 219.338 162.098 219.338C161.385 219.338 160.825 219.602 160.418 220.129C160.015 220.656 159.814 221.406 159.814 222.378V223.198C159.814 224.117 160.006 224.847 160.389 225.39C160.773 225.932 161.31 226.204 162 226.204C162.62 226.204 163.094 226.064 163.424 225.785C163.757 225.502 163.978 225.012 164.087 224.314H165.209ZM166.284 223.797C166.284 223.181 166.404 222.626 166.644 222.134C166.889 221.642 167.226 221.262 167.656 220.995C168.09 220.727 168.584 220.594 169.138 220.594C169.995 220.594 170.687 220.89 171.214 221.483C171.745 222.076 172.01 222.865 172.01 223.849V223.925C172.01 224.537 171.892 225.087 171.656 225.576C171.423 226.06 171.088 226.438 170.65 226.709C170.216 226.981 169.716 227.116 169.15 227.116C168.297 227.116 167.606 226.82 167.075 226.227C166.548 225.634 166.284 224.849 166.284 223.872V223.797ZM167.365 223.925C167.365 224.622 167.526 225.182 167.848 225.605C168.173 226.027 168.607 226.238 169.15 226.238C169.697 226.238 170.131 226.025 170.452 225.599C170.774 225.169 170.935 224.568 170.935 223.797C170.935 223.107 170.77 222.549 170.441 222.123C170.115 221.692 169.681 221.477 169.138 221.477C168.607 221.477 168.179 221.689 167.854 222.111C167.528 222.533 167.365 223.138 167.365 223.925ZM174.527 227H173.452V218.071H174.527V227ZM180.137 226.378C179.719 226.87 179.104 227.116 178.294 227.116C177.624 227.116 177.112 226.922 176.76 226.535C176.411 226.143 176.235 225.566 176.231 224.803V220.71H177.306V224.773C177.306 225.727 177.694 226.204 178.469 226.204C179.291 226.204 179.837 225.897 180.108 225.285V220.71H181.184V227H180.161L180.137 226.378ZM183.835 220.71L183.864 221.408C184.325 220.865 184.947 220.594 185.73 220.594C186.61 220.594 187.208 220.931 187.526 221.605C187.735 221.303 188.007 221.059 188.34 220.873C188.677 220.687 189.074 220.594 189.532 220.594C190.911 220.594 191.613 221.324 191.636 222.785V227H190.561V222.849C190.561 222.4 190.458 222.064 190.253 221.844C190.047 221.619 189.702 221.506 189.218 221.506C188.819 221.506 188.487 221.627 188.224 221.867C187.96 222.103 187.807 222.423 187.764 222.826V227H186.683V222.878C186.683 221.964 186.236 221.506 185.34 221.506C184.635 221.506 184.152 221.807 183.893 222.407V227H182.817V220.71H183.835ZM194.281 220.71L194.316 221.501C194.797 220.896 195.425 220.594 196.2 220.594C197.529 220.594 198.199 221.344 198.211 222.843V227H197.136V222.838C197.132 222.384 197.027 222.049 196.822 221.832C196.62 221.615 196.304 221.506 195.874 221.506C195.525 221.506 195.219 221.599 194.956 221.785C194.692 221.971 194.487 222.216 194.339 222.518V227H193.264V220.71H194.281ZM206.21 227H205.129V219.832L202.961 220.629V219.652L206.042 218.495H206.21V227Z" fill="black"/>
<rect x="222.496" y="191.496" width="71.4347" height="61.5132" fill="#BDBDBD" stroke="black" stroke-width="0.992149"/>
<path d="M238.209 224.314C238.104 225.209 237.773 225.901 237.214 226.39C236.66 226.874 235.922 227.116 235 227.116C234 227.116 233.197 226.758 232.593 226.041C231.992 225.324 231.692 224.365 231.692 223.163V222.349C231.692 221.563 231.831 220.871 232.11 220.274C232.393 219.677 232.792 219.22 233.308 218.902C233.823 218.58 234.42 218.419 235.098 218.419C235.998 218.419 236.718 218.671 237.261 219.175C237.804 219.675 238.119 220.369 238.209 221.256H237.087C236.99 220.582 236.778 220.094 236.453 219.791C236.131 219.489 235.68 219.338 235.098 219.338C234.385 219.338 233.825 219.602 233.418 220.129C233.015 220.656 232.814 221.406 232.814 222.378V223.198C232.814 224.117 233.006 224.847 233.389 225.39C233.773 225.932 234.31 226.204 235 226.204C235.62 226.204 236.094 226.064 236.424 225.785C236.757 225.502 236.978 225.012 237.087 224.314H238.209ZM239.284 223.797C239.284 223.181 239.404 222.626 239.644 222.134C239.889 221.642 240.226 221.262 240.656 220.995C241.09 220.727 241.584 220.594 242.138 220.594C242.995 220.594 243.687 220.89 244.214 221.483C244.745 222.076 245.01 222.865 245.01 223.849V223.925C245.01 224.537 244.892 225.087 244.656 225.576C244.423 226.06 244.088 226.438 243.65 226.709C243.216 226.981 242.716 227.116 242.15 227.116C241.297 227.116 240.606 226.82 240.075 226.227C239.548 225.634 239.284 224.849 239.284 223.872V223.797ZM240.365 223.925C240.365 224.622 240.526 225.182 240.848 225.605C241.173 226.027 241.607 226.238 242.15 226.238C242.697 226.238 243.131 226.025 243.452 225.599C243.774 225.169 243.935 224.568 243.935 223.797C243.935 223.107 243.77 222.549 243.441 222.123C243.115 221.692 242.681 221.477 242.138 221.477C241.607 221.477 241.179 221.689 240.854 222.111C240.528 222.533 240.365 223.138 240.365 223.925ZM247.527 227H246.452V218.071H247.527V227ZM253.137 226.378C252.719 226.87 252.104 227.116 251.294 227.116C250.624 227.116 250.112 226.922 249.76 226.535C249.411 226.143 249.235 225.566 249.231 224.803V220.71H250.306V224.773C250.306 225.727 250.694 226.204 251.469 226.204C252.291 226.204 252.837 225.897 253.108 225.285V220.71H254.184V227H253.161L253.137 226.378ZM256.835 220.71L256.864 221.408C257.325 220.865 257.947 220.594 258.73 220.594C259.61 220.594 260.208 220.931 260.526 221.605C260.735 221.303 261.007 221.059 261.34 220.873C261.677 220.687 262.074 220.594 262.532 220.594C263.911 220.594 264.613 221.324 264.636 222.785V227H263.561V222.849C263.561 222.4 263.458 222.064 263.253 221.844C263.047 221.619 262.702 221.506 262.218 221.506C261.819 221.506 261.487 221.627 261.224 221.867C260.96 222.103 260.807 222.423 260.764 222.826V227H259.683V222.878C259.683 221.964 259.236 221.506 258.34 221.506C257.635 221.506 257.152 221.807 256.893 222.407V227H255.817V220.71H256.835ZM267.281 220.71L267.316 221.501C267.797 220.896 268.425 220.594 269.2 220.594C270.529 220.594 271.199 221.344 271.211 222.843V227H270.136V222.838C270.132 222.384 270.027 222.049 269.822 221.832C269.62 221.615 269.304 221.506 268.874 221.506C268.525 221.506 268.219 221.599 267.956 221.785C267.692 221.971 267.487 222.216 267.339 222.518V227H266.264V220.71H267.281ZM281.222 227H275.676V226.227L278.606 222.971C279.04 222.479 279.338 222.08 279.501 221.774C279.668 221.464 279.751 221.144 279.751 220.815C279.751 220.373 279.617 220.01 279.35 219.727C279.082 219.445 278.726 219.303 278.28 219.303C277.745 219.303 277.329 219.456 277.03 219.762C276.736 220.065 276.588 220.487 276.588 221.03H275.513C275.513 220.251 275.763 219.621 276.263 219.14C276.767 218.66 277.439 218.419 278.28 218.419C279.067 218.419 279.689 218.627 280.146 219.041C280.604 219.452 280.832 220.001 280.832 220.687C280.832 221.52 280.301 222.512 279.239 223.663L276.972 226.122H281.222V227Z" fill="black"/>
<rect x="150.496" y="253.496" width="71.0079" height="44.0079" fill="#56CCF2" stroke="black" stroke-width="0.992149"/>
<rect x="222.496" y="253.496" width="71.0079" height="44.0079" fill="#56CCF2" stroke="black" stroke-width="0.992149"/>
<path d="M255.982 279V270.536H258.372C259.108 270.536 259.759 270.699 260.325 271.024C260.891 271.35 261.327 271.813 261.633 272.413C261.943 273.014 262.1 273.704 262.104 274.483V275.024C262.104 275.822 261.949 276.522 261.639 277.122C261.333 277.723 260.893 278.184 260.319 278.506C259.75 278.828 259.085 278.992 258.325 279H255.982ZM257.099 271.454V278.087H258.273C259.133 278.087 259.802 277.82 260.279 277.285C260.759 276.75 260.999 275.989 260.999 275V274.506C260.999 273.545 260.773 272.799 260.319 272.268C259.87 271.733 259.23 271.462 258.401 271.454H257.099Z" fill="black"/>
<path d="M189.209 276.314C189.104 277.209 188.773 277.901 188.214 278.39C187.66 278.874 186.922 279.116 186 279.116C185 279.116 184.197 278.758 183.593 278.041C182.992 277.324 182.692 276.365 182.692 275.163V274.349C182.692 273.563 182.831 272.871 183.11 272.274C183.393 271.677 183.792 271.22 184.308 270.902C184.823 270.58 185.42 270.419 186.098 270.419C186.998 270.419 187.718 270.671 188.261 271.175C188.804 271.675 189.119 272.369 189.209 273.256H188.087C187.99 272.582 187.778 272.094 187.453 271.791C187.131 271.489 186.68 271.338 186.098 271.338C185.385 271.338 184.825 271.602 184.418 272.129C184.015 272.656 183.814 273.406 183.814 274.378V275.198C183.814 276.117 184.006 276.847 184.389 277.39C184.773 277.932 185.31 278.204 186 278.204C186.62 278.204 187.094 278.064 187.424 277.785C187.757 277.502 187.978 277.012 188.087 276.314H189.209Z" fill="black"/>
<path d="M197.982 178V169.536H200.372C201.108 169.536 201.759 169.699 202.325 170.024C202.891 170.35 203.327 170.813 203.633 171.413C203.943 172.014 204.1 172.704 204.104 173.483V174.024C204.104 174.822 203.949 175.522 203.639 176.122C203.333 176.723 202.893 177.184 202.319 177.506C201.75 177.828 201.085 177.992 200.325 178H197.982ZM199.099 170.454V177.087H200.273C201.133 177.087 201.802 176.82 202.279 176.285C202.759 175.75 202.999 174.989 202.999 174V173.506C202.999 172.545 202.773 171.799 202.319 171.268C201.87 170.733 201.23 170.462 200.401 170.454H199.099ZM206.156 178V172.541H205.162V171.71H206.156V171.065C206.156 170.39 206.336 169.869 206.697 169.501C207.057 169.133 207.567 168.949 208.226 168.949C208.474 168.949 208.72 168.982 208.964 169.047L208.906 169.919C208.724 169.885 208.53 169.867 208.324 169.867C207.976 169.867 207.706 169.97 207.516 170.175C207.326 170.377 207.232 170.667 207.232 171.047V171.71H208.574V172.541H207.232V178H206.156ZM215.202 178H209.656V177.227L212.586 173.971C213.02 173.479 213.318 173.08 213.481 172.774C213.648 172.464 213.731 172.144 213.731 171.815C213.731 171.373 213.597 171.01 213.33 170.727C213.062 170.445 212.706 170.303 212.26 170.303C211.725 170.303 211.309 170.456 211.01 170.762C210.716 171.065 210.568 171.487 210.568 172.03H209.493C209.493 171.251 209.743 170.621 210.243 170.14C210.747 169.66 211.419 169.419 212.26 169.419C213.047 169.419 213.669 169.627 214.126 170.041C214.584 170.452 214.812 171.001 214.812 171.687C214.812 172.52 214.281 173.512 213.219 174.663L210.952 177.122H215.202V178Z" fill="black"/>
<rect x="116.496" y="252.496" width="33.0079" height="45.0079" fill="#C4C4C4" stroke="black" stroke-width="0.992149"/>
<path d="M137.011 275.39C137.011 276.649 136.796 277.585 136.366 278.198C135.936 278.81 135.263 279.116 134.349 279.116C133.445 279.116 132.777 278.818 132.343 278.221C131.909 277.62 131.684 276.725 131.669 275.535V274.099C131.669 272.855 131.884 271.931 132.314 271.326C132.744 270.722 133.418 270.419 134.337 270.419C135.248 270.419 135.918 270.712 136.348 271.297C136.778 271.879 136.999 272.778 137.011 273.995V275.39ZM135.936 273.919C135.936 273.008 135.808 272.346 135.552 271.931C135.296 271.512 134.891 271.303 134.337 271.303C133.787 271.303 133.385 271.51 133.134 271.925C132.882 272.34 132.752 272.977 132.744 273.838V275.558C132.744 276.473 132.876 277.149 133.139 277.587C133.407 278.021 133.81 278.238 134.349 278.238C134.879 278.238 135.273 278.033 135.529 277.622C135.788 277.211 135.924 276.564 135.936 275.681V273.919Z" fill="black"/>
<rect x="116.496" y="191.496" width="32.7409" height="61.5132" fill="#C4C4C4" stroke="black" stroke-width="0.992149"/>
<rect width="221" height="217" transform="translate(100 306)" fill="white"/>
<rect x="151.496" y="449.496" width="71.0079" height="46.0079" fill="#56CCF2" stroke="black" stroke-width="0.992149"/>
<rect x="223.496" y="450.496" width="71.0079" height="45.0079" fill="#56CCF2" stroke="black" stroke-width="0.992149"/>
<rect x="151.496" y="343.496" width="71.4347" height="61.5132" fill="#BDBDBD" stroke="black" stroke-width="0.992149"/>
<rect x="223.496" y="343.496" width="71.4347" height="61.5132" fill="#BDBDBD" stroke="black" stroke-width="0.992149"/>
<rect x="223.496" y="405.496" width="71.0079" height="44.0079" fill="#F0E442" stroke="black" stroke-width="0.992149"/>
<path d="M254.982 432V423.536H257.75C258.668 423.536 259.358 423.726 259.819 424.105C260.284 424.485 260.517 425.047 260.517 425.791C260.517 426.187 260.404 426.537 260.18 426.844C259.955 427.146 259.649 427.38 259.261 427.547C259.718 427.675 260.079 427.919 260.342 428.279C260.61 428.636 260.744 429.062 260.744 429.558C260.744 430.318 260.497 430.915 260.005 431.349C259.513 431.783 258.817 432 257.918 432H254.982ZM256.099 428.041V431.087H257.941C258.461 431.087 258.87 430.954 259.168 430.686C259.47 430.415 259.622 430.043 259.622 429.57C259.622 428.551 259.067 428.041 257.959 428.041H256.099ZM256.099 427.146H257.785C258.273 427.146 258.662 427.024 258.953 426.78C259.248 426.535 259.395 426.204 259.395 425.786C259.395 425.32 259.259 424.983 258.988 424.774C258.717 424.561 258.304 424.454 257.75 424.454H256.099V427.146Z" fill="black"/>
<path d="M191.656 437.791H188.11L187.314 440H186.163L189.395 431.536H190.372L193.61 440H192.464L191.656 437.791ZM188.447 436.872H191.325L189.883 432.913L188.447 436.872Z" fill="black"/>
<path d="M192.209 474.314C192.104 475.209 191.773 475.901 191.214 476.39C190.66 476.874 189.922 477.116 189 477.116C188 477.116 187.197 476.758 186.593 476.041C185.992 475.324 185.692 474.365 185.692 473.163V472.349C185.692 471.563 185.831 470.871 186.11 470.274C186.393 469.677 186.792 469.22 187.308 468.902C187.823 468.58 188.42 468.419 189.098 468.419C189.998 468.419 190.718 468.671 191.261 469.175C191.804 469.675 192.119 470.369 192.209 471.256H191.087C190.99 470.582 190.778 470.094 190.453 469.791C190.131 469.489 189.68 469.338 189.098 469.338C188.385 469.338 187.825 469.602 187.418 470.129C187.015 470.656 186.814 471.406 186.814 472.378V473.198C186.814 474.117 187.006 474.847 187.389 475.39C187.773 475.932 188.31 476.204 189 476.204C189.62 476.204 190.094 476.064 190.424 475.785C190.757 475.502 190.978 475.012 191.087 474.314H192.209Z" fill="black"/>
<path d="M254.982 477V468.536H257.372C258.108 468.536 258.759 468.699 259.325 469.024C259.891 469.35 260.327 469.813 260.633 470.413C260.943 471.014 261.1 471.704 261.104 472.483V473.024C261.104 473.822 260.949 474.522 260.639 475.122C260.333 475.723 259.893 476.184 259.319 476.506C258.75 476.828 258.085 476.992 257.325 477H254.982ZM256.099 469.454V476.087H257.273C258.133 476.087 258.802 475.82 259.279 475.285C259.759 474.75 259.999 473.989 259.999 473V472.506C259.999 471.545 259.773 470.799 259.319 470.268C258.87 469.733 258.23 469.462 257.401 469.454H256.099Z" fill="black"/>
<path d="M183.209 324.314C183.104 325.209 182.773 325.901 182.214 326.39C181.66 326.874 180.922 327.116 180 327.116C179 327.116 178.197 326.758 177.593 326.041C176.992 325.324 176.692 324.365 176.692 323.163V322.349C176.692 321.563 176.831 320.871 177.11 320.274C177.393 319.677 177.792 319.22 178.308 318.902C178.823 318.58 179.42 318.419 180.098 318.419C180.998 318.419 181.718 318.671 182.261 319.175C182.804 319.675 183.119 320.369 183.209 321.256H182.087C181.99 320.582 181.778 320.094 181.453 319.791C181.131 319.489 180.68 319.338 180.098 319.338C179.385 319.338 178.825 319.602 178.418 320.129C178.015 320.656 177.814 321.406 177.814 322.378V323.198C177.814 324.117 178.006 324.847 178.389 325.39C178.773 325.932 179.31 326.204 180 326.204C180.62 326.204 181.094 326.064 181.424 325.785C181.757 325.502 181.978 325.012 182.087 324.314H183.209ZM184.284 323.797C184.284 323.181 184.404 322.626 184.644 322.134C184.889 321.642 185.226 321.262 185.656 320.995C186.09 320.727 186.584 320.594 187.138 320.594C187.995 320.594 188.687 320.89 189.214 321.483C189.745 322.076 190.01 322.865 190.01 323.849V323.925C190.01 324.537 189.892 325.087 189.656 325.576C189.423 326.06 189.088 326.438 188.65 326.709C188.216 326.981 187.716 327.116 187.15 327.116C186.297 327.116 185.606 326.82 185.075 326.227C184.548 325.634 184.284 324.849 184.284 323.872V323.797ZM185.365 323.925C185.365 324.622 185.526 325.182 185.848 325.605C186.173 326.027 186.607 326.238 187.15 326.238C187.697 326.238 188.131 326.025 188.452 325.599C188.774 325.169 188.935 324.568 188.935 323.797C188.935 323.107 188.77 322.549 188.441 322.123C188.115 321.692 187.681 321.477 187.138 321.477C186.607 321.477 186.179 321.689 185.854 322.111C185.528 322.533 185.365 323.138 185.365 323.925ZM192.376 320.71L192.411 321.501C192.892 320.896 193.52 320.594 194.295 320.594C195.624 320.594 196.294 321.344 196.306 322.843V327H195.231V322.838C195.227 322.384 195.122 322.049 194.917 321.832C194.715 321.615 194.399 321.506 193.969 321.506C193.62 321.506 193.314 321.599 193.051 321.785C192.787 321.971 192.582 322.216 192.434 322.518V327H191.359V320.71H192.376ZM200.451 326.238C200.835 326.238 201.17 326.122 201.457 325.89C201.744 325.657 201.902 325.366 201.933 325.018H202.951C202.931 325.378 202.807 325.721 202.579 326.047C202.35 326.372 202.044 326.632 201.66 326.826C201.28 327.019 200.877 327.116 200.451 327.116C199.595 327.116 198.912 326.831 198.405 326.262C197.901 325.688 197.649 324.905 197.649 323.913V323.733C197.649 323.121 197.761 322.576 197.986 322.099C198.211 321.623 198.533 321.253 198.951 320.989C199.374 320.725 199.872 320.594 200.445 320.594C201.151 320.594 201.736 320.805 202.201 321.227C202.67 321.65 202.92 322.198 202.951 322.873H201.933C201.902 322.466 201.747 322.132 201.468 321.873C201.193 321.609 200.852 321.477 200.445 321.477C199.899 321.477 199.474 321.675 199.172 322.07C198.874 322.462 198.724 323.029 198.724 323.774V323.977C198.724 324.702 198.874 325.26 199.172 325.651C199.471 326.043 199.897 326.238 200.451 326.238ZM208.043 327C207.981 326.876 207.931 326.655 207.892 326.337C207.392 326.857 206.795 327.116 206.102 327.116C205.482 327.116 204.972 326.942 204.573 326.593C204.177 326.24 203.98 325.795 203.98 325.256C203.98 324.601 204.228 324.093 204.724 323.733C205.224 323.369 205.925 323.186 206.828 323.186H207.875V322.692C207.875 322.316 207.762 322.018 207.538 321.797C207.313 321.572 206.981 321.46 206.543 321.46C206.16 321.46 205.838 321.557 205.578 321.751C205.319 321.944 205.189 322.179 205.189 322.454H204.108C204.108 322.14 204.218 321.838 204.439 321.547C204.664 321.253 204.966 321.02 205.346 320.849C205.73 320.679 206.15 320.594 206.607 320.594C207.332 320.594 207.9 320.776 208.311 321.14C208.722 321.501 208.935 321.999 208.95 322.634V325.529C208.95 326.107 209.024 326.566 209.171 326.907V327H208.043ZM206.259 326.18C206.596 326.18 206.916 326.093 207.218 325.919C207.52 325.744 207.739 325.518 207.875 325.239V323.948H207.032C205.714 323.948 205.055 324.334 205.055 325.105C205.055 325.442 205.168 325.706 205.392 325.895C205.617 326.085 205.906 326.18 206.259 326.18ZM212.095 319.187V320.71H213.27V321.541H212.095V325.442C212.095 325.694 212.148 325.884 212.252 326.012C212.357 326.136 212.535 326.198 212.787 326.198C212.911 326.198 213.082 326.175 213.299 326.128V327C213.016 327.078 212.741 327.116 212.473 327.116C211.993 327.116 211.63 326.971 211.386 326.68C211.142 326.39 211.02 325.977 211.02 325.442V321.541H209.875V320.71H211.02V319.187H212.095ZM217.141 327.116C216.289 327.116 215.595 326.837 215.06 326.279C214.525 325.717 214.258 324.967 214.258 324.029V323.832C214.258 323.208 214.376 322.652 214.612 322.163C214.853 321.671 215.186 321.287 215.612 321.012C216.043 320.733 216.508 320.594 217.008 320.594C217.825 320.594 218.461 320.863 218.914 321.402C219.368 321.94 219.594 322.712 219.594 323.715V324.163H215.333C215.349 324.783 215.529 325.285 215.874 325.669C216.223 326.049 216.665 326.238 217.199 326.238C217.579 326.238 217.901 326.161 218.164 326.006C218.428 325.851 218.659 325.645 218.856 325.39L219.513 325.901C218.986 326.711 218.195 327.116 217.141 327.116ZM217.008 321.477C216.573 321.477 216.209 321.636 215.915 321.954C215.62 322.268 215.438 322.71 215.368 323.279H218.519V323.198C218.488 322.652 218.341 322.229 218.077 321.931C217.814 321.628 217.457 321.477 217.008 321.477ZM221.862 320.71L221.897 321.501C222.377 320.896 223.005 320.594 223.78 320.594C225.109 320.594 225.78 321.344 225.792 322.843V327H224.716V322.838C224.712 322.384 224.608 322.049 224.402 321.832C224.201 321.615 223.885 321.506 223.455 321.506C223.106 321.506 222.8 321.599 222.536 321.785C222.273 321.971 222.067 322.216 221.92 322.518V327H220.844V320.71H221.862ZM231.297 327C231.235 326.876 231.184 326.655 231.146 326.337C230.646 326.857 230.049 327.116 229.355 327.116C228.735 327.116 228.225 326.942 227.826 326.593C227.431 326.24 227.233 325.795 227.233 325.256C227.233 324.601 227.481 324.093 227.977 323.733C228.477 323.369 229.179 323.186 230.082 323.186H231.128V322.692C231.128 322.316 231.016 322.018 230.791 321.797C230.566 321.572 230.235 321.46 229.797 321.46C229.413 321.46 229.092 321.557 228.832 321.751C228.572 321.944 228.442 322.179 228.442 322.454H227.361C227.361 322.14 227.472 321.838 227.693 321.547C227.917 321.253 228.22 321.02 228.599 320.849C228.983 320.679 229.404 320.594 229.861 320.594C230.586 320.594 231.153 320.776 231.564 321.14C231.975 321.501 232.188 321.999 232.204 322.634V325.529C232.204 326.107 232.277 326.566 232.425 326.907V327H231.297ZM229.512 326.18C229.849 326.18 230.169 326.093 230.471 325.919C230.774 325.744 230.993 325.518 231.128 325.239V323.948H230.285C228.968 323.948 228.309 324.334 228.309 325.105C228.309 325.442 228.421 325.706 228.646 325.895C228.871 326.085 229.159 326.18 229.512 326.18ZM235.349 319.187V320.71H236.523V321.541H235.349V325.442C235.349 325.694 235.401 325.884 235.506 326.012C235.61 326.136 235.789 326.198 236.041 326.198C236.165 326.198 236.335 326.175 236.552 326.128V327C236.269 327.078 235.994 327.116 235.727 327.116C235.246 327.116 234.884 326.971 234.64 326.68C234.395 326.39 234.273 325.977 234.273 325.442V321.541H233.128V320.71H234.273V319.187H235.349ZM240.395 327.116C239.542 327.116 238.848 326.837 238.314 326.279C237.779 325.717 237.511 324.967 237.511 324.029V323.832C237.511 323.208 237.63 322.652 237.866 322.163C238.106 321.671 238.44 321.287 238.866 321.012C239.296 320.733 239.761 320.594 240.261 320.594C241.079 320.594 241.714 320.863 242.168 321.402C242.621 321.94 242.848 322.712 242.848 323.715V324.163H238.587C238.602 324.783 238.783 325.285 239.127 325.669C239.476 326.049 239.918 326.238 240.453 326.238C240.833 326.238 241.154 326.161 241.418 326.006C241.681 325.851 241.912 325.645 242.11 325.39L242.767 325.901C242.24 326.711 241.449 327.116 240.395 327.116ZM240.261 321.477C239.827 321.477 239.463 321.636 239.168 321.954C238.874 322.268 238.691 322.71 238.622 323.279H241.773V323.198C241.742 322.652 241.594 322.229 241.331 321.931C241.067 321.628 240.711 321.477 240.261 321.477ZM243.836 323.803C243.836 322.838 244.065 322.063 244.522 321.477C244.98 320.888 245.578 320.594 246.319 320.594C247.055 320.594 247.638 320.846 248.068 321.349V318.071H249.144V327H248.156L248.103 326.326C247.673 326.853 247.074 327.116 246.307 327.116C245.578 327.116 244.983 326.818 244.522 326.221C244.065 325.624 243.836 324.845 243.836 323.884V323.803ZM244.912 323.925C244.912 324.638 245.059 325.196 245.354 325.599C245.648 326.002 246.055 326.204 246.574 326.204C247.256 326.204 247.754 325.897 248.068 325.285V322.396C247.747 321.803 247.253 321.506 246.586 321.506C246.059 321.506 245.648 321.71 245.354 322.117C245.059 322.524 244.912 323.126 244.912 323.925Z" fill="black"/>
<rect x="117.496" y="404.496" width="33.0079" height="45.0079" fill="#C4C4C4" stroke="black" stroke-width="0.992149"/>
<rect x="117.496" y="450.496" width="33.0079" height="45.0079" fill="#C4C4C4" stroke="black" stroke-width="0.992149"/>
<rect x="117.496" y="343.496" width="32.7409" height="61.5132" fill="#C4C4C4" stroke="black" stroke-width="0.992149"/>
<path d="M138.011 473.39C138.011 474.649 137.796 475.585 137.366 476.198C136.936 476.81 136.263 477.116 135.349 477.116C134.445 477.116 133.777 476.818 133.343 476.221C132.909 475.62 132.684 474.725 132.669 473.535V472.099C132.669 470.855 132.884 469.931 133.314 469.326C133.744 468.722 134.418 468.419 135.337 468.419C136.248 468.419 136.918 468.712 137.348 469.297C137.778 469.879 137.999 470.778 138.011 471.995V473.39ZM136.936 471.919C136.936 471.008 136.808 470.346 136.552 469.931C136.296 469.512 135.891 469.303 135.337 469.303C134.787 469.303 134.385 469.51 134.134 469.925C133.882 470.34 133.752 470.977 133.744 471.838V473.558C133.744 474.473 133.876 475.149 134.139 475.587C134.407 476.021 134.81 476.238 135.349 476.238C135.879 476.238 136.273 476.033 136.529 475.622C136.788 475.211 136.924 474.564 136.936 473.681V471.919Z" fill="black"/>
<path d="M136.011 426.39C136.011 427.649 135.796 428.585 135.366 429.198C134.936 429.81 134.263 430.116 133.349 430.116C132.445 430.116 131.777 429.818 131.343 429.221C130.909 428.62 130.684 427.725 130.669 426.535V425.099C130.669 423.855 130.884 422.931 131.314 422.326C131.744 421.722 132.418 421.419 133.337 421.419C134.248 421.419 134.918 421.712 135.348 422.297C135.778 422.879 135.999 423.778 136.011 424.995V426.39ZM134.936 424.919C134.936 424.008 134.808 423.346 134.552 422.931C134.296 422.512 133.891 422.303 133.337 422.303C132.787 422.303 132.385 422.51 132.134 422.925C131.882 423.34 131.752 423.977 131.744 424.838V426.558C131.744 427.473 131.876 428.149 132.139 428.587C132.407 429.021 132.81 429.238 133.349 429.238C133.879 429.238 134.273 429.033 134.529 428.622C134.788 428.211 134.924 427.564 134.936 426.681V424.919Z" fill="black"/>
<path d="M169.209 373.314C169.104 374.209 168.773 374.901 168.214 375.39C167.66 375.874 166.922 376.116 166 376.116C165 376.116 164.197 375.758 163.593 375.041C162.992 374.324 162.692 373.365 162.692 372.163V371.349C162.692 370.563 162.831 369.871 163.11 369.274C163.393 368.677 163.792 368.22 164.308 367.902C164.823 367.58 165.42 367.419 166.098 367.419C166.998 367.419 167.718 367.671 168.261 368.175C168.804 368.675 169.119 369.369 169.209 370.256H168.087C167.99 369.582 167.778 369.094 167.453 368.791C167.131 368.489 166.68 368.338 166.098 368.338C165.385 368.338 164.825 368.602 164.418 369.129C164.015 369.656 163.814 370.406 163.814 371.378V372.198C163.814 373.117 164.006 373.847 164.389 374.39C164.773 374.932 165.31 375.204 166 375.204C166.62 375.204 167.094 375.064 167.424 374.785C167.757 374.502 167.978 374.012 168.087 373.314H169.209ZM170.284 372.797C170.284 372.181 170.404 371.626 170.644 371.134C170.889 370.642 171.226 370.262 171.656 369.995C172.09 369.727 172.584 369.594 173.138 369.594C173.995 369.594 174.687 369.89 175.214 370.483C175.745 371.076 176.01 371.865 176.01 372.849V372.925C176.01 373.537 175.892 374.087 175.656 374.576C175.423 375.06 175.088 375.438 174.65 375.709C174.216 375.981 173.716 376.116 173.15 376.116C172.297 376.116 171.606 375.82 171.075 375.227C170.548 374.634 170.284 373.849 170.284 372.872V372.797ZM171.365 372.925C171.365 373.622 171.526 374.182 171.848 374.605C172.173 375.027 172.607 375.238 173.15 375.238C173.697 375.238 174.131 375.025 174.452 374.599C174.774 374.169 174.935 373.568 174.935 372.797C174.935 372.107 174.77 371.549 174.441 371.123C174.115 370.692 173.681 370.477 173.138 370.477C172.607 370.477 172.179 370.689 171.854 371.111C171.528 371.533 171.365 372.138 171.365 372.925ZM178.527 376H177.452V367.071H178.527V376ZM184.137 375.378C183.719 375.87 183.104 376.116 182.294 376.116C181.624 376.116 181.112 375.922 180.76 375.535C180.411 375.143 180.235 374.566 180.231 373.803V369.71H181.306V373.773C181.306 374.727 181.694 375.204 182.469 375.204C183.291 375.204 183.837 374.897 184.108 374.285V369.71H185.184V376H184.161L184.137 375.378ZM187.835 369.71L187.864 370.408C188.325 369.865 188.947 369.594 189.73 369.594C190.61 369.594 191.208 369.931 191.526 370.605C191.735 370.303 192.007 370.059 192.34 369.873C192.677 369.687 193.074 369.594 193.532 369.594C194.911 369.594 195.613 370.324 195.636 371.785V376H194.561V371.849C194.561 371.4 194.458 371.064 194.253 370.844C194.047 370.619 193.702 370.506 193.218 370.506C192.819 370.506 192.487 370.627 192.224 370.867C191.96 371.103 191.807 371.423 191.764 371.826V376H190.683V371.878C190.683 370.964 190.236 370.506 189.34 370.506C188.635 370.506 188.152 370.807 187.893 371.407V376H186.817V369.71H187.835ZM198.281 369.71L198.316 370.501C198.797 369.896 199.425 369.594 200.2 369.594C201.529 369.594 202.199 370.344 202.211 371.843V376H201.136V371.838C201.132 371.384 201.027 371.049 200.822 370.832C200.62 370.615 200.304 370.506 199.874 370.506C199.525 370.506 199.219 370.599 198.956 370.785C198.692 370.971 198.487 371.216 198.339 371.518V376H197.264V369.71H198.281ZM210.21 376H209.129V368.832L206.961 369.629V368.652L210.042 367.495H210.21V376Z" fill="black"/>
<path d="M241.209 373.314C241.104 374.209 240.773 374.901 240.214 375.39C239.66 375.874 238.922 376.116 238 376.116C237 376.116 236.197 375.758 235.593 375.041C234.992 374.324 234.692 373.365 234.692 372.163V371.349C234.692 370.563 234.831 369.871 235.11 369.274C235.393 368.677 235.792 368.22 236.308 367.902C236.823 367.58 237.42 367.419 238.098 367.419C238.998 367.419 239.718 367.671 240.261 368.175C240.804 368.675 241.119 369.369 241.209 370.256H240.087C239.99 369.582 239.778 369.094 239.453 368.791C239.131 368.489 238.68 368.338 238.098 368.338C237.385 368.338 236.825 368.602 236.418 369.129C236.015 369.656 235.814 370.406 235.814 371.378V372.198C235.814 373.117 236.006 373.847 236.389 374.39C236.773 374.932 237.31 375.204 238 375.204C238.62 375.204 239.094 375.064 239.424 374.785C239.757 374.502 239.978 374.012 240.087 373.314H241.209ZM242.284 372.797C242.284 372.181 242.404 371.626 242.644 371.134C242.889 370.642 243.226 370.262 243.656 369.995C244.09 369.727 244.584 369.594 245.138 369.594C245.995 369.594 246.687 369.89 247.214 370.483C247.745 371.076 248.01 371.865 248.01 372.849V372.925C248.01 373.537 247.892 374.087 247.656 374.576C247.423 375.06 247.088 375.438 246.65 375.709C246.216 375.981 245.716 376.116 245.15 376.116C244.297 376.116 243.606 375.82 243.075 375.227C242.548 374.634 242.284 373.849 242.284 372.872V372.797ZM243.365 372.925C243.365 373.622 243.526 374.182 243.848 374.605C244.173 375.027 244.607 375.238 245.15 375.238C245.697 375.238 246.131 375.025 246.452 374.599C246.774 374.169 246.935 373.568 246.935 372.797C246.935 372.107 246.77 371.549 246.441 371.123C246.115 370.692 245.681 370.477 245.138 370.477C244.607 370.477 244.179 370.689 243.854 371.111C243.528 371.533 243.365 372.138 243.365 372.925ZM250.527 376H249.452V367.071H250.527V376ZM256.137 375.378C255.719 375.87 255.104 376.116 254.294 376.116C253.624 376.116 253.112 375.922 252.76 375.535C252.411 375.143 252.235 374.566 252.231 373.803V369.71H253.306V373.773C253.306 374.727 253.694 375.204 254.469 375.204C255.291 375.204 255.837 374.897 256.108 374.285V369.71H257.184V376H256.161L256.137 375.378ZM259.835 369.71L259.864 370.408C260.325 369.865 260.947 369.594 261.73 369.594C262.61 369.594 263.208 369.931 263.526 370.605C263.735 370.303 264.007 370.059 264.34 369.873C264.677 369.687 265.074 369.594 265.532 369.594C266.911 369.594 267.613 370.324 267.636 371.785V376H266.561V371.849C266.561 371.4 266.458 371.064 266.253 370.844C266.047 370.619 265.702 370.506 265.218 370.506C264.819 370.506 264.487 370.627 264.224 370.867C263.96 371.103 263.807 371.423 263.764 371.826V376H262.683V371.878C262.683 370.964 262.236 370.506 261.34 370.506C260.635 370.506 260.152 370.807 259.893 371.407V376H258.817V369.71H259.835ZM270.281 369.71L270.316 370.501C270.797 369.896 271.425 369.594 272.2 369.594C273.529 369.594 274.199 370.344 274.211 371.843V376H273.136V371.838C273.132 371.384 273.027 371.049 272.822 370.832C272.62 370.615 272.304 370.506 271.874 370.506C271.525 370.506 271.219 370.599 270.956 370.785C270.692 370.971 270.487 371.216 270.339 371.518V376H269.264V369.71H270.281ZM284.222 376H278.676V375.227L281.606 371.971C282.04 371.479 282.338 371.08 282.501 370.774C282.668 370.464 282.751 370.144 282.751 369.815C282.751 369.373 282.617 369.01 282.35 368.727C282.082 368.445 281.726 368.303 281.28 368.303C280.745 368.303 280.329 368.456 280.03 368.762C279.736 369.065 279.588 369.487 279.588 370.03H278.513C278.513 369.251 278.763 368.621 279.263 368.14C279.767 367.66 280.439 367.419 281.28 367.419C282.067 367.419 282.689 367.627 283.146 368.041C283.604 368.452 283.832 369.001 283.832 369.687C283.832 370.52 283.301 371.512 282.239 372.663L279.972 375.122H284.222V376Z" fill="black"/>
<rect x="151.496" y="405.496" width="71.0079" height="44.0079" fill="#F0E442" stroke="black" stroke-width="0.992149"/>
<path d="M190.656 427.791H187.11L186.314 430H185.163L188.395 421.536H189.372L192.61 430H191.464L190.656 427.791ZM187.447 426.872H190.325L188.883 422.913L187.447 426.872Z" fill="black"/>
</svg>
