<svg width="555" height="311" viewBox="0 0 555 311" fill="none" xmlns="http://www.w3.org/2000/svg">
<rect width="555" height="311" fill="white"/>
<rect width="127" height="151" transform="translate(38 84)" fill="white"/>
<g filter="url(#filter0_d)">
<path d="M61.2322 105.469H149.256V222.118H61.2322V105.469Z" fill="white"/>
<path d="M61.59 105.827H148.898V221.761H61.59V105.827Z" stroke="black" stroke-width="0.71564"/>
</g>
<path d="M73.3981 125.507C78.9647 125.419 84.5284 125.11 90.0964 125.11C91.3245 125.11 94.5848 125.903 95.9408 125.149C97.3646 124.358 97.6697 124.076 99.4792 124.076C101.902 124.076 104.28 123.852 105.96 125.905C106.559 126.638 107.532 130.301 108.146 130.477C111.751 131.507 115.016 124.791 119.199 124.791C123.081 124.791 126.825 124.076 130.649 124.076" stroke="black" stroke-width="0.71564" stroke-linecap="round" stroke-linejoin="round"/>
<path d="M76.9763 146.976C79.0921 145.273 81.5793 141.967 84.4905 141.967C88.4443 141.967 92.9102 144.797 95.8612 147.294C96.9179 148.188 97.8802 149.245 98.8431 150.236C98.9855 150.383 100.463 152.322 100.592 152.224C101.901 151.243 102.119 148.809 102.739 147.414C104.458 143.546 115.168 146.611 117.768 146.817C124.833 147.377 131.568 145.545 138.521 145.545" stroke="black" stroke-width="0.71564" stroke-linecap="round" stroke-linejoin="round"/>
<path d="M76.9763 192.062C81.2167 192.062 85.4585 192.032 89.6988 192.062C92.0414 192.078 97.099 191.353 98.8431 193.572C102.036 197.636 104.751 199.404 110.134 198.105C115.811 196.734 119.776 194.924 125.64 194.924" stroke="black" stroke-width="0.71564" stroke-linecap="round" stroke-linejoin="round"/>
<path d="M81.9858 204.227C91.5817 206.459 103.93 209.983 114.07 207.448C117.206 206.664 120.481 209.728 122.062 212.1" stroke="black" stroke-width="0.71564" stroke-linecap="round" stroke-linejoin="round"/>
<path d="M78.4076 169.877C80.9282 169.529 83.4164 169.161 85.9616 169.161C88.5751 169.161 90.7425 170.768 93.277 171.229C96.7778 171.865 102.712 172.199 105.96 170.95C108.877 169.828 113.078 169.474 115.78 171.308C117.844 172.709 119.709 174.502 122.062 175.443C122.884 175.772 124.122 174.438 124.924 174.171" stroke="black" stroke-width="0.71564" stroke-linecap="round" stroke-linejoin="round"/>
<path d="M175.898 149.939C175.74 151.293 175.239 152.339 174.396 153.077C173.558 153.81 172.441 154.176 171.047 154.176C169.535 154.176 168.322 153.634 167.408 152.55C166.5 151.466 166.046 150.016 166.046 148.199V146.969C166.046 145.779 166.257 144.733 166.679 143.831C167.106 142.929 167.71 142.237 168.489 141.757C169.269 141.271 170.171 141.027 171.196 141.027C172.556 141.027 173.646 141.408 174.466 142.17C175.286 142.926 175.764 143.975 175.898 145.316H174.202C174.056 144.297 173.736 143.559 173.244 143.102C172.758 142.645 172.075 142.416 171.196 142.416C170.118 142.416 169.271 142.814 168.656 143.611C168.047 144.408 167.742 145.542 167.742 147.013V148.252C167.742 149.641 168.032 150.745 168.612 151.565C169.192 152.386 170.004 152.796 171.047 152.796C171.984 152.796 172.702 152.585 173.2 152.163C173.704 151.735 174.038 150.994 174.202 149.939H175.898ZM183.826 154C183.732 153.812 183.656 153.479 183.598 152.998C182.842 153.783 181.939 154.176 180.891 154.176C179.953 154.176 179.183 153.912 178.579 153.385C177.981 152.852 177.683 152.178 177.683 151.363C177.683 150.373 178.058 149.605 178.808 149.061C179.563 148.51 180.624 148.234 181.989 148.234H183.571V147.487C183.571 146.919 183.401 146.468 183.062 146.134C182.722 145.794 182.221 145.624 181.559 145.624C180.979 145.624 180.492 145.771 180.1 146.063C179.707 146.356 179.511 146.711 179.511 147.127H177.876C177.876 146.652 178.043 146.195 178.377 145.756C178.717 145.311 179.174 144.959 179.748 144.701C180.328 144.443 180.964 144.314 181.655 144.314C182.751 144.314 183.609 144.59 184.23 145.141C184.852 145.686 185.174 146.438 185.197 147.399V151.776C185.197 152.649 185.309 153.344 185.531 153.859V154H183.826ZM181.128 152.761C181.638 152.761 182.121 152.629 182.578 152.365C183.035 152.102 183.366 151.759 183.571 151.337V149.386H182.297C180.305 149.386 179.309 149.969 179.309 151.135C179.309 151.645 179.479 152.043 179.818 152.33C180.158 152.617 180.595 152.761 181.128 152.761ZM189.513 154H187.887V140.5H189.513V154ZM193.89 154H192.264V140.5H193.89V154ZM206.836 154C206.742 153.812 206.666 153.479 206.607 152.998C205.852 153.783 204.949 154.176 203.9 154.176C202.963 154.176 202.192 153.912 201.589 153.385C200.991 152.852 200.692 152.178 200.692 151.363C200.692 150.373 201.067 149.605 201.817 149.061C202.573 148.51 203.634 148.234 204.999 148.234H206.581V147.487C206.581 146.919 206.411 146.468 206.071 146.134C205.731 145.794 205.23 145.624 204.568 145.624C203.988 145.624 203.502 145.771 203.109 146.063C202.717 146.356 202.521 146.711 202.521 147.127H200.886C200.886 146.652 201.053 146.195 201.387 145.756C201.727 145.311 202.184 144.959 202.758 144.701C203.338 144.443 203.974 144.314 204.665 144.314C205.761 144.314 206.619 144.59 207.24 145.141C207.861 145.686 208.184 146.438 208.207 147.399V151.776C208.207 152.649 208.318 153.344 208.541 153.859V154H206.836ZM204.138 152.761C204.647 152.761 205.131 152.629 205.588 152.365C206.045 152.102 206.376 151.759 206.581 151.337V149.386H205.307C203.314 149.386 202.318 149.969 202.318 151.135C202.318 151.645 202.488 152.043 202.828 152.33C203.168 152.617 203.604 152.761 204.138 152.761ZM212.294 144.49L212.347 145.686C213.073 144.771 214.022 144.314 215.194 144.314C217.204 144.314 218.218 145.448 218.235 147.716V154H216.609V147.707C216.604 147.021 216.445 146.515 216.135 146.187C215.83 145.858 215.353 145.694 214.702 145.694C214.175 145.694 213.712 145.835 213.313 146.116C212.915 146.397 212.604 146.767 212.382 147.224V154H210.756V144.49H212.294ZM231.023 154C230.93 153.812 230.854 153.479 230.795 152.998C230.039 153.783 229.137 154.176 228.088 154.176C227.15 154.176 226.38 153.912 225.776 153.385C225.179 152.852 224.88 152.178 224.88 151.363C224.88 150.373 225.255 149.605 226.005 149.061C226.761 148.51 227.821 148.234 229.187 148.234H230.769V147.487C230.769 146.919 230.599 146.468 230.259 146.134C229.919 145.794 229.418 145.624 228.756 145.624C228.176 145.624 227.689 145.771 227.297 146.063C226.904 146.356 226.708 146.711 226.708 147.127H225.073C225.073 146.652 225.24 146.195 225.574 145.756C225.914 145.311 226.371 144.959 226.945 144.701C227.525 144.443 228.161 144.314 228.853 144.314C229.948 144.314 230.807 144.59 231.428 145.141C232.049 145.686 232.371 146.438 232.395 147.399V151.776C232.395 152.649 232.506 153.344 232.729 153.859V154H231.023ZM228.325 152.761C228.835 152.761 229.318 152.629 229.775 152.365C230.232 152.102 230.563 151.759 230.769 151.337V149.386H229.494C227.502 149.386 226.506 149.969 226.506 151.135C226.506 151.645 226.676 152.043 227.016 152.33C227.355 152.617 227.792 152.761 228.325 152.761ZM234.557 149.166C234.557 147.684 234.899 146.506 235.585 145.633C236.271 144.754 237.179 144.314 238.31 144.314C239.47 144.314 240.375 144.725 241.025 145.545L241.104 144.49H242.59V153.771C242.59 155.002 242.224 155.972 241.491 156.681C240.765 157.39 239.786 157.744 238.556 157.744C237.87 157.744 237.199 157.598 236.543 157.305C235.887 157.012 235.386 156.61 235.04 156.101L235.884 155.125C236.581 155.986 237.434 156.417 238.441 156.417C239.232 156.417 239.848 156.194 240.287 155.749C240.732 155.304 240.955 154.677 240.955 153.868V153.051C240.305 153.801 239.417 154.176 238.292 154.176C237.179 154.176 236.276 153.728 235.585 152.831C234.899 151.935 234.557 150.713 234.557 149.166ZM236.191 149.351C236.191 150.423 236.411 151.267 236.851 151.882C237.29 152.491 237.905 152.796 238.696 152.796C239.722 152.796 240.475 152.33 240.955 151.398V147.057C240.457 146.148 239.71 145.694 238.714 145.694C237.923 145.694 237.305 146.002 236.859 146.617C236.414 147.232 236.191 148.144 236.191 149.351ZM244.664 149.166C244.664 147.684 245.007 146.506 245.692 145.633C246.378 144.754 247.286 144.314 248.417 144.314C249.577 144.314 250.482 144.725 251.133 145.545L251.212 144.49H252.697V153.771C252.697 155.002 252.331 155.972 251.599 156.681C250.872 157.39 249.894 157.744 248.663 157.744C247.978 157.744 247.307 157.598 246.65 157.305C245.994 157.012 245.493 156.61 245.147 156.101L245.991 155.125C246.688 155.986 247.541 156.417 248.549 156.417C249.34 156.417 249.955 156.194 250.395 155.749C250.84 155.304 251.062 154.677 251.062 153.868V153.051C250.412 153.801 249.524 154.176 248.399 154.176C247.286 154.176 246.384 153.728 245.692 152.831C245.007 151.935 244.664 150.713 244.664 149.166ZM246.299 149.351C246.299 150.423 246.519 151.267 246.958 151.882C247.397 152.491 248.013 152.796 248.804 152.796C249.829 152.796 250.582 152.33 251.062 151.398V147.057C250.564 146.148 249.817 145.694 248.821 145.694C248.03 145.694 247.412 146.002 246.967 146.617C246.521 147.232 246.299 148.144 246.299 149.351ZM259.755 145.949C259.509 145.908 259.242 145.888 258.955 145.888C257.889 145.888 257.165 146.342 256.784 147.25V154H255.158V144.49H256.74L256.767 145.589C257.3 144.739 258.056 144.314 259.034 144.314C259.351 144.314 259.591 144.355 259.755 144.438V145.949ZM265.028 154.176C263.739 154.176 262.69 153.754 261.882 152.91C261.073 152.061 260.669 150.927 260.669 149.509V149.21C260.669 148.267 260.848 147.426 261.205 146.688C261.568 145.943 262.072 145.363 262.717 144.947C263.367 144.525 264.07 144.314 264.826 144.314C266.062 144.314 267.023 144.722 267.709 145.536C268.395 146.351 268.737 147.517 268.737 149.034V149.711H262.295C262.318 150.648 262.591 151.407 263.112 151.987C263.64 152.562 264.308 152.849 265.116 152.849C265.69 152.849 266.177 152.731 266.575 152.497C266.974 152.263 267.322 151.952 267.621 151.565L268.614 152.339C267.817 153.563 266.622 154.176 265.028 154.176ZM264.826 145.65C264.17 145.65 263.619 145.891 263.174 146.371C262.729 146.846 262.453 147.514 262.348 148.375H267.111V148.252C267.064 147.426 266.842 146.787 266.443 146.336C266.045 145.879 265.506 145.65 264.826 145.65ZM270.24 149.166C270.24 147.684 270.583 146.506 271.269 145.633C271.954 144.754 272.862 144.314 273.993 144.314C275.153 144.314 276.059 144.725 276.709 145.545L276.788 144.49H278.273V153.771C278.273 155.002 277.907 155.972 277.175 156.681C276.448 157.39 275.47 157.744 274.239 157.744C273.554 157.744 272.883 157.598 272.227 157.305C271.57 157.012 271.069 156.61 270.724 156.101L271.567 155.125C272.265 155.986 273.117 156.417 274.125 156.417C274.916 156.417 275.531 156.194 275.971 155.749C276.416 155.304 276.639 154.677 276.639 153.868V153.051C275.988 153.801 275.101 154.176 273.976 154.176C272.862 154.176 271.96 153.728 271.269 152.831C270.583 151.935 270.24 150.713 270.24 149.166ZM271.875 149.351C271.875 150.423 272.095 151.267 272.534 151.882C272.974 152.491 273.589 152.796 274.38 152.796C275.405 152.796 276.158 152.33 276.639 151.398V147.057C276.141 146.148 275.394 145.694 274.397 145.694C273.606 145.694 272.988 146.002 272.543 146.617C272.098 147.232 271.875 148.144 271.875 149.351ZM286.605 154C286.512 153.812 286.436 153.479 286.377 152.998C285.621 153.783 284.719 154.176 283.67 154.176C282.732 154.176 281.962 153.912 281.358 153.385C280.761 152.852 280.462 152.178 280.462 151.363C280.462 150.373 280.837 149.605 281.587 149.061C282.343 148.51 283.403 148.234 284.769 148.234H286.351V147.487C286.351 146.919 286.181 146.468 285.841 146.134C285.501 145.794 285 145.624 284.338 145.624C283.758 145.624 283.271 145.771 282.879 146.063C282.486 146.356 282.29 146.711 282.29 147.127H280.655C280.655 146.652 280.822 146.195 281.156 145.756C281.496 145.311 281.953 144.959 282.527 144.701C283.107 144.443 283.743 144.314 284.435 144.314C285.53 144.314 286.389 144.59 287.01 145.141C287.631 145.686 287.953 146.438 287.977 147.399V151.776C287.977 152.649 288.088 153.344 288.311 153.859V154H286.605ZM283.907 152.761C284.417 152.761 284.9 152.629 285.357 152.365C285.814 152.102 286.146 151.759 286.351 151.337V149.386H285.076C283.084 149.386 282.088 149.969 282.088 151.135C282.088 151.645 282.258 152.043 282.598 152.33C282.938 152.617 283.374 152.761 283.907 152.761ZM292.731 142.188V144.49H294.507V145.747H292.731V151.645C292.731 152.025 292.811 152.312 292.969 152.506C293.127 152.693 293.396 152.787 293.777 152.787C293.965 152.787 294.223 152.752 294.551 152.682V154C294.123 154.117 293.707 154.176 293.303 154.176C292.576 154.176 292.028 153.956 291.659 153.517C291.29 153.077 291.105 152.453 291.105 151.645V145.747H289.374V144.49H291.105V142.188H292.731ZM298.181 154H296.555V144.49H298.181V154ZM296.423 141.968C296.423 141.704 296.502 141.481 296.66 141.3C296.824 141.118 297.064 141.027 297.381 141.027C297.697 141.027 297.938 141.118 298.102 141.3C298.266 141.481 298.348 141.704 298.348 141.968C298.348 142.231 298.266 142.451 298.102 142.627C297.938 142.803 297.697 142.891 297.381 142.891C297.064 142.891 296.824 142.803 296.66 142.627C296.502 142.451 296.423 142.231 296.423 141.968ZM300.36 149.157C300.36 148.226 300.542 147.388 300.905 146.644C301.274 145.899 301.784 145.325 302.435 144.921C303.091 144.517 303.838 144.314 304.676 144.314C305.971 144.314 307.017 144.763 307.813 145.659C308.616 146.556 309.018 147.748 309.018 149.236V149.351C309.018 150.276 308.839 151.108 308.481 151.847C308.13 152.579 307.623 153.15 306.961 153.561C306.305 153.971 305.549 154.176 304.693 154.176C303.404 154.176 302.358 153.728 301.556 152.831C300.759 151.935 300.36 150.748 300.36 149.271V149.157ZM301.995 149.351C301.995 150.405 302.238 151.252 302.725 151.891C303.217 152.529 303.873 152.849 304.693 152.849C305.52 152.849 306.176 152.526 306.662 151.882C307.148 151.231 307.392 150.323 307.392 149.157C307.392 148.114 307.143 147.271 306.645 146.626C306.152 145.976 305.496 145.65 304.676 145.65C303.873 145.65 303.226 145.97 302.733 146.608C302.241 147.247 301.995 148.161 301.995 149.351ZM312.595 144.49L312.647 145.686C313.374 144.771 314.323 144.314 315.495 144.314C317.505 144.314 318.519 145.448 318.536 147.716V154H316.91V147.707C316.904 147.021 316.746 146.515 316.436 146.187C316.131 145.858 315.653 145.694 315.003 145.694C314.476 145.694 314.013 145.835 313.614 146.116C313.216 146.397 312.905 146.767 312.683 147.224V154H311.057V144.49H312.595ZM326.253 154V145.747H324.75V144.49H326.253V143.515C326.253 142.495 326.525 141.707 327.07 141.15C327.615 140.594 328.386 140.315 329.382 140.315C329.757 140.315 330.129 140.365 330.498 140.465L330.41 141.783C330.135 141.73 329.842 141.704 329.531 141.704C329.004 141.704 328.597 141.859 328.31 142.17C328.022 142.475 327.879 142.914 327.879 143.488V144.49H329.909V145.747H327.879V154H326.253ZM337.582 153.06C336.949 153.804 336.021 154.176 334.796 154.176C333.782 154.176 333.009 153.883 332.476 153.297C331.948 152.705 331.682 151.832 331.676 150.678V144.49H333.302V150.634C333.302 152.075 333.888 152.796 335.06 152.796C336.302 152.796 337.128 152.333 337.538 151.407V144.49H339.164V154H337.617L337.582 153.06ZM343.181 144.49L343.233 145.686C343.96 144.771 344.909 144.314 346.081 144.314C348.091 144.314 349.104 145.448 349.122 147.716V154H347.496V147.707C347.49 147.021 347.332 146.515 347.021 146.187C346.717 145.858 346.239 145.694 345.589 145.694C345.062 145.694 344.599 145.835 344.2 146.116C343.802 146.397 343.491 146.767 343.269 147.224V154H341.643V144.49H343.181ZM355.389 152.849C355.969 152.849 356.476 152.673 356.909 152.321C357.343 151.97 357.583 151.53 357.63 151.003H359.168C359.139 151.548 358.951 152.066 358.605 152.559C358.26 153.051 357.797 153.443 357.217 153.736C356.643 154.029 356.033 154.176 355.389 154.176C354.094 154.176 353.062 153.745 352.295 152.884C351.533 152.017 351.152 150.833 351.152 149.333V149.061C351.152 148.135 351.322 147.312 351.662 146.591C352.002 145.87 352.488 145.311 353.121 144.912C353.76 144.514 354.513 144.314 355.38 144.314C356.446 144.314 357.331 144.634 358.034 145.272C358.743 145.911 359.121 146.74 359.168 147.76H357.63C357.583 147.145 357.349 146.641 356.927 146.248C356.511 145.85 355.995 145.65 355.38 145.65C354.554 145.65 353.912 145.949 353.455 146.547C353.004 147.139 352.778 147.997 352.778 149.122V149.43C352.778 150.525 353.004 151.369 353.455 151.961C353.906 152.553 354.551 152.849 355.389 152.849ZM363.202 142.188V144.49H364.978V145.747H363.202V151.645C363.202 152.025 363.281 152.312 363.439 152.506C363.598 152.693 363.867 152.787 364.248 152.787C364.436 152.787 364.693 152.752 365.021 152.682V154C364.594 154.117 364.178 154.176 363.773 154.176C363.047 154.176 362.499 153.956 362.13 153.517C361.761 153.077 361.576 152.453 361.576 151.645V145.747H359.845V144.49H361.576V142.188H363.202ZM368.651 154H367.025V144.49H368.651V154ZM366.894 141.968C366.894 141.704 366.973 141.481 367.131 141.3C367.295 141.118 367.535 141.027 367.852 141.027C368.168 141.027 368.408 141.118 368.572 141.3C368.736 141.481 368.818 141.704 368.818 141.968C368.818 142.231 368.736 142.451 368.572 142.627C368.408 142.803 368.168 142.891 367.852 142.891C367.535 142.891 367.295 142.803 367.131 142.627C366.973 142.451 366.894 142.231 366.894 141.968ZM370.831 149.157C370.831 148.226 371.013 147.388 371.376 146.644C371.745 145.899 372.255 145.325 372.905 144.921C373.562 144.517 374.309 144.314 375.146 144.314C376.441 144.314 377.487 144.763 378.284 145.659C379.087 146.556 379.488 147.748 379.488 149.236V149.351C379.488 150.276 379.31 151.108 378.952 151.847C378.601 152.579 378.094 153.15 377.432 153.561C376.775 153.971 376.02 154.176 375.164 154.176C373.875 154.176 372.829 153.728 372.026 152.831C371.229 151.935 370.831 150.748 370.831 149.271V149.157ZM372.466 149.351C372.466 150.405 372.709 151.252 373.195 151.891C373.688 152.529 374.344 152.849 375.164 152.849C375.99 152.849 376.646 152.526 377.133 151.882C377.619 151.231 377.862 150.323 377.862 149.157C377.862 148.114 377.613 147.271 377.115 146.626C376.623 145.976 375.967 145.65 375.146 145.65C374.344 145.65 373.696 145.97 373.204 146.608C372.712 147.247 372.466 148.161 372.466 149.351ZM383.065 144.49L383.118 145.686C383.845 144.771 384.794 144.314 385.966 144.314C387.976 144.314 388.989 145.448 389.007 147.716V154H387.381V147.707C387.375 147.021 387.217 146.515 386.906 146.187C386.602 145.858 386.124 145.694 385.474 145.694C384.946 145.694 384.483 145.835 384.085 146.116C383.687 146.397 383.376 146.767 383.153 147.224V154H381.527V144.49H383.065ZM391.494 153.147C391.494 152.866 391.576 152.632 391.74 152.444C391.91 152.257 392.162 152.163 392.496 152.163C392.83 152.163 393.082 152.257 393.252 152.444C393.428 152.632 393.516 152.866 393.516 153.147C393.516 153.417 393.428 153.643 393.252 153.824C393.082 154.006 392.83 154.097 392.496 154.097C392.162 154.097 391.91 154.006 391.74 153.824C391.576 153.643 391.494 153.417 391.494 153.147Z" fill="black"/>
<rect width="122" height="257" transform="translate(395 31)" fill="white"/>
<g clip-path="url(#clip0)">
<rect width="94.4209" height="63.1557" transform="translate(408.197 31)" fill="white"/>
<path d="M414.164 46.095L460.448 38.8952V74.894L414.164 85.1794V46.095Z" fill="#6FCF97"/>
<path d="M458.391 38.3809L502.104 46.6092V82.6081L458.391 71.9356V38.3809Z" fill="#0072B2"/>
<path d="M412.107 45.5807L458.391 38.3809V74.3798L412.107 84.6651V45.5807Z" fill="#0072B2"/>
<g filter="url(#filter1_d)">
<path d="M456.848 38.3809L502.104 46.095L456.848 54.3233L413.65 46.095L456.848 38.3809Z" fill="#0072B2"/>
</g>
<path d="M411.949 49.7591L455.662 57.9874V93.9862L411.949 83.5255V49.7591Z" fill="#0072B2"/>
<path d="M455.72 56.1511L501.993 47.8832V89.2228L455.72 101.034V56.1511Z" fill="#0072B2"/>
</g>
<path d="M411.546 208.347L455.773 217.089V256.174L411.546 246.403V208.347Z" fill="#A541F8"/>
<path d="M455.773 217.089L502.057 209.89V245.888L455.773 256.174V217.089Z" fill="#6FCF97"/>
<path d="M411.546 207.833L457.83 200.633V236.632L411.546 246.917V207.833Z" fill="#6FCF97"/>
<path d="M455.773 200.633L502.057 208.341V242.803L455.773 234.187V200.633Z" fill="#6FCF97"/>
<path d="M411.546 211.947L455.773 220.689V259.774L411.546 250.003V211.947Z" fill="#6FCF97" fill-opacity="0.64"/>
<g filter="url(#filter2_d)">
<path d="M455.773 227.375L502.057 220.175V256.174L455.773 266.459V227.375Z" fill="#6FCF97"/>
</g>
<path d="M411.546 216.575L457.83 209.375V245.374L411.546 255.66V216.575Z" fill="#6FCF97"/>
<path d="M413.603 170.291L457.83 179.033V218.118L413.603 208.347V170.291Z" fill="#A541F8"/>
<path d="M413.603 169.777L459.887 162.577V198.576L413.603 208.861V169.777Z" fill="#6FCF97"/>
<path d="M455.773 161.548L502.057 169.257V203.718L455.773 195.103V161.548Z" fill="#6FCF97"/>
<path d="M411.546 170.291L455.773 179.033V218.118L411.546 208.347V170.291Z" fill="#6FCF97"/>
<path d="M455.773 181.091L502.057 173.891V209.89L455.773 220.175V181.091Z" fill="#6FCF97"/>
<path d="M411.546 169.262L457.83 162.063V198.061L411.546 208.347V169.262Z" fill="#6FCF97"/>
<path d="M411.546 130.029L457.83 121.95V162.348L411.546 173.891V130.029Z" fill="#6FCF97"/>
<path d="M420.288 133.264L464.515 142.006V181.091L420.288 171.319V133.264Z" fill="#A541F8"/>
<path d="M420.288 132.749L466.572 125.549V161.548L420.288 171.834V132.749Z" fill="#6FCF97"/>
<path d="M455.773 118.35L502.057 127.63V168.234L455.773 156.196V118.35Z" fill="#A541F8"/>
<g filter="url(#filter3_d)">
<path d="M411.546 135.835L461.43 144.577V183.662L411.546 173.891V135.835Z" fill="#A541F8"/>
</g>
<g filter="url(#filter4_d)">
<path d="M460.401 137.629L502.057 129.149V171.548L460.401 183.662V137.629Z" fill="#A541F8"/>
</g>
<path d="M411.546 126.749L457.83 118.35V160.348L411.546 172.348V126.749Z" fill="#A541F8"/>
<path d="M411.546 87.345L457.83 79.2653V119.664L411.546 131.206V87.345Z" fill="#6FCF97"/>
<path d="M420.288 90.5792L464.515 99.3218V138.406L420.288 128.635V90.5792Z" fill="#A541F8"/>
<path d="M420.288 90.065L466.572 82.8652V118.864L420.288 129.149V90.065Z" fill="#6FCF97"/>
<path d="M455.773 75.6654L502.057 84.9462V125.549L455.773 113.512V75.6654Z" fill="#A541F8"/>
<path d="M411.546 93.1506L461.43 101.893V140.978L411.546 131.206V93.1506Z" fill="#A541F8"/>
<path d="M460.401 94.9448L502.057 86.4651V128.864L460.401 140.978V94.9448Z" fill="#A541F8"/>
<path d="M411.546 84.0651L457.83 75.6654V117.664L411.546 129.664V84.0651Z" fill="#A541F8"/>
<g filter="url(#filter5_d)">
<path d="M460.445 233.546L502.057 255.74L456.804 270.059L411.031 255.74L460.445 233.546Z" fill="#6FCF97"/>
</g>
<g filter="url(#filter6_d)">
<path d="M458.969 73.5207L502.682 83.8061L458.969 93.5772L413.2 83.8061L458.969 73.5207Z" fill="#0072B2"/>
</g>
<path d="M395.355 179.352C395.549 179.156 395.548 178.839 395.352 178.645L392.156 175.477C391.96 175.282 391.644 175.284 391.449 175.48C391.255 175.676 391.256 175.993 391.452 176.187L394.293 179.003L391.477 181.844C391.282 182.04 391.284 182.356 391.48 182.551C391.676 182.745 391.993 182.744 392.187 182.548L395.355 179.352ZM165.002 180.5L395.002 179.5L394.998 178.5L164.998 179.5L165.002 180.5Z" fill="black"/>
<defs>
<filter id="filter0_d" x="58.3697" y="105.469" width="93.7488" height="122.374" filterUnits="userSpaceOnUse" color-interpolation-filters="sRGB">
<feFlood flood-opacity="0" result="BackgroundImageFix"/>
<feColorMatrix in="SourceAlpha" type="matrix" values="0 0 0 0 0 0 0 0 0 0 0 0 0 0 0 0 0 0 127 0"/>
<feOffset dy="2.86256"/>
<feGaussianBlur stdDeviation="1.43128"/>
<feColorMatrix type="matrix" values="0 0 0 0 0 0 0 0 0 0 0 0 0 0 0 0 0 0 0.25 0"/>
<feBlend mode="normal" in2="BackgroundImageFix" result="effect1_dropShadow"/>
<feBlend mode="normal" in="SourceGraphic" in2="effect1_dropShadow" result="shape"/>
</filter>
<filter id="filter1_d" x="411.592" y="38.3809" width="92.5684" height="20.0565" filterUnits="userSpaceOnUse" color-interpolation-filters="sRGB">
<feFlood flood-opacity="0" result="BackgroundImageFix"/>
<feColorMatrix in="SourceAlpha" type="matrix" values="0 0 0 0 0 0 0 0 0 0 0 0 0 0 0 0 0 0 127 0"/>
<feOffset dy="2.05708"/>
<feGaussianBlur stdDeviation="1.02854"/>
<feColorMatrix type="matrix" values="0 0 0 0 0 0 0 0 0 0 0 0 0 0 0 0 0 0 0.25 0"/>
<feBlend mode="normal" in2="BackgroundImageFix" result="effect1_dropShadow"/>
<feBlend mode="normal" in="SourceGraphic" in2="effect1_dropShadow" result="shape"/>
</filter>
<filter id="filter2_d" x="453.716" y="220.175" width="50.3983" height="50.3983" filterUnits="userSpaceOnUse" color-interpolation-filters="sRGB">
<feFlood flood-opacity="0" result="BackgroundImageFix"/>
<feColorMatrix in="SourceAlpha" type="matrix" values="0 0 0 0 0 0 0 0 0 0 0 0 0 0 0 0 0 0 127 0"/>
<feOffset dy="2.05708"/>
<feGaussianBlur stdDeviation="1.02854"/>
<feColorMatrix type="matrix" values="0 0 0 0 0 0 0 0 0 0 0 0 0 0 0 0 0 0 0.25 0"/>
<feBlend mode="normal" in2="BackgroundImageFix" result="effect1_dropShadow"/>
<feBlend mode="normal" in="SourceGraphic" in2="effect1_dropShadow" result="shape"/>
</filter>
<filter id="filter3_d" x="409.489" y="135.835" width="53.9982" height="51.9412" filterUnits="userSpaceOnUse" color-interpolation-filters="sRGB">
<feFlood flood-opacity="0" result="BackgroundImageFix"/>
<feColorMatrix in="SourceAlpha" type="matrix" values="0 0 0 0 0 0 0 0 0 0 0 0 0 0 0 0 0 0 127 0"/>
<feOffset dy="2.05708"/>
<feGaussianBlur stdDeviation="1.02854"/>
<feColorMatrix type="matrix" values="0 0 0 0 0 0 0 0 0 0 0 0 0 0 0 0 0 0 0.25 0"/>
<feBlend mode="normal" in2="BackgroundImageFix" result="effect1_dropShadow"/>
<feBlend mode="normal" in="SourceGraphic" in2="effect1_dropShadow" result="shape"/>
</filter>
<filter id="filter4_d" x="458.344" y="129.149" width="45.7699" height="58.6266" filterUnits="userSpaceOnUse" color-interpolation-filters="sRGB">
<feFlood flood-opacity="0" result="BackgroundImageFix"/>
<feColorMatrix in="SourceAlpha" type="matrix" values="0 0 0 0 0 0 0 0 0 0 0 0 0 0 0 0 0 0 127 0"/>
<feOffset dy="2.05708"/>
<feGaussianBlur stdDeviation="1.02854"/>
<feColorMatrix type="matrix" values="0 0 0 0 0 0 0 0 0 0 0 0 0 0 0 0 0 0 0.25 0"/>
<feBlend mode="normal" in2="BackgroundImageFix" result="effect1_dropShadow"/>
<feBlend mode="normal" in="SourceGraphic" in2="effect1_dropShadow" result="shape"/>
</filter>
<filter id="filter5_d" x="408.974" y="233.546" width="95.1397" height="40.6272" filterUnits="userSpaceOnUse" color-interpolation-filters="sRGB">
<feFlood flood-opacity="0" result="BackgroundImageFix"/>
<feColorMatrix in="SourceAlpha" type="matrix" values="0 0 0 0 0 0 0 0 0 0 0 0 0 0 0 0 0 0 127 0"/>
<feOffset dy="2.05708"/>
<feGaussianBlur stdDeviation="1.02854"/>
<feColorMatrix type="matrix" values="0 0 0 0 0 0 0 0 0 0 0 0 0 0 0 0 0 0 0.25 0"/>
<feBlend mode="normal" in2="BackgroundImageFix" result="effect1_dropShadow"/>
<feBlend mode="normal" in="SourceGraphic" in2="effect1_dropShadow" result="shape"/>
</filter>
<filter id="filter6_d" x="411.142" y="73.5207" width="93.5969" height="24.1706" filterUnits="userSpaceOnUse" color-interpolation-filters="sRGB">
<feFlood flood-opacity="0" result="BackgroundImageFix"/>
<feColorMatrix in="SourceAlpha" type="matrix" values="0 0 0 0 0 0 0 0 0 0 0 0 0 0 0 0 0 0 127 0"/>
<feOffset dy="2.05708"/>
<feGaussianBlur stdDeviation="1.02854"/>
<feColorMatrix type="matrix" values="0 0 0 0 0 0 0 0 0 0 0 0 0 0 0 0 0 0 0.25 0"/>
<feBlend mode="normal" in2="BackgroundImageFix" result="effect1_dropShadow"/>
<feBlend mode="normal" in="SourceGraphic" in2="effect1_dropShadow" result="shape"/>
</filter>
<clipPath id="clip0">
<rect width="94.4209" height="63.1557" fill="white" transform="translate(408.197 31)"/>
</clipPath>
</defs>
</svg>
