<svg width="359" height="266" viewBox="0 0 359 266" fill="none" xmlns="http://www.w3.org/2000/svg">
<rect width="359" height="266" fill="white"/>
<rect x="31.2342" y="22.4959" width="87.7738" height="53.6729" fill="#6FCF97" stroke="black" stroke-width="0.790033"/>
<rect x="241.573" y="22.4959" width="87.7738" height="53.6729" fill="#6FCF97" stroke="black" stroke-width="0.790033"/>
<rect x="241.573" y="76.9588" width="87.7738" height="53.6729" fill="#EB5757" stroke="black" stroke-width="0.790033"/>
<rect x="241.573" y="131.422" width="87.7738" height="53.6729" fill="#EB5757" stroke="black" stroke-width="0.790033"/>
<rect x="241.573" y="185.095" width="87.7738" height="53.6729" fill="#EB5757" stroke="black" stroke-width="0.790033"/>
<rect x="31.2342" y="76.9588" width="87.7738" height="53.6729" fill="#BDBDBD" stroke="black" stroke-width="0.790033"/>
<rect x="31.2342" y="131.422" width="87.7738" height="53.6729" fill="#EB5757" stroke="black" stroke-width="0.790033"/>
<rect x="31.2342" y="185.885" width="87.7738" height="53.6729" fill="#BDBDBD" stroke="black" stroke-width="0.790033"/>
<path d="M69.4006 44.8326H66.3037V53.2552H64.2206V44.8326H61.1654V43.1453H69.4006V44.8326ZM74.2264 47.6239C73.9533 47.5869 73.7126 47.5684 73.5043 47.5684C72.7451 47.5684 72.2475 47.8253 72.0114 48.3391V53.2552H70.0047V45.7422H71.9003L71.9558 46.6379C72.3586 45.9482 72.9164 45.6033 73.6293 45.6033C73.8515 45.6033 74.0598 45.6334 74.2542 45.6936L74.2264 47.6239ZM79.698 52.4914C79.2027 53.0932 78.5176 53.3941 77.6427 53.3941C76.8372 53.3941 76.2216 53.1626 75.7957 52.6997C75.3744 52.2368 75.1592 51.5586 75.1499 50.6652V45.7422H77.1566V50.5958C77.1566 51.3781 77.5131 51.7693 78.226 51.7693C78.9064 51.7693 79.374 51.5332 79.6286 51.061V45.7422H81.6422V53.2552H79.7536L79.698 52.4914ZM86.6139 53.3941C85.5122 53.3941 84.6141 53.0562 83.9197 52.3803C83.23 51.7045 82.8851 50.8041 82.8851 49.6792V49.4848C82.8851 48.7303 83.031 48.0567 83.3226 47.4642C83.6142 46.867 84.0262 46.4088 84.5586 46.0894C85.0955 45.7653 85.7066 45.6033 86.3917 45.6033C87.4193 45.6033 88.2271 45.9273 88.815 46.5754C89.4075 47.2235 89.7038 48.1424 89.7038 49.332V50.1514H84.9196C84.9844 50.6421 85.1789 51.0356 85.5029 51.3318C85.8316 51.6281 86.2459 51.7762 86.7458 51.7762C87.5189 51.7762 88.123 51.4961 88.5581 50.936L89.5441 52.0401C89.2432 52.4659 88.8358 52.7992 88.322 53.04C87.8082 53.276 87.2388 53.3941 86.6139 53.3941ZM86.3847 47.2281C85.9866 47.2281 85.6626 47.3624 85.4126 47.6308C85.1673 47.8993 85.0099 48.2836 84.9405 48.7835H87.7318V48.6238C87.7226 48.1794 87.6022 47.8368 87.3707 47.5961C87.1393 47.3508 86.8106 47.2281 86.3847 47.2281Z" fill="black"/>
<path d="M279.74 44.8326H276.643V53.2552H274.56V44.8326H271.505V43.1453H279.74V44.8326ZM284.566 47.6239C284.292 47.5869 284.052 47.5684 283.843 47.5684C283.084 47.5684 282.587 47.8253 282.351 48.3391V53.2552H280.344V45.7422H282.239L282.295 46.6379C282.698 45.9482 283.256 45.6033 283.968 45.6033C284.191 45.6033 284.399 45.6334 284.593 45.6936L284.566 47.6239ZM290.037 52.4914C289.542 53.0932 288.857 53.3941 287.982 53.3941C287.176 53.3941 286.561 53.1626 286.135 52.6997C285.714 52.2368 285.498 51.5586 285.489 50.6652V45.7422H287.496V50.5958C287.496 51.3781 287.852 51.7693 288.565 51.7693C289.246 51.7693 289.713 51.5332 289.968 51.061V45.7422H291.981V53.2552H290.093L290.037 52.4914ZM296.953 53.3941C295.851 53.3941 294.953 53.0562 294.259 52.3803C293.569 51.7045 293.224 50.8041 293.224 49.6792V49.4848C293.224 48.7303 293.37 48.0567 293.662 47.4642C293.953 46.867 294.365 46.4088 294.898 46.0894C295.435 45.7653 296.046 45.6033 296.731 45.6033C297.759 45.6033 298.566 45.9273 299.154 46.5754C299.747 47.2235 300.043 48.1424 300.043 49.332V50.1514H295.259C295.324 50.6421 295.518 51.0356 295.842 51.3318C296.171 51.6281 296.585 51.7762 297.085 51.7762C297.858 51.7762 298.462 51.4961 298.897 50.936L299.883 52.0401C299.582 52.4659 299.175 52.7992 298.661 53.04C298.147 53.276 297.578 53.3941 296.953 53.3941ZM296.724 47.2281C296.326 47.2281 296.002 47.3624 295.752 47.6308C295.506 47.8993 295.349 48.2836 295.28 48.7835H298.071V48.6238C298.062 48.1794 297.941 47.8368 297.71 47.5961C297.478 47.3508 297.15 47.2281 296.724 47.2281Z" fill="black"/>
<path d="M70.0116 107.718H67.9285L63.8734 101.066V107.718H61.7903V97.6081H63.8734L67.9355 104.274V97.6081H70.0116V107.718ZM76.0526 107.718C75.96 107.538 75.8929 107.313 75.8512 107.045C75.3652 107.586 74.7333 107.857 73.9556 107.857C73.2196 107.857 72.6085 107.644 72.1225 107.218C71.6411 106.792 71.4003 106.255 71.4003 105.607C71.4003 104.811 71.6943 104.2 72.2822 103.774C72.8747 103.348 73.7288 103.133 74.8444 103.128H75.7679V102.698C75.7679 102.351 75.6776 102.073 75.4971 101.865C75.3212 101.656 75.0411 101.552 74.6569 101.552C74.319 101.552 74.0528 101.633 73.8584 101.795C73.6686 101.957 73.5737 102.179 73.5737 102.462H71.567C71.567 102.027 71.7012 101.624 71.9697 101.254C72.2382 100.883 72.6178 100.594 73.1085 100.386C73.5992 100.173 74.15 100.066 74.7611 100.066C75.6869 100.066 76.4206 100.3 76.9622 100.768C77.5084 101.23 77.7816 101.883 77.7816 102.726V105.982C77.7862 106.695 77.8857 107.234 78.0801 107.6V107.718H76.0526ZM74.3931 106.322C74.6893 106.322 74.9624 106.258 75.2124 106.128C75.4624 105.994 75.6475 105.816 75.7679 105.593V104.302H75.018C74.0135 104.302 73.4788 104.649 73.414 105.343L73.4071 105.461C73.4071 105.711 73.495 105.917 73.6709 106.079C73.8468 106.241 74.0875 106.322 74.3931 106.322ZM87.6763 107.718H85.5932L81.5381 101.066V107.718H79.455V97.6081H81.5381L85.6001 104.274V97.6081H87.6763V107.718Z" fill="black"/>
<path d="M70.0116 217.433H67.9285L63.8734 210.781V217.433H61.7903V207.323H63.8734L67.9355 213.989V207.323H70.0116V217.433ZM76.0526 217.433C75.96 217.253 75.8929 217.028 75.8512 216.76C75.3652 217.301 74.7333 217.572 73.9556 217.572C73.2196 217.572 72.6085 217.359 72.1225 216.933C71.6411 216.507 71.4003 215.97 71.4003 215.322C71.4003 214.526 71.6943 213.915 72.2822 213.489C72.8747 213.063 73.7288 212.848 74.8444 212.843H75.7679V212.413C75.7679 212.066 75.6776 211.788 75.4971 211.58C75.3212 211.371 75.0411 211.267 74.6569 211.267C74.319 211.267 74.0528 211.348 73.8584 211.51C73.6686 211.672 73.5737 211.895 73.5737 212.177H71.567C71.567 211.742 71.7012 211.339 71.9697 210.969C72.2382 210.598 72.6178 210.309 73.1085 210.101C73.5992 209.888 74.15 209.781 74.7611 209.781C75.6869 209.781 76.4206 210.015 76.9622 210.483C77.5084 210.946 77.7816 211.598 77.7816 212.441V215.697C77.7862 216.41 77.8857 216.949 78.0801 217.315V217.433H76.0526ZM74.3931 216.038C74.6893 216.038 74.9624 215.973 75.2124 215.843C75.4624 215.709 75.6475 215.531 75.7679 215.308V214.017H75.018C74.0135 214.017 73.4788 214.364 73.414 215.058L73.4071 215.177C73.4071 215.427 73.495 215.633 73.6709 215.795C73.8468 215.957 74.0875 216.038 74.3931 216.038ZM87.6763 217.433H85.5932L81.5381 210.781V217.433H79.455V207.323H81.5381L85.6001 213.989V207.323H87.6763V217.433Z" fill="black"/>
<path d="M65.5007 158.05H61.5012V162.181H59.4181V152.071H66.0007V153.758H61.5012V156.369H65.5007V158.05ZM71.1945 162.181C71.1019 162 71.0348 161.776 70.9932 161.507C70.5071 162.049 69.8752 162.32 69.0975 162.32C68.3615 162.32 67.7505 162.107 67.2644 161.681C66.783 161.255 66.5423 160.718 66.5423 160.07C66.5423 159.274 66.8362 158.663 67.4241 158.237C68.0167 157.811 68.8707 157.596 69.9863 157.591H70.9098V157.161C70.9098 156.814 70.8196 156.536 70.639 156.328C70.4631 156.119 70.1831 156.015 69.7989 156.015C69.4609 156.015 69.1948 156.096 69.0003 156.258C68.8105 156.42 68.7156 156.642 68.7156 156.925H66.7089C66.7089 156.49 66.8432 156.087 67.1117 155.716C67.3802 155.346 67.7597 155.057 68.2504 154.849C68.7411 154.636 69.292 154.529 69.903 154.529C70.8288 154.529 71.5625 154.763 72.1041 155.23C72.6504 155.693 72.9235 156.346 72.9235 157.189V160.445C72.9281 161.158 73.0277 161.697 73.2221 162.063V162.181H71.1945ZM69.535 160.785C69.8313 160.785 70.1044 160.721 70.3543 160.591C70.6043 160.457 70.7895 160.278 70.9098 160.056V158.765H70.1599C69.1554 158.765 68.6207 159.112 68.5559 159.806L68.549 159.924C68.549 160.174 68.637 160.38 68.8129 160.542C68.9888 160.704 69.2295 160.785 69.535 160.785ZM76.5828 162.181H74.5691V151.516H76.5828V162.181ZM82.3113 160.105C82.3113 159.86 82.1886 159.667 81.9433 159.529C81.7026 159.385 81.3137 159.258 80.7768 159.147C78.9899 158.772 78.0965 158.013 78.0965 156.869C78.0965 156.203 78.3719 155.647 78.9228 155.203C79.4783 154.754 80.2028 154.529 81.0962 154.529C82.0498 154.529 82.8113 154.754 83.3806 155.203C83.9546 155.652 84.2416 156.235 84.2416 156.952H82.2349C82.2349 156.665 82.1423 156.429 81.9572 156.244C81.772 156.054 81.4827 155.96 81.0892 155.96C80.7513 155.96 80.4898 156.036 80.3046 156.189C80.1194 156.341 80.0268 156.536 80.0268 156.772C80.0268 156.994 80.131 157.175 80.3393 157.314C80.5523 157.448 80.9087 157.566 81.4086 157.668C81.9086 157.765 82.3298 157.876 82.6724 158.001C83.7324 158.39 84.2625 159.063 84.2625 160.022C84.2625 160.707 83.9685 161.262 83.3806 161.688C82.7927 162.109 82.0336 162.32 81.1031 162.32C80.4736 162.32 79.9134 162.209 79.4228 161.987C78.9367 161.76 78.5548 161.452 78.277 161.063C77.9993 160.67 77.8604 160.246 77.8604 159.792H79.763C79.7815 160.149 79.9134 160.422 80.1588 160.612C80.4041 160.802 80.7328 160.896 81.1448 160.896C81.529 160.896 81.8183 160.825 82.0127 160.681C82.2118 160.533 82.3113 160.341 82.3113 160.105ZM89.0189 162.32C87.9171 162.32 87.0191 161.982 86.3247 161.306C85.635 160.63 85.2901 159.73 85.2901 158.605V158.411C85.2901 157.656 85.436 156.983 85.7276 156.39C86.0192 155.793 86.4312 155.335 86.9636 155.015C87.5005 154.691 88.1116 154.529 88.7967 154.529C89.8243 154.529 90.6321 154.853 91.22 155.501C91.8125 156.149 92.1088 157.068 92.1088 158.258V159.077H87.3246C87.3894 159.568 87.5839 159.961 87.9079 160.258C88.2366 160.554 88.6509 160.702 89.1508 160.702C89.9239 160.702 90.528 160.422 90.9631 159.862L91.9491 160.966C91.6482 161.392 91.2408 161.725 90.727 161.966C90.2132 162.202 89.6438 162.32 89.0189 162.32ZM88.7897 156.154C88.3916 156.154 88.0676 156.288 87.8176 156.557C87.5723 156.825 87.4149 157.209 87.3455 157.709H90.1368V157.55C90.1275 157.105 90.0072 156.763 89.7757 156.522C89.5443 156.277 89.2156 156.154 88.7897 156.154Z" fill="black"/>
<path d="M278.212 103.587H274.213V107.718H272.13V97.6081H278.712V99.2955H274.213V101.906H278.212V103.587ZM283.906 107.718C283.813 107.538 283.746 107.313 283.705 107.045C283.219 107.586 282.587 107.857 281.809 107.857C281.073 107.857 280.462 107.644 279.976 107.218C279.494 106.792 279.254 106.255 279.254 105.607C279.254 104.811 279.548 104.2 280.136 103.774C280.728 103.348 281.582 103.133 282.698 103.128H283.621V102.698C283.621 102.351 283.531 102.073 283.35 101.865C283.175 101.656 282.895 101.552 282.51 101.552C282.172 101.552 281.906 101.633 281.712 101.795C281.522 101.957 281.427 102.179 281.427 102.462H279.42C279.42 102.027 279.555 101.624 279.823 101.254C280.092 100.883 280.471 100.594 280.962 100.386C281.453 100.173 282.003 100.066 282.614 100.066C283.54 100.066 284.274 100.3 284.816 100.768C285.362 101.23 285.635 101.883 285.635 102.726V105.982C285.64 106.695 285.739 107.234 285.934 107.6V107.718H283.906ZM282.246 106.322C282.543 106.322 282.816 106.258 283.066 106.128C283.316 105.994 283.501 105.816 283.621 105.593V104.302H282.871C281.867 104.302 281.332 104.649 281.267 105.343L281.26 105.461C281.26 105.711 281.348 105.917 281.524 106.079C281.7 106.241 281.941 106.322 282.246 106.322ZM289.294 107.718H287.281V97.0527H289.294V107.718ZM295.023 105.642C295.023 105.397 294.9 105.205 294.655 105.066C294.414 104.922 294.025 104.795 293.488 104.684C291.701 104.309 290.808 103.55 290.808 102.406C290.808 101.74 291.083 101.184 291.634 100.74C292.19 100.291 292.914 100.066 293.808 100.066C294.761 100.066 295.523 100.291 296.092 100.74C296.666 101.189 296.953 101.772 296.953 102.49H294.946C294.946 102.203 294.854 101.966 294.669 101.781C294.483 101.591 294.194 101.497 293.801 101.497C293.463 101.497 293.201 101.573 293.016 101.726C292.831 101.878 292.738 102.073 292.738 102.309C292.738 102.531 292.842 102.712 293.051 102.851C293.264 102.985 293.62 103.103 294.12 103.205C294.62 103.302 295.041 103.413 295.384 103.538C296.444 103.927 296.974 104.6 296.974 105.559C296.974 106.244 296.68 106.799 296.092 107.225C295.504 107.646 294.745 107.857 293.815 107.857C293.185 107.857 292.625 107.746 292.134 107.524C291.648 107.297 291.266 106.989 290.988 106.6C290.711 106.207 290.572 105.783 290.572 105.329H292.474C292.493 105.686 292.625 105.959 292.87 106.149C293.116 106.339 293.444 106.434 293.856 106.434C294.24 106.434 294.53 106.362 294.724 106.218C294.923 106.07 295.023 105.878 295.023 105.642ZM301.73 107.857C300.629 107.857 299.731 107.519 299.036 106.843C298.346 106.167 298.002 105.267 298.002 104.142V103.948C298.002 103.193 298.147 102.52 298.439 101.927C298.731 101.33 299.143 100.872 299.675 100.552C300.212 100.228 300.823 100.066 301.508 100.066C302.536 100.066 303.344 100.39 303.931 101.038C304.524 101.686 304.82 102.605 304.82 103.795V104.614H300.036C300.101 105.105 300.295 105.498 300.619 105.795C300.948 106.091 301.362 106.239 301.862 106.239C302.635 106.239 303.239 105.959 303.675 105.399L304.661 106.503C304.36 106.929 303.952 107.262 303.438 107.503C302.925 107.739 302.355 107.857 301.73 107.857ZM301.501 101.691C301.103 101.691 300.779 101.825 300.529 102.094C300.284 102.362 300.126 102.746 300.057 103.246H302.848V103.087C302.839 102.642 302.719 102.3 302.487 102.059C302.256 101.814 301.927 101.691 301.501 101.691Z" fill="black"/>
<path d="M278.212 158.05H274.213V162.181H272.13V152.071H278.712V153.758H274.213V156.369H278.212V158.05ZM283.906 162.181C283.813 162 283.746 161.776 283.705 161.507C283.219 162.049 282.587 162.32 281.809 162.32C281.073 162.32 280.462 162.107 279.976 161.681C279.494 161.255 279.254 160.718 279.254 160.07C279.254 159.274 279.548 158.663 280.136 158.237C280.728 157.811 281.582 157.596 282.698 157.591H283.621V157.161C283.621 156.814 283.531 156.536 283.35 156.328C283.175 156.119 282.895 156.015 282.51 156.015C282.172 156.015 281.906 156.096 281.712 156.258C281.522 156.42 281.427 156.642 281.427 156.925H279.42C279.42 156.49 279.555 156.087 279.823 155.716C280.092 155.346 280.471 155.057 280.962 154.849C281.453 154.636 282.003 154.529 282.614 154.529C283.54 154.529 284.274 154.763 284.816 155.23C285.362 155.693 285.635 156.346 285.635 157.189V160.445C285.64 161.158 285.739 161.697 285.934 162.063V162.181H283.906ZM282.246 160.785C282.543 160.785 282.816 160.721 283.066 160.591C283.316 160.457 283.501 160.278 283.621 160.056V158.765H282.871C281.867 158.765 281.332 159.112 281.267 159.806L281.26 159.924C281.26 160.174 281.348 160.38 281.524 160.542C281.7 160.704 281.941 160.785 282.246 160.785ZM289.294 162.181H287.281V151.516H289.294V162.181ZM295.023 160.105C295.023 159.86 294.9 159.667 294.655 159.529C294.414 159.385 294.025 159.258 293.488 159.147C291.701 158.772 290.808 158.013 290.808 156.869C290.808 156.203 291.083 155.647 291.634 155.203C292.19 154.754 292.914 154.529 293.808 154.529C294.761 154.529 295.523 154.754 296.092 155.203C296.666 155.652 296.953 156.235 296.953 156.952H294.946C294.946 156.665 294.854 156.429 294.669 156.244C294.483 156.054 294.194 155.96 293.801 155.96C293.463 155.96 293.201 156.036 293.016 156.189C292.831 156.341 292.738 156.536 292.738 156.772C292.738 156.994 292.842 157.175 293.051 157.314C293.264 157.448 293.62 157.566 294.12 157.668C294.62 157.765 295.041 157.876 295.384 158.001C296.444 158.39 296.974 159.063 296.974 160.022C296.974 160.707 296.68 161.262 296.092 161.688C295.504 162.109 294.745 162.32 293.815 162.32C293.185 162.32 292.625 162.209 292.134 161.987C291.648 161.76 291.266 161.452 290.988 161.063C290.711 160.67 290.572 160.246 290.572 159.792H292.474C292.493 160.149 292.625 160.422 292.87 160.612C293.116 160.802 293.444 160.896 293.856 160.896C294.24 160.896 294.53 160.825 294.724 160.681C294.923 160.533 295.023 160.341 295.023 160.105ZM301.73 162.32C300.629 162.32 299.731 161.982 299.036 161.306C298.346 160.63 298.002 159.73 298.002 158.605V158.411C298.002 157.656 298.147 156.983 298.439 156.39C298.731 155.793 299.143 155.335 299.675 155.015C300.212 154.691 300.823 154.529 301.508 154.529C302.536 154.529 303.344 154.853 303.931 155.501C304.524 156.149 304.82 157.068 304.82 158.258V159.077H300.036C300.101 159.568 300.295 159.961 300.619 160.258C300.948 160.554 301.362 160.702 301.862 160.702C302.635 160.702 303.239 160.422 303.675 159.862L304.661 160.966C304.36 161.392 303.952 161.725 303.438 161.966C302.925 162.202 302.355 162.32 301.73 162.32ZM301.501 156.154C301.103 156.154 300.779 156.288 300.529 156.557C300.284 156.825 300.126 157.209 300.057 157.709H302.848V157.55C302.839 157.105 302.719 156.763 302.487 156.522C302.256 156.277 301.927 156.154 301.501 156.154Z" fill="black"/>
<path d="M278.212 213.302H274.213V217.433H272.13V207.323H278.712V209.011H274.213V211.621H278.212V213.302ZM283.906 217.433C283.813 217.253 283.746 217.028 283.705 216.76C283.219 217.301 282.587 217.572 281.809 217.572C281.073 217.572 280.462 217.359 279.976 216.933C279.494 216.507 279.254 215.97 279.254 215.322C279.254 214.526 279.548 213.915 280.136 213.489C280.728 213.063 281.582 212.848 282.698 212.843H283.621V212.413C283.621 212.066 283.531 211.788 283.35 211.58C283.175 211.371 282.895 211.267 282.51 211.267C282.172 211.267 281.906 211.348 281.712 211.51C281.522 211.672 281.427 211.895 281.427 212.177H279.42C279.42 211.742 279.555 211.339 279.823 210.969C280.092 210.598 280.471 210.309 280.962 210.101C281.453 209.888 282.003 209.781 282.614 209.781C283.54 209.781 284.274 210.015 284.816 210.483C285.362 210.946 285.635 211.598 285.635 212.441V215.697C285.64 216.41 285.739 216.949 285.934 217.315V217.433H283.906ZM282.246 216.038C282.543 216.038 282.816 215.973 283.066 215.843C283.316 215.709 283.501 215.531 283.621 215.308V214.017H282.871C281.867 214.017 281.332 214.364 281.267 215.058L281.26 215.177C281.26 215.427 281.348 215.633 281.524 215.795C281.7 215.957 281.941 216.038 282.246 216.038ZM289.294 217.433H287.281V206.768H289.294V217.433ZM295.023 215.357C295.023 215.112 294.9 214.92 294.655 214.781C294.414 214.637 294.025 214.51 293.488 214.399C291.701 214.024 290.808 213.265 290.808 212.121C290.808 211.455 291.083 210.899 291.634 210.455C292.19 210.006 292.914 209.781 293.808 209.781C294.761 209.781 295.523 210.006 296.092 210.455C296.666 210.904 296.953 211.487 296.953 212.205H294.946C294.946 211.918 294.854 211.682 294.669 211.496C294.483 211.307 294.194 211.212 293.801 211.212C293.463 211.212 293.201 211.288 293.016 211.441C292.831 211.594 292.738 211.788 292.738 212.024C292.738 212.246 292.842 212.427 293.051 212.566C293.264 212.7 293.62 212.818 294.12 212.92C294.62 213.017 295.041 213.128 295.384 213.253C296.444 213.642 296.974 214.316 296.974 215.274C296.974 215.959 296.68 216.514 296.092 216.94C295.504 217.361 294.745 217.572 293.815 217.572C293.185 217.572 292.625 217.461 292.134 217.239C291.648 217.012 291.266 216.704 290.988 216.315C290.711 215.922 290.572 215.498 290.572 215.045H292.474C292.493 215.401 292.625 215.674 292.87 215.864C293.116 216.054 293.444 216.149 293.856 216.149C294.24 216.149 294.53 216.077 294.724 215.933C294.923 215.785 295.023 215.593 295.023 215.357ZM301.73 217.572C300.629 217.572 299.731 217.234 299.036 216.558C298.346 215.882 298.002 214.982 298.002 213.857V213.663C298.002 212.908 298.147 212.235 298.439 211.642C298.731 211.045 299.143 210.587 299.675 210.267C300.212 209.943 300.823 209.781 301.508 209.781C302.536 209.781 303.344 210.105 303.931 210.753C304.524 211.402 304.82 212.32 304.82 213.51V214.329H300.036C300.101 214.82 300.295 215.214 300.619 215.51C300.948 215.806 301.362 215.954 301.862 215.954C302.635 215.954 303.239 215.674 303.675 215.114L304.661 216.218C304.36 216.644 303.952 216.977 303.438 217.218C302.925 217.454 302.355 217.572 301.73 217.572ZM301.501 211.406C301.103 211.406 300.779 211.54 300.529 211.809C300.284 212.077 300.126 212.462 300.057 212.962H302.848V212.802C302.839 212.357 302.719 212.015 302.487 211.774C302.256 211.529 301.927 211.406 301.501 211.406Z" fill="black"/>
<path d="M222.48 103.68C222.634 103.526 222.634 103.276 222.48 103.121L219.966 100.607C219.812 100.453 219.562 100.453 219.407 100.607C219.253 100.762 219.253 101.012 219.407 101.166L221.642 103.401L219.407 105.635C219.253 105.789 219.253 106.04 219.407 106.194C219.562 106.348 219.812 106.348 219.966 106.194L222.48 103.68ZM129.683 103.796H222.2V103.006H129.683V103.796Z" fill="black"/>
<path d="M222.48 212.606C222.634 212.451 222.634 212.201 222.48 212.047L219.966 209.533C219.812 209.379 219.562 209.379 219.407 209.533C219.253 209.687 219.253 209.938 219.407 210.092L221.642 212.326L219.407 214.561C219.253 214.715 219.253 214.965 219.407 215.12C219.562 215.274 219.812 215.274 219.966 215.12L222.48 212.606ZM129.683 212.721H222.2V211.931H129.683V212.721Z" fill="black"/>
</svg>
