<svg width="1022" height="368" viewBox="0 0 1022 368" fill="none" xmlns="http://www.w3.org/2000/svg">
<rect width="511" height="184" transform="scale(2)" fill="white"/>
<path d="M528.293 128.7C528.684 129.104 529.316 129.125 529.707 128.747L536.067 122.595C536.457 122.218 536.457 121.585 536.067 121.181C535.677 120.778 535.044 120.757 534.654 121.134L529 126.602L523.346 120.757C522.956 120.354 522.323 120.333 521.933 120.71C521.543 121.088 521.543 121.721 521.933 122.124L528.293 128.7ZM528.001 67.95V127.983L529.999 128.05V68.0167L528.001 67.95Z" fill="#828282"/>
<path d="M357.293 128.707C357.683 129.098 358.317 129.098 358.707 128.707L365.071 122.343C365.462 121.953 365.462 121.319 365.071 120.929C364.681 120.538 364.047 120.538 363.657 120.929L358 126.586L352.343 120.929C351.953 120.538 351.319 120.538 350.929 120.929C350.538 121.319 350.538 121.953 350.929 122.343L357.293 128.707ZM357 112V128H359V112H357Z" fill="#828282"/>
<path d="M454 68V82L358 112V128" stroke="#828282"/>
<path d="M698.707 128.707C698.317 129.098 697.683 129.098 697.293 128.707L690.929 122.343C690.538 121.953 690.538 121.319 690.929 120.929C691.319 120.538 691.953 120.538 692.343 120.929L698 126.586L703.657 120.929C704.047 120.538 704.681 120.538 705.071 120.929C705.462 121.319 705.462 121.953 705.071 122.343L698.707 128.707ZM699 112V128H697V112H699Z" fill="#828282"/>
<path d="M588 68V82L698 112V128" stroke="#828282"/>
<rect x="464" y="140" width="130" height="208" fill="#FFFAF5"/>
<path d="M483.402 207.547H476.254L474.648 212H472.328L478.844 194.938H480.812L487.34 212H485.031L483.402 207.547ZM476.934 205.695H482.734L479.828 197.715L476.934 205.695ZM491.348 199.32L491.418 200.914C492.387 199.695 493.652 199.086 495.215 199.086C497.895 199.086 499.246 200.598 499.27 203.621V212H497.102V203.609C497.094 202.695 496.883 202.02 496.469 201.582C496.062 201.145 495.426 200.926 494.559 200.926C493.855 200.926 493.238 201.113 492.707 201.488C492.176 201.863 491.762 202.355 491.465 202.965V212H489.297V199.32H491.348ZM506.688 208.824L509.641 199.32H511.961L506.863 213.957C506.074 216.066 504.82 217.121 503.102 217.121L502.691 217.086L501.883 216.934V215.176L502.469 215.223C503.203 215.223 503.773 215.074 504.18 214.777C504.594 214.48 504.934 213.938 505.199 213.148L505.68 211.859L501.156 199.32H503.523L506.688 208.824ZM519.332 205.555C519.332 203.609 519.793 202.047 520.715 200.867C521.637 199.68 522.844 199.086 524.336 199.086C525.82 199.086 526.996 199.594 527.863 200.609V194H530.031V212H528.039L527.934 210.641C527.066 211.703 525.859 212.234 524.312 212.234C522.844 212.234 521.645 211.633 520.715 210.43C519.793 209.227 519.332 207.656 519.332 205.719V205.555ZM521.5 205.801C521.5 207.238 521.797 208.363 522.391 209.176C522.984 209.988 523.805 210.395 524.852 210.395C526.227 210.395 527.23 209.777 527.863 208.543V202.719C527.215 201.523 526.219 200.926 524.875 200.926C523.812 200.926 522.984 201.336 522.391 202.156C521.797 202.977 521.5 204.191 521.5 205.801ZM535.762 212H533.594V199.32H535.762V212ZM533.418 195.957C533.418 195.605 533.523 195.309 533.734 195.066C533.953 194.824 534.273 194.703 534.695 194.703C535.117 194.703 535.438 194.824 535.656 195.066C535.875 195.309 535.984 195.605 535.984 195.957C535.984 196.309 535.875 196.602 535.656 196.836C535.438 197.07 535.117 197.188 534.695 197.188C534.273 197.188 533.953 197.07 533.734 196.836C533.523 196.602 533.418 196.309 533.418 195.957ZM538.727 205.555C538.727 203.578 539.184 202.008 540.098 200.844C541.012 199.672 542.223 199.086 543.73 199.086C545.277 199.086 546.484 199.633 547.352 200.727L547.457 199.32H549.438V211.695C549.438 213.336 548.949 214.629 547.973 215.574C547.004 216.52 545.699 216.992 544.059 216.992C543.145 216.992 542.25 216.797 541.375 216.406C540.5 216.016 539.832 215.48 539.371 214.801L540.496 213.5C541.426 214.648 542.562 215.223 543.906 215.223C544.961 215.223 545.781 214.926 546.367 214.332C546.961 213.738 547.258 212.902 547.258 211.824V210.734C546.391 211.734 545.207 212.234 543.707 212.234C542.223 212.234 541.02 211.637 540.098 210.441C539.184 209.246 538.727 207.617 538.727 205.555ZM540.906 205.801C540.906 207.23 541.199 208.355 541.785 209.176C542.371 209.988 543.191 210.395 544.246 210.395C545.613 210.395 546.617 209.773 547.258 208.531V202.742C546.594 201.531 545.598 200.926 544.27 200.926C543.215 200.926 542.391 201.336 541.797 202.156C541.203 202.977 540.906 204.191 540.906 205.801ZM555.074 212H552.906V199.32H555.074V212ZM552.73 195.957C552.73 195.605 552.836 195.309 553.047 195.066C553.266 194.824 553.586 194.703 554.008 194.703C554.43 194.703 554.75 194.824 554.969 195.066C555.188 195.309 555.297 195.605 555.297 195.957C555.297 196.309 555.188 196.602 554.969 196.836C554.75 197.07 554.43 197.188 554.008 197.188C553.586 197.188 553.266 197.07 553.047 196.836C552.836 196.602 552.73 196.309 552.73 195.957ZM561.496 196.25V199.32H563.863V200.996H561.496V208.859C561.496 209.367 561.602 209.75 561.812 210.008C562.023 210.258 562.383 210.383 562.891 210.383C563.141 210.383 563.484 210.336 563.922 210.242V212C563.352 212.156 562.797 212.234 562.258 212.234C561.289 212.234 560.559 211.941 560.066 211.355C559.574 210.77 559.328 209.938 559.328 208.859V200.996H557.02V199.32H559.328V196.25H561.496ZM484.375 235.801C484.375 237.738 483.93 239.297 483.039 240.477C482.148 241.648 480.953 242.234 479.453 242.234C477.852 242.234 476.613 241.668 475.738 240.535L475.633 242H473.641V224H475.809V230.715C476.684 229.629 477.891 229.086 479.43 229.086C480.969 229.086 482.176 229.668 483.051 230.832C483.934 231.996 484.375 233.59 484.375 235.613V235.801ZM482.207 235.555C482.207 234.078 481.922 232.938 481.352 232.133C480.781 231.328 479.961 230.926 478.891 230.926C477.461 230.926 476.434 231.59 475.809 232.918V238.402C476.473 239.73 477.508 240.395 478.914 240.395C479.953 240.395 480.762 239.992 481.34 239.188C481.918 238.383 482.207 237.172 482.207 235.555ZM492.379 242.234C490.66 242.234 489.262 241.672 488.184 240.547C487.105 239.414 486.566 237.902 486.566 236.012V235.613C486.566 234.355 486.805 233.234 487.281 232.25C487.766 231.258 488.438 230.484 489.297 229.93C490.164 229.367 491.102 229.086 492.109 229.086C493.758 229.086 495.039 229.629 495.953 230.715C496.867 231.801 497.324 233.355 497.324 235.379V236.281H488.734C488.766 237.531 489.129 238.543 489.824 239.316C490.527 240.082 491.418 240.465 492.496 240.465C493.262 240.465 493.91 240.309 494.441 239.996C494.973 239.684 495.438 239.27 495.836 238.754L497.16 239.785C496.098 241.418 494.504 242.234 492.379 242.234ZM492.109 230.867C491.234 230.867 490.5 231.188 489.906 231.828C489.312 232.461 488.945 233.352 488.805 234.5H495.156V234.336C495.094 233.234 494.797 232.383 494.266 231.781C493.734 231.172 493.016 230.867 492.109 230.867ZM502.785 226.25V229.32H505.152V230.996H502.785V238.859C502.785 239.367 502.891 239.75 503.102 240.008C503.312 240.258 503.672 240.383 504.18 240.383C504.43 240.383 504.773 240.336 505.211 240.242V242C504.641 242.156 504.086 242.234 503.547 242.234C502.578 242.234 501.848 241.941 501.355 241.355C500.863 240.77 500.617 239.938 500.617 238.859V230.996H498.309V229.32H500.617V226.25H502.785ZM518.922 239.012L521.359 229.32H523.527L519.836 242H518.078L514.996 232.391L511.996 242H510.238L506.559 229.32H508.715L511.211 238.812L514.164 229.32H515.91L518.922 239.012ZM531.004 242.234C529.285 242.234 527.887 241.672 526.809 240.547C525.73 239.414 525.191 237.902 525.191 236.012V235.613C525.191 234.355 525.43 233.234 525.906 232.25C526.391 231.258 527.062 230.484 527.922 229.93C528.789 229.367 529.727 229.086 530.734 229.086C532.383 229.086 533.664 229.629 534.578 230.715C535.492 231.801 535.949 233.355 535.949 235.379V236.281H527.359C527.391 237.531 527.754 238.543 528.449 239.316C529.152 240.082 530.043 240.465 531.121 240.465C531.887 240.465 532.535 240.309 533.066 239.996C533.598 239.684 534.062 239.27 534.461 238.754L535.785 239.785C534.723 241.418 533.129 242.234 531.004 242.234ZM530.734 230.867C529.859 230.867 529.125 231.188 528.531 231.828C527.938 232.461 527.57 233.352 527.43 234.5H533.781V234.336C533.719 233.234 533.422 232.383 532.891 231.781C532.359 231.172 531.641 230.867 530.734 230.867ZM543.73 242.234C542.012 242.234 540.613 241.672 539.535 240.547C538.457 239.414 537.918 237.902 537.918 236.012V235.613C537.918 234.355 538.156 233.234 538.633 232.25C539.117 231.258 539.789 230.484 540.648 229.93C541.516 229.367 542.453 229.086 543.461 229.086C545.109 229.086 546.391 229.629 547.305 230.715C548.219 231.801 548.676 233.355 548.676 235.379V236.281H540.086C540.117 237.531 540.48 238.543 541.176 239.316C541.879 240.082 542.77 240.465 543.848 240.465C544.613 240.465 545.262 240.309 545.793 239.996C546.324 239.684 546.789 239.27 547.188 238.754L548.512 239.785C547.449 241.418 545.855 242.234 543.73 242.234ZM543.461 230.867C542.586 230.867 541.852 231.188 541.258 231.828C540.664 232.461 540.297 233.352 540.156 234.5H546.508V234.336C546.445 233.234 546.148 232.383 545.617 231.781C545.086 231.172 544.367 230.867 543.461 230.867ZM553.246 229.32L553.316 230.914C554.285 229.695 555.551 229.086 557.113 229.086C559.793 229.086 561.145 230.598 561.168 233.621V242H559V233.609C558.992 232.695 558.781 232.02 558.367 231.582C557.961 231.145 557.324 230.926 556.457 230.926C555.754 230.926 555.137 231.113 554.605 231.488C554.074 231.863 553.66 232.355 553.363 232.965V242H551.195V229.32H553.246ZM481.469 272C481.344 271.75 481.242 271.305 481.164 270.664C480.156 271.711 478.953 272.234 477.555 272.234C476.305 272.234 475.277 271.883 474.473 271.18C473.676 270.469 473.277 269.57 473.277 268.484C473.277 267.164 473.777 266.141 474.777 265.414C475.785 264.68 477.199 264.312 479.02 264.312H481.129V263.316C481.129 262.559 480.902 261.957 480.449 261.512C479.996 261.059 479.328 260.832 478.445 260.832C477.672 260.832 477.023 261.027 476.5 261.418C475.977 261.809 475.715 262.281 475.715 262.836H473.535C473.535 262.203 473.758 261.594 474.203 261.008C474.656 260.414 475.266 259.945 476.031 259.602C476.805 259.258 477.652 259.086 478.574 259.086C480.035 259.086 481.18 259.453 482.008 260.188C482.836 260.914 483.266 261.918 483.297 263.199V269.035C483.297 270.199 483.445 271.125 483.742 271.812V272H481.469ZM477.871 270.348C478.551 270.348 479.195 270.172 479.805 269.82C480.414 269.469 480.855 269.012 481.129 268.449V265.848H479.43C476.773 265.848 475.445 266.625 475.445 268.18C475.445 268.859 475.672 269.391 476.125 269.773C476.578 270.156 477.16 270.348 477.871 270.348ZM488.746 259.32L488.816 260.914C489.785 259.695 491.051 259.086 492.613 259.086C495.293 259.086 496.645 260.598 496.668 263.621V272H494.5V263.609C494.492 262.695 494.281 262.02 493.867 261.582C493.461 261.145 492.824 260.926 491.957 260.926C491.254 260.926 490.637 261.113 490.105 261.488C489.574 261.863 489.16 262.355 488.863 262.965V272H486.695V259.32H488.746ZM499.41 265.555C499.41 263.609 499.871 262.047 500.793 260.867C501.715 259.68 502.922 259.086 504.414 259.086C505.898 259.086 507.074 259.594 507.941 260.609V254H510.109V272H508.117L508.012 270.641C507.145 271.703 505.938 272.234 504.391 272.234C502.922 272.234 501.723 271.633 500.793 270.43C499.871 269.227 499.41 267.656 499.41 265.719V265.555ZM501.578 265.801C501.578 267.238 501.875 268.363 502.469 269.176C503.062 269.988 503.883 270.395 504.93 270.395C506.305 270.395 507.309 269.777 507.941 268.543V262.719C507.293 261.523 506.297 260.926 504.953 260.926C503.891 260.926 503.062 261.336 502.469 262.156C501.875 262.977 501.578 264.191 501.578 265.801Z" fill="black"/>
<path d="M575.95 242.288C574.206 242.288 572.822 241.6 571.798 240.224C570.79 238.848 570.286 236.872 570.286 234.296C570.286 231.704 570.79 229.752 571.798 228.44C572.822 227.112 574.206 226.448 575.95 226.448C577.694 226.448 579.07 227.112 580.078 228.44C581.102 229.752 581.614 231.704 581.614 234.296C581.614 236.872 581.102 238.848 580.078 240.224C579.07 241.6 577.694 242.288 575.95 242.288ZM575.95 228.608C575.486 228.608 575.062 228.712 574.678 228.92C574.294 229.112 573.958 229.432 573.67 229.88C573.398 230.328 573.182 230.92 573.022 231.656C572.862 232.376 572.782 233.256 572.782 234.296C572.782 235.336 572.862 236.232 573.022 236.984C573.182 237.72 573.398 238.32 573.67 238.784C573.958 239.248 574.294 239.592 574.678 239.816C575.062 240.024 575.486 240.128 575.95 240.128C576.398 240.128 576.814 240.024 577.198 239.816C577.598 239.592 577.934 239.248 578.206 238.784C578.494 238.32 578.718 237.72 578.878 236.984C579.038 236.232 579.118 235.336 579.118 234.296C579.118 233.256 579.038 232.376 578.878 231.656C578.718 230.92 578.494 230.328 578.206 229.88C577.934 229.432 577.598 229.112 577.198 228.92C576.814 228.712 576.398 228.608 575.95 228.608ZM575.95 235.904C575.486 235.904 575.094 235.752 574.774 235.448C574.454 235.144 574.294 234.728 574.294 234.2C574.294 233.672 574.454 233.256 574.774 232.952C575.094 232.648 575.486 232.496 575.95 232.496C576.414 232.496 576.806 232.648 577.126 232.952C577.446 233.256 577.606 233.672 577.606 234.2C577.606 234.728 577.446 235.144 577.126 235.448C576.806 235.752 576.414 235.904 575.95 235.904ZM524.541 264.176C525.069 264.176 525.621 264.04 526.197 263.768C526.773 263.496 527.341 263.032 527.901 262.376C527.725 261.032 527.341 260.064 526.749 259.472C526.157 258.864 525.429 258.56 524.565 258.56C524.181 258.56 523.821 258.624 523.485 258.752C523.149 258.88 522.853 259.064 522.597 259.304C522.357 259.544 522.157 259.848 521.997 260.216C521.853 260.568 521.781 260.976 521.781 261.44C521.781 262.352 522.021 263.04 522.501 263.504C522.997 263.952 523.677 264.176 524.541 264.176ZM520.965 268.88C521.333 269.216 521.765 269.496 522.261 269.72C522.757 269.928 523.285 270.032 523.845 270.032C524.373 270.032 524.877 269.936 525.357 269.744C525.853 269.552 526.285 269.232 526.653 268.784C527.037 268.336 527.349 267.752 527.589 267.032C527.829 266.296 527.965 265.4 527.997 264.344C527.389 264.904 526.733 265.352 526.029 265.688C525.341 266.008 524.661 266.168 523.989 266.168C523.301 266.168 522.661 266.072 522.069 265.88C521.493 265.688 520.997 265.4 520.581 265.016C520.165 264.616 519.837 264.12 519.597 263.528C519.357 262.936 519.237 262.24 519.237 261.44C519.237 260.672 519.381 259.984 519.669 259.376C519.957 258.752 520.341 258.224 520.821 257.792C521.301 257.36 521.861 257.032 522.501 256.808C523.141 256.568 523.813 256.448 524.517 256.448C525.333 256.448 526.101 256.6 526.821 256.904C527.557 257.192 528.197 257.64 528.741 258.248C529.301 258.856 529.741 259.632 530.061 260.576C530.381 261.504 530.541 262.608 530.541 263.888C530.541 265.376 530.357 266.648 529.989 267.704C529.637 268.76 529.157 269.632 528.549 270.32C527.957 270.992 527.269 271.488 526.485 271.808C525.701 272.128 524.893 272.288 524.061 272.288C523.053 272.288 522.165 272.12 521.397 271.784C520.629 271.448 519.989 271.04 519.477 270.56L520.965 268.88Z" fill="#B82629"/>
<path d="M497.388 159.771H504.252V161.283H499.524V178.899H504.252V180.411H497.388V159.771ZM522.93 167.835H533.586V169.851H522.93V167.835ZM556.991 178.899V161.283H552.287V159.771H559.151V180.411H552.287V178.899H556.991Z" fill="#219653"/>
<path d="M513.867 177.051C512.123 177.051 510.739 176.363 509.715 174.987C508.707 173.611 508.203 171.635 508.203 169.059C508.203 166.467 508.707 164.515 509.715 163.203C510.739 161.875 512.123 161.211 513.867 161.211C515.611 161.211 516.987 161.875 517.995 163.203C519.019 164.515 519.531 166.467 519.531 169.059C519.531 171.635 519.019 173.611 517.995 174.987C516.987 176.363 515.611 177.051 513.867 177.051ZM513.867 163.371C513.403 163.371 512.979 163.475 512.595 163.683C512.211 163.875 511.875 164.195 511.587 164.643C511.315 165.091 511.099 165.683 510.939 166.419C510.779 167.139 510.699 168.019 510.699 169.059C510.699 170.099 510.779 170.995 510.939 171.747C511.099 172.483 511.315 173.083 511.587 173.547C511.875 174.011 512.211 174.355 512.595 174.579C512.979 174.787 513.403 174.891 513.867 174.891C514.315 174.891 514.731 174.787 515.115 174.579C515.515 174.355 515.851 174.011 516.123 173.547C516.411 173.083 516.635 172.483 516.795 171.747C516.955 170.995 517.035 170.099 517.035 169.059C517.035 168.019 516.955 167.139 516.795 166.419C516.635 165.683 516.411 165.091 516.123 164.643C515.851 164.195 515.515 163.875 515.115 163.683C514.731 163.475 514.315 163.371 513.867 163.371ZM513.867 170.667C513.403 170.667 513.011 170.515 512.691 170.211C512.371 169.907 512.211 169.491 512.211 168.963C512.211 168.435 512.371 168.019 512.691 167.715C513.011 167.411 513.403 167.259 513.867 167.259C514.331 167.259 514.723 167.411 515.043 167.715C515.363 168.019 515.523 168.435 515.523 168.963C515.523 169.491 515.363 169.907 515.043 170.211C514.723 170.515 514.331 170.667 513.867 170.667ZM542.192 168.939C542.72 168.939 543.272 168.803 543.848 168.531C544.424 168.259 544.992 167.795 545.552 167.139C545.376 165.795 544.992 164.827 544.4 164.235C543.808 163.627 543.08 163.323 542.216 163.323C541.832 163.323 541.472 163.387 541.136 163.515C540.8 163.643 540.504 163.827 540.248 164.067C540.008 164.307 539.808 164.611 539.648 164.979C539.504 165.331 539.432 165.739 539.432 166.203C539.432 167.115 539.672 167.803 540.152 168.267C540.648 168.715 541.328 168.939 542.192 168.939ZM538.616 173.643C538.984 173.979 539.416 174.259 539.912 174.483C540.408 174.691 540.936 174.795 541.496 174.795C542.024 174.795 542.528 174.699 543.008 174.507C543.504 174.315 543.936 173.995 544.304 173.547C544.688 173.099 545 172.515 545.24 171.795C545.48 171.059 545.616 170.163 545.648 169.107C545.04 169.667 544.384 170.115 543.68 170.451C542.992 170.771 542.312 170.931 541.64 170.931C540.952 170.931 540.312 170.835 539.72 170.643C539.144 170.451 538.648 170.163 538.232 169.779C537.816 169.379 537.488 168.883 537.248 168.291C537.008 167.699 536.888 167.003 536.888 166.203C536.888 165.435 537.032 164.747 537.32 164.139C537.608 163.515 537.992 162.987 538.472 162.555C538.952 162.123 539.512 161.795 540.152 161.571C540.792 161.331 541.464 161.211 542.168 161.211C542.984 161.211 543.752 161.363 544.472 161.667C545.208 161.955 545.848 162.403 546.392 163.011C546.952 163.619 547.392 164.395 547.712 165.339C548.032 166.267 548.192 167.371 548.192 168.651C548.192 170.139 548.008 171.411 547.64 172.467C547.288 173.523 546.808 174.395 546.2 175.083C545.608 175.755 544.92 176.251 544.136 176.571C543.352 176.891 542.544 177.051 541.712 177.051C540.704 177.051 539.816 176.883 539.048 176.547C538.28 176.211 537.64 175.803 537.128 175.323L538.616 173.643Z" fill="#B82629"/>
<rect x="290" y="140" width="130" height="208" fill="#FFFAF5"/>
<path d="M309.402 207.547H302.254L300.648 212H298.328L304.844 194.938H306.812L313.34 212H311.031L309.402 207.547ZM302.934 205.695H308.734L305.828 197.715L302.934 205.695ZM317.348 199.32L317.418 200.914C318.387 199.695 319.652 199.086 321.215 199.086C323.895 199.086 325.246 200.598 325.27 203.621V212H323.102V203.609C323.094 202.695 322.883 202.02 322.469 201.582C322.062 201.145 321.426 200.926 320.559 200.926C319.855 200.926 319.238 201.113 318.707 201.488C318.176 201.863 317.762 202.355 317.465 202.965V212H315.297V199.32H317.348ZM332.688 208.824L335.641 199.32H337.961L332.863 213.957C332.074 216.066 330.82 217.121 329.102 217.121L328.691 217.086L327.883 216.934V215.176L328.469 215.223C329.203 215.223 329.773 215.074 330.18 214.777C330.594 214.48 330.934 213.938 331.199 213.148L331.68 211.859L327.156 199.32H329.523L332.688 208.824ZM345.332 205.555C345.332 203.609 345.793 202.047 346.715 200.867C347.637 199.68 348.844 199.086 350.336 199.086C351.82 199.086 352.996 199.594 353.863 200.609V194H356.031V212H354.039L353.934 210.641C353.066 211.703 351.859 212.234 350.312 212.234C348.844 212.234 347.645 211.633 346.715 210.43C345.793 209.227 345.332 207.656 345.332 205.719V205.555ZM347.5 205.801C347.5 207.238 347.797 208.363 348.391 209.176C348.984 209.988 349.805 210.395 350.852 210.395C352.227 210.395 353.23 209.777 353.863 208.543V202.719C353.215 201.523 352.219 200.926 350.875 200.926C349.812 200.926 348.984 201.336 348.391 202.156C347.797 202.977 347.5 204.191 347.5 205.801ZM361.762 212H359.594V199.32H361.762V212ZM359.418 195.957C359.418 195.605 359.523 195.309 359.734 195.066C359.953 194.824 360.273 194.703 360.695 194.703C361.117 194.703 361.438 194.824 361.656 195.066C361.875 195.309 361.984 195.605 361.984 195.957C361.984 196.309 361.875 196.602 361.656 196.836C361.438 197.07 361.117 197.188 360.695 197.188C360.273 197.188 359.953 197.07 359.734 196.836C359.523 196.602 359.418 196.309 359.418 195.957ZM364.727 205.555C364.727 203.578 365.184 202.008 366.098 200.844C367.012 199.672 368.223 199.086 369.73 199.086C371.277 199.086 372.484 199.633 373.352 200.727L373.457 199.32H375.438V211.695C375.438 213.336 374.949 214.629 373.973 215.574C373.004 216.52 371.699 216.992 370.059 216.992C369.145 216.992 368.25 216.797 367.375 216.406C366.5 216.016 365.832 215.48 365.371 214.801L366.496 213.5C367.426 214.648 368.562 215.223 369.906 215.223C370.961 215.223 371.781 214.926 372.367 214.332C372.961 213.738 373.258 212.902 373.258 211.824V210.734C372.391 211.734 371.207 212.234 369.707 212.234C368.223 212.234 367.02 211.637 366.098 210.441C365.184 209.246 364.727 207.617 364.727 205.555ZM366.906 205.801C366.906 207.23 367.199 208.355 367.785 209.176C368.371 209.988 369.191 210.395 370.246 210.395C371.613 210.395 372.617 209.773 373.258 208.531V202.742C372.594 201.531 371.598 200.926 370.27 200.926C369.215 200.926 368.391 201.336 367.797 202.156C367.203 202.977 366.906 204.191 366.906 205.801ZM381.074 212H378.906V199.32H381.074V212ZM378.73 195.957C378.73 195.605 378.836 195.309 379.047 195.066C379.266 194.824 379.586 194.703 380.008 194.703C380.43 194.703 380.75 194.824 380.969 195.066C381.188 195.309 381.297 195.605 381.297 195.957C381.297 196.309 381.188 196.602 380.969 196.836C380.75 197.07 380.43 197.188 380.008 197.188C379.586 197.188 379.266 197.07 379.047 196.836C378.836 196.602 378.73 196.309 378.73 195.957ZM387.496 196.25V199.32H389.863V200.996H387.496V208.859C387.496 209.367 387.602 209.75 387.812 210.008C388.023 210.258 388.383 210.383 388.891 210.383C389.141 210.383 389.484 210.336 389.922 210.242V212C389.352 212.156 388.797 212.234 388.258 212.234C387.289 212.234 386.559 211.941 386.066 211.355C385.574 210.77 385.328 209.938 385.328 208.859V200.996H383.02V199.32H385.328V196.25H387.496ZM310.375 235.801C310.375 237.738 309.93 239.297 309.039 240.477C308.148 241.648 306.953 242.234 305.453 242.234C303.852 242.234 302.613 241.668 301.738 240.535L301.633 242H299.641V224H301.809V230.715C302.684 229.629 303.891 229.086 305.43 229.086C306.969 229.086 308.176 229.668 309.051 230.832C309.934 231.996 310.375 233.59 310.375 235.613V235.801ZM308.207 235.555C308.207 234.078 307.922 232.938 307.352 232.133C306.781 231.328 305.961 230.926 304.891 230.926C303.461 230.926 302.434 231.59 301.809 232.918V238.402C302.473 239.73 303.508 240.395 304.914 240.395C305.953 240.395 306.762 239.992 307.34 239.188C307.918 238.383 308.207 237.172 308.207 235.555ZM318.379 242.234C316.66 242.234 315.262 241.672 314.184 240.547C313.105 239.414 312.566 237.902 312.566 236.012V235.613C312.566 234.355 312.805 233.234 313.281 232.25C313.766 231.258 314.438 230.484 315.297 229.93C316.164 229.367 317.102 229.086 318.109 229.086C319.758 229.086 321.039 229.629 321.953 230.715C322.867 231.801 323.324 233.355 323.324 235.379V236.281H314.734C314.766 237.531 315.129 238.543 315.824 239.316C316.527 240.082 317.418 240.465 318.496 240.465C319.262 240.465 319.91 240.309 320.441 239.996C320.973 239.684 321.438 239.27 321.836 238.754L323.16 239.785C322.098 241.418 320.504 242.234 318.379 242.234ZM318.109 230.867C317.234 230.867 316.5 231.188 315.906 231.828C315.312 232.461 314.945 233.352 314.805 234.5H321.156V234.336C321.094 233.234 320.797 232.383 320.266 231.781C319.734 231.172 319.016 230.867 318.109 230.867ZM328.785 226.25V229.32H331.152V230.996H328.785V238.859C328.785 239.367 328.891 239.75 329.102 240.008C329.312 240.258 329.672 240.383 330.18 240.383C330.43 240.383 330.773 240.336 331.211 240.242V242C330.641 242.156 330.086 242.234 329.547 242.234C328.578 242.234 327.848 241.941 327.355 241.355C326.863 240.77 326.617 239.938 326.617 238.859V230.996H324.309V229.32H326.617V226.25H328.785ZM344.922 239.012L347.359 229.32H349.527L345.836 242H344.078L340.996 232.391L337.996 242H336.238L332.559 229.32H334.715L337.211 238.812L340.164 229.32H341.91L344.922 239.012ZM357.004 242.234C355.285 242.234 353.887 241.672 352.809 240.547C351.73 239.414 351.191 237.902 351.191 236.012V235.613C351.191 234.355 351.43 233.234 351.906 232.25C352.391 231.258 353.062 230.484 353.922 229.93C354.789 229.367 355.727 229.086 356.734 229.086C358.383 229.086 359.664 229.629 360.578 230.715C361.492 231.801 361.949 233.355 361.949 235.379V236.281H353.359C353.391 237.531 353.754 238.543 354.449 239.316C355.152 240.082 356.043 240.465 357.121 240.465C357.887 240.465 358.535 240.309 359.066 239.996C359.598 239.684 360.062 239.27 360.461 238.754L361.785 239.785C360.723 241.418 359.129 242.234 357.004 242.234ZM356.734 230.867C355.859 230.867 355.125 231.188 354.531 231.828C353.938 232.461 353.57 233.352 353.43 234.5H359.781V234.336C359.719 233.234 359.422 232.383 358.891 231.781C358.359 231.172 357.641 230.867 356.734 230.867ZM369.73 242.234C368.012 242.234 366.613 241.672 365.535 240.547C364.457 239.414 363.918 237.902 363.918 236.012V235.613C363.918 234.355 364.156 233.234 364.633 232.25C365.117 231.258 365.789 230.484 366.648 229.93C367.516 229.367 368.453 229.086 369.461 229.086C371.109 229.086 372.391 229.629 373.305 230.715C374.219 231.801 374.676 233.355 374.676 235.379V236.281H366.086C366.117 237.531 366.48 238.543 367.176 239.316C367.879 240.082 368.77 240.465 369.848 240.465C370.613 240.465 371.262 240.309 371.793 239.996C372.324 239.684 372.789 239.27 373.188 238.754L374.512 239.785C373.449 241.418 371.855 242.234 369.73 242.234ZM369.461 230.867C368.586 230.867 367.852 231.188 367.258 231.828C366.664 232.461 366.297 233.352 366.156 234.5H372.508V234.336C372.445 233.234 372.148 232.383 371.617 231.781C371.086 231.172 370.367 230.867 369.461 230.867ZM379.246 229.32L379.316 230.914C380.285 229.695 381.551 229.086 383.113 229.086C385.793 229.086 387.145 230.598 387.168 233.621V242H385V233.609C384.992 232.695 384.781 232.02 384.367 231.582C383.961 231.145 383.324 230.926 382.457 230.926C381.754 230.926 381.137 231.113 380.605 231.488C380.074 231.863 379.66 232.355 379.363 232.965V242H377.195V229.32H379.246ZM307.469 272C307.344 271.75 307.242 271.305 307.164 270.664C306.156 271.711 304.953 272.234 303.555 272.234C302.305 272.234 301.277 271.883 300.473 271.18C299.676 270.469 299.277 269.57 299.277 268.484C299.277 267.164 299.777 266.141 300.777 265.414C301.785 264.68 303.199 264.312 305.02 264.312H307.129V263.316C307.129 262.559 306.902 261.957 306.449 261.512C305.996 261.059 305.328 260.832 304.445 260.832C303.672 260.832 303.023 261.027 302.5 261.418C301.977 261.809 301.715 262.281 301.715 262.836H299.535C299.535 262.203 299.758 261.594 300.203 261.008C300.656 260.414 301.266 259.945 302.031 259.602C302.805 259.258 303.652 259.086 304.574 259.086C306.035 259.086 307.18 259.453 308.008 260.188C308.836 260.914 309.266 261.918 309.297 263.199V269.035C309.297 270.199 309.445 271.125 309.742 271.812V272H307.469ZM303.871 270.348C304.551 270.348 305.195 270.172 305.805 269.82C306.414 269.469 306.855 269.012 307.129 268.449V265.848H305.43C302.773 265.848 301.445 266.625 301.445 268.18C301.445 268.859 301.672 269.391 302.125 269.773C302.578 270.156 303.16 270.348 303.871 270.348ZM314.746 259.32L314.816 260.914C315.785 259.695 317.051 259.086 318.613 259.086C321.293 259.086 322.645 260.598 322.668 263.621V272H320.5V263.609C320.492 262.695 320.281 262.02 319.867 261.582C319.461 261.145 318.824 260.926 317.957 260.926C317.254 260.926 316.637 261.113 316.105 261.488C315.574 261.863 315.16 262.355 314.863 262.965V272H312.695V259.32H314.746ZM325.41 265.555C325.41 263.609 325.871 262.047 326.793 260.867C327.715 259.68 328.922 259.086 330.414 259.086C331.898 259.086 333.074 259.594 333.941 260.609V254H336.109V272H334.117L334.012 270.641C333.145 271.703 331.938 272.234 330.391 272.234C328.922 272.234 327.723 271.633 326.793 270.43C325.871 269.227 325.41 267.656 325.41 265.719V265.555ZM327.578 265.801C327.578 267.238 327.875 268.363 328.469 269.176C329.062 269.988 329.883 270.395 330.93 270.395C332.305 270.395 333.309 269.777 333.941 268.543V262.719C333.293 261.523 332.297 260.926 330.953 260.926C329.891 260.926 329.062 261.336 328.469 262.156C327.875 262.977 327.578 264.191 327.578 265.801Z" fill="black"/>
<path d="M407.542 239.744V242H396.91V239.744H401.038V229.712H397.846V227.984C398.71 227.84 399.446 227.672 400.054 227.48C400.678 227.272 401.254 227.024 401.782 226.736H403.798V239.744H407.542ZM345.357 270.392C346.557 269.368 347.629 268.432 348.573 267.584C349.517 266.72 350.317 265.92 350.973 265.184C351.645 264.448 352.157 263.76 352.509 263.12C352.861 262.48 353.037 261.864 353.037 261.272C353.037 260.456 352.789 259.816 352.293 259.352C351.797 258.872 351.069 258.632 350.109 258.632C349.437 258.632 348.821 258.8 348.261 259.136C347.717 259.472 347.213 259.872 346.749 260.336L345.237 258.8C345.973 258.048 346.749 257.472 347.565 257.072C348.381 256.656 349.349 256.448 350.469 256.448C351.253 256.448 351.965 256.56 352.605 256.784C353.245 257.008 353.789 257.328 354.237 257.744C354.701 258.144 355.053 258.632 355.293 259.208C355.549 259.784 355.677 260.424 355.677 261.128C355.677 261.8 355.509 262.488 355.173 263.192C354.853 263.88 354.413 264.584 353.853 265.304C353.293 266.008 352.621 266.736 351.837 267.488C351.069 268.24 350.245 269.016 349.365 269.816C349.813 269.784 350.285 269.752 350.781 269.72C351.277 269.672 351.733 269.648 352.149 269.648H356.469V272H345.357V270.392Z" fill="#B82629"/>
<path d="M323.388 157.151H330.252V158.663H325.524V176.279H330.252V177.791H323.388V157.151ZM348.929 165.215H359.585V167.231H348.929V165.215ZM382.991 176.279V158.663H378.287V157.151H385.151V177.791H378.287V176.279H382.991Z" fill="#219653"/>
<path d="M345.459 171.887V174.143H334.827V171.887H338.955V161.855H335.763V160.127C336.627 159.983 337.363 159.815 337.971 159.623C338.595 159.415 339.171 159.167 339.699 158.879H341.715V171.887H345.459ZM363.008 172.535C364.208 171.511 365.28 170.575 366.224 169.727C367.168 168.863 367.968 168.063 368.624 167.327C369.296 166.591 369.808 165.903 370.16 165.263C370.512 164.623 370.688 164.007 370.688 163.415C370.688 162.599 370.44 161.959 369.944 161.495C369.448 161.015 368.72 160.775 367.76 160.775C367.088 160.775 366.472 160.943 365.912 161.279C365.368 161.615 364.864 162.015 364.4 162.479L362.888 160.943C363.624 160.191 364.4 159.615 365.216 159.215C366.032 158.799 367 158.591 368.12 158.591C368.904 158.591 369.616 158.703 370.256 158.927C370.896 159.151 371.44 159.471 371.888 159.887C372.352 160.287 372.704 160.775 372.944 161.351C373.2 161.927 373.328 162.567 373.328 163.271C373.328 163.943 373.16 164.631 372.824 165.335C372.504 166.023 372.064 166.727 371.504 167.447C370.944 168.151 370.272 168.879 369.488 169.631C368.72 170.383 367.896 171.159 367.016 171.959C367.464 171.927 367.936 171.895 368.432 171.863C368.928 171.815 369.384 171.791 369.8 171.791H374.12V174.143H363.008V172.535Z" fill="#B82629"/>
<rect x="638" y="140" width="130" height="208" fill="#FFFAF5"/>
<path d="M654.238 205.098H650.23V212H647.969V194.938H653.617C655.539 194.938 657.016 195.375 658.047 196.25C659.086 197.125 659.605 198.398 659.605 200.07C659.605 201.133 659.316 202.059 658.738 202.848C658.168 203.637 657.371 204.227 656.348 204.617L660.355 211.859V212H657.941L654.238 205.098ZM650.23 203.258H653.688C654.805 203.258 655.691 202.969 656.348 202.391C657.012 201.812 657.344 201.039 657.344 200.07C657.344 199.016 657.027 198.207 656.395 197.645C655.77 197.082 654.863 196.797 653.676 196.789H650.23V203.258ZM667.691 212.234C665.973 212.234 664.574 211.672 663.496 210.547C662.418 209.414 661.879 207.902 661.879 206.012V205.613C661.879 204.355 662.117 203.234 662.594 202.25C663.078 201.258 663.75 200.484 664.609 199.93C665.477 199.367 666.414 199.086 667.422 199.086C669.07 199.086 670.352 199.629 671.266 200.715C672.18 201.801 672.637 203.355 672.637 205.379V206.281H664.047C664.078 207.531 664.441 208.543 665.137 209.316C665.84 210.082 666.73 210.465 667.809 210.465C668.574 210.465 669.223 210.309 669.754 209.996C670.285 209.684 670.75 209.27 671.148 208.754L672.473 209.785C671.41 211.418 669.816 212.234 667.691 212.234ZM667.422 200.867C666.547 200.867 665.812 201.188 665.219 201.828C664.625 202.461 664.258 203.352 664.117 204.5H670.469V204.336C670.406 203.234 670.109 202.383 669.578 201.781C669.047 201.172 668.328 200.867 667.422 200.867ZM685.867 205.801C685.867 207.73 685.426 209.285 684.543 210.465C683.66 211.645 682.465 212.234 680.957 212.234C679.418 212.234 678.207 211.746 677.324 210.77V216.875H675.156V199.32H677.137L677.242 200.727C678.125 199.633 679.352 199.086 680.922 199.086C682.445 199.086 683.648 199.66 684.531 200.809C685.422 201.957 685.867 203.555 685.867 205.602V205.801ZM683.699 205.555C683.699 204.125 683.395 202.996 682.785 202.168C682.176 201.34 681.34 200.926 680.277 200.926C678.965 200.926 677.98 201.508 677.324 202.672V208.73C677.973 209.887 678.965 210.465 680.301 210.465C681.34 210.465 682.164 210.055 682.773 209.234C683.391 208.406 683.699 207.18 683.699 205.555ZM693.895 212.234C692.176 212.234 690.777 211.672 689.699 210.547C688.621 209.414 688.082 207.902 688.082 206.012V205.613C688.082 204.355 688.32 203.234 688.797 202.25C689.281 201.258 689.953 200.484 690.812 199.93C691.68 199.367 692.617 199.086 693.625 199.086C695.273 199.086 696.555 199.629 697.469 200.715C698.383 201.801 698.84 203.355 698.84 205.379V206.281H690.25C690.281 207.531 690.645 208.543 691.34 209.316C692.043 210.082 692.934 210.465 694.012 210.465C694.777 210.465 695.426 210.309 695.957 209.996C696.488 209.684 696.953 209.27 697.352 208.754L698.676 209.785C697.613 211.418 696.02 212.234 693.895 212.234ZM693.625 200.867C692.75 200.867 692.016 201.188 691.422 201.828C690.828 202.461 690.461 203.352 690.32 204.5H696.672V204.336C696.609 203.234 696.312 202.383 695.781 201.781C695.25 201.172 694.531 200.867 693.625 200.867ZM709.188 212C709.062 211.75 708.961 211.305 708.883 210.664C707.875 211.711 706.672 212.234 705.273 212.234C704.023 212.234 702.996 211.883 702.191 211.18C701.395 210.469 700.996 209.57 700.996 208.484C700.996 207.164 701.496 206.141 702.496 205.414C703.504 204.68 704.918 204.312 706.738 204.312H708.848V203.316C708.848 202.559 708.621 201.957 708.168 201.512C707.715 201.059 707.047 200.832 706.164 200.832C705.391 200.832 704.742 201.027 704.219 201.418C703.695 201.809 703.434 202.281 703.434 202.836H701.254C701.254 202.203 701.477 201.594 701.922 201.008C702.375 200.414 702.984 199.945 703.75 199.602C704.523 199.258 705.371 199.086 706.293 199.086C707.754 199.086 708.898 199.453 709.727 200.188C710.555 200.914 710.984 201.918 711.016 203.199V209.035C711.016 210.199 711.164 211.125 711.461 211.812V212H709.188ZM705.59 210.348C706.27 210.348 706.914 210.172 707.523 209.82C708.133 209.469 708.574 209.012 708.848 208.449V205.848H707.148C704.492 205.848 703.164 206.625 703.164 208.18C703.164 208.859 703.391 209.391 703.844 209.773C704.297 210.156 704.879 210.348 705.59 210.348ZM717.355 196.25V199.32H719.723V200.996H717.355V208.859C717.355 209.367 717.461 209.75 717.672 210.008C717.883 210.258 718.242 210.383 718.75 210.383C719 210.383 719.344 210.336 719.781 210.242V212C719.211 212.156 718.656 212.234 718.117 212.234C717.148 212.234 716.418 211.941 715.926 211.355C715.434 210.77 715.188 209.938 715.188 208.859V200.996H712.879V199.32H715.188V196.25H717.355ZM650.582 224.25V227.32H652.949V228.996H650.582V236.859C650.582 237.367 650.688 237.75 650.898 238.008C651.109 238.258 651.469 238.383 651.977 238.383C652.227 238.383 652.57 238.336 653.008 238.242V240C652.438 240.156 651.883 240.234 651.344 240.234C650.375 240.234 649.645 239.941 649.152 239.355C648.66 238.77 648.414 237.938 648.414 236.859V228.996H646.105V227.32H648.414V224.25H650.582ZM657.66 228.855C658.621 227.676 659.871 227.086 661.41 227.086C664.09 227.086 665.441 228.598 665.465 231.621V240H663.297V231.609C663.289 230.695 663.078 230.02 662.664 229.582C662.258 229.145 661.621 228.926 660.754 228.926C660.051 228.926 659.434 229.113 658.902 229.488C658.371 229.863 657.957 230.355 657.66 230.965V240H655.492V222H657.66V228.855ZM673.973 240.234C672.254 240.234 670.855 239.672 669.777 238.547C668.699 237.414 668.16 235.902 668.16 234.012V233.613C668.16 232.355 668.398 231.234 668.875 230.25C669.359 229.258 670.031 228.484 670.891 227.93C671.758 227.367 672.695 227.086 673.703 227.086C675.352 227.086 676.633 227.629 677.547 228.715C678.461 229.801 678.918 231.355 678.918 233.379V234.281H670.328C670.359 235.531 670.723 236.543 671.418 237.316C672.121 238.082 673.012 238.465 674.09 238.465C674.855 238.465 675.504 238.309 676.035 237.996C676.566 237.684 677.031 237.27 677.43 236.754L678.754 237.785C677.691 239.418 676.098 240.234 673.973 240.234ZM673.703 228.867C672.828 228.867 672.094 229.188 671.5 229.828C670.906 230.461 670.539 231.352 670.398 232.5H676.75V232.336C676.688 231.234 676.391 230.383 675.859 229.781C675.328 229.172 674.609 228.867 673.703 228.867ZM658.352 261.801C658.352 263.73 657.91 265.285 657.027 266.465C656.145 267.645 654.949 268.234 653.441 268.234C651.902 268.234 650.691 267.746 649.809 266.77V272.875H647.641V255.32H649.621L649.727 256.727C650.609 255.633 651.836 255.086 653.406 255.086C654.93 255.086 656.133 255.66 657.016 256.809C657.906 257.957 658.352 259.555 658.352 261.602V261.801ZM656.184 261.555C656.184 260.125 655.879 258.996 655.27 258.168C654.66 257.34 653.824 256.926 652.762 256.926C651.449 256.926 650.465 257.508 649.809 258.672V264.73C650.457 265.887 651.449 266.465 652.785 266.465C653.824 266.465 654.648 266.055 655.258 265.234C655.875 264.406 656.184 263.18 656.184 261.555ZM667.246 257.266C666.918 257.211 666.562 257.184 666.18 257.184C664.758 257.184 663.793 257.789 663.285 259V268H661.117V255.32H663.227L663.262 256.785C663.973 255.652 664.98 255.086 666.285 255.086C666.707 255.086 667.027 255.141 667.246 255.25V257.266ZM674.277 268.234C672.559 268.234 671.16 267.672 670.082 266.547C669.004 265.414 668.465 263.902 668.465 262.012V261.613C668.465 260.355 668.703 259.234 669.18 258.25C669.664 257.258 670.336 256.484 671.195 255.93C672.062 255.367 673 255.086 674.008 255.086C675.656 255.086 676.938 255.629 677.852 256.715C678.766 257.801 679.223 259.355 679.223 261.379V262.281H670.633C670.664 263.531 671.027 264.543 671.723 265.316C672.426 266.082 673.316 266.465 674.395 266.465C675.16 266.465 675.809 266.309 676.34 265.996C676.871 265.684 677.336 265.27 677.734 264.754L679.059 265.785C677.996 267.418 676.402 268.234 674.277 268.234ZM674.008 256.867C673.133 256.867 672.398 257.188 671.805 257.828C671.211 258.461 670.844 259.352 670.703 260.5H677.055V260.336C676.992 259.234 676.695 258.383 676.164 257.781C675.633 257.172 674.914 256.867 674.008 256.867ZM685.762 265.059L688.902 255.32H691.117L686.57 268H684.918L680.324 255.32H682.539L685.762 265.059ZM695.559 268H693.391V255.32H695.559V268ZM693.215 251.957C693.215 251.605 693.32 251.309 693.531 251.066C693.75 250.824 694.07 250.703 694.492 250.703C694.914 250.703 695.234 250.824 695.453 251.066C695.672 251.309 695.781 251.605 695.781 251.957C695.781 252.309 695.672 252.602 695.453 252.836C695.234 253.07 694.914 253.188 694.492 253.188C694.07 253.188 693.75 253.07 693.531 252.836C693.32 252.602 693.215 252.309 693.215 251.957ZM698.465 261.543C698.465 260.301 698.707 259.184 699.191 258.191C699.684 257.199 700.363 256.434 701.23 255.895C702.105 255.355 703.102 255.086 704.219 255.086C705.945 255.086 707.34 255.684 708.402 256.879C709.473 258.074 710.008 259.664 710.008 261.648V261.801C710.008 263.035 709.77 264.145 709.293 265.129C708.824 266.105 708.148 266.867 707.266 267.414C706.391 267.961 705.383 268.234 704.242 268.234C702.523 268.234 701.129 267.637 700.059 266.441C698.996 265.246 698.465 263.664 698.465 261.695V261.543ZM700.645 261.801C700.645 263.207 700.969 264.336 701.617 265.188C702.273 266.039 703.148 266.465 704.242 266.465C705.344 266.465 706.219 266.035 706.867 265.176C707.516 264.309 707.84 263.098 707.84 261.543C707.84 260.152 707.508 259.027 706.844 258.168C706.188 257.301 705.312 256.867 704.219 256.867C703.148 256.867 702.285 257.293 701.629 258.145C700.973 258.996 700.645 260.215 700.645 261.801ZM720.555 266.746C719.711 267.738 718.473 268.234 716.84 268.234C715.488 268.234 714.457 267.844 713.746 267.062C713.043 266.273 712.688 265.109 712.68 263.57V255.32H714.848V263.512C714.848 265.434 715.629 266.395 717.191 266.395C718.848 266.395 719.949 265.777 720.496 264.543V255.32H722.664V268H720.602L720.555 266.746ZM733.352 264.637C733.352 264.051 733.129 263.598 732.684 263.277C732.246 262.949 731.477 262.668 730.375 262.434C729.281 262.199 728.41 261.918 727.762 261.59C727.121 261.262 726.645 260.871 726.332 260.418C726.027 259.965 725.875 259.426 725.875 258.801C725.875 257.762 726.312 256.883 727.188 256.164C728.07 255.445 729.195 255.086 730.562 255.086C732 255.086 733.164 255.457 734.055 256.199C734.953 256.941 735.402 257.891 735.402 259.047H733.223C733.223 258.453 732.969 257.941 732.461 257.512C731.961 257.082 731.328 256.867 730.562 256.867C729.773 256.867 729.156 257.039 728.711 257.383C728.266 257.727 728.043 258.176 728.043 258.73C728.043 259.254 728.25 259.648 728.664 259.914C729.078 260.18 729.824 260.434 730.902 260.676C731.988 260.918 732.867 261.207 733.539 261.543C734.211 261.879 734.707 262.285 735.027 262.762C735.355 263.23 735.52 263.805 735.52 264.484C735.52 265.617 735.066 266.527 734.16 267.215C733.254 267.895 732.078 268.234 730.633 268.234C729.617 268.234 728.719 268.055 727.938 267.695C727.156 267.336 726.543 266.836 726.098 266.195C725.66 265.547 725.441 264.848 725.441 264.098H727.609C727.648 264.824 727.938 265.402 728.477 265.832C729.023 266.254 729.742 266.465 730.633 266.465C731.453 266.465 732.109 266.301 732.602 265.973C733.102 265.637 733.352 265.191 733.352 264.637ZM653.77 287.266C653.441 287.211 653.086 287.184 652.703 287.184C651.281 287.184 650.316 287.789 649.809 289V298H647.641V285.32H649.75L649.785 286.785C650.496 285.652 651.504 285.086 652.809 285.086C653.23 285.086 653.551 285.141 653.77 285.25V287.266ZM663.133 298C663.008 297.75 662.906 297.305 662.828 296.664C661.82 297.711 660.617 298.234 659.219 298.234C657.969 298.234 656.941 297.883 656.137 297.18C655.34 296.469 654.941 295.57 654.941 294.484C654.941 293.164 655.441 292.141 656.441 291.414C657.449 290.68 658.863 290.312 660.684 290.312H662.793V289.316C662.793 288.559 662.566 287.957 662.113 287.512C661.66 287.059 660.992 286.832 660.109 286.832C659.336 286.832 658.688 287.027 658.164 287.418C657.641 287.809 657.379 288.281 657.379 288.836H655.199C655.199 288.203 655.422 287.594 655.867 287.008C656.32 286.414 656.93 285.945 657.695 285.602C658.469 285.258 659.316 285.086 660.238 285.086C661.699 285.086 662.844 285.453 663.672 286.188C664.5 286.914 664.93 287.918 664.961 289.199V295.035C664.961 296.199 665.109 297.125 665.406 297.812V298H663.133ZM659.535 296.348C660.215 296.348 660.859 296.172 661.469 295.82C662.078 295.469 662.52 295.012 662.793 294.449V291.848H661.094C658.438 291.848 657.109 292.625 657.109 294.18C657.109 294.859 657.336 295.391 657.789 295.773C658.242 296.156 658.824 296.348 659.535 296.348ZM670.41 285.32L670.48 286.914C671.449 285.695 672.715 285.086 674.277 285.086C676.957 285.086 678.309 286.598 678.332 289.621V298H676.164V289.609C676.156 288.695 675.945 288.02 675.531 287.582C675.125 287.145 674.488 286.926 673.621 286.926C672.918 286.926 672.301 287.113 671.77 287.488C671.238 287.863 670.824 288.355 670.527 288.965V298H668.359V285.32H670.41ZM681.086 291.555C681.086 289.578 681.543 288.008 682.457 286.844C683.371 285.672 684.582 285.086 686.09 285.086C687.637 285.086 688.844 285.633 689.711 286.727L689.816 285.32H691.797V297.695C691.797 299.336 691.309 300.629 690.332 301.574C689.363 302.52 688.059 302.992 686.418 302.992C685.504 302.992 684.609 302.797 683.734 302.406C682.859 302.016 682.191 301.48 681.73 300.801L682.855 299.5C683.785 300.648 684.922 301.223 686.266 301.223C687.32 301.223 688.141 300.926 688.727 300.332C689.32 299.738 689.617 298.902 689.617 297.824V296.734C688.75 297.734 687.566 298.234 686.066 298.234C684.582 298.234 683.379 297.637 682.457 296.441C681.543 295.246 681.086 293.617 681.086 291.555ZM683.266 291.801C683.266 293.23 683.559 294.355 684.145 295.176C684.73 295.988 685.551 296.395 686.605 296.395C687.973 296.395 688.977 295.773 689.617 294.531V288.742C688.953 287.531 687.957 286.926 686.629 286.926C685.574 286.926 684.75 287.336 684.156 288.156C683.562 288.977 683.266 290.191 683.266 291.801ZM700.34 298.234C698.621 298.234 697.223 297.672 696.145 296.547C695.066 295.414 694.527 293.902 694.527 292.012V291.613C694.527 290.355 694.766 289.234 695.242 288.25C695.727 287.258 696.398 286.484 697.258 285.93C698.125 285.367 699.062 285.086 700.07 285.086C701.719 285.086 703 285.629 703.914 286.715C704.828 287.801 705.285 289.355 705.285 291.379V292.281H696.695C696.727 293.531 697.09 294.543 697.785 295.316C698.488 296.082 699.379 296.465 700.457 296.465C701.223 296.465 701.871 296.309 702.402 295.996C702.934 295.684 703.398 295.27 703.797 294.754L705.121 295.785C704.059 297.418 702.465 298.234 700.34 298.234ZM700.07 286.867C699.195 286.867 698.461 287.188 697.867 287.828C697.273 288.461 696.906 289.352 696.766 290.5H703.117V290.336C703.055 289.234 702.758 288.383 702.227 287.781C701.695 287.172 700.977 286.867 700.07 286.867ZM650.582 310.25V313.32H652.949V314.996H650.582V322.859C650.582 323.367 650.688 323.75 650.898 324.008C651.109 324.258 651.469 324.383 651.977 324.383C652.227 324.383 652.57 324.336 653.008 324.242V326C652.438 326.156 651.883 326.234 651.344 326.234C650.375 326.234 649.645 325.941 649.152 325.355C648.66 324.77 648.414 323.938 648.414 322.859V314.996H646.105V313.32H648.414V310.25H650.582ZM657.848 326H655.68V313.32H657.848V326ZM655.504 309.957C655.504 309.605 655.609 309.309 655.82 309.066C656.039 308.824 656.359 308.703 656.781 308.703C657.203 308.703 657.523 308.824 657.742 309.066C657.961 309.309 658.07 309.605 658.07 309.957C658.07 310.309 657.961 310.602 657.742 310.836C657.523 311.07 657.203 311.188 656.781 311.188C656.359 311.188 656.039 311.07 655.82 310.836C655.609 310.602 655.504 310.309 655.504 309.957ZM663.367 313.32L663.426 314.727C664.355 313.633 665.609 313.086 667.188 313.086C668.961 313.086 670.168 313.766 670.809 315.125C671.23 314.516 671.777 314.023 672.449 313.648C673.129 313.273 673.93 313.086 674.852 313.086C677.633 313.086 679.047 314.559 679.094 317.504V326H676.926V317.633C676.926 316.727 676.719 316.051 676.305 315.605C675.891 315.152 675.195 314.926 674.219 314.926C673.414 314.926 672.746 315.168 672.215 315.652C671.684 316.129 671.375 316.773 671.289 317.586V326H669.109V317.691C669.109 315.848 668.207 314.926 666.402 314.926C664.98 314.926 664.008 315.531 663.484 316.742V326H661.316V313.32H663.367ZM687.637 326.234C685.918 326.234 684.52 325.672 683.441 324.547C682.363 323.414 681.824 321.902 681.824 320.012V319.613C681.824 318.355 682.062 317.234 682.539 316.25C683.023 315.258 683.695 314.484 684.555 313.93C685.422 313.367 686.359 313.086 687.367 313.086C689.016 313.086 690.297 313.629 691.211 314.715C692.125 315.801 692.582 317.355 692.582 319.379V320.281H683.992C684.023 321.531 684.387 322.543 685.082 323.316C685.785 324.082 686.676 324.465 687.754 324.465C688.52 324.465 689.168 324.309 689.699 323.996C690.23 323.684 690.695 323.27 691.094 322.754L692.418 323.785C691.355 325.418 689.762 326.234 687.637 326.234ZM687.367 314.867C686.492 314.867 685.758 315.188 685.164 315.828C684.57 316.461 684.203 317.352 684.062 318.5H690.414V318.336C690.352 317.234 690.055 316.383 689.523 315.781C688.992 315.172 688.273 314.867 687.367 314.867ZM702.484 322.637C702.484 322.051 702.262 321.598 701.816 321.277C701.379 320.949 700.609 320.668 699.508 320.434C698.414 320.199 697.543 319.918 696.895 319.59C696.254 319.262 695.777 318.871 695.465 318.418C695.16 317.965 695.008 317.426 695.008 316.801C695.008 315.762 695.445 314.883 696.32 314.164C697.203 313.445 698.328 313.086 699.695 313.086C701.133 313.086 702.297 313.457 703.188 314.199C704.086 314.941 704.535 315.891 704.535 317.047H702.355C702.355 316.453 702.102 315.941 701.594 315.512C701.094 315.082 700.461 314.867 699.695 314.867C698.906 314.867 698.289 315.039 697.844 315.383C697.398 315.727 697.176 316.176 697.176 316.73C697.176 317.254 697.383 317.648 697.797 317.914C698.211 318.18 698.957 318.434 700.035 318.676C701.121 318.918 702 319.207 702.672 319.543C703.344 319.879 703.84 320.285 704.16 320.762C704.488 321.23 704.652 321.805 704.652 322.484C704.652 323.617 704.199 324.527 703.293 325.215C702.387 325.895 701.211 326.234 699.766 326.234C698.75 326.234 697.852 326.055 697.07 325.695C696.289 325.336 695.676 324.836 695.23 324.195C694.793 323.547 694.574 322.848 694.574 322.098H696.742C696.781 322.824 697.07 323.402 697.609 323.832C698.156 324.254 698.875 324.465 699.766 324.465C700.586 324.465 701.242 324.301 701.734 323.973C702.234 323.637 702.484 323.191 702.484 322.637Z" fill="black"/>
<path d="M714.613 294.352C715.125 294.816 715.717 295.216 716.389 295.552C717.077 295.872 717.837 296.032 718.669 296.032C719.613 296.032 720.389 295.832 720.997 295.432C721.621 295.016 721.933 294.448 721.933 293.728C721.933 293.328 721.845 292.968 721.669 292.648C721.493 292.328 721.205 292.056 720.805 291.832C720.421 291.608 719.901 291.44 719.245 291.328C718.605 291.2 717.813 291.136 716.869 291.136V289.12C717.685 289.12 718.381 289.064 718.957 288.952C719.533 288.824 719.997 288.656 720.349 288.448C720.717 288.224 720.981 287.96 721.141 287.656C721.317 287.352 721.405 287.024 721.405 286.672C721.405 286.032 721.157 285.536 720.661 285.184C720.181 284.816 719.533 284.632 718.717 284.632C718.045 284.632 717.421 284.768 716.845 285.04C716.285 285.296 715.749 285.64 715.237 286.072L713.797 284.368C714.501 283.792 715.269 283.328 716.101 282.976C716.933 282.624 717.845 282.448 718.837 282.448C719.621 282.448 720.341 282.536 720.997 282.712C721.653 282.888 722.213 283.152 722.677 283.504C723.157 283.84 723.525 284.264 723.781 284.776C724.053 285.272 724.189 285.84 724.189 286.48C724.189 287.344 723.909 288.064 723.349 288.64C722.789 289.216 722.037 289.664 721.093 289.984V290.08C721.589 290.208 722.053 290.384 722.485 290.608C722.933 290.816 723.317 291.08 723.637 291.4C723.973 291.72 724.237 292.088 724.429 292.504C724.621 292.92 724.717 293.376 724.717 293.872C724.717 294.576 724.557 295.2 724.237 295.744C723.933 296.288 723.517 296.752 722.989 297.136C722.461 297.504 721.845 297.792 721.141 298C720.437 298.192 719.693 298.288 718.909 298.288C717.597 298.288 716.477 298.08 715.549 297.664C714.621 297.248 713.877 296.736 713.317 296.128L714.613 294.352Z" fill="#56CCF2"/>
<path d="M686.523 174.479C686.523 174.047 686.531 173.655 686.547 173.303C686.579 172.935 686.611 172.583 686.643 172.247C686.675 171.911 686.699 171.575 686.715 171.239C686.747 170.887 686.763 170.511 686.763 170.111C686.763 169.903 686.715 169.695 686.619 169.487C686.523 169.263 686.347 169.071 686.091 168.911C685.835 168.735 685.483 168.591 685.035 168.479C684.603 168.367 684.051 168.311 683.379 168.311V166.631C684.051 166.631 684.603 166.575 685.035 166.463C685.483 166.351 685.835 166.215 686.091 166.055C686.347 165.879 686.523 165.687 686.619 165.479C686.715 165.271 686.763 165.055 686.763 164.831C686.763 164.079 686.723 163.375 686.643 162.719C686.563 162.047 686.523 161.295 686.523 160.463C686.523 159.823 686.611 159.295 686.787 158.879C686.963 158.447 687.235 158.103 687.603 157.847C687.971 157.591 688.435 157.415 688.995 157.319C689.555 157.207 690.219 157.151 690.987 157.151H692.643V158.663H691.539C690.979 158.663 690.523 158.695 690.171 158.759C689.819 158.823 689.539 158.935 689.331 159.095C689.139 159.239 689.003 159.439 688.923 159.695C688.859 159.935 688.827 160.231 688.827 160.583C688.827 161.255 688.843 161.927 688.875 162.599C688.923 163.271 688.947 163.975 688.947 164.711C688.947 165.559 688.779 166.191 688.443 166.607C688.107 167.007 687.515 167.279 686.667 167.423V167.519C687.515 167.663 688.107 167.943 688.443 168.359C688.779 168.759 688.947 169.383 688.947 170.231C688.947 170.999 688.923 171.703 688.875 172.343C688.843 172.983 688.827 173.655 688.827 174.359C688.827 174.727 688.859 175.031 688.923 175.271C689.003 175.511 689.139 175.703 689.331 175.847C689.539 176.007 689.819 176.119 690.171 176.183C690.523 176.247 690.979 176.279 691.539 176.279H692.643V177.791H690.987C690.219 177.791 689.555 177.735 688.995 177.623C688.435 177.527 687.971 177.351 687.603 177.095C687.235 176.839 686.963 176.495 686.787 176.063C686.611 175.647 686.523 175.119 686.523 174.479ZM697.554 170.495C698.066 170.959 698.658 171.359 699.33 171.695C700.018 172.015 700.778 172.175 701.61 172.175C702.554 172.175 703.33 171.975 703.938 171.575C704.562 171.159 704.874 170.591 704.874 169.871C704.874 169.471 704.786 169.111 704.61 168.791C704.434 168.471 704.146 168.199 703.746 167.975C703.362 167.751 702.842 167.583 702.186 167.471C701.546 167.343 700.754 167.279 699.81 167.279V165.263C700.626 165.263 701.322 165.207 701.898 165.095C702.474 164.967 702.938 164.799 703.29 164.591C703.658 164.367 703.922 164.103 704.082 163.799C704.258 163.495 704.346 163.167 704.346 162.815C704.346 162.175 704.098 161.679 703.602 161.327C703.122 160.959 702.474 160.775 701.658 160.775C700.986 160.775 700.362 160.911 699.786 161.183C699.226 161.439 698.69 161.783 698.178 162.215L696.738 160.511C697.442 159.935 698.21 159.471 699.042 159.119C699.874 158.767 700.786 158.591 701.778 158.591C702.562 158.591 703.282 158.679 703.938 158.855C704.594 159.031 705.154 159.295 705.618 159.647C706.098 159.983 706.466 160.407 706.722 160.919C706.994 161.415 707.13 161.983 707.13 162.623C707.13 163.487 706.85 164.207 706.29 164.783C705.73 165.359 704.978 165.807 704.034 166.127V166.223C704.53 166.351 704.994 166.527 705.426 166.751C705.874 166.959 706.258 167.223 706.578 167.543C706.914 167.863 707.178 168.231 707.37 168.647C707.562 169.063 707.658 169.519 707.658 170.015C707.658 170.719 707.498 171.343 707.178 171.887C706.874 172.431 706.458 172.895 705.93 173.279C705.402 173.647 704.786 173.935 704.082 174.143C703.378 174.335 702.634 174.431 701.85 174.431C700.538 174.431 699.418 174.223 698.49 173.807C697.562 173.391 696.818 172.879 696.258 172.271L697.554 170.495ZM713 176.279C713.544 176.279 713.992 176.247 714.344 176.183C714.696 176.119 714.976 176.007 715.184 175.847C715.392 175.703 715.528 175.511 715.592 175.271C715.672 175.031 715.712 174.727 715.712 174.359C715.712 173.655 715.688 172.983 715.64 172.343C715.608 171.703 715.592 170.999 715.592 170.231C715.592 169.383 715.752 168.759 716.072 168.359C716.408 167.943 717.008 167.663 717.872 167.519V167.423C717.008 167.279 716.408 167.007 716.072 166.607C715.752 166.191 715.592 165.559 715.592 164.711C715.592 163.975 715.608 163.271 715.64 162.599C715.688 161.927 715.712 161.255 715.712 160.583C715.712 160.231 715.672 159.935 715.592 159.695C715.528 159.439 715.392 159.239 715.184 159.095C714.976 158.935 714.696 158.823 714.344 158.759C713.992 158.695 713.544 158.663 713 158.663H711.896V157.151H713.552C714.32 157.151 714.976 157.207 715.52 157.319C716.08 157.415 716.544 157.591 716.912 157.847C717.28 158.103 717.552 158.447 717.728 158.879C717.904 159.295 717.992 159.823 717.992 160.463C717.992 161.295 717.952 162.047 717.872 162.719C717.792 163.375 717.752 164.079 717.752 164.831C717.752 165.055 717.8 165.271 717.896 165.479C717.992 165.687 718.168 165.879 718.424 166.055C718.68 166.215 719.024 166.351 719.456 166.463C719.904 166.575 720.464 166.631 721.136 166.631V168.311C720.464 168.311 719.904 168.367 719.456 168.479C719.024 168.591 718.68 168.735 718.424 168.911C718.168 169.071 717.992 169.263 717.896 169.487C717.8 169.695 717.752 169.903 717.752 170.111C717.752 170.511 717.76 170.887 717.776 171.239C717.808 171.575 717.84 171.911 717.872 172.247C717.904 172.583 717.928 172.935 717.944 173.303C717.976 173.655 717.992 174.047 717.992 174.479C717.992 175.119 717.904 175.647 717.728 176.063C717.552 176.495 717.28 176.839 716.912 177.095C716.544 177.351 716.08 177.527 715.52 177.623C714.976 177.735 714.32 177.791 713.552 177.791H711.896V176.279H713Z" fill="#56CCF2"/>
<path d="M328 14H697.063V62H328V14Z" fill="#F1F4F8"/>
<path d="M427.852 29.008H434.716V30.52H429.988V48.136H434.716V49.648H427.852V29.008ZM453.393 37.072H464.049V39.088H453.393V37.072ZM487.454 48.136V30.52H482.75V29.008H489.614V49.648H482.75V48.136H487.454ZM499.805 29.008H506.669V30.52H501.941V48.136H506.669V49.648H499.805V29.008ZM525.346 37.072H536.002V39.088H525.346V37.072ZM559.407 48.136V30.52H554.703V29.008H561.567V49.648H554.703V48.136H559.407Z" fill="#219653"/>
<path d="M449.922 43.744V46H439.29V43.744H443.418V33.712H440.226V31.984C441.09 31.84 441.826 31.672 442.434 31.48C443.058 31.272 443.634 31.024 444.162 30.736H446.178V43.744H449.922ZM467.471 44.392C468.671 43.368 469.743 42.432 470.687 41.584C471.631 40.72 472.431 39.92 473.087 39.184C473.759 38.448 474.271 37.76 474.623 37.12C474.975 36.48 475.151 35.864 475.151 35.272C475.151 34.456 474.903 33.816 474.407 33.352C473.911 32.872 473.183 32.632 472.223 32.632C471.551 32.632 470.935 32.8 470.375 33.136C469.831 33.472 469.327 33.872 468.863 34.336L467.351 32.8C468.087 32.048 468.863 31.472 469.679 31.072C470.495 30.656 471.463 30.448 472.583 30.448C473.367 30.448 474.079 30.56 474.719 30.784C475.359 31.008 475.903 31.328 476.351 31.744C476.815 32.144 477.167 32.632 477.407 33.208C477.663 33.784 477.791 34.424 477.791 35.128C477.791 35.8 477.623 36.488 477.287 37.192C476.967 37.88 476.527 38.584 475.967 39.304C475.407 40.008 474.735 40.736 473.951 41.488C473.183 42.24 472.359 43.016 471.479 43.816C471.927 43.784 472.399 43.752 472.895 43.72C473.391 43.672 473.847 43.648 474.263 43.648H478.583V46H467.471V44.392ZM516.283 46.288C514.539 46.288 513.155 45.6 512.131 44.224C511.123 42.848 510.619 40.872 510.619 38.296C510.619 35.704 511.123 33.752 512.131 32.44C513.155 31.112 514.539 30.448 516.283 30.448C518.027 30.448 519.403 31.112 520.411 32.44C521.435 33.752 521.947 35.704 521.947 38.296C521.947 40.872 521.435 42.848 520.411 44.224C519.403 45.6 518.027 46.288 516.283 46.288ZM516.283 32.608C515.819 32.608 515.395 32.712 515.011 32.92C514.627 33.112 514.291 33.432 514.003 33.88C513.731 34.328 513.515 34.92 513.355 35.656C513.195 36.376 513.115 37.256 513.115 38.296C513.115 39.336 513.195 40.232 513.355 40.984C513.515 41.72 513.731 42.32 514.003 42.784C514.291 43.248 514.627 43.592 515.011 43.816C515.395 44.024 515.819 44.128 516.283 44.128C516.731 44.128 517.147 44.024 517.531 43.816C517.931 43.592 518.267 43.248 518.539 42.784C518.827 42.32 519.051 41.72 519.211 40.984C519.371 40.232 519.451 39.336 519.451 38.296C519.451 37.256 519.371 36.376 519.211 35.656C519.051 34.92 518.827 34.328 518.539 33.88C518.267 33.432 517.931 33.112 517.531 32.92C517.147 32.712 516.731 32.608 516.283 32.608ZM516.283 39.904C515.819 39.904 515.427 39.752 515.107 39.448C514.787 39.144 514.627 38.728 514.627 38.2C514.627 37.672 514.787 37.256 515.107 36.952C515.427 36.648 515.819 36.496 516.283 36.496C516.747 36.496 517.139 36.648 517.459 36.952C517.779 37.256 517.939 37.672 517.939 38.2C517.939 38.728 517.779 39.144 517.459 39.448C517.139 39.752 516.747 39.904 516.283 39.904ZM544.609 38.176C545.137 38.176 545.689 38.04 546.265 37.768C546.841 37.496 547.409 37.032 547.969 36.376C547.793 35.032 547.409 34.064 546.817 33.472C546.225 32.864 545.497 32.56 544.633 32.56C544.249 32.56 543.889 32.624 543.553 32.752C543.217 32.88 542.921 33.064 542.665 33.304C542.425 33.544 542.225 33.848 542.065 34.216C541.921 34.568 541.849 34.976 541.849 35.44C541.849 36.352 542.089 37.04 542.569 37.504C543.065 37.952 543.745 38.176 544.609 38.176ZM541.033 42.88C541.401 43.216 541.833 43.496 542.329 43.72C542.825 43.928 543.353 44.032 543.913 44.032C544.441 44.032 544.945 43.936 545.425 43.744C545.921 43.552 546.353 43.232 546.721 42.784C547.105 42.336 547.417 41.752 547.657 41.032C547.897 40.296 548.033 39.4 548.065 38.344C547.457 38.904 546.801 39.352 546.097 39.688C545.409 40.008 544.729 40.168 544.057 40.168C543.369 40.168 542.729 40.072 542.137 39.88C541.561 39.688 541.065 39.4 540.649 39.016C540.233 38.616 539.905 38.12 539.665 37.528C539.425 36.936 539.305 36.24 539.305 35.44C539.305 34.672 539.449 33.984 539.737 33.376C540.025 32.752 540.409 32.224 540.889 31.792C541.369 31.36 541.929 31.032 542.569 30.808C543.209 30.568 543.881 30.448 544.585 30.448C545.401 30.448 546.169 30.6 546.889 30.904C547.625 31.192 548.265 31.64 548.809 32.248C549.369 32.856 549.809 33.632 550.129 34.576C550.449 35.504 550.609 36.608 550.609 37.888C550.609 39.376 550.425 40.648 550.057 41.704C549.705 42.76 549.225 43.632 548.617 44.32C548.025 44.992 547.337 45.488 546.553 45.808C545.769 46.128 544.961 46.288 544.129 46.288C543.121 46.288 542.233 46.12 541.465 45.784C540.697 45.448 540.057 45.04 539.545 44.56L541.033 42.88Z" fill="#B82629"/>
<path d="M572.502 46.336C572.502 45.904 572.51 45.512 572.526 45.16C572.558 44.792 572.59 44.44 572.622 44.104C572.654 43.768 572.678 43.432 572.694 43.096C572.726 42.744 572.742 42.368 572.742 41.968C572.742 41.76 572.694 41.552 572.598 41.344C572.502 41.12 572.326 40.928 572.07 40.768C571.814 40.592 571.462 40.448 571.014 40.336C570.582 40.224 570.03 40.168 569.358 40.168V38.488C570.03 38.488 570.582 38.432 571.014 38.32C571.462 38.208 571.814 38.072 572.07 37.912C572.326 37.736 572.502 37.544 572.598 37.336C572.694 37.128 572.742 36.912 572.742 36.688C572.742 35.936 572.702 35.232 572.622 34.576C572.542 33.904 572.502 33.152 572.502 32.32C572.502 31.68 572.59 31.152 572.766 30.736C572.942 30.304 573.214 29.96 573.582 29.704C573.95 29.448 574.414 29.272 574.974 29.176C575.534 29.064 576.198 29.008 576.966 29.008H578.622V30.52H577.518C576.958 30.52 576.502 30.552 576.15 30.616C575.798 30.68 575.518 30.792 575.31 30.952C575.118 31.096 574.982 31.296 574.902 31.552C574.838 31.792 574.806 32.088 574.806 32.44C574.806 33.112 574.822 33.784 574.854 34.456C574.902 35.128 574.926 35.832 574.926 36.568C574.926 37.416 574.758 38.048 574.422 38.464C574.086 38.864 573.494 39.136 572.646 39.28V39.376C573.494 39.52 574.086 39.8 574.422 40.216C574.758 40.616 574.926 41.24 574.926 42.088C574.926 42.856 574.902 43.56 574.854 44.2C574.822 44.84 574.806 45.512 574.806 46.216C574.806 46.584 574.838 46.888 574.902 47.128C574.982 47.368 575.118 47.56 575.31 47.704C575.518 47.864 575.798 47.976 576.15 48.04C576.502 48.104 576.958 48.136 577.518 48.136H578.622V49.648H576.966C576.198 49.648 575.534 49.592 574.974 49.48C574.414 49.384 573.95 49.208 573.582 48.952C573.214 48.696 572.942 48.352 572.766 47.92C572.59 47.504 572.502 46.976 572.502 46.336ZM583.532 42.352C584.044 42.816 584.636 43.216 585.308 43.552C585.996 43.872 586.756 44.032 587.588 44.032C588.532 44.032 589.308 43.832 589.916 43.432C590.54 43.016 590.852 42.448 590.852 41.728C590.852 41.328 590.764 40.968 590.588 40.648C590.412 40.328 590.124 40.056 589.724 39.832C589.34 39.608 588.82 39.44 588.164 39.328C587.524 39.2 586.732 39.136 585.788 39.136V37.12C586.604 37.12 587.3 37.064 587.876 36.952C588.452 36.824 588.916 36.656 589.268 36.448C589.636 36.224 589.9 35.96 590.06 35.656C590.236 35.352 590.324 35.024 590.324 34.672C590.324 34.032 590.076 33.536 589.58 33.184C589.1 32.816 588.452 32.632 587.636 32.632C586.964 32.632 586.34 32.768 585.764 33.04C585.204 33.296 584.668 33.64 584.156 34.072L582.716 32.368C583.42 31.792 584.188 31.328 585.02 30.976C585.852 30.624 586.764 30.448 587.756 30.448C588.54 30.448 589.26 30.536 589.916 30.712C590.572 30.888 591.132 31.152 591.596 31.504C592.076 31.84 592.444 32.264 592.7 32.776C592.972 33.272 593.108 33.84 593.108 34.48C593.108 35.344 592.828 36.064 592.268 36.64C591.708 37.216 590.956 37.664 590.012 37.984V38.08C590.508 38.208 590.972 38.384 591.404 38.608C591.852 38.816 592.236 39.08 592.556 39.4C592.892 39.72 593.156 40.088 593.348 40.504C593.54 40.92 593.636 41.376 593.636 41.872C593.636 42.576 593.476 43.2 593.156 43.744C592.852 44.288 592.436 44.752 591.908 45.136C591.38 45.504 590.764 45.792 590.06 46C589.356 46.192 588.612 46.288 587.828 46.288C586.516 46.288 585.396 46.08 584.468 45.664C583.54 45.248 582.796 44.736 582.236 44.128L583.532 42.352ZM598.979 48.136C599.523 48.136 599.971 48.104 600.323 48.04C600.675 47.976 600.955 47.864 601.163 47.704C601.371 47.56 601.507 47.368 601.571 47.128C601.651 46.888 601.691 46.584 601.691 46.216C601.691 45.512 601.667 44.84 601.619 44.2C601.587 43.56 601.571 42.856 601.571 42.088C601.571 41.24 601.731 40.616 602.051 40.216C602.387 39.8 602.987 39.52 603.851 39.376V39.28C602.987 39.136 602.387 38.864 602.051 38.464C601.731 38.048 601.571 37.416 601.571 36.568C601.571 35.832 601.587 35.128 601.619 34.456C601.667 33.784 601.691 33.112 601.691 32.44C601.691 32.088 601.651 31.792 601.571 31.552C601.507 31.296 601.371 31.096 601.163 30.952C600.955 30.792 600.675 30.68 600.323 30.616C599.971 30.552 599.523 30.52 598.979 30.52H597.875V29.008H599.531C600.299 29.008 600.955 29.064 601.499 29.176C602.059 29.272 602.523 29.448 602.891 29.704C603.259 29.96 603.531 30.304 603.707 30.736C603.883 31.152 603.971 31.68 603.971 32.32C603.971 33.152 603.931 33.904 603.851 34.576C603.771 35.232 603.731 35.936 603.731 36.688C603.731 36.912 603.779 37.128 603.875 37.336C603.971 37.544 604.147 37.736 604.403 37.912C604.659 38.072 605.003 38.208 605.435 38.32C605.883 38.432 606.443 38.488 607.115 38.488V40.168C606.443 40.168 605.883 40.224 605.435 40.336C605.003 40.448 604.659 40.592 604.403 40.768C604.147 40.928 603.971 41.12 603.875 41.344C603.779 41.552 603.731 41.76 603.731 41.968C603.731 42.368 603.739 42.744 603.755 43.096C603.787 43.432 603.819 43.768 603.851 44.104C603.883 44.44 603.907 44.792 603.923 45.16C603.955 45.512 603.971 45.904 603.971 46.336C603.971 46.976 603.883 47.504 603.707 47.92C603.531 48.352 603.259 48.696 602.891 48.952C602.523 49.208 602.059 49.384 601.499 49.48C600.955 49.592 600.299 49.648 599.531 49.648H597.875V48.136H598.979Z" fill="#56CCF2"/>
</svg>
