<svg width="1022" height="368" viewBox="0 0 1022 368" fill="none" xmlns="http://www.w3.org/2000/svg">
<rect width="511" height="184" transform="scale(2)" fill="white"/>
<path d="M513.316 128.707C513.72 129.097 514.353 129.097 514.731 128.707L520.883 122.346C521.26 121.956 521.239 121.323 520.835 120.933C520.432 120.543 519.799 120.543 519.421 120.933L513.953 126.587L508.108 120.933C507.704 120.543 507.071 120.543 506.693 120.933C506.316 121.323 506.337 121.956 506.74 122.346L513.316 128.707ZM511 68L513 128L515 128L513 68L511 68Z" fill="#828282"/>
<path d="M165.293 128.707C165.683 129.098 166.317 129.098 166.707 128.707L173.071 122.343C173.462 121.953 173.462 121.319 173.071 120.929C172.681 120.538 172.047 120.538 171.657 120.929L166 126.586L160.343 120.929C159.953 120.538 159.319 120.538 158.929 120.929C158.538 121.319 158.538 121.953 158.929 122.343L165.293 128.707ZM165 112V128H167V112H165Z" fill="#828282"/>
<path d="M466 68V82L166 112V128" stroke="#828282"/>
<path d="M339.293 128.707C339.683 129.098 340.317 129.098 340.707 128.707L347.071 122.343C347.462 121.953 347.462 121.319 347.071 120.929C346.681 120.538 346.047 120.538 345.657 120.929L340 126.586L334.343 120.929C333.953 120.538 333.319 120.538 332.929 120.929C332.538 121.319 332.538 121.953 332.929 122.343L339.293 128.707ZM339 112V128H341V112H339Z" fill="#828282"/>
<path d="M488 68V82L340 112V128" stroke="#828282"/>
<path d="M862.707 128.707C862.317 129.098 861.683 129.098 861.293 128.707L854.929 122.343C854.538 121.953 854.538 121.319 854.929 120.929C855.319 120.538 855.953 120.538 856.343 120.929L862 126.586L867.657 120.929C868.047 120.538 868.681 120.538 869.071 120.929C869.462 121.319 869.462 121.953 869.071 122.343L862.707 128.707ZM863 112V128H861V112H863Z" fill="#828282"/>
<path d="M570 68V82L862 112V128" stroke="#828282"/>
<path d="M688.707 128.707C688.317 129.098 687.683 129.098 687.293 128.707L680.929 122.343C680.538 121.953 680.538 121.319 680.929 120.929C681.319 120.538 681.953 120.538 682.343 120.929L688 126.586L693.657 120.929C694.047 120.538 694.681 120.538 695.071 120.929C695.462 121.319 695.462 121.953 695.071 122.343L688.707 128.707ZM689 112V128H687V112H689Z" fill="#828282"/>
<path d="M546 68V82L688 112V128" stroke="#828282"/>
<rect x="270" y="140" width="130" height="208" fill="#FFFAF5"/>
<path d="M291.77 198.789H286.285V214H284.047V198.789H278.574V196.938H291.77V198.789ZM296.129 202.855C297.09 201.676 298.34 201.086 299.879 201.086C302.559 201.086 303.91 202.598 303.934 205.621V214H301.766V205.609C301.758 204.695 301.547 204.02 301.133 203.582C300.727 203.145 300.09 202.926 299.223 202.926C298.52 202.926 297.902 203.113 297.371 203.488C296.84 203.863 296.426 204.355 296.129 204.965V214H293.961V196H296.129V202.855ZM312.441 214.234C310.723 214.234 309.324 213.672 308.246 212.547C307.168 211.414 306.629 209.902 306.629 208.012V207.613C306.629 206.355 306.867 205.234 307.344 204.25C307.828 203.258 308.5 202.484 309.359 201.93C310.227 201.367 311.164 201.086 312.172 201.086C313.82 201.086 315.102 201.629 316.016 202.715C316.93 203.801 317.387 205.355 317.387 207.379V208.281H308.797C308.828 209.531 309.191 210.543 309.887 211.316C310.59 212.082 311.48 212.465 312.559 212.465C313.324 212.465 313.973 212.309 314.504 211.996C315.035 211.684 315.5 211.27 315.898 210.754L317.223 211.785C316.16 213.418 314.566 214.234 312.441 214.234ZM312.172 202.867C311.297 202.867 310.562 203.188 309.969 203.828C309.375 204.461 309.008 205.352 308.867 206.5H315.219V206.336C315.156 205.234 314.859 204.383 314.328 203.781C313.797 203.172 313.078 202.867 312.172 202.867ZM284.727 240.465C285.5 240.465 286.176 240.23 286.754 239.762C287.332 239.293 287.652 238.707 287.715 238.004H289.766C289.727 238.73 289.477 239.422 289.016 240.078C288.555 240.734 287.938 241.258 287.164 241.648C286.398 242.039 285.586 242.234 284.727 242.234C283 242.234 281.625 241.66 280.602 240.512C279.586 239.355 279.078 237.777 279.078 235.777V235.414C279.078 234.18 279.305 233.082 279.758 232.121C280.211 231.16 280.859 230.414 281.703 229.883C282.555 229.352 283.559 229.086 284.715 229.086C286.137 229.086 287.316 229.512 288.254 230.363C289.199 231.215 289.703 232.32 289.766 233.68H287.715C287.652 232.859 287.34 232.188 286.777 231.664C286.223 231.133 285.535 230.867 284.715 230.867C283.613 230.867 282.758 231.266 282.148 232.062C281.547 232.852 281.246 233.996 281.246 235.496V235.906C281.246 237.367 281.547 238.492 282.148 239.281C282.75 240.07 283.609 240.465 284.727 240.465ZM294.371 230.855C295.332 229.676 296.582 229.086 298.121 229.086C300.801 229.086 302.152 230.598 302.176 233.621V242H300.008V233.609C300 232.695 299.789 232.02 299.375 231.582C298.969 231.145 298.332 230.926 297.465 230.926C296.762 230.926 296.145 231.113 295.613 231.488C295.082 231.863 294.668 232.355 294.371 232.965V242H292.203V224H294.371V230.855ZM313.25 242C313.125 241.75 313.023 241.305 312.945 240.664C311.938 241.711 310.734 242.234 309.336 242.234C308.086 242.234 307.059 241.883 306.254 241.18C305.457 240.469 305.059 239.57 305.059 238.484C305.059 237.164 305.559 236.141 306.559 235.414C307.566 234.68 308.98 234.312 310.801 234.312H312.91V233.316C312.91 232.559 312.684 231.957 312.23 231.512C311.777 231.059 311.109 230.832 310.227 230.832C309.453 230.832 308.805 231.027 308.281 231.418C307.758 231.809 307.496 232.281 307.496 232.836H305.316C305.316 232.203 305.539 231.594 305.984 231.008C306.438 230.414 307.047 229.945 307.812 229.602C308.586 229.258 309.434 229.086 310.355 229.086C311.816 229.086 312.961 229.453 313.789 230.188C314.617 230.914 315.047 231.918 315.078 233.199V239.035C315.078 240.199 315.227 241.125 315.523 241.812V242H313.25ZM309.652 240.348C310.332 240.348 310.977 240.172 311.586 239.82C312.195 239.469 312.637 239.012 312.91 238.449V235.848H311.211C308.555 235.848 307.227 236.625 307.227 238.18C307.227 238.859 307.453 239.391 307.906 239.773C308.359 240.156 308.941 240.348 309.652 240.348ZM324.605 231.266C324.277 231.211 323.922 231.184 323.539 231.184C322.117 231.184 321.152 231.789 320.645 233V242H318.477V229.32H320.586L320.621 230.785C321.332 229.652 322.34 229.086 323.645 229.086C324.066 229.086 324.387 229.141 324.605 229.25V231.266ZM333.969 242C333.844 241.75 333.742 241.305 333.664 240.664C332.656 241.711 331.453 242.234 330.055 242.234C328.805 242.234 327.777 241.883 326.973 241.18C326.176 240.469 325.777 239.57 325.777 238.484C325.777 237.164 326.277 236.141 327.277 235.414C328.285 234.68 329.699 234.312 331.52 234.312H333.629V233.316C333.629 232.559 333.402 231.957 332.949 231.512C332.496 231.059 331.828 230.832 330.945 230.832C330.172 230.832 329.523 231.027 329 231.418C328.477 231.809 328.215 232.281 328.215 232.836H326.035C326.035 232.203 326.258 231.594 326.703 231.008C327.156 230.414 327.766 229.945 328.531 229.602C329.305 229.258 330.152 229.086 331.074 229.086C332.535 229.086 333.68 229.453 334.508 230.188C335.336 230.914 335.766 231.918 335.797 233.199V239.035C335.797 240.199 335.945 241.125 336.242 241.812V242H333.969ZM330.371 240.348C331.051 240.348 331.695 240.172 332.305 239.82C332.914 239.469 333.355 239.012 333.629 238.449V235.848H331.93C329.273 235.848 327.945 236.625 327.945 238.18C327.945 238.859 328.172 239.391 328.625 239.773C329.078 240.156 329.66 240.348 330.371 240.348ZM344.281 240.465C345.055 240.465 345.73 240.23 346.309 239.762C346.887 239.293 347.207 238.707 347.27 238.004H349.32C349.281 238.73 349.031 239.422 348.57 240.078C348.109 240.734 347.492 241.258 346.719 241.648C345.953 242.039 345.141 242.234 344.281 242.234C342.555 242.234 341.18 241.66 340.156 240.512C339.141 239.355 338.633 237.777 338.633 235.777V235.414C338.633 234.18 338.859 233.082 339.312 232.121C339.766 231.16 340.414 230.414 341.258 229.883C342.109 229.352 343.113 229.086 344.27 229.086C345.691 229.086 346.871 229.512 347.809 230.363C348.754 231.215 349.258 232.32 349.32 233.68H347.27C347.207 232.859 346.895 232.188 346.332 231.664C345.777 231.133 345.09 230.867 344.27 230.867C343.168 230.867 342.312 231.266 341.703 232.062C341.102 232.852 340.801 233.996 340.801 235.496V235.906C340.801 237.367 341.102 238.492 341.703 239.281C342.305 240.07 343.164 240.465 344.281 240.465ZM354.699 226.25V229.32H357.066V230.996H354.699V238.859C354.699 239.367 354.805 239.75 355.016 240.008C355.227 240.258 355.586 240.383 356.094 240.383C356.344 240.383 356.688 240.336 357.125 240.242V242C356.555 242.156 356 242.234 355.461 242.234C354.492 242.234 353.762 241.941 353.27 241.355C352.777 240.77 352.531 239.938 352.531 238.859V230.996H350.223V229.32H352.531V226.25H354.699ZM364.871 242.234C363.152 242.234 361.754 241.672 360.676 240.547C359.598 239.414 359.059 237.902 359.059 236.012V235.613C359.059 234.355 359.297 233.234 359.773 232.25C360.258 231.258 360.93 230.484 361.789 229.93C362.656 229.367 363.594 229.086 364.602 229.086C366.25 229.086 367.531 229.629 368.445 230.715C369.359 231.801 369.816 233.355 369.816 235.379V236.281H361.227C361.258 237.531 361.621 238.543 362.316 239.316C363.02 240.082 363.91 240.465 364.988 240.465C365.754 240.465 366.402 240.309 366.934 239.996C367.465 239.684 367.93 239.27 368.328 238.754L369.652 239.785C368.59 241.418 366.996 242.234 364.871 242.234ZM364.602 230.867C363.727 230.867 362.992 231.188 362.398 231.828C361.805 232.461 361.438 233.352 361.297 234.5H367.648V234.336C367.586 233.234 367.289 232.383 366.758 231.781C366.227 231.172 365.508 230.867 364.602 230.867ZM378.465 231.266C378.137 231.211 377.781 231.184 377.398 231.184C375.977 231.184 375.012 231.789 374.504 233V242H372.336V229.32H374.445L374.48 230.785C375.191 229.652 376.199 229.086 377.504 229.086C377.926 229.086 378.246 229.141 378.465 229.25V231.266ZM279.559 263.074C279.559 261.309 279.793 259.613 280.262 257.988C280.738 256.363 281.445 254.887 282.383 253.559C283.32 252.23 284.293 251.293 285.301 250.746L285.746 252.176C284.605 253.051 283.668 254.387 282.934 256.184C282.207 257.98 281.809 259.992 281.738 262.219L281.727 263.215C281.727 266.23 282.277 268.848 283.379 271.066C284.043 272.395 284.832 273.434 285.746 274.184L285.301 275.508C284.262 274.93 283.27 273.961 282.324 272.602C280.48 269.945 279.559 266.77 279.559 263.074ZM293.105 270.234C291.387 270.234 289.988 269.672 288.91 268.547C287.832 267.414 287.293 265.902 287.293 264.012V263.613C287.293 262.355 287.531 261.234 288.008 260.25C288.492 259.258 289.164 258.484 290.023 257.93C290.891 257.367 291.828 257.086 292.836 257.086C294.484 257.086 295.766 257.629 296.68 258.715C297.594 259.801 298.051 261.355 298.051 263.379V264.281H289.461C289.492 265.531 289.855 266.543 290.551 267.316C291.254 268.082 292.145 268.465 293.223 268.465C293.988 268.465 294.637 268.309 295.168 267.996C295.699 267.684 296.164 267.27 296.562 266.754L297.887 267.785C296.824 269.418 295.23 270.234 293.105 270.234ZM292.836 258.867C291.961 258.867 291.227 259.188 290.633 259.828C290.039 260.461 289.672 261.352 289.531 262.5H295.883V262.336C295.82 261.234 295.523 260.383 294.992 259.781C294.461 259.172 293.742 258.867 292.836 258.867ZM307.953 266.637C307.953 266.051 307.73 265.598 307.285 265.277C306.848 264.949 306.078 264.668 304.977 264.434C303.883 264.199 303.012 263.918 302.363 263.59C301.723 263.262 301.246 262.871 300.934 262.418C300.629 261.965 300.477 261.426 300.477 260.801C300.477 259.762 300.914 258.883 301.789 258.164C302.672 257.445 303.797 257.086 305.164 257.086C306.602 257.086 307.766 257.457 308.656 258.199C309.555 258.941 310.004 259.891 310.004 261.047H307.824C307.824 260.453 307.57 259.941 307.062 259.512C306.562 259.082 305.93 258.867 305.164 258.867C304.375 258.867 303.758 259.039 303.312 259.383C302.867 259.727 302.645 260.176 302.645 260.73C302.645 261.254 302.852 261.648 303.266 261.914C303.68 262.18 304.426 262.434 305.504 262.676C306.59 262.918 307.469 263.207 308.141 263.543C308.812 263.879 309.309 264.285 309.629 264.762C309.957 265.23 310.121 265.805 310.121 266.484C310.121 267.617 309.668 268.527 308.762 269.215C307.855 269.895 306.68 270.234 305.234 270.234C304.219 270.234 303.32 270.055 302.539 269.695C301.758 269.336 301.145 268.836 300.699 268.195C300.262 267.547 300.043 266.848 300.043 266.098H302.211C302.25 266.824 302.539 267.402 303.078 267.832C303.625 268.254 304.344 268.465 305.234 268.465C306.055 268.465 306.711 268.301 307.203 267.973C307.703 267.637 307.953 267.191 307.953 266.637ZM318.031 268.465C318.805 268.465 319.48 268.23 320.059 267.762C320.637 267.293 320.957 266.707 321.02 266.004H323.07C323.031 266.73 322.781 267.422 322.32 268.078C321.859 268.734 321.242 269.258 320.469 269.648C319.703 270.039 318.891 270.234 318.031 270.234C316.305 270.234 314.93 269.66 313.906 268.512C312.891 267.355 312.383 265.777 312.383 263.777V263.414C312.383 262.18 312.609 261.082 313.062 260.121C313.516 259.16 314.164 258.414 315.008 257.883C315.859 257.352 316.863 257.086 318.02 257.086C319.441 257.086 320.621 257.512 321.559 258.363C322.504 259.215 323.008 260.32 323.07 261.68H321.02C320.957 260.859 320.645 260.188 320.082 259.664C319.527 259.133 318.84 258.867 318.02 258.867C316.918 258.867 316.062 259.266 315.453 260.062C314.852 260.852 314.551 261.996 314.551 263.496V263.906C314.551 265.367 314.852 266.492 315.453 267.281C316.055 268.07 316.914 268.465 318.031 268.465ZM333.336 270C333.211 269.75 333.109 269.305 333.031 268.664C332.023 269.711 330.82 270.234 329.422 270.234C328.172 270.234 327.145 269.883 326.34 269.18C325.543 268.469 325.145 267.57 325.145 266.484C325.145 265.164 325.645 264.141 326.645 263.414C327.652 262.68 329.066 262.312 330.887 262.312H332.996V261.316C332.996 260.559 332.77 259.957 332.316 259.512C331.863 259.059 331.195 258.832 330.312 258.832C329.539 258.832 328.891 259.027 328.367 259.418C327.844 259.809 327.582 260.281 327.582 260.836H325.402C325.402 260.203 325.625 259.594 326.07 259.008C326.523 258.414 327.133 257.945 327.898 257.602C328.672 257.258 329.52 257.086 330.441 257.086C331.902 257.086 333.047 257.453 333.875 258.188C334.703 258.914 335.133 259.918 335.164 261.199V267.035C335.164 268.199 335.312 269.125 335.609 269.812V270H333.336ZM329.738 268.348C330.418 268.348 331.062 268.172 331.672 267.82C332.281 267.469 332.723 267.012 332.996 266.449V263.848H331.297C328.641 263.848 327.312 264.625 327.312 266.18C327.312 266.859 327.539 267.391 327.992 267.773C328.445 268.156 329.027 268.348 329.738 268.348ZM349.273 263.801C349.273 265.73 348.832 267.285 347.949 268.465C347.066 269.645 345.871 270.234 344.363 270.234C342.824 270.234 341.613 269.746 340.73 268.77V274.875H338.562V257.32H340.543L340.648 258.727C341.531 257.633 342.758 257.086 344.328 257.086C345.852 257.086 347.055 257.66 347.938 258.809C348.828 259.957 349.273 261.555 349.273 263.602V263.801ZM347.105 263.555C347.105 262.125 346.801 260.996 346.191 260.168C345.582 259.34 344.746 258.926 343.684 258.926C342.371 258.926 341.387 259.508 340.73 260.672V266.73C341.379 267.887 342.371 268.465 343.707 268.465C344.746 268.465 345.57 268.055 346.18 267.234C346.797 266.406 347.105 265.18 347.105 263.555ZM357.301 270.234C355.582 270.234 354.184 269.672 353.105 268.547C352.027 267.414 351.488 265.902 351.488 264.012V263.613C351.488 262.355 351.727 261.234 352.203 260.25C352.688 259.258 353.359 258.484 354.219 257.93C355.086 257.367 356.023 257.086 357.031 257.086C358.68 257.086 359.961 257.629 360.875 258.715C361.789 259.801 362.246 261.355 362.246 263.379V264.281H353.656C353.688 265.531 354.051 266.543 354.746 267.316C355.449 268.082 356.34 268.465 357.418 268.465C358.184 268.465 358.832 268.309 359.363 267.996C359.895 267.684 360.359 267.27 360.758 266.754L362.082 267.785C361.02 269.418 359.426 270.234 357.301 270.234ZM357.031 258.867C356.156 258.867 355.422 259.188 354.828 259.828C354.234 260.461 353.867 261.352 353.727 262.5H360.078V262.336C360.016 261.234 359.719 260.383 359.188 259.781C358.656 259.172 357.938 258.867 357.031 258.867ZM364.238 263.555C364.238 261.609 364.699 260.047 365.621 258.867C366.543 257.68 367.75 257.086 369.242 257.086C370.727 257.086 371.902 257.594 372.77 258.609V252H374.938V270H372.945L372.84 268.641C371.973 269.703 370.766 270.234 369.219 270.234C367.75 270.234 366.551 269.633 365.621 268.43C364.699 267.227 364.238 265.656 364.238 263.719V263.555ZM366.406 263.801C366.406 265.238 366.703 266.363 367.297 267.176C367.891 267.988 368.711 268.395 369.758 268.395C371.133 268.395 372.137 267.777 372.77 266.543V260.719C372.121 259.523 371.125 258.926 369.781 258.926C368.719 258.926 367.891 259.336 367.297 260.156C366.703 260.977 366.406 262.191 366.406 263.801ZM383.316 263.191C383.316 264.934 383.086 266.605 382.625 268.207C382.172 269.801 381.473 271.273 380.527 272.625C379.59 273.977 378.605 274.938 377.574 275.508L377.117 274.184C378.32 273.262 379.285 271.832 380.012 269.895C380.746 267.949 381.121 265.793 381.137 263.426V263.051C381.137 261.41 380.965 259.887 380.621 258.48C380.277 257.066 379.797 255.801 379.18 254.684C378.57 253.566 377.883 252.695 377.117 252.07L377.574 250.746C378.605 251.316 379.586 252.27 380.516 253.605C381.453 254.941 382.152 256.414 382.613 258.023C383.082 259.633 383.316 261.355 383.316 263.191Z" fill="black"/>
<path d="M329.331 197.008H336.195V198.52H331.467V216.136H336.195V217.648H329.331V197.008Z" fill="#A541F8"/>
<path d="M321.638 159.723H324.59L332.486 180.603H329.534L321.638 159.723ZM339.077 159.771H346.157V161.643H341.765V178.539H346.157V180.411H339.077V159.771Z" fill="#A541F8"/>
<rect x="620" y="140" width="130" height="208" fill="#FFFAF5"/>
<path d="M641.77 198.789H636.285V214H634.047V198.789H628.574V196.938H641.77V198.789ZM646.129 202.855C647.09 201.676 648.34 201.086 649.879 201.086C652.559 201.086 653.91 202.598 653.934 205.621V214H651.766V205.609C651.758 204.695 651.547 204.02 651.133 203.582C650.727 203.145 650.09 202.926 649.223 202.926C648.52 202.926 647.902 203.113 647.371 203.488C646.84 203.863 646.426 204.355 646.129 204.965V214H643.961V196H646.129V202.855ZM662.441 214.234C660.723 214.234 659.324 213.672 658.246 212.547C657.168 211.414 656.629 209.902 656.629 208.012V207.613C656.629 206.355 656.867 205.234 657.344 204.25C657.828 203.258 658.5 202.484 659.359 201.93C660.227 201.367 661.164 201.086 662.172 201.086C663.82 201.086 665.102 201.629 666.016 202.715C666.93 203.801 667.387 205.355 667.387 207.379V208.281H658.797C658.828 209.531 659.191 210.543 659.887 211.316C660.59 212.082 661.48 212.465 662.559 212.465C663.324 212.465 663.973 212.309 664.504 211.996C665.035 211.684 665.5 211.27 665.898 210.754L667.223 211.785C666.16 213.418 664.566 214.234 662.441 214.234ZM662.172 202.867C661.297 202.867 660.562 203.188 659.969 203.828C659.375 204.461 659.008 205.352 658.867 206.5H665.219V206.336C665.156 205.234 664.859 204.383 664.328 203.781C663.797 203.172 663.078 202.867 662.172 202.867ZM634.727 240.465C635.5 240.465 636.176 240.23 636.754 239.762C637.332 239.293 637.652 238.707 637.715 238.004H639.766C639.727 238.73 639.477 239.422 639.016 240.078C638.555 240.734 637.938 241.258 637.164 241.648C636.398 242.039 635.586 242.234 634.727 242.234C633 242.234 631.625 241.66 630.602 240.512C629.586 239.355 629.078 237.777 629.078 235.777V235.414C629.078 234.18 629.305 233.082 629.758 232.121C630.211 231.16 630.859 230.414 631.703 229.883C632.555 229.352 633.559 229.086 634.715 229.086C636.137 229.086 637.316 229.512 638.254 230.363C639.199 231.215 639.703 232.32 639.766 233.68H637.715C637.652 232.859 637.34 232.188 636.777 231.664C636.223 231.133 635.535 230.867 634.715 230.867C633.613 230.867 632.758 231.266 632.148 232.062C631.547 232.852 631.246 233.996 631.246 235.496V235.906C631.246 237.367 631.547 238.492 632.148 239.281C632.75 240.07 633.609 240.465 634.727 240.465ZM644.371 230.855C645.332 229.676 646.582 229.086 648.121 229.086C650.801 229.086 652.152 230.598 652.176 233.621V242H650.008V233.609C650 232.695 649.789 232.02 649.375 231.582C648.969 231.145 648.332 230.926 647.465 230.926C646.762 230.926 646.145 231.113 645.613 231.488C645.082 231.863 644.668 232.355 644.371 232.965V242H642.203V224H644.371V230.855ZM663.25 242C663.125 241.75 663.023 241.305 662.945 240.664C661.938 241.711 660.734 242.234 659.336 242.234C658.086 242.234 657.059 241.883 656.254 241.18C655.457 240.469 655.059 239.57 655.059 238.484C655.059 237.164 655.559 236.141 656.559 235.414C657.566 234.68 658.98 234.312 660.801 234.312H662.91V233.316C662.91 232.559 662.684 231.957 662.23 231.512C661.777 231.059 661.109 230.832 660.227 230.832C659.453 230.832 658.805 231.027 658.281 231.418C657.758 231.809 657.496 232.281 657.496 232.836H655.316C655.316 232.203 655.539 231.594 655.984 231.008C656.438 230.414 657.047 229.945 657.812 229.602C658.586 229.258 659.434 229.086 660.355 229.086C661.816 229.086 662.961 229.453 663.789 230.188C664.617 230.914 665.047 231.918 665.078 233.199V239.035C665.078 240.199 665.227 241.125 665.523 241.812V242H663.25ZM659.652 240.348C660.332 240.348 660.977 240.172 661.586 239.82C662.195 239.469 662.637 239.012 662.91 238.449V235.848H661.211C658.555 235.848 657.227 236.625 657.227 238.18C657.227 238.859 657.453 239.391 657.906 239.773C658.359 240.156 658.941 240.348 659.652 240.348ZM674.605 231.266C674.277 231.211 673.922 231.184 673.539 231.184C672.117 231.184 671.152 231.789 670.645 233V242H668.477V229.32H670.586L670.621 230.785C671.332 229.652 672.34 229.086 673.645 229.086C674.066 229.086 674.387 229.141 674.605 229.25V231.266ZM683.969 242C683.844 241.75 683.742 241.305 683.664 240.664C682.656 241.711 681.453 242.234 680.055 242.234C678.805 242.234 677.777 241.883 676.973 241.18C676.176 240.469 675.777 239.57 675.777 238.484C675.777 237.164 676.277 236.141 677.277 235.414C678.285 234.68 679.699 234.312 681.52 234.312H683.629V233.316C683.629 232.559 683.402 231.957 682.949 231.512C682.496 231.059 681.828 230.832 680.945 230.832C680.172 230.832 679.523 231.027 679 231.418C678.477 231.809 678.215 232.281 678.215 232.836H676.035C676.035 232.203 676.258 231.594 676.703 231.008C677.156 230.414 677.766 229.945 678.531 229.602C679.305 229.258 680.152 229.086 681.074 229.086C682.535 229.086 683.68 229.453 684.508 230.188C685.336 230.914 685.766 231.918 685.797 233.199V239.035C685.797 240.199 685.945 241.125 686.242 241.812V242H683.969ZM680.371 240.348C681.051 240.348 681.695 240.172 682.305 239.82C682.914 239.469 683.355 239.012 683.629 238.449V235.848H681.93C679.273 235.848 677.945 236.625 677.945 238.18C677.945 238.859 678.172 239.391 678.625 239.773C679.078 240.156 679.66 240.348 680.371 240.348ZM694.281 240.465C695.055 240.465 695.73 240.23 696.309 239.762C696.887 239.293 697.207 238.707 697.27 238.004H699.32C699.281 238.73 699.031 239.422 698.57 240.078C698.109 240.734 697.492 241.258 696.719 241.648C695.953 242.039 695.141 242.234 694.281 242.234C692.555 242.234 691.18 241.66 690.156 240.512C689.141 239.355 688.633 237.777 688.633 235.777V235.414C688.633 234.18 688.859 233.082 689.312 232.121C689.766 231.16 690.414 230.414 691.258 229.883C692.109 229.352 693.113 229.086 694.27 229.086C695.691 229.086 696.871 229.512 697.809 230.363C698.754 231.215 699.258 232.32 699.32 233.68H697.27C697.207 232.859 696.895 232.188 696.332 231.664C695.777 231.133 695.09 230.867 694.27 230.867C693.168 230.867 692.312 231.266 691.703 232.062C691.102 232.852 690.801 233.996 690.801 235.496V235.906C690.801 237.367 691.102 238.492 691.703 239.281C692.305 240.07 693.164 240.465 694.281 240.465ZM704.699 226.25V229.32H707.066V230.996H704.699V238.859C704.699 239.367 704.805 239.75 705.016 240.008C705.227 240.258 705.586 240.383 706.094 240.383C706.344 240.383 706.688 240.336 707.125 240.242V242C706.555 242.156 706 242.234 705.461 242.234C704.492 242.234 703.762 241.941 703.27 241.355C702.777 240.77 702.531 239.938 702.531 238.859V230.996H700.223V229.32H702.531V226.25H704.699ZM714.871 242.234C713.152 242.234 711.754 241.672 710.676 240.547C709.598 239.414 709.059 237.902 709.059 236.012V235.613C709.059 234.355 709.297 233.234 709.773 232.25C710.258 231.258 710.93 230.484 711.789 229.93C712.656 229.367 713.594 229.086 714.602 229.086C716.25 229.086 717.531 229.629 718.445 230.715C719.359 231.801 719.816 233.355 719.816 235.379V236.281H711.227C711.258 237.531 711.621 238.543 712.316 239.316C713.02 240.082 713.91 240.465 714.988 240.465C715.754 240.465 716.402 240.309 716.934 239.996C717.465 239.684 717.93 239.27 718.328 238.754L719.652 239.785C718.59 241.418 716.996 242.234 714.871 242.234ZM714.602 230.867C713.727 230.867 712.992 231.188 712.398 231.828C711.805 232.461 711.438 233.352 711.297 234.5H717.648V234.336C717.586 233.234 717.289 232.383 716.758 231.781C716.227 231.172 715.508 230.867 714.602 230.867ZM728.465 231.266C728.137 231.211 727.781 231.184 727.398 231.184C725.977 231.184 725.012 231.789 724.504 233V242H722.336V229.32H724.445L724.48 230.785C725.191 229.652 726.199 229.086 727.504 229.086C727.926 229.086 728.246 229.141 728.465 229.25V231.266ZM629.559 263.074C629.559 261.309 629.793 259.613 630.262 257.988C630.738 256.363 631.445 254.887 632.383 253.559C633.32 252.23 634.293 251.293 635.301 250.746L635.746 252.176C634.605 253.051 633.668 254.387 632.934 256.184C632.207 257.98 631.809 259.992 631.738 262.219L631.727 263.215C631.727 266.23 632.277 268.848 633.379 271.066C634.043 272.395 634.832 273.434 635.746 274.184L635.301 275.508C634.262 274.93 633.27 273.961 632.324 272.602C630.48 269.945 629.559 266.77 629.559 263.074ZM643.105 270.234C641.387 270.234 639.988 269.672 638.91 268.547C637.832 267.414 637.293 265.902 637.293 264.012V263.613C637.293 262.355 637.531 261.234 638.008 260.25C638.492 259.258 639.164 258.484 640.023 257.93C640.891 257.367 641.828 257.086 642.836 257.086C644.484 257.086 645.766 257.629 646.68 258.715C647.594 259.801 648.051 261.355 648.051 263.379V264.281H639.461C639.492 265.531 639.855 266.543 640.551 267.316C641.254 268.082 642.145 268.465 643.223 268.465C643.988 268.465 644.637 268.309 645.168 267.996C645.699 267.684 646.164 267.27 646.562 266.754L647.887 267.785C646.824 269.418 645.23 270.234 643.105 270.234ZM642.836 258.867C641.961 258.867 641.227 259.188 640.633 259.828C640.039 260.461 639.672 261.352 639.531 262.5H645.883V262.336C645.82 261.234 645.523 260.383 644.992 259.781C644.461 259.172 643.742 258.867 642.836 258.867ZM657.953 266.637C657.953 266.051 657.73 265.598 657.285 265.277C656.848 264.949 656.078 264.668 654.977 264.434C653.883 264.199 653.012 263.918 652.363 263.59C651.723 263.262 651.246 262.871 650.934 262.418C650.629 261.965 650.477 261.426 650.477 260.801C650.477 259.762 650.914 258.883 651.789 258.164C652.672 257.445 653.797 257.086 655.164 257.086C656.602 257.086 657.766 257.457 658.656 258.199C659.555 258.941 660.004 259.891 660.004 261.047H657.824C657.824 260.453 657.57 259.941 657.062 259.512C656.562 259.082 655.93 258.867 655.164 258.867C654.375 258.867 653.758 259.039 653.312 259.383C652.867 259.727 652.645 260.176 652.645 260.73C652.645 261.254 652.852 261.648 653.266 261.914C653.68 262.18 654.426 262.434 655.504 262.676C656.59 262.918 657.469 263.207 658.141 263.543C658.812 263.879 659.309 264.285 659.629 264.762C659.957 265.23 660.121 265.805 660.121 266.484C660.121 267.617 659.668 268.527 658.762 269.215C657.855 269.895 656.68 270.234 655.234 270.234C654.219 270.234 653.32 270.055 652.539 269.695C651.758 269.336 651.145 268.836 650.699 268.195C650.262 267.547 650.043 266.848 650.043 266.098H652.211C652.25 266.824 652.539 267.402 653.078 267.832C653.625 268.254 654.344 268.465 655.234 268.465C656.055 268.465 656.711 268.301 657.203 267.973C657.703 267.637 657.953 267.191 657.953 266.637ZM668.031 268.465C668.805 268.465 669.48 268.23 670.059 267.762C670.637 267.293 670.957 266.707 671.02 266.004H673.07C673.031 266.73 672.781 267.422 672.32 268.078C671.859 268.734 671.242 269.258 670.469 269.648C669.703 270.039 668.891 270.234 668.031 270.234C666.305 270.234 664.93 269.66 663.906 268.512C662.891 267.355 662.383 265.777 662.383 263.777V263.414C662.383 262.18 662.609 261.082 663.062 260.121C663.516 259.16 664.164 258.414 665.008 257.883C665.859 257.352 666.863 257.086 668.02 257.086C669.441 257.086 670.621 257.512 671.559 258.363C672.504 259.215 673.008 260.32 673.07 261.68H671.02C670.957 260.859 670.645 260.188 670.082 259.664C669.527 259.133 668.84 258.867 668.02 258.867C666.918 258.867 666.062 259.266 665.453 260.062C664.852 260.852 664.551 261.996 664.551 263.496V263.906C664.551 265.367 664.852 266.492 665.453 267.281C666.055 268.07 666.914 268.465 668.031 268.465ZM683.336 270C683.211 269.75 683.109 269.305 683.031 268.664C682.023 269.711 680.82 270.234 679.422 270.234C678.172 270.234 677.145 269.883 676.34 269.18C675.543 268.469 675.145 267.57 675.145 266.484C675.145 265.164 675.645 264.141 676.645 263.414C677.652 262.68 679.066 262.312 680.887 262.312H682.996V261.316C682.996 260.559 682.77 259.957 682.316 259.512C681.863 259.059 681.195 258.832 680.312 258.832C679.539 258.832 678.891 259.027 678.367 259.418C677.844 259.809 677.582 260.281 677.582 260.836H675.402C675.402 260.203 675.625 259.594 676.07 259.008C676.523 258.414 677.133 257.945 677.898 257.602C678.672 257.258 679.52 257.086 680.441 257.086C681.902 257.086 683.047 257.453 683.875 258.188C684.703 258.914 685.133 259.918 685.164 261.199V267.035C685.164 268.199 685.312 269.125 685.609 269.812V270H683.336ZM679.738 268.348C680.418 268.348 681.062 268.172 681.672 267.82C682.281 267.469 682.723 267.012 682.996 266.449V263.848H681.297C678.641 263.848 677.312 264.625 677.312 266.18C677.312 266.859 677.539 267.391 677.992 267.773C678.445 268.156 679.027 268.348 679.738 268.348ZM699.273 263.801C699.273 265.73 698.832 267.285 697.949 268.465C697.066 269.645 695.871 270.234 694.363 270.234C692.824 270.234 691.613 269.746 690.73 268.77V274.875H688.562V257.32H690.543L690.648 258.727C691.531 257.633 692.758 257.086 694.328 257.086C695.852 257.086 697.055 257.66 697.938 258.809C698.828 259.957 699.273 261.555 699.273 263.602V263.801ZM697.105 263.555C697.105 262.125 696.801 260.996 696.191 260.168C695.582 259.34 694.746 258.926 693.684 258.926C692.371 258.926 691.387 259.508 690.73 260.672V266.73C691.379 267.887 692.371 268.465 693.707 268.465C694.746 268.465 695.57 268.055 696.18 267.234C696.797 266.406 697.105 265.18 697.105 263.555ZM707.301 270.234C705.582 270.234 704.184 269.672 703.105 268.547C702.027 267.414 701.488 265.902 701.488 264.012V263.613C701.488 262.355 701.727 261.234 702.203 260.25C702.688 259.258 703.359 258.484 704.219 257.93C705.086 257.367 706.023 257.086 707.031 257.086C708.68 257.086 709.961 257.629 710.875 258.715C711.789 259.801 712.246 261.355 712.246 263.379V264.281H703.656C703.688 265.531 704.051 266.543 704.746 267.316C705.449 268.082 706.34 268.465 707.418 268.465C708.184 268.465 708.832 268.309 709.363 267.996C709.895 267.684 710.359 267.27 710.758 266.754L712.082 267.785C711.02 269.418 709.426 270.234 707.301 270.234ZM707.031 258.867C706.156 258.867 705.422 259.188 704.828 259.828C704.234 260.461 703.867 261.352 703.727 262.5H710.078V262.336C710.016 261.234 709.719 260.383 709.188 259.781C708.656 259.172 707.938 258.867 707.031 258.867ZM714.238 263.555C714.238 261.609 714.699 260.047 715.621 258.867C716.543 257.68 717.75 257.086 719.242 257.086C720.727 257.086 721.902 257.594 722.77 258.609V252H724.938V270H722.945L722.84 268.641C721.973 269.703 720.766 270.234 719.219 270.234C717.75 270.234 716.551 269.633 715.621 268.43C714.699 267.227 714.238 265.656 714.238 263.719V263.555ZM716.406 263.801C716.406 265.238 716.703 266.363 717.297 267.176C717.891 267.988 718.711 268.395 719.758 268.395C721.133 268.395 722.137 267.777 722.77 266.543V260.719C722.121 259.523 721.125 258.926 719.781 258.926C718.719 258.926 717.891 259.336 717.297 260.156C716.703 260.977 716.406 262.191 716.406 263.801ZM733.316 263.191C733.316 264.934 733.086 266.605 732.625 268.207C732.172 269.801 731.473 271.273 730.527 272.625C729.59 273.977 728.605 274.938 727.574 275.508L727.117 274.184C728.32 273.262 729.285 271.832 730.012 269.895C730.746 267.949 731.121 265.793 731.137 263.426V263.051C731.137 261.41 730.965 259.887 730.621 258.48C730.277 257.066 729.797 255.801 729.18 254.684C728.57 253.566 727.883 252.695 727.117 252.07L727.574 250.746C728.605 251.316 729.586 252.27 730.516 253.605C731.453 254.941 732.152 256.414 732.613 258.023C733.082 259.633 733.316 261.355 733.316 263.191Z" fill="black"/>
<path d="M681.371 216.136V198.52H676.667V197.008H683.531V217.648H676.667V216.136H681.371Z" fill="#A541F8"/>
<path d="M671.638 159.723H674.59L682.486 180.603H679.534L671.638 159.723ZM691.141 178.539V161.643H686.773V159.771H693.853V180.411H686.773V178.539H691.141Z" fill="#A541F8"/>
<rect x="448" y="140" width="130" height="208" fill="#FFFAF5"/>
<path d="M471.105 204.02C471.105 205.691 470.824 207.152 470.262 208.402C469.699 209.645 468.902 210.594 467.871 211.25C466.84 211.906 465.637 212.234 464.262 212.234C462.918 212.234 461.727 211.906 460.688 211.25C459.648 210.586 458.84 209.645 458.262 208.426C457.691 207.199 457.398 205.781 457.383 204.172V202.941C457.383 201.301 457.668 199.852 458.238 198.594C458.809 197.336 459.613 196.375 460.652 195.711C461.699 195.039 462.895 194.703 464.238 194.703C465.605 194.703 466.809 195.035 467.848 195.699C468.895 196.355 469.699 197.312 470.262 198.57C470.824 199.82 471.105 201.277 471.105 202.941V204.02ZM468.867 202.918C468.867 200.895 468.461 199.344 467.648 198.266C466.836 197.18 465.699 196.637 464.238 196.637C462.816 196.637 461.695 197.18 460.875 198.266C460.062 199.344 459.645 200.844 459.621 202.766V204.02C459.621 205.98 460.031 207.523 460.852 208.648C461.68 209.766 462.816 210.324 464.262 210.324C465.715 210.324 466.84 209.797 467.637 208.742C468.434 207.68 468.844 206.16 468.867 204.184V202.918ZM476.191 199.32L476.262 200.914C477.23 199.695 478.496 199.086 480.059 199.086C482.738 199.086 484.09 200.598 484.113 203.621V212H481.945V203.609C481.938 202.695 481.727 202.02 481.312 201.582C480.906 201.145 480.27 200.926 479.402 200.926C478.699 200.926 478.082 201.113 477.551 201.488C477.02 201.863 476.605 202.355 476.309 202.965V212H474.141V199.32H476.191ZM492.645 212.234C490.926 212.234 489.527 211.672 488.449 210.547C487.371 209.414 486.832 207.902 486.832 206.012V205.613C486.832 204.355 487.07 203.234 487.547 202.25C488.031 201.258 488.703 200.484 489.562 199.93C490.43 199.367 491.367 199.086 492.375 199.086C494.023 199.086 495.305 199.629 496.219 200.715C497.133 201.801 497.59 203.355 497.59 205.379V206.281H489C489.031 207.531 489.395 208.543 490.09 209.316C490.793 210.082 491.684 210.465 492.762 210.465C493.527 210.465 494.176 210.309 494.707 209.996C495.238 209.684 495.703 209.27 496.102 208.754L497.426 209.785C496.363 211.418 494.77 212.234 492.645 212.234ZM492.375 200.867C491.5 200.867 490.766 201.188 490.172 201.828C489.578 202.461 489.211 203.352 489.07 204.5H495.422V204.336C495.359 203.234 495.062 202.383 494.531 201.781C494 201.172 493.281 200.867 492.375 200.867ZM505.488 205.543C505.488 204.301 505.73 203.184 506.215 202.191C506.707 201.199 507.387 200.434 508.254 199.895C509.129 199.355 510.125 199.086 511.242 199.086C512.969 199.086 514.363 199.684 515.426 200.879C516.496 202.074 517.031 203.664 517.031 205.648V205.801C517.031 207.035 516.793 208.145 516.316 209.129C515.848 210.105 515.172 210.867 514.289 211.414C513.414 211.961 512.406 212.234 511.266 212.234C509.547 212.234 508.152 211.637 507.082 210.441C506.02 209.246 505.488 207.664 505.488 205.695V205.543ZM507.668 205.801C507.668 207.207 507.992 208.336 508.641 209.188C509.297 210.039 510.172 210.465 511.266 210.465C512.367 210.465 513.242 210.035 513.891 209.176C514.539 208.309 514.863 207.098 514.863 205.543C514.863 204.152 514.531 203.027 513.867 202.168C513.211 201.301 512.336 200.867 511.242 200.867C510.172 200.867 509.309 201.293 508.652 202.145C507.996 202.996 507.668 204.215 507.668 205.801ZM525.879 201.266C525.551 201.211 525.195 201.184 524.812 201.184C523.391 201.184 522.426 201.789 521.918 203V212H519.75V199.32H521.859L521.895 200.785C522.605 199.652 523.613 199.086 524.918 199.086C525.34 199.086 525.66 199.141 525.879 199.25V201.266ZM459.68 227.32L459.738 228.727C460.668 227.633 461.922 227.086 463.5 227.086C465.273 227.086 466.48 227.766 467.121 229.125C467.543 228.516 468.09 228.023 468.762 227.648C469.441 227.273 470.242 227.086 471.164 227.086C473.945 227.086 475.359 228.559 475.406 231.504V240H473.238V231.633C473.238 230.727 473.031 230.051 472.617 229.605C472.203 229.152 471.508 228.926 470.531 228.926C469.727 228.926 469.059 229.168 468.527 229.652C467.996 230.129 467.688 230.773 467.602 231.586V240H465.422V231.691C465.422 229.848 464.52 228.926 462.715 228.926C461.293 228.926 460.32 229.531 459.797 230.742V240H457.629V227.32H459.68ZM478.113 233.543C478.113 232.301 478.355 231.184 478.84 230.191C479.332 229.199 480.012 228.434 480.879 227.895C481.754 227.355 482.75 227.086 483.867 227.086C485.594 227.086 486.988 227.684 488.051 228.879C489.121 230.074 489.656 231.664 489.656 233.648V233.801C489.656 235.035 489.418 236.145 488.941 237.129C488.473 238.105 487.797 238.867 486.914 239.414C486.039 239.961 485.031 240.234 483.891 240.234C482.172 240.234 480.777 239.637 479.707 238.441C478.645 237.246 478.113 235.664 478.113 233.695V233.543ZM480.293 233.801C480.293 235.207 480.617 236.336 481.266 237.188C481.922 238.039 482.797 238.465 483.891 238.465C484.992 238.465 485.867 238.035 486.516 237.176C487.164 236.309 487.488 235.098 487.488 233.543C487.488 232.152 487.156 231.027 486.492 230.168C485.836 229.301 484.961 228.867 483.867 228.867C482.797 228.867 481.934 229.293 481.277 230.145C480.621 230.996 480.293 232.215 480.293 233.801ZM498.504 229.266C498.176 229.211 497.82 229.184 497.438 229.184C496.016 229.184 495.051 229.789 494.543 231V240H492.375V227.32H494.484L494.52 228.785C495.23 227.652 496.238 227.086 497.543 227.086C497.965 227.086 498.285 227.141 498.504 227.25V229.266ZM505.535 240.234C503.816 240.234 502.418 239.672 501.34 238.547C500.262 237.414 499.723 235.902 499.723 234.012V233.613C499.723 232.355 499.961 231.234 500.438 230.25C500.922 229.258 501.594 228.484 502.453 227.93C503.32 227.367 504.258 227.086 505.266 227.086C506.914 227.086 508.195 227.629 509.109 228.715C510.023 229.801 510.48 231.355 510.48 233.379V234.281H501.891C501.922 235.531 502.285 236.543 502.98 237.316C503.684 238.082 504.574 238.465 505.652 238.465C506.418 238.465 507.066 238.309 507.598 237.996C508.129 237.684 508.594 237.27 508.992 236.754L510.316 237.785C509.254 239.418 507.66 240.234 505.535 240.234ZM505.266 228.867C504.391 228.867 503.656 229.188 503.062 229.828C502.469 230.461 502.102 231.352 501.961 232.5H508.312V232.336C508.25 231.234 507.953 230.383 507.422 229.781C506.891 229.172 506.172 228.867 505.266 228.867ZM468.867 265.012L471.305 255.32H473.473L469.781 268H468.023L464.941 258.391L461.941 268H460.184L456.504 255.32H458.66L461.156 264.812L464.109 255.32H465.855L468.867 265.012ZM475.113 261.543C475.113 260.301 475.355 259.184 475.84 258.191C476.332 257.199 477.012 256.434 477.879 255.895C478.754 255.355 479.75 255.086 480.867 255.086C482.594 255.086 483.988 255.684 485.051 256.879C486.121 258.074 486.656 259.664 486.656 261.648V261.801C486.656 263.035 486.418 264.145 485.941 265.129C485.473 266.105 484.797 266.867 483.914 267.414C483.039 267.961 482.031 268.234 480.891 268.234C479.172 268.234 477.777 267.637 476.707 266.441C475.645 265.246 475.113 263.664 475.113 261.695V261.543ZM477.293 261.801C477.293 263.207 477.617 264.336 478.266 265.188C478.922 266.039 479.797 266.465 480.891 266.465C481.992 266.465 482.867 266.035 483.516 265.176C484.164 264.309 484.488 263.098 484.488 261.543C484.488 260.152 484.156 259.027 483.492 258.168C482.836 257.301 481.961 256.867 480.867 256.867C479.797 256.867 478.934 257.293 478.277 258.145C477.621 258.996 477.293 260.215 477.293 261.801ZM495.504 257.266C495.176 257.211 494.82 257.184 494.438 257.184C493.016 257.184 492.051 257.789 491.543 259V268H489.375V255.32H491.484L491.52 256.785C492.23 255.652 493.238 255.086 494.543 255.086C494.965 255.086 495.285 255.141 495.504 255.25V257.266ZM496.746 261.555C496.746 259.609 497.207 258.047 498.129 256.867C499.051 255.68 500.258 255.086 501.75 255.086C503.234 255.086 504.41 255.594 505.277 256.609V250H507.445V268H505.453L505.348 266.641C504.48 267.703 503.273 268.234 501.727 268.234C500.258 268.234 499.059 267.633 498.129 266.43C497.207 265.227 496.746 263.656 496.746 261.719V261.555ZM498.914 261.801C498.914 263.238 499.211 264.363 499.805 265.176C500.398 265.988 501.219 266.395 502.266 266.395C503.641 266.395 504.645 265.777 505.277 264.543V258.719C504.629 257.523 503.633 256.926 502.289 256.926C501.227 256.926 500.398 257.336 499.805 258.156C499.211 258.977 498.914 260.191 498.914 261.801ZM462.727 294.465C463.5 294.465 464.176 294.23 464.754 293.762C465.332 293.293 465.652 292.707 465.715 292.004H467.766C467.727 292.73 467.477 293.422 467.016 294.078C466.555 294.734 465.938 295.258 465.164 295.648C464.398 296.039 463.586 296.234 462.727 296.234C461 296.234 459.625 295.66 458.602 294.512C457.586 293.355 457.078 291.777 457.078 289.777V289.414C457.078 288.18 457.305 287.082 457.758 286.121C458.211 285.16 458.859 284.414 459.703 283.883C460.555 283.352 461.559 283.086 462.715 283.086C464.137 283.086 465.316 283.512 466.254 284.363C467.199 285.215 467.703 286.32 467.766 287.68H465.715C465.652 286.859 465.34 286.188 464.777 285.664C464.223 285.133 463.535 284.867 462.715 284.867C461.613 284.867 460.758 285.266 460.148 286.062C459.547 286.852 459.246 287.996 459.246 289.496V289.906C459.246 291.367 459.547 292.492 460.148 293.281C460.75 294.07 461.609 294.465 462.727 294.465ZM472.371 284.855C473.332 283.676 474.582 283.086 476.121 283.086C478.801 283.086 480.152 284.598 480.176 287.621V296H478.008V287.609C478 286.695 477.789 286.02 477.375 285.582C476.969 285.145 476.332 284.926 475.465 284.926C474.762 284.926 474.145 285.113 473.613 285.488C473.082 285.863 472.668 286.355 472.371 286.965V296H470.203V278H472.371V284.855ZM491.25 296C491.125 295.75 491.023 295.305 490.945 294.664C489.938 295.711 488.734 296.234 487.336 296.234C486.086 296.234 485.059 295.883 484.254 295.18C483.457 294.469 483.059 293.57 483.059 292.484C483.059 291.164 483.559 290.141 484.559 289.414C485.566 288.68 486.98 288.312 488.801 288.312H490.91V287.316C490.91 286.559 490.684 285.957 490.23 285.512C489.777 285.059 489.109 284.832 488.227 284.832C487.453 284.832 486.805 285.027 486.281 285.418C485.758 285.809 485.496 286.281 485.496 286.836H483.316C483.316 286.203 483.539 285.594 483.984 285.008C484.438 284.414 485.047 283.945 485.812 283.602C486.586 283.258 487.434 283.086 488.355 283.086C489.816 283.086 490.961 283.453 491.789 284.188C492.617 284.914 493.047 285.918 493.078 287.199V293.035C493.078 294.199 493.227 295.125 493.523 295.812V296H491.25ZM487.652 294.348C488.332 294.348 488.977 294.172 489.586 293.82C490.195 293.469 490.637 293.012 490.91 292.449V289.848H489.211C486.555 289.848 485.227 290.625 485.227 292.18C485.227 292.859 485.453 293.391 485.906 293.773C486.359 294.156 486.941 294.348 487.652 294.348ZM502.605 285.266C502.277 285.211 501.922 285.184 501.539 285.184C500.117 285.184 499.152 285.789 498.645 287V296H496.477V283.32H498.586L498.621 284.785C499.332 283.652 500.34 283.086 501.645 283.086C502.066 283.086 502.387 283.141 502.605 283.25V285.266ZM511.969 296C511.844 295.75 511.742 295.305 511.664 294.664C510.656 295.711 509.453 296.234 508.055 296.234C506.805 296.234 505.777 295.883 504.973 295.18C504.176 294.469 503.777 293.57 503.777 292.484C503.777 291.164 504.277 290.141 505.277 289.414C506.285 288.68 507.699 288.312 509.52 288.312H511.629V287.316C511.629 286.559 511.402 285.957 510.949 285.512C510.496 285.059 509.828 284.832 508.945 284.832C508.172 284.832 507.523 285.027 507 285.418C506.477 285.809 506.215 286.281 506.215 286.836H504.035C504.035 286.203 504.258 285.594 504.703 285.008C505.156 284.414 505.766 283.945 506.531 283.602C507.305 283.258 508.152 283.086 509.074 283.086C510.535 283.086 511.68 283.453 512.508 284.188C513.336 284.914 513.766 285.918 513.797 287.199V293.035C513.797 294.199 513.945 295.125 514.242 295.812V296H511.969ZM508.371 294.348C509.051 294.348 509.695 294.172 510.305 293.82C510.914 293.469 511.355 293.012 511.629 292.449V289.848H509.93C507.273 289.848 505.945 290.625 505.945 292.18C505.945 292.859 506.172 293.391 506.625 293.773C507.078 294.156 507.66 294.348 508.371 294.348ZM522.281 294.465C523.055 294.465 523.73 294.23 524.309 293.762C524.887 293.293 525.207 292.707 525.27 292.004H527.32C527.281 292.73 527.031 293.422 526.57 294.078C526.109 294.734 525.492 295.258 524.719 295.648C523.953 296.039 523.141 296.234 522.281 296.234C520.555 296.234 519.18 295.66 518.156 294.512C517.141 293.355 516.633 291.777 516.633 289.777V289.414C516.633 288.18 516.859 287.082 517.312 286.121C517.766 285.16 518.414 284.414 519.258 283.883C520.109 283.352 521.113 283.086 522.27 283.086C523.691 283.086 524.871 283.512 525.809 284.363C526.754 285.215 527.258 286.32 527.32 287.68H525.27C525.207 286.859 524.895 286.188 524.332 285.664C523.777 285.133 523.09 284.867 522.27 284.867C521.168 284.867 520.312 285.266 519.703 286.062C519.102 286.852 518.801 287.996 518.801 289.496V289.906C518.801 291.367 519.102 292.492 519.703 293.281C520.305 294.07 521.164 294.465 522.281 294.465ZM532.699 280.25V283.32H535.066V284.996H532.699V292.859C532.699 293.367 532.805 293.75 533.016 294.008C533.227 294.258 533.586 294.383 534.094 294.383C534.344 294.383 534.688 294.336 535.125 294.242V296C534.555 296.156 534 296.234 533.461 296.234C532.492 296.234 531.762 295.941 531.27 295.355C530.777 294.77 530.531 293.938 530.531 292.859V284.996H528.223V283.32H530.531V280.25H532.699ZM542.871 296.234C541.152 296.234 539.754 295.672 538.676 294.547C537.598 293.414 537.059 291.902 537.059 290.012V289.613C537.059 288.355 537.297 287.234 537.773 286.25C538.258 285.258 538.93 284.484 539.789 283.93C540.656 283.367 541.594 283.086 542.602 283.086C544.25 283.086 545.531 283.629 546.445 284.715C547.359 285.801 547.816 287.355 547.816 289.379V290.281H539.227C539.258 291.531 539.621 292.543 540.316 293.316C541.02 294.082 541.91 294.465 542.988 294.465C543.754 294.465 544.402 294.309 544.934 293.996C545.465 293.684 545.93 293.27 546.328 292.754L547.652 293.785C546.59 295.418 544.996 296.234 542.871 296.234ZM542.602 284.867C541.727 284.867 540.992 285.188 540.398 285.828C539.805 286.461 539.438 287.352 539.297 288.5H545.648V288.336C545.586 287.234 545.289 286.383 544.758 285.781C544.227 285.172 543.508 284.867 542.602 284.867ZM556.465 285.266C556.137 285.211 555.781 285.184 555.398 285.184C553.977 285.184 553.012 285.789 552.504 287V296H550.336V283.32H552.445L552.48 284.785C553.191 283.652 554.199 283.086 555.504 283.086C555.926 283.086 556.246 283.141 556.465 283.25V285.266ZM565.852 292.637C565.852 292.051 565.629 291.598 565.184 291.277C564.746 290.949 563.977 290.668 562.875 290.434C561.781 290.199 560.91 289.918 560.262 289.59C559.621 289.262 559.145 288.871 558.832 288.418C558.527 287.965 558.375 287.426 558.375 286.801C558.375 285.762 558.812 284.883 559.688 284.164C560.57 283.445 561.695 283.086 563.062 283.086C564.5 283.086 565.664 283.457 566.555 284.199C567.453 284.941 567.902 285.891 567.902 287.047H565.723C565.723 286.453 565.469 285.941 564.961 285.512C564.461 285.082 563.828 284.867 563.062 284.867C562.273 284.867 561.656 285.039 561.211 285.383C560.766 285.727 560.543 286.176 560.543 286.73C560.543 287.254 560.75 287.648 561.164 287.914C561.578 288.18 562.324 288.434 563.402 288.676C564.488 288.918 565.367 289.207 566.039 289.543C566.711 289.879 567.207 290.285 567.527 290.762C567.855 291.23 568.02 291.805 568.02 292.484C568.02 293.617 567.566 294.527 566.66 295.215C565.754 295.895 564.578 296.234 563.133 296.234C562.117 296.234 561.219 296.055 560.438 295.695C559.656 295.336 559.043 294.836 558.598 294.195C558.16 293.547 557.941 292.848 557.941 292.098H560.109C560.148 292.824 560.438 293.402 560.977 293.832C561.523 294.254 562.242 294.465 563.133 294.465C563.953 294.465 564.609 294.301 565.102 293.973C565.602 293.637 565.852 293.191 565.852 292.637Z" fill="black"/>
<path d="M492.443 159.723H495.395L503.291 180.603H500.339L492.443 159.723ZM505.154 164.859H508.61L509.33 170.379C509.41 170.971 509.474 171.555 509.522 172.131C509.586 172.707 509.658 173.299 509.738 173.907H509.81C509.89 173.299 509.97 172.699 510.05 172.107C510.13 171.515 510.234 170.939 510.362 170.379L511.106 166.443H513.578L514.37 170.379C514.482 170.971 514.586 171.555 514.682 172.131C514.778 172.707 514.866 173.299 514.946 173.907H515.042C515.122 173.299 515.186 172.707 515.234 172.131C515.282 171.555 515.346 170.971 515.426 170.379L516.146 164.859H519.362L517.514 176.763H513.434L512.762 172.803C512.682 172.243 512.602 171.683 512.522 171.123C512.458 170.547 512.386 169.939 512.306 169.299H512.21C512.162 169.731 512.106 170.219 512.042 170.763C511.994 171.307 511.906 171.987 511.778 172.803L511.13 176.763H507.122L505.154 164.859Z" fill="#0072B2"/>
<path d="M525.352 170.091H521.128V167.595H525.352V163.179H527.944V167.595H532.168V170.091H527.944V174.507H525.352V170.091Z" fill="#56CCF2"/>
<rect x="98" y="140" width="130" height="208" fill="#FFFAF5"/>
<path d="M113.008 204.395C111.078 203.84 109.672 203.16 108.789 202.355C107.914 201.543 107.477 200.543 107.477 199.355C107.477 198.012 108.012 196.902 109.082 196.027C110.16 195.145 111.559 194.703 113.277 194.703C114.449 194.703 115.492 194.93 116.406 195.383C117.328 195.836 118.039 196.461 118.539 197.258C119.047 198.055 119.301 198.926 119.301 199.871H117.039C117.039 198.84 116.711 198.031 116.055 197.445C115.398 196.852 114.473 196.555 113.277 196.555C112.168 196.555 111.301 196.801 110.676 197.293C110.059 197.777 109.75 198.453 109.75 199.32C109.75 200.016 110.043 200.605 110.629 201.09C111.223 201.566 112.227 202.004 113.641 202.402C115.062 202.801 116.172 203.242 116.969 203.727C117.773 204.203 118.367 204.762 118.75 205.402C119.141 206.043 119.336 206.797 119.336 207.664C119.336 209.047 118.797 210.156 117.719 210.992C116.641 211.82 115.199 212.234 113.395 212.234C112.223 212.234 111.129 212.012 110.113 211.566C109.098 211.113 108.312 210.496 107.758 209.715C107.211 208.934 106.938 208.047 106.938 207.055H109.199C109.199 208.086 109.578 208.902 110.336 209.504C111.102 210.098 112.121 210.395 113.395 210.395C114.582 210.395 115.492 210.152 116.125 209.668C116.758 209.184 117.074 208.523 117.074 207.688C117.074 206.852 116.781 206.207 116.195 205.754C115.609 205.293 114.547 204.84 113.008 204.395ZM124.832 196.25V199.32H127.199V200.996H124.832V208.859C124.832 209.367 124.938 209.75 125.148 210.008C125.359 210.258 125.719 210.383 126.227 210.383C126.477 210.383 126.82 210.336 127.258 210.242V212C126.688 212.156 126.133 212.234 125.594 212.234C124.625 212.234 123.895 211.941 123.402 211.355C122.91 210.77 122.664 209.938 122.664 208.859V200.996H120.355V199.32H122.664V196.25H124.832ZM137.57 212C137.445 211.75 137.344 211.305 137.266 210.664C136.258 211.711 135.055 212.234 133.656 212.234C132.406 212.234 131.379 211.883 130.574 211.18C129.777 210.469 129.379 209.57 129.379 208.484C129.379 207.164 129.879 206.141 130.879 205.414C131.887 204.68 133.301 204.312 135.121 204.312H137.23V203.316C137.23 202.559 137.004 201.957 136.551 201.512C136.098 201.059 135.43 200.832 134.547 200.832C133.773 200.832 133.125 201.027 132.602 201.418C132.078 201.809 131.816 202.281 131.816 202.836H129.637C129.637 202.203 129.859 201.594 130.305 201.008C130.758 200.414 131.367 199.945 132.133 199.602C132.906 199.258 133.754 199.086 134.676 199.086C136.137 199.086 137.281 199.453 138.109 200.188C138.938 200.914 139.367 201.918 139.398 203.199V209.035C139.398 210.199 139.547 211.125 139.844 211.812V212H137.57ZM133.973 210.348C134.652 210.348 135.297 210.172 135.906 209.82C136.516 209.469 136.957 209.012 137.23 208.449V205.848H135.531C132.875 205.848 131.547 206.625 131.547 208.18C131.547 208.859 131.773 209.391 132.227 209.773C132.68 210.156 133.262 210.348 133.973 210.348ZM148.926 201.266C148.598 201.211 148.242 201.184 147.859 201.184C146.438 201.184 145.473 201.789 144.965 203V212H142.797V199.32H144.906L144.941 200.785C145.652 199.652 146.66 199.086 147.965 199.086C148.387 199.086 148.707 199.141 148.926 199.25V201.266ZM154.457 196.25V199.32H156.824V200.996H154.457V208.859C154.457 209.367 154.562 209.75 154.773 210.008C154.984 210.258 155.344 210.383 155.852 210.383C156.102 210.383 156.445 210.336 156.883 210.242V212C156.312 212.156 155.758 212.234 155.219 212.234C154.25 212.234 153.52 211.941 153.027 211.355C152.535 210.77 152.289 209.938 152.289 208.859V200.996H149.98V199.32H152.289V196.25H154.457ZM112.727 238.465C113.5 238.465 114.176 238.23 114.754 237.762C115.332 237.293 115.652 236.707 115.715 236.004H117.766C117.727 236.73 117.477 237.422 117.016 238.078C116.555 238.734 115.938 239.258 115.164 239.648C114.398 240.039 113.586 240.234 112.727 240.234C111 240.234 109.625 239.66 108.602 238.512C107.586 237.355 107.078 235.777 107.078 233.777V233.414C107.078 232.18 107.305 231.082 107.758 230.121C108.211 229.16 108.859 228.414 109.703 227.883C110.555 227.352 111.559 227.086 112.715 227.086C114.137 227.086 115.316 227.512 116.254 228.363C117.199 229.215 117.703 230.32 117.766 231.68H115.715C115.652 230.859 115.34 230.188 114.777 229.664C114.223 229.133 113.535 228.867 112.715 228.867C111.613 228.867 110.758 229.266 110.148 230.062C109.547 230.852 109.246 231.996 109.246 233.496V233.906C109.246 235.367 109.547 236.492 110.148 237.281C110.75 238.07 111.609 238.465 112.727 238.465ZM128.031 240C127.906 239.75 127.805 239.305 127.727 238.664C126.719 239.711 125.516 240.234 124.117 240.234C122.867 240.234 121.84 239.883 121.035 239.18C120.238 238.469 119.84 237.57 119.84 236.484C119.84 235.164 120.34 234.141 121.34 233.414C122.348 232.68 123.762 232.312 125.582 232.312H127.691V231.316C127.691 230.559 127.465 229.957 127.012 229.512C126.559 229.059 125.891 228.832 125.008 228.832C124.234 228.832 123.586 229.027 123.062 229.418C122.539 229.809 122.277 230.281 122.277 230.836H120.098C120.098 230.203 120.32 229.594 120.766 229.008C121.219 228.414 121.828 227.945 122.594 227.602C123.367 227.258 124.215 227.086 125.137 227.086C126.598 227.086 127.742 227.453 128.57 228.188C129.398 228.914 129.828 229.918 129.859 231.199V237.035C129.859 238.199 130.008 239.125 130.305 239.812V240H128.031ZM124.434 238.348C125.113 238.348 125.758 238.172 126.367 237.82C126.977 237.469 127.418 237.012 127.691 236.449V233.848H125.992C123.336 233.848 122.008 234.625 122.008 236.18C122.008 236.859 122.234 237.391 122.688 237.773C123.141 238.156 123.723 238.348 124.434 238.348ZM143.969 233.801C143.969 235.73 143.527 237.285 142.645 238.465C141.762 239.645 140.566 240.234 139.059 240.234C137.52 240.234 136.309 239.746 135.426 238.77V244.875H133.258V227.32H135.238L135.344 228.727C136.227 227.633 137.453 227.086 139.023 227.086C140.547 227.086 141.75 227.66 142.633 228.809C143.523 229.957 143.969 231.555 143.969 233.602V233.801ZM141.801 233.555C141.801 232.125 141.496 230.996 140.887 230.168C140.277 229.34 139.441 228.926 138.379 228.926C137.066 228.926 136.082 229.508 135.426 230.672V236.73C136.074 237.887 137.066 238.465 138.402 238.465C139.441 238.465 140.266 238.055 140.875 237.234C141.492 236.406 141.801 235.18 141.801 233.555ZM149.676 224.25V227.32H152.043V228.996H149.676V236.859C149.676 237.367 149.781 237.75 149.992 238.008C150.203 238.258 150.562 238.383 151.07 238.383C151.32 238.383 151.664 238.336 152.102 238.242V240C151.531 240.156 150.977 240.234 150.438 240.234C149.469 240.234 148.738 239.941 148.246 239.355C147.754 238.77 147.508 237.938 147.508 236.859V228.996H145.199V227.32H147.508V224.25H149.676ZM162.414 238.746C161.57 239.738 160.332 240.234 158.699 240.234C157.348 240.234 156.316 239.844 155.605 239.062C154.902 238.273 154.547 237.109 154.539 235.57V227.32H156.707V235.512C156.707 237.434 157.488 238.395 159.051 238.395C160.707 238.395 161.809 237.777 162.355 236.543V227.32H164.523V240H162.461L162.414 238.746ZM173.957 229.266C173.629 229.211 173.273 229.184 172.891 229.184C171.469 229.184 170.504 229.789 169.996 231V240H167.828V227.32H169.938L169.973 228.785C170.684 227.652 171.691 227.086 172.996 227.086C173.418 227.086 173.738 227.141 173.957 227.25V229.266ZM180.988 240.234C179.27 240.234 177.871 239.672 176.793 238.547C175.715 237.414 175.176 235.902 175.176 234.012V233.613C175.176 232.355 175.414 231.234 175.891 230.25C176.375 229.258 177.047 228.484 177.906 227.93C178.773 227.367 179.711 227.086 180.719 227.086C182.367 227.086 183.648 227.629 184.562 228.715C185.477 229.801 185.934 231.355 185.934 233.379V234.281H177.344C177.375 235.531 177.738 236.543 178.434 237.316C179.137 238.082 180.027 238.465 181.105 238.465C181.871 238.465 182.52 238.309 183.051 237.996C183.582 237.684 184.047 237.27 184.445 236.754L185.77 237.785C184.707 239.418 183.113 240.234 180.988 240.234ZM180.719 228.867C179.844 228.867 179.109 229.188 178.516 229.828C177.922 230.461 177.555 231.352 177.414 232.5H183.766V232.336C183.703 231.234 183.406 230.383 182.875 229.781C182.344 229.172 181.625 228.867 180.719 228.867ZM107.125 261.555C107.125 259.578 107.582 258.008 108.496 256.844C109.41 255.672 110.621 255.086 112.129 255.086C113.676 255.086 114.883 255.633 115.75 256.727L115.855 255.32H117.836V267.695C117.836 269.336 117.348 270.629 116.371 271.574C115.402 272.52 114.098 272.992 112.457 272.992C111.543 272.992 110.648 272.797 109.773 272.406C108.898 272.016 108.23 271.48 107.77 270.801L108.895 269.5C109.824 270.648 110.961 271.223 112.305 271.223C113.359 271.223 114.18 270.926 114.766 270.332C115.359 269.738 115.656 268.902 115.656 267.824V266.734C114.789 267.734 113.605 268.234 112.105 268.234C110.621 268.234 109.418 267.637 108.496 266.441C107.582 265.246 107.125 263.617 107.125 261.555ZM109.305 261.801C109.305 263.23 109.598 264.355 110.184 265.176C110.77 265.988 111.59 266.395 112.645 266.395C114.012 266.395 115.016 265.773 115.656 264.531V258.742C114.992 257.531 113.996 256.926 112.668 256.926C111.613 256.926 110.789 257.336 110.195 258.156C109.602 258.977 109.305 260.191 109.305 261.801ZM127.246 257.266C126.918 257.211 126.562 257.184 126.18 257.184C124.758 257.184 123.793 257.789 123.285 259V268H121.117V255.32H123.227L123.262 256.785C123.973 255.652 124.98 255.086 126.285 255.086C126.707 255.086 127.027 255.141 127.246 255.25V257.266ZM128.441 261.543C128.441 260.301 128.684 259.184 129.168 258.191C129.66 257.199 130.34 256.434 131.207 255.895C132.082 255.355 133.078 255.086 134.195 255.086C135.922 255.086 137.316 255.684 138.379 256.879C139.449 258.074 139.984 259.664 139.984 261.648V261.801C139.984 263.035 139.746 264.145 139.27 265.129C138.801 266.105 138.125 266.867 137.242 267.414C136.367 267.961 135.359 268.234 134.219 268.234C132.5 268.234 131.105 267.637 130.035 266.441C128.973 265.246 128.441 263.664 128.441 261.695V261.543ZM130.621 261.801C130.621 263.207 130.945 264.336 131.594 265.188C132.25 266.039 133.125 266.465 134.219 266.465C135.32 266.465 136.195 266.035 136.844 265.176C137.492 264.309 137.816 263.098 137.816 261.543C137.816 260.152 137.484 259.027 136.82 258.168C136.164 257.301 135.289 256.867 134.195 256.867C133.125 256.867 132.262 257.293 131.605 258.145C130.949 258.996 130.621 260.215 130.621 261.801ZM150.531 266.746C149.688 267.738 148.449 268.234 146.816 268.234C145.465 268.234 144.434 267.844 143.723 267.062C143.02 266.273 142.664 265.109 142.656 263.57V255.32H144.824V263.512C144.824 265.434 145.605 266.395 147.168 266.395C148.824 266.395 149.926 265.777 150.473 264.543V255.32H152.641V268H150.578L150.531 266.746ZM166.656 261.801C166.656 263.73 166.215 265.285 165.332 266.465C164.449 267.645 163.254 268.234 161.746 268.234C160.207 268.234 158.996 267.746 158.113 266.77V272.875H155.945V255.32H157.926L158.031 256.727C158.914 255.633 160.141 255.086 161.711 255.086C163.234 255.086 164.438 255.66 165.32 256.809C166.211 257.957 166.656 259.555 166.656 261.602V261.801ZM164.488 261.555C164.488 260.125 164.184 258.996 163.574 258.168C162.965 257.34 162.129 256.926 161.066 256.926C159.754 256.926 158.77 257.508 158.113 258.672V264.73C158.762 265.887 159.754 266.465 161.09 266.465C162.129 266.465 162.953 266.055 163.562 265.234C164.18 264.406 164.488 263.18 164.488 261.555Z" fill="black"/>
<path d="M164.65 180.797C162.951 179.289 161.608 177.547 160.62 175.571C159.649 173.595 159.164 171.376 159.164 168.915C159.164 166.454 159.649 164.235 160.62 162.259C161.608 160.283 162.951 158.541 164.65 157.033L166.782 158.723C165.239 160.231 164.113 161.8 163.402 163.429C162.709 165.041 162.362 166.87 162.362 168.915C162.362 169.938 162.449 170.908 162.622 171.827C162.795 172.728 163.055 173.595 163.402 174.427C163.766 175.259 164.225 176.056 164.78 176.819C165.335 177.599 166.002 178.362 166.782 179.107L164.65 180.797Z" fill="#D55E00"/>
<rect x="794" y="140" width="130" height="208" fill="#FFFAF5"/>
<path d="M813.625 204.113H806.23V210.16H814.82V212H803.98V194.938H814.703V196.789H806.23V202.273H813.625V204.113ZM819.332 199.32L819.402 200.914C820.371 199.695 821.637 199.086 823.199 199.086C825.879 199.086 827.23 200.598 827.254 203.621V212H825.086V203.609C825.078 202.695 824.867 202.02 824.453 201.582C824.047 201.145 823.41 200.926 822.543 200.926C821.84 200.926 821.223 201.113 820.691 201.488C820.16 201.863 819.746 202.355 819.449 202.965V212H817.281V199.32H819.332ZM829.996 205.555C829.996 203.609 830.457 202.047 831.379 200.867C832.301 199.68 833.508 199.086 835 199.086C836.484 199.086 837.66 199.594 838.527 200.609V194H840.695V212H838.703L838.598 210.641C837.73 211.703 836.523 212.234 834.977 212.234C833.508 212.234 832.309 211.633 831.379 210.43C830.457 209.227 829.996 207.656 829.996 205.719V205.555ZM832.164 205.801C832.164 207.238 832.461 208.363 833.055 209.176C833.648 209.988 834.469 210.395 835.516 210.395C836.891 210.395 837.895 209.777 838.527 208.543V202.719C837.879 201.523 836.883 200.926 835.539 200.926C834.477 200.926 833.648 201.336 833.055 202.156C832.461 202.977 832.164 204.191 832.164 205.801ZM808.727 238.465C809.5 238.465 810.176 238.23 810.754 237.762C811.332 237.293 811.652 236.707 811.715 236.004H813.766C813.727 236.73 813.477 237.422 813.016 238.078C812.555 238.734 811.938 239.258 811.164 239.648C810.398 240.039 809.586 240.234 808.727 240.234C807 240.234 805.625 239.66 804.602 238.512C803.586 237.355 803.078 235.777 803.078 233.777V233.414C803.078 232.18 803.305 231.082 803.758 230.121C804.211 229.16 804.859 228.414 805.703 227.883C806.555 227.352 807.559 227.086 808.715 227.086C810.137 227.086 811.316 227.512 812.254 228.363C813.199 229.215 813.703 230.32 813.766 231.68H811.715C811.652 230.859 811.34 230.188 810.777 229.664C810.223 229.133 809.535 228.867 808.715 228.867C807.613 228.867 806.758 229.266 806.148 230.062C805.547 230.852 805.246 231.996 805.246 233.496V233.906C805.246 235.367 805.547 236.492 806.148 237.281C806.75 238.07 807.609 238.465 808.727 238.465ZM824.031 240C823.906 239.75 823.805 239.305 823.727 238.664C822.719 239.711 821.516 240.234 820.117 240.234C818.867 240.234 817.84 239.883 817.035 239.18C816.238 238.469 815.84 237.57 815.84 236.484C815.84 235.164 816.34 234.141 817.34 233.414C818.348 232.68 819.762 232.312 821.582 232.312H823.691V231.316C823.691 230.559 823.465 229.957 823.012 229.512C822.559 229.059 821.891 228.832 821.008 228.832C820.234 228.832 819.586 229.027 819.062 229.418C818.539 229.809 818.277 230.281 818.277 230.836H816.098C816.098 230.203 816.32 229.594 816.766 229.008C817.219 228.414 817.828 227.945 818.594 227.602C819.367 227.258 820.215 227.086 821.137 227.086C822.598 227.086 823.742 227.453 824.57 228.188C825.398 228.914 825.828 229.918 825.859 231.199V237.035C825.859 238.199 826.008 239.125 826.305 239.812V240H824.031ZM820.434 238.348C821.113 238.348 821.758 238.172 822.367 237.82C822.977 237.469 823.418 237.012 823.691 236.449V233.848H821.992C819.336 233.848 818.008 234.625 818.008 236.18C818.008 236.859 818.234 237.391 818.688 237.773C819.141 238.156 819.723 238.348 820.434 238.348ZM839.969 233.801C839.969 235.73 839.527 237.285 838.645 238.465C837.762 239.645 836.566 240.234 835.059 240.234C833.52 240.234 832.309 239.746 831.426 238.77V244.875H829.258V227.32H831.238L831.344 228.727C832.227 227.633 833.453 227.086 835.023 227.086C836.547 227.086 837.75 227.66 838.633 228.809C839.523 229.957 839.969 231.555 839.969 233.602V233.801ZM837.801 233.555C837.801 232.125 837.496 230.996 836.887 230.168C836.277 229.34 835.441 228.926 834.379 228.926C833.066 228.926 832.082 229.508 831.426 230.672V236.73C832.074 237.887 833.066 238.465 834.402 238.465C835.441 238.465 836.266 238.055 836.875 237.234C837.492 236.406 837.801 235.18 837.801 233.555ZM845.676 224.25V227.32H848.043V228.996H845.676V236.859C845.676 237.367 845.781 237.75 845.992 238.008C846.203 238.258 846.562 238.383 847.07 238.383C847.32 238.383 847.664 238.336 848.102 238.242V240C847.531 240.156 846.977 240.234 846.438 240.234C845.469 240.234 844.738 239.941 844.246 239.355C843.754 238.77 843.508 237.938 843.508 236.859V228.996H841.199V227.32H843.508V224.25H845.676ZM858.414 238.746C857.57 239.738 856.332 240.234 854.699 240.234C853.348 240.234 852.316 239.844 851.605 239.062C850.902 238.273 850.547 237.109 850.539 235.57V227.32H852.707V235.512C852.707 237.434 853.488 238.395 855.051 238.395C856.707 238.395 857.809 237.777 858.355 236.543V227.32H860.523V240H858.461L858.414 238.746ZM869.957 229.266C869.629 229.211 869.273 229.184 868.891 229.184C867.469 229.184 866.504 229.789 865.996 231V240H863.828V227.32H865.938L865.973 228.785C866.684 227.652 867.691 227.086 868.996 227.086C869.418 227.086 869.738 227.141 869.957 227.25V229.266ZM876.988 240.234C875.27 240.234 873.871 239.672 872.793 238.547C871.715 237.414 871.176 235.902 871.176 234.012V233.613C871.176 232.355 871.414 231.234 871.891 230.25C872.375 229.258 873.047 228.484 873.906 227.93C874.773 227.367 875.711 227.086 876.719 227.086C878.367 227.086 879.648 227.629 880.562 228.715C881.477 229.801 881.934 231.355 881.934 233.379V234.281H873.344C873.375 235.531 873.738 236.543 874.434 237.316C875.137 238.082 876.027 238.465 877.105 238.465C877.871 238.465 878.52 238.309 879.051 237.996C879.582 237.684 880.047 237.27 880.445 236.754L881.77 237.785C880.707 239.418 879.113 240.234 876.988 240.234ZM876.719 228.867C875.844 228.867 875.109 229.188 874.516 229.828C873.922 230.461 873.555 231.352 873.414 232.5H879.766V232.336C879.703 231.234 879.406 230.383 878.875 229.781C878.344 229.172 877.625 228.867 876.719 228.867ZM803.125 261.555C803.125 259.578 803.582 258.008 804.496 256.844C805.41 255.672 806.621 255.086 808.129 255.086C809.676 255.086 810.883 255.633 811.75 256.727L811.855 255.32H813.836V267.695C813.836 269.336 813.348 270.629 812.371 271.574C811.402 272.52 810.098 272.992 808.457 272.992C807.543 272.992 806.648 272.797 805.773 272.406C804.898 272.016 804.23 271.48 803.77 270.801L804.895 269.5C805.824 270.648 806.961 271.223 808.305 271.223C809.359 271.223 810.18 270.926 810.766 270.332C811.359 269.738 811.656 268.902 811.656 267.824V266.734C810.789 267.734 809.605 268.234 808.105 268.234C806.621 268.234 805.418 267.637 804.496 266.441C803.582 265.246 803.125 263.617 803.125 261.555ZM805.305 261.801C805.305 263.23 805.598 264.355 806.184 265.176C806.77 265.988 807.59 266.395 808.645 266.395C810.012 266.395 811.016 265.773 811.656 264.531V258.742C810.992 257.531 809.996 256.926 808.668 256.926C807.613 256.926 806.789 257.336 806.195 258.156C805.602 258.977 805.305 260.191 805.305 261.801ZM823.246 257.266C822.918 257.211 822.562 257.184 822.18 257.184C820.758 257.184 819.793 257.789 819.285 259V268H817.117V255.32H819.227L819.262 256.785C819.973 255.652 820.98 255.086 822.285 255.086C822.707 255.086 823.027 255.141 823.246 255.25V257.266ZM824.441 261.543C824.441 260.301 824.684 259.184 825.168 258.191C825.66 257.199 826.34 256.434 827.207 255.895C828.082 255.355 829.078 255.086 830.195 255.086C831.922 255.086 833.316 255.684 834.379 256.879C835.449 258.074 835.984 259.664 835.984 261.648V261.801C835.984 263.035 835.746 264.145 835.27 265.129C834.801 266.105 834.125 266.867 833.242 267.414C832.367 267.961 831.359 268.234 830.219 268.234C828.5 268.234 827.105 267.637 826.035 266.441C824.973 265.246 824.441 263.664 824.441 261.695V261.543ZM826.621 261.801C826.621 263.207 826.945 264.336 827.594 265.188C828.25 266.039 829.125 266.465 830.219 266.465C831.32 266.465 832.195 266.035 832.844 265.176C833.492 264.309 833.816 263.098 833.816 261.543C833.816 260.152 833.484 259.027 832.82 258.168C832.164 257.301 831.289 256.867 830.195 256.867C829.125 256.867 828.262 257.293 827.605 258.145C826.949 258.996 826.621 260.215 826.621 261.801ZM846.531 266.746C845.688 267.738 844.449 268.234 842.816 268.234C841.465 268.234 840.434 267.844 839.723 267.062C839.02 266.273 838.664 265.109 838.656 263.57V255.32H840.824V263.512C840.824 265.434 841.605 266.395 843.168 266.395C844.824 266.395 845.926 265.777 846.473 264.543V255.32H848.641V268H846.578L846.531 266.746ZM862.656 261.801C862.656 263.73 862.215 265.285 861.332 266.465C860.449 267.645 859.254 268.234 857.746 268.234C856.207 268.234 854.996 267.746 854.113 266.77V272.875H851.945V255.32H853.926L854.031 256.727C854.914 255.633 856.141 255.086 857.711 255.086C859.234 255.086 860.438 255.66 861.32 256.809C862.211 257.957 862.656 259.555 862.656 261.602V261.801ZM860.488 261.555C860.488 260.125 860.184 258.996 859.574 258.168C858.965 257.34 858.129 256.926 857.066 256.926C855.754 256.926 854.77 257.508 854.113 258.672V264.73C854.762 265.887 855.754 266.465 857.09 266.465C858.129 266.465 858.953 266.055 859.562 265.234C860.18 264.406 860.488 263.18 860.488 261.555Z" fill="black"/>
<path d="M853.734 179.107C854.514 178.362 855.181 177.599 855.736 176.819C856.291 176.056 856.741 175.259 857.088 174.427C857.452 173.595 857.721 172.728 857.894 171.827C858.067 170.908 858.154 169.938 858.154 168.915C858.154 166.87 857.799 165.041 857.088 163.429C856.395 161.8 855.277 160.231 853.734 158.723L855.866 157.033C857.565 158.541 858.899 160.283 859.87 162.259C860.858 164.235 861.352 166.454 861.352 168.915C861.352 171.376 860.858 173.595 859.87 175.571C858.899 177.547 857.565 179.289 855.866 180.797L853.734 179.107Z" fill="#D55E00"/>
<path d="M328 14H697.063V62H328V14Z" fill="#F1F4F8"/>
<path d="M461.409 50.248C459.793 48.904 458.513 47.32 457.569 45.496C456.641 43.672 456.177 41.616 456.177 39.328C456.177 37.04 456.641 34.984 457.569 33.16C458.513 31.336 459.793 29.752 461.409 28.408L462.945 29.68C461.425 31.056 460.313 32.52 459.609 34.072C458.905 35.624 458.553 37.376 458.553 39.328C458.553 41.28 458.905 43.032 459.609 44.584C460.313 46.136 461.425 47.6 462.945 48.976L461.409 50.248ZM569.622 48.976C571.142 47.6 572.254 46.136 572.958 44.584C573.662 43.032 574.014 41.28 574.014 39.328C574.014 37.376 573.662 35.624 572.958 34.072C572.254 32.52 571.142 31.056 569.622 29.68L571.158 28.408C572.774 29.752 574.046 31.336 574.974 33.16C575.918 34.984 576.39 37.04 576.39 39.328C576.39 41.616 575.918 43.672 574.974 45.496C574.046 47.32 572.774 48.904 571.158 50.248L569.622 48.976Z" fill="#D55E00"/>
<path d="M467.975 28.96H470.351L478.247 49.84H475.871L467.975 28.96ZM485.414 29.008H492.278V30.52H487.55V48.136H492.278V49.648H485.414V29.008ZM539.929 28.96H542.305L550.201 49.84H547.825L539.929 28.96ZM559.407 48.136V30.52H554.703V29.008H561.567V49.648H554.703V48.136H559.407Z" fill="#A541F8"/>
<path d="M496.757 28.96H499.133L507.029 49.84H504.653L496.757 28.96ZM509.227 34.216H511.963L513.043 40.336C513.139 40.896 513.219 41.456 513.283 42.016C513.363 42.576 513.443 43.144 513.523 43.72H513.619C513.699 43.144 513.787 42.576 513.883 42.016C513.979 41.456 514.091 40.896 514.219 40.336L515.323 35.368H517.387L518.491 40.336C518.619 40.896 518.731 41.456 518.827 42.016C518.939 42.576 519.043 43.144 519.139 43.72H519.235C519.331 43.144 519.411 42.576 519.475 42.016C519.555 41.456 519.635 40.896 519.715 40.336L520.795 34.216H523.339L521.155 46H517.915L516.883 41.08C516.787 40.52 516.691 39.96 516.595 39.4C516.515 38.84 516.427 38.256 516.331 37.648H516.235C516.155 38.112 516.075 38.616 515.995 39.16C515.931 39.688 515.835 40.336 515.707 41.104L514.699 46H511.507L509.227 34.216Z" fill="#0072B2"/>
<path d="M529.618 39.088H525.346V37.072H529.618V32.536H531.73V37.072H536.002V39.088H531.73V43.624H529.618V39.088Z" fill="#56CCF2"/>
</svg>
