<svg width="702" height="268" viewBox="0 0 702 268" version="1.1" xmlns="http://www.w3.org/2000/svg" xmlns:xlink="http://www.w3.org/1999/xlink">
<g data-name="Canvas" fill="none">
<g data-name="Frame" clip-path="url(#clip0)">
<rect width="351" height="134" fill="white" transform="scale(2)"/>
<g data-name="code">
<g data-name="Rectangle">
<path d="M 0 0L 197 0L 197 32L 0 32L 0 0Z" transform="translate(6 108) scale(2)" fill="#F1F4F8"/>
</g>
<g data-name="print(df.dropna(axis=1))">
<path d="M 1.98 19.4L 1.98 20.94L 0.82 20.94L 0.82 14.09L 1.77 14.09L 1.86 14.65L 1.89 14.65C 2.10333 14.4567 2.34667 14.2967 2.62 14.17C 2.9 14.0367 3.18 13.97 3.46 13.97C 3.78 13.97 4.06333 14.03 4.31 14.15C 4.56333 14.2633 4.77333 14.43 4.94 14.65C 5.11333 14.87 5.24333 15.1333 5.33 15.44C 5.42333 15.7467 5.47 16.09 5.47 16.47C 5.47 16.89 5.41 17.2667 5.29 17.6C 5.17 17.9267 5.00667 18.2033 4.8 18.43C 4.6 18.65 4.36667 18.82 4.1 18.94C 3.84 19.06 3.57 19.12 3.29 19.12C 3.06333 19.12 2.83 19.07 2.59 18.97C 2.35667 18.87 2.14 18.7267 1.94 18.54L 1.98 19.4ZM 1.98 17.72C 2.16 17.8867 2.34333 18.0033 2.53 18.07C 2.72333 18.1367 2.89667 18.17 3.05 18.17C 3.40333 18.17 3.69667 18.03 3.93 17.75C 4.16333 17.4633 4.28 17.04 4.28 16.48C 4.28 15.9867 4.19 15.6033 4.01 15.33C 3.83 15.0567 3.54 14.92 3.14 14.92C 2.95333 14.92 2.76333 14.9667 2.57 15.06C 2.37667 15.1533 2.18 15.3033 1.98 15.51L 1.98 17.72ZM 7.29609 14.09L 8.24609 14.09L 8.34609 15.2L 8.37609 15.2C 8.62943 14.8 8.93276 14.4967 9.28609 14.29C 9.64609 14.0767 10.0394 13.97 10.4661 13.97C 10.6661 13.97 10.8361 13.9867 10.9761 14.02C 11.1228 14.0467 11.2694 14.0967 11.4161 14.17L 11.1761 15.14C 11.0161 15.0867 10.8728 15.05 10.7461 15.03C 10.6261 15.0033 10.4728 14.99 10.2861 14.99C 9.94609 14.99 9.61943 15.0867 9.30609 15.28C 8.99276 15.4733 8.70943 15.81 8.45609 16.29L 8.45609 19L 7.29609 19L 7.29609 14.09ZM 12.8322 14.09L 16.1122 14.09L 16.1122 19L 14.9622 19L 14.9622 15L 12.8322 15L 12.8322 14.09ZM 15.4522 13.23C 15.2189 13.23 15.0222 13.16 14.8622 13.02C 14.7089 12.88 14.6322 12.6933 14.6322 12.46C 14.6322 12.2267 14.7089 12.04 14.8622 11.9C 15.0222 11.7533 15.2189 11.68 15.4522 11.68C 15.6922 11.68 15.8889 11.7533 16.0422 11.9C 16.1955 12.04 16.2722 12.2267 16.2722 12.46C 16.2722 12.6933 16.1955 12.88 16.0422 13.02C 15.8889 13.16 15.6922 13.23 15.4522 13.23ZM 18.8083 14.09L 19.7583 14.09L 19.8483 14.83L 19.8883 14.83C 20.1216 14.5967 20.3783 14.3967 20.6583 14.23C 20.9449 14.0567 21.2783 13.97 21.6583 13.97C 22.2249 13.97 22.6416 14.1433 22.9083 14.49C 23.1749 14.83 23.3083 15.32 23.3083 15.96L 23.3083 19L 22.1483 19L 22.1483 16.11C 22.1483 15.71 22.0783 15.42 21.9383 15.24C 21.8049 15.0533 21.5683 14.96 21.2283 14.96C 20.9883 14.96 20.7749 15.0167 20.5883 15.13C 20.4016 15.2433 20.1949 15.4167 19.9683 15.65L 19.9683 19L 18.8083 19L 18.8083 14.09ZM 25.8844 15L 24.5744 15L 24.5744 14.14L 25.9344 14.09L 26.0844 12.75L 27.0344 12.75L 27.0344 14.09L 29.2744 14.09L 29.2744 15L 27.0344 15L 27.0344 17.02C 27.0344 17.4267 27.1177 17.7267 27.2844 17.92C 27.451 18.1067 27.7444 18.2 28.1644 18.2C 28.3777 18.2 28.571 18.1833 28.7444 18.15C 28.9177 18.11 29.0844 18.06 29.2444 18L 29.4644 18.84C 29.2444 18.9133 29.001 18.9767 28.7344 19.03C 28.4677 19.09 28.1844 19.12 27.8844 19.12C 27.511 19.12 27.1977 19.07 26.9444 18.97C 26.691 18.87 26.4844 18.73 26.3244 18.55C 26.171 18.3633 26.0577 18.14 25.9844 17.88C 25.9177 17.62 25.8844 17.3333 25.8844 17.02L 25.8844 15ZM 131.248 18.06L 131.248 19L 126.818 19L 126.818 18.06L 128.538 18.06L 128.538 13.88L 127.208 13.88L 127.208 13.16C 127.568 13.1 127.875 13.03 128.128 12.95C 128.388 12.8633 128.628 12.76 128.848 12.64L 129.688 12.64L 129.688 18.06L 131.248 18.06Z" transform="translate(14.0408 110) scale(2)" fill="#0C570A"/>
<path d="M 34.1005 20.77C 33.4271 20.21 32.8938 19.55 32.5005 18.79C 32.1138 18.03 31.9205 17.1733 31.9205 16.22C 31.9205 15.2667 32.1138 14.41 32.5005 13.65C 32.8938 12.89 33.4271 12.23 34.1005 11.67L 34.7405 12.2C 34.1071 12.7733 33.6438 13.3833 33.3505 14.03C 33.0571 14.6767 32.9105 15.4067 32.9105 16.22C 32.9105 17.0333 33.0571 17.7633 33.3505 18.41C 33.6438 19.0567 34.1071 19.6667 34.7405 20.24L 34.1005 20.77ZM 36.5066 16.55C 36.5066 16.15 36.5666 15.79 36.6866 15.47C 36.8066 15.15 36.9666 14.88 37.1666 14.66C 37.3732 14.44 37.6066 14.27 37.8666 14.15C 38.1266 14.03 38.3966 13.97 38.6766 13.97C 38.9699 13.97 39.2199 14.0233 39.4266 14.13C 39.6399 14.23 39.8466 14.37 40.0466 14.55L 39.9966 13.72L 39.9966 11.94L 41.1566 11.94L 41.1566 19L 40.2066 19L 40.1166 18.43L 40.0866 18.43C 39.8932 18.6233 39.6666 18.7867 39.4066 18.92C 39.1532 19.0533 38.8866 19.12 38.6066 19.12C 38.2932 19.12 38.0066 19.0633 37.7466 18.95C 37.4866 18.83 37.2632 18.66 37.0766 18.44C 36.8966 18.22 36.7566 17.9533 36.6566 17.64C 36.5566 17.32 36.5066 16.9567 36.5066 16.55ZM 37.6966 16.54C 37.6966 17.0733 37.7999 17.48 38.0066 17.76C 38.2132 18.0333 38.5066 18.17 38.8866 18.17C 39.2932 18.17 39.6632 17.9733 39.9966 17.58L 39.9966 15.37C 39.8232 15.2033 39.6499 15.0867 39.4766 15.02C 39.3032 14.9533 39.1266 14.92 38.9466 14.92C 38.7732 14.92 38.6099 14.9567 38.4566 15.03C 38.3099 15.1033 38.1799 15.21 38.0666 15.35C 37.9532 15.4833 37.8632 15.65 37.7966 15.85C 37.7299 16.05 37.6966 16.28 37.6966 16.54ZM 47.5527 12.94C 47.3727 12.8667 47.196 12.8133 47.0227 12.78C 46.856 12.7467 46.6727 12.73 46.4727 12.73C 46.0927 12.73 45.816 12.8233 45.6427 13.01C 45.476 13.19 45.3927 13.4533 45.3927 13.8L 45.3927 14.09L 47.2627 14.09L 47.2627 15L 45.3927 15L 45.3927 19L 44.2527 19L 44.2527 15L 42.8927 15L 42.8927 14.14L 44.2527 14.09L 44.2527 13.82C 44.2527 13.5333 44.2927 13.2667 44.3727 13.02C 44.4527 12.7733 44.576 12.5633 44.7427 12.39C 44.916 12.21 45.1327 12.07 45.3927 11.97C 45.6593 11.87 45.9727 11.82 46.3327 11.82C 46.5993 11.82 46.8527 11.8433 47.0927 11.89C 47.3393 11.9367 47.5727 12.0033 47.7927 12.09L 47.5527 12.94ZM 49.9788 18.11C 49.9788 17.8167 50.0721 17.5767 50.2588 17.39C 50.4454 17.1967 50.6821 17.1 50.9688 17.1C 51.2554 17.1 51.4921 17.1967 51.6787 17.39C 51.8654 17.5767 51.9587 17.8167 51.9587 18.11C 51.9587 18.4033 51.8654 18.6467 51.6787 18.84C 51.4921 19.0267 51.2554 19.12 50.9688 19.12C 50.6821 19.12 50.4454 19.0267 50.2588 18.84C 50.0721 18.6467 49.9788 18.4033 49.9788 18.11ZM 54.4948 16.55C 54.4948 16.15 54.5548 15.79 54.6748 15.47C 54.7948 15.15 54.9548 14.88 55.1548 14.66C 55.3615 14.44 55.5948 14.27 55.8548 14.15C 56.1148 14.03 56.3848 13.97 56.6648 13.97C 56.9582 13.97 57.2082 14.0233 57.4148 14.13C 57.6282 14.23 57.8348 14.37 58.0348 14.55L 57.9848 13.72L 57.9848 11.94L 59.1448 11.94L 59.1448 19L 58.1948 19L 58.1048 18.43L 58.0748 18.43C 57.8815 18.6233 57.6548 18.7867 57.3948 18.92C 57.1415 19.0533 56.8748 19.12 56.5948 19.12C 56.2815 19.12 55.9948 19.0633 55.7348 18.95C 55.4748 18.83 55.2515 18.66 55.0648 18.44C 54.8848 18.22 54.7448 17.9533 54.6448 17.64C 54.5448 17.32 54.4948 16.9567 54.4948 16.55ZM 55.6848 16.54C 55.6848 17.0733 55.7882 17.48 55.9948 17.76C 56.2015 18.0333 56.4948 18.17 56.8748 18.17C 57.2815 18.17 57.6515 17.9733 57.9848 17.58L 57.9848 15.37C 57.8115 15.2033 57.6382 15.0867 57.4648 15.02C 57.2915 14.9533 57.1148 14.92 56.9348 14.92C 56.7615 14.92 56.5982 14.9567 56.4448 15.03C 56.2982 15.1033 56.1682 15.21 56.0548 15.35C 55.9415 15.4833 55.8515 15.65 55.7848 15.85C 55.7182 16.05 55.6848 16.28 55.6848 16.54ZM 61.2609 14.09L 62.2109 14.09L 62.3109 15.2L 62.3409 15.2C 62.5943 14.8 62.8976 14.4967 63.2509 14.29C 63.6109 14.0767 64.0043 13.97 64.4309 13.97C 64.6309 13.97 64.8009 13.9867 64.9409 14.02C 65.0876 14.0467 65.2343 14.0967 65.3809 14.17L 65.1409 15.14C 64.9809 15.0867 64.8376 15.05 64.7109 15.03C 64.5909 15.0033 64.4376 14.99 64.2509 14.99C 63.9109 14.99 63.5843 15.0867 63.2709 15.28C 62.9576 15.4733 62.6743 15.81 62.4209 16.29L 62.4209 19L 61.2609 19L 61.2609 14.09ZM 66.487 16.55C 66.487 16.1433 66.5537 15.78 66.687 15.46C 66.827 15.14 67.0104 14.87 67.237 14.65C 67.4637 14.43 67.727 14.2633 68.027 14.15C 68.327 14.03 68.637 13.97 68.957 13.97C 69.277 13.97 69.587 14.03 69.887 14.15C 70.187 14.2633 70.4504 14.43 70.677 14.65C 70.9037 14.87 71.0837 15.14 71.217 15.46C 71.357 15.78 71.427 16.1433 71.427 16.55C 71.427 16.9567 71.357 17.32 71.217 17.64C 71.0837 17.96 70.9037 18.23 70.677 18.45C 70.4504 18.67 70.187 18.8367 69.887 18.95C 69.587 19.0633 69.277 19.12 68.957 19.12C 68.637 19.12 68.327 19.0633 68.027 18.95C 67.727 18.8367 67.4637 18.67 67.237 18.45C 67.0104 18.23 66.827 17.96 66.687 17.64C 66.5537 17.32 66.487 16.9567 66.487 16.55ZM 67.677 16.55C 67.677 17.0433 67.7904 17.44 68.017 17.74C 68.2437 18.0333 68.557 18.18 68.957 18.18C 69.357 18.18 69.6704 18.0333 69.897 17.74C 70.1237 17.44 70.237 17.0433 70.237 16.55C 70.237 16.05 70.1237 15.6533 69.897 15.36C 69.6704 15.06 69.357 14.91 68.957 14.91C 68.557 14.91 68.2437 15.06 68.017 15.36C 67.7904 15.6533 67.677 16.05 67.677 16.55ZM 73.9331 19.4L 73.9331 20.94L 72.7731 20.94L 72.7731 14.09L 73.7231 14.09L 73.8131 14.65L 73.8431 14.65C 74.0565 14.4567 74.2998 14.2967 74.5731 14.17C 74.8531 14.0367 75.1331 13.97 75.4131 13.97C 75.7331 13.97 76.0165 14.03 76.2631 14.15C 76.5165 14.2633 76.7265 14.43 76.8931 14.65C 77.0665 14.87 77.1965 15.1333 77.2831 15.44C 77.3765 15.7467 77.4231 16.09 77.4231 16.47C 77.4231 16.89 77.3631 17.2667 77.2431 17.6C 77.1231 17.9267 76.9598 18.2033 76.7531 18.43C 76.5531 18.65 76.3198 18.82 76.0531 18.94C 75.7931 19.06 75.5231 19.12 75.2431 19.12C 75.0165 19.12 74.7831 19.07 74.5431 18.97C 74.3098 18.87 74.0931 18.7267 73.8931 18.54L 73.9331 19.4ZM 73.9331 17.72C 74.1131 17.8867 74.2965 18.0033 74.4831 18.07C 74.6765 18.1367 74.8498 18.17 75.0031 18.17C 75.3565 18.17 75.6498 18.03 75.8831 17.75C 76.1165 17.4633 76.2331 17.04 76.2331 16.48C 76.2331 15.9867 76.1431 15.6033 75.9631 15.33C 75.7831 15.0567 75.4931 14.92 75.0931 14.92C 74.9065 14.92 74.7165 14.9667 74.5231 15.06C 74.3298 15.1533 74.1331 15.3033 73.9331 15.51L 73.9331 17.72ZM 78.7692 14.09L 79.7192 14.09L 79.8092 14.83L 79.8492 14.83C 80.0826 14.5967 80.3392 14.3967 80.6192 14.23C 80.9059 14.0567 81.2392 13.97 81.6192 13.97C 82.1859 13.97 82.6026 14.1433 82.8692 14.49C 83.1359 14.83 83.2692 15.32 83.2692 15.96L 83.2692 19L 82.1092 19L 82.1092 16.11C 82.1092 15.71 82.0392 15.42 81.8992 15.24C 81.7659 15.0533 81.5292 14.96 81.1892 14.96C 80.9492 14.96 80.7359 15.0167 80.5492 15.13C 80.3626 15.2433 80.1559 15.4167 79.9292 15.65L 79.9292 19L 78.7692 19L 78.7692 14.09ZM 84.6553 17.68C 84.6553 17.4067 84.7186 17.1667 84.8453 16.96C 84.972 16.7467 85.172 16.5667 85.4453 16.42C 85.7186 16.2733 86.0686 16.1533 86.4953 16.06C 86.922 15.9667 87.4386 15.9 88.0453 15.86C 88.0253 15.58 87.9253 15.35 87.7453 15.17C 87.5653 14.99 87.2753 14.9 86.8753 14.9C 86.5953 14.9 86.3186 14.9533 86.0453 15.06C 85.7786 15.16 85.5186 15.28 85.2653 15.42L 84.8453 14.65C 85.1453 14.4767 85.4886 14.32 85.8753 14.18C 86.262 14.04 86.6653 13.97 87.0853 13.97C 87.772 13.97 88.2953 14.1533 88.6553 14.52C 89.0153 14.88 89.1953 15.4033 89.1953 16.09L 89.1953 19L 88.2553 19L 88.1653 18.39L 88.1353 18.39C 87.8753 18.59 87.5853 18.7633 87.2653 18.91C 86.952 19.05 86.6286 19.12 86.2953 19.12C 86.0553 19.12 85.8353 19.0833 85.6353 19.01C 85.4353 18.9433 85.262 18.8467 85.1153 18.72C 84.9686 18.5933 84.8553 18.4433 84.7753 18.27C 84.6953 18.09 84.6553 17.8933 84.6553 17.68ZM 85.7653 17.59C 85.7653 17.81 85.8486 17.97 86.0153 18.07C 86.1886 18.17 86.3986 18.22 86.6453 18.22C 86.892 18.22 87.1286 18.1667 87.3553 18.06C 87.5886 17.9467 87.8186 17.8 88.0453 17.62L 88.0453 16.58C 87.6053 16.6133 87.2386 16.66 86.9453 16.72C 86.652 16.7733 86.4186 16.8433 86.2453 16.93C 86.072 17.0167 85.9486 17.1167 85.8753 17.23C 85.802 17.3367 85.7653 17.4567 85.7653 17.59ZM 94.0614 20.77C 93.3881 20.21 92.8547 19.55 92.4614 18.79C 92.0747 18.03 91.8814 17.1733 91.8814 16.22C 91.8814 15.2667 92.0747 14.41 92.4614 13.65C 92.8547 12.89 93.3881 12.23 94.0614 11.67L 94.7014 12.2C 94.0681 12.7733 93.6047 13.3833 93.3114 14.03C 93.0181 14.6767 92.8714 15.4067 92.8714 16.22C 92.8714 17.0333 93.0181 17.7633 93.3114 18.41C 93.6047 19.0567 94.0681 19.6667 94.7014 20.24L 94.0614 20.77ZM 96.6475 17.68C 96.6475 17.4067 96.7108 17.1667 96.8375 16.96C 96.9642 16.7467 97.1642 16.5667 97.4375 16.42C 97.7108 16.2733 98.0608 16.1533 98.4875 16.06C 98.9142 15.9667 99.4308 15.9 100.037 15.86C 100.018 15.58 99.9175 15.35 99.7375 15.17C 99.5575 14.99 99.2675 14.9 98.8675 14.9C 98.5875 14.9 98.3108 14.9533 98.0375 15.06C 97.7708 15.16 97.5108 15.28 97.2575 15.42L 96.8375 14.65C 97.1375 14.4767 97.4808 14.32 97.8675 14.18C 98.2542 14.04 98.6575 13.97 99.0775 13.97C 99.7642 13.97 100.287 14.1533 100.647 14.52C 101.007 14.88 101.187 15.4033 101.187 16.09L 101.187 19L 100.247 19L 100.157 18.39L 100.127 18.39C 99.8675 18.59 99.5775 18.7633 99.2575 18.91C 98.9442 19.05 98.6208 19.12 98.2875 19.12C 98.0475 19.12 97.8275 19.0833 97.6275 19.01C 97.4275 18.9433 97.2542 18.8467 97.1075 18.72C 96.9608 18.5933 96.8475 18.4433 96.7675 18.27C 96.6875 18.09 96.6475 17.8933 96.6475 17.68ZM 97.7575 17.59C 97.7575 17.81 97.8408 17.97 98.0075 18.07C 98.1808 18.17 98.3908 18.22 98.6375 18.22C 98.8842 18.22 99.1208 18.1667 99.3475 18.06C 99.5808 17.9467 99.8108 17.8 100.037 17.62L 100.037 16.58C 99.5975 16.6133 99.2308 16.66 98.9375 16.72C 98.6442 16.7733 98.4108 16.8433 98.2375 16.93C 98.0642 17.0167 97.9408 17.1167 97.8675 17.23C 97.7942 17.3367 97.7575 17.4567 97.7575 17.59ZM 104.224 16.45L 102.564 14.09L 103.814 14.09L 104.454 15.02C 104.534 15.1533 104.62 15.2933 104.714 15.44C 104.807 15.58 104.9 15.72 104.994 15.86L 105.034 15.86C 105.107 15.72 105.187 15.5767 105.274 15.43C 105.36 15.2833 105.44 15.1433 105.514 15.01L 106.094 14.09L 107.304 14.09L 105.634 16.57L 107.424 19L 106.174 19L 105.464 18.03C 105.37 17.8967 105.27 17.7533 105.164 17.6C 105.064 17.4467 104.964 17.3 104.864 17.16L 104.824 17.16C 104.73 17.3067 104.64 17.4533 104.554 17.6C 104.474 17.74 104.387 17.8867 104.294 18.04L 103.654 19L 102.444 19L 104.224 16.45ZM 108.77 14.09L 112.05 14.09L 112.05 19L 110.9 19L 110.9 15L 108.77 15L 108.77 14.09ZM 111.39 13.23C 111.156 13.23 110.96 13.16 110.8 13.02C 110.646 12.88 110.57 12.6933 110.57 12.46C 110.57 12.2267 110.646 12.04 110.8 11.9C 110.96 11.7533 111.156 11.68 111.39 11.68C 111.63 11.68 111.826 11.7533 111.98 11.9C 112.133 12.04 112.21 12.2267 112.21 12.46C 112.21 12.6933 112.133 12.88 111.98 13.02C 111.826 13.16 111.63 13.23 111.39 13.23ZM 115.086 17.63C 115.366 17.8233 115.656 17.9767 115.956 18.09C 116.262 18.1967 116.606 18.25 116.986 18.25C 117.372 18.25 117.656 18.1967 117.836 18.09C 118.016 17.9767 118.106 17.8333 118.106 17.66C 118.106 17.4867 117.989 17.3433 117.756 17.23C 117.522 17.11 117.156 16.9833 116.656 16.85C 116.422 16.79 116.196 16.7167 115.976 16.63C 115.756 16.5433 115.562 16.4433 115.396 16.33C 115.229 16.2167 115.096 16.0867 114.996 15.94C 114.896 15.7933 114.846 15.6267 114.846 15.44C 114.846 15.0067 115.032 14.6533 115.406 14.38C 115.779 14.1067 116.316 13.97 117.016 13.97C 117.416 13.97 117.792 14.0367 118.146 14.17C 118.499 14.3033 118.802 14.4533 119.056 14.62L 118.526 15.33C 118.306 15.1833 118.069 15.0667 117.816 14.98C 117.569 14.8867 117.306 14.84 117.026 14.84C 116.646 14.84 116.379 14.8933 116.226 15C 116.072 15.1 115.996 15.2267 115.996 15.38C 115.996 15.4667 116.029 15.5467 116.096 15.62C 116.169 15.6867 116.266 15.75 116.386 15.81C 116.512 15.8633 116.659 15.9167 116.826 15.97C 116.992 16.0233 117.176 16.0733 117.376 16.12C 117.662 16.1933 117.919 16.2767 118.146 16.37C 118.379 16.4567 118.576 16.5567 118.736 16.67C 118.902 16.7833 119.029 16.9167 119.116 17.07C 119.209 17.2233 119.256 17.4 119.256 17.6C 119.256 17.8133 119.206 18.0133 119.106 18.2C 119.006 18.38 118.859 18.54 118.666 18.68C 118.472 18.8133 118.232 18.92 117.946 19C 117.659 19.08 117.329 19.12 116.956 19.12C 116.496 19.12 116.056 19.0467 115.636 18.9C 115.216 18.7533 114.852 18.5733 114.546 18.36L 115.086 17.63ZM 120.702 14.16L 125.142 14.16L 125.142 15L 120.702 15L 120.702 14.16ZM 120.702 16.39L 125.142 16.39L 125.142 17.23L 120.702 17.23L 120.702 16.39ZM 133.154 20.24C 133.787 19.6667 134.251 19.0567 134.544 18.41C 134.837 17.7633 134.984 17.0333 134.984 16.22C 134.984 15.4067 134.837 14.6767 134.544 14.03C 134.251 13.3833 133.787 12.7733 133.154 12.2L 133.794 11.67C 134.467 12.23 134.997 12.89 135.384 13.65C 135.777 14.41 135.974 15.2667 135.974 16.22C 135.974 17.1733 135.777 18.03 135.384 18.79C 134.997 19.55 134.467 20.21 133.794 20.77L 133.154 20.24ZM 139.15 20.24C 139.783 19.6667 140.247 19.0567 140.54 18.41C 140.833 17.7633 140.98 17.0333 140.98 16.22C 140.98 15.4067 140.833 14.6767 140.54 14.03C 140.247 13.3833 139.783 12.7733 139.15 12.2L 139.79 11.67C 140.463 12.23 140.993 12.89 141.38 13.65C 141.773 14.41 141.97 15.2667 141.97 16.22C 141.97 17.1733 141.773 18.03 141.38 18.79C 140.993 19.55 140.463 20.21 139.79 20.77L 139.15 20.24Z" transform="translate(14.0408 110) scale(2)" fill="#2E383C"/>
</g>
</g>
<g data-name="Rectangle">
<rect width="28" height="21.9812" transform="translate(486 62) scale(2)" stroke="black"/>
</g>
<g data-name="Rectangle">
<rect width="28" height="21.9056" transform="translate(486 105.811) scale(2)" stroke="black"/>
</g>
<g data-name="Rectangle">
<rect width="28" height="21.9056" transform="translate(486 148.875) scale(2)" stroke="black"/>
</g>
<g data-name="0">
<path d="M 6.43359 9.50586L 7.65234 4.66016L 8.73633 4.66016L 6.89062 11L 6.01172 11L 4.4707 6.19531L 2.9707 11L 2.0918 11L 0.251953 4.66016L 1.33008 4.66016L 2.57812 9.40625L 4.05469 4.66016L 4.92773 4.66016L 6.43359 9.50586Z" transform="translate(466 72) scale(2)" fill="#828282"/>
</g>
<g data-name="0">
<path d="M 15.7871 7.77344L 12.2129 7.77344L 11.4102 10L 10.25 10L 13.5078 1.46875L 14.4922 1.46875L 17.7559 10L 16.6016 10L 15.7871 7.77344ZM 12.5527 6.84766L 15.4531 6.84766L 14 2.85742L 12.5527 6.84766Z" transform="translate(486 34) scale(2)" fill="#828282"/>
</g>
<g data-name="0">
<path d="M 14.3223 3.46289L 14.3223 4.38281L 14.123 4.38281C 13.2793 4.39844 12.6074 4.64844 12.1074 5.13281C 11.6074 5.61719 11.3184 6.29883 11.2402 7.17773C 11.6895 6.66211 12.3027 6.4043 13.0801 6.4043C 13.8223 6.4043 14.4141 6.66602 14.8555 7.18945C 15.3008 7.71289 15.5234 8.38867 15.5234 9.2168C 15.5234 10.0957 15.2832 10.7988 14.8027 11.3262C 14.3262 11.8535 13.6855 12.1172 12.8809 12.1172C 12.0645 12.1172 11.4023 11.8047 10.8945 11.1797C 10.3867 10.5508 10.1328 9.74219 10.1328 8.75391L 10.1328 8.33789C 10.1328 6.76758 10.4668 5.56836 11.1348 4.74023C 11.8066 3.9082 12.8047 3.48242 14.1289 3.46289L 14.3223 3.46289ZM 12.8984 7.30664C 12.5273 7.30664 12.1855 7.41797 11.873 7.64062C 11.5605 7.86328 11.3438 8.14258 11.2227 8.47852L 11.2227 8.87695C 11.2227 9.58008 11.3809 10.1465 11.6973 10.5762C 12.0137 11.0059 12.4082 11.2207 12.8809 11.2207C 13.3691 11.2207 13.752 11.041 14.0293 10.6816C 14.3105 10.3223 14.4512 9.85156 14.4512 9.26953C 14.4512 8.68359 14.3086 8.21094 14.0234 7.85156C 13.7422 7.48828 13.3672 7.30664 12.8984 7.30664ZM 16.9414 11.4316C 16.9414 11.2441 16.9961 11.0879 17.1055 10.9629C 17.2188 10.8379 17.3867 10.7754 17.6094 10.7754C 17.832 10.7754 18 10.8379 18.1133 10.9629C 18.2305 11.0879 18.2891 11.2441 18.2891 11.4316C 18.2891 11.6113 18.2305 11.7617 18.1133 11.8828C 18 12.0039 17.832 12.0645 17.6094 12.0645C 17.3867 12.0645 17.2188 12.0039 17.1055 11.8828C 16.9961 11.7617 16.9414 11.6113 16.9414 11.4316ZM 25.3203 8.36133C 25.3203 9.63086 25.1035 10.5742 24.6699 11.1914C 24.2363 11.8086 23.5586 12.1172 22.6367 12.1172C 21.7266 12.1172 21.0527 11.8164 20.6152 11.2148C 20.1777 10.6094 19.9512 9.70703 19.9355 8.50781L 19.9355 7.06055C 19.9355 5.80664 20.1523 4.875 20.5859 4.26562C 21.0195 3.65625 21.6992 3.35156 22.625 3.35156C 23.543 3.35156 24.2188 3.64648 24.6523 4.23633C 25.0859 4.82227 25.3086 5.72852 25.3203 6.95508L 25.3203 8.36133ZM 24.2363 6.87891C 24.2363 5.96094 24.1074 5.29297 23.8496 4.875C 23.5918 4.45312 23.1836 4.24219 22.625 4.24219C 22.0703 4.24219 21.666 4.45117 21.4121 4.86914C 21.1582 5.28711 21.0273 5.92969 21.0195 6.79688L 21.0195 8.53125C 21.0195 9.45312 21.1523 10.1348 21.418 10.5762C 21.6875 11.0137 22.0938 11.2324 22.6367 11.2324C 23.1719 11.2324 23.5684 11.0254 23.8262 10.6113C 24.0879 10.1973 24.2246 9.54492 24.2363 8.6543L 24.2363 6.87891Z" transform="translate(486 72) scale(2)" fill="#333333"/>
</g>
<g data-name="0">
<path d="M 14.3223 3.46289L 14.3223 4.38281L 14.123 4.38281C 13.2793 4.39844 12.6074 4.64844 12.1074 5.13281C 11.6074 5.61719 11.3184 6.29883 11.2402 7.17773C 11.6895 6.66211 12.3027 6.4043 13.0801 6.4043C 13.8223 6.4043 14.4141 6.66602 14.8555 7.18945C 15.3008 7.71289 15.5234 8.38867 15.5234 9.2168C 15.5234 10.0957 15.2832 10.7988 14.8027 11.3262C 14.3262 11.8535 13.6855 12.1172 12.8809 12.1172C 12.0645 12.1172 11.4023 11.8047 10.8945 11.1797C 10.3867 10.5508 10.1328 9.74219 10.1328 8.75391L 10.1328 8.33789C 10.1328 6.76758 10.4668 5.56836 11.1348 4.74023C 11.8066 3.9082 12.8047 3.48242 14.1289 3.46289L 14.3223 3.46289ZM 12.8984 7.30664C 12.5273 7.30664 12.1855 7.41797 11.873 7.64062C 11.5605 7.86328 11.3438 8.14258 11.2227 8.47852L 11.2227 8.87695C 11.2227 9.58008 11.3809 10.1465 11.6973 10.5762C 12.0137 11.0059 12.4082 11.2207 12.8809 11.2207C 13.3691 11.2207 13.752 11.041 14.0293 10.6816C 14.3105 10.3223 14.4512 9.85156 14.4512 9.26953C 14.4512 8.68359 14.3086 8.21094 14.0234 7.85156C 13.7422 7.48828 13.3672 7.30664 12.8984 7.30664ZM 16.9414 11.4316C 16.9414 11.2441 16.9961 11.0879 17.1055 10.9629C 17.2188 10.8379 17.3867 10.7754 17.6094 10.7754C 17.832 10.7754 18 10.8379 18.1133 10.9629C 18.2305 11.0879 18.2891 11.2441 18.2891 11.4316C 18.2891 11.6113 18.2305 11.7617 18.1133 11.8828C 18 12.0039 17.832 12.0645 17.6094 12.0645C 17.3867 12.0645 17.2188 12.0039 17.1055 11.8828C 16.9961 11.7617 16.9414 11.6113 16.9414 11.4316ZM 25.3203 8.36133C 25.3203 9.63086 25.1035 10.5742 24.6699 11.1914C 24.2363 11.8086 23.5586 12.1172 22.6367 12.1172C 21.7266 12.1172 21.0527 11.8164 20.6152 11.2148C 20.1777 10.6094 19.9512 9.70703 19.9355 8.50781L 19.9355 7.06055C 19.9355 5.80664 20.1523 4.875 20.5859 4.26562C 21.0195 3.65625 21.6992 3.35156 22.625 3.35156C 23.543 3.35156 24.2188 3.64648 24.6523 4.23633C 25.0859 4.82227 25.3086 5.72852 25.3203 6.95508L 25.3203 8.36133ZM 24.2363 6.87891C 24.2363 5.96094 24.1074 5.29297 23.8496 4.875C 23.5918 4.45312 23.1836 4.24219 22.625 4.24219C 22.0703 4.24219 21.666 4.45117 21.4121 4.86914C 21.1582 5.28711 21.0273 5.92969 21.0195 6.79688L 21.0195 8.53125C 21.0195 9.45312 21.1523 10.1348 21.418 10.5762C 21.6875 11.0137 22.0938 11.2324 22.6367 11.2324C 23.1719 11.2324 23.5684 11.0254 23.8262 10.6113C 24.0879 10.1973 24.2246 9.54492 24.2363 8.6543L 24.2363 6.87891Z" transform="translate(486 114) scale(2)" fill="#333333"/>
</g>
<g data-name="0">
<path d="M 14.6445 9.13477L 15.8281 9.13477L 15.8281 10.0195L 14.6445 10.0195L 14.6445 12L 13.5547 12L 13.5547 10.0195L 9.66992 10.0195L 9.66992 9.38086L 13.4902 3.46875L 14.6445 3.46875L 14.6445 9.13477ZM 10.9004 9.13477L 13.5547 9.13477L 13.5547 4.95117L 13.4258 5.18555L 10.9004 9.13477ZM 16.9414 11.4316C 16.9414 11.2441 16.9961 11.0879 17.1055 10.9629C 17.2188 10.8379 17.3867 10.7754 17.6094 10.7754C 17.832 10.7754 18 10.8379 18.1133 10.9629C 18.2305 11.0879 18.2891 11.2441 18.2891 11.4316C 18.2891 11.6113 18.2305 11.7617 18.1133 11.8828C 18 12.0039 17.832 12.0645 17.6094 12.0645C 17.3867 12.0645 17.2188 12.0039 17.1055 11.8828C 16.9961 11.7617 16.9414 11.6113 16.9414 11.4316ZM 25.3203 8.36133C 25.3203 9.63086 25.1035 10.5742 24.6699 11.1914C 24.2363 11.8086 23.5586 12.1172 22.6367 12.1172C 21.7266 12.1172 21.0527 11.8164 20.6152 11.2148C 20.1777 10.6094 19.9512 9.70703 19.9355 8.50781L 19.9355 7.06055C 19.9355 5.80664 20.1523 4.875 20.5859 4.26562C 21.0195 3.65625 21.6992 3.35156 22.625 3.35156C 23.543 3.35156 24.2188 3.64648 24.6523 4.23633C 25.0859 4.82227 25.3086 5.72852 25.3203 6.95508L 25.3203 8.36133ZM 24.2363 6.87891C 24.2363 5.96094 24.1074 5.29297 23.8496 4.875C 23.5918 4.45312 23.1836 4.24219 22.625 4.24219C 22.0703 4.24219 21.666 4.45117 21.4121 4.86914C 21.1582 5.28711 21.0273 5.92969 21.0195 6.79688L 21.0195 8.53125C 21.0195 9.45312 21.1523 10.1348 21.418 10.5762C 21.6875 11.0137 22.0938 11.2324 22.6367 11.2324C 23.1719 11.2324 23.5684 11.0254 23.8262 10.6113C 24.0879 10.1973 24.2246 9.54492 24.2363 8.6543L 24.2363 6.87891Z" transform="translate(486 158) scale(2)" fill="#333333"/>
</g>
<g data-name="0">
<path d="M 15.6582 12L 10.0684 12L 10.0684 11.2207L 13.0215 7.93945C 13.459 7.44336 13.7598 7.04102 13.9238 6.73242C 14.0918 6.41992 14.1758 6.09766 14.1758 5.76562C 14.1758 5.32031 14.041 4.95508 13.7715 4.66992C 13.502 4.38477 13.1426 4.24219 12.6934 4.24219C 12.1543 4.24219 11.7344 4.39648 11.4336 4.70508C 11.1367 5.00977 10.9883 5.43555 10.9883 5.98242L 9.9043 5.98242C 9.9043 5.19727 10.1562 4.5625 10.6602 4.07812C 11.168 3.59375 11.8457 3.35156 12.6934 3.35156C 13.4863 3.35156 14.1133 3.56055 14.5742 3.97852C 15.0352 4.39258 15.2656 4.94531 15.2656 5.63672C 15.2656 6.47656 14.7305 7.47656 13.6602 8.63672L 11.375 11.1152L 15.6582 11.1152L 15.6582 12ZM 16.9414 11.4316C 16.9414 11.2441 16.9961 11.0879 17.1055 10.9629C 17.2188 10.8379 17.3867 10.7754 17.6094 10.7754C 17.832 10.7754 18 10.8379 18.1133 10.9629C 18.2305 11.0879 18.2891 11.2441 18.2891 11.4316C 18.2891 11.6113 18.2305 11.7617 18.1133 11.8828C 18 12.0039 17.832 12.0645 17.6094 12.0645C 17.3867 12.0645 17.2188 12.0039 17.1055 11.8828C 16.9961 11.7617 16.9414 11.6113 16.9414 11.4316ZM 25.3203 8.36133C 25.3203 9.63086 25.1035 10.5742 24.6699 11.1914C 24.2363 11.8086 23.5586 12.1172 22.6367 12.1172C 21.7266 12.1172 21.0527 11.8164 20.6152 11.2148C 20.1777 10.6094 19.9512 9.70703 19.9355 8.50781L 19.9355 7.06055C 19.9355 5.80664 20.1523 4.875 20.5859 4.26562C 21.0195 3.65625 21.6992 3.35156 22.625 3.35156C 23.543 3.35156 24.2188 3.64648 24.6523 4.23633C 25.0859 4.82227 25.3086 5.72852 25.3203 6.95508L 25.3203 8.36133ZM 24.2363 6.87891C 24.2363 5.96094 24.1074 5.29297 23.8496 4.875C 23.5918 4.45312 23.1836 4.24219 22.625 4.24219C 22.0703 4.24219 21.666 4.45117 21.4121 4.86914C 21.1582 5.28711 21.0273 5.92969 21.0195 6.79688L 21.0195 8.53125C 21.0195 9.45312 21.1523 10.1348 21.418 10.5762C 21.6875 11.0137 22.0938 11.2324 22.6367 11.2324C 23.1719 11.2324 23.5684 11.0254 23.8262 10.6113C 24.0879 10.1973 24.2246 9.54492 24.2363 8.6543L 24.2363 6.87891Z" transform="translate(486 200) scale(2)" fill="#333333"/>
</g>
<g data-name="x">
<path d="M 2.94727 6.97461L 4.35352 4.66016L 5.61914 4.66016L 3.54492 7.79492L 5.68359 11L 4.42969 11L 2.96484 8.62695L 1.5 11L 0.240234 11L 2.37891 7.79492L 0.304688 4.66016L 1.55859 4.66016L 2.94727 6.97461Z" transform="translate(466 114) scale(2)" fill="#828282"/>
</g>
<g data-name="y">
<path d="M 2.89453 9.41211L 4.37109 4.66016L 5.53125 4.66016L 2.98242 11.9785C 2.58789 13.0332 1.96094 13.5605 1.10156 13.5605L 0.896484 13.543L 0.492188 13.4668L 0.492188 12.5879L 0.785156 12.6113C 1.15234 12.6113 1.4375 12.5371 1.64062 12.3887C 1.84766 12.2402 2.01758 11.9688 2.15039 11.5742L 2.39062 10.9297L 0.128906 4.66016L 1.3125 4.66016L 2.89453 9.41211Z" transform="translate(466 158) scale(2)" fill="#828282"/>
</g>
<g data-name="Rectangle">
<rect width="28" height="21.9056" transform="translate(486 192.189) scale(2)" stroke="black"/>
</g>
<g data-name="Rectangle">
<rect width="28" height="21.9812" transform="translate(542 62) scale(2)" stroke="black"/>
</g>
<g data-name="Rectangle">
<rect width="28" height="21.9056" transform="translate(542 105.811) scale(2)" stroke="black"/>
</g>
<g data-name="Rectangle">
<rect width="28" height="21.9056" transform="translate(542 148.875) scale(2)" stroke="black"/>
</g>
<g data-name="0">
<path d="M 11.252 10L 11.252 1.46875L 14.041 1.46875C 14.9668 1.46875 15.6621 1.66016 16.127 2.04297C 16.5957 2.42578 16.8301 2.99219 16.8301 3.74219C 16.8301 4.14062 16.7168 4.49414 16.4902 4.80273C 16.2637 5.10742 15.9551 5.34375 15.5645 5.51172C 16.0254 5.64062 16.3887 5.88672 16.6543 6.25C 16.9238 6.60938 17.0586 7.03906 17.0586 7.53906C 17.0586 8.30469 16.8105 8.90625 16.3145 9.34375C 15.8184 9.78125 15.1172 10 14.2109 10L 11.252 10ZM 12.377 6.00977L 12.377 9.08008L 14.2344 9.08008C 14.7578 9.08008 15.1699 8.94531 15.4707 8.67578C 15.7754 8.40234 15.9277 8.02734 15.9277 7.55078C 15.9277 6.52344 15.3691 6.00977 14.252 6.00977L 12.377 6.00977ZM 12.377 5.10742L 14.0762 5.10742C 14.5684 5.10742 14.9609 4.98438 15.2539 4.73828C 15.5508 4.49219 15.6992 4.1582 15.6992 3.73633C 15.6992 3.26758 15.5625 2.92773 15.2891 2.7168C 15.0156 2.50195 14.5996 2.39453 14.041 2.39453L 12.377 2.39453L 12.377 5.10742Z" transform="translate(542 34) scale(2)" fill="#828282"/>
</g>
<g data-name="0">
<path d="M 11.6445 7.20703L 12.459 7.20703C 12.9707 7.19922 13.373 7.06445 13.666 6.80273C 13.959 6.54102 14.1055 6.1875 14.1055 5.74219C 14.1055 4.74219 13.6074 4.24219 12.6113 4.24219C 12.1426 4.24219 11.7676 4.37695 11.4863 4.64648C 11.209 4.91211 11.0703 5.26562 11.0703 5.70703L 9.98633 5.70703C 9.98633 5.03125 10.2324 4.4707 10.7246 4.02539C 11.2207 3.57617 11.8496 3.35156 12.6113 3.35156C 13.416 3.35156 14.0469 3.56445 14.5039 3.99023C 14.9609 4.41602 15.1895 5.00781 15.1895 5.76562C 15.1895 6.13672 15.0684 6.49609 14.8262 6.84375C 14.5879 7.19141 14.2617 7.45117 13.8477 7.62305C 14.3164 7.77148 14.6777 8.01758 14.9316 8.36133C 15.1895 8.70508 15.3184 9.125 15.3184 9.62109C 15.3184 10.3867 15.0684 10.9941 14.5684 11.4434C 14.0684 11.8926 13.418 12.1172 12.6172 12.1172C 11.8164 12.1172 11.1641 11.9004 10.6602 11.4668C 10.1602 11.0332 9.91016 10.4609 9.91016 9.75L 11 9.75C 11 10.1992 11.1465 10.5586 11.4395 10.8281C 11.7324 11.0977 12.125 11.2324 12.6172 11.2324C 13.1406 11.2324 13.541 11.0957 13.8184 10.8223C 14.0957 10.5488 14.2344 10.1562 14.2344 9.64453C 14.2344 9.14844 14.082 8.76758 13.7773 8.50195C 13.4727 8.23633 13.0332 8.09961 12.459 8.0918L 11.6445 8.0918L 11.6445 7.20703ZM 16.9414 11.4316C 16.9414 11.2441 16.9961 11.0879 17.1055 10.9629C 17.2188 10.8379 17.3867 10.7754 17.6094 10.7754C 17.832 10.7754 18 10.8379 18.1133 10.9629C 18.2305 11.0879 18.2891 11.2441 18.2891 11.4316C 18.2891 11.6113 18.2305 11.7617 18.1133 11.8828C 18 12.0039 17.832 12.0645 17.6094 12.0645C 17.3867 12.0645 17.2188 12.0039 17.1055 11.8828C 16.9961 11.7617 16.9414 11.6113 16.9414 11.4316ZM 25.3203 8.36133C 25.3203 9.63086 25.1035 10.5742 24.6699 11.1914C 24.2363 11.8086 23.5586 12.1172 22.6367 12.1172C 21.7266 12.1172 21.0527 11.8164 20.6152 11.2148C 20.1777 10.6094 19.9512 9.70703 19.9355 8.50781L 19.9355 7.06055C 19.9355 5.80664 20.1523 4.875 20.5859 4.26562C 21.0195 3.65625 21.6992 3.35156 22.625 3.35156C 23.543 3.35156 24.2188 3.64648 24.6523 4.23633C 25.0859 4.82227 25.3086 5.72852 25.3203 6.95508L 25.3203 8.36133ZM 24.2363 6.87891C 24.2363 5.96094 24.1074 5.29297 23.8496 4.875C 23.5918 4.45312 23.1836 4.24219 22.625 4.24219C 22.0703 4.24219 21.666 4.45117 21.4121 4.86914C 21.1582 5.28711 21.0273 5.92969 21.0195 6.79688L 21.0195 8.53125C 21.0195 9.45312 21.1523 10.1348 21.418 10.5762C 21.6875 11.0137 22.0938 11.2324 22.6367 11.2324C 23.1719 11.2324 23.5684 11.0254 23.8262 10.6113C 24.0879 10.1973 24.2246 9.54492 24.2363 8.6543L 24.2363 6.87891Z" transform="translate(542 72) scale(2)" fill="#333333"/>
</g>
<g data-name="0">
<path d="M 15.6582 12L 10.0684 12L 10.0684 11.2207L 13.0215 7.93945C 13.459 7.44336 13.7598 7.04102 13.9238 6.73242C 14.0918 6.41992 14.1758 6.09766 14.1758 5.76562C 14.1758 5.32031 14.041 4.95508 13.7715 4.66992C 13.502 4.38477 13.1426 4.24219 12.6934 4.24219C 12.1543 4.24219 11.7344 4.39648 11.4336 4.70508C 11.1367 5.00977 10.9883 5.43555 10.9883 5.98242L 9.9043 5.98242C 9.9043 5.19727 10.1562 4.5625 10.6602 4.07812C 11.168 3.59375 11.8457 3.35156 12.6934 3.35156C 13.4863 3.35156 14.1133 3.56055 14.5742 3.97852C 15.0352 4.39258 15.2656 4.94531 15.2656 5.63672C 15.2656 6.47656 14.7305 7.47656 13.6602 8.63672L 11.375 11.1152L 15.6582 11.1152L 15.6582 12ZM 16.9414 11.4316C 16.9414 11.2441 16.9961 11.0879 17.1055 10.9629C 17.2188 10.8379 17.3867 10.7754 17.6094 10.7754C 17.832 10.7754 18 10.8379 18.1133 10.9629C 18.2305 11.0879 18.2891 11.2441 18.2891 11.4316C 18.2891 11.6113 18.2305 11.7617 18.1133 11.8828C 18 12.0039 17.832 12.0645 17.6094 12.0645C 17.3867 12.0645 17.2188 12.0039 17.1055 11.8828C 16.9961 11.7617 16.9414 11.6113 16.9414 11.4316ZM 25.3203 8.36133C 25.3203 9.63086 25.1035 10.5742 24.6699 11.1914C 24.2363 11.8086 23.5586 12.1172 22.6367 12.1172C 21.7266 12.1172 21.0527 11.8164 20.6152 11.2148C 20.1777 10.6094 19.9512 9.70703 19.9355 8.50781L 19.9355 7.06055C 19.9355 5.80664 20.1523 4.875 20.5859 4.26562C 21.0195 3.65625 21.6992 3.35156 22.625 3.35156C 23.543 3.35156 24.2188 3.64648 24.6523 4.23633C 25.0859 4.82227 25.3086 5.72852 25.3203 6.95508L 25.3203 8.36133ZM 24.2363 6.87891C 24.2363 5.96094 24.1074 5.29297 23.8496 4.875C 23.5918 4.45312 23.1836 4.24219 22.625 4.24219C 22.0703 4.24219 21.666 4.45117 21.4121 4.86914C 21.1582 5.28711 21.0273 5.92969 21.0195 6.79688L 21.0195 8.53125C 21.0195 9.45312 21.1523 10.1348 21.418 10.5762C 21.6875 11.0137 22.0938 11.2324 22.6367 11.2324C 23.1719 11.2324 23.5684 11.0254 23.8262 10.6113C 24.0879 10.1973 24.2246 9.54492 24.2363 8.6543L 24.2363 6.87891Z" transform="translate(542 114) scale(2)" fill="#333333"/>
</g>
<g data-name="0">
<path d="M 11.6445 7.20703L 12.459 7.20703C 12.9707 7.19922 13.373 7.06445 13.666 6.80273C 13.959 6.54102 14.1055 6.1875 14.1055 5.74219C 14.1055 4.74219 13.6074 4.24219 12.6113 4.24219C 12.1426 4.24219 11.7676 4.37695 11.4863 4.64648C 11.209 4.91211 11.0703 5.26562 11.0703 5.70703L 9.98633 5.70703C 9.98633 5.03125 10.2324 4.4707 10.7246 4.02539C 11.2207 3.57617 11.8496 3.35156 12.6113 3.35156C 13.416 3.35156 14.0469 3.56445 14.5039 3.99023C 14.9609 4.41602 15.1895 5.00781 15.1895 5.76562C 15.1895 6.13672 15.0684 6.49609 14.8262 6.84375C 14.5879 7.19141 14.2617 7.45117 13.8477 7.62305C 14.3164 7.77148 14.6777 8.01758 14.9316 8.36133C 15.1895 8.70508 15.3184 9.125 15.3184 9.62109C 15.3184 10.3867 15.0684 10.9941 14.5684 11.4434C 14.0684 11.8926 13.418 12.1172 12.6172 12.1172C 11.8164 12.1172 11.1641 11.9004 10.6602 11.4668C 10.1602 11.0332 9.91016 10.4609 9.91016 9.75L 11 9.75C 11 10.1992 11.1465 10.5586 11.4395 10.8281C 11.7324 11.0977 12.125 11.2324 12.6172 11.2324C 13.1406 11.2324 13.541 11.0957 13.8184 10.8223C 14.0957 10.5488 14.2344 10.1562 14.2344 9.64453C 14.2344 9.14844 14.082 8.76758 13.7773 8.50195C 13.4727 8.23633 13.0332 8.09961 12.459 8.0918L 11.6445 8.0918L 11.6445 7.20703ZM 16.9414 11.4316C 16.9414 11.2441 16.9961 11.0879 17.1055 10.9629C 17.2188 10.8379 17.3867 10.7754 17.6094 10.7754C 17.832 10.7754 18 10.8379 18.1133 10.9629C 18.2305 11.0879 18.2891 11.2441 18.2891 11.4316C 18.2891 11.6113 18.2305 11.7617 18.1133 11.8828C 18 12.0039 17.832 12.0645 17.6094 12.0645C 17.3867 12.0645 17.2188 12.0039 17.1055 11.8828C 16.9961 11.7617 16.9414 11.6113 16.9414 11.4316ZM 25.3203 8.36133C 25.3203 9.63086 25.1035 10.5742 24.6699 11.1914C 24.2363 11.8086 23.5586 12.1172 22.6367 12.1172C 21.7266 12.1172 21.0527 11.8164 20.6152 11.2148C 20.1777 10.6094 19.9512 9.70703 19.9355 8.50781L 19.9355 7.06055C 19.9355 5.80664 20.1523 4.875 20.5859 4.26562C 21.0195 3.65625 21.6992 3.35156 22.625 3.35156C 23.543 3.35156 24.2188 3.64648 24.6523 4.23633C 25.0859 4.82227 25.3086 5.72852 25.3203 6.95508L 25.3203 8.36133ZM 24.2363 6.87891C 24.2363 5.96094 24.1074 5.29297 23.8496 4.875C 23.5918 4.45312 23.1836 4.24219 22.625 4.24219C 22.0703 4.24219 21.666 4.45117 21.4121 4.86914C 21.1582 5.28711 21.0273 5.92969 21.0195 6.79688L 21.0195 8.53125C 21.0195 9.45312 21.1523 10.1348 21.418 10.5762C 21.6875 11.0137 22.0938 11.2324 22.6367 11.2324C 23.1719 11.2324 23.5684 11.0254 23.8262 10.6113C 24.0879 10.1973 24.2246 9.54492 24.2363 8.6543L 24.2363 6.87891Z" transform="translate(542 158) scale(2)" fill="#333333"/>
</g>
<g data-name="0">
<path d="M 10.5664 7.72266L 11 3.46875L 15.3711 3.46875L 15.3711 4.4707L 11.9199 4.4707L 11.6621 6.79688C 12.0801 6.55078 12.5547 6.42773 13.0859 6.42773C 13.8633 6.42773 14.4805 6.68555 14.9375 7.20117C 15.3945 7.71289 15.623 8.40625 15.623 9.28125C 15.623 10.1602 15.3848 10.8535 14.9082 11.3613C 14.4355 11.8652 13.7734 12.1172 12.9219 12.1172C 12.168 12.1172 11.5527 11.9082 11.0762 11.4902C 10.5996 11.0723 10.3281 10.4941 10.2617 9.75586L 11.2871 9.75586C 11.3535 10.2441 11.5273 10.6133 11.8086 10.8633C 12.0898 11.1094 12.4609 11.2324 12.9219 11.2324C 13.4258 11.2324 13.8203 11.0605 14.1055 10.7168C 14.3945 10.373 14.5391 9.89844 14.5391 9.29297C 14.5391 8.72266 14.3828 8.26562 14.0703 7.92188C 13.7617 7.57422 13.3496 7.40039 12.834 7.40039C 12.3613 7.40039 11.9902 7.50391 11.7207 7.71094L 11.4336 7.94531L 10.5664 7.72266ZM 16.9414 11.4316C 16.9414 11.2441 16.9961 11.0879 17.1055 10.9629C 17.2188 10.8379 17.3867 10.7754 17.6094 10.7754C 17.832 10.7754 18 10.8379 18.1133 10.9629C 18.2305 11.0879 18.2891 11.2441 18.2891 11.4316C 18.2891 11.6113 18.2305 11.7617 18.1133 11.8828C 18 12.0039 17.832 12.0645 17.6094 12.0645C 17.3867 12.0645 17.2188 12.0039 17.1055 11.8828C 16.9961 11.7617 16.9414 11.6113 16.9414 11.4316ZM 25.3203 8.36133C 25.3203 9.63086 25.1035 10.5742 24.6699 11.1914C 24.2363 11.8086 23.5586 12.1172 22.6367 12.1172C 21.7266 12.1172 21.0527 11.8164 20.6152 11.2148C 20.1777 10.6094 19.9512 9.70703 19.9355 8.50781L 19.9355 7.06055C 19.9355 5.80664 20.1523 4.875 20.5859 4.26562C 21.0195 3.65625 21.6992 3.35156 22.625 3.35156C 23.543 3.35156 24.2188 3.64648 24.6523 4.23633C 25.0859 4.82227 25.3086 5.72852 25.3203 6.95508L 25.3203 8.36133ZM 24.2363 6.87891C 24.2363 5.96094 24.1074 5.29297 23.8496 4.875C 23.5918 4.45312 23.1836 4.24219 22.625 4.24219C 22.0703 4.24219 21.666 4.45117 21.4121 4.86914C 21.1582 5.28711 21.0273 5.92969 21.0195 6.79688L 21.0195 8.53125C 21.0195 9.45312 21.1523 10.1348 21.418 10.5762C 21.6875 11.0137 22.0938 11.2324 22.6367 11.2324C 23.1719 11.2324 23.5684 11.0254 23.8262 10.6113C 24.0879 10.1973 24.2246 9.54492 24.2363 8.6543L 24.2363 6.87891Z" transform="translate(542 200) scale(2)" fill="#333333"/>
</g>
<g data-name="Rectangle">
<rect width="28" height="21.9056" transform="translate(542 192.189) scale(2)" stroke="black"/>
</g>
<g data-name="Rectangle">
<rect width="28" height="21.9812" transform="translate(598 62) scale(2)" stroke="black"/>
</g>
<g data-name="Rectangle">
<rect width="28" height="21.9056" transform="translate(598 105.811) scale(2)" stroke="black"/>
</g>
<g data-name="Rectangle">
<rect width="28" height="21.9056" transform="translate(598 148.875) scale(2)" stroke="black"/>
</g>
<g data-name="0">
<path d="M 11.0527 10L 11.0527 1.46875L 13.4609 1.46875C 14.2031 1.46875 14.8594 1.63281 15.4297 1.96094C 16 2.28906 16.4395 2.75586 16.748 3.36133C 17.0605 3.9668 17.2188 4.66211 17.2227 5.44727L 17.2227 5.99219C 17.2227 6.79688 17.0664 7.50195 16.7539 8.10742C 16.4453 8.71289 16.002 9.17773 15.4238 9.50195C 14.8496 9.82617 14.1797 9.99219 13.4141 10L 11.0527 10ZM 12.1777 2.39453L 12.1777 9.08008L 13.3613 9.08008C 14.2285 9.08008 14.9023 8.81055 15.3828 8.27148C 15.8672 7.73242 16.1094 6.96484 16.1094 5.96875L 16.1094 5.4707C 16.1094 4.50195 15.8809 3.75 15.4238 3.21484C 14.9707 2.67578 14.3262 2.40234 13.4902 2.39453L 12.1777 2.39453Z" transform="translate(598 34) scale(2)" fill="#828282"/>
</g>
<g data-name="0">
<path d="M 14.6445 9.13477L 15.8281 9.13477L 15.8281 10.0195L 14.6445 10.0195L 14.6445 12L 13.5547 12L 13.5547 10.0195L 9.66992 10.0195L 9.66992 9.38086L 13.4902 3.46875L 14.6445 3.46875L 14.6445 9.13477ZM 10.9004 9.13477L 13.5547 9.13477L 13.5547 4.95117L 13.4258 5.18555L 10.9004 9.13477ZM 16.9414 11.4316C 16.9414 11.2441 16.9961 11.0879 17.1055 10.9629C 17.2188 10.8379 17.3867 10.7754 17.6094 10.7754C 17.832 10.7754 18 10.8379 18.1133 10.9629C 18.2305 11.0879 18.2891 11.2441 18.2891 11.4316C 18.2891 11.6113 18.2305 11.7617 18.1133 11.8828C 18 12.0039 17.832 12.0645 17.6094 12.0645C 17.3867 12.0645 17.2188 12.0039 17.1055 11.8828C 16.9961 11.7617 16.9414 11.6113 16.9414 11.4316ZM 25.3203 8.36133C 25.3203 9.63086 25.1035 10.5742 24.6699 11.1914C 24.2363 11.8086 23.5586 12.1172 22.6367 12.1172C 21.7266 12.1172 21.0527 11.8164 20.6152 11.2148C 20.1777 10.6094 19.9512 9.70703 19.9355 8.50781L 19.9355 7.06055C 19.9355 5.80664 20.1523 4.875 20.5859 4.26562C 21.0195 3.65625 21.6992 3.35156 22.625 3.35156C 23.543 3.35156 24.2188 3.64648 24.6523 4.23633C 25.0859 4.82227 25.3086 5.72852 25.3203 6.95508L 25.3203 8.36133ZM 24.2363 6.87891C 24.2363 5.96094 24.1074 5.29297 23.8496 4.875C 23.5918 4.45312 23.1836 4.24219 22.625 4.24219C 22.0703 4.24219 21.666 4.45117 21.4121 4.86914C 21.1582 5.28711 21.0273 5.92969 21.0195 6.79688L 21.0195 8.53125C 21.0195 9.45312 21.1523 10.1348 21.418 10.5762C 21.6875 11.0137 22.0938 11.2324 22.6367 11.2324C 23.1719 11.2324 23.5684 11.0254 23.8262 10.6113C 24.0879 10.1973 24.2246 9.54492 24.2363 8.6543L 24.2363 6.87891Z" transform="translate(598 72) scale(2)" fill="#333333"/>
</g>
<g data-name="0">
<path d="M 15.5762 4.07812L 12.043 12L 10.9062 12L 14.4277 4.35938L 9.81055 4.35938L 9.81055 3.46875L 15.5762 3.46875L 15.5762 4.07812ZM 16.9414 11.4316C 16.9414 11.2441 16.9961 11.0879 17.1055 10.9629C 17.2188 10.8379 17.3867 10.7754 17.6094 10.7754C 17.832 10.7754 18 10.8379 18.1133 10.9629C 18.2305 11.0879 18.2891 11.2441 18.2891 11.4316C 18.2891 11.6113 18.2305 11.7617 18.1133 11.8828C 18 12.0039 17.832 12.0645 17.6094 12.0645C 17.3867 12.0645 17.2188 12.0039 17.1055 11.8828C 16.9961 11.7617 16.9414 11.6113 16.9414 11.4316ZM 25.3203 8.36133C 25.3203 9.63086 25.1035 10.5742 24.6699 11.1914C 24.2363 11.8086 23.5586 12.1172 22.6367 12.1172C 21.7266 12.1172 21.0527 11.8164 20.6152 11.2148C 20.1777 10.6094 19.9512 9.70703 19.9355 8.50781L 19.9355 7.06055C 19.9355 5.80664 20.1523 4.875 20.5859 4.26562C 21.0195 3.65625 21.6992 3.35156 22.625 3.35156C 23.543 3.35156 24.2188 3.64648 24.6523 4.23633C 25.0859 4.82227 25.3086 5.72852 25.3203 6.95508L 25.3203 8.36133ZM 24.2363 6.87891C 24.2363 5.96094 24.1074 5.29297 23.8496 4.875C 23.5918 4.45312 23.1836 4.24219 22.625 4.24219C 22.0703 4.24219 21.666 4.45117 21.4121 4.86914C 21.1582 5.28711 21.0273 5.92969 21.0195 6.79688L 21.0195 8.53125C 21.0195 9.45312 21.1523 10.1348 21.418 10.5762C 21.6875 11.0137 22.0938 11.2324 22.6367 11.2324C 23.1719 11.2324 23.5684 11.0254 23.8262 10.6113C 24.0879 10.1973 24.2246 9.54492 24.2363 8.6543L 24.2363 6.87891Z" transform="translate(598 114) scale(2)" fill="#333333"/>
</g>
<g data-name="0">
<path d="M 15.5762 4.07812L 12.043 12L 10.9062 12L 14.4277 4.35938L 9.81055 4.35938L 9.81055 3.46875L 15.5762 3.46875L 15.5762 4.07812ZM 16.9414 11.4316C 16.9414 11.2441 16.9961 11.0879 17.1055 10.9629C 17.2188 10.8379 17.3867 10.7754 17.6094 10.7754C 17.832 10.7754 18 10.8379 18.1133 10.9629C 18.2305 11.0879 18.2891 11.2441 18.2891 11.4316C 18.2891 11.6113 18.2305 11.7617 18.1133 11.8828C 18 12.0039 17.832 12.0645 17.6094 12.0645C 17.3867 12.0645 17.2188 12.0039 17.1055 11.8828C 16.9961 11.7617 16.9414 11.6113 16.9414 11.4316ZM 25.3203 8.36133C 25.3203 9.63086 25.1035 10.5742 24.6699 11.1914C 24.2363 11.8086 23.5586 12.1172 22.6367 12.1172C 21.7266 12.1172 21.0527 11.8164 20.6152 11.2148C 20.1777 10.6094 19.9512 9.70703 19.9355 8.50781L 19.9355 7.06055C 19.9355 5.80664 20.1523 4.875 20.5859 4.26562C 21.0195 3.65625 21.6992 3.35156 22.625 3.35156C 23.543 3.35156 24.2188 3.64648 24.6523 4.23633C 25.0859 4.82227 25.3086 5.72852 25.3203 6.95508L 25.3203 8.36133ZM 24.2363 6.87891C 24.2363 5.96094 24.1074 5.29297 23.8496 4.875C 23.5918 4.45312 23.1836 4.24219 22.625 4.24219C 22.0703 4.24219 21.666 4.45117 21.4121 4.86914C 21.1582 5.28711 21.0273 5.92969 21.0195 6.79688L 21.0195 8.53125C 21.0195 9.45312 21.1523 10.1348 21.418 10.5762C 21.6875 11.0137 22.0938 11.2324 22.6367 11.2324C 23.1719 11.2324 23.5684 11.0254 23.8262 10.6113C 24.0879 10.1973 24.2246 9.54492 24.2363 8.6543L 24.2363 6.87891Z" transform="translate(598 158) scale(2)" fill="#333333"/>
</g>
<g data-name="0">
<path d="M 13.6309 12L 12.541 12L 12.541 4.77539L 10.3555 5.57812L 10.3555 4.59375L 13.4609 3.42773L 13.6309 3.42773L 13.6309 12ZM 16.9414 11.4316C 16.9414 11.2441 16.9961 11.0879 17.1055 10.9629C 17.2188 10.8379 17.3867 10.7754 17.6094 10.7754C 17.832 10.7754 18 10.8379 18.1133 10.9629C 18.2305 11.0879 18.2891 11.2441 18.2891 11.4316C 18.2891 11.6113 18.2305 11.7617 18.1133 11.8828C 18 12.0039 17.832 12.0645 17.6094 12.0645C 17.3867 12.0645 17.2188 12.0039 17.1055 11.8828C 16.9961 11.7617 16.9414 11.6113 16.9414 11.4316ZM 25.3203 8.36133C 25.3203 9.63086 25.1035 10.5742 24.6699 11.1914C 24.2363 11.8086 23.5586 12.1172 22.6367 12.1172C 21.7266 12.1172 21.0527 11.8164 20.6152 11.2148C 20.1777 10.6094 19.9512 9.70703 19.9355 8.50781L 19.9355 7.06055C 19.9355 5.80664 20.1523 4.875 20.5859 4.26562C 21.0195 3.65625 21.6992 3.35156 22.625 3.35156C 23.543 3.35156 24.2188 3.64648 24.6523 4.23633C 25.0859 4.82227 25.3086 5.72852 25.3203 6.95508L 25.3203 8.36133ZM 24.2363 6.87891C 24.2363 5.96094 24.1074 5.29297 23.8496 4.875C 23.5918 4.45312 23.1836 4.24219 22.625 4.24219C 22.0703 4.24219 21.666 4.45117 21.4121 4.86914C 21.1582 5.28711 21.0273 5.92969 21.0195 6.79688L 21.0195 8.53125C 21.0195 9.45312 21.1523 10.1348 21.418 10.5762C 21.6875 11.0137 22.0938 11.2324 22.6367 11.2324C 23.1719 11.2324 23.5684 11.0254 23.8262 10.6113C 24.0879 10.1973 24.2246 9.54492 24.2363 8.6543L 24.2363 6.87891Z" transform="translate(598 200) scale(2)" fill="#333333"/>
</g>
<g data-name="Rectangle">
<rect width="28" height="21.9056" transform="translate(598 192.189) scale(2)" stroke="black"/>
</g>
<g data-name="z">
<path d="M 1.83984 10.1152L 5.54883 10.1152L 5.54883 11L 0.515625 11L 0.515625 10.2031L 4.01367 5.55664L 0.568359 5.55664L 0.568359 4.66016L 5.37305 4.66016L 5.37305 5.42773L 1.83984 10.1152Z" transform="translate(466 200.75) scale(2)" fill="#828282"/>
</g>
</g>
</g>
<defs>

<clipPath id="clip0">
<rect width="351" height="134" fill="white" transform="scale(2)"/>
</clipPath>

</defs>
</svg>

