<svg width="1022" height="300" viewBox="0 0 1022 300" fill="none" xmlns="http://www.w3.org/2000/svg">
<rect width="511" height="150" transform="scale(2)" fill="white"/>
<path d="M509.316 132.707C509.72 133.097 510.353 133.097 510.731 132.707L516.883 126.346C517.26 125.956 517.239 125.323 516.835 124.933C516.432 124.543 515.799 124.543 515.421 124.933L509.953 130.587L504.108 124.933C503.704 124.543 503.071 124.543 502.693 124.933C502.316 125.323 502.337 125.956 502.74 126.346L509.316 132.707ZM507 72L509 132L511 132L509 72L507 72Z" fill="#828282"/>
<path d="M335.293 132.707C335.683 133.098 336.317 133.098 336.707 132.707L343.071 126.343C343.462 125.953 343.462 125.319 343.071 124.929C342.681 124.538 342.047 124.538 341.657 124.929L336 130.586L330.343 124.929C329.953 124.538 329.319 124.538 328.929 124.929C328.538 125.319 328.538 125.953 328.929 126.343L335.293 132.707ZM335 116V132H337V116H335Z" fill="#828282"/>
<path d="M480 72V86L336 116V132" stroke="#828282"/>
<path d="M686.707 132.707C686.317 133.098 685.683 133.098 685.293 132.707L678.929 126.343C678.538 125.953 678.538 125.319 678.929 124.929C679.319 124.538 679.953 124.538 680.343 124.929L686 130.586L691.657 124.929C692.047 124.538 692.681 124.538 693.071 124.929C693.462 125.319 693.462 125.953 693.071 126.343L686.707 132.707ZM687 116V132H685V116H687Z" fill="#828282"/>
<path d="M540 72V86L686 116V132" stroke="#828282"/>
<rect x="272" y="138" width="130" height="150" fill="#FFFAF5"/>
<path d="M293.77 192.521H288.285V207.732H286.047V192.521H280.574V190.669H293.77V192.521ZM298.129 196.587C299.09 195.407 300.34 194.818 301.879 194.818C304.559 194.818 305.91 196.329 305.934 199.353V207.732H303.766V199.341C303.758 198.427 303.547 197.751 303.133 197.314C302.727 196.876 302.09 196.657 301.223 196.657C300.52 196.657 299.902 196.845 299.371 197.22C298.84 197.595 298.426 198.087 298.129 198.697V207.732H295.961V189.732H298.129V196.587ZM314.441 207.966C312.723 207.966 311.324 207.404 310.246 206.279C309.168 205.146 308.629 203.634 308.629 201.743V201.345C308.629 200.087 308.867 198.966 309.344 197.982C309.828 196.99 310.5 196.216 311.359 195.661C312.227 195.099 313.164 194.818 314.172 194.818C315.82 194.818 317.102 195.361 318.016 196.447C318.93 197.532 319.387 199.087 319.387 201.111V202.013H310.797C310.828 203.263 311.191 204.275 311.887 205.048C312.59 205.814 313.48 206.197 314.559 206.197C315.324 206.197 315.973 206.04 316.504 205.728C317.035 205.415 317.5 205.001 317.898 204.486L319.223 205.517C318.16 207.15 316.566 207.966 314.441 207.966ZM314.172 196.599C313.297 196.599 312.562 196.919 311.969 197.56C311.375 198.193 311.008 199.083 310.867 200.232H317.219V200.068C317.156 198.966 316.859 198.115 316.328 197.513C315.797 196.904 315.078 196.599 314.172 196.599ZM286.727 234.197C287.5 234.197 288.176 233.962 288.754 233.493C289.332 233.025 289.652 232.439 289.715 231.736H291.766C291.727 232.462 291.477 233.154 291.016 233.81C290.555 234.466 289.938 234.99 289.164 235.38C288.398 235.771 287.586 235.966 286.727 235.966C285 235.966 283.625 235.392 282.602 234.243C281.586 233.087 281.078 231.509 281.078 229.509V229.146C281.078 227.911 281.305 226.814 281.758 225.853C282.211 224.892 282.859 224.146 283.703 223.615C284.555 223.083 285.559 222.818 286.715 222.818C288.137 222.818 289.316 223.243 290.254 224.095C291.199 224.947 291.703 226.052 291.766 227.411H289.715C289.652 226.591 289.34 225.919 288.777 225.396C288.223 224.865 287.535 224.599 286.715 224.599C285.613 224.599 284.758 224.997 284.148 225.794C283.547 226.583 283.246 227.728 283.246 229.228V229.638C283.246 231.099 283.547 232.224 284.148 233.013C284.75 233.802 285.609 234.197 286.727 234.197ZM296.371 224.587C297.332 223.407 298.582 222.818 300.121 222.818C302.801 222.818 304.152 224.329 304.176 227.353V235.732H302.008V227.341C302 226.427 301.789 225.751 301.375 225.314C300.969 224.876 300.332 224.657 299.465 224.657C298.762 224.657 298.145 224.845 297.613 225.22C297.082 225.595 296.668 226.087 296.371 226.697V235.732H294.203V217.732H296.371V224.587ZM315.25 235.732C315.125 235.482 315.023 235.036 314.945 234.396C313.938 235.443 312.734 235.966 311.336 235.966C310.086 235.966 309.059 235.615 308.254 234.911C307.457 234.2 307.059 233.302 307.059 232.216C307.059 230.896 307.559 229.872 308.559 229.146C309.566 228.411 310.98 228.044 312.801 228.044H314.91V227.048C314.91 226.29 314.684 225.689 314.23 225.243C313.777 224.79 313.109 224.564 312.227 224.564C311.453 224.564 310.805 224.759 310.281 225.15C309.758 225.54 309.496 226.013 309.496 226.568H307.316C307.316 225.935 307.539 225.325 307.984 224.74C308.438 224.146 309.047 223.677 309.812 223.333C310.586 222.99 311.434 222.818 312.355 222.818C313.816 222.818 314.961 223.185 315.789 223.919C316.617 224.646 317.047 225.65 317.078 226.931V232.767C317.078 233.931 317.227 234.857 317.523 235.544V235.732H315.25ZM311.652 234.079C312.332 234.079 312.977 233.904 313.586 233.552C314.195 233.2 314.637 232.743 314.91 232.181V229.579H313.211C310.555 229.579 309.227 230.357 309.227 231.911C309.227 232.591 309.453 233.122 309.906 233.505C310.359 233.888 310.941 234.079 311.652 234.079ZM326.605 224.997C326.277 224.943 325.922 224.915 325.539 224.915C324.117 224.915 323.152 225.521 322.645 226.732V235.732H320.477V223.052H322.586L322.621 224.517C323.332 223.384 324.34 222.818 325.645 222.818C326.066 222.818 326.387 222.872 326.605 222.982V224.997ZM335.969 235.732C335.844 235.482 335.742 235.036 335.664 234.396C334.656 235.443 333.453 235.966 332.055 235.966C330.805 235.966 329.777 235.615 328.973 234.911C328.176 234.2 327.777 233.302 327.777 232.216C327.777 230.896 328.277 229.872 329.277 229.146C330.285 228.411 331.699 228.044 333.52 228.044H335.629V227.048C335.629 226.29 335.402 225.689 334.949 225.243C334.496 224.79 333.828 224.564 332.945 224.564C332.172 224.564 331.523 224.759 331 225.15C330.477 225.54 330.215 226.013 330.215 226.568H328.035C328.035 225.935 328.258 225.325 328.703 224.74C329.156 224.146 329.766 223.677 330.531 223.333C331.305 222.99 332.152 222.818 333.074 222.818C334.535 222.818 335.68 223.185 336.508 223.919C337.336 224.646 337.766 225.65 337.797 226.931V232.767C337.797 233.931 337.945 234.857 338.242 235.544V235.732H335.969ZM332.371 234.079C333.051 234.079 333.695 233.904 334.305 233.552C334.914 233.2 335.355 232.743 335.629 232.181V229.579H333.93C331.273 229.579 329.945 230.357 329.945 231.911C329.945 232.591 330.172 233.122 330.625 233.505C331.078 233.888 331.66 234.079 332.371 234.079ZM346.281 234.197C347.055 234.197 347.73 233.962 348.309 233.493C348.887 233.025 349.207 232.439 349.27 231.736H351.32C351.281 232.462 351.031 233.154 350.57 233.81C350.109 234.466 349.492 234.99 348.719 235.38C347.953 235.771 347.141 235.966 346.281 235.966C344.555 235.966 343.18 235.392 342.156 234.243C341.141 233.087 340.633 231.509 340.633 229.509V229.146C340.633 227.911 340.859 226.814 341.312 225.853C341.766 224.892 342.414 224.146 343.258 223.615C344.109 223.083 345.113 222.818 346.27 222.818C347.691 222.818 348.871 223.243 349.809 224.095C350.754 224.947 351.258 226.052 351.32 227.411H349.27C349.207 226.591 348.895 225.919 348.332 225.396C347.777 224.865 347.09 224.599 346.27 224.599C345.168 224.599 344.312 224.997 343.703 225.794C343.102 226.583 342.801 227.728 342.801 229.228V229.638C342.801 231.099 343.102 232.224 343.703 233.013C344.305 233.802 345.164 234.197 346.281 234.197ZM356.699 219.982V223.052H359.066V224.728H356.699V232.591C356.699 233.099 356.805 233.482 357.016 233.74C357.227 233.99 357.586 234.115 358.094 234.115C358.344 234.115 358.688 234.068 359.125 233.974V235.732C358.555 235.888 358 235.966 357.461 235.966C356.492 235.966 355.762 235.673 355.27 235.087C354.777 234.501 354.531 233.669 354.531 232.591V224.728H352.223V223.052H354.531V219.982H356.699ZM366.871 235.966C365.152 235.966 363.754 235.404 362.676 234.279C361.598 233.146 361.059 231.634 361.059 229.743V229.345C361.059 228.087 361.297 226.966 361.773 225.982C362.258 224.99 362.93 224.216 363.789 223.661C364.656 223.099 365.594 222.818 366.602 222.818C368.25 222.818 369.531 223.361 370.445 224.447C371.359 225.532 371.816 227.087 371.816 229.111V230.013H363.227C363.258 231.263 363.621 232.275 364.316 233.048C365.02 233.814 365.91 234.197 366.988 234.197C367.754 234.197 368.402 234.04 368.934 233.728C369.465 233.415 369.93 233.001 370.328 232.486L371.652 233.517C370.59 235.15 368.996 235.966 366.871 235.966ZM366.602 224.599C365.727 224.599 364.992 224.919 364.398 225.56C363.805 226.193 363.438 227.083 363.297 228.232H369.648V228.068C369.586 226.966 369.289 226.115 368.758 225.513C368.227 224.904 367.508 224.599 366.602 224.599ZM380.465 224.997C380.137 224.943 379.781 224.915 379.398 224.915C377.977 224.915 377.012 225.521 376.504 226.732V235.732H374.336V223.052H376.445L376.48 224.517C377.191 223.384 378.199 222.818 379.504 222.818C379.926 222.818 380.246 222.872 380.465 222.982V224.997ZM281.559 256.806C281.559 255.04 281.793 253.345 282.262 251.72C282.738 250.095 283.445 248.618 284.383 247.29C285.32 245.962 286.293 245.025 287.301 244.478L287.746 245.907C286.605 246.782 285.668 248.118 284.934 249.915C284.207 251.712 283.809 253.724 283.738 255.95L283.727 256.947C283.727 259.962 284.277 262.579 285.379 264.798C286.043 266.126 286.832 267.165 287.746 267.915L287.301 269.24C286.262 268.661 285.27 267.693 284.324 266.333C282.48 263.677 281.559 260.501 281.559 256.806ZM295.105 263.966C293.387 263.966 291.988 263.404 290.91 262.279C289.832 261.146 289.293 259.634 289.293 257.743V257.345C289.293 256.087 289.531 254.966 290.008 253.982C290.492 252.99 291.164 252.216 292.023 251.661C292.891 251.099 293.828 250.818 294.836 250.818C296.484 250.818 297.766 251.361 298.68 252.447C299.594 253.532 300.051 255.087 300.051 257.111V258.013H291.461C291.492 259.263 291.855 260.275 292.551 261.048C293.254 261.814 294.145 262.197 295.223 262.197C295.988 262.197 296.637 262.04 297.168 261.728C297.699 261.415 298.164 261.001 298.562 260.486L299.887 261.517C298.824 263.15 297.23 263.966 295.105 263.966ZM294.836 252.599C293.961 252.599 293.227 252.919 292.633 253.56C292.039 254.193 291.672 255.083 291.531 256.232H297.883V256.068C297.82 254.966 297.523 254.115 296.992 253.513C296.461 252.904 295.742 252.599 294.836 252.599ZM309.953 260.368C309.953 259.782 309.73 259.329 309.285 259.009C308.848 258.681 308.078 258.4 306.977 258.165C305.883 257.931 305.012 257.65 304.363 257.322C303.723 256.993 303.246 256.603 302.934 256.15C302.629 255.697 302.477 255.157 302.477 254.532C302.477 253.493 302.914 252.615 303.789 251.896C304.672 251.177 305.797 250.818 307.164 250.818C308.602 250.818 309.766 251.189 310.656 251.931C311.555 252.673 312.004 253.622 312.004 254.779H309.824C309.824 254.185 309.57 253.673 309.062 253.243C308.562 252.814 307.93 252.599 307.164 252.599C306.375 252.599 305.758 252.771 305.312 253.115C304.867 253.458 304.645 253.907 304.645 254.462C304.645 254.986 304.852 255.38 305.266 255.646C305.68 255.911 306.426 256.165 307.504 256.407C308.59 256.65 309.469 256.939 310.141 257.275C310.812 257.611 311.309 258.017 311.629 258.493C311.957 258.962 312.121 259.536 312.121 260.216C312.121 261.349 311.668 262.259 310.762 262.947C309.855 263.626 308.68 263.966 307.234 263.966C306.219 263.966 305.32 263.786 304.539 263.427C303.758 263.068 303.145 262.568 302.699 261.927C302.262 261.279 302.043 260.579 302.043 259.829H304.211C304.25 260.556 304.539 261.134 305.078 261.564C305.625 261.986 306.344 262.197 307.234 262.197C308.055 262.197 308.711 262.032 309.203 261.704C309.703 261.368 309.953 260.923 309.953 260.368ZM320.031 262.197C320.805 262.197 321.48 261.962 322.059 261.493C322.637 261.025 322.957 260.439 323.02 259.736H325.07C325.031 260.462 324.781 261.154 324.32 261.81C323.859 262.466 323.242 262.99 322.469 263.38C321.703 263.771 320.891 263.966 320.031 263.966C318.305 263.966 316.93 263.392 315.906 262.243C314.891 261.087 314.383 259.509 314.383 257.509V257.146C314.383 255.911 314.609 254.814 315.062 253.853C315.516 252.892 316.164 252.146 317.008 251.615C317.859 251.083 318.863 250.818 320.02 250.818C321.441 250.818 322.621 251.243 323.559 252.095C324.504 252.947 325.008 254.052 325.07 255.411H323.02C322.957 254.591 322.645 253.919 322.082 253.396C321.527 252.865 320.84 252.599 320.02 252.599C318.918 252.599 318.062 252.997 317.453 253.794C316.852 254.583 316.551 255.728 316.551 257.228V257.638C316.551 259.099 316.852 260.224 317.453 261.013C318.055 261.802 318.914 262.197 320.031 262.197ZM335.336 263.732C335.211 263.482 335.109 263.036 335.031 262.396C334.023 263.443 332.82 263.966 331.422 263.966C330.172 263.966 329.145 263.615 328.34 262.911C327.543 262.2 327.145 261.302 327.145 260.216C327.145 258.896 327.645 257.872 328.645 257.146C329.652 256.411 331.066 256.044 332.887 256.044H334.996V255.048C334.996 254.29 334.77 253.689 334.316 253.243C333.863 252.79 333.195 252.564 332.312 252.564C331.539 252.564 330.891 252.759 330.367 253.15C329.844 253.54 329.582 254.013 329.582 254.568H327.402C327.402 253.935 327.625 253.325 328.07 252.74C328.523 252.146 329.133 251.677 329.898 251.333C330.672 250.99 331.52 250.818 332.441 250.818C333.902 250.818 335.047 251.185 335.875 251.919C336.703 252.646 337.133 253.65 337.164 254.931V260.767C337.164 261.931 337.312 262.857 337.609 263.544V263.732H335.336ZM331.738 262.079C332.418 262.079 333.062 261.904 333.672 261.552C334.281 261.2 334.723 260.743 334.996 260.181V257.579H333.297C330.641 257.579 329.312 258.357 329.312 259.911C329.312 260.591 329.539 261.122 329.992 261.505C330.445 261.888 331.027 262.079 331.738 262.079ZM351.273 257.532C351.273 259.462 350.832 261.017 349.949 262.197C349.066 263.376 347.871 263.966 346.363 263.966C344.824 263.966 343.613 263.478 342.73 262.501V268.607H340.562V251.052H342.543L342.648 252.458C343.531 251.365 344.758 250.818 346.328 250.818C347.852 250.818 349.055 251.392 349.938 252.54C350.828 253.689 351.273 255.286 351.273 257.333V257.532ZM349.105 257.286C349.105 255.857 348.801 254.728 348.191 253.9C347.582 253.072 346.746 252.657 345.684 252.657C344.371 252.657 343.387 253.24 342.73 254.404V260.462C343.379 261.618 344.371 262.197 345.707 262.197C346.746 262.197 347.57 261.786 348.18 260.966C348.797 260.138 349.105 258.911 349.105 257.286ZM359.301 263.966C357.582 263.966 356.184 263.404 355.105 262.279C354.027 261.146 353.488 259.634 353.488 257.743V257.345C353.488 256.087 353.727 254.966 354.203 253.982C354.688 252.99 355.359 252.216 356.219 251.661C357.086 251.099 358.023 250.818 359.031 250.818C360.68 250.818 361.961 251.361 362.875 252.447C363.789 253.532 364.246 255.087 364.246 257.111V258.013H355.656C355.688 259.263 356.051 260.275 356.746 261.048C357.449 261.814 358.34 262.197 359.418 262.197C360.184 262.197 360.832 262.04 361.363 261.728C361.895 261.415 362.359 261.001 362.758 260.486L364.082 261.517C363.02 263.15 361.426 263.966 359.301 263.966ZM359.031 252.599C358.156 252.599 357.422 252.919 356.828 253.56C356.234 254.193 355.867 255.083 355.727 256.232H362.078V256.068C362.016 254.966 361.719 254.115 361.188 253.513C360.656 252.904 359.938 252.599 359.031 252.599ZM366.238 257.286C366.238 255.341 366.699 253.779 367.621 252.599C368.543 251.411 369.75 250.818 371.242 250.818C372.727 250.818 373.902 251.325 374.77 252.341V245.732H376.938V263.732H374.945L374.84 262.372C373.973 263.435 372.766 263.966 371.219 263.966C369.75 263.966 368.551 263.365 367.621 262.161C366.699 260.958 366.238 259.388 366.238 257.45V257.286ZM368.406 257.532C368.406 258.97 368.703 260.095 369.297 260.907C369.891 261.72 370.711 262.126 371.758 262.126C373.133 262.126 374.137 261.509 374.77 260.275V254.45C374.121 253.255 373.125 252.657 371.781 252.657C370.719 252.657 369.891 253.068 369.297 253.888C368.703 254.708 368.406 255.923 368.406 257.532ZM385.316 256.923C385.316 258.665 385.086 260.337 384.625 261.939C384.172 263.532 383.473 265.005 382.527 266.357C381.59 267.708 380.605 268.669 379.574 269.24L379.117 267.915C380.32 266.993 381.285 265.564 382.012 263.626C382.746 261.681 383.121 259.525 383.137 257.157V256.782C383.137 255.142 382.965 253.618 382.621 252.212C382.277 250.798 381.797 249.532 381.18 248.415C380.57 247.298 379.883 246.427 379.117 245.802L379.574 244.478C380.605 245.048 381.586 246.001 382.516 247.337C383.453 248.673 384.152 250.146 384.613 251.755C385.082 253.365 385.316 255.087 385.316 256.923Z" fill="black"/>
<path d="M331.331 190.74H338.195V192.252H333.467V209.868H338.195V211.38H331.331V190.74Z" fill="#A541F8"/>
<path d="M322.587 154.817H325.785L334.339 177.437H331.141L322.587 154.817ZM341.479 154.869H349.149V156.897H344.391V175.201H349.149V177.229H341.479V154.869Z" fill="#A541F8"/>
<rect x="620" y="138" width="130" height="150" fill="#FFFAF5"/>
<path d="M641.77 198.009H636.285V213.219H634.047V198.009H628.574V196.157H641.77V198.009ZM646.129 202.075C647.09 200.895 648.34 200.305 649.879 200.305C652.559 200.305 653.91 201.817 653.934 204.841V213.219H651.766V204.829C651.758 203.915 651.547 203.239 651.133 202.802C650.727 202.364 650.09 202.145 649.223 202.145C648.52 202.145 647.902 202.333 647.371 202.708C646.84 203.083 646.426 203.575 646.129 204.184V213.219H643.961V195.219H646.129V202.075ZM662.441 213.454C660.723 213.454 659.324 212.891 658.246 211.766C657.168 210.634 656.629 209.122 656.629 207.231V206.833C656.629 205.575 656.867 204.454 657.344 203.469C657.828 202.477 658.5 201.704 659.359 201.149C660.227 200.587 661.164 200.305 662.172 200.305C663.82 200.305 665.102 200.848 666.016 201.934C666.93 203.02 667.387 204.575 667.387 206.598V207.501H658.797C658.828 208.751 659.191 209.762 659.887 210.536C660.59 211.302 661.48 211.684 662.559 211.684C663.324 211.684 663.973 211.528 664.504 211.216C665.035 210.903 665.5 210.489 665.898 209.973L667.223 211.005C666.16 212.637 664.566 213.454 662.441 213.454ZM662.172 202.087C661.297 202.087 660.562 202.407 659.969 203.048C659.375 203.68 659.008 204.571 658.867 205.719H665.219V205.555C665.156 204.454 664.859 203.602 664.328 203.001C663.797 202.391 663.078 202.087 662.172 202.087ZM634.727 239.684C635.5 239.684 636.176 239.45 636.754 238.981C637.332 238.512 637.652 237.927 637.715 237.223H639.766C639.727 237.95 639.477 238.641 639.016 239.298C638.555 239.954 637.938 240.477 637.164 240.868C636.398 241.259 635.586 241.454 634.727 241.454C633 241.454 631.625 240.88 630.602 239.731C629.586 238.575 629.078 236.997 629.078 234.997V234.634C629.078 233.399 629.305 232.302 629.758 231.341C630.211 230.38 630.859 229.634 631.703 229.102C632.555 228.571 633.559 228.305 634.715 228.305C636.137 228.305 637.316 228.731 638.254 229.583C639.199 230.434 639.703 231.54 639.766 232.899H637.715C637.652 232.079 637.34 231.407 636.777 230.884C636.223 230.352 635.535 230.087 634.715 230.087C633.613 230.087 632.758 230.485 632.148 231.282C631.547 232.071 631.246 233.216 631.246 234.716V235.126C631.246 236.587 631.547 237.712 632.148 238.501C632.75 239.29 633.609 239.684 634.727 239.684ZM644.371 230.075C645.332 228.895 646.582 228.305 648.121 228.305C650.801 228.305 652.152 229.817 652.176 232.841V241.219H650.008V232.829C650 231.915 649.789 231.239 649.375 230.802C648.969 230.364 648.332 230.145 647.465 230.145C646.762 230.145 646.145 230.333 645.613 230.708C645.082 231.083 644.668 231.575 644.371 232.184V241.219H642.203V223.219H644.371V230.075ZM663.25 241.219C663.125 240.969 663.023 240.524 662.945 239.884C661.938 240.93 660.734 241.454 659.336 241.454C658.086 241.454 657.059 241.102 656.254 240.399C655.457 239.688 655.059 238.79 655.059 237.704C655.059 236.384 655.559 235.36 656.559 234.634C657.566 233.899 658.98 233.532 660.801 233.532H662.91V232.536C662.91 231.778 662.684 231.177 662.23 230.731C661.777 230.278 661.109 230.052 660.227 230.052C659.453 230.052 658.805 230.247 658.281 230.637C657.758 231.028 657.496 231.501 657.496 232.055H655.316C655.316 231.423 655.539 230.813 655.984 230.227C656.438 229.634 657.047 229.165 657.812 228.821C658.586 228.477 659.434 228.305 660.355 228.305C661.816 228.305 662.961 228.673 663.789 229.407C664.617 230.134 665.047 231.137 665.078 232.419V238.255C665.078 239.419 665.227 240.344 665.523 241.032V241.219H663.25ZM659.652 239.567C660.332 239.567 660.977 239.391 661.586 239.04C662.195 238.688 662.637 238.231 662.91 237.669V235.067H661.211C658.555 235.067 657.227 235.844 657.227 237.399C657.227 238.079 657.453 238.61 657.906 238.993C658.359 239.376 658.941 239.567 659.652 239.567ZM674.605 230.485C674.277 230.43 673.922 230.403 673.539 230.403C672.117 230.403 671.152 231.009 670.645 232.219V241.219H668.477V228.54H670.586L670.621 230.005C671.332 228.872 672.34 228.305 673.645 228.305C674.066 228.305 674.387 228.36 674.605 228.469V230.485ZM683.969 241.219C683.844 240.969 683.742 240.524 683.664 239.884C682.656 240.93 681.453 241.454 680.055 241.454C678.805 241.454 677.777 241.102 676.973 240.399C676.176 239.688 675.777 238.79 675.777 237.704C675.777 236.384 676.277 235.36 677.277 234.634C678.285 233.899 679.699 233.532 681.52 233.532H683.629V232.536C683.629 231.778 683.402 231.177 682.949 230.731C682.496 230.278 681.828 230.052 680.945 230.052C680.172 230.052 679.523 230.247 679 230.637C678.477 231.028 678.215 231.501 678.215 232.055H676.035C676.035 231.423 676.258 230.813 676.703 230.227C677.156 229.634 677.766 229.165 678.531 228.821C679.305 228.477 680.152 228.305 681.074 228.305C682.535 228.305 683.68 228.673 684.508 229.407C685.336 230.134 685.766 231.137 685.797 232.419V238.255C685.797 239.419 685.945 240.344 686.242 241.032V241.219H683.969ZM680.371 239.567C681.051 239.567 681.695 239.391 682.305 239.04C682.914 238.688 683.355 238.231 683.629 237.669V235.067H681.93C679.273 235.067 677.945 235.844 677.945 237.399C677.945 238.079 678.172 238.61 678.625 238.993C679.078 239.376 679.66 239.567 680.371 239.567ZM694.281 239.684C695.055 239.684 695.73 239.45 696.309 238.981C696.887 238.512 697.207 237.927 697.27 237.223H699.32C699.281 237.95 699.031 238.641 698.57 239.298C698.109 239.954 697.492 240.477 696.719 240.868C695.953 241.259 695.141 241.454 694.281 241.454C692.555 241.454 691.18 240.88 690.156 239.731C689.141 238.575 688.633 236.997 688.633 234.997V234.634C688.633 233.399 688.859 232.302 689.312 231.341C689.766 230.38 690.414 229.634 691.258 229.102C692.109 228.571 693.113 228.305 694.27 228.305C695.691 228.305 696.871 228.731 697.809 229.583C698.754 230.434 699.258 231.54 699.32 232.899H697.27C697.207 232.079 696.895 231.407 696.332 230.884C695.777 230.352 695.09 230.087 694.27 230.087C693.168 230.087 692.312 230.485 691.703 231.282C691.102 232.071 690.801 233.216 690.801 234.716V235.126C690.801 236.587 691.102 237.712 691.703 238.501C692.305 239.29 693.164 239.684 694.281 239.684ZM704.699 225.469V228.54H707.066V230.216H704.699V238.079C704.699 238.587 704.805 238.969 705.016 239.227C705.227 239.477 705.586 239.602 706.094 239.602C706.344 239.602 706.688 239.555 707.125 239.462V241.219C706.555 241.376 706 241.454 705.461 241.454C704.492 241.454 703.762 241.161 703.27 240.575C702.777 239.989 702.531 239.157 702.531 238.079V230.216H700.223V228.54H702.531V225.469H704.699ZM714.871 241.454C713.152 241.454 711.754 240.891 710.676 239.766C709.598 238.634 709.059 237.122 709.059 235.231V234.833C709.059 233.575 709.297 232.454 709.773 231.469C710.258 230.477 710.93 229.704 711.789 229.149C712.656 228.587 713.594 228.305 714.602 228.305C716.25 228.305 717.531 228.848 718.445 229.934C719.359 231.02 719.816 232.575 719.816 234.598V235.501H711.227C711.258 236.751 711.621 237.762 712.316 238.536C713.02 239.302 713.91 239.684 714.988 239.684C715.754 239.684 716.402 239.528 716.934 239.216C717.465 238.903 717.93 238.489 718.328 237.973L719.652 239.005C718.59 240.637 716.996 241.454 714.871 241.454ZM714.602 230.087C713.727 230.087 712.992 230.407 712.398 231.048C711.805 231.68 711.438 232.571 711.297 233.719H717.648V233.555C717.586 232.454 717.289 231.602 716.758 231.001C716.227 230.391 715.508 230.087 714.602 230.087ZM728.465 230.485C728.137 230.43 727.781 230.403 727.398 230.403C725.977 230.403 725.012 231.009 724.504 232.219V241.219H722.336V228.54H724.445L724.48 230.005C725.191 228.872 726.199 228.305 727.504 228.305C727.926 228.305 728.246 228.36 728.465 228.469V230.485ZM629.559 262.294C629.559 260.528 629.793 258.833 630.262 257.208C630.738 255.583 631.445 254.106 632.383 252.778C633.32 251.45 634.293 250.512 635.301 249.966L635.746 251.395C634.605 252.27 633.668 253.606 632.934 255.403C632.207 257.2 631.809 259.212 631.738 261.438L631.727 262.434C631.727 265.45 632.277 268.067 633.379 270.286C634.043 271.614 634.832 272.653 635.746 273.403L635.301 274.727C634.262 274.149 633.27 273.18 632.324 271.821C630.48 269.165 629.559 265.989 629.559 262.294ZM643.105 269.454C641.387 269.454 639.988 268.891 638.91 267.766C637.832 266.634 637.293 265.122 637.293 263.231V262.833C637.293 261.575 637.531 260.454 638.008 259.469C638.492 258.477 639.164 257.704 640.023 257.149C640.891 256.587 641.828 256.305 642.836 256.305C644.484 256.305 645.766 256.848 646.68 257.934C647.594 259.02 648.051 260.575 648.051 262.598V263.501H639.461C639.492 264.751 639.855 265.762 640.551 266.536C641.254 267.302 642.145 267.684 643.223 267.684C643.988 267.684 644.637 267.528 645.168 267.216C645.699 266.903 646.164 266.489 646.562 265.973L647.887 267.005C646.824 268.637 645.23 269.454 643.105 269.454ZM642.836 258.087C641.961 258.087 641.227 258.407 640.633 259.048C640.039 259.68 639.672 260.571 639.531 261.719H645.883V261.555C645.82 260.454 645.523 259.602 644.992 259.001C644.461 258.391 643.742 258.087 642.836 258.087ZM657.953 265.856C657.953 265.27 657.73 264.817 657.285 264.497C656.848 264.169 656.078 263.887 654.977 263.653C653.883 263.419 653.012 263.137 652.363 262.809C651.723 262.481 651.246 262.091 650.934 261.637C650.629 261.184 650.477 260.645 650.477 260.02C650.477 258.981 650.914 258.102 651.789 257.384C652.672 256.665 653.797 256.305 655.164 256.305C656.602 256.305 657.766 256.677 658.656 257.419C659.555 258.161 660.004 259.11 660.004 260.266H657.824C657.824 259.673 657.57 259.161 657.062 258.731C656.562 258.302 655.93 258.087 655.164 258.087C654.375 258.087 653.758 258.259 653.312 258.602C652.867 258.946 652.645 259.395 652.645 259.95C652.645 260.473 652.852 260.868 653.266 261.134C653.68 261.399 654.426 261.653 655.504 261.895C656.59 262.137 657.469 262.427 658.141 262.762C658.812 263.098 659.309 263.505 659.629 263.981C659.957 264.45 660.121 265.024 660.121 265.704C660.121 266.837 659.668 267.747 658.762 268.434C657.855 269.114 656.68 269.454 655.234 269.454C654.219 269.454 653.32 269.274 652.539 268.915C651.758 268.555 651.145 268.055 650.699 267.415C650.262 266.766 650.043 266.067 650.043 265.317H652.211C652.25 266.044 652.539 266.622 653.078 267.052C653.625 267.473 654.344 267.684 655.234 267.684C656.055 267.684 656.711 267.52 657.203 267.192C657.703 266.856 657.953 266.411 657.953 265.856ZM668.031 267.684C668.805 267.684 669.48 267.45 670.059 266.981C670.637 266.512 670.957 265.927 671.02 265.223H673.07C673.031 265.95 672.781 266.641 672.32 267.298C671.859 267.954 671.242 268.477 670.469 268.868C669.703 269.259 668.891 269.454 668.031 269.454C666.305 269.454 664.93 268.88 663.906 267.731C662.891 266.575 662.383 264.997 662.383 262.997V262.634C662.383 261.399 662.609 260.302 663.062 259.341C663.516 258.38 664.164 257.634 665.008 257.102C665.859 256.571 666.863 256.305 668.02 256.305C669.441 256.305 670.621 256.731 671.559 257.583C672.504 258.434 673.008 259.54 673.07 260.899H671.02C670.957 260.079 670.645 259.407 670.082 258.884C669.527 258.352 668.84 258.087 668.02 258.087C666.918 258.087 666.062 258.485 665.453 259.282C664.852 260.071 664.551 261.216 664.551 262.716V263.126C664.551 264.587 664.852 265.712 665.453 266.501C666.055 267.29 666.914 267.684 668.031 267.684ZM683.336 269.219C683.211 268.969 683.109 268.524 683.031 267.884C682.023 268.93 680.82 269.454 679.422 269.454C678.172 269.454 677.145 269.102 676.34 268.399C675.543 267.688 675.145 266.79 675.145 265.704C675.145 264.384 675.645 263.36 676.645 262.634C677.652 261.899 679.066 261.532 680.887 261.532H682.996V260.536C682.996 259.778 682.77 259.177 682.316 258.731C681.863 258.278 681.195 258.052 680.312 258.052C679.539 258.052 678.891 258.247 678.367 258.637C677.844 259.028 677.582 259.501 677.582 260.055H675.402C675.402 259.423 675.625 258.813 676.07 258.227C676.523 257.634 677.133 257.165 677.898 256.821C678.672 256.477 679.52 256.305 680.441 256.305C681.902 256.305 683.047 256.673 683.875 257.407C684.703 258.134 685.133 259.137 685.164 260.419V266.255C685.164 267.419 685.312 268.344 685.609 269.032V269.219H683.336ZM679.738 267.567C680.418 267.567 681.062 267.391 681.672 267.04C682.281 266.688 682.723 266.231 682.996 265.669V263.067H681.297C678.641 263.067 677.312 263.844 677.312 265.399C677.312 266.079 677.539 266.61 677.992 266.993C678.445 267.376 679.027 267.567 679.738 267.567ZM699.273 263.02C699.273 264.95 698.832 266.505 697.949 267.684C697.066 268.864 695.871 269.454 694.363 269.454C692.824 269.454 691.613 268.966 690.73 267.989V274.094H688.562V256.54H690.543L690.648 257.946C691.531 256.852 692.758 256.305 694.328 256.305C695.852 256.305 697.055 256.88 697.938 258.028C698.828 259.177 699.273 260.774 699.273 262.821V263.02ZM697.105 262.774C697.105 261.344 696.801 260.216 696.191 259.387C695.582 258.559 694.746 258.145 693.684 258.145C692.371 258.145 691.387 258.727 690.73 259.891V265.95C691.379 267.106 692.371 267.684 693.707 267.684C694.746 267.684 695.57 267.274 696.18 266.454C696.797 265.626 697.105 264.399 697.105 262.774ZM707.301 269.454C705.582 269.454 704.184 268.891 703.105 267.766C702.027 266.634 701.488 265.122 701.488 263.231V262.833C701.488 261.575 701.727 260.454 702.203 259.469C702.688 258.477 703.359 257.704 704.219 257.149C705.086 256.587 706.023 256.305 707.031 256.305C708.68 256.305 709.961 256.848 710.875 257.934C711.789 259.02 712.246 260.575 712.246 262.598V263.501H703.656C703.688 264.751 704.051 265.762 704.746 266.536C705.449 267.302 706.34 267.684 707.418 267.684C708.184 267.684 708.832 267.528 709.363 267.216C709.895 266.903 710.359 266.489 710.758 265.973L712.082 267.005C711.02 268.637 709.426 269.454 707.301 269.454ZM707.031 258.087C706.156 258.087 705.422 258.407 704.828 259.048C704.234 259.68 703.867 260.571 703.727 261.719H710.078V261.555C710.016 260.454 709.719 259.602 709.188 259.001C708.656 258.391 707.938 258.087 707.031 258.087ZM714.238 262.774C714.238 260.829 714.699 259.266 715.621 258.087C716.543 256.899 717.75 256.305 719.242 256.305C720.727 256.305 721.902 256.813 722.77 257.829V251.219H724.938V269.219H722.945L722.84 267.86C721.973 268.923 720.766 269.454 719.219 269.454C717.75 269.454 716.551 268.852 715.621 267.649C714.699 266.446 714.238 264.876 714.238 262.938V262.774ZM716.406 263.02C716.406 264.458 716.703 265.583 717.297 266.395C717.891 267.208 718.711 267.614 719.758 267.614C721.133 267.614 722.137 266.997 722.77 265.762V259.938C722.121 258.743 721.125 258.145 719.781 258.145C718.719 258.145 717.891 258.555 717.297 259.376C716.703 260.196 716.406 261.411 716.406 263.02ZM733.316 262.411C733.316 264.153 733.086 265.825 732.625 267.427C732.172 269.02 731.473 270.493 730.527 271.844C729.59 273.196 728.605 274.157 727.574 274.727L727.117 273.403C728.32 272.481 729.285 271.052 730.012 269.114C730.746 267.169 731.121 265.012 731.137 262.645V262.27C731.137 260.63 730.965 259.106 730.621 257.7C730.277 256.286 729.797 255.02 729.18 253.903C728.57 252.786 727.883 251.915 727.117 251.29L727.574 249.966C728.605 250.536 729.586 251.489 730.516 252.825C731.453 254.161 732.152 255.634 732.613 257.243C733.082 258.852 733.316 260.575 733.316 262.411Z" fill="black"/>
<path d="M681.371 215.355V197.739H676.667V196.227H683.531V216.867H676.667V215.355H681.371Z" fill="#A541F8"/>
<path d="M670.587 156.273H673.785L682.339 178.893H679.141L670.587 156.273ZM691.715 176.657V158.353H686.983V156.325H694.653V178.685H686.983V176.657H691.715Z" fill="#A541F8"/>
<rect x="446" y="138" width="130" height="150" fill="#FFFAF5"/>
<path d="M477.77 196.009H472.285V211.219H470.047V196.009H464.574V194.157H477.77V196.009ZM482.129 200.075C483.09 198.895 484.34 198.305 485.879 198.305C488.559 198.305 489.91 199.817 489.934 202.841V211.219H487.766V202.829C487.758 201.915 487.547 201.239 487.133 200.802C486.727 200.364 486.09 200.145 485.223 200.145C484.52 200.145 483.902 200.333 483.371 200.708C482.84 201.083 482.426 201.575 482.129 202.184V211.219H479.961V193.219H482.129V200.075ZM498.441 211.454C496.723 211.454 495.324 210.891 494.246 209.766C493.168 208.634 492.629 207.122 492.629 205.231V204.833C492.629 203.575 492.867 202.454 493.344 201.469C493.828 200.477 494.5 199.704 495.359 199.149C496.227 198.587 497.164 198.305 498.172 198.305C499.82 198.305 501.102 198.848 502.016 199.934C502.93 201.02 503.387 202.575 503.387 204.598V205.501H494.797C494.828 206.751 495.191 207.762 495.887 208.536C496.59 209.302 497.48 209.684 498.559 209.684C499.324 209.684 499.973 209.528 500.504 209.216C501.035 208.903 501.5 208.489 501.898 207.973L503.223 209.005C502.16 210.637 500.566 211.454 498.441 211.454ZM498.172 200.087C497.297 200.087 496.562 200.407 495.969 201.048C495.375 201.68 495.008 202.571 494.867 203.719H501.219V203.555C501.156 202.454 500.859 201.602 500.328 201.001C499.797 200.391 499.078 200.087 498.172 200.087ZM473.023 235.856C473.023 235.27 472.801 234.817 472.355 234.497C471.918 234.169 471.148 233.887 470.047 233.653C468.953 233.419 468.082 233.137 467.434 232.809C466.793 232.481 466.316 232.091 466.004 231.637C465.699 231.184 465.547 230.645 465.547 230.02C465.547 228.981 465.984 228.102 466.859 227.384C467.742 226.665 468.867 226.305 470.234 226.305C471.672 226.305 472.836 226.677 473.727 227.419C474.625 228.161 475.074 229.11 475.074 230.266H472.895C472.895 229.673 472.641 229.161 472.133 228.731C471.633 228.302 471 228.087 470.234 228.087C469.445 228.087 468.828 228.259 468.383 228.602C467.938 228.946 467.715 229.395 467.715 229.95C467.715 230.473 467.922 230.868 468.336 231.134C468.75 231.399 469.496 231.653 470.574 231.895C471.66 232.137 472.539 232.427 473.211 232.762C473.883 233.098 474.379 233.505 474.699 233.981C475.027 234.45 475.191 235.024 475.191 235.704C475.191 236.837 474.738 237.747 473.832 238.434C472.926 239.114 471.75 239.454 470.305 239.454C469.289 239.454 468.391 239.274 467.609 238.915C466.828 238.555 466.215 238.055 465.77 237.415C465.332 236.766 465.113 236.067 465.113 235.317H467.281C467.32 236.044 467.609 236.622 468.148 237.052C468.695 237.473 469.414 237.684 470.305 237.684C471.125 237.684 471.781 237.52 472.273 237.192C472.773 236.856 473.023 236.411 473.023 235.856ZM485.844 237.966C485 238.958 483.762 239.454 482.129 239.454C480.777 239.454 479.746 239.063 479.035 238.282C478.332 237.493 477.977 236.329 477.969 234.79V226.54H480.137V234.731C480.137 236.653 480.918 237.614 482.48 237.614C484.137 237.614 485.238 236.997 485.785 235.762V226.54H487.953V239.219H485.891L485.844 237.966ZM501.992 233.02C501.992 234.958 501.547 236.516 500.656 237.696C499.766 238.868 498.57 239.454 497.07 239.454C495.469 239.454 494.23 238.887 493.355 237.755L493.25 239.219H491.258V221.219H493.426V227.934C494.301 226.848 495.508 226.305 497.047 226.305C498.586 226.305 499.793 226.887 500.668 228.052C501.551 229.216 501.992 230.809 501.992 232.833V233.02ZM499.824 232.774C499.824 231.298 499.539 230.157 498.969 229.352C498.398 228.548 497.578 228.145 496.508 228.145C495.078 228.145 494.051 228.809 493.426 230.137V235.622C494.09 236.95 495.125 237.614 496.531 237.614C497.57 237.614 498.379 237.212 498.957 236.407C499.535 235.602 499.824 234.391 499.824 232.774ZM512.117 235.856C512.117 235.27 511.895 234.817 511.449 234.497C511.012 234.169 510.242 233.887 509.141 233.653C508.047 233.419 507.176 233.137 506.527 232.809C505.887 232.481 505.41 232.091 505.098 231.637C504.793 231.184 504.641 230.645 504.641 230.02C504.641 228.981 505.078 228.102 505.953 227.384C506.836 226.665 507.961 226.305 509.328 226.305C510.766 226.305 511.93 226.677 512.82 227.419C513.719 228.161 514.168 229.11 514.168 230.266H511.988C511.988 229.673 511.734 229.161 511.227 228.731C510.727 228.302 510.094 228.087 509.328 228.087C508.539 228.087 507.922 228.259 507.477 228.602C507.031 228.946 506.809 229.395 506.809 229.95C506.809 230.473 507.016 230.868 507.43 231.134C507.844 231.399 508.59 231.653 509.668 231.895C510.754 232.137 511.633 232.427 512.305 232.762C512.977 233.098 513.473 233.505 513.793 233.981C514.121 234.45 514.285 235.024 514.285 235.704C514.285 236.837 513.832 237.747 512.926 238.434C512.02 239.114 510.844 239.454 509.398 239.454C508.383 239.454 507.484 239.274 506.703 238.915C505.922 238.555 505.309 238.055 504.863 237.415C504.426 236.766 504.207 236.067 504.207 235.317H506.375C506.414 236.044 506.703 236.622 507.242 237.052C507.789 237.473 508.508 237.684 509.398 237.684C510.219 237.684 510.875 237.52 511.367 237.192C511.867 236.856 512.117 236.411 512.117 235.856ZM520.051 223.469V226.54H522.418V228.216H520.051V236.079C520.051 236.587 520.156 236.969 520.367 237.227C520.578 237.477 520.938 237.602 521.445 237.602C521.695 237.602 522.039 237.555 522.477 237.462V239.219C521.906 239.376 521.352 239.454 520.812 239.454C519.844 239.454 519.113 239.161 518.621 238.575C518.129 237.989 517.883 237.157 517.883 236.079V228.216H515.574V226.54H517.883V223.469H520.051ZM531.09 228.485C530.762 228.43 530.406 228.403 530.023 228.403C528.602 228.403 527.637 229.009 527.129 230.219V239.219H524.961V226.54H527.07L527.105 228.005C527.816 226.872 528.824 226.305 530.129 226.305C530.551 226.305 530.871 226.36 531.09 226.469V228.485ZM535.449 239.219H533.281V226.54H535.449V239.219ZM533.105 223.177C533.105 222.825 533.211 222.528 533.422 222.286C533.641 222.044 533.961 221.923 534.383 221.923C534.805 221.923 535.125 222.044 535.344 222.286C535.562 222.528 535.672 222.825 535.672 223.177C535.672 223.528 535.562 223.821 535.344 224.055C535.125 224.29 534.805 224.407 534.383 224.407C533.961 224.407 533.641 224.29 533.422 224.055C533.211 223.821 533.105 223.528 533.105 223.177ZM540.98 226.54L541.051 228.134C542.02 226.915 543.285 226.305 544.848 226.305C547.527 226.305 548.879 227.817 548.902 230.841V239.219H546.734V230.829C546.727 229.915 546.516 229.239 546.102 228.802C545.695 228.364 545.059 228.145 544.191 228.145C543.488 228.145 542.871 228.333 542.34 228.708C541.809 229.083 541.395 229.575 541.098 230.184V239.219H538.93V226.54H540.98ZM551.656 232.774C551.656 230.798 552.113 229.227 553.027 228.063C553.941 226.891 555.152 226.305 556.66 226.305C558.207 226.305 559.414 226.852 560.281 227.946L560.387 226.54H562.367V238.915C562.367 240.555 561.879 241.848 560.902 242.794C559.934 243.739 558.629 244.212 556.988 244.212C556.074 244.212 555.18 244.016 554.305 243.626C553.43 243.235 552.762 242.7 552.301 242.02L553.426 240.719C554.355 241.868 555.492 242.442 556.836 242.442C557.891 242.442 558.711 242.145 559.297 241.552C559.891 240.958 560.188 240.122 560.188 239.044V237.954C559.32 238.954 558.137 239.454 556.637 239.454C555.152 239.454 553.949 238.856 553.027 237.661C552.113 236.466 551.656 234.837 551.656 232.774ZM553.836 233.02C553.836 234.45 554.129 235.575 554.715 236.395C555.301 237.208 556.121 237.614 557.176 237.614C558.543 237.614 559.547 236.993 560.188 235.751V229.962C559.523 228.751 558.527 228.145 557.199 228.145C556.145 228.145 555.32 228.555 554.727 229.376C554.133 230.196 553.836 231.411 553.836 233.02Z" fill="black"/>
<path d="M468.752 270.179V273.875H465.968V257.435H468.248L468.464 258.779H468.536C469.048 258.315 469.632 257.931 470.288 257.627C470.96 257.307 471.632 257.147 472.304 257.147C473.072 257.147 473.752 257.291 474.344 257.579C474.952 257.851 475.456 258.251 475.856 258.779C476.272 259.307 476.584 259.939 476.792 260.675C477.016 261.411 477.128 262.235 477.128 263.147C477.128 264.155 476.984 265.059 476.696 265.859C476.408 266.643 476.016 267.307 475.52 267.851C475.04 268.379 474.48 268.787 473.84 269.075C473.216 269.363 472.568 269.507 471.896 269.507C471.352 269.507 470.792 269.387 470.216 269.147C469.656 268.907 469.136 268.563 468.656 268.115L468.752 270.179ZM468.752 266.147C469.184 266.547 469.624 266.827 470.072 266.987C470.536 267.147 470.952 267.227 471.32 267.227C472.168 267.227 472.872 266.891 473.432 266.219C473.992 265.531 474.272 264.515 474.272 263.171C474.272 261.987 474.056 261.067 473.624 260.411C473.192 259.755 472.496 259.427 471.536 259.427C471.088 259.427 470.632 259.539 470.168 259.763C469.704 259.987 469.232 260.347 468.752 260.843V266.147ZM479.663 263.339C479.663 262.379 479.807 261.515 480.095 260.747C480.383 259.979 480.767 259.331 481.247 258.803C481.743 258.275 482.303 257.867 482.927 257.579C483.551 257.291 484.199 257.147 484.871 257.147C485.575 257.147 486.175 257.275 486.671 257.531C487.183 257.771 487.679 258.107 488.159 258.539L488.039 256.547V252.275H490.823V269.219H488.543L488.327 267.851H488.255C487.791 268.315 487.247 268.707 486.623 269.027C486.015 269.347 485.375 269.507 484.703 269.507C483.951 269.507 483.263 269.371 482.639 269.099C482.015 268.811 481.479 268.403 481.031 267.875C480.599 267.347 480.263 266.707 480.023 265.955C479.783 265.187 479.663 264.315 479.663 263.339ZM482.519 263.315C482.519 264.595 482.767 265.571 483.263 266.243C483.759 266.899 484.463 267.227 485.375 267.227C486.351 267.227 487.239 266.755 488.039 265.811V260.507C487.623 260.107 487.207 259.827 486.791 259.667C486.375 259.507 485.951 259.427 485.519 259.427C485.103 259.427 484.711 259.515 484.343 259.691C483.991 259.867 483.679 260.123 483.407 260.459C483.135 260.779 482.919 261.179 482.759 261.659C482.599 262.139 482.519 262.691 482.519 263.315ZM506.173 254.675C505.741 254.499 505.317 254.371 504.901 254.291C504.501 254.211 504.061 254.171 503.581 254.171C502.669 254.171 502.005 254.395 501.589 254.843C501.189 255.275 500.989 255.907 500.989 256.739V257.435H505.477V259.619H500.989V269.219H498.253V259.619H494.989V257.555L498.253 257.435V256.787C498.253 256.099 498.349 255.459 498.541 254.867C498.733 254.275 499.029 253.771 499.429 253.355C499.845 252.923 500.365 252.587 500.989 252.347C501.629 252.107 502.381 251.987 503.245 251.987C503.885 251.987 504.493 252.043 505.069 252.155C505.661 252.267 506.221 252.427 506.749 252.635L506.173 254.675Z" fill="#B82629"/>
<path d="M492.562 174.291V178.061H488.74V160.381H491.86L492.146 161.681H492.224C492.744 161.213 493.342 160.832 494.018 160.537C494.694 160.225 495.379 160.069 496.072 160.069C496.869 160.069 497.589 160.225 498.23 160.537C498.871 160.849 499.417 161.291 499.868 161.863C500.319 162.435 500.657 163.128 500.882 163.943C501.125 164.74 501.246 165.633 501.246 166.621C501.246 167.73 501.09 168.718 500.778 169.585C500.466 170.434 500.05 171.162 499.53 171.769C499.01 172.358 498.412 172.809 497.736 173.121C497.077 173.433 496.384 173.589 495.656 173.589C494.477 173.589 493.403 173.121 492.432 172.185L492.562 174.291ZM492.562 169.611C492.926 169.923 493.299 170.148 493.68 170.287C494.079 170.408 494.443 170.469 494.772 170.469C495.5 170.469 496.107 170.174 496.592 169.585C497.077 168.978 497.32 168.008 497.32 166.673C497.32 164.35 496.531 163.189 494.954 163.189C494.139 163.189 493.342 163.588 492.562 164.385V169.611ZM503.68 166.829C503.68 165.772 503.836 164.827 504.148 163.995C504.46 163.163 504.867 162.461 505.37 161.889C505.89 161.3 506.479 160.849 507.138 160.537C507.797 160.225 508.481 160.069 509.192 160.069C509.937 160.069 510.561 160.199 511.064 160.459C511.567 160.702 512.043 161.031 512.494 161.447L512.364 159.445V155.051H516.186V173.277H513.066L512.78 171.951H512.702C512.217 172.419 511.662 172.809 511.038 173.121C510.414 173.433 509.773 173.589 509.114 173.589C508.299 173.589 507.554 173.433 506.878 173.121C506.219 172.809 505.647 172.367 505.162 171.795C504.694 171.206 504.33 170.495 504.07 169.663C503.81 168.831 503.68 167.886 503.68 166.829ZM507.606 166.777C507.606 168.06 507.823 168.996 508.256 169.585C508.689 170.174 509.305 170.469 510.102 170.469C510.535 170.469 510.934 170.382 511.298 170.209C511.662 170.018 512.017 169.706 512.364 169.273V164.047C512.017 163.735 511.662 163.518 511.298 163.397C510.951 163.258 510.587 163.189 510.206 163.189C509.495 163.189 508.88 163.484 508.36 164.073C507.857 164.662 507.606 165.564 507.606 166.777ZM532.53 158.249C531.68 157.92 530.779 157.755 529.826 157.755C528.994 157.755 528.378 157.937 527.98 158.301C527.598 158.665 527.408 159.237 527.408 160.017V160.381H531.854V163.371H527.408V173.277H523.586V163.371H520.18V160.537L523.586 160.381V160.043C523.586 159.298 523.698 158.604 523.924 157.963C524.149 157.322 524.496 156.767 524.964 156.299C525.432 155.814 526.03 155.432 526.758 155.155C527.486 154.878 528.352 154.739 529.358 154.739C530.103 154.739 530.796 154.808 531.438 154.947C532.096 155.086 532.703 155.25 533.258 155.441L532.53 158.249Z" fill="#B82629"/>
<path d="M432 14H581.62V62H432V14Z" fill="#F1F4F8"/>
<path d="M460.026 28.96H462.402L470.298 49.84H467.922L460.026 28.96ZM477.465 29.008H484.329V30.52H479.601V48.136H484.329V49.648H477.465V29.008ZM531.979 28.96H534.355L542.251 49.84H539.875L531.979 28.96ZM551.458 48.136V30.52H546.754V29.008H553.618V49.648H546.754V48.136H551.458Z" fill="#A541F8"/>
<path d="M491.495 46.96V50.656H488.711V34.216H490.991L491.207 35.56H491.279C491.791 35.096 492.375 34.712 493.031 34.408C493.703 34.088 494.375 33.928 495.047 33.928C495.815 33.928 496.495 34.072 497.087 34.36C497.695 34.632 498.199 35.032 498.599 35.56C499.015 36.088 499.327 36.72 499.535 37.456C499.759 38.192 499.871 39.016 499.871 39.928C499.871 40.936 499.727 41.84 499.439 42.64C499.151 43.424 498.759 44.088 498.263 44.632C497.783 45.16 497.223 45.568 496.583 45.856C495.959 46.144 495.311 46.288 494.639 46.288C494.095 46.288 493.535 46.168 492.959 45.928C492.399 45.688 491.879 45.344 491.399 44.896L491.495 46.96ZM491.495 42.928C491.927 43.328 492.367 43.608 492.815 43.768C493.279 43.928 493.695 44.008 494.063 44.008C494.911 44.008 495.615 43.672 496.175 43C496.735 42.312 497.015 41.296 497.015 39.952C497.015 38.768 496.799 37.848 496.367 37.192C495.935 36.536 495.239 36.208 494.279 36.208C493.831 36.208 493.375 36.32 492.911 36.544C492.447 36.768 491.975 37.128 491.495 37.624V42.928ZM502.406 40.12C502.406 39.16 502.55 38.296 502.838 37.528C503.126 36.76 503.51 36.112 503.99 35.584C504.486 35.056 505.046 34.648 505.67 34.36C506.294 34.072 506.942 33.928 507.614 33.928C508.318 33.928 508.918 34.056 509.414 34.312C509.926 34.552 510.422 34.888 510.902 35.32L510.782 33.328V29.056H513.566V46H511.286L511.07 44.632H510.998C510.534 45.096 509.99 45.488 509.366 45.808C508.758 46.128 508.118 46.288 507.446 46.288C506.694 46.288 506.006 46.152 505.382 45.88C504.758 45.592 504.222 45.184 503.774 44.656C503.342 44.128 503.006 43.488 502.766 42.736C502.526 41.968 502.406 41.096 502.406 40.12ZM505.262 40.096C505.262 41.376 505.51 42.352 506.006 43.024C506.502 43.68 507.206 44.008 508.118 44.008C509.094 44.008 509.982 43.536 510.782 42.592V37.288C510.366 36.888 509.95 36.608 509.534 36.448C509.118 36.288 508.694 36.208 508.262 36.208C507.846 36.208 507.454 36.296 507.086 36.472C506.734 36.648 506.422 36.904 506.15 37.24C505.878 37.56 505.662 37.96 505.502 38.44C505.342 38.92 505.262 39.472 505.262 40.096ZM528.916 31.456C528.484 31.28 528.06 31.152 527.644 31.072C527.244 30.992 526.804 30.952 526.324 30.952C525.412 30.952 524.748 31.176 524.332 31.624C523.932 32.056 523.732 32.688 523.732 33.52V34.216H528.22V36.4H523.732V46H520.996V36.4H517.732V34.336L520.996 34.216V33.568C520.996 32.88 521.092 32.24 521.284 31.648C521.476 31.056 521.772 30.552 522.172 30.136C522.588 29.704 523.108 29.368 523.732 29.128C524.372 28.888 525.124 28.768 525.988 28.768C526.628 28.768 527.236 28.824 527.812 28.936C528.404 29.048 528.964 29.208 529.492 29.416L528.916 31.456Z" fill="#B82629"/>
</svg>
