<svg width="1022" height="392" viewBox="0 0 1022 392" fill="none" xmlns="http://www.w3.org/2000/svg">
<rect width="511" height="196" transform="scale(2)" fill="white"/>
<path d="M486.293 134.7C486.684 135.104 487.316 135.125 487.707 134.747L494.067 128.595C494.457 128.218 494.457 127.585 494.067 127.181C493.677 126.778 493.044 126.757 492.654 127.134L487 132.602L481.346 126.757C480.956 126.354 480.323 126.333 479.933 126.71C479.543 127.088 479.543 127.721 479.933 128.124L486.293 134.7ZM486.001 73.95V133.983L487.999 134.05V74.0167L486.001 73.95Z" fill="#828282"/>
<path d="M313.293 134.707C313.683 135.098 314.317 135.098 314.707 134.707L321.071 128.343C321.462 127.953 321.462 127.319 321.071 126.929C320.681 126.538 320.047 126.538 319.657 126.929L314 132.586L308.343 126.929C307.953 126.538 307.319 126.538 306.929 126.929C306.538 127.319 306.538 127.953 306.929 128.343L313.293 134.707ZM313 118V134H315V118H313Z" fill="#828282"/>
<path d="M422 74V88L314 118V134" stroke="#828282"/>
<path d="M662.707 134.707C662.317 135.098 661.683 135.098 661.293 134.707L654.929 128.343C654.538 127.953 654.538 127.319 654.929 126.929C655.319 126.538 655.953 126.538 656.343 126.929L662 132.586L667.657 126.929C668.047 126.538 668.681 126.538 669.071 126.929C669.462 127.319 669.462 127.953 669.071 128.343L662.707 134.707ZM663 118V134H661V118H663Z" fill="#828282"/>
<path d="M580 74V88L662 118V134" stroke="#828282"/>
<rect x="422" y="140" width="130" height="228" fill="#FFFAF5"/>
<path d="M443.77 196.789H438.285V212H436.047V196.789H430.574V194.938H443.77V196.789ZM448.129 200.855C449.09 199.676 450.34 199.086 451.879 199.086C454.559 199.086 455.91 200.598 455.934 203.621V212H453.766V203.609C453.758 202.695 453.547 202.02 453.133 201.582C452.727 201.145 452.09 200.926 451.223 200.926C450.52 200.926 449.902 201.113 449.371 201.488C448.84 201.863 448.426 202.355 448.129 202.965V212H445.961V194H448.129V200.855ZM464.441 212.234C462.723 212.234 461.324 211.672 460.246 210.547C459.168 209.414 458.629 207.902 458.629 206.012V205.613C458.629 204.355 458.867 203.234 459.344 202.25C459.828 201.258 460.5 200.484 461.359 199.93C462.227 199.367 463.164 199.086 464.172 199.086C465.82 199.086 467.102 199.629 468.016 200.715C468.93 201.801 469.387 203.355 469.387 205.379V206.281H460.797C460.828 207.531 461.191 208.543 461.887 209.316C462.59 210.082 463.48 210.465 464.559 210.465C465.324 210.465 465.973 210.309 466.504 209.996C467.035 209.684 467.5 209.27 467.898 208.754L469.223 209.785C468.16 211.418 466.566 212.234 464.441 212.234ZM464.172 200.867C463.297 200.867 462.562 201.188 461.969 201.828C461.375 202.461 461.008 203.352 460.867 204.5H467.219V204.336C467.156 203.234 466.859 202.383 466.328 201.781C465.797 201.172 465.078 200.867 464.172 200.867ZM439.023 236.637C439.023 236.051 438.801 235.598 438.355 235.277C437.918 234.949 437.148 234.668 436.047 234.434C434.953 234.199 434.082 233.918 433.434 233.59C432.793 233.262 432.316 232.871 432.004 232.418C431.699 231.965 431.547 231.426 431.547 230.801C431.547 229.762 431.984 228.883 432.859 228.164C433.742 227.445 434.867 227.086 436.234 227.086C437.672 227.086 438.836 227.457 439.727 228.199C440.625 228.941 441.074 229.891 441.074 231.047H438.895C438.895 230.453 438.641 229.941 438.133 229.512C437.633 229.082 437 228.867 436.234 228.867C435.445 228.867 434.828 229.039 434.383 229.383C433.938 229.727 433.715 230.176 433.715 230.73C433.715 231.254 433.922 231.648 434.336 231.914C434.75 232.18 435.496 232.434 436.574 232.676C437.66 232.918 438.539 233.207 439.211 233.543C439.883 233.879 440.379 234.285 440.699 234.762C441.027 235.23 441.191 235.805 441.191 236.484C441.191 237.617 440.738 238.527 439.832 239.215C438.926 239.895 437.75 240.234 436.305 240.234C435.289 240.234 434.391 240.055 433.609 239.695C432.828 239.336 432.215 238.836 431.77 238.195C431.332 237.547 431.113 236.848 431.113 236.098H433.281C433.32 236.824 433.609 237.402 434.148 237.832C434.695 238.254 435.414 238.465 436.305 238.465C437.125 238.465 437.781 238.301 438.273 237.973C438.773 237.637 439.023 237.191 439.023 236.637ZM451.844 238.746C451 239.738 449.762 240.234 448.129 240.234C446.777 240.234 445.746 239.844 445.035 239.062C444.332 238.273 443.977 237.109 443.969 235.57V227.32H446.137V235.512C446.137 237.434 446.918 238.395 448.48 238.395C450.137 238.395 451.238 237.777 451.785 236.543V227.32H453.953V240H451.891L451.844 238.746ZM467.992 233.801C467.992 235.738 467.547 237.297 466.656 238.477C465.766 239.648 464.57 240.234 463.07 240.234C461.469 240.234 460.23 239.668 459.355 238.535L459.25 240H457.258V222H459.426V228.715C460.301 227.629 461.508 227.086 463.047 227.086C464.586 227.086 465.793 227.668 466.668 228.832C467.551 229.996 467.992 231.59 467.992 233.613V233.801ZM465.824 233.555C465.824 232.078 465.539 230.938 464.969 230.133C464.398 229.328 463.578 228.926 462.508 228.926C461.078 228.926 460.051 229.59 459.426 230.918V236.402C460.09 237.73 461.125 238.395 462.531 238.395C463.57 238.395 464.379 237.992 464.957 237.188C465.535 236.383 465.824 235.172 465.824 233.555ZM478.117 236.637C478.117 236.051 477.895 235.598 477.449 235.277C477.012 234.949 476.242 234.668 475.141 234.434C474.047 234.199 473.176 233.918 472.527 233.59C471.887 233.262 471.41 232.871 471.098 232.418C470.793 231.965 470.641 231.426 470.641 230.801C470.641 229.762 471.078 228.883 471.953 228.164C472.836 227.445 473.961 227.086 475.328 227.086C476.766 227.086 477.93 227.457 478.82 228.199C479.719 228.941 480.168 229.891 480.168 231.047H477.988C477.988 230.453 477.734 229.941 477.227 229.512C476.727 229.082 476.094 228.867 475.328 228.867C474.539 228.867 473.922 229.039 473.477 229.383C473.031 229.727 472.809 230.176 472.809 230.73C472.809 231.254 473.016 231.648 473.43 231.914C473.844 232.18 474.59 232.434 475.668 232.676C476.754 232.918 477.633 233.207 478.305 233.543C478.977 233.879 479.473 234.285 479.793 234.762C480.121 235.23 480.285 235.805 480.285 236.484C480.285 237.617 479.832 238.527 478.926 239.215C478.02 239.895 476.844 240.234 475.398 240.234C474.383 240.234 473.484 240.055 472.703 239.695C471.922 239.336 471.309 238.836 470.863 238.195C470.426 237.547 470.207 236.848 470.207 236.098H472.375C472.414 236.824 472.703 237.402 473.242 237.832C473.789 238.254 474.508 238.465 475.398 238.465C476.219 238.465 476.875 238.301 477.367 237.973C477.867 237.637 478.117 237.191 478.117 236.637ZM486.051 224.25V227.32H488.418V228.996H486.051V236.859C486.051 237.367 486.156 237.75 486.367 238.008C486.578 238.258 486.938 238.383 487.445 238.383C487.695 238.383 488.039 238.336 488.477 238.242V240C487.906 240.156 487.352 240.234 486.812 240.234C485.844 240.234 485.113 239.941 484.621 239.355C484.129 238.77 483.883 237.938 483.883 236.859V228.996H481.574V227.32H483.883V224.25H486.051ZM497.09 229.266C496.762 229.211 496.406 229.184 496.023 229.184C494.602 229.184 493.637 229.789 493.129 231V240H490.961V227.32H493.07L493.105 228.785C493.816 227.652 494.824 227.086 496.129 227.086C496.551 227.086 496.871 227.141 497.09 227.25V229.266ZM501.449 240H499.281V227.32H501.449V240ZM499.105 223.957C499.105 223.605 499.211 223.309 499.422 223.066C499.641 222.824 499.961 222.703 500.383 222.703C500.805 222.703 501.125 222.824 501.344 223.066C501.562 223.309 501.672 223.605 501.672 223.957C501.672 224.309 501.562 224.602 501.344 224.836C501.125 225.07 500.805 225.188 500.383 225.188C499.961 225.188 499.641 225.07 499.422 224.836C499.211 224.602 499.105 224.309 499.105 223.957ZM506.98 227.32L507.051 228.914C508.02 227.695 509.285 227.086 510.848 227.086C513.527 227.086 514.879 228.598 514.902 231.621V240H512.734V231.609C512.727 230.695 512.516 230.02 512.102 229.582C511.695 229.145 511.059 228.926 510.191 228.926C509.488 228.926 508.871 229.113 508.34 229.488C507.809 229.863 507.395 230.355 507.098 230.965V240H504.93V227.32H506.98ZM517.656 233.555C517.656 231.578 518.113 230.008 519.027 228.844C519.941 227.672 521.152 227.086 522.66 227.086C524.207 227.086 525.414 227.633 526.281 228.727L526.387 227.32H528.367V239.695C528.367 241.336 527.879 242.629 526.902 243.574C525.934 244.52 524.629 244.992 522.988 244.992C522.074 244.992 521.18 244.797 520.305 244.406C519.43 244.016 518.762 243.48 518.301 242.801L519.426 241.5C520.355 242.648 521.492 243.223 522.836 243.223C523.891 243.223 524.711 242.926 525.297 242.332C525.891 241.738 526.188 240.902 526.188 239.824V238.734C525.32 239.734 524.137 240.234 522.637 240.234C521.152 240.234 519.949 239.637 519.027 238.441C518.113 237.246 517.656 235.617 517.656 233.555ZM519.836 233.801C519.836 235.23 520.129 236.355 520.715 237.176C521.301 237.988 522.121 238.395 523.176 238.395C524.543 238.395 525.547 237.773 526.188 236.531V230.742C525.523 229.531 524.527 228.926 523.199 228.926C522.145 228.926 521.32 229.336 520.727 230.156C520.133 230.977 519.836 232.191 519.836 233.801ZM431.559 291.074C431.559 289.309 431.793 287.613 432.262 285.988C432.738 284.363 433.445 282.887 434.383 281.559C435.32 280.23 436.293 279.293 437.301 278.746L437.746 280.176C436.605 281.051 435.668 282.387 434.934 284.184C434.207 285.98 433.809 287.992 433.738 290.219L433.727 291.215C433.727 294.23 434.277 296.848 435.379 299.066C436.043 300.395 436.832 301.434 437.746 302.184L437.301 303.508C436.262 302.93 435.27 301.961 434.324 300.602C432.48 297.945 431.559 294.77 431.559 291.074ZM442.199 298H440.031V285.32H442.199V298ZM439.855 281.957C439.855 281.605 439.961 281.309 440.172 281.066C440.391 280.824 440.711 280.703 441.133 280.703C441.555 280.703 441.875 280.824 442.094 281.066C442.312 281.309 442.422 281.605 442.422 281.957C442.422 282.309 442.312 282.602 442.094 282.836C441.875 283.07 441.555 283.188 441.133 283.188C440.711 283.188 440.391 283.07 440.172 282.836C439.961 282.602 439.855 282.309 439.855 281.957ZM447.73 285.32L447.801 286.914C448.77 285.695 450.035 285.086 451.598 285.086C454.277 285.086 455.629 286.598 455.652 289.621V298H453.484V289.609C453.477 288.695 453.266 288.02 452.852 287.582C452.445 287.145 451.809 286.926 450.941 286.926C450.238 286.926 449.621 287.113 449.09 287.488C448.559 287.863 448.145 288.355 447.848 288.965V298H445.68V285.32H447.73ZM464.008 296.465C464.781 296.465 465.457 296.23 466.035 295.762C466.613 295.293 466.934 294.707 466.996 294.004H469.047C469.008 294.73 468.758 295.422 468.297 296.078C467.836 296.734 467.219 297.258 466.445 297.648C465.68 298.039 464.867 298.234 464.008 298.234C462.281 298.234 460.906 297.66 459.883 296.512C458.867 295.355 458.359 293.777 458.359 291.777V291.414C458.359 290.18 458.586 289.082 459.039 288.121C459.492 287.16 460.141 286.414 460.984 285.883C461.836 285.352 462.84 285.086 463.996 285.086C465.418 285.086 466.598 285.512 467.535 286.363C468.48 287.215 468.984 288.32 469.047 289.68H466.996C466.934 288.859 466.621 288.188 466.059 287.664C465.504 287.133 464.816 286.867 463.996 286.867C462.895 286.867 462.039 287.266 461.43 288.062C460.828 288.852 460.527 289.996 460.527 291.496V291.906C460.527 293.367 460.828 294.492 461.43 295.281C462.031 296.07 462.891 296.465 464.008 296.465ZM473.84 298H471.672V280H473.84V298ZM485.148 296.746C484.305 297.738 483.066 298.234 481.434 298.234C480.082 298.234 479.051 297.844 478.34 297.062C477.637 296.273 477.281 295.109 477.273 293.57V285.32H479.441V293.512C479.441 295.434 480.223 296.395 481.785 296.395C483.441 296.395 484.543 295.777 485.09 294.543V285.32H487.258V298H485.195L485.148 296.746ZM490.035 291.555C490.035 289.609 490.496 288.047 491.418 286.867C492.34 285.68 493.547 285.086 495.039 285.086C496.523 285.086 497.699 285.594 498.566 286.609V280H500.734V298H498.742L498.637 296.641C497.77 297.703 496.562 298.234 495.016 298.234C493.547 298.234 492.348 297.633 491.418 296.43C490.496 295.227 490.035 293.656 490.035 291.719V291.555ZM492.203 291.801C492.203 293.238 492.5 294.363 493.094 295.176C493.688 295.988 494.508 296.395 495.555 296.395C496.93 296.395 497.934 295.777 498.566 294.543V288.719C497.918 287.523 496.922 286.926 495.578 286.926C494.516 286.926 493.688 287.336 493.094 288.156C492.5 288.977 492.203 290.191 492.203 291.801ZM509.371 298.234C507.652 298.234 506.254 297.672 505.176 296.547C504.098 295.414 503.559 293.902 503.559 292.012V291.613C503.559 290.355 503.797 289.234 504.273 288.25C504.758 287.258 505.43 286.484 506.289 285.93C507.156 285.367 508.094 285.086 509.102 285.086C510.75 285.086 512.031 285.629 512.945 286.715C513.859 287.801 514.316 289.355 514.316 291.379V292.281H505.727C505.758 293.531 506.121 294.543 506.816 295.316C507.52 296.082 508.41 296.465 509.488 296.465C510.254 296.465 510.902 296.309 511.434 295.996C511.965 295.684 512.43 295.27 512.828 294.754L514.152 295.785C513.09 297.418 511.496 298.234 509.371 298.234ZM509.102 286.867C508.227 286.867 507.492 287.188 506.898 287.828C506.305 288.461 505.938 289.352 505.797 290.5H512.148V290.336C512.086 289.234 511.789 288.383 511.258 287.781C510.727 287.172 510.008 286.867 509.102 286.867ZM524.219 294.637C524.219 294.051 523.996 293.598 523.551 293.277C523.113 292.949 522.344 292.668 521.242 292.434C520.148 292.199 519.277 291.918 518.629 291.59C517.988 291.262 517.512 290.871 517.199 290.418C516.895 289.965 516.742 289.426 516.742 288.801C516.742 287.762 517.18 286.883 518.055 286.164C518.938 285.445 520.062 285.086 521.43 285.086C522.867 285.086 524.031 285.457 524.922 286.199C525.82 286.941 526.27 287.891 526.27 289.047H524.09C524.09 288.453 523.836 287.941 523.328 287.512C522.828 287.082 522.195 286.867 521.43 286.867C520.641 286.867 520.023 287.039 519.578 287.383C519.133 287.727 518.91 288.176 518.91 288.73C518.91 289.254 519.117 289.648 519.531 289.914C519.945 290.18 520.691 290.434 521.77 290.676C522.855 290.918 523.734 291.207 524.406 291.543C525.078 291.879 525.574 292.285 525.895 292.762C526.223 293.23 526.387 293.805 526.387 294.484C526.387 295.617 525.934 296.527 525.027 297.215C524.121 297.895 522.945 298.234 521.5 298.234C520.484 298.234 519.586 298.055 518.805 297.695C518.023 297.336 517.41 296.836 516.965 296.195C516.527 295.547 516.309 294.848 516.309 294.098H518.477C518.516 294.824 518.805 295.402 519.344 295.832C519.891 296.254 520.609 296.465 521.5 296.465C522.32 296.465 522.977 296.301 523.469 295.973C523.969 295.637 524.219 295.191 524.219 294.637ZM439.469 326C439.344 325.75 439.242 325.305 439.164 324.664C438.156 325.711 436.953 326.234 435.555 326.234C434.305 326.234 433.277 325.883 432.473 325.18C431.676 324.469 431.277 323.57 431.277 322.484C431.277 321.164 431.777 320.141 432.777 319.414C433.785 318.68 435.199 318.312 437.02 318.312H439.129V317.316C439.129 316.559 438.902 315.957 438.449 315.512C437.996 315.059 437.328 314.832 436.445 314.832C435.672 314.832 435.023 315.027 434.5 315.418C433.977 315.809 433.715 316.281 433.715 316.836H431.535C431.535 316.203 431.758 315.594 432.203 315.008C432.656 314.414 433.266 313.945 434.031 313.602C434.805 313.258 435.652 313.086 436.574 313.086C438.035 313.086 439.18 313.453 440.008 314.188C440.836 314.914 441.266 315.918 441.297 317.199V323.035C441.297 324.199 441.445 325.125 441.742 325.812V326H439.469ZM435.871 324.348C436.551 324.348 437.195 324.172 437.805 323.82C438.414 323.469 438.855 323.012 439.129 322.449V319.848H437.43C434.773 319.848 433.445 320.625 433.445 322.18C433.445 322.859 433.672 323.391 434.125 323.773C434.578 324.156 435.16 324.348 435.871 324.348ZM453.59 310.25V313.32H455.957V314.996H453.59V322.859C453.59 323.367 453.695 323.75 453.906 324.008C454.117 324.258 454.477 324.383 454.984 324.383C455.234 324.383 455.578 324.336 456.016 324.242V326C455.445 326.156 454.891 326.234 454.352 326.234C453.383 326.234 452.652 325.941 452.16 325.355C451.668 324.77 451.422 323.938 451.422 322.859V314.996H449.113V313.32H451.422V310.25H453.59ZM464.629 315.266C464.301 315.211 463.945 315.184 463.562 315.184C462.141 315.184 461.176 315.789 460.668 317V326H458.5V313.32H460.609L460.645 314.785C461.355 313.652 462.363 313.086 463.668 313.086C464.09 313.086 464.41 313.141 464.629 313.25V315.266ZM473.992 326C473.867 325.75 473.766 325.305 473.688 324.664C472.68 325.711 471.477 326.234 470.078 326.234C468.828 326.234 467.801 325.883 466.996 325.18C466.199 324.469 465.801 323.57 465.801 322.484C465.801 321.164 466.301 320.141 467.301 319.414C468.309 318.68 469.723 318.312 471.543 318.312H473.652V317.316C473.652 316.559 473.426 315.957 472.973 315.512C472.52 315.059 471.852 314.832 470.969 314.832C470.195 314.832 469.547 315.027 469.023 315.418C468.5 315.809 468.238 316.281 468.238 316.836H466.059C466.059 316.203 466.281 315.594 466.727 315.008C467.18 314.414 467.789 313.945 468.555 313.602C469.328 313.258 470.176 313.086 471.098 313.086C472.559 313.086 473.703 313.453 474.531 314.188C475.359 314.914 475.789 315.918 475.82 317.199V323.035C475.82 324.199 475.969 325.125 476.266 325.812V326H473.992ZM470.395 324.348C471.074 324.348 471.719 324.172 472.328 323.82C472.938 323.469 473.379 323.012 473.652 322.449V319.848H471.953C469.297 319.848 467.969 320.625 467.969 322.18C467.969 322.859 468.195 323.391 468.648 323.773C469.102 324.156 469.684 324.348 470.395 324.348ZM481.574 326H479.406V313.32H481.574V326ZM479.23 309.957C479.23 309.605 479.336 309.309 479.547 309.066C479.766 308.824 480.086 308.703 480.508 308.703C480.93 308.703 481.25 308.824 481.469 309.066C481.688 309.309 481.797 309.605 481.797 309.957C481.797 310.309 481.688 310.602 481.469 310.836C481.25 311.07 480.93 311.188 480.508 311.188C480.086 311.188 479.766 311.07 479.547 310.836C479.336 310.602 479.23 310.309 479.23 309.957ZM487.41 326H485.242V308H487.41V326ZM493.246 326H491.078V313.32H493.246V326ZM490.902 309.957C490.902 309.605 491.008 309.309 491.219 309.066C491.438 308.824 491.758 308.703 492.18 308.703C492.602 308.703 492.922 308.824 493.141 309.066C493.359 309.309 493.469 309.605 493.469 309.957C493.469 310.309 493.359 310.602 493.141 310.836C492.922 311.07 492.602 311.188 492.18 311.188C491.758 311.188 491.438 311.07 491.219 310.836C491.008 310.602 490.902 310.309 490.902 309.957ZM498.777 313.32L498.848 314.914C499.816 313.695 501.082 313.086 502.645 313.086C505.324 313.086 506.676 314.598 506.699 317.621V326H504.531V317.609C504.523 316.695 504.312 316.02 503.898 315.582C503.492 315.145 502.855 314.926 501.988 314.926C501.285 314.926 500.668 315.113 500.137 315.488C499.605 315.863 499.191 316.355 498.895 316.965V326H496.727V313.32H498.777ZM509.453 319.555C509.453 317.578 509.91 316.008 510.824 314.844C511.738 313.672 512.949 313.086 514.457 313.086C516.004 313.086 517.211 313.633 518.078 314.727L518.184 313.32H520.164V325.695C520.164 327.336 519.676 328.629 518.699 329.574C517.73 330.52 516.426 330.992 514.785 330.992C513.871 330.992 512.977 330.797 512.102 330.406C511.227 330.016 510.559 329.48 510.098 328.801L511.223 327.5C512.152 328.648 513.289 329.223 514.633 329.223C515.688 329.223 516.508 328.926 517.094 328.332C517.688 327.738 517.984 326.902 517.984 325.824V324.734C517.117 325.734 515.934 326.234 514.434 326.234C512.949 326.234 511.746 325.637 510.824 324.441C509.91 323.246 509.453 321.617 509.453 319.555ZM511.633 319.801C511.633 321.23 511.926 322.355 512.512 323.176C513.098 323.988 513.918 324.395 514.973 324.395C516.34 324.395 517.344 323.773 517.984 322.531V316.742C517.32 315.531 516.324 314.926 514.996 314.926C513.941 314.926 513.117 315.336 512.523 316.156C511.93 316.977 511.633 318.191 511.633 319.801ZM439.023 350.637C439.023 350.051 438.801 349.598 438.355 349.277C437.918 348.949 437.148 348.668 436.047 348.434C434.953 348.199 434.082 347.918 433.434 347.59C432.793 347.262 432.316 346.871 432.004 346.418C431.699 345.965 431.547 345.426 431.547 344.801C431.547 343.762 431.984 342.883 432.859 342.164C433.742 341.445 434.867 341.086 436.234 341.086C437.672 341.086 438.836 341.457 439.727 342.199C440.625 342.941 441.074 343.891 441.074 345.047H438.895C438.895 344.453 438.641 343.941 438.133 343.512C437.633 343.082 437 342.867 436.234 342.867C435.445 342.867 434.828 343.039 434.383 343.383C433.938 343.727 433.715 344.176 433.715 344.73C433.715 345.254 433.922 345.648 434.336 345.914C434.75 346.18 435.496 346.434 436.574 346.676C437.66 346.918 438.539 347.207 439.211 347.543C439.883 347.879 440.379 348.285 440.699 348.762C441.027 349.23 441.191 349.805 441.191 350.484C441.191 351.617 440.738 352.527 439.832 353.215C438.926 353.895 437.75 354.234 436.305 354.234C435.289 354.234 434.391 354.055 433.609 353.695C432.828 353.336 432.215 352.836 431.77 352.195C431.332 351.547 431.113 350.848 431.113 350.098H433.281C433.32 350.824 433.609 351.402 434.148 351.832C434.695 352.254 435.414 352.465 436.305 352.465C437.125 352.465 437.781 352.301 438.273 351.973C438.773 351.637 439.023 351.191 439.023 350.637ZM454.727 347.801C454.727 349.73 454.285 351.285 453.402 352.465C452.52 353.645 451.324 354.234 449.816 354.234C448.277 354.234 447.066 353.746 446.184 352.77V358.875H444.016V341.32H445.996L446.102 342.727C446.984 341.633 448.211 341.086 449.781 341.086C451.305 341.086 452.508 341.66 453.391 342.809C454.281 343.957 454.727 345.555 454.727 347.602V347.801ZM452.559 347.555C452.559 346.125 452.254 344.996 451.645 344.168C451.035 343.34 450.199 342.926 449.137 342.926C447.824 342.926 446.84 343.508 446.184 344.672V350.73C446.832 351.887 447.824 352.465 449.16 352.465C450.199 352.465 451.023 352.055 451.633 351.234C452.25 350.406 452.559 349.18 452.559 347.555ZM465.32 354C465.195 353.75 465.094 353.305 465.016 352.664C464.008 353.711 462.805 354.234 461.406 354.234C460.156 354.234 459.129 353.883 458.324 353.18C457.527 352.469 457.129 351.57 457.129 350.484C457.129 349.164 457.629 348.141 458.629 347.414C459.637 346.68 461.051 346.312 462.871 346.312H464.98V345.316C464.98 344.559 464.754 343.957 464.301 343.512C463.848 343.059 463.18 342.832 462.297 342.832C461.523 342.832 460.875 343.027 460.352 343.418C459.828 343.809 459.566 344.281 459.566 344.836H457.387C457.387 344.203 457.609 343.594 458.055 343.008C458.508 342.414 459.117 341.945 459.883 341.602C460.656 341.258 461.504 341.086 462.426 341.086C463.887 341.086 465.031 341.453 465.859 342.188C466.688 342.914 467.117 343.918 467.148 345.199V351.035C467.148 352.199 467.297 353.125 467.594 353.812V354H465.32ZM461.723 352.348C462.402 352.348 463.047 352.172 463.656 351.82C464.266 351.469 464.707 351.012 464.98 350.449V347.848H463.281C460.625 347.848 459.297 348.625 459.297 350.18C459.297 350.859 459.523 351.391 459.977 351.773C460.43 352.156 461.012 352.348 461.723 352.348ZM475.633 352.465C476.406 352.465 477.082 352.23 477.66 351.762C478.238 351.293 478.559 350.707 478.621 350.004H480.672C480.633 350.73 480.383 351.422 479.922 352.078C479.461 352.734 478.844 353.258 478.07 353.648C477.305 354.039 476.492 354.234 475.633 354.234C473.906 354.234 472.531 353.66 471.508 352.512C470.492 351.355 469.984 349.777 469.984 347.777V347.414C469.984 346.18 470.211 345.082 470.664 344.121C471.117 343.16 471.766 342.414 472.609 341.883C473.461 341.352 474.465 341.086 475.621 341.086C477.043 341.086 478.223 341.512 479.16 342.363C480.105 343.215 480.609 344.32 480.672 345.68H478.621C478.559 344.859 478.246 344.188 477.684 343.664C477.129 343.133 476.441 342.867 475.621 342.867C474.52 342.867 473.664 343.266 473.055 344.062C472.453 344.852 472.152 345.996 472.152 347.496V347.906C472.152 349.367 472.453 350.492 473.055 351.281C473.656 352.07 474.516 352.465 475.633 352.465ZM488.371 354.234C486.652 354.234 485.254 353.672 484.176 352.547C483.098 351.414 482.559 349.902 482.559 348.012V347.613C482.559 346.355 482.797 345.234 483.273 344.25C483.758 343.258 484.43 342.484 485.289 341.93C486.156 341.367 487.094 341.086 488.102 341.086C489.75 341.086 491.031 341.629 491.945 342.715C492.859 343.801 493.316 345.355 493.316 347.379V348.281H484.727C484.758 349.531 485.121 350.543 485.816 351.316C486.52 352.082 487.41 352.465 488.488 352.465C489.254 352.465 489.902 352.309 490.434 351.996C490.965 351.684 491.43 351.27 491.828 350.754L493.152 351.785C492.09 353.418 490.496 354.234 488.371 354.234ZM488.102 342.867C487.227 342.867 486.492 343.188 485.898 343.828C485.305 344.461 484.938 345.352 484.797 346.5H491.148V346.336C491.086 345.234 490.789 344.383 490.258 343.781C489.727 343.172 489.008 342.867 488.102 342.867ZM500.84 347.191C500.84 348.934 500.609 350.605 500.148 352.207C499.695 353.801 498.996 355.273 498.051 356.625C497.113 357.977 496.129 358.938 495.098 359.508L494.641 358.184C495.844 357.262 496.809 355.832 497.535 353.895C498.27 351.949 498.645 349.793 498.66 347.426V347.051C498.66 345.41 498.488 343.887 498.145 342.48C497.801 341.066 497.32 339.801 496.703 338.684C496.094 337.566 495.406 336.695 494.641 336.07L495.098 334.746C496.129 335.316 497.109 336.27 498.039 337.605C498.977 338.941 499.676 340.414 500.137 342.023C500.605 343.633 500.84 345.355 500.84 347.191Z" fill="black"/>
<path d="M432.136 272.448C432.296 272.496 432.456 272.536 432.616 272.568C432.776 272.6 432.944 272.616 433.12 272.616C433.872 272.616 434.472 272.424 434.92 272.04C435.368 271.672 435.712 271.192 435.952 270.6L436.24 269.856L430.96 258.216H433.72L436.144 264C436.368 264.528 436.584 265.088 436.792 265.68C437 266.272 437.216 266.864 437.44 267.456H437.536C437.712 266.896 437.904 266.32 438.112 265.728C438.32 265.136 438.52 264.56 438.712 264L440.848 258.216H443.464L438.544 270.528C438.288 271.2 438 271.8 437.68 272.328C437.376 272.856 437.016 273.304 436.6 273.672C436.184 274.056 435.704 274.344 435.16 274.536C434.616 274.744 433.992 274.848 433.288 274.848C432.968 274.848 432.664 274.824 432.376 274.776C432.088 274.744 431.832 274.688 431.608 274.608L432.136 272.448ZM448.951 260.4H445.807V258.336L449.071 258.216L449.431 255H451.711V258.216H457.087V260.4H451.711V265.248C451.711 266.224 451.911 266.944 452.311 267.408C452.711 267.856 453.415 268.08 454.423 268.08C454.935 268.08 455.399 268.04 455.815 267.96C456.231 267.864 456.631 267.744 457.015 267.6L457.543 269.616C457.015 269.792 456.431 269.944 455.791 270.072C455.151 270.216 454.471 270.288 453.751 270.288C452.855 270.288 452.103 270.168 451.495 269.928C450.887 269.688 450.391 269.352 450.007 268.92C449.639 268.472 449.367 267.936 449.191 267.312C449.031 266.688 448.951 266 448.951 265.248V260.4ZM460.749 253.056H463.533V257.424L463.365 259.944C463.909 259.4 464.517 258.928 465.189 258.528C465.877 258.128 466.677 257.928 467.589 257.928C468.949 257.928 469.949 258.344 470.589 259.176C471.229 259.992 471.549 261.168 471.549 262.704V270H468.765V263.064C468.765 262.104 468.597 261.408 468.261 260.976C467.941 260.528 467.373 260.304 466.557 260.304C465.981 260.304 465.469 260.44 465.021 260.712C464.573 260.984 464.077 261.4 463.533 261.96V270H460.749V253.056ZM474.444 264.12C474.444 263.144 474.604 262.272 474.924 261.504C475.26 260.736 475.7 260.088 476.244 259.56C476.788 259.032 477.42 258.632 478.14 258.36C478.86 258.072 479.604 257.928 480.372 257.928C481.14 257.928 481.884 258.072 482.604 258.36C483.324 258.632 483.956 259.032 484.5 259.56C485.044 260.088 485.476 260.736 485.796 261.504C486.132 262.272 486.3 263.144 486.3 264.12C486.3 265.096 486.132 265.968 485.796 266.736C485.476 267.504 485.044 268.152 484.5 268.68C483.956 269.208 483.324 269.608 482.604 269.88C481.884 270.152 481.14 270.288 480.372 270.288C479.604 270.288 478.86 270.152 478.14 269.88C477.42 269.608 476.788 269.208 476.244 268.68C475.7 268.152 475.26 267.504 474.924 266.736C474.604 265.968 474.444 265.096 474.444 264.12ZM477.3 264.12C477.3 265.304 477.572 266.256 478.116 266.976C478.66 267.68 479.412 268.032 480.372 268.032C481.332 268.032 482.084 267.68 482.628 266.976C483.172 266.256 483.444 265.304 483.444 264.12C483.444 262.92 483.172 261.968 482.628 261.264C482.084 260.544 481.332 260.184 480.372 260.184C479.412 260.184 478.66 260.544 478.116 261.264C477.572 261.968 477.3 262.92 477.3 264.12ZM489.531 258.216H491.811L492.027 259.992H492.123C492.683 259.432 493.299 258.952 493.971 258.552C494.659 258.136 495.459 257.928 496.371 257.928C497.731 257.928 498.731 258.344 499.371 259.176C500.011 259.992 500.331 261.168 500.331 262.704V270H497.547V263.064C497.547 262.104 497.379 261.408 497.043 260.976C496.723 260.528 496.155 260.304 495.339 260.304C494.763 260.304 494.251 260.44 493.803 260.712C493.355 260.984 492.859 261.4 492.315 261.96V270H489.531V258.216Z" fill="#B82629"/>
<path d="M452.412 179.211C452.572 179.259 452.732 179.299 452.892 179.331C453.052 179.363 453.22 179.379 453.396 179.379C454.148 179.379 454.748 179.187 455.196 178.803C455.644 178.435 455.988 177.955 456.228 177.363L456.516 176.619L451.236 164.979H453.996L456.42 170.763C456.644 171.291 456.86 171.851 457.068 172.443C457.276 173.035 457.492 173.627 457.716 174.219H457.812C457.988 173.659 458.18 173.083 458.388 172.491C458.596 171.899 458.796 171.323 458.988 170.763L461.124 164.979H463.74L458.82 177.291C458.564 177.963 458.276 178.563 457.956 179.091C457.652 179.619 457.292 180.067 456.876 180.435C456.46 180.819 455.98 181.107 455.436 181.299C454.892 181.507 454.268 181.611 453.564 181.611C453.244 181.611 452.94 181.587 452.652 181.539C452.364 181.507 452.108 181.451 451.884 181.371L452.412 179.211ZM469.227 167.163H466.083V165.099L469.347 164.979L469.707 161.763H471.987V164.979H477.363V167.163H471.987V172.011C471.987 172.987 472.187 173.707 472.587 174.171C472.987 174.619 473.691 174.843 474.699 174.843C475.211 174.843 475.675 174.803 476.091 174.723C476.507 174.627 476.907 174.507 477.291 174.363L477.819 176.379C477.291 176.555 476.707 176.707 476.067 176.835C475.427 176.979 474.747 177.051 474.027 177.051C473.131 177.051 472.379 176.931 471.771 176.691C471.163 176.451 470.667 176.115 470.283 175.683C469.915 175.235 469.643 174.699 469.467 174.075C469.307 173.451 469.227 172.763 469.227 172.011V167.163ZM481.026 159.819H483.81V164.187L483.642 166.707C484.186 166.163 484.794 165.691 485.466 165.291C486.154 164.891 486.954 164.691 487.866 164.691C489.226 164.691 490.226 165.107 490.866 165.939C491.506 166.755 491.826 167.931 491.826 169.467V176.763H489.042V169.827C489.042 168.867 488.874 168.171 488.538 167.739C488.218 167.291 487.65 167.067 486.834 167.067C486.258 167.067 485.746 167.203 485.298 167.475C484.85 167.747 484.354 168.163 483.81 168.723V176.763H481.026V159.819ZM494.72 170.883C494.72 169.907 494.88 169.035 495.2 168.267C495.536 167.499 495.976 166.851 496.52 166.323C497.064 165.795 497.696 165.395 498.416 165.123C499.136 164.835 499.88 164.691 500.648 164.691C501.416 164.691 502.16 164.835 502.88 165.123C503.6 165.395 504.232 165.795 504.776 166.323C505.32 166.851 505.752 167.499 506.072 168.267C506.408 169.035 506.576 169.907 506.576 170.883C506.576 171.859 506.408 172.731 506.072 173.499C505.752 174.267 505.32 174.915 504.776 175.443C504.232 175.971 503.6 176.371 502.88 176.643C502.16 176.915 501.416 177.051 500.648 177.051C499.88 177.051 499.136 176.915 498.416 176.643C497.696 176.371 497.064 175.971 496.52 175.443C495.976 174.915 495.536 174.267 495.2 173.499C494.88 172.731 494.72 171.859 494.72 170.883ZM497.576 170.883C497.576 172.067 497.848 173.019 498.392 173.739C498.936 174.443 499.688 174.795 500.648 174.795C501.608 174.795 502.36 174.443 502.904 173.739C503.448 173.019 503.72 172.067 503.72 170.883C503.72 169.683 503.448 168.731 502.904 168.027C502.36 167.307 501.608 166.947 500.648 166.947C499.688 166.947 498.936 167.307 498.392 168.027C497.848 168.731 497.576 169.683 497.576 170.883ZM509.807 164.979H512.087L512.303 166.755H512.399C512.959 166.195 513.575 165.715 514.247 165.315C514.935 164.899 515.735 164.691 516.647 164.691C518.007 164.691 519.007 165.107 519.647 165.939C520.287 166.755 520.607 167.931 520.607 169.467V176.763H517.823V169.827C517.823 168.867 517.655 168.171 517.319 167.739C516.999 167.291 516.431 167.067 515.615 167.067C515.039 167.067 514.527 167.203 514.079 167.475C513.631 167.747 513.135 168.163 512.591 168.723V176.763H509.807V164.979Z" fill="#B82629"/>
<rect x="600" y="140" width="130" height="228" fill="#FFFAF5"/>
<path d="M623.105 204.02C623.105 205.691 622.824 207.152 622.262 208.402C621.699 209.645 620.902 210.594 619.871 211.25C618.84 211.906 617.637 212.234 616.262 212.234C614.918 212.234 613.727 211.906 612.688 211.25C611.648 210.586 610.84 209.645 610.262 208.426C609.691 207.199 609.398 205.781 609.383 204.172V202.941C609.383 201.301 609.668 199.852 610.238 198.594C610.809 197.336 611.613 196.375 612.652 195.711C613.699 195.039 614.895 194.703 616.238 194.703C617.605 194.703 618.809 195.035 619.848 195.699C620.895 196.355 621.699 197.312 622.262 198.57C622.824 199.82 623.105 201.277 623.105 202.941V204.02ZM620.867 202.918C620.867 200.895 620.461 199.344 619.648 198.266C618.836 197.18 617.699 196.637 616.238 196.637C614.816 196.637 613.695 197.18 612.875 198.266C612.062 199.344 611.645 200.844 611.621 202.766V204.02C611.621 205.98 612.031 207.523 612.852 208.648C613.68 209.766 614.816 210.324 616.262 210.324C617.715 210.324 618.84 209.797 619.637 208.742C620.434 207.68 620.844 206.16 620.867 204.184V202.918ZM628.191 199.32L628.262 200.914C629.23 199.695 630.496 199.086 632.059 199.086C634.738 199.086 636.09 200.598 636.113 203.621V212H633.945V203.609C633.938 202.695 633.727 202.02 633.312 201.582C632.906 201.145 632.27 200.926 631.402 200.926C630.699 200.926 630.082 201.113 629.551 201.488C629.02 201.863 628.605 202.355 628.309 202.965V212H626.141V199.32H628.191ZM644.645 212.234C642.926 212.234 641.527 211.672 640.449 210.547C639.371 209.414 638.832 207.902 638.832 206.012V205.613C638.832 204.355 639.07 203.234 639.547 202.25C640.031 201.258 640.703 200.484 641.562 199.93C642.43 199.367 643.367 199.086 644.375 199.086C646.023 199.086 647.305 199.629 648.219 200.715C649.133 201.801 649.59 203.355 649.59 205.379V206.281H641C641.031 207.531 641.395 208.543 642.09 209.316C642.793 210.082 643.684 210.465 644.762 210.465C645.527 210.465 646.176 210.309 646.707 209.996C647.238 209.684 647.703 209.27 648.102 208.754L649.426 209.785C648.363 211.418 646.77 212.234 644.645 212.234ZM644.375 200.867C643.5 200.867 642.766 201.188 642.172 201.828C641.578 202.461 641.211 203.352 641.07 204.5H647.422V204.336C647.359 203.234 647.062 202.383 646.531 201.781C646 201.172 645.281 200.867 644.375 200.867ZM657.488 205.543C657.488 204.301 657.73 203.184 658.215 202.191C658.707 201.199 659.387 200.434 660.254 199.895C661.129 199.355 662.125 199.086 663.242 199.086C664.969 199.086 666.363 199.684 667.426 200.879C668.496 202.074 669.031 203.664 669.031 205.648V205.801C669.031 207.035 668.793 208.145 668.316 209.129C667.848 210.105 667.172 210.867 666.289 211.414C665.414 211.961 664.406 212.234 663.266 212.234C661.547 212.234 660.152 211.637 659.082 210.441C658.02 209.246 657.488 207.664 657.488 205.695V205.543ZM659.668 205.801C659.668 207.207 659.992 208.336 660.641 209.188C661.297 210.039 662.172 210.465 663.266 210.465C664.367 210.465 665.242 210.035 665.891 209.176C666.539 208.309 666.863 207.098 666.863 205.543C666.863 204.152 666.531 203.027 665.867 202.168C665.211 201.301 664.336 200.867 663.242 200.867C662.172 200.867 661.309 201.293 660.652 202.145C659.996 202.996 659.668 204.215 659.668 205.801ZM677.879 201.266C677.551 201.211 677.195 201.184 676.812 201.184C675.391 201.184 674.426 201.789 673.918 203V212H671.75V199.32H673.859L673.895 200.785C674.605 199.652 675.613 199.086 676.918 199.086C677.34 199.086 677.66 199.141 677.879 199.25V201.266ZM611.68 227.32L611.738 228.727C612.668 227.633 613.922 227.086 615.5 227.086C617.273 227.086 618.48 227.766 619.121 229.125C619.543 228.516 620.09 228.023 620.762 227.648C621.441 227.273 622.242 227.086 623.164 227.086C625.945 227.086 627.359 228.559 627.406 231.504V240H625.238V231.633C625.238 230.727 625.031 230.051 624.617 229.605C624.203 229.152 623.508 228.926 622.531 228.926C621.727 228.926 621.059 229.168 620.527 229.652C619.996 230.129 619.688 230.773 619.602 231.586V240H617.422V231.691C617.422 229.848 616.52 228.926 614.715 228.926C613.293 228.926 612.32 229.531 611.797 230.742V240H609.629V227.32H611.68ZM630.113 233.543C630.113 232.301 630.355 231.184 630.84 230.191C631.332 229.199 632.012 228.434 632.879 227.895C633.754 227.355 634.75 227.086 635.867 227.086C637.594 227.086 638.988 227.684 640.051 228.879C641.121 230.074 641.656 231.664 641.656 233.648V233.801C641.656 235.035 641.418 236.145 640.941 237.129C640.473 238.105 639.797 238.867 638.914 239.414C638.039 239.961 637.031 240.234 635.891 240.234C634.172 240.234 632.777 239.637 631.707 238.441C630.645 237.246 630.113 235.664 630.113 233.695V233.543ZM632.293 233.801C632.293 235.207 632.617 236.336 633.266 237.188C633.922 238.039 634.797 238.465 635.891 238.465C636.992 238.465 637.867 238.035 638.516 237.176C639.164 236.309 639.488 235.098 639.488 233.543C639.488 232.152 639.156 231.027 638.492 230.168C637.836 229.301 636.961 228.867 635.867 228.867C634.797 228.867 633.934 229.293 633.277 230.145C632.621 230.996 632.293 232.215 632.293 233.801ZM650.504 229.266C650.176 229.211 649.82 229.184 649.438 229.184C648.016 229.184 647.051 229.789 646.543 231V240H644.375V227.32H646.484L646.52 228.785C647.23 227.652 648.238 227.086 649.543 227.086C649.965 227.086 650.285 227.141 650.504 227.25V229.266ZM657.535 240.234C655.816 240.234 654.418 239.672 653.34 238.547C652.262 237.414 651.723 235.902 651.723 234.012V233.613C651.723 232.355 651.961 231.234 652.438 230.25C652.922 229.258 653.594 228.484 654.453 227.93C655.32 227.367 656.258 227.086 657.266 227.086C658.914 227.086 660.195 227.629 661.109 228.715C662.023 229.801 662.48 231.355 662.48 233.379V234.281H653.891C653.922 235.531 654.285 236.543 654.98 237.316C655.684 238.082 656.574 238.465 657.652 238.465C658.418 238.465 659.066 238.309 659.598 237.996C660.129 237.684 660.594 237.27 660.992 236.754L662.316 237.785C661.254 239.418 659.66 240.234 657.535 240.234ZM657.266 228.867C656.391 228.867 655.656 229.188 655.062 229.828C654.469 230.461 654.102 231.352 653.961 232.5H660.312V232.336C660.25 231.234 659.953 230.383 659.422 229.781C658.891 229.172 658.172 228.867 657.266 228.867ZM670.426 233.555C670.426 231.609 670.887 230.047 671.809 228.867C672.73 227.68 673.938 227.086 675.43 227.086C676.914 227.086 678.09 227.594 678.957 228.609V222H681.125V240H679.133L679.027 238.641C678.16 239.703 676.953 240.234 675.406 240.234C673.938 240.234 672.738 239.633 671.809 238.43C670.887 237.227 670.426 235.656 670.426 233.719V233.555ZM672.594 233.801C672.594 235.238 672.891 236.363 673.484 237.176C674.078 237.988 674.898 238.395 675.945 238.395C677.32 238.395 678.324 237.777 678.957 236.543V230.719C678.309 229.523 677.312 228.926 675.969 228.926C674.906 228.926 674.078 229.336 673.484 230.156C672.891 230.977 672.594 232.191 672.594 233.801ZM686.855 240H684.688V227.32H686.855V240ZM684.512 223.957C684.512 223.605 684.617 223.309 684.828 223.066C685.047 222.824 685.367 222.703 685.789 222.703C686.211 222.703 686.531 222.824 686.75 223.066C686.969 223.309 687.078 223.605 687.078 223.957C687.078 224.309 686.969 224.602 686.75 224.836C686.531 225.07 686.211 225.188 685.789 225.188C685.367 225.188 685.047 225.07 684.828 224.836C684.617 224.602 684.512 224.309 684.512 223.957ZM689.82 233.555C689.82 231.578 690.277 230.008 691.191 228.844C692.105 227.672 693.316 227.086 694.824 227.086C696.371 227.086 697.578 227.633 698.445 228.727L698.551 227.32H700.531V239.695C700.531 241.336 700.043 242.629 699.066 243.574C698.098 244.52 696.793 244.992 695.152 244.992C694.238 244.992 693.344 244.797 692.469 244.406C691.594 244.016 690.926 243.48 690.465 242.801L691.59 241.5C692.52 242.648 693.656 243.223 695 243.223C696.055 243.223 696.875 242.926 697.461 242.332C698.055 241.738 698.352 240.902 698.352 239.824V238.734C697.484 239.734 696.301 240.234 694.801 240.234C693.316 240.234 692.113 239.637 691.191 238.441C690.277 237.246 689.82 235.617 689.82 233.555ZM692 233.801C692 235.23 692.293 236.355 692.879 237.176C693.465 237.988 694.285 238.395 695.34 238.395C696.707 238.395 697.711 237.773 698.352 236.531V230.742C697.688 229.531 696.691 228.926 695.363 228.926C694.309 228.926 693.484 229.336 692.891 230.156C692.297 230.977 692 232.191 692 233.801ZM706.168 240H704V227.32H706.168V240ZM703.824 223.957C703.824 223.605 703.93 223.309 704.141 223.066C704.359 222.824 704.68 222.703 705.102 222.703C705.523 222.703 705.844 222.824 706.062 223.066C706.281 223.309 706.391 223.605 706.391 223.957C706.391 224.309 706.281 224.602 706.062 224.836C705.844 225.07 705.523 225.188 705.102 225.188C704.68 225.188 704.359 225.07 704.141 224.836C703.93 224.602 703.824 224.309 703.824 223.957ZM712.59 224.25V227.32H714.957V228.996H712.59V236.859C712.59 237.367 712.695 237.75 712.906 238.008C713.117 238.258 713.477 238.383 713.984 238.383C714.234 238.383 714.578 238.336 715.016 238.242V240C714.445 240.156 713.891 240.234 713.352 240.234C712.383 240.234 711.652 239.941 711.16 239.355C710.668 238.77 710.422 237.938 710.422 236.859V228.996H708.113V227.32H710.422V224.25H712.59ZM609.066 263.543C609.066 262.301 609.309 261.184 609.793 260.191C610.285 259.199 610.965 258.434 611.832 257.895C612.707 257.355 613.703 257.086 614.82 257.086C616.547 257.086 617.941 257.684 619.004 258.879C620.074 260.074 620.609 261.664 620.609 263.648V263.801C620.609 265.035 620.371 266.145 619.895 267.129C619.426 268.105 618.75 268.867 617.867 269.414C616.992 269.961 615.984 270.234 614.844 270.234C613.125 270.234 611.73 269.637 610.66 268.441C609.598 267.246 609.066 265.664 609.066 263.695V263.543ZM611.246 263.801C611.246 265.207 611.57 266.336 612.219 267.188C612.875 268.039 613.75 268.465 614.844 268.465C615.945 268.465 616.82 268.035 617.469 267.176C618.117 266.309 618.441 265.098 618.441 263.543C618.441 262.152 618.109 261.027 617.445 260.168C616.789 259.301 615.914 258.867 614.82 258.867C613.75 258.867 612.887 259.293 612.23 260.145C611.574 260.996 611.246 262.215 611.246 263.801ZM629.457 259.266C629.129 259.211 628.773 259.184 628.391 259.184C626.969 259.184 626.004 259.789 625.496 261V270H623.328V257.32H625.438L625.473 258.785C626.184 257.652 627.191 257.086 628.496 257.086C628.918 257.086 629.238 257.141 629.457 257.25V259.266ZM614.727 296.465C615.5 296.465 616.176 296.23 616.754 295.762C617.332 295.293 617.652 294.707 617.715 294.004H619.766C619.727 294.73 619.477 295.422 619.016 296.078C618.555 296.734 617.938 297.258 617.164 297.648C616.398 298.039 615.586 298.234 614.727 298.234C613 298.234 611.625 297.66 610.602 296.512C609.586 295.355 609.078 293.777 609.078 291.777V291.414C609.078 290.18 609.305 289.082 609.758 288.121C610.211 287.16 610.859 286.414 611.703 285.883C612.555 285.352 613.559 285.086 614.715 285.086C616.137 285.086 617.316 285.512 618.254 286.363C619.199 287.215 619.703 288.32 619.766 289.68H617.715C617.652 288.859 617.34 288.188 616.777 287.664C616.223 287.133 615.535 286.867 614.715 286.867C613.613 286.867 612.758 287.266 612.148 288.062C611.547 288.852 611.246 289.996 611.246 291.496V291.906C611.246 293.367 611.547 294.492 612.148 295.281C612.75 296.07 613.609 296.465 614.727 296.465ZM624.371 286.855C625.332 285.676 626.582 285.086 628.121 285.086C630.801 285.086 632.152 286.598 632.176 289.621V298H630.008V289.609C630 288.695 629.789 288.02 629.375 287.582C628.969 287.145 628.332 286.926 627.465 286.926C626.762 286.926 626.145 287.113 625.613 287.488C625.082 287.863 624.668 288.355 624.371 288.965V298H622.203V280H624.371V286.855ZM643.25 298C643.125 297.75 643.023 297.305 642.945 296.664C641.938 297.711 640.734 298.234 639.336 298.234C638.086 298.234 637.059 297.883 636.254 297.18C635.457 296.469 635.059 295.57 635.059 294.484C635.059 293.164 635.559 292.141 636.559 291.414C637.566 290.68 638.98 290.312 640.801 290.312H642.91V289.316C642.91 288.559 642.684 287.957 642.23 287.512C641.777 287.059 641.109 286.832 640.227 286.832C639.453 286.832 638.805 287.027 638.281 287.418C637.758 287.809 637.496 288.281 637.496 288.836H635.316C635.316 288.203 635.539 287.594 635.984 287.008C636.438 286.414 637.047 285.945 637.812 285.602C638.586 285.258 639.434 285.086 640.355 285.086C641.816 285.086 642.961 285.453 643.789 286.188C644.617 286.914 645.047 287.918 645.078 289.199V295.035C645.078 296.199 645.227 297.125 645.523 297.812V298H643.25ZM639.652 296.348C640.332 296.348 640.977 296.172 641.586 295.82C642.195 295.469 642.637 295.012 642.91 294.449V291.848H641.211C638.555 291.848 637.227 292.625 637.227 294.18C637.227 294.859 637.453 295.391 637.906 295.773C638.359 296.156 638.941 296.348 639.652 296.348ZM654.605 287.266C654.277 287.211 653.922 287.184 653.539 287.184C652.117 287.184 651.152 287.789 650.645 289V298H648.477V285.32H650.586L650.621 286.785C651.332 285.652 652.34 285.086 653.645 285.086C654.066 285.086 654.387 285.141 654.605 285.25V287.266ZM663.969 298C663.844 297.75 663.742 297.305 663.664 296.664C662.656 297.711 661.453 298.234 660.055 298.234C658.805 298.234 657.777 297.883 656.973 297.18C656.176 296.469 655.777 295.57 655.777 294.484C655.777 293.164 656.277 292.141 657.277 291.414C658.285 290.68 659.699 290.312 661.52 290.312H663.629V289.316C663.629 288.559 663.402 287.957 662.949 287.512C662.496 287.059 661.828 286.832 660.945 286.832C660.172 286.832 659.523 287.027 659 287.418C658.477 287.809 658.215 288.281 658.215 288.836H656.035C656.035 288.203 656.258 287.594 656.703 287.008C657.156 286.414 657.766 285.945 658.531 285.602C659.305 285.258 660.152 285.086 661.074 285.086C662.535 285.086 663.68 285.453 664.508 286.188C665.336 286.914 665.766 287.918 665.797 289.199V295.035C665.797 296.199 665.945 297.125 666.242 297.812V298H663.969ZM660.371 296.348C661.051 296.348 661.695 296.172 662.305 295.82C662.914 295.469 663.355 295.012 663.629 294.449V291.848H661.93C659.273 291.848 657.945 292.625 657.945 294.18C657.945 294.859 658.172 295.391 658.625 295.773C659.078 296.156 659.66 296.348 660.371 296.348ZM674.281 296.465C675.055 296.465 675.73 296.23 676.309 295.762C676.887 295.293 677.207 294.707 677.27 294.004H679.32C679.281 294.73 679.031 295.422 678.57 296.078C678.109 296.734 677.492 297.258 676.719 297.648C675.953 298.039 675.141 298.234 674.281 298.234C672.555 298.234 671.18 297.66 670.156 296.512C669.141 295.355 668.633 293.777 668.633 291.777V291.414C668.633 290.18 668.859 289.082 669.312 288.121C669.766 287.16 670.414 286.414 671.258 285.883C672.109 285.352 673.113 285.086 674.27 285.086C675.691 285.086 676.871 285.512 677.809 286.363C678.754 287.215 679.258 288.32 679.32 289.68H677.27C677.207 288.859 676.895 288.188 676.332 287.664C675.777 287.133 675.09 286.867 674.27 286.867C673.168 286.867 672.312 287.266 671.703 288.062C671.102 288.852 670.801 289.996 670.801 291.496V291.906C670.801 293.367 671.102 294.492 671.703 295.281C672.305 296.07 673.164 296.465 674.281 296.465ZM684.699 282.25V285.32H687.066V286.996H684.699V294.859C684.699 295.367 684.805 295.75 685.016 296.008C685.227 296.258 685.586 296.383 686.094 296.383C686.344 296.383 686.688 296.336 687.125 296.242V298C686.555 298.156 686 298.234 685.461 298.234C684.492 298.234 683.762 297.941 683.27 297.355C682.777 296.77 682.531 295.938 682.531 294.859V286.996H680.223V285.32H682.531V282.25H684.699ZM694.871 298.234C693.152 298.234 691.754 297.672 690.676 296.547C689.598 295.414 689.059 293.902 689.059 292.012V291.613C689.059 290.355 689.297 289.234 689.773 288.25C690.258 287.258 690.93 286.484 691.789 285.93C692.656 285.367 693.594 285.086 694.602 285.086C696.25 285.086 697.531 285.629 698.445 286.715C699.359 287.801 699.816 289.355 699.816 291.379V292.281H691.227C691.258 293.531 691.621 294.543 692.316 295.316C693.02 296.082 693.91 296.465 694.988 296.465C695.754 296.465 696.402 296.309 696.934 295.996C697.465 295.684 697.93 295.27 698.328 294.754L699.652 295.785C698.59 297.418 696.996 298.234 694.871 298.234ZM694.602 286.867C693.727 286.867 692.992 287.188 692.398 287.828C691.805 288.461 691.438 289.352 691.297 290.5H697.648V290.336C697.586 289.234 697.289 288.383 696.758 287.781C696.227 287.172 695.508 286.867 694.602 286.867ZM708.465 287.266C708.137 287.211 707.781 287.184 707.398 287.184C705.977 287.184 705.012 287.789 704.504 289V298H702.336V285.32H704.445L704.48 286.785C705.191 285.652 706.199 285.086 707.504 285.086C707.926 285.086 708.246 285.141 708.465 285.25V287.266ZM717.852 294.637C717.852 294.051 717.629 293.598 717.184 293.277C716.746 292.949 715.977 292.668 714.875 292.434C713.781 292.199 712.91 291.918 712.262 291.59C711.621 291.262 711.145 290.871 710.832 290.418C710.527 289.965 710.375 289.426 710.375 288.801C710.375 287.762 710.812 286.883 711.688 286.164C712.57 285.445 713.695 285.086 715.062 285.086C716.5 285.086 717.664 285.457 718.555 286.199C719.453 286.941 719.902 287.891 719.902 289.047H717.723C717.723 288.453 717.469 287.941 716.961 287.512C716.461 287.082 715.828 286.867 715.062 286.867C714.273 286.867 713.656 287.039 713.211 287.383C712.766 287.727 712.543 288.176 712.543 288.73C712.543 289.254 712.75 289.648 713.164 289.914C713.578 290.18 714.324 290.434 715.402 290.676C716.488 290.918 717.367 291.207 718.039 291.543C718.711 291.879 719.207 292.285 719.527 292.762C719.855 293.23 720.02 293.805 720.02 294.484C720.02 295.617 719.566 296.527 718.66 297.215C717.754 297.895 716.578 298.234 715.133 298.234C714.117 298.234 713.219 298.055 712.438 297.695C711.656 297.336 711.043 296.836 710.598 296.195C710.16 295.547 709.941 294.848 709.941 294.098H712.109C712.148 294.824 712.438 295.402 712.977 295.832C713.523 296.254 714.242 296.465 715.133 296.465C715.953 296.465 716.609 296.301 717.102 295.973C717.602 295.637 717.852 295.191 717.852 294.637Z" fill="black"/>
<path d="M640.597 267.864C640.597 267.16 640.821 266.584 641.269 266.136C641.717 265.672 642.285 265.44 642.973 265.44C643.661 265.44 644.229 265.672 644.677 266.136C645.125 266.584 645.349 267.16 645.349 267.864C645.349 268.568 645.125 269.152 644.677 269.616C644.229 270.064 643.661 270.288 642.973 270.288C642.285 270.288 641.717 270.064 641.269 269.616C640.821 269.152 640.597 268.568 640.597 267.864Z" fill="#A541F8"/>
<path d="M618.998 159.771H625.862V161.283H621.134V178.899H625.862V180.411H618.998V159.771ZM692.991 178.899V161.283H688.287V159.771H695.151V180.411H688.287V178.899H692.991Z" fill="#219653"/>
<path d="M630.34 159.723H632.716L640.612 180.603H638.236L630.34 159.723ZM643.939 170.883C643.939 169.923 644.083 169.059 644.371 168.291C644.659 167.523 645.043 166.875 645.523 166.347C646.019 165.819 646.579 165.411 647.203 165.123C647.827 164.835 648.475 164.691 649.147 164.691C649.851 164.691 650.451 164.819 650.947 165.075C651.459 165.315 651.955 165.651 652.435 166.083L652.315 164.091V159.819H655.099V176.763H652.819L652.603 175.395H652.531C652.067 175.859 651.523 176.251 650.899 176.571C650.291 176.891 649.651 177.051 648.979 177.051C648.227 177.051 647.539 176.915 646.915 176.643C646.291 176.355 645.755 175.947 645.307 175.419C644.875 174.891 644.539 174.251 644.299 173.499C644.059 172.731 643.939 171.859 643.939 170.883ZM646.795 170.859C646.795 172.139 647.043 173.115 647.539 173.787C648.035 174.443 648.739 174.771 649.651 174.771C650.627 174.771 651.515 174.299 652.315 173.355V168.051C651.899 167.651 651.483 167.371 651.067 167.211C650.651 167.051 650.227 166.971 649.795 166.971C649.379 166.971 648.987 167.059 648.619 167.235C648.267 167.411 647.955 167.667 647.683 168.003C647.411 168.323 647.195 168.723 647.035 169.203C646.875 169.683 646.795 170.235 646.795 170.859Z" fill="#0072B2"/>
<path d="M659.122 159.723H661.498L669.394 180.603H667.018L659.122 159.723ZM676.272 174.627C676.272 173.923 676.496 173.347 676.944 172.899C677.392 172.435 677.96 172.203 678.648 172.203C679.336 172.203 679.904 172.435 680.352 172.899C680.8 173.347 681.024 173.923 681.024 174.627C681.024 175.331 680.8 175.915 680.352 176.379C679.904 176.827 679.336 177.051 678.648 177.051C677.96 177.051 677.392 176.827 676.944 176.379C676.496 175.915 676.272 175.331 676.272 174.627Z" fill="#A541F8"/>
<path d="M706.373 169.851H702.101V167.835H706.373V163.299H708.485V167.835H712.757V169.851H708.485V174.387H706.373V169.851Z" fill="#56CCF2"/>
<rect x="252" y="150" width="130" height="218" fill="#FFFAF5"/>
<path d="M273.77 204.789H268.285V220H266.047V204.789H260.574V202.938H273.77V204.789ZM278.129 208.855C279.09 207.676 280.34 207.086 281.879 207.086C284.559 207.086 285.91 208.598 285.934 211.621V220H283.766V211.609C283.758 210.695 283.547 210.02 283.133 209.582C282.727 209.145 282.09 208.926 281.223 208.926C280.52 208.926 279.902 209.113 279.371 209.488C278.84 209.863 278.426 210.355 278.129 210.965V220H275.961V202H278.129V208.855ZM294.441 220.234C292.723 220.234 291.324 219.672 290.246 218.547C289.168 217.414 288.629 215.902 288.629 214.012V213.613C288.629 212.355 288.867 211.234 289.344 210.25C289.828 209.258 290.5 208.484 291.359 207.93C292.227 207.367 293.164 207.086 294.172 207.086C295.82 207.086 297.102 207.629 298.016 208.715C298.93 209.801 299.387 211.355 299.387 213.379V214.281H290.797C290.828 215.531 291.191 216.543 291.887 217.316C292.59 218.082 293.48 218.465 294.559 218.465C295.324 218.465 295.973 218.309 296.504 217.996C297.035 217.684 297.5 217.27 297.898 216.754L299.223 217.785C298.16 219.418 296.566 220.234 294.441 220.234ZM294.172 208.867C293.297 208.867 292.562 209.188 291.969 209.828C291.375 210.461 291.008 211.352 290.867 212.5H297.219V212.336C297.156 211.234 296.859 210.383 296.328 209.781C295.797 209.172 295.078 208.867 294.172 208.867ZM266.727 246.465C267.5 246.465 268.176 246.23 268.754 245.762C269.332 245.293 269.652 244.707 269.715 244.004H271.766C271.727 244.73 271.477 245.422 271.016 246.078C270.555 246.734 269.938 247.258 269.164 247.648C268.398 248.039 267.586 248.234 266.727 248.234C265 248.234 263.625 247.66 262.602 246.512C261.586 245.355 261.078 243.777 261.078 241.777V241.414C261.078 240.18 261.305 239.082 261.758 238.121C262.211 237.16 262.859 236.414 263.703 235.883C264.555 235.352 265.559 235.086 266.715 235.086C268.137 235.086 269.316 235.512 270.254 236.363C271.199 237.215 271.703 238.32 271.766 239.68H269.715C269.652 238.859 269.34 238.188 268.777 237.664C268.223 237.133 267.535 236.867 266.715 236.867C265.613 236.867 264.758 237.266 264.148 238.062C263.547 238.852 263.246 239.996 263.246 241.496V241.906C263.246 243.367 263.547 244.492 264.148 245.281C264.75 246.07 265.609 246.465 266.727 246.465ZM276.371 236.855C277.332 235.676 278.582 235.086 280.121 235.086C282.801 235.086 284.152 236.598 284.176 239.621V248H282.008V239.609C282 238.695 281.789 238.02 281.375 237.582C280.969 237.145 280.332 236.926 279.465 236.926C278.762 236.926 278.145 237.113 277.613 237.488C277.082 237.863 276.668 238.355 276.371 238.965V248H274.203V230H276.371V236.855ZM295.25 248C295.125 247.75 295.023 247.305 294.945 246.664C293.938 247.711 292.734 248.234 291.336 248.234C290.086 248.234 289.059 247.883 288.254 247.18C287.457 246.469 287.059 245.57 287.059 244.484C287.059 243.164 287.559 242.141 288.559 241.414C289.566 240.68 290.98 240.312 292.801 240.312H294.91V239.316C294.91 238.559 294.684 237.957 294.23 237.512C293.777 237.059 293.109 236.832 292.227 236.832C291.453 236.832 290.805 237.027 290.281 237.418C289.758 237.809 289.496 238.281 289.496 238.836H287.316C287.316 238.203 287.539 237.594 287.984 237.008C288.438 236.414 289.047 235.945 289.812 235.602C290.586 235.258 291.434 235.086 292.355 235.086C293.816 235.086 294.961 235.453 295.789 236.188C296.617 236.914 297.047 237.918 297.078 239.199V245.035C297.078 246.199 297.227 247.125 297.523 247.812V248H295.25ZM291.652 246.348C292.332 246.348 292.977 246.172 293.586 245.82C294.195 245.469 294.637 245.012 294.91 244.449V241.848H293.211C290.555 241.848 289.227 242.625 289.227 244.18C289.227 244.859 289.453 245.391 289.906 245.773C290.359 246.156 290.941 246.348 291.652 246.348ZM306.605 237.266C306.277 237.211 305.922 237.184 305.539 237.184C304.117 237.184 303.152 237.789 302.645 239V248H300.477V235.32H302.586L302.621 236.785C303.332 235.652 304.34 235.086 305.645 235.086C306.066 235.086 306.387 235.141 306.605 235.25V237.266ZM315.969 248C315.844 247.75 315.742 247.305 315.664 246.664C314.656 247.711 313.453 248.234 312.055 248.234C310.805 248.234 309.777 247.883 308.973 247.18C308.176 246.469 307.777 245.57 307.777 244.484C307.777 243.164 308.277 242.141 309.277 241.414C310.285 240.68 311.699 240.312 313.52 240.312H315.629V239.316C315.629 238.559 315.402 237.957 314.949 237.512C314.496 237.059 313.828 236.832 312.945 236.832C312.172 236.832 311.523 237.027 311 237.418C310.477 237.809 310.215 238.281 310.215 238.836H308.035C308.035 238.203 308.258 237.594 308.703 237.008C309.156 236.414 309.766 235.945 310.531 235.602C311.305 235.258 312.152 235.086 313.074 235.086C314.535 235.086 315.68 235.453 316.508 236.188C317.336 236.914 317.766 237.918 317.797 239.199V245.035C317.797 246.199 317.945 247.125 318.242 247.812V248H315.969ZM312.371 246.348C313.051 246.348 313.695 246.172 314.305 245.82C314.914 245.469 315.355 245.012 315.629 244.449V241.848H313.93C311.273 241.848 309.945 242.625 309.945 244.18C309.945 244.859 310.172 245.391 310.625 245.773C311.078 246.156 311.66 246.348 312.371 246.348ZM326.281 246.465C327.055 246.465 327.73 246.23 328.309 245.762C328.887 245.293 329.207 244.707 329.27 244.004H331.32C331.281 244.73 331.031 245.422 330.57 246.078C330.109 246.734 329.492 247.258 328.719 247.648C327.953 248.039 327.141 248.234 326.281 248.234C324.555 248.234 323.18 247.66 322.156 246.512C321.141 245.355 320.633 243.777 320.633 241.777V241.414C320.633 240.18 320.859 239.082 321.312 238.121C321.766 237.16 322.414 236.414 323.258 235.883C324.109 235.352 325.113 235.086 326.27 235.086C327.691 235.086 328.871 235.512 329.809 236.363C330.754 237.215 331.258 238.32 331.32 239.68H329.27C329.207 238.859 328.895 238.188 328.332 237.664C327.777 237.133 327.09 236.867 326.27 236.867C325.168 236.867 324.312 237.266 323.703 238.062C323.102 238.852 322.801 239.996 322.801 241.496V241.906C322.801 243.367 323.102 244.492 323.703 245.281C324.305 246.07 325.164 246.465 326.281 246.465ZM336.699 232.25V235.32H339.066V236.996H336.699V244.859C336.699 245.367 336.805 245.75 337.016 246.008C337.227 246.258 337.586 246.383 338.094 246.383C338.344 246.383 338.688 246.336 339.125 246.242V248C338.555 248.156 338 248.234 337.461 248.234C336.492 248.234 335.762 247.941 335.27 247.355C334.777 246.77 334.531 245.938 334.531 244.859V236.996H332.223V235.32H334.531V232.25H336.699ZM346.871 248.234C345.152 248.234 343.754 247.672 342.676 246.547C341.598 245.414 341.059 243.902 341.059 242.012V241.613C341.059 240.355 341.297 239.234 341.773 238.25C342.258 237.258 342.93 236.484 343.789 235.93C344.656 235.367 345.594 235.086 346.602 235.086C348.25 235.086 349.531 235.629 350.445 236.715C351.359 237.801 351.816 239.355 351.816 241.379V242.281H343.227C343.258 243.531 343.621 244.543 344.316 245.316C345.02 246.082 345.91 246.465 346.988 246.465C347.754 246.465 348.402 246.309 348.934 245.996C349.465 245.684 349.93 245.27 350.328 244.754L351.652 245.785C350.59 247.418 348.996 248.234 346.871 248.234ZM346.602 236.867C345.727 236.867 344.992 237.188 344.398 237.828C343.805 238.461 343.438 239.352 343.297 240.5H349.648V240.336C349.586 239.234 349.289 238.383 348.758 237.781C348.227 237.172 347.508 236.867 346.602 236.867ZM360.465 237.266C360.137 237.211 359.781 237.184 359.398 237.184C357.977 237.184 357.012 237.789 356.504 239V248H354.336V235.32H356.445L356.48 236.785C357.191 235.652 358.199 235.086 359.504 235.086C359.926 235.086 360.246 235.141 360.465 235.25V237.266ZM369.852 244.637C369.852 244.051 369.629 243.598 369.184 243.277C368.746 242.949 367.977 242.668 366.875 242.434C365.781 242.199 364.91 241.918 364.262 241.59C363.621 241.262 363.145 240.871 362.832 240.418C362.527 239.965 362.375 239.426 362.375 238.801C362.375 237.762 362.812 236.883 363.688 236.164C364.57 235.445 365.695 235.086 367.062 235.086C368.5 235.086 369.664 235.457 370.555 236.199C371.453 236.941 371.902 237.891 371.902 239.047H369.723C369.723 238.453 369.469 237.941 368.961 237.512C368.461 237.082 367.828 236.867 367.062 236.867C366.273 236.867 365.656 237.039 365.211 237.383C364.766 237.727 364.543 238.176 364.543 238.73C364.543 239.254 364.75 239.648 365.164 239.914C365.578 240.18 366.324 240.434 367.402 240.676C368.488 240.918 369.367 241.207 370.039 241.543C370.711 241.879 371.207 242.285 371.527 242.762C371.855 243.23 372.02 243.805 372.02 244.484C372.02 245.617 371.566 246.527 370.66 247.215C369.754 247.895 368.578 248.234 367.133 248.234C366.117 248.234 365.219 248.055 364.438 247.695C363.656 247.336 363.043 246.836 362.598 246.195C362.16 245.547 361.941 244.848 361.941 244.098H364.109C364.148 244.824 364.438 245.402 364.977 245.832C365.523 246.254 366.242 246.465 367.133 246.465C367.953 246.465 368.609 246.301 369.102 245.973C369.602 245.637 369.852 245.191 369.852 244.637ZM281.41 271.543C281.41 270.301 281.652 269.184 282.137 268.191C282.629 267.199 283.309 266.434 284.176 265.895C285.051 265.355 286.047 265.086 287.164 265.086C288.891 265.086 290.285 265.684 291.348 266.879C292.418 268.074 292.953 269.664 292.953 271.648V271.801C292.953 273.035 292.715 274.145 292.238 275.129C291.77 276.105 291.094 276.867 290.211 277.414C289.336 277.961 288.328 278.234 287.188 278.234C285.469 278.234 284.074 277.637 283.004 276.441C281.941 275.246 281.41 273.664 281.41 271.695V271.543ZM283.59 271.801C283.59 273.207 283.914 274.336 284.562 275.188C285.219 276.039 286.094 276.465 287.188 276.465C288.289 276.465 289.164 276.035 289.812 275.176C290.461 274.309 290.785 273.098 290.785 271.543C290.785 270.152 290.453 269.027 289.789 268.168C289.133 267.301 288.258 266.867 287.164 266.867C286.094 266.867 285.23 267.293 284.574 268.145C283.918 268.996 283.59 270.215 283.59 271.801ZM301.801 267.266C301.473 267.211 301.117 267.184 300.734 267.184C299.312 267.184 298.348 267.789 297.84 269V278H295.672V265.32H297.781L297.816 266.785C298.527 265.652 299.535 265.086 300.84 265.086C301.262 265.086 301.582 265.141 301.801 265.25V267.266Z" fill="black"/>
<path d="M262.088 262.304H267.368C268.232 262.304 269.024 262.384 269.744 262.544C270.48 262.704 271.112 262.976 271.64 263.36C272.184 263.744 272.6 264.248 272.888 264.872C273.192 265.48 273.344 266.24 273.344 267.152C273.344 268.016 273.192 268.768 272.888 269.408C272.584 270.048 272.16 270.584 271.616 271.016C271.088 271.432 270.456 271.744 269.72 271.952C269 272.144 268.216 272.24 267.368 272.24H264.872V278H262.088V262.304ZM267.152 270.008C269.456 270.008 270.608 269.056 270.608 267.152C270.608 266.16 270.32 265.48 269.744 265.112C269.168 264.728 268.304 264.536 267.152 264.536H264.872V270.008H267.152ZM312.869 278.96V282.656H310.085V266.216H312.365L312.581 267.56H312.653C313.165 267.096 313.749 266.712 314.405 266.408C315.077 266.088 315.749 265.928 316.421 265.928C317.189 265.928 317.869 266.072 318.461 266.36C319.069 266.632 319.573 267.032 319.973 267.56C320.389 268.088 320.701 268.72 320.909 269.456C321.133 270.192 321.245 271.016 321.245 271.928C321.245 272.936 321.101 273.84 320.813 274.64C320.525 275.424 320.133 276.088 319.637 276.632C319.157 277.16 318.597 277.568 317.957 277.856C317.333 278.144 316.685 278.288 316.013 278.288C315.469 278.288 314.909 278.168 314.333 277.928C313.773 277.688 313.253 277.344 312.773 276.896L312.869 278.96ZM312.869 274.928C313.301 275.328 313.741 275.608 314.189 275.768C314.653 275.928 315.069 276.008 315.437 276.008C316.285 276.008 316.989 275.672 317.549 275C318.109 274.312 318.389 273.296 318.389 271.952C318.389 270.768 318.173 269.848 317.741 269.192C317.309 268.536 316.613 268.208 315.653 268.208C315.205 268.208 314.749 268.32 314.285 268.544C313.821 268.768 313.349 269.128 312.869 269.624V274.928Z" fill="#B82629"/>
<path d="M292.584 167.771H299.448V169.283H294.72V186.899H299.448V188.411H292.584V167.771ZM337.796 186.899V169.283H333.092V167.771H339.956V188.411H333.092V186.899H337.796Z" fill="#219653"/>
<path d="M303.95 169.067H309.23C310.094 169.067 310.886 169.147 311.606 169.307C312.342 169.467 312.974 169.739 313.502 170.123C314.046 170.507 314.462 171.011 314.75 171.635C315.054 172.243 315.206 173.003 315.206 173.915C315.206 174.779 315.054 175.531 314.75 176.171C314.446 176.811 314.022 177.347 313.478 177.779C312.95 178.195 312.318 178.507 311.582 178.715C310.862 178.907 310.078 179.003 309.23 179.003H306.734V184.763H303.95V169.067ZM309.014 176.771C311.318 176.771 312.47 175.819 312.47 173.915C312.47 172.923 312.182 172.243 311.606 171.875C311.03 171.491 310.166 171.299 309.014 171.299H306.734V176.771H309.014ZM321.005 185.723V189.419H318.221V172.979H320.501L320.717 174.323H320.789C321.301 173.859 321.885 173.475 322.541 173.171C323.213 172.851 323.885 172.691 324.557 172.691C325.325 172.691 326.005 172.835 326.597 173.123C327.205 173.395 327.709 173.795 328.109 174.323C328.525 174.851 328.837 175.483 329.045 176.219C329.269 176.955 329.381 177.779 329.381 178.691C329.381 179.699 329.237 180.603 328.949 181.403C328.661 182.187 328.269 182.851 327.773 183.395C327.293 183.923 326.733 184.331 326.093 184.619C325.469 184.907 324.821 185.051 324.149 185.051C323.605 185.051 323.045 184.931 322.469 184.691C321.909 184.451 321.389 184.107 320.909 183.659L321.005 185.723ZM321.005 181.691C321.437 182.091 321.877 182.371 322.325 182.531C322.789 182.691 323.205 182.771 323.573 182.771C324.421 182.771 325.125 182.435 325.685 181.763C326.245 181.075 326.525 180.059 326.525 178.715C326.525 177.531 326.309 176.611 325.877 175.955C325.445 175.299 324.749 174.971 323.789 174.971C323.341 174.971 322.885 175.083 322.421 175.307C321.957 175.531 321.485 175.891 321.005 176.387V181.691Z" fill="#B82629"/>
<path d="M328 20H697.063V68H328V20Z" fill="#F1F4F8"/>
<path d="M399.07 35.008H405.934V36.52H401.206V54.136H405.934V55.648H399.07V35.008ZM444.282 54.136V36.52H439.578V35.008H446.442V55.648H439.578V54.136H444.282ZM542.977 35.008H549.841V36.52H545.113V54.136H549.841V55.648H542.977V35.008ZM616.97 54.136V36.52H612.266V35.008H619.13V55.648H612.266V54.136H616.97Z" fill="#219653"/>
<path d="M410.437 36.304H415.717C416.581 36.304 417.373 36.384 418.093 36.544C418.829 36.704 419.461 36.976 419.989 37.36C420.533 37.744 420.949 38.248 421.237 38.872C421.541 39.48 421.693 40.24 421.693 41.152C421.693 42.016 421.541 42.768 421.237 43.408C420.933 44.048 420.509 44.584 419.965 45.016C419.437 45.432 418.805 45.744 418.069 45.952C417.349 46.144 416.565 46.24 415.717 46.24H413.221V52H410.437V36.304ZM415.501 44.008C417.805 44.008 418.957 43.056 418.957 41.152C418.957 40.16 418.669 39.48 418.093 39.112C417.517 38.728 416.653 38.536 415.501 38.536H413.221V44.008H415.501ZM427.492 52.96V56.656H424.708V40.216H426.988L427.204 41.56H427.276C427.788 41.096 428.372 40.712 429.028 40.408C429.7 40.088 430.372 39.928 431.044 39.928C431.812 39.928 432.492 40.072 433.084 40.36C433.692 40.632 434.196 41.032 434.596 41.56C435.012 42.088 435.324 42.72 435.532 43.456C435.756 44.192 435.868 45.016 435.868 45.928C435.868 46.936 435.724 47.84 435.436 48.64C435.148 49.424 434.756 50.088 434.26 50.632C433.78 51.16 433.22 51.568 432.58 51.856C431.956 52.144 431.308 52.288 430.636 52.288C430.092 52.288 429.532 52.168 428.956 51.928C428.396 51.688 427.876 51.344 427.396 50.896L427.492 52.96ZM427.492 48.928C427.924 49.328 428.364 49.608 428.812 49.768C429.276 49.928 429.692 50.008 430.06 50.008C430.908 50.008 431.612 49.672 432.172 49C432.732 48.312 433.012 47.296 433.012 45.952C433.012 44.768 432.796 43.848 432.364 43.192C431.932 42.536 431.236 42.208 430.276 42.208C429.828 42.208 429.372 42.32 428.908 42.544C428.444 42.768 427.972 43.128 427.492 43.624V48.928ZM453.657 54.448C453.817 54.496 453.977 54.536 454.137 54.568C454.297 54.6 454.465 54.616 454.641 54.616C455.393 54.616 455.993 54.424 456.441 54.04C456.889 53.672 457.233 53.192 457.473 52.6L457.761 51.856L452.481 40.216H455.241L457.665 46C457.889 46.528 458.105 47.088 458.313 47.68C458.521 48.272 458.737 48.864 458.961 49.456H459.057C459.233 48.896 459.425 48.32 459.633 47.728C459.841 47.136 460.041 46.56 460.233 46L462.369 40.216H464.985L460.065 52.528C459.809 53.2 459.521 53.8 459.201 54.328C458.897 54.856 458.537 55.304 458.121 55.672C457.705 56.056 457.225 56.344 456.681 56.536C456.137 56.744 455.513 56.848 454.809 56.848C454.489 56.848 454.185 56.824 453.897 56.776C453.609 56.744 453.353 56.688 453.129 56.608L453.657 54.448ZM470.471 42.4H467.327V40.336L470.591 40.216L470.951 37H473.231V40.216H478.607V42.4H473.231V47.248C473.231 48.224 473.431 48.944 473.831 49.408C474.231 49.856 474.935 50.08 475.943 50.08C476.455 50.08 476.919 50.04 477.335 49.96C477.751 49.864 478.151 49.744 478.535 49.6L479.063 51.616C478.535 51.792 477.951 51.944 477.311 52.072C476.671 52.216 475.991 52.288 475.271 52.288C474.375 52.288 473.623 52.168 473.015 51.928C472.407 51.688 471.911 51.352 471.527 50.92C471.159 50.472 470.887 49.936 470.711 49.312C470.551 48.688 470.471 48 470.471 47.248V42.4ZM482.27 35.056H485.054V39.424L484.886 41.944C485.43 41.4 486.038 40.928 486.71 40.528C487.398 40.128 488.198 39.928 489.11 39.928C490.47 39.928 491.47 40.344 492.11 41.176C492.75 41.992 493.07 43.168 493.07 44.704V52H490.286V45.064C490.286 44.104 490.118 43.408 489.782 42.976C489.462 42.528 488.894 42.304 488.078 42.304C487.502 42.304 486.99 42.44 486.542 42.712C486.094 42.984 485.598 43.4 485.054 43.96V52H482.27V35.056ZM495.965 46.12C495.965 45.144 496.125 44.272 496.445 43.504C496.781 42.736 497.221 42.088 497.765 41.56C498.309 41.032 498.941 40.632 499.661 40.36C500.381 40.072 501.125 39.928 501.893 39.928C502.661 39.928 503.405 40.072 504.125 40.36C504.845 40.632 505.477 41.032 506.021 41.56C506.565 42.088 506.997 42.736 507.317 43.504C507.653 44.272 507.821 45.144 507.821 46.12C507.821 47.096 507.653 47.968 507.317 48.736C506.997 49.504 506.565 50.152 506.021 50.68C505.477 51.208 504.845 51.608 504.125 51.88C503.405 52.152 502.661 52.288 501.893 52.288C501.125 52.288 500.381 52.152 499.661 51.88C498.941 51.608 498.309 51.208 497.765 50.68C497.221 50.152 496.781 49.504 496.445 48.736C496.125 47.968 495.965 47.096 495.965 46.12ZM498.821 46.12C498.821 47.304 499.093 48.256 499.637 48.976C500.181 49.68 500.933 50.032 501.893 50.032C502.853 50.032 503.605 49.68 504.149 48.976C504.693 48.256 504.965 47.304 504.965 46.12C504.965 44.92 504.693 43.968 504.149 43.264C503.605 42.544 502.853 42.184 501.893 42.184C500.933 42.184 500.181 42.544 499.637 43.264C499.093 43.968 498.821 44.92 498.821 46.12ZM511.051 40.216H513.331L513.547 41.992H513.643C514.203 41.432 514.819 40.952 515.491 40.552C516.179 40.136 516.979 39.928 517.891 39.928C519.251 39.928 520.251 40.344 520.891 41.176C521.531 41.992 521.851 43.168 521.851 44.704V52H519.067V45.064C519.067 44.104 518.899 43.408 518.563 42.976C518.243 42.528 517.675 42.304 516.859 42.304C516.283 42.304 515.771 42.44 515.323 42.712C514.875 42.984 514.379 43.4 513.835 43.96V52H511.051V40.216Z" fill="#B82629"/>
<path d="M554.319 34.96H556.695L564.591 55.84H562.215L554.319 34.96ZM567.918 46.12C567.918 45.16 568.062 44.296 568.35 43.528C568.638 42.76 569.022 42.112 569.502 41.584C569.998 41.056 570.558 40.648 571.182 40.36C571.806 40.072 572.454 39.928 573.126 39.928C573.83 39.928 574.43 40.056 574.926 40.312C575.438 40.552 575.934 40.888 576.414 41.32L576.294 39.328V35.056H579.078V52H576.798L576.582 50.632H576.51C576.046 51.096 575.502 51.488 574.878 51.808C574.27 52.128 573.63 52.288 572.958 52.288C572.206 52.288 571.518 52.152 570.894 51.88C570.27 51.592 569.734 51.184 569.286 50.656C568.854 50.128 568.518 49.488 568.278 48.736C568.038 47.968 567.918 47.096 567.918 46.12ZM570.774 46.096C570.774 47.376 571.022 48.352 571.518 49.024C572.014 49.68 572.718 50.008 573.63 50.008C574.606 50.008 575.494 49.536 576.294 48.592V43.288C575.878 42.888 575.462 42.608 575.046 42.448C574.63 42.288 574.206 42.208 573.774 42.208C573.358 42.208 572.966 42.296 572.598 42.472C572.246 42.648 571.934 42.904 571.662 43.24C571.39 43.56 571.174 43.96 571.014 44.44C570.854 44.92 570.774 45.472 570.774 46.096Z" fill="#0072B2"/>
<path d="M583.1 34.96H585.476L593.372 55.84H590.996L583.1 34.96ZM600.251 49.864C600.251 49.16 600.475 48.584 600.923 48.136C601.371 47.672 601.939 47.44 602.627 47.44C603.315 47.44 603.883 47.672 604.331 48.136C604.779 48.584 605.003 49.16 605.003 49.864C605.003 50.568 604.779 51.152 604.331 51.616C603.883 52.064 603.315 52.288 602.627 52.288C601.939 52.288 601.371 52.064 600.923 51.616C600.475 51.152 600.251 50.568 600.251 49.864Z" fill="#A541F8"/>
<path d="M630.352 45.088H626.08V43.072H630.352V38.536H632.464V43.072H636.736V45.088H632.464V49.624H630.352V45.088Z" fill="#56CCF2"/>
</svg>
