<svg width="1022" height="296" viewBox="0 0 1022 296" fill="none" xmlns="http://www.w3.org/2000/svg">
<rect width="511" height="148" transform="scale(2)" fill="white"/>
<path d="M489.316 134.707C489.72 135.097 490.353 135.097 490.731 134.707L496.883 128.346C497.26 127.956 497.239 127.323 496.835 126.933C496.432 126.543 495.799 126.543 495.421 126.933L489.953 132.587L484.108 126.933C483.704 126.543 483.071 126.543 482.693 126.933C482.316 127.323 482.337 127.956 482.74 128.346L489.316 134.707ZM487 74L489 134L491 134L489 74L487 74Z" fill="#828282"/>
<path d="M315.293 134.707C315.683 135.098 316.317 135.098 316.707 134.707L323.071 128.343C323.462 127.953 323.462 127.319 323.071 126.929C322.681 126.538 322.047 126.538 321.657 126.929L316 132.586L310.343 126.929C309.953 126.538 309.319 126.538 308.929 126.929C308.538 127.319 308.538 127.953 308.929 128.343L315.293 134.707ZM315 118V134H317V118H315Z" fill="#828282"/>
<path d="M460 74V88L316 118V134" stroke="#828282"/>
<path d="M666.707 134.707C666.317 135.098 665.683 135.098 665.293 134.707L658.929 128.343C658.538 127.953 658.538 127.319 658.929 126.929C659.319 126.538 659.953 126.538 660.343 126.929L666 132.586L671.657 126.929C672.047 126.538 672.681 126.538 673.071 126.929C673.462 127.319 673.462 127.953 673.071 128.343L666.707 134.707ZM667 118V134H665V118H667Z" fill="#828282"/>
<path d="M520 74V88L666 118V134" stroke="#828282"/>
<path d="M838.707 134.707C838.317 135.098 837.683 135.098 837.293 134.707L830.929 128.343C830.538 127.953 830.538 127.319 830.929 126.929C831.319 126.538 831.953 126.538 832.343 126.929L838 132.586L843.657 126.929C844.047 126.538 844.681 126.538 845.071 126.929C845.462 127.319 845.462 127.953 845.071 128.343L838.707 134.707ZM839 118V134H837V118H839Z" fill="#828282"/>
<path d="M548 74V88L838 118V134" stroke="#828282"/>
<rect x="252" y="140" width="130" height="142" fill="#FFFAF5"/>
<path d="M267.008 197.166C265.078 196.611 263.672 195.931 262.789 195.127C261.914 194.314 261.477 193.314 261.477 192.127C261.477 190.783 262.012 189.673 263.082 188.798C264.16 187.916 265.559 187.474 267.277 187.474C268.449 187.474 269.492 187.701 270.406 188.154C271.328 188.607 272.039 189.232 272.539 190.029C273.047 190.826 273.301 191.697 273.301 192.642H271.039C271.039 191.611 270.711 190.802 270.055 190.216C269.398 189.623 268.473 189.326 267.277 189.326C266.168 189.326 265.301 189.572 264.676 190.064C264.059 190.548 263.75 191.224 263.75 192.091C263.75 192.787 264.043 193.377 264.629 193.861C265.223 194.338 266.227 194.775 267.641 195.173C269.062 195.572 270.172 196.013 270.969 196.498C271.773 196.974 272.367 197.533 272.75 198.173C273.141 198.814 273.336 199.568 273.336 200.435C273.336 201.818 272.797 202.927 271.719 203.763C270.641 204.591 269.199 205.005 267.395 205.005C266.223 205.005 265.129 204.783 264.113 204.338C263.098 203.884 262.312 203.267 261.758 202.486C261.211 201.705 260.938 200.818 260.938 199.826H263.199C263.199 200.857 263.578 201.673 264.336 202.275C265.102 202.869 266.121 203.166 267.395 203.166C268.582 203.166 269.492 202.923 270.125 202.439C270.758 201.955 271.074 201.295 271.074 200.459C271.074 199.623 270.781 198.978 270.195 198.525C269.609 198.064 268.547 197.611 267.008 197.166ZM278.832 189.021V192.091H281.199V193.767H278.832V201.63C278.832 202.138 278.938 202.521 279.148 202.779C279.359 203.029 279.719 203.154 280.227 203.154C280.477 203.154 280.82 203.107 281.258 203.013V204.771C280.688 204.927 280.133 205.005 279.594 205.005C278.625 205.005 277.895 204.713 277.402 204.127C276.91 203.541 276.664 202.709 276.664 201.63V193.767H274.355V192.091H276.664V189.021H278.832ZM291.57 204.771C291.445 204.521 291.344 204.076 291.266 203.435C290.258 204.482 289.055 205.005 287.656 205.005C286.406 205.005 285.379 204.654 284.574 203.951C283.777 203.24 283.379 202.341 283.379 201.255C283.379 199.935 283.879 198.912 284.879 198.185C285.887 197.451 287.301 197.084 289.121 197.084H291.23V196.088C291.23 195.33 291.004 194.728 290.551 194.283C290.098 193.83 289.43 193.603 288.547 193.603C287.773 193.603 287.125 193.798 286.602 194.189C286.078 194.58 285.816 195.052 285.816 195.607H283.637C283.637 194.974 283.859 194.365 284.305 193.779C284.758 193.185 285.367 192.716 286.133 192.373C286.906 192.029 287.754 191.857 288.676 191.857C290.137 191.857 291.281 192.224 292.109 192.959C292.938 193.685 293.367 194.689 293.398 195.97V201.806C293.398 202.97 293.547 203.896 293.844 204.584V204.771H291.57ZM287.973 203.119C288.652 203.119 289.297 202.943 289.906 202.591C290.516 202.24 290.957 201.783 291.23 201.22V198.619H289.531C286.875 198.619 285.547 199.396 285.547 200.951C285.547 201.63 285.773 202.162 286.227 202.545C286.68 202.927 287.262 203.119 287.973 203.119ZM302.926 194.037C302.598 193.982 302.242 193.955 301.859 193.955C300.438 193.955 299.473 194.56 298.965 195.771V204.771H296.797V192.091H298.906L298.941 193.556C299.652 192.423 300.66 191.857 301.965 191.857C302.387 191.857 302.707 191.912 302.926 192.021V194.037ZM308.457 189.021V192.091H310.824V193.767H308.457V201.63C308.457 202.138 308.562 202.521 308.773 202.779C308.984 203.029 309.344 203.154 309.852 203.154C310.102 203.154 310.445 203.107 310.883 203.013V204.771C310.312 204.927 309.758 205.005 309.219 205.005C308.25 205.005 307.52 204.713 307.027 204.127C306.535 203.541 306.289 202.709 306.289 201.63V193.767H303.98V192.091H306.289V189.021H308.457ZM326.703 201.408C326.703 200.822 326.48 200.369 326.035 200.048C325.598 199.72 324.828 199.439 323.727 199.205C322.633 198.97 321.762 198.689 321.113 198.361C320.473 198.033 319.996 197.642 319.684 197.189C319.379 196.736 319.227 196.197 319.227 195.572C319.227 194.533 319.664 193.654 320.539 192.935C321.422 192.216 322.547 191.857 323.914 191.857C325.352 191.857 326.516 192.228 327.406 192.97C328.305 193.713 328.754 194.662 328.754 195.818H326.574C326.574 195.224 326.32 194.713 325.812 194.283C325.312 193.853 324.68 193.638 323.914 193.638C323.125 193.638 322.508 193.81 322.062 194.154C321.617 194.498 321.395 194.947 321.395 195.502C321.395 196.025 321.602 196.42 322.016 196.685C322.43 196.951 323.176 197.205 324.254 197.447C325.34 197.689 326.219 197.978 326.891 198.314C327.562 198.65 328.059 199.056 328.379 199.533C328.707 200.002 328.871 200.576 328.871 201.255C328.871 202.388 328.418 203.298 327.512 203.986C326.605 204.666 325.43 205.005 323.984 205.005C322.969 205.005 322.07 204.826 321.289 204.466C320.508 204.107 319.895 203.607 319.449 202.966C319.012 202.318 318.793 201.619 318.793 200.869H320.961C321 201.595 321.289 202.173 321.828 202.603C322.375 203.025 323.094 203.236 323.984 203.236C324.805 203.236 325.461 203.072 325.953 202.744C326.453 202.408 326.703 201.963 326.703 201.408ZM336.957 205.005C335.238 205.005 333.84 204.443 332.762 203.318C331.684 202.185 331.145 200.673 331.145 198.783V198.384C331.145 197.127 331.383 196.005 331.859 195.021C332.344 194.029 333.016 193.255 333.875 192.701C334.742 192.138 335.68 191.857 336.688 191.857C338.336 191.857 339.617 192.4 340.531 193.486C341.445 194.572 341.902 196.127 341.902 198.15V199.052H333.312C333.344 200.302 333.707 201.314 334.402 202.088C335.105 202.853 335.996 203.236 337.074 203.236C337.84 203.236 338.488 203.08 339.02 202.767C339.551 202.455 340.016 202.041 340.414 201.525L341.738 202.556C340.676 204.189 339.082 205.005 336.957 205.005ZM336.688 193.638C335.812 193.638 335.078 193.959 334.484 194.599C333.891 195.232 333.523 196.123 333.383 197.271H339.734V197.107C339.672 196.005 339.375 195.154 338.844 194.552C338.312 193.943 337.594 193.638 336.688 193.638ZM347.363 189.021V192.091H349.73V193.767H347.363V201.63C347.363 202.138 347.469 202.521 347.68 202.779C347.891 203.029 348.25 203.154 348.758 203.154C349.008 203.154 349.352 203.107 349.789 203.013V204.771C349.219 204.927 348.664 205.005 348.125 205.005C347.156 205.005 346.426 204.713 345.934 204.127C345.441 203.541 345.195 202.709 345.195 201.63V193.767H342.887V192.091H345.195V189.021H347.363Z" fill="black"/>
<path d="M313.684 156.268H321.354V158.296H316.596V176.6H321.354V178.628H313.684V156.268Z" fill="#27AE60"/>
<rect x="600" y="140" width="130" height="142" fill="#FFFAF5"/>
<path d="M619.625 203.728H612.23V209.775H620.82V211.614H609.98V194.552H620.703V196.404H612.23V201.888H619.625V203.728ZM625.332 198.935L625.402 200.529C626.371 199.31 627.637 198.7 629.199 198.7C631.879 198.7 633.23 200.212 633.254 203.236V211.614H631.086V203.224C631.078 202.31 630.867 201.634 630.453 201.196C630.047 200.759 629.41 200.54 628.543 200.54C627.84 200.54 627.223 200.728 626.691 201.103C626.16 201.478 625.746 201.97 625.449 202.579V211.614H623.281V198.935H625.332ZM635.996 205.169C635.996 203.224 636.457 201.661 637.379 200.482C638.301 199.294 639.508 198.7 641 198.7C642.484 198.7 643.66 199.208 644.527 200.224V193.614H646.695V211.614H644.703L644.598 210.255C643.73 211.318 642.523 211.849 640.977 211.849C639.508 211.849 638.309 211.247 637.379 210.044C636.457 208.841 635.996 207.271 635.996 205.333V205.169ZM638.164 205.415C638.164 206.853 638.461 207.978 639.055 208.79C639.648 209.603 640.469 210.009 641.516 210.009C642.891 210.009 643.895 209.392 644.527 208.157V202.333C643.879 201.138 642.883 200.54 641.539 200.54C640.477 200.54 639.648 200.95 639.055 201.771C638.461 202.591 638.164 203.806 638.164 205.415ZM663.406 208.251C663.406 207.665 663.184 207.212 662.738 206.892C662.301 206.564 661.531 206.282 660.43 206.048C659.336 205.814 658.465 205.532 657.816 205.204C657.176 204.876 656.699 204.486 656.387 204.032C656.082 203.579 655.93 203.04 655.93 202.415C655.93 201.376 656.367 200.497 657.242 199.779C658.125 199.06 659.25 198.7 660.617 198.7C662.055 198.7 663.219 199.071 664.109 199.814C665.008 200.556 665.457 201.505 665.457 202.661H663.277C663.277 202.068 663.023 201.556 662.516 201.126C662.016 200.696 661.383 200.482 660.617 200.482C659.828 200.482 659.211 200.654 658.766 200.997C658.32 201.341 658.098 201.79 658.098 202.345C658.098 202.868 658.305 203.263 658.719 203.529C659.133 203.794 659.879 204.048 660.957 204.29C662.043 204.532 662.922 204.821 663.594 205.157C664.266 205.493 664.762 205.9 665.082 206.376C665.41 206.845 665.574 207.419 665.574 208.099C665.574 209.232 665.121 210.142 664.215 210.829C663.309 211.509 662.133 211.849 660.688 211.849C659.672 211.849 658.773 211.669 657.992 211.31C657.211 210.95 656.598 210.45 656.152 209.81C655.715 209.161 655.496 208.462 655.496 207.712H657.664C657.703 208.439 657.992 209.017 658.531 209.446C659.078 209.868 659.797 210.079 660.688 210.079C661.508 210.079 662.164 209.915 662.656 209.587C663.156 209.251 663.406 208.806 663.406 208.251ZM673.66 211.849C671.941 211.849 670.543 211.286 669.465 210.161C668.387 209.029 667.848 207.517 667.848 205.626V205.228C667.848 203.97 668.086 202.849 668.562 201.864C669.047 200.872 669.719 200.099 670.578 199.544C671.445 198.982 672.383 198.7 673.391 198.7C675.039 198.7 676.32 199.243 677.234 200.329C678.148 201.415 678.605 202.97 678.605 204.993V205.896H670.016C670.047 207.146 670.41 208.157 671.105 208.931C671.809 209.696 672.699 210.079 673.777 210.079C674.543 210.079 675.191 209.923 675.723 209.611C676.254 209.298 676.719 208.884 677.117 208.368L678.441 209.4C677.379 211.032 675.785 211.849 673.66 211.849ZM673.391 200.482C672.516 200.482 671.781 200.802 671.188 201.443C670.594 202.075 670.227 202.966 670.086 204.114H676.438V203.95C676.375 202.849 676.078 201.997 675.547 201.396C675.016 200.786 674.297 200.482 673.391 200.482ZM684.066 195.864V198.935H686.434V200.611H684.066V208.474C684.066 208.982 684.172 209.364 684.383 209.622C684.594 209.872 684.953 209.997 685.461 209.997C685.711 209.997 686.055 209.95 686.492 209.857V211.614C685.922 211.771 685.367 211.849 684.828 211.849C683.859 211.849 683.129 211.556 682.637 210.97C682.145 210.384 681.898 209.552 681.898 208.474V200.611H679.59V198.935H681.898V195.864H684.066Z" fill="black"/>
<path d="M663.92 177.962V159.658H659.188V157.63H666.858V179.99H659.188V177.962H663.92Z" fill="#27AE60"/>
<rect x="774" y="140" width="130" height="142" fill="#FFFAF5"/>
<path d="M795.77 196.404H790.285V211.614H788.047V196.404H782.574V194.552H795.77V196.404ZM800.129 200.47C801.09 199.29 802.34 198.7 803.879 198.7C806.559 198.7 807.91 200.212 807.934 203.236V211.614H805.766V203.224C805.758 202.31 805.547 201.634 805.133 201.196C804.727 200.759 804.09 200.54 803.223 200.54C802.52 200.54 801.902 200.728 801.371 201.103C800.84 201.478 800.426 201.97 800.129 202.579V211.614H797.961V193.614H800.129V200.47ZM816.441 211.849C814.723 211.849 813.324 211.286 812.246 210.161C811.168 209.029 810.629 207.517 810.629 205.626V205.228C810.629 203.97 810.867 202.849 811.344 201.864C811.828 200.872 812.5 200.099 813.359 199.544C814.227 198.982 815.164 198.7 816.172 198.7C817.82 198.7 819.102 199.243 820.016 200.329C820.93 201.415 821.387 202.97 821.387 204.993V205.896H812.797C812.828 207.146 813.191 208.157 813.887 208.931C814.59 209.696 815.48 210.079 816.559 210.079C817.324 210.079 817.973 209.923 818.504 209.611C819.035 209.298 819.5 208.884 819.898 208.368L821.223 209.4C820.16 211.032 818.566 211.849 816.441 211.849ZM816.172 200.482C815.297 200.482 814.562 200.802 813.969 201.443C813.375 202.075 813.008 202.966 812.867 204.114H819.219V203.95C819.156 202.849 818.859 201.997 818.328 201.396C817.797 200.786 817.078 200.482 816.172 200.482ZM791.023 236.251C791.023 235.665 790.801 235.212 790.355 234.892C789.918 234.564 789.148 234.282 788.047 234.048C786.953 233.814 786.082 233.532 785.434 233.204C784.793 232.876 784.316 232.486 784.004 232.032C783.699 231.579 783.547 231.04 783.547 230.415C783.547 229.376 783.984 228.497 784.859 227.779C785.742 227.06 786.867 226.7 788.234 226.7C789.672 226.7 790.836 227.071 791.727 227.814C792.625 228.556 793.074 229.505 793.074 230.661H790.895C790.895 230.068 790.641 229.556 790.133 229.126C789.633 228.696 789 228.482 788.234 228.482C787.445 228.482 786.828 228.654 786.383 228.997C785.938 229.341 785.715 229.79 785.715 230.345C785.715 230.868 785.922 231.263 786.336 231.529C786.75 231.794 787.496 232.048 788.574 232.29C789.66 232.532 790.539 232.821 791.211 233.157C791.883 233.493 792.379 233.9 792.699 234.376C793.027 234.845 793.191 235.419 793.191 236.099C793.191 237.232 792.738 238.142 791.832 238.829C790.926 239.509 789.75 239.849 788.305 239.849C787.289 239.849 786.391 239.669 785.609 239.31C784.828 238.95 784.215 238.45 783.77 237.81C783.332 237.161 783.113 236.462 783.113 235.712H785.281C785.32 236.439 785.609 237.017 786.148 237.446C786.695 237.868 787.414 238.079 788.305 238.079C789.125 238.079 789.781 237.915 790.273 237.587C790.773 237.251 791.023 236.806 791.023 236.251ZM803.844 238.361C803 239.353 801.762 239.849 800.129 239.849C798.777 239.849 797.746 239.458 797.035 238.677C796.332 237.888 795.977 236.724 795.969 235.185V226.935H798.137V235.126C798.137 237.048 798.918 238.009 800.48 238.009C802.137 238.009 803.238 237.392 803.785 236.157V226.935H805.953V239.614H803.891L803.844 238.361ZM819.992 233.415C819.992 235.353 819.547 236.911 818.656 238.091C817.766 239.263 816.57 239.849 815.07 239.849C813.469 239.849 812.23 239.282 811.355 238.15L811.25 239.614H809.258V221.614H811.426V228.329C812.301 227.243 813.508 226.7 815.047 226.7C816.586 226.7 817.793 227.282 818.668 228.446C819.551 229.611 819.992 231.204 819.992 233.228V233.415ZM817.824 233.169C817.824 231.693 817.539 230.552 816.969 229.747C816.398 228.943 815.578 228.54 814.508 228.54C813.078 228.54 812.051 229.204 811.426 230.532V236.017C812.09 237.345 813.125 238.009 814.531 238.009C815.57 238.009 816.379 237.607 816.957 236.802C817.535 235.997 817.824 234.786 817.824 233.169ZM830.117 236.251C830.117 235.665 829.895 235.212 829.449 234.892C829.012 234.564 828.242 234.282 827.141 234.048C826.047 233.814 825.176 233.532 824.527 233.204C823.887 232.876 823.41 232.486 823.098 232.032C822.793 231.579 822.641 231.04 822.641 230.415C822.641 229.376 823.078 228.497 823.953 227.779C824.836 227.06 825.961 226.7 827.328 226.7C828.766 226.7 829.93 227.071 830.82 227.814C831.719 228.556 832.168 229.505 832.168 230.661H829.988C829.988 230.068 829.734 229.556 829.227 229.126C828.727 228.696 828.094 228.482 827.328 228.482C826.539 228.482 825.922 228.654 825.477 228.997C825.031 229.341 824.809 229.79 824.809 230.345C824.809 230.868 825.016 231.263 825.43 231.529C825.844 231.794 826.59 232.048 827.668 232.29C828.754 232.532 829.633 232.821 830.305 233.157C830.977 233.493 831.473 233.9 831.793 234.376C832.121 234.845 832.285 235.419 832.285 236.099C832.285 237.232 831.832 238.142 830.926 238.829C830.02 239.509 828.844 239.849 827.398 239.849C826.383 239.849 825.484 239.669 824.703 239.31C823.922 238.95 823.309 238.45 822.863 237.81C822.426 237.161 822.207 236.462 822.207 235.712H824.375C824.414 236.439 824.703 237.017 825.242 237.446C825.789 237.868 826.508 238.079 827.398 238.079C828.219 238.079 828.875 237.915 829.367 237.587C829.867 237.251 830.117 236.806 830.117 236.251ZM838.051 223.864V226.935H840.418V228.611H838.051V236.474C838.051 236.982 838.156 237.364 838.367 237.622C838.578 237.872 838.938 237.997 839.445 237.997C839.695 237.997 840.039 237.95 840.477 237.857V239.614C839.906 239.771 839.352 239.849 838.812 239.849C837.844 239.849 837.113 239.556 836.621 238.97C836.129 238.384 835.883 237.552 835.883 236.474V228.611H833.574V226.935H835.883V223.864H838.051ZM849.09 228.88C848.762 228.825 848.406 228.798 848.023 228.798C846.602 228.798 845.637 229.404 845.129 230.614V239.614H842.961V226.935H845.07L845.105 228.4C845.816 227.267 846.824 226.7 848.129 226.7C848.551 226.7 848.871 226.755 849.09 226.864V228.88ZM853.449 239.614H851.281V226.935H853.449V239.614ZM851.105 223.571C851.105 223.22 851.211 222.923 851.422 222.681C851.641 222.439 851.961 222.318 852.383 222.318C852.805 222.318 853.125 222.439 853.344 222.681C853.562 222.923 853.672 223.22 853.672 223.571C853.672 223.923 853.562 224.216 853.344 224.45C853.125 224.685 852.805 224.802 852.383 224.802C851.961 224.802 851.641 224.685 851.422 224.45C851.211 224.216 851.105 223.923 851.105 223.571ZM858.98 226.935L859.051 228.529C860.02 227.31 861.285 226.7 862.848 226.7C865.527 226.7 866.879 228.212 866.902 231.236V239.614H864.734V231.224C864.727 230.31 864.516 229.634 864.102 229.196C863.695 228.759 863.059 228.54 862.191 228.54C861.488 228.54 860.871 228.728 860.34 229.103C859.809 229.478 859.395 229.97 859.098 230.579V239.614H856.93V226.935H858.98ZM869.656 233.169C869.656 231.193 870.113 229.622 871.027 228.458C871.941 227.286 873.152 226.7 874.66 226.7C876.207 226.7 877.414 227.247 878.281 228.341L878.387 226.935H880.367V239.31C880.367 240.95 879.879 242.243 878.902 243.189C877.934 244.134 876.629 244.607 874.988 244.607C874.074 244.607 873.18 244.411 872.305 244.021C871.43 243.63 870.762 243.095 870.301 242.415L871.426 241.114C872.355 242.263 873.492 242.837 874.836 242.837C875.891 242.837 876.711 242.54 877.297 241.946C877.891 241.353 878.188 240.517 878.188 239.439V238.349C877.32 239.349 876.137 239.849 874.637 239.849C873.152 239.849 871.949 239.251 871.027 238.056C870.113 236.861 869.656 235.232 869.656 233.169ZM871.836 233.415C871.836 234.845 872.129 235.97 872.715 236.79C873.301 237.603 874.121 238.009 875.176 238.009C876.543 238.009 877.547 237.388 878.188 236.146V230.357C877.523 229.146 876.527 228.54 875.199 228.54C874.145 228.54 873.32 228.95 872.727 229.771C872.133 230.591 871.836 231.806 871.836 233.415Z" fill="black"/>
<path d="M783.488 263.734C783.488 262.774 783.656 261.91 783.992 261.142C784.344 260.374 784.8 259.726 785.36 259.198C785.92 258.654 786.56 258.246 787.28 257.974C788.016 257.686 788.768 257.542 789.536 257.542C790.416 257.542 791.192 257.686 791.864 257.974C792.552 258.246 793.128 258.63 793.592 259.126C794.056 259.606 794.408 260.19 794.648 260.878C794.888 261.566 795.008 262.318 795.008 263.134C795.008 263.406 794.992 263.662 794.96 263.902C794.944 264.142 794.92 264.334 794.888 264.478H786.32C786.416 265.534 786.832 266.35 787.568 266.926C788.304 267.486 789.208 267.766 790.28 267.766C790.888 267.766 791.456 267.686 791.984 267.526C792.512 267.35 793.048 267.11 793.592 266.806L794.528 268.534C793.888 268.934 793.176 269.262 792.392 269.518C791.608 269.774 790.784 269.902 789.92 269.902C789.024 269.902 788.184 269.766 787.4 269.494C786.616 269.206 785.936 268.798 785.36 268.27C784.784 267.742 784.328 267.102 783.992 266.35C783.656 265.582 783.488 264.71 783.488 263.734ZM792.464 262.606C792.464 261.694 792.224 260.982 791.744 260.47C791.264 259.942 790.552 259.678 789.608 259.678C788.808 259.678 788.096 259.926 787.472 260.422C786.848 260.918 786.456 261.646 786.296 262.606H792.464ZM798.359 257.83H800.639L800.855 259.606H800.951C801.511 259.046 802.127 258.566 802.799 258.166C803.487 257.75 804.287 257.542 805.199 257.542C806.559 257.542 807.559 257.958 808.199 258.79C808.839 259.606 809.159 260.782 809.159 262.318V269.614H806.375V262.678C806.375 261.718 806.207 261.022 805.871 260.59C805.551 260.142 804.983 259.918 804.167 259.918C803.591 259.918 803.079 260.054 802.631 260.326C802.183 260.598 801.687 261.014 801.143 261.574V269.614H798.359V257.83ZM812.053 263.734C812.053 262.774 812.197 261.91 812.485 261.142C812.773 260.374 813.157 259.726 813.637 259.198C814.133 258.67 814.693 258.262 815.317 257.974C815.941 257.686 816.589 257.542 817.261 257.542C817.965 257.542 818.565 257.67 819.061 257.926C819.573 258.166 820.069 258.502 820.549 258.934L820.429 256.942V252.67H823.213V269.614H820.933L820.717 268.246H820.645C820.181 268.71 819.637 269.102 819.013 269.422C818.405 269.742 817.765 269.902 817.093 269.902C816.341 269.902 815.653 269.766 815.029 269.494C814.405 269.206 813.869 268.798 813.421 268.27C812.989 267.742 812.653 267.102 812.413 266.35C812.173 265.582 812.053 264.71 812.053 263.734ZM814.909 263.71C814.909 264.99 815.157 265.966 815.653 266.638C816.149 267.294 816.853 267.622 817.765 267.622C818.741 267.622 819.629 267.15 820.429 266.206V260.902C820.013 260.502 819.597 260.222 819.181 260.062C818.765 259.902 818.341 259.822 817.909 259.822C817.493 259.822 817.101 259.91 816.733 260.086C816.381 260.262 816.069 260.518 815.797 260.854C815.525 261.174 815.309 261.574 815.149 262.054C814.989 262.534 814.909 263.086 814.909 263.71Z" fill="#B82629"/>
<path d="M816.298 169.59C816.298 168.533 816.48 167.588 816.844 166.756C817.225 165.924 817.728 165.222 818.352 164.65C818.976 164.061 819.687 163.61 820.484 163.298C821.299 162.986 822.139 162.83 823.006 162.83C823.994 162.83 824.869 162.986 825.632 163.298C826.395 163.61 827.027 164.044 827.53 164.598C828.033 165.153 828.414 165.812 828.674 166.574C828.934 167.32 829.064 168.134 829.064 169.018C829.064 169.365 829.047 169.694 829.012 170.006C828.977 170.318 828.943 170.552 828.908 170.708H820.224C820.363 171.679 820.779 172.381 821.472 172.814C822.183 173.23 823.015 173.438 823.968 173.438C824.557 173.438 825.112 173.369 825.632 173.23C826.169 173.074 826.724 172.849 827.296 172.554L828.544 174.842C827.816 175.31 827.001 175.683 826.1 175.96C825.199 176.22 824.315 176.35 823.448 176.35C822.443 176.35 821.507 176.203 820.64 175.908C819.773 175.596 819.019 175.154 818.378 174.582C817.737 173.993 817.225 173.282 816.844 172.45C816.48 171.618 816.298 170.665 816.298 169.59ZM825.606 168.186C825.606 167.458 825.407 166.869 825.008 166.418C824.609 165.968 823.968 165.742 823.084 165.742C822.391 165.742 821.775 165.942 821.238 166.34C820.701 166.739 820.345 167.354 820.172 168.186H825.606ZM832.33 163.142H835.45L835.736 164.858H835.84C836.395 164.304 837.027 163.827 837.738 163.428C838.466 163.03 839.315 162.83 840.286 162.83C841.742 162.83 842.808 163.298 843.484 164.234C844.16 165.17 844.498 166.453 844.498 168.082V176.038H840.676V168.576C840.676 167.71 840.537 167.077 840.26 166.678C839.983 166.28 839.489 166.08 838.778 166.08C838.258 166.08 837.799 166.193 837.4 166.418C837.019 166.644 836.603 166.982 836.152 167.432V176.038H832.33V163.142ZM847.27 169.59C847.27 168.533 847.426 167.588 847.738 166.756C848.05 165.924 848.457 165.222 848.96 164.65C849.48 164.061 850.069 163.61 850.728 163.298C851.386 162.986 852.071 162.83 852.782 162.83C853.527 162.83 854.151 162.96 854.654 163.22C855.156 163.463 855.633 163.792 856.084 164.208L855.954 162.206V157.812H859.776V176.038H856.656L856.37 174.712H856.292C855.806 175.18 855.252 175.57 854.628 175.882C854.004 176.194 853.362 176.35 852.704 176.35C851.889 176.35 851.144 176.194 850.468 175.882C849.809 175.57 849.237 175.128 848.752 174.556C848.284 173.967 847.92 173.256 847.66 172.424C847.4 171.592 847.27 170.648 847.27 169.59ZM851.196 169.538C851.196 170.821 851.412 171.757 851.846 172.346C852.279 172.936 852.894 173.23 853.692 173.23C854.125 173.23 854.524 173.144 854.888 172.97C855.252 172.78 855.607 172.468 855.954 172.034V166.808C855.607 166.496 855.252 166.28 854.888 166.158C854.541 166.02 854.177 165.95 853.796 165.95C853.085 165.95 852.47 166.245 851.95 166.834C851.447 167.424 851.196 168.325 851.196 169.538Z" fill="#B82629"/>
<rect x="426" y="140" width="130" height="142" fill="#FFFAF5"/>
<path d="M449.105 198.791C449.105 200.463 448.824 201.923 448.262 203.173C447.699 204.416 446.902 205.365 445.871 206.021C444.84 206.677 443.637 207.005 442.262 207.005C440.918 207.005 439.727 206.677 438.688 206.021C437.648 205.357 436.84 204.416 436.262 203.197C435.691 201.97 435.398 200.552 435.383 198.943V197.713C435.383 196.072 435.668 194.623 436.238 193.365C436.809 192.107 437.613 191.146 438.652 190.482C439.699 189.81 440.895 189.474 442.238 189.474C443.605 189.474 444.809 189.806 445.848 190.47C446.895 191.127 447.699 192.084 448.262 193.341C448.824 194.591 449.105 196.048 449.105 197.713V198.791ZM446.867 197.689C446.867 195.666 446.461 194.115 445.648 193.037C444.836 191.951 443.699 191.408 442.238 191.408C440.816 191.408 439.695 191.951 438.875 193.037C438.062 194.115 437.645 195.615 437.621 197.537V198.791C437.621 200.752 438.031 202.295 438.852 203.42C439.68 204.537 440.816 205.095 442.262 205.095C443.715 205.095 444.84 204.568 445.637 203.513C446.434 202.451 446.844 200.931 446.867 198.955V197.689ZM454.191 194.091L454.262 195.685C455.23 194.466 456.496 193.857 458.059 193.857C460.738 193.857 462.09 195.369 462.113 198.392V206.771H459.945V198.38C459.938 197.466 459.727 196.791 459.312 196.353C458.906 195.916 458.27 195.697 457.402 195.697C456.699 195.697 456.082 195.884 455.551 196.259C455.02 196.634 454.605 197.127 454.309 197.736V206.771H452.141V194.091H454.191ZM470.645 207.005C468.926 207.005 467.527 206.443 466.449 205.318C465.371 204.185 464.832 202.673 464.832 200.783V200.384C464.832 199.127 465.07 198.005 465.547 197.021C466.031 196.029 466.703 195.255 467.562 194.701C468.43 194.138 469.367 193.857 470.375 193.857C472.023 193.857 473.305 194.4 474.219 195.486C475.133 196.572 475.59 198.127 475.59 200.15V201.052H467C467.031 202.302 467.395 203.314 468.09 204.088C468.793 204.853 469.684 205.236 470.762 205.236C471.527 205.236 472.176 205.08 472.707 204.767C473.238 204.455 473.703 204.041 474.102 203.525L475.426 204.556C474.363 206.189 472.77 207.005 470.645 207.005ZM470.375 195.638C469.5 195.638 468.766 195.959 468.172 196.599C467.578 197.232 467.211 198.123 467.07 199.271H473.422V199.107C473.359 198.005 473.062 197.154 472.531 196.552C472 195.943 471.281 195.638 470.375 195.638ZM483.488 200.314C483.488 199.072 483.73 197.955 484.215 196.963C484.707 195.97 485.387 195.205 486.254 194.666C487.129 194.127 488.125 193.857 489.242 193.857C490.969 193.857 492.363 194.455 493.426 195.65C494.496 196.845 495.031 198.435 495.031 200.42V200.572C495.031 201.806 494.793 202.916 494.316 203.9C493.848 204.877 493.172 205.638 492.289 206.185C491.414 206.732 490.406 207.005 489.266 207.005C487.547 207.005 486.152 206.408 485.082 205.213C484.02 204.017 483.488 202.435 483.488 200.466V200.314ZM485.668 200.572C485.668 201.978 485.992 203.107 486.641 203.959C487.297 204.81 488.172 205.236 489.266 205.236C490.367 205.236 491.242 204.806 491.891 203.947C492.539 203.08 492.863 201.869 492.863 200.314C492.863 198.923 492.531 197.798 491.867 196.939C491.211 196.072 490.336 195.638 489.242 195.638C488.172 195.638 487.309 196.064 486.652 196.916C485.996 197.767 485.668 198.986 485.668 200.572ZM498.816 206.771V195.767H496.812V194.091H498.816V192.791C498.816 191.431 499.18 190.38 499.906 189.638C500.633 188.896 501.66 188.525 502.988 188.525C503.488 188.525 503.984 188.591 504.477 188.724L504.359 190.482C503.992 190.412 503.602 190.377 503.188 190.377C502.484 190.377 501.941 190.584 501.559 190.998C501.176 191.404 500.984 191.99 500.984 192.755V194.091H503.691V195.767H500.984V206.771H498.816ZM526.367 210.17L525.137 209.326C525.871 208.302 526.254 207.248 526.285 206.162V204.205H528.406V205.904C528.406 206.693 528.211 207.482 527.82 208.271C527.438 209.06 526.953 209.693 526.367 210.17ZM449.961 240.17L448.73 239.326C449.465 238.302 449.848 237.248 449.879 236.162V234.205H452V235.904C452 236.693 451.805 237.482 451.414 238.271C451.031 239.06 450.547 239.693 449.961 240.17ZM460.121 230.314C460.121 229.072 460.363 227.955 460.848 226.963C461.34 225.97 462.02 225.205 462.887 224.666C463.762 224.127 464.758 223.857 465.875 223.857C467.602 223.857 468.996 224.455 470.059 225.65C471.129 226.845 471.664 228.435 471.664 230.42V230.572C471.664 231.806 471.426 232.916 470.949 233.9C470.48 234.877 469.805 235.638 468.922 236.185C468.047 236.732 467.039 237.005 465.898 237.005C464.18 237.005 462.785 236.408 461.715 235.213C460.652 234.017 460.121 232.435 460.121 230.466V230.314ZM462.301 230.572C462.301 231.978 462.625 233.107 463.273 233.959C463.93 234.81 464.805 235.236 465.898 235.236C467 235.236 467.875 234.806 468.523 233.947C469.172 233.08 469.496 231.869 469.496 230.314C469.496 228.923 469.164 227.798 468.5 226.939C467.844 226.072 466.969 225.638 465.875 225.638C464.805 225.638 463.941 226.064 463.285 226.916C462.629 227.767 462.301 228.986 462.301 230.572ZM480.512 226.037C480.184 225.982 479.828 225.955 479.445 225.955C478.023 225.955 477.059 226.56 476.551 227.771V236.771H474.383V224.091H476.492L476.527 225.556C477.238 224.423 478.246 223.857 479.551 223.857C479.973 223.857 480.293 223.912 480.512 224.021V226.037Z" fill="black"/>
<path d="M511.558 194.987H513.646L513.862 196.499H513.934C514.206 195.987 514.534 195.563 514.918 195.227C515.318 194.875 515.854 194.699 516.526 194.699C517.678 194.699 518.398 195.355 518.686 196.667C518.958 196.107 519.302 195.643 519.718 195.275C520.15 194.891 520.694 194.699 521.35 194.699C522.182 194.699 522.822 195.027 523.27 195.683C523.734 196.323 523.966 197.235 523.966 198.419V206.771H521.35V198.635C521.35 197.595 521.022 197.075 520.366 197.075C520.046 197.075 519.766 197.195 519.526 197.435C519.286 197.675 519.054 198.043 518.83 198.539V206.771H516.67V198.635C516.67 197.595 516.334 197.075 515.662 197.075C515.342 197.075 515.07 197.195 514.846 197.435C514.622 197.675 514.398 198.043 514.174 198.539V206.771H511.558V194.987ZM436.784 233.483C437.456 233.947 438.152 234.315 438.872 234.587C439.608 234.843 440.432 234.971 441.344 234.971C442.272 234.971 442.952 234.843 443.384 234.587C443.816 234.315 444.032 233.971 444.032 233.555C444.032 233.139 443.752 232.795 443.192 232.523C442.632 232.235 441.752 231.931 440.552 231.611C439.992 231.467 439.448 231.291 438.92 231.083C438.392 230.875 437.928 230.635 437.528 230.363C437.128 230.091 436.808 229.779 436.568 229.427C436.328 229.075 436.208 228.675 436.208 228.227C436.208 227.187 436.656 226.339 437.552 225.683C438.448 225.027 439.736 224.699 441.416 224.699C442.376 224.699 443.28 224.859 444.128 225.179C444.976 225.499 445.704 225.859 446.312 226.259L445.04 227.963C444.512 227.611 443.944 227.331 443.336 227.123C442.744 226.899 442.112 226.787 441.44 226.787C440.528 226.787 439.888 226.915 439.52 227.171C439.152 227.411 438.968 227.715 438.968 228.083C438.968 228.291 439.048 228.483 439.208 228.659C439.384 228.819 439.616 228.971 439.904 229.115C440.208 229.243 440.56 229.371 440.96 229.499C441.36 229.627 441.8 229.747 442.28 229.859C442.968 230.035 443.584 230.235 444.128 230.459C444.688 230.667 445.16 230.907 445.544 231.179C445.944 231.451 446.248 231.771 446.456 232.139C446.68 232.507 446.792 232.931 446.792 233.411C446.792 233.923 446.672 234.403 446.432 234.851C446.192 235.283 445.84 235.667 445.376 236.003C444.912 236.323 444.336 236.579 443.648 236.771C442.96 236.963 442.168 237.059 441.272 237.059C440.168 237.059 439.112 236.883 438.104 236.531C437.096 236.179 436.224 235.747 435.488 235.235L436.784 233.483ZM488.796 219.827H491.58V224.195L491.484 226.259C491.996 225.779 492.572 225.403 493.212 225.131C493.852 224.843 494.492 224.699 495.132 224.699C495.9 224.699 496.58 224.843 497.172 225.131C497.764 225.403 498.268 225.803 498.684 226.331C499.1 226.843 499.412 227.467 499.62 228.203C499.844 228.939 499.956 229.763 499.956 230.675C499.956 231.683 499.812 232.587 499.524 233.387C499.236 234.171 498.844 234.835 498.348 235.379C497.868 235.923 497.308 236.339 496.668 236.627C496.044 236.915 495.396 237.059 494.724 237.059C494.164 237.059 493.58 236.923 492.972 236.651C492.364 236.379 491.804 235.987 491.292 235.475H491.22L490.98 236.771H488.796V219.827ZM491.58 233.699C492.012 234.099 492.46 234.379 492.924 234.539C493.388 234.699 493.804 234.779 494.172 234.779C495.004 234.779 495.7 234.443 496.26 233.771C496.82 233.083 497.1 232.067 497.1 230.723C497.1 229.539 496.884 228.619 496.452 227.963C496.02 227.307 495.324 226.979 494.364 226.979C493.916 226.979 493.46 227.091 492.996 227.315C492.532 227.539 492.06 227.899 491.58 228.395V233.699Z" fill="#B82629"/>
<path d="M467.804 161.78H470.664L470.95 163.392H471.054C471.297 162.855 471.626 162.404 472.042 162.04C472.475 161.659 473.065 161.468 473.81 161.468C474.382 161.468 474.859 161.65 475.24 162.014C475.639 162.361 475.916 162.881 476.072 163.574C476.315 162.985 476.661 162.491 477.112 162.092C477.58 161.676 478.178 161.468 478.906 161.468C479.807 161.468 480.509 161.841 481.012 162.586C481.515 163.314 481.766 164.328 481.766 165.628V174.676H478.178V165.914C478.178 165.117 477.935 164.718 477.45 164.718C476.982 164.718 476.583 165.134 476.254 165.966V174.676H473.316V165.914C473.316 165.117 473.065 164.718 472.562 164.718C472.319 164.718 472.111 164.822 471.938 165.03C471.765 165.238 471.583 165.55 471.392 165.966V174.676H467.804V161.78ZM485.552 170.62C486.297 171.088 487.043 171.461 487.788 171.738C488.551 172.016 489.365 172.154 490.232 172.154C491.116 172.154 491.749 172.059 492.13 171.868C492.511 171.678 492.702 171.409 492.702 171.062C492.702 170.664 492.381 170.343 491.74 170.1C491.116 169.84 490.284 169.563 489.244 169.268C488.672 169.112 488.109 168.93 487.554 168.722C487.017 168.497 486.531 168.237 486.098 167.942C485.665 167.63 485.309 167.275 485.032 166.876C484.772 166.478 484.642 166.018 484.642 165.498C484.642 164.909 484.781 164.363 485.058 163.86C485.335 163.358 485.725 162.933 486.228 162.586C486.748 162.24 487.372 161.971 488.1 161.78C488.845 161.572 489.677 161.468 490.596 161.468C491.74 161.468 492.78 161.659 493.716 162.04C494.669 162.404 495.484 162.803 496.16 163.236L494.444 165.524C493.855 165.178 493.248 164.892 492.624 164.666C492 164.424 491.35 164.302 490.674 164.302C489.859 164.302 489.279 164.389 488.932 164.562C488.603 164.736 488.438 164.987 488.438 165.316C488.438 165.507 488.525 165.68 488.698 165.836C488.871 165.992 489.105 166.131 489.4 166.252C489.695 166.374 490.041 166.495 490.44 166.616C490.856 166.72 491.289 166.833 491.74 166.954C492.381 167.128 492.988 167.327 493.56 167.552C494.132 167.76 494.635 168.012 495.068 168.306C495.501 168.601 495.848 168.956 496.108 169.372C496.368 169.788 496.498 170.274 496.498 170.828C496.498 171.418 496.359 171.964 496.082 172.466C495.805 172.969 495.397 173.411 494.86 173.792C494.34 174.156 493.681 174.451 492.884 174.676C492.104 174.884 491.194 174.988 490.154 174.988C488.993 174.988 487.857 174.798 486.748 174.416C485.639 174.035 484.668 173.567 483.836 173.012L485.552 170.62ZM499.92 156.45H503.742V160.922L503.638 162.95C504.14 162.482 504.704 162.118 505.328 161.858C505.969 161.598 506.602 161.468 507.226 161.468C508.023 161.468 508.742 161.624 509.384 161.936C510.042 162.248 510.588 162.69 511.022 163.262C511.472 163.817 511.819 164.502 512.062 165.316C512.304 166.114 512.426 167.006 512.426 167.994C512.426 169.104 512.27 170.092 511.958 170.958C511.646 171.825 511.23 172.562 510.71 173.168C510.19 173.758 509.592 174.208 508.916 174.52C508.257 174.832 507.564 174.988 506.836 174.988C506.229 174.988 505.622 174.841 505.016 174.546C504.426 174.252 503.863 173.827 503.326 173.272H503.222L502.91 174.676H499.92V156.45ZM503.742 171.01C504.106 171.322 504.478 171.548 504.86 171.686C505.258 171.808 505.631 171.868 505.978 171.868C506.688 171.868 507.286 171.574 507.772 170.984C508.257 170.378 508.5 169.407 508.5 168.072C508.5 165.75 507.711 164.588 506.134 164.588C505.319 164.588 504.522 164.987 503.742 165.784V171.01Z" fill="#B82629"/>
<path d="M436 14H585.62V62H436V14Z" fill="#F1F4F8"/>
<path d="M459.879 29.008H466.743V30.52H462.015V48.136H466.743V49.648H459.879V29.008ZM519.481 48.136V30.52H514.777V29.008H521.641V49.648H514.777V48.136H519.481Z" fill="#27AE60"/>
<path d="M470.309 34.216H472.397L472.613 35.728H472.685C472.957 35.216 473.285 34.792 473.669 34.456C474.069 34.104 474.605 33.928 475.277 33.928C476.429 33.928 477.149 34.584 477.437 35.896C477.709 35.336 478.053 34.872 478.469 34.504C478.901 34.12 479.445 33.928 480.101 33.928C480.933 33.928 481.573 34.256 482.021 34.912C482.485 35.552 482.717 36.464 482.717 37.648V46H480.101V37.864C480.101 36.824 479.773 36.304 479.117 36.304C478.797 36.304 478.517 36.424 478.277 36.664C478.037 36.904 477.805 37.272 477.581 37.768V46H475.421V37.864C475.421 36.824 475.085 36.304 474.413 36.304C474.093 36.304 473.821 36.424 473.597 36.664C473.373 36.904 473.149 37.272 472.925 37.768V46H470.309V34.216ZM486.332 42.712C487.004 43.176 487.7 43.544 488.42 43.816C489.156 44.072 489.98 44.2 490.892 44.2C491.82 44.2 492.5 44.072 492.932 43.816C493.364 43.544 493.58 43.2 493.58 42.784C493.58 42.368 493.3 42.024 492.74 41.752C492.18 41.464 491.3 41.16 490.1 40.84C489.54 40.696 488.996 40.52 488.468 40.312C487.94 40.104 487.476 39.864 487.076 39.592C486.676 39.32 486.356 39.008 486.116 38.656C485.876 38.304 485.756 37.904 485.756 37.456C485.756 36.416 486.204 35.568 487.1 34.912C487.996 34.256 489.284 33.928 490.964 33.928C491.924 33.928 492.828 34.088 493.676 34.408C494.524 34.728 495.252 35.088 495.86 35.488L494.588 37.192C494.06 36.84 493.492 36.56 492.884 36.352C492.292 36.128 491.66 36.016 490.988 36.016C490.076 36.016 489.436 36.144 489.068 36.4C488.7 36.64 488.516 36.944 488.516 37.312C488.516 37.52 488.596 37.712 488.756 37.888C488.932 38.048 489.164 38.2 489.452 38.344C489.756 38.472 490.108 38.6 490.508 38.728C490.908 38.856 491.348 38.976 491.828 39.088C492.516 39.264 493.132 39.464 493.676 39.688C494.236 39.896 494.708 40.136 495.092 40.408C495.492 40.68 495.796 41 496.004 41.368C496.228 41.736 496.34 42.16 496.34 42.64C496.34 43.152 496.22 43.632 495.98 44.08C495.74 44.512 495.388 44.896 494.924 45.232C494.46 45.552 493.884 45.808 493.196 46C492.508 46.192 491.716 46.288 490.82 46.288C489.716 46.288 488.66 46.112 487.652 45.76C486.644 45.408 485.772 44.976 485.036 44.464L486.332 42.712ZM499.906 29.056H502.69V33.424L502.594 35.488C503.106 35.008 503.682 34.632 504.322 34.36C504.962 34.072 505.602 33.928 506.242 33.928C507.01 33.928 507.69 34.072 508.282 34.36C508.874 34.632 509.378 35.032 509.794 35.56C510.21 36.072 510.522 36.696 510.73 37.432C510.954 38.168 511.066 38.992 511.066 39.904C511.066 40.912 510.922 41.816 510.634 42.616C510.346 43.4 509.954 44.064 509.458 44.608C508.978 45.152 508.418 45.568 507.778 45.856C507.154 46.144 506.506 46.288 505.834 46.288C505.274 46.288 504.69 46.152 504.082 45.88C503.474 45.608 502.914 45.216 502.402 44.704H502.33L502.09 46H499.906V29.056ZM502.69 42.928C503.122 43.328 503.57 43.608 504.034 43.768C504.498 43.928 504.914 44.008 505.282 44.008C506.114 44.008 506.81 43.672 507.37 43C507.93 42.312 508.21 41.296 508.21 39.952C508.21 38.768 507.994 37.848 507.562 37.192C507.13 36.536 506.434 36.208 505.474 36.208C505.026 36.208 504.57 36.32 504.106 36.544C503.642 36.768 503.17 37.128 502.69 37.624V42.928ZM528.208 40.12C528.208 39.16 528.376 38.296 528.712 37.528C529.064 36.76 529.52 36.112 530.08 35.584C530.64 35.04 531.28 34.632 532 34.36C532.736 34.072 533.488 33.928 534.256 33.928C535.136 33.928 535.912 34.072 536.584 34.36C537.272 34.632 537.848 35.016 538.312 35.512C538.776 35.992 539.128 36.576 539.368 37.264C539.608 37.952 539.728 38.704 539.728 39.52C539.728 39.792 539.712 40.048 539.68 40.288C539.664 40.528 539.64 40.72 539.608 40.864H531.04C531.136 41.92 531.552 42.736 532.288 43.312C533.024 43.872 533.928 44.152 535 44.152C535.608 44.152 536.176 44.072 536.704 43.912C537.232 43.736 537.768 43.496 538.312 43.192L539.248 44.92C538.608 45.32 537.896 45.648 537.112 45.904C536.328 46.16 535.504 46.288 534.64 46.288C533.744 46.288 532.904 46.152 532.12 45.88C531.336 45.592 530.656 45.184 530.08 44.656C529.504 44.128 529.048 43.488 528.712 42.736C528.376 41.968 528.208 41.096 528.208 40.12ZM537.184 38.992C537.184 38.08 536.944 37.368 536.464 36.856C535.984 36.328 535.272 36.064 534.328 36.064C533.528 36.064 532.816 36.312 532.192 36.808C531.568 37.304 531.176 38.032 531.016 38.992H537.184ZM543.078 34.216H545.358L545.574 35.992H545.67C546.23 35.432 546.846 34.952 547.518 34.552C548.206 34.136 549.006 33.928 549.918 33.928C551.278 33.928 552.278 34.344 552.918 35.176C553.558 35.992 553.878 37.168 553.878 38.704V46H551.094V39.064C551.094 38.104 550.926 37.408 550.59 36.976C550.27 36.528 549.702 36.304 548.886 36.304C548.31 36.304 547.798 36.44 547.35 36.712C546.902 36.984 546.406 37.4 545.862 37.96V46H543.078V34.216ZM556.773 40.12C556.773 39.16 556.917 38.296 557.205 37.528C557.493 36.76 557.877 36.112 558.357 35.584C558.853 35.056 559.413 34.648 560.037 34.36C560.661 34.072 561.309 33.928 561.981 33.928C562.685 33.928 563.285 34.056 563.781 34.312C564.293 34.552 564.789 34.888 565.269 35.32L565.149 33.328V29.056H567.933V46H565.653L565.437 44.632H565.365C564.901 45.096 564.357 45.488 563.733 45.808C563.125 46.128 562.485 46.288 561.813 46.288C561.061 46.288 560.373 46.152 559.749 45.88C559.125 45.592 558.589 45.184 558.141 44.656C557.709 44.128 557.373 43.488 557.133 42.736C556.893 41.968 556.773 41.096 556.773 40.12ZM559.629 40.096C559.629 41.376 559.877 42.352 560.373 43.024C560.869 43.68 561.573 44.008 562.485 44.008C563.461 44.008 564.349 43.536 565.149 42.592V37.288C564.733 36.888 564.317 36.608 563.901 36.448C563.485 36.288 563.061 36.208 562.629 36.208C562.213 36.208 561.821 36.296 561.453 36.472C561.101 36.648 560.789 36.904 560.517 37.24C560.245 37.56 560.029 37.96 559.869 38.44C559.709 38.92 559.629 39.472 559.629 40.096Z" fill="#B82629"/>
</svg>
