<svg width="1022" height="300" viewBox="0 0 1022 300" fill="none" xmlns="http://www.w3.org/2000/svg">
<rect width="511" height="150" transform="scale(2)" fill="white"/>
<path d="M509.316 132.707C509.72 133.097 510.353 133.097 510.731 132.707L516.883 126.346C517.26 125.956 517.239 125.323 516.835 124.933C516.432 124.543 515.799 124.543 515.421 124.933L509.953 130.587L504.108 124.933C503.704 124.543 503.071 124.543 502.693 124.933C502.316 125.323 502.337 125.956 502.74 126.346L509.316 132.707ZM507 72L509 132L511 132L509 72L507 72Z" fill="#828282"/>
<path d="M335.293 132.707C335.683 133.098 336.317 133.098 336.707 132.707L343.071 126.343C343.462 125.953 343.462 125.319 343.071 124.929C342.681 124.538 342.047 124.538 341.657 124.929L336 130.586L330.343 124.929C329.953 124.538 329.319 124.538 328.929 124.929C328.538 125.319 328.538 125.953 328.929 126.343L335.293 132.707ZM335 116V132H337V116H335Z" fill="#828282"/>
<path d="M480 72V86L336 116V132" stroke="#828282"/>
<path d="M686.707 132.707C686.317 133.098 685.683 133.098 685.293 132.707L678.929 126.343C678.538 125.953 678.538 125.319 678.929 124.929C679.319 124.538 679.953 124.538 680.343 124.929L686 130.586L691.657 124.929C692.047 124.538 692.681 124.538 693.071 124.929C693.462 125.319 693.462 125.953 693.071 126.343L686.707 132.707ZM687 116V132H685V116H687Z" fill="#828282"/>
<path d="M540 72V86L686 116V132" stroke="#828282"/>
<rect x="272" y="138" width="130" height="150" fill="#FFFAF5"/>
<path d="M287.008 198.126C285.078 197.572 283.672 196.892 282.789 196.087C281.914 195.275 281.477 194.275 281.477 193.087C281.477 191.743 282.012 190.634 283.082 189.759C284.16 188.876 285.559 188.435 287.277 188.435C288.449 188.435 289.492 188.661 290.406 189.115C291.328 189.568 292.039 190.193 292.539 190.99C293.047 191.786 293.301 192.657 293.301 193.603H291.039C291.039 192.572 290.711 191.763 290.055 191.177C289.398 190.583 288.473 190.286 287.277 190.286C286.168 190.286 285.301 190.532 284.676 191.025C284.059 191.509 283.75 192.185 283.75 193.052C283.75 193.747 284.043 194.337 284.629 194.822C285.223 195.298 286.227 195.736 287.641 196.134C289.062 196.532 290.172 196.974 290.969 197.458C291.773 197.935 292.367 198.493 292.75 199.134C293.141 199.775 293.336 200.529 293.336 201.396C293.336 202.779 292.797 203.888 291.719 204.724C290.641 205.552 289.199 205.966 287.395 205.966C286.223 205.966 285.129 205.743 284.113 205.298C283.098 204.845 282.312 204.228 281.758 203.447C281.211 202.665 280.938 201.779 280.938 200.786H283.199C283.199 201.818 283.578 202.634 284.336 203.236C285.102 203.829 286.121 204.126 287.395 204.126C288.582 204.126 289.492 203.884 290.125 203.4C290.758 202.915 291.074 202.255 291.074 201.419C291.074 200.583 290.781 199.939 290.195 199.486C289.609 199.025 288.547 198.572 287.008 198.126ZM298.832 189.982V193.052H301.199V194.728H298.832V202.591C298.832 203.099 298.938 203.482 299.148 203.74C299.359 203.99 299.719 204.115 300.227 204.115C300.477 204.115 300.82 204.068 301.258 203.974V205.732C300.688 205.888 300.133 205.966 299.594 205.966C298.625 205.966 297.895 205.673 297.402 205.087C296.91 204.501 296.664 203.669 296.664 202.591V194.728H294.355V193.052H296.664V189.982H298.832ZM311.57 205.732C311.445 205.482 311.344 205.036 311.266 204.396C310.258 205.443 309.055 205.966 307.656 205.966C306.406 205.966 305.379 205.615 304.574 204.911C303.777 204.2 303.379 203.302 303.379 202.216C303.379 200.896 303.879 199.872 304.879 199.146C305.887 198.411 307.301 198.044 309.121 198.044H311.23V197.048C311.23 196.29 311.004 195.689 310.551 195.243C310.098 194.79 309.43 194.564 308.547 194.564C307.773 194.564 307.125 194.759 306.602 195.15C306.078 195.54 305.816 196.013 305.816 196.568H303.637C303.637 195.935 303.859 195.325 304.305 194.74C304.758 194.146 305.367 193.677 306.133 193.333C306.906 192.99 307.754 192.818 308.676 192.818C310.137 192.818 311.281 193.185 312.109 193.919C312.938 194.646 313.367 195.65 313.398 196.931V202.767C313.398 203.931 313.547 204.857 313.844 205.544V205.732H311.57ZM307.973 204.079C308.652 204.079 309.297 203.904 309.906 203.552C310.516 203.2 310.957 202.743 311.23 202.181V199.579H309.531C306.875 199.579 305.547 200.357 305.547 201.911C305.547 202.591 305.773 203.122 306.227 203.505C306.68 203.888 307.262 204.079 307.973 204.079ZM322.926 194.997C322.598 194.943 322.242 194.915 321.859 194.915C320.438 194.915 319.473 195.521 318.965 196.732V205.732H316.797V193.052H318.906L318.941 194.517C319.652 193.384 320.66 192.818 321.965 192.818C322.387 192.818 322.707 192.872 322.926 192.982V194.997ZM328.457 189.982V193.052H330.824V194.728H328.457V202.591C328.457 203.099 328.562 203.482 328.773 203.74C328.984 203.99 329.344 204.115 329.852 204.115C330.102 204.115 330.445 204.068 330.883 203.974V205.732C330.312 205.888 329.758 205.966 329.219 205.966C328.25 205.966 327.52 205.673 327.027 205.087C326.535 204.501 326.289 203.669 326.289 202.591V194.728H323.98V193.052H326.289V189.982H328.457ZM346.703 202.368C346.703 201.782 346.48 201.329 346.035 201.009C345.598 200.681 344.828 200.4 343.727 200.165C342.633 199.931 341.762 199.65 341.113 199.322C340.473 198.993 339.996 198.603 339.684 198.15C339.379 197.697 339.227 197.157 339.227 196.532C339.227 195.493 339.664 194.615 340.539 193.896C341.422 193.177 342.547 192.818 343.914 192.818C345.352 192.818 346.516 193.189 347.406 193.931C348.305 194.673 348.754 195.622 348.754 196.779H346.574C346.574 196.185 346.32 195.673 345.812 195.243C345.312 194.814 344.68 194.599 343.914 194.599C343.125 194.599 342.508 194.771 342.062 195.115C341.617 195.458 341.395 195.907 341.395 196.462C341.395 196.986 341.602 197.38 342.016 197.646C342.43 197.911 343.176 198.165 344.254 198.407C345.34 198.65 346.219 198.939 346.891 199.275C347.562 199.611 348.059 200.017 348.379 200.493C348.707 200.962 348.871 201.536 348.871 202.216C348.871 203.349 348.418 204.259 347.512 204.947C346.605 205.626 345.43 205.966 343.984 205.966C342.969 205.966 342.07 205.786 341.289 205.427C340.508 205.068 339.895 204.568 339.449 203.927C339.012 203.279 338.793 202.579 338.793 201.829H340.961C341 202.556 341.289 203.134 341.828 203.564C342.375 203.986 343.094 204.197 343.984 204.197C344.805 204.197 345.461 204.032 345.953 203.704C346.453 203.368 346.703 202.923 346.703 202.368ZM356.957 205.966C355.238 205.966 353.84 205.404 352.762 204.279C351.684 203.146 351.145 201.634 351.145 199.743V199.345C351.145 198.087 351.383 196.966 351.859 195.982C352.344 194.99 353.016 194.216 353.875 193.661C354.742 193.099 355.68 192.818 356.688 192.818C358.336 192.818 359.617 193.361 360.531 194.447C361.445 195.532 361.902 197.087 361.902 199.111V200.013H353.312C353.344 201.263 353.707 202.275 354.402 203.048C355.105 203.814 355.996 204.197 357.074 204.197C357.84 204.197 358.488 204.04 359.02 203.728C359.551 203.415 360.016 203.001 360.414 202.486L361.738 203.517C360.676 205.15 359.082 205.966 356.957 205.966ZM356.688 194.599C355.812 194.599 355.078 194.919 354.484 195.56C353.891 196.193 353.523 197.083 353.383 198.232H359.734V198.068C359.672 196.966 359.375 196.115 358.844 195.513C358.312 194.904 357.594 194.599 356.688 194.599ZM367.363 189.982V193.052H369.73V194.728H367.363V202.591C367.363 203.099 367.469 203.482 367.68 203.74C367.891 203.99 368.25 204.115 368.758 204.115C369.008 204.115 369.352 204.068 369.789 203.974V205.732C369.219 205.888 368.664 205.966 368.125 205.966C367.156 205.966 366.426 205.673 365.934 205.087C365.441 204.501 365.195 203.669 365.195 202.591V194.728H362.887V193.052H365.195V189.982H367.363Z" fill="black"/>
<path d="M333.684 154.869H341.354V156.897H336.596V175.201H341.354V177.229H333.684V154.869Z" fill="#219653"/>
<rect x="620" y="138" width="130" height="150" fill="#FFFAF5"/>
<path d="M639.625 203.333H632.23V209.38H640.82V211.219H629.98V194.157H640.703V196.009H632.23V201.493H639.625V203.333ZM645.332 198.54L645.402 200.134C646.371 198.915 647.637 198.305 649.199 198.305C651.879 198.305 653.23 199.817 653.254 202.841V211.219H651.086V202.829C651.078 201.915 650.867 201.239 650.453 200.802C650.047 200.364 649.41 200.145 648.543 200.145C647.84 200.145 647.223 200.333 646.691 200.708C646.16 201.083 645.746 201.575 645.449 202.184V211.219H643.281V198.54H645.332ZM655.996 204.774C655.996 202.829 656.457 201.266 657.379 200.087C658.301 198.899 659.508 198.305 661 198.305C662.484 198.305 663.66 198.813 664.527 199.829V193.219H666.695V211.219H664.703L664.598 209.86C663.73 210.923 662.523 211.454 660.977 211.454C659.508 211.454 658.309 210.852 657.379 209.649C656.457 208.446 655.996 206.876 655.996 204.938V204.774ZM658.164 205.02C658.164 206.458 658.461 207.583 659.055 208.395C659.648 209.208 660.469 209.614 661.516 209.614C662.891 209.614 663.895 208.997 664.527 207.762V201.938C663.879 200.743 662.883 200.145 661.539 200.145C660.477 200.145 659.648 200.555 659.055 201.376C658.461 202.196 658.164 203.411 658.164 205.02ZM683.406 207.856C683.406 207.27 683.184 206.817 682.738 206.497C682.301 206.169 681.531 205.887 680.43 205.653C679.336 205.419 678.465 205.137 677.816 204.809C677.176 204.481 676.699 204.091 676.387 203.637C676.082 203.184 675.93 202.645 675.93 202.02C675.93 200.981 676.367 200.102 677.242 199.384C678.125 198.665 679.25 198.305 680.617 198.305C682.055 198.305 683.219 198.677 684.109 199.419C685.008 200.161 685.457 201.11 685.457 202.266H683.277C683.277 201.673 683.023 201.161 682.516 200.731C682.016 200.302 681.383 200.087 680.617 200.087C679.828 200.087 679.211 200.259 678.766 200.602C678.32 200.946 678.098 201.395 678.098 201.95C678.098 202.473 678.305 202.868 678.719 203.134C679.133 203.399 679.879 203.653 680.957 203.895C682.043 204.137 682.922 204.427 683.594 204.762C684.266 205.098 684.762 205.505 685.082 205.981C685.41 206.45 685.574 207.024 685.574 207.704C685.574 208.837 685.121 209.747 684.215 210.434C683.309 211.114 682.133 211.454 680.688 211.454C679.672 211.454 678.773 211.274 677.992 210.915C677.211 210.555 676.598 210.055 676.152 209.415C675.715 208.766 675.496 208.067 675.496 207.317H677.664C677.703 208.044 677.992 208.622 678.531 209.052C679.078 209.473 679.797 209.684 680.688 209.684C681.508 209.684 682.164 209.52 682.656 209.192C683.156 208.856 683.406 208.411 683.406 207.856ZM693.66 211.454C691.941 211.454 690.543 210.891 689.465 209.766C688.387 208.634 687.848 207.122 687.848 205.231V204.833C687.848 203.575 688.086 202.454 688.562 201.469C689.047 200.477 689.719 199.704 690.578 199.149C691.445 198.587 692.383 198.305 693.391 198.305C695.039 198.305 696.32 198.848 697.234 199.934C698.148 201.02 698.605 202.575 698.605 204.598V205.501H690.016C690.047 206.751 690.41 207.762 691.105 208.536C691.809 209.302 692.699 209.684 693.777 209.684C694.543 209.684 695.191 209.528 695.723 209.216C696.254 208.903 696.719 208.489 697.117 207.973L698.441 209.005C697.379 210.637 695.785 211.454 693.66 211.454ZM693.391 200.087C692.516 200.087 691.781 200.407 691.188 201.048C690.594 201.68 690.227 202.571 690.086 203.719H696.438V203.555C696.375 202.454 696.078 201.602 695.547 201.001C695.016 200.391 694.297 200.087 693.391 200.087ZM704.066 195.469V198.54H706.434V200.216H704.066V208.079C704.066 208.587 704.172 208.969 704.383 209.227C704.594 209.477 704.953 209.602 705.461 209.602C705.711 209.602 706.055 209.555 706.492 209.462V211.219C705.922 211.376 705.367 211.454 704.828 211.454C703.859 211.454 703.129 211.161 702.637 210.575C702.145 209.989 701.898 209.157 701.898 208.079V200.216H699.59V198.54H701.898V195.469H704.066Z" fill="black"/>
<path d="M683.92 176.657V158.353H679.188V156.325H686.858V178.685H679.188V176.657H683.92Z" fill="#219653"/>
<rect x="446" y="138" width="130" height="150" fill="#FFFAF5"/>
<path d="M479.105 205.239C479.105 206.911 478.824 208.372 478.262 209.622C477.699 210.864 476.902 211.813 475.871 212.469C474.84 213.126 473.637 213.454 472.262 213.454C470.918 213.454 469.727 213.126 468.688 212.469C467.648 211.805 466.84 210.864 466.262 209.645C465.691 208.419 465.398 207.001 465.383 205.391V204.161C465.383 202.52 465.668 201.071 466.238 199.813C466.809 198.555 467.613 197.594 468.652 196.93C469.699 196.259 470.895 195.923 472.238 195.923C473.605 195.923 474.809 196.255 475.848 196.919C476.895 197.575 477.699 198.532 478.262 199.79C478.824 201.04 479.105 202.497 479.105 204.161V205.239ZM476.867 204.137C476.867 202.114 476.461 200.563 475.648 199.485C474.836 198.399 473.699 197.856 472.238 197.856C470.816 197.856 469.695 198.399 468.875 199.485C468.062 200.563 467.645 202.063 467.621 203.985V205.239C467.621 207.2 468.031 208.743 468.852 209.868C469.68 210.985 470.816 211.544 472.262 211.544C473.715 211.544 474.84 211.016 475.637 209.962C476.434 208.899 476.844 207.38 476.867 205.403V204.137ZM484.191 200.54L484.262 202.134C485.23 200.915 486.496 200.305 488.059 200.305C490.738 200.305 492.09 201.817 492.113 204.841V213.219H489.945V204.829C489.938 203.915 489.727 203.239 489.312 202.802C488.906 202.364 488.27 202.145 487.402 202.145C486.699 202.145 486.082 202.333 485.551 202.708C485.02 203.083 484.605 203.575 484.309 204.184V213.219H482.141V200.54H484.191ZM500.645 213.454C498.926 213.454 497.527 212.891 496.449 211.766C495.371 210.634 494.832 209.122 494.832 207.231V206.833C494.832 205.575 495.07 204.454 495.547 203.469C496.031 202.477 496.703 201.704 497.562 201.149C498.43 200.587 499.367 200.305 500.375 200.305C502.023 200.305 503.305 200.848 504.219 201.934C505.133 203.02 505.59 204.575 505.59 206.598V207.501H497C497.031 208.751 497.395 209.762 498.09 210.536C498.793 211.302 499.684 211.684 500.762 211.684C501.527 211.684 502.176 211.528 502.707 211.216C503.238 210.903 503.703 210.489 504.102 209.973L505.426 211.005C504.363 212.637 502.77 213.454 500.645 213.454ZM500.375 202.087C499.5 202.087 498.766 202.407 498.172 203.048C497.578 203.68 497.211 204.571 497.07 205.719H503.422V205.555C503.359 204.454 503.062 203.602 502.531 203.001C502 202.391 501.281 202.087 500.375 202.087ZM513.488 206.762C513.488 205.52 513.73 204.403 514.215 203.411C514.707 202.419 515.387 201.653 516.254 201.114C517.129 200.575 518.125 200.305 519.242 200.305C520.969 200.305 522.363 200.903 523.426 202.098C524.496 203.294 525.031 204.884 525.031 206.868V207.02C525.031 208.255 524.793 209.364 524.316 210.348C523.848 211.325 523.172 212.087 522.289 212.634C521.414 213.18 520.406 213.454 519.266 213.454C517.547 213.454 516.152 212.856 515.082 211.661C514.02 210.466 513.488 208.884 513.488 206.915V206.762ZM515.668 207.02C515.668 208.427 515.992 209.555 516.641 210.407C517.297 211.259 518.172 211.684 519.266 211.684C520.367 211.684 521.242 211.255 521.891 210.395C522.539 209.528 522.863 208.317 522.863 206.762C522.863 205.372 522.531 204.247 521.867 203.387C521.211 202.52 520.336 202.087 519.242 202.087C518.172 202.087 517.309 202.512 516.652 203.364C515.996 204.216 515.668 205.434 515.668 207.02ZM528.816 213.219V202.216H526.812V200.54H528.816V199.239C528.816 197.88 529.18 196.829 529.906 196.087C530.633 195.344 531.66 194.973 532.988 194.973C533.488 194.973 533.984 195.04 534.477 195.173L534.359 196.93C533.992 196.86 533.602 196.825 533.188 196.825C532.484 196.825 531.941 197.032 531.559 197.446C531.176 197.852 530.984 198.438 530.984 199.204V200.54H533.691V202.216H530.984V213.219H528.816ZM556.367 216.618L555.137 215.774C555.871 214.751 556.254 213.696 556.285 212.61V210.653H558.406V212.352C558.406 213.141 558.211 213.93 557.82 214.719C557.438 215.509 556.953 216.141 556.367 216.618ZM479.961 246.618L478.73 245.774C479.465 244.751 479.848 243.696 479.879 242.61V240.653H482V242.352C482 243.141 481.805 243.93 481.414 244.719C481.031 245.509 480.547 246.141 479.961 246.618ZM490.121 236.762C490.121 235.52 490.363 234.403 490.848 233.411C491.34 232.419 492.02 231.653 492.887 231.114C493.762 230.575 494.758 230.305 495.875 230.305C497.602 230.305 498.996 230.903 500.059 232.098C501.129 233.294 501.664 234.884 501.664 236.868V237.02C501.664 238.255 501.426 239.364 500.949 240.348C500.48 241.325 499.805 242.087 498.922 242.634C498.047 243.18 497.039 243.454 495.898 243.454C494.18 243.454 492.785 242.856 491.715 241.661C490.652 240.466 490.121 238.884 490.121 236.915V236.762ZM492.301 237.02C492.301 238.427 492.625 239.555 493.273 240.407C493.93 241.259 494.805 241.684 495.898 241.684C497 241.684 497.875 241.255 498.523 240.395C499.172 239.528 499.496 238.317 499.496 236.762C499.496 235.372 499.164 234.247 498.5 233.387C497.844 232.52 496.969 232.087 495.875 232.087C494.805 232.087 493.941 232.512 493.285 233.364C492.629 234.216 492.301 235.434 492.301 237.02ZM510.512 232.485C510.184 232.43 509.828 232.403 509.445 232.403C508.023 232.403 507.059 233.009 506.551 234.219V243.219H504.383V230.54H506.492L506.527 232.005C507.238 230.872 508.246 230.305 509.551 230.305C509.973 230.305 510.293 230.36 510.512 230.469V232.485Z" fill="black"/>
<path d="M545.158 214.179V217.875H542.374V201.435H544.654L544.87 202.779H544.942C545.454 202.315 546.038 201.931 546.694 201.627C547.366 201.307 548.038 201.147 548.71 201.147C549.478 201.147 550.158 201.291 550.75 201.579C551.358 201.851 551.862 202.251 552.262 202.779C552.678 203.307 552.99 203.939 553.198 204.675C553.422 205.411 553.534 206.235 553.534 207.147C553.534 208.155 553.39 209.059 553.102 209.859C552.814 210.643 552.422 211.307 551.926 211.851C551.446 212.379 550.886 212.787 550.246 213.075C549.622 213.363 548.974 213.507 548.302 213.507C547.758 213.507 547.198 213.387 546.622 213.147C546.062 212.907 545.542 212.563 545.062 212.115L545.158 214.179ZM545.158 210.147C545.59 210.547 546.03 210.827 546.478 210.987C546.942 211.147 547.358 211.227 547.726 211.227C548.574 211.227 549.278 210.891 549.838 210.219C550.398 209.531 550.678 208.515 550.678 207.171C550.678 205.987 550.462 205.067 550.03 204.411C549.598 203.755 548.902 203.427 547.942 203.427C547.494 203.427 547.038 203.539 546.574 203.763C546.11 203.987 545.638 204.347 545.158 204.843V210.147ZM465.272 237.339C465.272 236.379 465.416 235.515 465.704 234.747C465.992 233.979 466.376 233.331 466.856 232.803C467.352 232.275 467.912 231.867 468.536 231.579C469.16 231.291 469.808 231.147 470.48 231.147C471.184 231.147 471.784 231.275 472.28 231.531C472.792 231.771 473.288 232.107 473.768 232.539L473.648 230.547V226.275H476.432V243.219H474.152L473.936 241.851H473.864C473.4 242.315 472.856 242.707 472.232 243.027C471.624 243.347 470.984 243.507 470.312 243.507C469.56 243.507 468.872 243.371 468.248 243.099C467.624 242.811 467.088 242.403 466.64 241.875C466.208 241.347 465.872 240.707 465.632 239.955C465.392 239.187 465.272 238.315 465.272 237.339ZM468.128 237.315C468.128 238.595 468.376 239.571 468.872 240.243C469.368 240.899 470.072 241.227 470.984 241.227C471.96 241.227 472.848 240.755 473.648 239.811V234.507C473.232 234.107 472.816 233.827 472.4 233.667C471.984 233.507 471.56 233.427 471.128 233.427C470.712 233.427 470.32 233.515 469.952 233.691C469.6 233.867 469.288 234.123 469.016 234.459C468.744 234.779 468.528 235.179 468.368 235.659C468.208 236.139 468.128 236.691 468.128 237.315ZM530.22 228.675C529.788 228.499 529.364 228.371 528.948 228.291C528.548 228.211 528.108 228.171 527.628 228.171C526.716 228.171 526.052 228.395 525.636 228.843C525.236 229.275 525.036 229.907 525.036 230.739V231.435H529.524V233.619H525.036V243.219H522.3V233.619H519.036V231.555L522.3 231.435V230.787C522.3 230.099 522.396 229.459 522.588 228.867C522.78 228.275 523.076 227.771 523.476 227.355C523.892 226.923 524.412 226.587 525.036 226.347C525.676 226.107 526.428 225.987 527.292 225.987C527.932 225.987 528.54 226.043 529.116 226.155C529.708 226.267 530.268 226.427 530.796 226.635L530.22 228.675Z" fill="#B82629"/>
<path d="M492.562 174.291V178.061H488.74V160.381H491.86L492.146 161.681H492.224C492.744 161.213 493.342 160.832 494.018 160.537C494.694 160.225 495.379 160.069 496.072 160.069C496.869 160.069 497.589 160.225 498.23 160.537C498.871 160.849 499.417 161.291 499.868 161.863C500.319 162.435 500.657 163.128 500.882 163.943C501.125 164.74 501.246 165.633 501.246 166.621C501.246 167.73 501.09 168.718 500.778 169.585C500.466 170.434 500.05 171.162 499.53 171.769C499.01 172.358 498.412 172.809 497.736 173.121C497.077 173.433 496.384 173.589 495.656 173.589C494.477 173.589 493.403 173.121 492.432 172.185L492.562 174.291ZM492.562 169.611C492.926 169.923 493.299 170.148 493.68 170.287C494.079 170.408 494.443 170.469 494.772 170.469C495.5 170.469 496.107 170.174 496.592 169.585C497.077 168.978 497.32 168.008 497.32 166.673C497.32 164.35 496.531 163.189 494.954 163.189C494.139 163.189 493.342 163.588 492.562 164.385V169.611ZM503.68 166.829C503.68 165.772 503.836 164.827 504.148 163.995C504.46 163.163 504.867 162.461 505.37 161.889C505.89 161.3 506.479 160.849 507.138 160.537C507.797 160.225 508.481 160.069 509.192 160.069C509.937 160.069 510.561 160.199 511.064 160.459C511.567 160.702 512.043 161.031 512.494 161.447L512.364 159.445V155.051H516.186V173.277H513.066L512.78 171.951H512.702C512.217 172.419 511.662 172.809 511.038 173.121C510.414 173.433 509.773 173.589 509.114 173.589C508.299 173.589 507.554 173.433 506.878 173.121C506.219 172.809 505.647 172.367 505.162 171.795C504.694 171.206 504.33 170.495 504.07 169.663C503.81 168.831 503.68 167.886 503.68 166.829ZM507.606 166.777C507.606 168.06 507.823 168.996 508.256 169.585C508.689 170.174 509.305 170.469 510.102 170.469C510.535 170.469 510.934 170.382 511.298 170.209C511.662 170.018 512.017 169.706 512.364 169.273V164.047C512.017 163.735 511.662 163.518 511.298 163.397C510.951 163.258 510.587 163.189 510.206 163.189C509.495 163.189 508.88 163.484 508.36 164.073C507.857 164.662 507.606 165.564 507.606 166.777ZM532.53 158.249C531.68 157.92 530.779 157.755 529.826 157.755C528.994 157.755 528.378 157.937 527.98 158.301C527.598 158.665 527.408 159.237 527.408 160.017V160.381H531.854V163.371H527.408V173.277H523.586V163.371H520.18V160.537L523.586 160.381V160.043C523.586 159.298 523.698 158.604 523.924 157.963C524.149 157.322 524.496 156.767 524.964 156.299C525.432 155.814 526.03 155.432 526.758 155.155C527.486 154.878 528.352 154.739 529.358 154.739C530.103 154.739 530.796 154.808 531.438 154.947C532.096 155.086 532.703 155.25 533.258 155.441L532.53 158.249Z" fill="#B82629"/>
<path d="M432 14H581.62V62H432V14Z" fill="#F1F4F8"/>
<path d="M477.465 29.008H484.329V30.52H479.601V48.136H484.329V49.648H477.465V29.008ZM537.067 48.136V30.52H532.363V29.008H539.227V49.648H532.363V48.136H537.067Z" fill="#219653"/>
<path d="M491.495 46.96V50.656H488.711V34.216H490.991L491.207 35.56H491.279C491.791 35.096 492.375 34.712 493.031 34.408C493.703 34.088 494.375 33.928 495.047 33.928C495.815 33.928 496.495 34.072 497.087 34.36C497.695 34.632 498.199 35.032 498.599 35.56C499.015 36.088 499.327 36.72 499.535 37.456C499.759 38.192 499.871 39.016 499.871 39.928C499.871 40.936 499.727 41.84 499.439 42.64C499.151 43.424 498.759 44.088 498.263 44.632C497.783 45.16 497.223 45.568 496.583 45.856C495.959 46.144 495.311 46.288 494.639 46.288C494.095 46.288 493.535 46.168 492.959 45.928C492.399 45.688 491.879 45.344 491.399 44.896L491.495 46.96ZM491.495 42.928C491.927 43.328 492.367 43.608 492.815 43.768C493.279 43.928 493.695 44.008 494.063 44.008C494.911 44.008 495.615 43.672 496.175 43C496.735 42.312 497.015 41.296 497.015 39.952C497.015 38.768 496.799 37.848 496.367 37.192C495.935 36.536 495.239 36.208 494.279 36.208C493.831 36.208 493.375 36.32 492.911 36.544C492.447 36.768 491.975 37.128 491.495 37.624V42.928ZM502.406 40.12C502.406 39.16 502.55 38.296 502.838 37.528C503.126 36.76 503.51 36.112 503.99 35.584C504.486 35.056 505.046 34.648 505.67 34.36C506.294 34.072 506.942 33.928 507.614 33.928C508.318 33.928 508.918 34.056 509.414 34.312C509.926 34.552 510.422 34.888 510.902 35.32L510.782 33.328V29.056H513.566V46H511.286L511.07 44.632H510.998C510.534 45.096 509.99 45.488 509.366 45.808C508.758 46.128 508.118 46.288 507.446 46.288C506.694 46.288 506.006 46.152 505.382 45.88C504.758 45.592 504.222 45.184 503.774 44.656C503.342 44.128 503.006 43.488 502.766 42.736C502.526 41.968 502.406 41.096 502.406 40.12ZM505.262 40.096C505.262 41.376 505.51 42.352 506.006 43.024C506.502 43.68 507.206 44.008 508.118 44.008C509.094 44.008 509.982 43.536 510.782 42.592V37.288C510.366 36.888 509.95 36.608 509.534 36.448C509.118 36.288 508.694 36.208 508.262 36.208C507.846 36.208 507.454 36.296 507.086 36.472C506.734 36.648 506.422 36.904 506.15 37.24C505.878 37.56 505.662 37.96 505.502 38.44C505.342 38.92 505.262 39.472 505.262 40.096ZM528.916 31.456C528.484 31.28 528.06 31.152 527.644 31.072C527.244 30.992 526.804 30.952 526.324 30.952C525.412 30.952 524.748 31.176 524.332 31.624C523.932 32.056 523.732 32.688 523.732 33.52V34.216H528.22V36.4H523.732V46H520.996V36.4H517.732V34.336L520.996 34.216V33.568C520.996 32.88 521.092 32.24 521.284 31.648C521.476 31.056 521.772 30.552 522.172 30.136C522.588 29.704 523.108 29.368 523.732 29.128C524.372 28.888 525.124 28.768 525.988 28.768C526.628 28.768 527.236 28.824 527.812 28.936C528.404 29.048 528.964 29.208 529.492 29.416L528.916 31.456Z" fill="#B82629"/>
</svg>
