<svg width="470" height="96" viewBox="0 0 470 96" fill="none" xmlns="http://www.w3.org/2000/svg">
<rect width="470" height="96" fill="white"/>
<path d="M27.9336 53.3213C27.5 53.9424 26.8936 54.4082 26.1143 54.7188C25.3408 55.0234 24.4385 55.1758 23.4072 55.1758C22.3643 55.1758 21.4385 54.9326 20.6299 54.4463C19.8213 53.9541 19.1943 53.2568 18.749 52.3545C18.3096 51.4521 18.084 50.4062 18.0723 49.2168V48.1006C18.0723 46.1729 18.5205 44.6787 19.417 43.6182C20.3193 42.5576 21.585 42.0273 23.2139 42.0273C24.5498 42.0273 25.625 42.3701 26.4395 43.0557C27.2539 43.7354 27.752 44.7021 27.9336 45.9561H26.2461C25.9297 44.2627 24.9219 43.416 23.2227 43.416C22.0918 43.416 21.2334 43.8145 20.6475 44.6113C20.0674 45.4023 19.7744 46.5508 19.7686 48.0566V49.1025C19.7686 50.5381 20.0967 51.6807 20.7529 52.5303C21.4092 53.374 22.2969 53.7959 23.416 53.7959C24.0488 53.7959 24.6025 53.7256 25.0771 53.585C25.5518 53.4443 25.9443 53.207 26.2549 52.873V49.999H23.293V48.6279H27.9336V53.3213ZM35.0967 46.9492C34.8506 46.9082 34.584 46.8877 34.2969 46.8877C33.2305 46.8877 32.5068 47.3418 32.126 48.25V55H30.5V45.4902H32.082L32.1084 46.5889C32.6416 45.7393 33.3975 45.3145 34.376 45.3145C34.6924 45.3145 34.9326 45.3555 35.0967 45.4375V46.9492ZM35.9932 50.1572C35.9932 49.2256 36.1748 48.3877 36.5381 47.6436C36.9072 46.8994 37.417 46.3252 38.0674 45.9209C38.7236 45.5166 39.4707 45.3145 40.3086 45.3145C41.6035 45.3145 42.6494 45.7627 43.4463 46.6592C44.249 47.5557 44.6504 48.748 44.6504 50.2363V50.3506C44.6504 51.2764 44.4717 52.1084 44.1143 52.8467C43.7627 53.5791 43.2559 54.1504 42.5938 54.5605C41.9375 54.9707 41.1816 55.1758 40.3262 55.1758C39.0371 55.1758 37.9912 54.7275 37.1885 53.8311C36.3916 52.9346 35.9932 51.748 35.9932 50.2715V50.1572ZM37.6279 50.3506C37.6279 51.4053 37.8711 52.252 38.3574 52.8906C38.8496 53.5293 39.5059 53.8486 40.3262 53.8486C41.1523 53.8486 41.8086 53.5264 42.2949 52.8818C42.7812 52.2314 43.0244 51.3232 43.0244 50.1572C43.0244 49.1143 42.7754 48.2705 42.2773 47.626C41.7852 46.9756 41.1289 46.6504 40.3086 46.6504C39.5059 46.6504 38.8584 46.9697 38.3662 47.6084C37.874 48.2471 37.6279 49.1611 37.6279 50.3506ZM52.5605 54.0596C51.9277 54.8037 50.999 55.1758 49.7744 55.1758C48.7607 55.1758 47.9873 54.8828 47.4541 54.2969C46.9268 53.7051 46.6602 52.832 46.6543 51.6777V45.4902H48.2803V51.6338C48.2803 53.0752 48.8662 53.7959 50.0381 53.7959C51.2803 53.7959 52.1064 53.333 52.5166 52.4072V45.4902H54.1426V55H52.5957L52.5605 54.0596ZM64.6543 50.3506C64.6543 51.7979 64.3232 52.9639 63.6611 53.8486C62.999 54.7334 62.1025 55.1758 60.9717 55.1758C59.8174 55.1758 58.9092 54.8096 58.2471 54.0771V58.6562H56.6211V45.4902H58.1064L58.1855 46.5449C58.8477 45.7246 59.7676 45.3145 60.9453 45.3145C62.0879 45.3145 62.9902 45.7451 63.6523 46.6064C64.3203 47.4678 64.6543 48.666 64.6543 50.2012V50.3506ZM63.0283 50.166C63.0283 49.0938 62.7998 48.2471 62.3428 47.626C61.8857 47.0049 61.2588 46.6943 60.4619 46.6943C59.4775 46.6943 58.7393 47.1309 58.2471 48.0039V52.5479C58.7334 53.415 59.4775 53.8486 60.4795 53.8486C61.2588 53.8486 61.877 53.541 62.334 52.9258C62.7969 52.3047 63.0283 51.3848 63.0283 50.166ZM66.9834 55V42.2031H71.167C72.5557 42.2031 73.5986 42.4902 74.2959 43.0645C74.999 43.6387 75.3506 44.4883 75.3506 45.6133C75.3506 46.2109 75.1807 46.7412 74.8408 47.2041C74.501 47.6611 74.0381 48.0156 73.4521 48.2676C74.1436 48.4609 74.6885 48.8301 75.0869 49.375C75.4912 49.9141 75.6934 50.5586 75.6934 51.3086C75.6934 52.457 75.3213 53.3594 74.5771 54.0156C73.833 54.6719 72.7812 55 71.4219 55H66.9834ZM68.6709 49.0146V53.6201H71.457C72.2422 53.6201 72.8604 53.418 73.3115 53.0137C73.7686 52.6035 73.9971 52.041 73.9971 51.3262C73.9971 49.7852 73.1592 49.0146 71.4834 49.0146H68.6709ZM68.6709 47.6611H71.2197C71.958 47.6611 72.5469 47.4766 72.9863 47.1074C73.4316 46.7383 73.6543 46.2373 73.6543 45.6045C73.6543 44.9014 73.4492 44.3916 73.0391 44.0752C72.6289 43.7529 72.0049 43.5918 71.167 43.5918H68.6709V47.6611ZM81.0547 52.6182L83.2695 45.4902H85.0098L81.1865 56.4678C80.5947 58.0498 79.6543 58.8408 78.3652 58.8408L78.0576 58.8145L77.4512 58.7002V57.3818L77.8906 57.417C78.4414 57.417 78.8691 57.3057 79.1738 57.083C79.4844 56.8604 79.7393 56.4531 79.9385 55.8613L80.2988 54.8945L76.9062 45.4902H78.6816L81.0547 52.6182ZM85.5547 54.1475C85.5547 53.8662 85.6367 53.6318 85.8008 53.4443C85.9707 53.2568 86.2227 53.1631 86.5566 53.1631C86.8906 53.1631 87.1426 53.2568 87.3125 53.4443C87.4883 53.6318 87.5762 53.8662 87.5762 54.1475C87.5762 54.417 87.4883 54.6426 87.3125 54.8242C87.1426 55.0059 86.8906 55.0967 86.5566 55.0967C86.2227 55.0967 85.9707 55.0059 85.8008 54.8242C85.6367 54.6426 85.5547 54.417 85.5547 54.1475ZM96.1367 55C96.043 54.8125 95.9668 54.4785 95.9082 53.998C95.1523 54.7832 94.25 55.1758 93.2012 55.1758C92.2637 55.1758 91.4932 54.9121 90.8896 54.3848C90.292 53.8516 89.9932 53.1777 89.9932 52.3633C89.9932 51.373 90.3682 50.6055 91.1182 50.0605C91.874 49.5098 92.9346 49.2344 94.2998 49.2344H95.8818V48.4873C95.8818 47.9189 95.7119 47.4678 95.3721 47.1338C95.0322 46.7939 94.5312 46.624 93.8691 46.624C93.2891 46.624 92.8027 46.7705 92.4102 47.0635C92.0176 47.3564 91.8213 47.7109 91.8213 48.127H90.1865C90.1865 47.6523 90.3535 47.1953 90.6875 46.7559C91.0273 46.3105 91.4844 45.959 92.0586 45.7012C92.6387 45.4434 93.2744 45.3145 93.9658 45.3145C95.0615 45.3145 95.9199 45.5898 96.541 46.1406C97.1621 46.6855 97.4844 47.4385 97.5078 48.3994V52.7764C97.5078 53.6494 97.6191 54.3438 97.8418 54.8594V55H96.1367ZM93.4385 53.7607C93.9482 53.7607 94.4316 53.6289 94.8887 53.3652C95.3457 53.1016 95.6768 52.7588 95.8818 52.3369V50.3857H94.6074C92.6152 50.3857 91.6191 50.9688 91.6191 52.1348C91.6191 52.6445 91.7891 53.043 92.1289 53.3301C92.4688 53.6172 92.9053 53.7607 93.4385 53.7607ZM99.6699 50.166C99.6699 48.6836 100.013 47.5059 100.698 46.6328C101.384 45.7539 102.292 45.3145 103.423 45.3145C104.583 45.3145 105.488 45.7246 106.139 46.5449L106.218 45.4902H107.703V54.7715C107.703 56.002 107.337 56.9717 106.604 57.6807C105.878 58.3896 104.899 58.7441 103.669 58.7441C102.983 58.7441 102.312 58.5977 101.656 58.3047C101 58.0117 100.499 57.6104 100.153 57.1006L100.997 56.125C101.694 56.9863 102.547 57.417 103.555 57.417C104.346 57.417 104.961 57.1943 105.4 56.749C105.846 56.3037 106.068 55.6768 106.068 54.8682V54.0508C105.418 54.8008 104.53 55.1758 103.405 55.1758C102.292 55.1758 101.39 54.7275 100.698 53.8311C100.013 52.9346 99.6699 51.7129 99.6699 50.166ZM101.305 50.3506C101.305 51.4229 101.524 52.2666 101.964 52.8818C102.403 53.4912 103.019 53.7959 103.81 53.7959C104.835 53.7959 105.588 53.3301 106.068 52.3984V48.0566C105.57 47.1484 104.823 46.6943 103.827 46.6943C103.036 46.6943 102.418 47.002 101.973 47.6172C101.527 48.2324 101.305 49.1436 101.305 50.3506ZM109.777 50.166C109.777 48.6836 110.12 47.5059 110.806 46.6328C111.491 45.7539 112.399 45.3145 113.53 45.3145C114.69 45.3145 115.596 45.7246 116.246 46.5449L116.325 45.4902H117.811V54.7715C117.811 56.002 117.444 56.9717 116.712 57.6807C115.985 58.3896 115.007 58.7441 113.776 58.7441C113.091 58.7441 112.42 58.5977 111.764 58.3047C111.107 58.0117 110.606 57.6104 110.261 57.1006L111.104 56.125C111.802 56.9863 112.654 57.417 113.662 57.417C114.453 57.417 115.068 57.1943 115.508 56.749C115.953 56.3037 116.176 55.6768 116.176 54.8682V54.0508C115.525 54.8008 114.638 55.1758 113.513 55.1758C112.399 55.1758 111.497 54.7275 110.806 53.8311C110.12 52.9346 109.777 51.7129 109.777 50.166ZM111.412 50.3506C111.412 51.4229 111.632 52.2666 112.071 52.8818C112.511 53.4912 113.126 53.7959 113.917 53.7959C114.942 53.7959 115.695 53.3301 116.176 52.3984V48.0566C115.678 47.1484 114.931 46.6943 113.935 46.6943C113.144 46.6943 112.525 47.002 112.08 47.6172C111.635 48.2324 111.412 49.1436 111.412 50.3506ZM120.21 49.8057C120.21 48.4814 120.386 47.21 120.737 45.9912C121.095 44.7725 121.625 43.665 122.328 42.6689C123.031 41.6729 123.761 40.9697 124.517 40.5596L124.851 41.6318C123.995 42.2881 123.292 43.29 122.741 44.6377C122.196 45.9854 121.897 47.4941 121.845 49.1641L121.836 49.9111C121.836 52.1729 122.249 54.1357 123.075 55.7998C123.573 56.7959 124.165 57.5752 124.851 58.1377L124.517 59.1309C123.737 58.6973 122.993 57.9707 122.284 56.9512C120.901 54.959 120.21 52.5771 120.21 49.8057ZM456.269 49.8936C456.269 51.2002 456.096 52.4541 455.75 53.6553C455.41 54.8506 454.886 55.9551 454.177 56.9688C453.474 57.9824 452.735 58.7031 451.962 59.1309L451.619 58.1377C452.521 57.4463 453.245 56.374 453.79 54.9209C454.341 53.4619 454.622 51.8447 454.634 50.0693V49.7881C454.634 48.5576 454.505 47.415 454.247 46.3604C453.989 45.2998 453.629 44.3506 453.166 43.5127C452.709 42.6748 452.193 42.0215 451.619 41.5527L451.962 40.5596C452.735 40.9873 453.471 41.7021 454.168 42.7041C454.871 43.7061 455.396 44.8105 455.741 46.0176C456.093 47.2246 456.269 48.5166 456.269 49.8936Z" fill="black"/>
<path d="M130.045 42.0713H128.797V56.0195H130.045V57.9795H126.248V40.1113H130.045V42.0713ZM131.873 55V47.3535H130.458V45.4902H131.873V44.6816C131.873 43.6152 132.178 42.7891 132.787 42.2031C133.402 41.6113 134.261 41.3154 135.362 41.3154C135.714 41.3154 136.145 41.374 136.654 41.4912L136.628 43.46C136.417 43.4072 136.159 43.3809 135.854 43.3809C134.899 43.3809 134.422 43.8291 134.422 44.7256V45.4902H136.312V47.3535H134.422V55H131.873ZM143.325 54.0332C142.698 54.7949 141.831 55.1758 140.724 55.1758C139.704 55.1758 138.925 54.8828 138.386 54.2969C137.853 53.7109 137.58 52.8525 137.568 51.7217V45.4902H140.108V51.6338C140.108 52.624 140.56 53.1191 141.462 53.1191C142.323 53.1191 142.915 52.8203 143.237 52.2227V45.4902H145.786V55H143.396L143.325 54.0332ZM150.04 45.4902L150.119 46.5889C150.799 45.7393 151.71 45.3145 152.853 45.3145C153.86 45.3145 154.61 45.6104 155.103 46.2021C155.595 46.7939 155.847 47.6787 155.858 48.8564V55H153.318V48.918C153.318 48.3789 153.201 47.9893 152.967 47.749C152.732 47.5029 152.343 47.3799 151.798 47.3799C151.083 47.3799 150.547 47.6846 150.189 48.2939V55H147.649V45.4902H150.04ZM161.747 53.1279C162.216 53.1279 162.597 52.999 162.89 52.7412C163.183 52.4834 163.335 52.1406 163.347 51.7129H165.729C165.723 52.3574 165.547 52.9492 165.201 53.4883C164.855 54.0215 164.381 54.4375 163.777 54.7363C163.18 55.0293 162.518 55.1758 161.791 55.1758C160.432 55.1758 159.359 54.7451 158.574 53.8838C157.789 53.0166 157.396 51.8213 157.396 50.2979V50.1309C157.396 48.666 157.786 47.4971 158.565 46.624C159.345 45.751 160.414 45.3145 161.773 45.3145C162.963 45.3145 163.915 45.6543 164.63 46.334C165.351 47.0078 165.717 47.9072 165.729 49.0322H163.347C163.335 48.54 163.183 48.1416 162.89 47.8369C162.597 47.5264 162.21 47.3711 161.729 47.3711C161.138 47.3711 160.689 47.5879 160.385 48.0215C160.086 48.4492 159.937 49.1465 159.937 50.1133V50.377C159.937 51.3555 160.086 52.0586 160.385 52.4863C160.684 52.9141 161.138 53.1279 161.747 53.1279ZM174.219 56.9863H166.212V55H174.219V56.9863ZM177.55 45.4902L177.629 46.5889C178.309 45.7393 179.22 45.3145 180.362 45.3145C181.37 45.3145 182.12 45.6104 182.612 46.2021C183.104 46.7939 183.356 47.6787 183.368 48.8564V55H180.828V48.918C180.828 48.3789 180.711 47.9893 180.477 47.749C180.242 47.5029 179.853 47.3799 179.308 47.3799C178.593 47.3799 178.057 47.6846 177.699 48.2939V55H175.159V45.4902H177.55ZM190.812 55C190.695 54.7715 190.61 54.4873 190.558 54.1475C189.942 54.833 189.143 55.1758 188.158 55.1758C187.227 55.1758 186.453 54.9062 185.838 54.3672C185.229 53.8281 184.924 53.1484 184.924 52.3281C184.924 51.3203 185.296 50.5469 186.04 50.0078C186.79 49.4688 187.871 49.1963 189.283 49.1904H190.452V48.6455C190.452 48.2061 190.338 47.8545 190.109 47.5908C189.887 47.3271 189.532 47.1953 189.046 47.1953C188.618 47.1953 188.281 47.2979 188.035 47.5029C187.795 47.708 187.675 47.9893 187.675 48.3467H185.135C185.135 47.7959 185.305 47.2861 185.645 46.8174C185.984 46.3486 186.465 45.9824 187.086 45.7188C187.707 45.4492 188.404 45.3145 189.178 45.3145C190.35 45.3145 191.278 45.6104 191.964 46.2021C192.655 46.7881 193.001 47.6143 193.001 48.6807V52.8027C193.007 53.7051 193.133 54.3877 193.379 54.8506V55H190.812ZM188.712 53.2334C189.087 53.2334 189.433 53.1514 189.749 52.9873C190.065 52.8174 190.3 52.5918 190.452 52.3105V50.6758H189.503C188.231 50.6758 187.555 51.1152 187.473 51.9941L187.464 52.1436C187.464 52.46 187.575 52.7207 187.798 52.9258C188.021 53.1309 188.325 53.2334 188.712 53.2334ZM197.334 45.4902L197.413 46.5537C198.087 45.7275 198.998 45.3145 200.146 45.3145C201.371 45.3145 202.212 45.7979 202.669 46.7646C203.337 45.7979 204.289 45.3145 205.525 45.3145C206.557 45.3145 207.324 45.6162 207.828 46.2197C208.332 46.8174 208.584 47.7197 208.584 48.9268V55H206.035V48.9355C206.035 48.3965 205.93 48.0039 205.719 47.7578C205.508 47.5059 205.136 47.3799 204.603 47.3799C203.841 47.3799 203.313 47.7432 203.021 48.4697L203.029 55H200.489V48.9443C200.489 48.3936 200.381 47.9951 200.164 47.749C199.947 47.5029 199.578 47.3799 199.057 47.3799C198.336 47.3799 197.814 47.6787 197.492 48.2764V55H194.952V45.4902H197.334ZM214.921 55.1758C213.526 55.1758 212.39 54.748 211.511 53.8926C210.638 53.0371 210.201 51.8975 210.201 50.4736V50.2275C210.201 49.2725 210.386 48.4199 210.755 47.6699C211.124 46.9141 211.646 46.334 212.319 45.9297C212.999 45.5195 213.772 45.3145 214.64 45.3145C215.94 45.3145 216.963 45.7246 217.707 46.5449C218.457 47.3652 218.832 48.5283 218.832 50.0342V51.0713H212.776C212.858 51.6924 213.104 52.1904 213.515 52.5654C213.931 52.9404 214.455 53.1279 215.088 53.1279C216.066 53.1279 216.831 52.7734 217.382 52.0645L218.63 53.4619C218.249 54.001 217.733 54.4229 217.083 54.7275C216.433 55.0264 215.712 55.1758 214.921 55.1758ZM214.631 47.3711C214.127 47.3711 213.717 47.541 213.4 47.8809C213.09 48.2207 212.891 48.707 212.803 49.3398H216.336V49.1377C216.324 48.5752 216.172 48.1416 215.879 47.8369C215.586 47.5264 215.17 47.3711 214.631 47.3711ZM226.347 55H223.807V45.209L220.774 46.1494V44.084L226.074 42.1855H226.347V55ZM231.277 58.208L229.95 57.5137L230.267 56.9424C230.659 56.2275 230.861 55.5156 230.873 54.8066V52.8379H233.018L233.009 54.5957C233.003 55.2461 232.839 55.9023 232.517 56.5645C232.194 57.2266 231.781 57.7744 231.277 58.208ZM240.189 55V47.3535H238.774V45.4902H240.189V44.6816C240.189 43.6152 240.494 42.7891 241.104 42.2031C241.719 41.6113 242.577 41.3154 243.679 41.3154C244.03 41.3154 244.461 41.374 244.971 41.4912L244.944 43.46C244.733 43.4072 244.476 43.3809 244.171 43.3809C243.216 43.3809 242.738 43.8291 242.738 44.7256V45.4902H244.628V47.3535H242.738V55H240.189ZM251.642 54.0332C251.015 54.7949 250.147 55.1758 249.04 55.1758C248.021 55.1758 247.241 54.8828 246.702 54.2969C246.169 53.7109 245.896 52.8525 245.885 51.7217V45.4902H248.425V51.6338C248.425 52.624 248.876 53.1191 249.778 53.1191C250.64 53.1191 251.231 52.8203 251.554 52.2227V45.4902H254.103V55H251.712L251.642 54.0332ZM258.356 45.4902L258.436 46.5889C259.115 45.7393 260.026 45.3145 261.169 45.3145C262.177 45.3145 262.927 45.6104 263.419 46.2021C263.911 46.7939 264.163 47.6787 264.175 48.8564V55H261.635V48.918C261.635 48.3789 261.518 47.9893 261.283 47.749C261.049 47.5029 260.659 47.3799 260.114 47.3799C259.399 47.3799 258.863 47.6846 258.506 48.2939V55H255.966V45.4902H258.356ZM270.063 53.1279C270.532 53.1279 270.913 52.999 271.206 52.7412C271.499 52.4834 271.651 52.1406 271.663 51.7129H274.045C274.039 52.3574 273.863 52.9492 273.518 53.4883C273.172 54.0215 272.697 54.4375 272.094 54.7363C271.496 55.0293 270.834 55.1758 270.107 55.1758C268.748 55.1758 267.676 54.7451 266.891 53.8838C266.105 53.0166 265.713 51.8213 265.713 50.2979V50.1309C265.713 48.666 266.103 47.4971 266.882 46.624C267.661 45.751 268.73 45.3145 270.09 45.3145C271.279 45.3145 272.231 45.6543 272.946 46.334C273.667 47.0078 274.033 47.9072 274.045 49.0322H271.663C271.651 48.54 271.499 48.1416 271.206 47.8369C270.913 47.5264 270.526 47.3711 270.046 47.3711C269.454 47.3711 269.006 47.5879 268.701 48.0215C268.402 48.4492 268.253 49.1465 268.253 50.1133V50.377C268.253 51.3555 268.402 52.0586 268.701 52.4863C269 52.9141 269.454 53.1279 270.063 53.1279ZM282.535 56.9863H274.528V55H282.535V56.9863ZM285.866 45.4902L285.945 46.5889C286.625 45.7393 287.536 45.3145 288.679 45.3145C289.687 45.3145 290.437 45.6104 290.929 46.2021C291.421 46.7939 291.673 47.6787 291.685 48.8564V55H289.145V48.918C289.145 48.3789 289.027 47.9893 288.793 47.749C288.559 47.5029 288.169 47.3799 287.624 47.3799C286.909 47.3799 286.373 47.6846 286.016 48.2939V55H283.476V45.4902H285.866ZM299.129 55C299.012 54.7715 298.927 54.4873 298.874 54.1475C298.259 54.833 297.459 55.1758 296.475 55.1758C295.543 55.1758 294.77 54.9062 294.154 54.3672C293.545 53.8281 293.24 53.1484 293.24 52.3281C293.24 51.3203 293.612 50.5469 294.356 50.0078C295.106 49.4688 296.188 49.1963 297.6 49.1904H298.769V48.6455C298.769 48.2061 298.654 47.8545 298.426 47.5908C298.203 47.3271 297.849 47.1953 297.362 47.1953C296.935 47.1953 296.598 47.2979 296.352 47.5029C296.111 47.708 295.991 47.9893 295.991 48.3467H293.451C293.451 47.7959 293.621 47.2861 293.961 46.8174C294.301 46.3486 294.781 45.9824 295.402 45.7188C296.023 45.4492 296.721 45.3145 297.494 45.3145C298.666 45.3145 299.595 45.6104 300.28 46.2021C300.972 46.7881 301.317 47.6143 301.317 48.6807V52.8027C301.323 53.7051 301.449 54.3877 301.695 54.8506V55H299.129ZM297.028 53.2334C297.403 53.2334 297.749 53.1514 298.065 52.9873C298.382 52.8174 298.616 52.5918 298.769 52.3105V50.6758H297.819C296.548 50.6758 295.871 51.1152 295.789 51.9941L295.78 52.1436C295.78 52.46 295.892 52.7207 296.114 52.9258C296.337 53.1309 296.642 53.2334 297.028 53.2334ZM305.65 45.4902L305.729 46.5537C306.403 45.7275 307.314 45.3145 308.463 45.3145C309.688 45.3145 310.528 45.7979 310.985 46.7646C311.653 45.7979 312.605 45.3145 313.842 45.3145C314.873 45.3145 315.641 45.6162 316.145 46.2197C316.648 46.8174 316.9 47.7197 316.9 48.9268V55H314.352V48.9355C314.352 48.3965 314.246 48.0039 314.035 47.7578C313.824 47.5059 313.452 47.3799 312.919 47.3799C312.157 47.3799 311.63 47.7432 311.337 48.4697L311.346 55H308.806V48.9443C308.806 48.3936 308.697 47.9951 308.48 47.749C308.264 47.5029 307.895 47.3799 307.373 47.3799C306.652 47.3799 306.131 47.6787 305.809 48.2764V55H303.269V45.4902H305.65ZM323.237 55.1758C321.843 55.1758 320.706 54.748 319.827 53.8926C318.954 53.0371 318.518 51.8975 318.518 50.4736V50.2275C318.518 49.2725 318.702 48.4199 319.071 47.6699C319.44 46.9141 319.962 46.334 320.636 45.9297C321.315 45.5195 322.089 45.3145 322.956 45.3145C324.257 45.3145 325.279 45.7246 326.023 46.5449C326.773 47.3652 327.148 48.5283 327.148 50.0342V51.0713H321.093C321.175 51.6924 321.421 52.1904 321.831 52.5654C322.247 52.9404 322.771 53.1279 323.404 53.1279C324.383 53.1279 325.147 52.7734 325.698 52.0645L326.946 53.4619C326.565 54.001 326.05 54.4229 325.399 54.7275C324.749 55.0264 324.028 55.1758 323.237 55.1758ZM322.947 47.3711C322.443 47.3711 322.033 47.541 321.717 47.8809C321.406 48.2207 321.207 48.707 321.119 49.3398H324.652V49.1377C324.641 48.5752 324.488 48.1416 324.195 47.8369C323.902 47.5264 323.486 47.3711 322.947 47.3711ZM337.265 55H328.493V53.2598L332.633 48.8477C333.201 48.2266 333.62 47.6846 333.89 47.2217C334.165 46.7588 334.303 46.3193 334.303 45.9033C334.303 45.335 334.159 44.8896 333.872 44.5674C333.585 44.2393 333.175 44.0752 332.642 44.0752C332.067 44.0752 331.613 44.2744 331.279 44.6729C330.951 45.0654 330.787 45.584 330.787 46.2285H328.238C328.238 45.4492 328.423 44.7373 328.792 44.0928C329.167 43.4482 329.694 42.9443 330.374 42.5811C331.054 42.2119 331.824 42.0273 332.686 42.0273C334.004 42.0273 335.026 42.3438 335.753 42.9766C336.485 43.6094 336.852 44.5029 336.852 45.6572C336.852 46.29 336.688 46.9346 336.359 47.5908C336.031 48.2471 335.469 49.0117 334.672 49.8848L331.763 52.9521H337.265V55ZM339.594 58.208L338.267 57.5137L338.583 56.9424C338.976 56.2275 339.178 55.5156 339.189 54.8066V52.8379H341.334L341.325 54.5957C341.319 55.2461 341.155 55.9023 340.833 56.5645C340.511 57.2266 340.098 57.7744 339.594 58.208ZM348.506 55V47.3535H347.091V45.4902H348.506V44.6816C348.506 43.6152 348.811 42.7891 349.42 42.2031C350.035 41.6113 350.894 41.3154 351.995 41.3154C352.347 41.3154 352.777 41.374 353.287 41.4912L353.261 43.46C353.05 43.4072 352.792 43.3809 352.487 43.3809C351.532 43.3809 351.055 43.8291 351.055 44.7256V45.4902H352.944V47.3535H351.055V55H348.506ZM359.958 54.0332C359.331 54.7949 358.464 55.1758 357.356 55.1758C356.337 55.1758 355.558 54.8828 355.019 54.2969C354.485 53.7109 354.213 52.8525 354.201 51.7217V45.4902H356.741V51.6338C356.741 52.624 357.192 53.1191 358.095 53.1191C358.956 53.1191 359.548 52.8203 359.87 52.2227V45.4902H362.419V55H360.028L359.958 54.0332ZM366.673 45.4902L366.752 46.5889C367.432 45.7393 368.343 45.3145 369.485 45.3145C370.493 45.3145 371.243 45.6104 371.735 46.2021C372.228 46.7939 372.479 47.6787 372.491 48.8564V55H369.951V48.918C369.951 48.3789 369.834 47.9893 369.6 47.749C369.365 47.5029 368.976 47.3799 368.431 47.3799C367.716 47.3799 367.18 47.6846 366.822 48.2939V55H364.282V45.4902H366.673ZM378.38 53.1279C378.849 53.1279 379.229 52.999 379.522 52.7412C379.815 52.4834 379.968 52.1406 379.979 51.7129H382.361C382.355 52.3574 382.18 52.9492 381.834 53.4883C381.488 54.0215 381.014 54.4375 380.41 54.7363C379.812 55.0293 379.15 55.1758 378.424 55.1758C377.064 55.1758 375.992 54.7451 375.207 53.8838C374.422 53.0166 374.029 51.8213 374.029 50.2979V50.1309C374.029 48.666 374.419 47.4971 375.198 46.624C375.978 45.751 377.047 45.3145 378.406 45.3145C379.596 45.3145 380.548 45.6543 381.263 46.334C381.983 47.0078 382.35 47.9072 382.361 49.0322H379.979C379.968 48.54 379.815 48.1416 379.522 47.8369C379.229 47.5264 378.843 47.3711 378.362 47.3711C377.771 47.3711 377.322 47.5879 377.018 48.0215C376.719 48.4492 376.569 49.1465 376.569 50.1133V50.377C376.569 51.3555 376.719 52.0586 377.018 52.4863C377.316 52.9141 377.771 53.1279 378.38 53.1279ZM390.852 56.9863H382.845V55H390.852V56.9863ZM394.183 45.4902L394.262 46.5889C394.941 45.7393 395.853 45.3145 396.995 45.3145C398.003 45.3145 398.753 45.6104 399.245 46.2021C399.737 46.7939 399.989 47.6787 400.001 48.8564V55H397.461V48.918C397.461 48.3789 397.344 47.9893 397.109 47.749C396.875 47.5029 396.485 47.3799 395.94 47.3799C395.226 47.3799 394.689 47.6846 394.332 48.2939V55H391.792V45.4902H394.183ZM407.445 55C407.328 54.7715 407.243 54.4873 407.19 54.1475C406.575 54.833 405.775 55.1758 404.791 55.1758C403.859 55.1758 403.086 54.9062 402.471 54.3672C401.861 53.8281 401.557 53.1484 401.557 52.3281C401.557 51.3203 401.929 50.5469 402.673 50.0078C403.423 49.4688 404.504 49.1963 405.916 49.1904H407.085V48.6455C407.085 48.2061 406.971 47.8545 406.742 47.5908C406.52 47.3271 406.165 47.1953 405.679 47.1953C405.251 47.1953 404.914 47.2979 404.668 47.5029C404.428 47.708 404.308 47.9893 404.308 48.3467H401.768C401.768 47.7959 401.938 47.2861 402.277 46.8174C402.617 46.3486 403.098 45.9824 403.719 45.7188C404.34 45.4492 405.037 45.3145 405.811 45.3145C406.982 45.3145 407.911 45.6104 408.597 46.2021C409.288 46.7881 409.634 47.6143 409.634 48.6807V52.8027C409.64 53.7051 409.766 54.3877 410.012 54.8506V55H407.445ZM405.345 53.2334C405.72 53.2334 406.065 53.1514 406.382 52.9873C406.698 52.8174 406.933 52.5918 407.085 52.3105V50.6758H406.136C404.864 50.6758 404.188 51.1152 404.105 51.9941L404.097 52.1436C404.097 52.46 404.208 52.7207 404.431 52.9258C404.653 53.1309 404.958 53.2334 405.345 53.2334ZM413.967 45.4902L414.046 46.5537C414.72 45.7275 415.631 45.3145 416.779 45.3145C418.004 45.3145 418.845 45.7979 419.302 46.7646C419.97 45.7979 420.922 45.3145 422.158 45.3145C423.189 45.3145 423.957 45.6162 424.461 46.2197C424.965 46.8174 425.217 47.7197 425.217 48.9268V55H422.668V48.9355C422.668 48.3965 422.562 48.0039 422.352 47.7578C422.141 47.5059 421.769 47.3799 421.235 47.3799C420.474 47.3799 419.946 47.7432 419.653 48.4697L419.662 55H417.122V48.9443C417.122 48.3936 417.014 47.9951 416.797 47.749C416.58 47.5029 416.211 47.3799 415.689 47.3799C414.969 47.3799 414.447 47.6787 414.125 48.2764V55H411.585V45.4902H413.967ZM431.554 55.1758C430.159 55.1758 429.022 54.748 428.144 53.8926C427.271 53.0371 426.834 51.8975 426.834 50.4736V50.2275C426.834 49.2725 427.019 48.4199 427.388 47.6699C427.757 46.9141 428.278 46.334 428.952 45.9297C429.632 45.5195 430.405 45.3145 431.272 45.3145C432.573 45.3145 433.596 45.7246 434.34 46.5449C435.09 47.3652 435.465 48.5283 435.465 50.0342V51.0713H429.409C429.491 51.6924 429.737 52.1904 430.147 52.5654C430.563 52.9404 431.088 53.1279 431.721 53.1279C432.699 53.1279 433.464 52.7734 434.015 52.0645L435.263 53.4619C434.882 54.001 434.366 54.4229 433.716 54.7275C433.065 55.0264 432.345 55.1758 431.554 55.1758ZM431.264 47.3711C430.76 47.3711 430.35 47.541 430.033 47.8809C429.723 48.2207 429.523 48.707 429.436 49.3398H432.969V49.1377C432.957 48.5752 432.805 48.1416 432.512 47.8369C432.219 47.5264 431.803 47.3711 431.264 47.3711ZM439.394 47.4766H440.747C441.392 47.4766 441.869 47.3154 442.18 46.9932C442.49 46.6709 442.646 46.2432 442.646 45.71C442.646 45.1943 442.49 44.793 442.18 44.5059C441.875 44.2188 441.453 44.0752 440.914 44.0752C440.428 44.0752 440.021 44.21 439.692 44.4795C439.364 44.7432 439.2 45.0889 439.2 45.5166H436.66C436.66 44.8486 436.839 44.251 437.196 43.7236C437.56 43.1904 438.063 42.7744 438.708 42.4756C439.358 42.1768 440.073 42.0273 440.853 42.0273C442.206 42.0273 443.267 42.3525 444.034 43.0029C444.802 43.6475 445.186 44.5381 445.186 45.6748C445.186 46.2607 445.007 46.7998 444.649 47.292C444.292 47.7842 443.823 48.1621 443.243 48.4258C443.964 48.6836 444.5 49.0703 444.852 49.5859C445.209 50.1016 445.388 50.7109 445.388 51.4141C445.388 52.5508 444.972 53.4619 444.14 54.1475C443.313 54.833 442.218 55.1758 440.853 55.1758C439.575 55.1758 438.529 54.8389 437.715 54.165C436.906 53.4912 436.502 52.6006 436.502 51.4932H439.042C439.042 51.9736 439.221 52.3662 439.578 52.6709C439.941 52.9756 440.387 53.1279 440.914 53.1279C441.518 53.1279 441.989 52.9697 442.329 52.6533C442.675 52.3311 442.848 51.9062 442.848 51.3789C442.848 50.1016 442.145 49.4629 440.738 49.4629H439.394V47.4766ZM446.39 40.1113H450.187V57.9795H446.39V56.0195H447.646V42.0713H446.39V40.1113Z" fill="#B82629"/>
</svg>
