<svg width="334" height="95" viewBox="0 0 334 95" fill="none" xmlns="http://www.w3.org/2000/svg">
<rect width="334" height="95" fill="white"/>
<path d="M18.4597 56V43.4242H22.0096C23.1036 43.4242 24.071 43.666 24.9117 44.1497C25.7524 44.6334 26.4002 45.3215 26.8551 46.214C27.3157 47.1065 27.5489 48.1315 27.5547 49.2889V50.0921C27.5547 51.2783 27.3244 52.3177 26.8637 53.2102C26.4088 54.1027 25.7553 54.7879 24.9031 55.2658C24.0566 55.7438 23.0691 55.9885 21.9405 56H18.4597ZM20.118 44.7889V54.644H21.8628C23.1411 54.644 24.1344 54.2466 24.8426 53.452C25.5566 52.6574 25.9136 51.5259 25.9136 50.0576V49.3234C25.9136 47.8954 25.5768 46.787 24.9031 45.9981C24.2351 45.2035 23.285 44.8004 22.0528 44.7889H20.118ZM35.5873 56C35.4952 55.8157 35.4203 55.4875 35.3628 55.0154C34.62 55.7869 33.7332 56.1727 32.7025 56.1727C31.7812 56.1727 31.024 55.9136 30.4309 55.3954C29.8436 54.8714 29.5499 54.2092 29.5499 53.4088C29.5499 52.4357 29.9184 51.6814 30.6555 51.1459C31.3983 50.6046 32.4405 50.334 33.7821 50.334H35.3368V49.5998C35.3368 49.0413 35.1699 48.5979 34.8359 48.2697C34.5019 47.9357 34.0096 47.7687 33.3589 47.7687C32.7889 47.7687 32.3109 47.9127 31.9251 48.2006C31.5393 48.4885 31.3464 48.8369 31.3464 49.2457H29.7399C29.7399 48.7793 29.904 48.3301 30.2322 47.8983C30.5662 47.4607 31.0153 47.1152 31.5796 46.8618C32.1497 46.6084 32.7745 46.4818 33.4539 46.4818C34.5307 46.4818 35.3743 46.7524 35.9846 47.2937C36.595 47.8292 36.9117 48.5691 36.9347 49.5134V53.8148C36.9347 54.6727 37.0441 55.3551 37.2629 55.8618V56H35.5873ZM32.9357 54.7822C33.4367 54.7822 33.9117 54.6526 34.3608 54.3935C34.81 54.1344 35.1353 53.7975 35.3368 53.3829V51.4655H34.0844C32.1267 51.4655 31.1478 52.0384 31.1478 53.1843C31.1478 53.6852 31.3148 54.0768 31.6487 54.3589C31.9827 54.6411 32.4117 54.7822 32.9357 54.7822ZM41.6075 44.3916V46.6545H43.3522V47.8896H41.6075V53.6852C41.6075 54.0595 41.6852 54.3417 41.8407 54.5317C41.9962 54.7159 42.261 54.8081 42.6353 54.8081C42.8196 54.8081 43.0729 54.7735 43.3954 54.7044V56C42.975 56.1152 42.5662 56.1727 42.1689 56.1727C41.4549 56.1727 40.9165 55.9568 40.5537 55.525C40.191 55.0931 40.0096 54.4798 40.0096 53.6852V47.8896H38.3081V46.6545H40.0096V44.3916H41.6075ZM50.9961 56C50.904 55.8157 50.8292 55.4875 50.7716 55.0154C50.0288 55.7869 49.142 56.1727 48.1113 56.1727C47.19 56.1727 46.4328 55.9136 45.8397 55.3954C45.2524 54.8714 44.9587 54.2092 44.9587 53.4088C44.9587 52.4357 45.3272 51.6814 46.0643 51.1459C46.8071 50.6046 47.8493 50.334 49.191 50.334H50.7457V49.5998C50.7457 49.0413 50.5787 48.5979 50.2447 48.2697C49.9107 47.9357 49.4184 47.7687 48.7677 47.7687C48.1977 47.7687 47.7198 47.9127 47.334 48.2006C46.9482 48.4885 46.7553 48.8369 46.7553 49.2457H45.1487C45.1487 48.7793 45.3128 48.3301 45.6411 47.8983C45.975 47.4607 46.4242 47.1152 46.9885 46.8618C47.5585 46.6084 48.1833 46.4818 48.8628 46.4818C49.9395 46.4818 50.7831 46.7524 51.3935 47.2937C52.0038 47.8292 52.3205 48.5691 52.3436 49.5134V53.8148C52.3436 54.6727 52.453 55.3551 52.6718 55.8618V56H50.9961ZM48.3445 54.7822C48.8455 54.7822 49.3205 54.6526 49.7697 54.3935C50.2188 54.1344 50.5441 53.7975 50.7457 53.3829V51.4655H49.4933C47.5355 51.4655 46.5566 52.0384 46.5566 53.1843C46.5566 53.6852 46.7236 54.0768 47.0576 54.3589C47.3915 54.6411 47.8205 54.7822 48.3445 54.7822ZM62.0345 50.4463H56.7572V56H55.0988V43.4242H62.8896V44.7889H56.7572V49.0902H62.0345V50.4463ZM68.9184 48.0883C68.6766 48.048 68.4146 48.0278 68.1324 48.0278C67.0844 48.0278 66.3733 48.4741 65.999 49.3666V56H64.4011V46.6545H65.9558L65.9817 47.7342C66.5057 46.8992 67.2485 46.4818 68.2102 46.4818C68.5211 46.4818 68.7572 46.5221 68.9184 46.6027V48.0883ZM75.8196 56C75.7274 55.8157 75.6526 55.4875 75.595 55.0154C74.8522 55.7869 73.9654 56.1727 72.9347 56.1727C72.0134 56.1727 71.2562 55.9136 70.6631 55.3954C70.0758 54.8714 69.7821 54.2092 69.7821 53.4088C69.7821 52.4357 70.1507 51.6814 70.8877 51.1459C71.6305 50.6046 72.6727 50.334 74.0144 50.334H75.5691V49.5998C75.5691 49.0413 75.4021 48.5979 75.0681 48.2697C74.7341 47.9357 74.2418 47.7687 73.5911 47.7687C73.0211 47.7687 72.5432 47.9127 72.1574 48.2006C71.7716 48.4885 71.5787 48.8369 71.5787 49.2457H69.9721C69.9721 48.7793 70.1363 48.3301 70.4645 47.8983C70.7984 47.4607 71.2476 47.1152 71.8119 46.8618C72.3819 46.6084 73.0067 46.4818 73.6862 46.4818C74.7629 46.4818 75.6065 46.7524 76.2169 47.2937C76.8272 47.8292 77.1439 48.5691 77.167 49.5134V53.8148C77.167 54.6727 77.2764 55.3551 77.4952 55.8618V56H75.8196ZM73.1679 54.7822C73.6689 54.7822 74.1439 54.6526 74.5931 54.3935C75.0422 54.1344 75.3675 53.7975 75.5691 53.3829V51.4655H74.3167C72.3589 51.4655 71.38 52.0384 71.38 53.1843C71.38 53.6852 71.547 54.0768 71.881 54.3589C72.215 54.6411 72.6439 54.7822 73.1679 54.7822ZM81.1746 46.6545L81.2178 47.691C81.903 46.8848 82.8272 46.4818 83.9904 46.4818C85.2975 46.4818 86.1871 46.9827 86.6593 47.9846C86.9702 47.5355 87.3733 47.1727 87.8685 46.8964C88.3695 46.62 88.9597 46.4818 89.6391 46.4818C91.689 46.4818 92.7313 47.5672 92.7658 49.738V56H91.1679V49.833C91.1679 49.1651 91.0153 48.667 90.7101 48.3388C90.405 48.0048 89.8925 47.8378 89.1727 47.8378C88.5796 47.8378 88.0873 48.0163 87.6957 48.3733C87.3042 48.7246 87.0767 49.1996 87.0134 49.7985V56H85.4069V49.8762C85.4069 48.5173 84.7418 47.8378 83.4117 47.8378C82.3637 47.8378 81.6468 48.2841 81.261 49.1766V56H79.6631V46.6545H81.1746ZM99.0624 56.1727C97.7956 56.1727 96.7648 55.7582 95.9702 54.929C95.1756 54.0941 94.7783 52.9798 94.7783 51.5864V51.2927C94.7783 50.3656 94.9539 49.5393 95.3052 48.8138C95.6622 48.0825 96.1574 47.5125 96.7908 47.1037C97.4299 46.6891 98.1209 46.4818 98.8637 46.4818C100.079 46.4818 101.023 46.882 101.697 47.6823C102.37 48.4827 102.707 49.6286 102.707 51.12V51.785H96.3762C96.3992 52.7063 96.667 53.452 97.1794 54.0221C97.6977 54.5864 98.3541 54.8685 99.1487 54.8685C99.713 54.8685 100.191 54.7534 100.583 54.523C100.974 54.2927 101.317 53.9875 101.61 53.6075L102.586 54.3676C101.803 55.571 100.629 56.1727 99.0624 56.1727ZM98.8637 47.7946C98.2188 47.7946 97.6775 48.0307 97.2399 48.5029C96.8023 48.9693 96.5316 49.6257 96.428 50.4722H101.109V50.3512C101.063 49.5393 100.845 48.9117 100.453 48.4683C100.061 48.0192 99.5316 47.7946 98.8637 47.7946ZM104.599 55.1622C104.599 54.8858 104.679 54.6555 104.841 54.4712C105.008 54.2869 105.255 54.1948 105.583 54.1948C105.912 54.1948 106.159 54.2869 106.326 54.4712C106.499 54.6555 106.585 54.8858 106.585 55.1622C106.585 55.4271 106.499 55.6488 106.326 55.8273C106.159 56.0058 105.912 56.095 105.583 56.095C105.255 56.095 105.008 56.0058 104.841 55.8273C104.679 55.6488 104.599 55.4271 104.599 55.1622ZM186.938 50.8954C186.938 49.5941 187.11 48.3445 187.456 47.1468C187.807 45.9491 188.328 44.8608 189.019 43.882C189.71 42.9031 190.427 42.2121 191.17 41.809L191.498 42.8628C190.657 43.5077 189.966 44.4923 189.425 45.8167C188.89 47.1411 188.596 48.6238 188.544 50.2649L188.535 50.999C188.535 53.2217 188.941 55.1507 189.753 56.786C190.243 57.7649 190.824 58.5307 191.498 59.0835L191.17 60.0595C190.404 59.6334 189.673 58.9194 188.976 57.9175C187.617 55.9597 186.938 53.619 186.938 50.8954ZM193.83 56V47.8896H192.353V46.6545H193.83V45.6958C193.83 44.6939 194.098 43.9194 194.633 43.3724C195.169 42.8253 195.926 42.5518 196.905 42.5518C197.273 42.5518 197.639 42.6008 198.002 42.6987L197.915 43.9942C197.645 43.9424 197.357 43.9165 197.052 43.9165C196.534 43.9165 196.133 44.0691 195.851 44.3743C195.569 44.6737 195.428 45.1056 195.428 45.6699V46.6545H197.423V47.8896H195.428V56H193.83ZM204.963 55.0758C204.342 55.8071 203.429 56.1727 202.225 56.1727C201.229 56.1727 200.469 55.8848 199.945 55.309C199.427 54.7274 199.165 53.8695 199.159 52.7351V46.6545H200.757V52.6919C200.757 54.1084 201.333 54.8167 202.485 54.8167C203.705 54.8167 204.517 54.3618 204.92 53.452V46.6545H206.518V56H204.998L204.963 55.0758ZM210.465 46.6545L210.517 47.8292C211.231 46.9309 212.164 46.4818 213.316 46.4818C215.291 46.4818 216.287 47.596 216.304 49.8244V56H214.706V49.8157C214.7 49.142 214.545 48.644 214.24 48.3215C213.94 47.999 213.471 47.8378 212.832 47.8378C212.314 47.8378 211.859 47.976 211.467 48.2524C211.076 48.5288 210.771 48.8916 210.552 49.3407V56H208.954V46.6545H210.465ZM222.462 54.8685C223.033 54.8685 223.531 54.6958 223.957 54.3503C224.383 54.0048 224.619 53.5729 224.665 53.0547H226.176C226.148 53.5902 225.963 54.0998 225.624 54.5835C225.284 55.0672 224.829 55.453 224.259 55.7409C223.695 56.0288 223.096 56.1727 222.462 56.1727C221.19 56.1727 220.176 55.7495 219.422 54.9031C218.674 54.0509 218.299 52.8877 218.299 51.4136V51.1459C218.299 50.2361 218.466 49.4271 218.8 48.7188C219.134 48.0106 219.612 47.4607 220.234 47.0691C220.862 46.6775 221.602 46.4818 222.454 46.4818C223.502 46.4818 224.371 46.7956 225.062 47.4232C225.759 48.0509 226.13 48.8656 226.176 49.8676H224.665C224.619 49.263 224.389 48.7678 223.974 48.382C223.565 47.9904 223.058 47.7946 222.454 47.7946C221.642 47.7946 221.011 48.0883 220.562 48.6756C220.119 49.2572 219.897 50.1008 219.897 51.2063V51.5086C219.897 52.5854 220.119 53.4146 220.562 53.9962C221.006 54.5777 221.639 54.8685 222.462 54.8685ZM230.141 44.3916V46.6545H231.886V47.8896H230.141V53.6852C230.141 54.0595 230.219 54.3417 230.374 54.5317C230.53 54.7159 230.795 54.8081 231.169 54.8081C231.353 54.8081 231.606 54.7735 231.929 54.7044V56C231.509 56.1152 231.1 56.1727 230.702 56.1727C229.988 56.1727 229.45 55.9568 229.087 55.525C228.724 55.0931 228.543 54.4798 228.543 53.6852V47.8896H226.842V46.6545H228.543V44.3916H230.141ZM235.496 56H233.898V46.6545H235.496V56ZM233.769 44.1756C233.769 43.9165 233.846 43.6977 234.002 43.5192C234.163 43.3407 234.399 43.2514 234.71 43.2514C235.021 43.2514 235.257 43.3407 235.418 43.5192C235.58 43.6977 235.66 43.9165 235.66 44.1756C235.66 44.4347 235.58 44.6507 235.418 44.8234C235.257 44.9962 235.021 45.0825 234.71 45.0825C234.399 45.0825 234.163 44.9962 234.002 44.8234C233.846 44.6507 233.769 44.4347 233.769 44.1756ZM237.638 51.2409C237.638 50.3253 237.817 49.5019 238.174 48.7706C238.536 48.0394 239.037 47.4751 239.677 47.0777C240.321 46.6804 241.056 46.4818 241.879 46.4818C243.152 46.4818 244.179 46.9223 244.962 47.8033C245.751 48.6843 246.146 49.856 246.146 51.3186V51.4309C246.146 52.3407 245.97 53.1584 245.619 53.8839C245.273 54.6036 244.775 55.1651 244.125 55.5681C243.48 55.9712 242.737 56.1727 241.896 56.1727C240.629 56.1727 239.602 55.7322 238.813 54.8512C238.03 53.9703 237.638 52.8042 237.638 51.3532V51.2409ZM239.245 51.4309C239.245 52.4674 239.484 53.2994 239.962 53.9271C240.445 54.5547 241.09 54.8685 241.896 54.8685C242.708 54.8685 243.353 54.5518 243.831 53.9184C244.309 53.2793 244.548 52.3868 244.548 51.2409C244.548 50.2159 244.303 49.3868 243.814 48.7534C243.33 48.1142 242.685 47.7946 241.879 47.7946C241.09 47.7946 240.454 48.1084 239.97 48.7361C239.486 49.3637 239.245 50.262 239.245 51.4309ZM249.661 46.6545L249.713 47.8292C250.427 46.9309 251.36 46.4818 252.511 46.4818C254.486 46.4818 255.483 47.596 255.5 49.8244V56H253.902V49.8157C253.896 49.142 253.741 48.644 253.436 48.3215C253.136 47.999 252.667 47.8378 252.028 47.8378C251.51 47.8378 251.055 47.976 250.663 48.2524C250.272 48.5288 249.966 48.8916 249.748 49.3407V56H248.15V46.6545H249.661ZM264.647 57.3042H256.735V56H264.647V57.3042ZM267.402 46.6545L267.454 47.8292C268.168 46.9309 269.101 46.4818 270.252 46.4818C272.227 46.4818 273.224 47.596 273.241 49.8244V56H271.643V49.8157C271.637 49.142 271.482 48.644 271.176 48.3215C270.877 47.999 270.408 47.8378 269.769 47.8378C269.25 47.8378 268.795 47.976 268.404 48.2524C268.012 48.5288 267.707 48.8916 267.488 49.3407V56H265.891V46.6545H267.402ZM281.42 56C281.328 55.8157 281.253 55.4875 281.196 55.0154C280.453 55.7869 279.566 56.1727 278.535 56.1727C277.614 56.1727 276.857 55.9136 276.264 55.3954C275.676 54.8714 275.383 54.2092 275.383 53.4088C275.383 52.4357 275.751 51.6814 276.488 51.1459C277.231 50.6046 278.273 50.334 279.615 50.334H281.17V49.5998C281.17 49.0413 281.003 48.5979 280.669 48.2697C280.335 47.9357 279.842 47.7687 279.192 47.7687C278.622 47.7687 278.144 47.9127 277.758 48.2006C277.372 48.4885 277.179 48.8369 277.179 49.2457H275.573C275.573 48.7793 275.737 48.3301 276.065 47.8983C276.399 47.4607 276.848 47.1152 277.413 46.8618C277.983 46.6084 278.607 46.4818 279.287 46.4818C280.364 46.4818 281.207 46.7524 281.818 47.2937C282.428 47.8292 282.745 48.5691 282.768 49.5134V53.8148C282.768 54.6727 282.877 55.3551 283.096 55.8618V56H281.42ZM278.769 54.7822C279.27 54.7822 279.745 54.6526 280.194 54.3935C280.643 54.1344 280.968 53.7975 281.17 53.3829V51.4655H279.917C277.96 51.4655 276.981 52.0384 276.981 53.1843C276.981 53.6852 277.148 54.0768 277.482 54.3589C277.816 54.6411 278.245 54.7822 278.769 54.7822ZM286.775 46.6545L286.819 47.691C287.504 46.8848 288.428 46.4818 289.591 46.4818C290.898 46.4818 291.788 46.9827 292.26 47.9846C292.571 47.5355 292.974 47.1727 293.469 46.8964C293.97 46.62 294.56 46.4818 295.24 46.4818C297.29 46.4818 298.332 47.5672 298.366 49.738V56H296.769V49.833C296.769 49.1651 296.616 48.667 296.311 48.3388C296.006 48.0048 295.493 47.8378 294.773 47.8378C294.18 47.8378 293.688 48.0163 293.296 48.3733C292.905 48.7246 292.677 49.1996 292.614 49.7985V56H291.008V49.8762C291.008 48.5173 290.343 47.8378 289.012 47.8378C287.964 47.8378 287.247 48.2841 286.862 49.1766V56H285.264V46.6545H286.775ZM304.663 56.1727C303.396 56.1727 302.366 55.7582 301.571 54.929C300.776 54.0941 300.379 52.9798 300.379 51.5864V51.2927C300.379 50.3656 300.555 49.5393 300.906 48.8138C301.263 48.0825 301.758 47.5125 302.391 47.1037C303.031 46.6891 303.722 46.4818 304.464 46.4818C305.679 46.4818 306.624 46.882 307.297 47.6823C307.971 48.4827 308.308 49.6286 308.308 51.12V51.785H301.977C302 52.7063 302.268 53.452 302.78 54.0221C303.298 54.5864 303.955 54.8685 304.749 54.8685C305.314 54.8685 305.792 54.7534 306.183 54.523C306.575 54.2927 306.917 53.9875 307.211 53.6075L308.187 54.3676C307.404 55.571 306.229 56.1727 304.663 56.1727ZM304.464 47.7946C303.819 47.7946 303.278 48.0307 302.841 48.5029C302.403 48.9693 302.132 49.6257 302.029 50.4722H306.71V50.3512C306.664 49.5393 306.445 48.9117 306.054 48.4683C305.662 48.0192 305.132 47.7946 304.464 47.7946ZM313.853 50.9818C313.853 52.2658 313.683 53.4981 313.343 54.6785C313.009 55.8532 312.494 56.9386 311.797 57.9347C311.106 58.9309 310.381 59.6392 309.621 60.0595L309.284 59.0835C310.171 58.404 310.882 57.3503 311.417 55.9223C311.959 54.4885 312.235 52.8992 312.247 51.1545V50.8781C312.247 49.6689 312.12 48.5461 311.866 47.5096C311.613 46.4674 311.259 45.5346 310.804 44.7111C310.355 43.8877 309.848 43.2457 309.284 42.785L309.621 41.809C310.381 42.2294 311.104 42.9319 311.789 43.9165C312.48 44.9012 312.995 45.9866 313.335 47.1727C313.68 48.3589 313.853 49.6286 313.853 50.9818Z" fill="black"/>
<path d="M114.393 56C114.278 55.7754 114.195 55.4962 114.143 55.1622C113.538 55.8359 112.752 56.1727 111.785 56.1727C110.869 56.1727 110.109 55.9079 109.505 55.3781C108.906 54.8484 108.606 54.1804 108.606 53.3743C108.606 52.3839 108.972 51.6238 109.703 51.0941C110.44 50.5643 111.503 50.2965 112.891 50.2908H114.039V49.7553C114.039 49.3234 113.927 48.9779 113.702 48.7188C113.484 48.4597 113.135 48.3301 112.657 48.3301C112.237 48.3301 111.906 48.4309 111.664 48.6324C111.428 48.834 111.31 49.1104 111.31 49.4616H108.814C108.814 48.9203 108.981 48.4194 109.315 47.9587C109.649 47.4981 110.121 47.1382 110.731 46.8791C111.342 46.6142 112.027 46.4818 112.787 46.4818C113.939 46.4818 114.851 46.7726 115.525 47.3541C116.204 47.9299 116.544 48.7418 116.544 49.7898V53.8407C116.55 54.7274 116.674 55.3983 116.916 55.8532V56H114.393ZM112.329 54.2639C112.698 54.2639 113.037 54.1833 113.348 54.0221C113.659 53.8551 113.89 53.6334 114.039 53.357V51.7505H113.106C111.857 51.7505 111.192 52.1823 111.111 53.0461L111.103 53.1929C111.103 53.5038 111.212 53.7601 111.431 53.9616C111.65 54.1631 111.949 54.2639 112.329 54.2639ZM126.874 51.4136C126.874 52.8532 126.546 54.0077 125.89 54.8772C125.239 55.7409 124.358 56.1727 123.247 56.1727C122.302 56.1727 121.539 55.8445 120.958 55.1881V59.5931H118.462V46.6545H120.776L120.863 47.5701C121.467 46.8445 122.256 46.4818 123.229 46.4818C124.381 46.4818 125.276 46.9079 125.916 47.7601C126.555 48.6123 126.874 49.787 126.874 51.2841V51.4136ZM124.378 51.2322C124.378 50.3628 124.223 49.6919 123.912 49.2198C123.606 48.7476 123.16 48.5115 122.573 48.5115C121.79 48.5115 121.251 48.8109 120.958 49.4098V53.2361C121.263 53.8522 121.807 54.1603 122.59 54.1603C123.782 54.1603 124.378 53.1843 124.378 51.2322ZM136.842 51.4136C136.842 52.8532 136.513 54.0077 135.857 54.8772C135.206 55.7409 134.325 56.1727 133.214 56.1727C132.27 56.1727 131.507 55.8445 130.925 55.1881V59.5931H128.429V46.6545H130.744L130.83 47.5701C131.435 46.8445 132.224 46.4818 133.197 46.4818C134.348 46.4818 135.244 46.9079 135.883 47.7601C136.522 48.6123 136.842 49.787 136.842 51.2841V51.4136ZM134.345 51.2322C134.345 50.3628 134.19 49.6919 133.879 49.2198C133.574 48.7476 133.128 48.5115 132.54 48.5115C131.757 48.5115 131.219 48.8109 130.925 49.4098V53.2361C131.23 53.8522 131.774 54.1603 132.558 54.1603C133.749 54.1603 134.345 53.1843 134.345 51.2322ZM141.031 56H138.526V42.7332H141.031V56ZM146.584 52.4674L148.312 46.6545H150.989L147.232 57.4511L147.025 57.9434C146.466 59.1641 145.545 59.7745 144.261 59.7745C143.898 59.7745 143.53 59.7198 143.155 59.6104V57.7188L143.535 57.7274C144.008 57.7274 144.359 57.6555 144.589 57.5115C144.825 57.3676 145.01 57.1286 145.142 56.7946L145.436 56.0259L142.162 46.6545H144.848L146.584 52.4674ZM154.315 46.6545L154.392 47.6996C155.055 46.8877 155.95 46.4818 157.079 46.4818C158.282 46.4818 159.108 46.9568 159.558 47.9069C160.214 46.9568 161.15 46.4818 162.365 46.4818C163.378 46.4818 164.132 46.7783 164.628 47.3714C165.123 47.9587 165.37 48.8455 165.37 50.0317V56H162.866V50.0403C162.866 49.5106 162.762 49.1248 162.555 48.8829C162.347 48.6353 161.982 48.5115 161.458 48.5115C160.709 48.5115 160.191 48.8685 159.903 49.5825L159.912 56H157.415V50.0489C157.415 49.5077 157.309 49.1161 157.096 48.8743C156.883 48.6324 156.52 48.5115 156.008 48.5115C155.299 48.5115 154.787 48.8052 154.47 49.3925V56H151.974V46.6545H154.315ZM172.712 56C172.597 55.7754 172.513 55.4962 172.462 55.1622C171.857 55.8359 171.071 56.1727 170.104 56.1727C169.188 56.1727 168.428 55.9079 167.823 55.3781C167.225 54.8484 166.925 54.1804 166.925 53.3743C166.925 52.3839 167.291 51.6238 168.022 51.0941C168.759 50.5643 169.821 50.2965 171.209 50.2908H172.358V49.7553C172.358 49.3234 172.246 48.9779 172.021 48.7188C171.802 48.4597 171.454 48.3301 170.976 48.3301C170.556 48.3301 170.225 48.4309 169.983 48.6324C169.747 48.834 169.629 49.1104 169.629 49.4616H167.132C167.132 48.9203 167.299 48.4194 167.633 47.9587C167.967 47.4981 168.439 47.1382 169.05 46.8791C169.66 46.6142 170.345 46.4818 171.106 46.4818C172.257 46.4818 173.17 46.7726 173.844 47.3541C174.523 47.9299 174.863 48.7418 174.863 49.7898V53.8407C174.868 54.7274 174.992 55.3983 175.234 55.8532V56H172.712ZM170.648 54.2639C171.016 54.2639 171.356 54.1833 171.667 54.0221C171.978 53.8551 172.208 53.6334 172.358 53.357V51.7505H171.425C170.176 51.7505 169.51 52.1823 169.43 53.0461L169.421 53.1929C169.421 53.5038 169.531 53.7601 169.749 53.9616C169.968 54.1631 170.268 54.2639 170.648 54.2639ZM185.193 51.4136C185.193 52.8532 184.865 54.0077 184.208 54.8772C183.558 55.7409 182.677 56.1727 181.565 56.1727C180.621 56.1727 179.858 55.8445 179.276 55.1881V59.5931H176.78V46.6545H179.095L179.181 47.5701C179.786 46.8445 180.575 46.4818 181.548 46.4818C182.7 46.4818 183.595 46.9079 184.234 47.7601C184.873 48.6123 185.193 49.787 185.193 51.2841V51.4136ZM182.697 51.2322C182.697 50.3628 182.541 49.6919 182.23 49.2198C181.925 48.7476 181.479 48.5115 180.891 48.5115C180.108 48.5115 179.57 48.8109 179.276 49.4098V53.2361C179.582 53.8522 180.126 54.1603 180.909 54.1603C182.101 54.1603 182.697 53.1843 182.697 51.2322Z" fill="#B82629"/>
</svg>
