<svg width="949" height="307" viewBox="0 0 949 307" fill="none" xmlns="http://www.w3.org/2000/svg">
<rect width="949" height="307" fill="white"/>
<g clip-path="url(#clip0)">
<rect width="262" height="274" transform="translate(0 14)" fill="white"/>
<path d="M25.0195 185.125L77.6818 195.535V242.074L25.0195 230.439V185.125Z" fill="#A541F8"/>
<path d="M77.6819 195.535L132.794 186.962V229.826L77.6819 242.074V195.535Z" fill="#A541F8"/>
<path d="M25.0195 184.512L80.1312 175.939V218.804L25.0195 231.051V184.512Z" fill="#A541F8"/>
<path d="M77.6819 175.939L132.794 185.118V226.152L77.6819 215.894V175.939Z" fill="#A541F8"/>
<path d="M24.4071 185.125L77.0695 197.326V251.871L24.4071 238.235V185.125Z" fill="#A541F8"/>
<path d="M74.6201 194.922L127.282 205.332V251.871L74.6201 240.236V194.922Z" fill="#A541F8"/>
<path d="M74.6201 194.31L129.732 185.737V228.602L74.6201 240.849V194.31Z" fill="#A541F8"/>
<path d="M71.5583 194.31L130.344 207.183V264.731L71.5583 250.344V194.31Z" fill="#A541F8"/>
<path d="M78.2942 174.102L130.957 184.512V231.051L78.2942 219.416V174.102Z" fill="#A541F8"/>
<path d="M25.0195 140.423L77.6818 150.833V197.372L25.0195 185.737V140.423Z" fill="#A541F8"/>
<path d="M77.6819 150.833L132.794 142.26V185.125L77.6819 197.372V150.833Z" fill="#6FCF97"/>
<path d="M25.0195 139.811L80.1312 131.238V174.102L25.0195 186.349V139.811Z" fill="#6FCF97"/>
<path d="M77.6819 131.238L132.794 140.416V181.451L77.6819 171.192V131.238Z" fill="#6FCF97"/>
<g filter="url(#filter0_d)">
<path d="M25.0195 140.423L77.6818 150.833V197.372L25.0195 185.737V140.423Z" fill="#6FCF97"/>
</g>
<path d="M77.0695 150.833L132.181 142.26V185.125L77.0695 197.372V150.833Z" fill="#6FCF97"/>
<path d="M25.0195 139.811L80.1312 131.238V174.102L25.0195 186.349V139.811Z" fill="#6FCF97"/>
<path d="M84.4177 151.445L137.08 161.855V208.394L84.4177 196.759V151.445Z" fill="#A541F8"/>
<path d="M84.4177 150.833L139.529 142.26V185.125L84.4177 197.372V150.833Z" fill="#6FCF97"/>
<g filter="url(#filter1_d)">
<path d="M73.3954 151.445L126.058 161.855V208.394L73.3954 196.759V151.445Z" fill="#0072B2"/>
</g>
<path d="M72.1707 148.996L127.282 140.423V183.288L72.1707 195.535V148.996Z" fill="#0072B2"/>
<path d="M23.1825 92.0471L75.8448 102.457V148.996L23.1825 137.361V92.0471Z" fill="#A541F8"/>
<path d="M75.8448 102.457L130.957 93.8842V136.749L75.8448 148.996V102.457Z" fill="#6FCF97"/>
<path d="M23.1825 91.4348L78.2942 82.8618V125.727L23.1825 137.974V91.4348Z" fill="#6FCF97"/>
<path d="M75.8448 82.8618L130.957 92.0406V133.075L75.8448 122.816V82.8618Z" fill="#A541F8"/>
<g filter="url(#filter2_d)">
<path d="M23.7948 89.5977L76.4571 101.139V152.058L23.7948 139.837V89.5977Z" fill="#A541F8"/>
</g>
<path d="M23.7948 91.4348L78.9065 82.8618V125.727L23.7948 137.974V91.4348Z" fill="#A541F8"/>
<path d="M75.8448 103.682L130.957 96.946V141.035L75.8448 152.058V103.682Z" fill="#A541F8"/>
<path d="M25.6319 46.733L78.2942 57.143V103.682L25.6319 92.0471V46.733Z" fill="#A541F8"/>
<g filter="url(#filter3_d)">
<path d="M23.1825 46.733L75.8448 57.143V103.682L23.1825 92.0471V46.733Z" fill="#0072B2"/>
</g>
<g filter="url(#filter4_d)">
<path d="M77.4818 57.2305L130.957 47.9577V94.3216L70.946 112.867L77.4818 57.2305Z" fill="#0072B2"/>
</g>
<path d="M80.7436 108.581L133.406 118.991V165.529L80.7436 153.895V108.581Z" fill="#A541F8"/>
<path d="M80.7436 107.968L135.855 99.3954V142.26L80.7436 154.507V107.968Z" fill="#6FCF97"/>
<g filter="url(#filter5_d)">
<path d="M72.1359 106.326L136.168 116.806V163.658L72.1359 151.945V106.326Z" fill="#6FCF97"/>
</g>
<path d="M72.1707 101.137L129.732 92.6595V135.048L72.1707 147.159V101.137Z" fill="#6FCF97"/>
<g filter="url(#filter6_d)">
<path d="M128.82 95.9022V111.211L70.6467 103.25L128.82 95.9022Z" fill="#6FCF97"/>
</g>
<path d="M127.282 207.169L182.394 198.596V241.461L127.282 253.708V207.169Z" fill="#A541F8"/>
<path d="M127.282 185.737L182.394 194.916V235.95L127.282 225.691V185.737Z" fill="#A541F8"/>
<path d="M127.282 140.423L182.394 149.602V190.636L127.282 180.377V140.423Z" fill="#6FCF97"/>
<path d="M126.058 161.855L182.394 153.282V196.147L126.058 208.394V161.855Z" fill="#0072B2"/>
<path d="M129.732 206.557L182.394 216.967V263.506L129.732 251.871V206.557Z" fill="#A541F8"/>
<path d="M182.394 216.967L237.506 208.394V251.259L182.394 263.506V216.967Z" fill="#6FCF97"/>
<path d="M129.732 205.945L184.844 197.372V240.237L129.732 252.484V205.945Z" fill="#6FCF97"/>
<path d="M182.394 197.372L237.506 206.551V247.585L182.394 237.326V197.372Z" fill="#6FCF97"/>
<path d="M129.732 210.844L182.394 221.254V267.792L129.732 256.158V210.844Z" fill="#6FCF97" fill-opacity="0.64"/>
<g filter="url(#filter7_d)">
<path d="M182.394 229.214L237.506 220.641V263.506L182.394 275.753V229.214Z" fill="#6FCF97"/>
</g>
<path d="M129.732 216.355L184.844 207.782V250.646L129.732 262.894V216.355Z" fill="#6FCF97"/>
<path d="M132.181 161.243L184.844 171.653V218.192L132.181 206.557V161.243Z" fill="#A541F8"/>
<path d="M132.181 160.631L187.293 152.058V194.922L132.181 207.169V160.631Z" fill="#6FCF97"/>
<path d="M182.394 150.833L237.506 160.012V201.046L182.394 190.787V150.833Z" fill="#6FCF97"/>
<path d="M129.732 161.243L182.394 171.653V218.192L129.732 206.557V161.243Z" fill="#6FCF97"/>
<path d="M182.394 174.102L237.506 165.529V208.394L182.394 220.641V174.102Z" fill="#6FCF97"/>
<path d="M129.732 160.018L184.844 151.445V194.31L129.732 206.557V160.018Z" fill="#6FCF97"/>
<path d="M128.507 92.0471L184.844 101.845V144.709L128.507 132.002V92.0471Z" fill="#6FCF97"/>
<path d="M129.732 113.303L184.844 103.682V151.786L129.732 165.529V113.303Z" fill="#6FCF97"/>
<path d="M140.142 117.154L192.804 127.564V174.102L140.142 162.468V117.154Z" fill="#A541F8"/>
<path d="M140.142 116.541L195.254 107.968V150.833L140.142 163.08V116.541Z" fill="#6FCF97"/>
<path d="M182.394 99.3954L237.506 110.446V158.794L182.394 144.46V99.3954Z" fill="#A541F8"/>
<g filter="url(#filter8_d)">
<path d="M129.732 120.215L189.13 130.625V177.164L129.732 165.529V120.215Z" fill="#A541F8"/>
</g>
<g filter="url(#filter9_d)">
<path d="M187.905 122.352L237.506 112.255V162.74L187.905 177.164V122.352Z" fill="#A541F8"/>
</g>
<path d="M129.732 109.397L184.844 99.3954V149.404L129.732 163.692V109.397Z" fill="#A541F8"/>
<path d="M129.732 62.4773L184.844 52.8566V100.96L129.732 114.704V62.4773Z" fill="#6FCF97"/>
<path d="M140.142 66.3283L192.804 76.7383V123.277L140.142 111.642V66.3283Z" fill="#A541F8"/>
<path d="M140.142 65.716L195.254 57.143V100.008L140.142 112.255V65.716Z" fill="#6FCF97"/>
<path d="M182.394 48.5701L237.506 59.6209V107.968L182.394 93.6349V48.5701Z" fill="#A541F8"/>
<path d="M129.732 69.3901L189.13 79.8001V126.339L129.732 114.704V69.3901Z" fill="#A541F8"/>
<path d="M187.905 71.5265L237.506 61.4295V111.915L187.905 126.339V71.5265Z" fill="#A541F8"/>
<path d="M129.732 58.5719L184.844 48.5701V98.5789L129.732 112.867V58.5719Z" fill="#A541F8"/>
<g filter="url(#filter10_d)">
<path d="M187.958 236.562L237.506 262.99L183.622 280.039L129.119 262.99L187.958 236.562Z" fill="#6FCF97"/>
</g>
<g filter="url(#filter11_d)">
<path d="M184.231 47.3454L236.281 59.5925L184.231 71.2272L129.732 59.5925L184.231 47.3454Z" fill="#A541F8"/>
</g>
<path d="M25.6319 46.1207L80.7436 37.5477V80.4124L25.6319 92.6595V46.1207Z" fill="#6FCF97"/>
<path d="M78.837 37.0815L130.212 47.4708V92.9239L78.837 79.4486V37.0815Z" fill="#0072B2"/>
<path d="M23.7391 45.8839L75.8587 37.0815L91.4946 81.0936L23.7391 93.6685V45.8839Z" fill="#0072B2"/>
<g filter="url(#filter12_d)">
<path d="M76.4571 36.9354L130.344 46.1207L76.4571 55.9183L25.0195 46.1207L76.4571 36.9354Z" fill="#0072B2"/>
</g>
<path d="M320.346 121.474C320.488 121.325 320.482 121.089 320.332 120.947L317.903 118.64C317.754 118.498 317.519 118.504 317.377 118.653C317.235 118.802 317.241 119.038 317.391 119.18L319.55 121.231L317.498 123.39C317.357 123.539 317.363 123.775 317.512 123.916C317.661 124.058 317.897 124.052 318.038 123.903L320.346 121.474ZM262.01 123.079L320.086 121.59L320.067 120.845L261.99 122.334L262.01 123.079Z" fill="black"/>
<path d="M463.355 181.376C463.55 181.18 463.548 180.863 463.352 180.669L460.155 177.503C459.958 177.308 459.642 177.31 459.447 177.506C459.253 177.702 459.255 178.019 459.451 178.213L462.293 181.028L459.478 183.87C459.284 184.066 459.286 184.383 459.482 184.577C459.678 184.771 459.995 184.77 460.189 184.573L463.355 181.376ZM262.002 182.5L463.003 181.524L462.998 180.524L261.998 181.5L262.002 182.5Z" fill="black"/>
<path d="M463.356 179.157C463.548 178.959 463.543 178.643 463.345 178.45L460.113 175.319C459.915 175.127 459.598 175.132 459.406 175.331C459.214 175.529 459.219 175.845 459.417 176.038L462.29 178.821L459.507 181.694C459.315 181.892 459.32 182.209 459.518 182.401C459.716 182.593 460.033 182.588 460.225 182.39L463.356 179.157ZM262.008 182.5L463.005 179.31L462.989 178.31L261.992 181.5L262.008 182.5Z" fill="black"/>
</g>
<rect width="127" height="151" transform="translate(460 87)" fill="white"/>
<g filter="url(#filter13_d)">
<path d="M483.232 108.469H571.256V225.118H483.232V108.469Z" fill="white"/>
<path d="M483.59 108.827H570.898V224.761H483.59V108.827Z" stroke="black" stroke-width="0.71564"/>
</g>
<path d="M495.398 128.507C500.965 128.419 506.528 128.11 512.096 128.11C513.325 128.11 516.585 128.903 517.941 128.149C519.365 127.358 519.67 127.076 521.479 127.076C523.902 127.076 526.28 126.852 527.96 128.905C528.559 129.638 529.532 133.301 530.146 133.477C533.751 134.507 537.016 127.791 541.199 127.791C545.081 127.791 548.825 127.076 552.649 127.076" stroke="black" stroke-width="0.71564" stroke-linecap="round" stroke-linejoin="round"/>
<path d="M498.976 149.976C501.092 148.273 503.579 144.967 506.491 144.967C510.444 144.967 514.91 147.797 517.861 150.294C518.918 151.188 519.88 152.245 520.843 153.236C520.986 153.383 522.463 155.322 522.592 155.224C523.901 154.243 524.119 151.809 524.739 150.414C526.458 146.546 537.168 149.611 539.768 149.817C546.833 150.377 553.568 148.545 560.521 148.545" stroke="black" stroke-width="0.71564" stroke-linecap="round" stroke-linejoin="round"/>
<path d="M498.976 195.062C503.217 195.062 507.459 195.032 511.699 195.062C514.041 195.078 519.099 194.353 520.843 196.572C524.036 200.636 526.751 202.404 532.134 201.105C537.811 199.734 541.776 197.924 547.64 197.924" stroke="black" stroke-width="0.71564" stroke-linecap="round" stroke-linejoin="round"/>
<path d="M503.986 207.227C513.582 209.459 525.93 212.983 536.07 210.448C539.206 209.664 542.481 212.728 544.062 215.1" stroke="black" stroke-width="0.71564" stroke-linecap="round" stroke-linejoin="round"/>
<path d="M500.408 172.877C502.928 172.529 505.416 172.161 507.962 172.161C510.575 172.161 512.742 173.768 515.277 174.229C518.778 174.865 524.712 175.199 527.96 173.95C530.877 172.828 535.078 172.474 537.78 174.308C539.844 175.709 541.709 177.502 544.062 178.443C544.884 178.772 546.122 177.438 546.924 177.171" stroke="black" stroke-width="0.71564" stroke-linecap="round" stroke-linejoin="round"/>
<path d="M597.898 152.939C597.74 154.293 597.239 155.339 596.396 156.077C595.558 156.81 594.441 157.176 593.047 157.176C591.535 157.176 590.322 156.634 589.408 155.55C588.5 154.466 588.046 153.016 588.046 151.199V149.969C588.046 148.779 588.257 147.733 588.679 146.831C589.106 145.929 589.71 145.237 590.489 144.757C591.269 144.271 592.171 144.027 593.196 144.027C594.556 144.027 595.646 144.408 596.466 145.17C597.286 145.926 597.764 146.975 597.898 148.316H596.202C596.056 147.297 595.736 146.559 595.244 146.102C594.758 145.645 594.075 145.416 593.196 145.416C592.118 145.416 591.271 145.814 590.656 146.611C590.047 147.408 589.742 148.542 589.742 150.013V151.252C589.742 152.641 590.032 153.745 590.612 154.565C591.192 155.386 592.004 155.796 593.047 155.796C593.984 155.796 594.702 155.585 595.2 155.163C595.704 154.735 596.038 153.994 596.202 152.939H597.898ZM605.826 157C605.732 156.812 605.656 156.479 605.598 155.998C604.842 156.783 603.939 157.176 602.891 157.176C601.953 157.176 601.183 156.912 600.579 156.385C599.981 155.852 599.683 155.178 599.683 154.363C599.683 153.373 600.058 152.605 600.808 152.061C601.563 151.51 602.624 151.234 603.989 151.234H605.571V150.487C605.571 149.919 605.401 149.468 605.062 149.134C604.722 148.794 604.221 148.624 603.559 148.624C602.979 148.624 602.492 148.771 602.1 149.063C601.707 149.356 601.511 149.711 601.511 150.127H599.876C599.876 149.652 600.043 149.195 600.377 148.756C600.717 148.311 601.174 147.959 601.748 147.701C602.328 147.443 602.964 147.314 603.655 147.314C604.751 147.314 605.609 147.59 606.23 148.141C606.852 148.686 607.174 149.438 607.197 150.399V154.776C607.197 155.649 607.309 156.344 607.531 156.859V157H605.826ZM603.128 155.761C603.638 155.761 604.121 155.629 604.578 155.365C605.035 155.102 605.366 154.759 605.571 154.337V152.386H604.297C602.305 152.386 601.309 152.969 601.309 154.135C601.309 154.645 601.479 155.043 601.818 155.33C602.158 155.617 602.595 155.761 603.128 155.761ZM611.513 157H609.887V143.5H611.513V157ZM615.89 157H614.264V143.5H615.89V157ZM628.836 157C628.742 156.812 628.666 156.479 628.607 155.998C627.852 156.783 626.949 157.176 625.9 157.176C624.963 157.176 624.192 156.912 623.589 156.385C622.991 155.852 622.692 155.178 622.692 154.363C622.692 153.373 623.067 152.605 623.817 152.061C624.573 151.51 625.634 151.234 626.999 151.234H628.581V150.487C628.581 149.919 628.411 149.468 628.071 149.134C627.731 148.794 627.23 148.624 626.568 148.624C625.988 148.624 625.502 148.771 625.109 149.063C624.717 149.356 624.521 149.711 624.521 150.127H622.886C622.886 149.652 623.053 149.195 623.387 148.756C623.727 148.311 624.184 147.959 624.758 147.701C625.338 147.443 625.974 147.314 626.665 147.314C627.761 147.314 628.619 147.59 629.24 148.141C629.861 148.686 630.184 149.438 630.207 150.399V154.776C630.207 155.649 630.318 156.344 630.541 156.859V157H628.836ZM626.138 155.761C626.647 155.761 627.131 155.629 627.588 155.365C628.045 155.102 628.376 154.759 628.581 154.337V152.386H627.307C625.314 152.386 624.318 152.969 624.318 154.135C624.318 154.645 624.488 155.043 624.828 155.33C625.168 155.617 625.604 155.761 626.138 155.761ZM634.294 147.49L634.347 148.686C635.073 147.771 636.022 147.314 637.194 147.314C639.204 147.314 640.218 148.448 640.235 150.716V157H638.609V150.707C638.604 150.021 638.445 149.515 638.135 149.187C637.83 148.858 637.353 148.694 636.702 148.694C636.175 148.694 635.712 148.835 635.313 149.116C634.915 149.397 634.604 149.767 634.382 150.224V157H632.756V147.49H634.294ZM653.023 157C652.93 156.812 652.854 156.479 652.795 155.998C652.039 156.783 651.137 157.176 650.088 157.176C649.15 157.176 648.38 156.912 647.776 156.385C647.179 155.852 646.88 155.178 646.88 154.363C646.88 153.373 647.255 152.605 648.005 152.061C648.761 151.51 649.821 151.234 651.187 151.234H652.769V150.487C652.769 149.919 652.599 149.468 652.259 149.134C651.919 148.794 651.418 148.624 650.756 148.624C650.176 148.624 649.689 148.771 649.297 149.063C648.904 149.356 648.708 149.711 648.708 150.127H647.073C647.073 149.652 647.24 149.195 647.574 148.756C647.914 148.311 648.371 147.959 648.945 147.701C649.525 147.443 650.161 147.314 650.853 147.314C651.948 147.314 652.807 147.59 653.428 148.141C654.049 148.686 654.371 149.438 654.395 150.399V154.776C654.395 155.649 654.506 156.344 654.729 156.859V157H653.023ZM650.325 155.761C650.835 155.761 651.318 155.629 651.775 155.365C652.232 155.102 652.563 154.759 652.769 154.337V152.386H651.494C649.502 152.386 648.506 152.969 648.506 154.135C648.506 154.645 648.676 155.043 649.016 155.33C649.355 155.617 649.792 155.761 650.325 155.761ZM656.557 152.166C656.557 150.684 656.899 149.506 657.585 148.633C658.271 147.754 659.179 147.314 660.31 147.314C661.47 147.314 662.375 147.725 663.025 148.545L663.104 147.49H664.59V156.771C664.59 158.002 664.224 158.972 663.491 159.681C662.765 160.39 661.786 160.744 660.556 160.744C659.87 160.744 659.199 160.598 658.543 160.305C657.887 160.012 657.386 159.61 657.04 159.101L657.884 158.125C658.581 158.986 659.434 159.417 660.441 159.417C661.232 159.417 661.848 159.194 662.287 158.749C662.732 158.304 662.955 157.677 662.955 156.868V156.051C662.305 156.801 661.417 157.176 660.292 157.176C659.179 157.176 658.276 156.728 657.585 155.831C656.899 154.935 656.557 153.713 656.557 152.166ZM658.191 152.351C658.191 153.423 658.411 154.267 658.851 154.882C659.29 155.491 659.905 155.796 660.696 155.796C661.722 155.796 662.475 155.33 662.955 154.398V150.057C662.457 149.148 661.71 148.694 660.714 148.694C659.923 148.694 659.305 149.002 658.859 149.617C658.414 150.232 658.191 151.144 658.191 152.351ZM666.664 152.166C666.664 150.684 667.007 149.506 667.692 148.633C668.378 147.754 669.286 147.314 670.417 147.314C671.577 147.314 672.482 147.725 673.133 148.545L673.212 147.49H674.697V156.771C674.697 158.002 674.331 158.972 673.599 159.681C672.872 160.39 671.894 160.744 670.663 160.744C669.978 160.744 669.307 160.598 668.65 160.305C667.994 160.012 667.493 159.61 667.147 159.101L667.991 158.125C668.688 158.986 669.541 159.417 670.549 159.417C671.34 159.417 671.955 159.194 672.395 158.749C672.84 158.304 673.062 157.677 673.062 156.868V156.051C672.412 156.801 671.524 157.176 670.399 157.176C669.286 157.176 668.384 156.728 667.692 155.831C667.007 154.935 666.664 153.713 666.664 152.166ZM668.299 152.351C668.299 153.423 668.519 154.267 668.958 154.882C669.397 155.491 670.013 155.796 670.804 155.796C671.829 155.796 672.582 155.33 673.062 154.398V150.057C672.564 149.148 671.817 148.694 670.821 148.694C670.03 148.694 669.412 149.002 668.967 149.617C668.521 150.232 668.299 151.144 668.299 152.351ZM681.755 148.949C681.509 148.908 681.242 148.888 680.955 148.888C679.889 148.888 679.165 149.342 678.784 150.25V157H677.158V147.49H678.74L678.767 148.589C679.3 147.739 680.056 147.314 681.034 147.314C681.351 147.314 681.591 147.355 681.755 147.438V148.949ZM687.028 157.176C685.739 157.176 684.69 156.754 683.882 155.91C683.073 155.061 682.669 153.927 682.669 152.509V152.21C682.669 151.267 682.848 150.426 683.205 149.688C683.568 148.943 684.072 148.363 684.717 147.947C685.367 147.525 686.07 147.314 686.826 147.314C688.062 147.314 689.023 147.722 689.709 148.536C690.395 149.351 690.737 150.517 690.737 152.034V152.711H684.295C684.318 153.648 684.591 154.407 685.112 154.987C685.64 155.562 686.308 155.849 687.116 155.849C687.69 155.849 688.177 155.731 688.575 155.497C688.974 155.263 689.322 154.952 689.621 154.565L690.614 155.339C689.817 156.563 688.622 157.176 687.028 157.176ZM686.826 148.65C686.17 148.65 685.619 148.891 685.174 149.371C684.729 149.846 684.453 150.514 684.348 151.375H689.111V151.252C689.064 150.426 688.842 149.787 688.443 149.336C688.045 148.879 687.506 148.65 686.826 148.65ZM692.24 152.166C692.24 150.684 692.583 149.506 693.269 148.633C693.954 147.754 694.862 147.314 695.993 147.314C697.153 147.314 698.059 147.725 698.709 148.545L698.788 147.49H700.273V156.771C700.273 158.002 699.907 158.972 699.175 159.681C698.448 160.39 697.47 160.744 696.239 160.744C695.554 160.744 694.883 160.598 694.227 160.305C693.57 160.012 693.069 159.61 692.724 159.101L693.567 158.125C694.265 158.986 695.117 159.417 696.125 159.417C696.916 159.417 697.531 159.194 697.971 158.749C698.416 158.304 698.639 157.677 698.639 156.868V156.051C697.988 156.801 697.101 157.176 695.976 157.176C694.862 157.176 693.96 156.728 693.269 155.831C692.583 154.935 692.24 153.713 692.24 152.166ZM693.875 152.351C693.875 153.423 694.095 154.267 694.534 154.882C694.974 155.491 695.589 155.796 696.38 155.796C697.405 155.796 698.158 155.33 698.639 154.398V150.057C698.141 149.148 697.394 148.694 696.397 148.694C695.606 148.694 694.988 149.002 694.543 149.617C694.098 150.232 693.875 151.144 693.875 152.351ZM708.605 157C708.512 156.812 708.436 156.479 708.377 155.998C707.621 156.783 706.719 157.176 705.67 157.176C704.732 157.176 703.962 156.912 703.358 156.385C702.761 155.852 702.462 155.178 702.462 154.363C702.462 153.373 702.837 152.605 703.587 152.061C704.343 151.51 705.403 151.234 706.769 151.234H708.351V150.487C708.351 149.919 708.181 149.468 707.841 149.134C707.501 148.794 707 148.624 706.338 148.624C705.758 148.624 705.271 148.771 704.879 149.063C704.486 149.356 704.29 149.711 704.29 150.127H702.655C702.655 149.652 702.822 149.195 703.156 148.756C703.496 148.311 703.953 147.959 704.527 147.701C705.107 147.443 705.743 147.314 706.435 147.314C707.53 147.314 708.389 147.59 709.01 148.141C709.631 148.686 709.953 149.438 709.977 150.399V154.776C709.977 155.649 710.088 156.344 710.311 156.859V157H708.605ZM705.907 155.761C706.417 155.761 706.9 155.629 707.357 155.365C707.814 155.102 708.146 154.759 708.351 154.337V152.386H707.076C705.084 152.386 704.088 152.969 704.088 154.135C704.088 154.645 704.258 155.043 704.598 155.33C704.938 155.617 705.374 155.761 705.907 155.761ZM714.731 145.188V147.49H716.507V148.747H714.731V154.645C714.731 155.025 714.811 155.312 714.969 155.506C715.127 155.693 715.396 155.787 715.777 155.787C715.965 155.787 716.223 155.752 716.551 155.682V157C716.123 157.117 715.707 157.176 715.303 157.176C714.576 157.176 714.028 156.956 713.659 156.517C713.29 156.077 713.105 155.453 713.105 154.645V148.747H711.374V147.49H713.105V145.188H714.731ZM720.181 157H718.555V147.49H720.181V157ZM718.423 144.968C718.423 144.704 718.502 144.481 718.66 144.3C718.824 144.118 719.064 144.027 719.381 144.027C719.697 144.027 719.938 144.118 720.102 144.3C720.266 144.481 720.348 144.704 720.348 144.968C720.348 145.231 720.266 145.451 720.102 145.627C719.938 145.803 719.697 145.891 719.381 145.891C719.064 145.891 718.824 145.803 718.66 145.627C718.502 145.451 718.423 145.231 718.423 144.968ZM722.36 152.157C722.36 151.226 722.542 150.388 722.905 149.644C723.274 148.899 723.784 148.325 724.435 147.921C725.091 147.517 725.838 147.314 726.676 147.314C727.971 147.314 729.017 147.763 729.813 148.659C730.616 149.556 731.018 150.748 731.018 152.236V152.351C731.018 153.276 730.839 154.108 730.481 154.847C730.13 155.579 729.623 156.15 728.961 156.561C728.305 156.971 727.549 157.176 726.693 157.176C725.404 157.176 724.358 156.728 723.556 155.831C722.759 154.935 722.36 153.748 722.36 152.271V152.157ZM723.995 152.351C723.995 153.405 724.238 154.252 724.725 154.891C725.217 155.529 725.873 155.849 726.693 155.849C727.52 155.849 728.176 155.526 728.662 154.882C729.148 154.231 729.392 153.323 729.392 152.157C729.392 151.114 729.143 150.271 728.645 149.626C728.152 148.976 727.496 148.65 726.676 148.65C725.873 148.65 725.226 148.97 724.733 149.608C724.241 150.247 723.995 151.161 723.995 152.351ZM734.595 147.49L734.647 148.686C735.374 147.771 736.323 147.314 737.495 147.314C739.505 147.314 740.519 148.448 740.536 150.716V157H738.91V150.707C738.904 150.021 738.746 149.515 738.436 149.187C738.131 148.858 737.653 148.694 737.003 148.694C736.476 148.694 736.013 148.835 735.614 149.116C735.216 149.397 734.905 149.767 734.683 150.224V157H733.057V147.49H734.595ZM748.253 157V148.747H746.75V147.49H748.253V146.515C748.253 145.495 748.525 144.707 749.07 144.15C749.615 143.594 750.386 143.315 751.382 143.315C751.757 143.315 752.129 143.365 752.498 143.465L752.41 144.783C752.135 144.73 751.842 144.704 751.531 144.704C751.004 144.704 750.597 144.859 750.31 145.17C750.022 145.475 749.879 145.914 749.879 146.488V147.49H751.909V148.747H749.879V157H748.253ZM759.582 156.06C758.949 156.804 758.021 157.176 756.796 157.176C755.782 157.176 755.009 156.883 754.476 156.297C753.948 155.705 753.682 154.832 753.676 153.678V147.49H755.302V153.634C755.302 155.075 755.888 155.796 757.06 155.796C758.302 155.796 759.128 155.333 759.538 154.407V147.49H761.164V157H759.617L759.582 156.06ZM765.181 147.49L765.233 148.686C765.96 147.771 766.909 147.314 768.081 147.314C770.091 147.314 771.104 148.448 771.122 150.716V157H769.496V150.707C769.49 150.021 769.332 149.515 769.021 149.187C768.717 148.858 768.239 148.694 767.589 148.694C767.062 148.694 766.599 148.835 766.2 149.116C765.802 149.397 765.491 149.767 765.269 150.224V157H763.643V147.49H765.181ZM777.389 155.849C777.969 155.849 778.476 155.673 778.909 155.321C779.343 154.97 779.583 154.53 779.63 154.003H781.168C781.139 154.548 780.951 155.066 780.605 155.559C780.26 156.051 779.797 156.443 779.217 156.736C778.643 157.029 778.033 157.176 777.389 157.176C776.094 157.176 775.062 156.745 774.295 155.884C773.533 155.017 773.152 153.833 773.152 152.333V152.061C773.152 151.135 773.322 150.312 773.662 149.591C774.002 148.87 774.488 148.311 775.121 147.912C775.76 147.514 776.513 147.314 777.38 147.314C778.446 147.314 779.331 147.634 780.034 148.272C780.743 148.911 781.121 149.74 781.168 150.76H779.63C779.583 150.145 779.349 149.641 778.927 149.248C778.511 148.85 777.995 148.65 777.38 148.65C776.554 148.65 775.912 148.949 775.455 149.547C775.004 150.139 774.778 150.997 774.778 152.122V152.43C774.778 153.525 775.004 154.369 775.455 154.961C775.906 155.553 776.551 155.849 777.389 155.849ZM785.202 145.188V147.49H786.978V148.747H785.202V154.645C785.202 155.025 785.281 155.312 785.439 155.506C785.598 155.693 785.867 155.787 786.248 155.787C786.436 155.787 786.693 155.752 787.021 155.682V157C786.594 157.117 786.178 157.176 785.773 157.176C785.047 157.176 784.499 156.956 784.13 156.517C783.761 156.077 783.576 155.453 783.576 154.645V148.747H781.845V147.49H783.576V145.188H785.202ZM790.651 157H789.025V147.49H790.651V157ZM788.894 144.968C788.894 144.704 788.973 144.481 789.131 144.3C789.295 144.118 789.535 144.027 789.852 144.027C790.168 144.027 790.408 144.118 790.572 144.3C790.736 144.481 790.818 144.704 790.818 144.968C790.818 145.231 790.736 145.451 790.572 145.627C790.408 145.803 790.168 145.891 789.852 145.891C789.535 145.891 789.295 145.803 789.131 145.627C788.973 145.451 788.894 145.231 788.894 144.968ZM792.831 152.157C792.831 151.226 793.013 150.388 793.376 149.644C793.745 148.899 794.255 148.325 794.905 147.921C795.562 147.517 796.309 147.314 797.146 147.314C798.441 147.314 799.487 147.763 800.284 148.659C801.087 149.556 801.488 150.748 801.488 152.236V152.351C801.488 153.276 801.31 154.108 800.952 154.847C800.601 155.579 800.094 156.15 799.432 156.561C798.775 156.971 798.02 157.176 797.164 157.176C795.875 157.176 794.829 156.728 794.026 155.831C793.229 154.935 792.831 153.748 792.831 152.271V152.157ZM794.466 152.351C794.466 153.405 794.709 154.252 795.195 154.891C795.688 155.529 796.344 155.849 797.164 155.849C797.99 155.849 798.646 155.526 799.133 154.882C799.619 154.231 799.862 153.323 799.862 152.157C799.862 151.114 799.613 150.271 799.115 149.626C798.623 148.976 797.967 148.65 797.146 148.65C796.344 148.65 795.696 148.97 795.204 149.608C794.712 150.247 794.466 151.161 794.466 152.351ZM805.065 147.49L805.118 148.686C805.845 147.771 806.794 147.314 807.966 147.314C809.976 147.314 810.989 148.448 811.007 150.716V157H809.381V150.707C809.375 150.021 809.217 149.515 808.906 149.187C808.602 148.858 808.124 148.694 807.474 148.694C806.946 148.694 806.483 148.835 806.085 149.116C805.687 149.397 805.376 149.767 805.153 150.224V157H803.527V147.49H805.065ZM813.494 156.147C813.494 155.866 813.576 155.632 813.74 155.444C813.91 155.257 814.162 155.163 814.496 155.163C814.83 155.163 815.082 155.257 815.252 155.444C815.428 155.632 815.516 155.866 815.516 156.147C815.516 156.417 815.428 156.643 815.252 156.824C815.082 157.006 814.83 157.097 814.496 157.097C814.162 157.097 813.91 157.006 813.74 156.824C813.576 156.643 813.494 156.417 813.494 156.147Z" fill="black"/>
<rect width="122" height="257" transform="translate(817 34)" fill="white"/>
<g clip-path="url(#clip1)">
<rect width="94.4209" height="63.1557" transform="translate(830.197 34)" fill="white"/>
<path d="M836.164 49.095L882.448 41.8952V77.894L836.164 88.1794V49.095Z" fill="#6FCF97"/>
<path d="M880.391 41.3809L924.104 49.6092V85.6081L880.391 74.9356V41.3809Z" fill="#0072B2"/>
<path d="M834.107 48.5807L880.391 41.3809V77.3798L834.107 87.6651V48.5807Z" fill="#0072B2"/>
<g filter="url(#filter14_d)">
<path d="M878.848 41.3809L924.104 49.095L878.848 57.3233L835.65 49.095L878.848 41.3809Z" fill="#0072B2"/>
</g>
<path d="M833.949 52.7591L877.662 60.9874V96.9862L833.949 86.5255V52.7591Z" fill="#0072B2"/>
<path d="M877.72 59.1511L923.993 50.8832V92.2228L877.72 104.034V59.1511Z" fill="#0072B2"/>
</g>
<path d="M833.546 211.347L877.773 220.089V259.174L833.546 249.403V211.347Z" fill="#A541F8"/>
<path d="M877.773 220.089L924.057 212.89V248.888L877.773 259.174V220.089Z" fill="#6FCF97"/>
<path d="M833.546 210.833L879.83 203.633V239.632L833.546 249.917V210.833Z" fill="#6FCF97"/>
<path d="M877.773 203.633L924.057 211.341V245.803L877.773 237.187V203.633Z" fill="#6FCF97"/>
<path d="M833.546 214.947L877.773 223.689V262.774L833.546 253.003V214.947Z" fill="#6FCF97" fill-opacity="0.64"/>
<g filter="url(#filter15_d)">
<path d="M877.773 230.375L924.057 223.175V259.174L877.773 269.459V230.375Z" fill="#6FCF97"/>
</g>
<path d="M833.546 219.575L879.83 212.375V248.374L833.546 258.66V219.575Z" fill="#6FCF97"/>
<path d="M835.603 173.291L879.83 182.033V221.118L835.603 211.347V173.291Z" fill="#A541F8"/>
<path d="M835.603 172.777L881.887 165.577V201.576L835.603 211.861V172.777Z" fill="#6FCF97"/>
<path d="M877.773 164.548L924.057 172.257V206.718L877.773 198.103V164.548Z" fill="#6FCF97"/>
<path d="M833.546 173.291L877.773 182.033V221.118L833.546 211.347V173.291Z" fill="#6FCF97"/>
<path d="M877.773 184.091L924.057 176.891V212.89L877.773 223.175V184.091Z" fill="#6FCF97"/>
<path d="M833.546 172.262L879.83 165.063V201.061L833.546 211.347V172.262Z" fill="#6FCF97"/>
<path d="M833.546 133.029L879.83 124.95V165.348L833.546 176.891V133.029Z" fill="#6FCF97"/>
<path d="M842.288 136.264L886.515 145.006V184.091L842.288 174.319V136.264Z" fill="#A541F8"/>
<path d="M842.288 135.749L888.572 128.549V164.548L842.288 174.834V135.749Z" fill="#6FCF97"/>
<path d="M877.773 121.35L924.057 130.63V171.234L877.773 159.196V121.35Z" fill="#A541F8"/>
<g filter="url(#filter16_d)">
<path d="M833.546 138.835L883.43 147.577V186.662L833.546 176.891V138.835Z" fill="#A541F8"/>
</g>
<g filter="url(#filter17_d)">
<path d="M882.401 140.629L924.057 132.149V174.548L882.401 186.662V140.629Z" fill="#A541F8"/>
</g>
<path d="M833.546 129.749L879.83 121.35V163.348L833.546 175.348V129.749Z" fill="#A541F8"/>
<path d="M833.546 90.345L879.83 82.2653V122.664L833.546 134.206V90.345Z" fill="#6FCF97"/>
<path d="M842.288 93.5792L886.515 102.322V141.406L842.288 131.635V93.5792Z" fill="#A541F8"/>
<path d="M842.288 93.065L888.572 85.8652V121.864L842.288 132.149V93.065Z" fill="#6FCF97"/>
<path d="M877.773 78.6654L924.057 87.9462V128.549L877.773 116.512V78.6654Z" fill="#A541F8"/>
<path d="M833.546 96.1506L883.43 104.893V143.978L833.546 134.206V96.1506Z" fill="#A541F8"/>
<path d="M882.401 97.9448L924.057 89.4651V131.864L882.401 143.978V97.9448Z" fill="#A541F8"/>
<path d="M833.546 87.0651L879.83 78.6654V120.664L833.546 132.664V87.0651Z" fill="#A541F8"/>
<g filter="url(#filter18_d)">
<path d="M882.445 236.546L924.057 258.74L878.804 273.059L833.031 258.74L882.445 236.546Z" fill="#6FCF97"/>
</g>
<g filter="url(#filter19_d)">
<path d="M880.969 76.5207L924.682 86.8061L880.969 96.5772L835.2 86.8061L880.969 76.5207Z" fill="#0072B2"/>
</g>
<path d="M817.355 182.352C817.549 182.156 817.548 181.839 817.352 181.645L814.156 178.477C813.96 178.282 813.644 178.284 813.449 178.48C813.255 178.676 813.256 178.993 813.452 179.187L816.293 182.003L813.477 184.844C813.282 185.04 813.284 185.356 813.48 185.551C813.676 185.745 813.993 185.744 814.187 185.548L817.355 182.352ZM587.002 183.5L817.002 182.5L816.998 181.5L586.998 182.5L587.002 183.5Z" fill="black"/>
<path d="M272.898 152.939C272.74 154.293 272.239 155.339 271.396 156.077C270.558 156.81 269.441 157.176 268.047 157.176C266.535 157.176 265.322 156.634 264.408 155.55C263.5 154.466 263.046 153.016 263.046 151.199V149.969C263.046 148.779 263.257 147.733 263.679 146.831C264.106 145.929 264.71 145.237 265.489 144.757C266.269 144.271 267.171 144.027 268.196 144.027C269.556 144.027 270.646 144.408 271.466 145.17C272.286 145.926 272.764 146.975 272.898 148.316H271.202C271.056 147.297 270.736 146.559 270.244 146.102C269.758 145.645 269.075 145.416 268.196 145.416C267.118 145.416 266.271 145.814 265.656 146.611C265.047 147.408 264.742 148.542 264.742 150.013V151.252C264.742 152.641 265.032 153.745 265.612 154.565C266.192 155.386 267.004 155.796 268.047 155.796C268.984 155.796 269.702 155.585 270.2 155.163C270.704 154.735 271.038 153.994 271.202 152.939H272.898ZM279.552 148.949C279.306 148.908 279.039 148.888 278.752 148.888C277.686 148.888 276.962 149.342 276.581 150.25V157H274.955V147.49H276.537L276.563 148.589C277.097 147.739 277.853 147.314 278.831 147.314C279.147 147.314 279.388 147.355 279.552 147.438V148.949ZM284.825 157.176C283.536 157.176 282.487 156.754 281.679 155.91C280.87 155.061 280.466 153.927 280.466 152.509V152.21C280.466 151.267 280.645 150.426 281.002 149.688C281.365 148.943 281.869 148.363 282.514 147.947C283.164 147.525 283.867 147.314 284.623 147.314C285.859 147.314 286.82 147.722 287.506 148.536C288.191 149.351 288.534 150.517 288.534 152.034V152.711H282.092C282.115 153.648 282.388 154.407 282.909 154.987C283.437 155.562 284.104 155.849 284.913 155.849C285.487 155.849 285.974 155.731 286.372 155.497C286.771 155.263 287.119 154.952 287.418 154.565L288.411 155.339C287.614 156.563 286.419 157.176 284.825 157.176ZM284.623 148.65C283.967 148.65 283.416 148.891 282.971 149.371C282.525 149.846 282.25 150.514 282.145 151.375H286.908V151.252C286.861 150.426 286.639 149.787 286.24 149.336C285.842 148.879 285.303 148.65 284.623 148.65ZM296.295 157C296.201 156.812 296.125 156.479 296.066 155.998C295.311 156.783 294.408 157.176 293.359 157.176C292.422 157.176 291.651 156.912 291.048 156.385C290.45 155.852 290.151 155.178 290.151 154.363C290.151 153.373 290.526 152.605 291.276 152.061C292.032 151.51 293.093 151.234 294.458 151.234H296.04V150.487C296.04 149.919 295.87 149.468 295.53 149.134C295.19 148.794 294.689 148.624 294.027 148.624C293.447 148.624 292.961 148.771 292.568 149.063C292.176 149.356 291.979 149.711 291.979 150.127H290.345C290.345 149.652 290.512 149.195 290.846 148.756C291.186 148.311 291.643 147.959 292.217 147.701C292.797 147.443 293.433 147.314 294.124 147.314C295.22 147.314 296.078 147.59 296.699 148.141C297.32 148.686 297.643 149.438 297.666 150.399V154.776C297.666 155.649 297.777 156.344 298 156.859V157H296.295ZM293.597 155.761C294.106 155.761 294.59 155.629 295.047 155.365C295.504 155.102 295.835 154.759 296.04 154.337V152.386H294.766C292.773 152.386 291.777 152.969 291.777 154.135C291.777 154.645 291.947 155.043 292.287 155.33C292.627 155.617 293.063 155.761 293.597 155.761ZM302.421 145.188V147.49H304.196V148.747H302.421V154.645C302.421 155.025 302.5 155.312 302.658 155.506C302.816 155.693 303.086 155.787 303.467 155.787C303.654 155.787 303.912 155.752 304.24 155.682V157C303.812 157.117 303.396 157.176 302.992 157.176C302.266 157.176 301.718 156.956 301.349 156.517C300.979 156.077 300.795 155.453 300.795 154.645V148.747H299.063V147.49H300.795V145.188H302.421ZM310.05 157.176C308.761 157.176 307.712 156.754 306.903 155.91C306.095 155.061 305.69 153.927 305.69 152.509V152.21C305.69 151.267 305.869 150.426 306.227 149.688C306.59 148.943 307.094 148.363 307.738 147.947C308.389 147.525 309.092 147.314 309.848 147.314C311.084 147.314 312.045 147.722 312.73 148.536C313.416 149.351 313.759 150.517 313.759 152.034V152.711H307.316C307.34 153.648 307.612 154.407 308.134 154.987C308.661 155.562 309.329 155.849 310.138 155.849C310.712 155.849 311.198 155.731 311.597 155.497C311.995 155.263 312.344 154.952 312.643 154.565L313.636 155.339C312.839 156.563 311.644 157.176 310.05 157.176ZM309.848 148.65C309.191 148.65 308.641 148.891 308.195 149.371C307.75 149.846 307.475 150.514 307.369 151.375H312.133V151.252C312.086 150.426 311.863 149.787 311.465 149.336C311.066 148.879 310.527 148.65 309.848 148.65ZM325.984 157C325.891 156.812 325.814 156.479 325.756 155.998C325 156.783 324.098 157.176 323.049 157.176C322.111 157.176 321.341 156.912 320.737 156.385C320.14 155.852 319.841 155.178 319.841 154.363C319.841 153.373 320.216 152.605 320.966 152.061C321.722 151.51 322.782 151.234 324.147 151.234H325.729V150.487C325.729 149.919 325.56 149.468 325.22 149.134C324.88 148.794 324.379 148.624 323.717 148.624C323.137 148.624 322.65 148.771 322.258 149.063C321.865 149.356 321.669 149.711 321.669 150.127H320.034C320.034 149.652 320.201 149.195 320.535 148.756C320.875 148.311 321.332 147.959 321.906 147.701C322.486 147.443 323.122 147.314 323.813 147.314C324.909 147.314 325.768 147.59 326.389 148.141C327.01 148.686 327.332 149.438 327.355 150.399V154.776C327.355 155.649 327.467 156.344 327.689 156.859V157H325.984ZM323.286 155.761C323.796 155.761 324.279 155.629 324.736 155.365C325.193 155.102 325.524 154.759 325.729 154.337V152.386H324.455C322.463 152.386 321.467 152.969 321.467 154.135C321.467 154.645 321.637 155.043 321.977 155.33C322.316 155.617 322.753 155.761 323.286 155.761ZM344.072 155.321C343.639 155.942 343.032 156.408 342.253 156.719C341.479 157.023 340.577 157.176 339.546 157.176C338.503 157.176 337.577 156.933 336.769 156.446C335.96 155.954 335.333 155.257 334.888 154.354C334.448 153.452 334.223 152.406 334.211 151.217V150.101C334.211 148.173 334.659 146.679 335.556 145.618C336.458 144.558 337.724 144.027 339.353 144.027C340.688 144.027 341.764 144.37 342.578 145.056C343.393 145.735 343.891 146.702 344.072 147.956H342.385C342.068 146.263 341.061 145.416 339.361 145.416C338.23 145.416 337.372 145.814 336.786 146.611C336.206 147.402 335.913 148.551 335.907 150.057V151.103C335.907 152.538 336.235 153.681 336.892 154.53C337.548 155.374 338.436 155.796 339.555 155.796C340.188 155.796 340.741 155.726 341.216 155.585C341.69 155.444 342.083 155.207 342.394 154.873V151.999H339.432V150.628H344.072V155.321ZM351.235 148.949C350.989 148.908 350.723 148.888 350.436 148.888C349.369 148.888 348.646 149.342 348.265 150.25V157H346.639V147.49H348.221L348.247 148.589C348.78 147.739 349.536 147.314 350.515 147.314C350.831 147.314 351.071 147.355 351.235 147.438V148.949ZM352.132 152.157C352.132 151.226 352.313 150.388 352.677 149.644C353.046 148.899 353.556 148.325 354.206 147.921C354.862 147.517 355.609 147.314 356.447 147.314C357.742 147.314 358.788 147.763 359.585 148.659C360.388 149.556 360.789 150.748 360.789 152.236V152.351C360.789 153.276 360.61 154.108 360.253 154.847C359.901 155.579 359.395 156.15 358.732 156.561C358.076 156.971 357.32 157.176 356.465 157.176C355.176 157.176 354.13 156.728 353.327 155.831C352.53 154.935 352.132 153.748 352.132 152.271V152.157ZM353.767 152.351C353.767 153.405 354.01 154.252 354.496 154.891C354.988 155.529 355.645 155.849 356.465 155.849C357.291 155.849 357.947 155.526 358.434 154.882C358.92 154.231 359.163 153.323 359.163 152.157C359.163 151.114 358.914 150.271 358.416 149.626C357.924 148.976 357.268 148.65 356.447 148.65C355.645 148.65 354.997 148.97 354.505 149.608C354.013 150.247 353.767 151.161 353.767 152.351ZM368.699 156.06C368.066 156.804 367.138 157.176 365.913 157.176C364.899 157.176 364.126 156.883 363.593 156.297C363.065 155.705 362.799 154.832 362.793 153.678V147.49H364.419V153.634C364.419 155.075 365.005 155.796 366.177 155.796C367.419 155.796 368.245 155.333 368.655 154.407V147.49H370.281V157H368.734L368.699 156.06ZM380.793 152.351C380.793 153.798 380.462 154.964 379.8 155.849C379.138 156.733 378.241 157.176 377.11 157.176C375.956 157.176 375.048 156.81 374.386 156.077V160.656H372.76V147.49H374.245L374.324 148.545C374.986 147.725 375.906 147.314 377.084 147.314C378.227 147.314 379.129 147.745 379.791 148.606C380.459 149.468 380.793 150.666 380.793 152.201V152.351ZM379.167 152.166C379.167 151.094 378.938 150.247 378.481 149.626C378.024 149.005 377.397 148.694 376.601 148.694C375.616 148.694 374.878 149.131 374.386 150.004V154.548C374.872 155.415 375.616 155.849 376.618 155.849C377.397 155.849 378.016 155.541 378.473 154.926C378.936 154.305 379.167 153.385 379.167 152.166ZM383.122 157V144.203H387.306C388.694 144.203 389.737 144.49 390.435 145.064C391.138 145.639 391.489 146.488 391.489 147.613C391.489 148.211 391.319 148.741 390.979 149.204C390.64 149.661 390.177 150.016 389.591 150.268C390.282 150.461 390.827 150.83 391.226 151.375C391.63 151.914 391.832 152.559 391.832 153.309C391.832 154.457 391.46 155.359 390.716 156.016C389.972 156.672 388.92 157 387.561 157H383.122ZM384.81 151.015V155.62H387.596C388.381 155.62 388.999 155.418 389.45 155.014C389.907 154.604 390.136 154.041 390.136 153.326C390.136 151.785 389.298 151.015 387.622 151.015H384.81ZM384.81 149.661H387.358C388.097 149.661 388.686 149.477 389.125 149.107C389.57 148.738 389.793 148.237 389.793 147.604C389.793 146.901 389.588 146.392 389.178 146.075C388.768 145.753 388.144 145.592 387.306 145.592H384.81V149.661ZM397.193 154.618L399.408 147.49H401.148L397.325 158.468C396.733 160.05 395.793 160.841 394.504 160.841L394.196 160.814L393.59 160.7V159.382L394.029 159.417C394.58 159.417 395.008 159.306 395.312 159.083C395.623 158.86 395.878 158.453 396.077 157.861L396.438 156.895L393.045 147.49H394.82L397.193 154.618ZM406.642 152.157C406.642 151.226 406.823 150.388 407.187 149.644C407.556 148.899 408.065 148.325 408.716 147.921C409.372 147.517 410.119 147.314 410.957 147.314C412.252 147.314 413.298 147.763 414.095 148.659C414.897 149.556 415.299 150.748 415.299 152.236V152.351C415.299 153.276 415.12 154.108 414.763 154.847C414.411 155.579 413.904 156.15 413.242 156.561C412.586 156.971 411.83 157.176 410.975 157.176C409.686 157.176 408.64 156.728 407.837 155.831C407.04 154.935 406.642 153.748 406.642 152.271V152.157ZM408.276 152.351C408.276 153.405 408.52 154.252 409.006 154.891C409.498 155.529 410.154 155.849 410.975 155.849C411.801 155.849 412.457 155.526 412.943 154.882C413.43 154.231 413.673 153.323 413.673 152.157C413.673 151.114 413.424 150.271 412.926 149.626C412.434 148.976 411.777 148.65 410.957 148.65C410.154 148.65 409.507 148.97 409.015 149.608C408.522 150.247 408.276 151.161 408.276 152.351ZM425.389 152.351C425.389 153.804 425.055 154.973 424.387 155.857C423.719 156.736 422.822 157.176 421.697 157.176C420.496 157.176 419.567 156.751 418.911 155.901L418.832 157H417.338V143.5H418.964V148.536C419.62 147.722 420.525 147.314 421.68 147.314C422.834 147.314 423.739 147.751 424.396 148.624C425.058 149.497 425.389 150.692 425.389 152.21V152.351ZM423.763 152.166C423.763 151.059 423.549 150.203 423.121 149.6C422.693 148.996 422.078 148.694 421.275 148.694C420.203 148.694 419.433 149.192 418.964 150.188V154.302C419.462 155.298 420.238 155.796 421.293 155.796C422.072 155.796 422.679 155.494 423.112 154.891C423.546 154.287 423.763 153.379 423.763 152.166ZM429.124 147.49V158.099C429.124 159.927 428.295 160.841 426.637 160.841C426.279 160.841 425.948 160.788 425.644 160.683V159.382C425.831 159.429 426.077 159.452 426.382 159.452C426.745 159.452 427.021 159.353 427.208 159.153C427.401 158.96 427.498 158.62 427.498 158.134V147.49H429.124ZM427.331 144.968C427.331 144.71 427.41 144.49 427.568 144.309C427.732 144.121 427.97 144.027 428.28 144.027C428.597 144.027 428.837 144.118 429.001 144.3C429.165 144.481 429.247 144.704 429.247 144.968C429.247 145.231 429.165 145.451 429.001 145.627C428.837 145.803 428.597 145.891 428.28 145.891C427.964 145.891 427.727 145.803 427.568 145.627C427.41 145.451 427.331 145.231 427.331 144.968ZM435.698 157.176C434.409 157.176 433.36 156.754 432.552 155.91C431.743 155.061 431.339 153.927 431.339 152.509V152.21C431.339 151.267 431.518 150.426 431.875 149.688C432.238 148.943 432.742 148.363 433.387 147.947C434.037 147.525 434.74 147.314 435.496 147.314C436.732 147.314 437.693 147.722 438.379 148.536C439.064 149.351 439.407 150.517 439.407 152.034V152.711H432.965C432.988 153.648 433.261 154.407 433.782 154.987C434.31 155.562 434.978 155.849 435.786 155.849C436.36 155.849 436.847 155.731 437.245 155.497C437.644 155.263 437.992 154.952 438.291 154.565L439.284 155.339C438.487 156.563 437.292 157.176 435.698 157.176ZM435.496 148.65C434.84 148.65 434.289 148.891 433.844 149.371C433.398 149.846 433.123 150.514 433.018 151.375H437.781V151.252C437.734 150.426 437.512 149.787 437.113 149.336C436.715 148.879 436.176 148.65 435.496 148.65ZM445.111 155.849C445.691 155.849 446.198 155.673 446.632 155.321C447.065 154.97 447.306 154.53 447.353 154.003H448.891C448.861 154.548 448.674 155.066 448.328 155.559C447.982 156.051 447.52 156.443 446.939 156.736C446.365 157.029 445.756 157.176 445.111 157.176C443.816 157.176 442.785 156.745 442.018 155.884C441.256 155.017 440.875 153.833 440.875 152.333V152.061C440.875 151.135 441.045 150.312 441.385 149.591C441.725 148.87 442.211 148.311 442.844 147.912C443.482 147.514 444.235 147.314 445.103 147.314C446.169 147.314 447.054 147.634 447.757 148.272C448.466 148.911 448.844 149.74 448.891 150.76H447.353C447.306 150.145 447.071 149.641 446.649 149.248C446.233 148.85 445.718 148.65 445.103 148.65C444.276 148.65 443.635 148.949 443.178 149.547C442.727 150.139 442.501 150.997 442.501 152.122V152.43C442.501 153.525 442.727 154.369 443.178 154.961C443.629 155.553 444.273 155.849 445.111 155.849ZM452.925 145.188V147.49H454.7V148.747H452.925V154.645C452.925 155.025 453.004 155.312 453.162 155.506C453.32 155.693 453.59 155.787 453.971 155.787C454.158 155.787 454.416 155.752 454.744 155.682V157C454.316 157.117 453.9 157.176 453.496 157.176C452.77 157.176 452.222 156.956 451.853 156.517C451.483 156.077 451.299 155.453 451.299 154.645V148.747H449.567V147.49H451.299V145.188H452.925ZM456.643 156.147C456.643 155.866 456.725 155.632 456.889 155.444C457.059 155.257 457.311 155.163 457.645 155.163C457.979 155.163 458.23 155.257 458.4 155.444C458.576 155.632 458.664 155.866 458.664 156.147C458.664 156.417 458.576 156.643 458.4 156.824C458.23 157.006 457.979 157.097 457.645 157.097C457.311 157.097 457.059 157.006 456.889 156.824C456.725 156.643 456.643 156.417 456.643 156.147Z" fill="black"/>
<path d="M461.353 182.416C461.549 182.221 461.549 181.905 461.354 181.709L458.173 178.526C457.977 178.331 457.661 178.331 457.466 178.526C457.27 178.721 457.27 179.038 457.465 179.233L460.293 182.062L457.464 184.89C457.268 185.085 457.268 185.402 457.463 185.597C457.659 185.792 457.975 185.793 458.17 185.597L461.353 182.416ZM262 182.5L461 182.563L461 181.563L262 181.5L262 182.5Z" fill="black"/>
<defs>
<filter id="filter0_d" x="22.5701" y="140.423" width="57.5612" height="61.8476" filterUnits="userSpaceOnUse" color-interpolation-filters="sRGB">
<feFlood flood-opacity="0" result="BackgroundImageFix"/>
<feColorMatrix in="SourceAlpha" type="matrix" values="0 0 0 0 0 0 0 0 0 0 0 0 0 0 0 0 0 0 127 0"/>
<feOffset dy="2.44941"/>
<feGaussianBlur stdDeviation="1.22471"/>
<feColorMatrix type="matrix" values="0 0 0 0 0 0 0 0 0 0 0 0 0 0 0 0 0 0 0.25 0"/>
<feBlend mode="normal" in2="BackgroundImageFix" result="effect1_dropShadow"/>
<feBlend mode="normal" in="SourceGraphic" in2="effect1_dropShadow" result="shape"/>
</filter>
<filter id="filter1_d" x="70.946" y="151.445" width="57.5612" height="61.8476" filterUnits="userSpaceOnUse" color-interpolation-filters="sRGB">
<feFlood flood-opacity="0" result="BackgroundImageFix"/>
<feColorMatrix in="SourceAlpha" type="matrix" values="0 0 0 0 0 0 0 0 0 0 0 0 0 0 0 0 0 0 127 0"/>
<feOffset dy="2.44941"/>
<feGaussianBlur stdDeviation="1.22471"/>
<feColorMatrix type="matrix" values="0 0 0 0 0 0 0 0 0 0 0 0 0 0 0 0 0 0 0.25 0"/>
<feBlend mode="normal" in2="BackgroundImageFix" result="effect1_dropShadow"/>
<feBlend mode="normal" in="SourceGraphic" in2="effect1_dropShadow" result="shape"/>
</filter>
<filter id="filter2_d" x="21.3454" y="89.5977" width="57.5612" height="67.3588" filterUnits="userSpaceOnUse" color-interpolation-filters="sRGB">
<feFlood flood-opacity="0" result="BackgroundImageFix"/>
<feColorMatrix in="SourceAlpha" type="matrix" values="0 0 0 0 0 0 0 0 0 0 0 0 0 0 0 0 0 0 127 0"/>
<feOffset dy="2.44941"/>
<feGaussianBlur stdDeviation="1.22471"/>
<feColorMatrix type="matrix" values="0 0 0 0 0 0 0 0 0 0 0 0 0 0 0 0 0 0 0.25 0"/>
<feBlend mode="normal" in2="BackgroundImageFix" result="effect1_dropShadow"/>
<feBlend mode="normal" in="SourceGraphic" in2="effect1_dropShadow" result="shape"/>
</filter>
<filter id="filter3_d" x="20.7331" y="46.733" width="57.5612" height="61.8476" filterUnits="userSpaceOnUse" color-interpolation-filters="sRGB">
<feFlood flood-opacity="0" result="BackgroundImageFix"/>
<feColorMatrix in="SourceAlpha" type="matrix" values="0 0 0 0 0 0 0 0 0 0 0 0 0 0 0 0 0 0 127 0"/>
<feOffset dy="2.44941"/>
<feGaussianBlur stdDeviation="1.22471"/>
<feColorMatrix type="matrix" values="0 0 0 0 0 0 0 0 0 0 0 0 0 0 0 0 0 0 0.25 0"/>
<feBlend mode="normal" in2="BackgroundImageFix" result="effect1_dropShadow"/>
<feBlend mode="normal" in="SourceGraphic" in2="effect1_dropShadow" result="shape"/>
</filter>
<filter id="filter4_d" x="68.4965" y="47.9577" width="64.9094" height="69.8082" filterUnits="userSpaceOnUse" color-interpolation-filters="sRGB">
<feFlood flood-opacity="0" result="BackgroundImageFix"/>
<feColorMatrix in="SourceAlpha" type="matrix" values="0 0 0 0 0 0 0 0 0 0 0 0 0 0 0 0 0 0 127 0"/>
<feOffset dy="2.44941"/>
<feGaussianBlur stdDeviation="1.22471"/>
<feColorMatrix type="matrix" values="0 0 0 0 0 0 0 0 0 0 0 0 0 0 0 0 0 0 0.25 0"/>
<feBlend mode="normal" in2="BackgroundImageFix" result="effect1_dropShadow"/>
<feBlend mode="normal" in="SourceGraphic" in2="effect1_dropShadow" result="shape"/>
</filter>
<filter id="filter5_d" x="69.6865" y="106.326" width="68.9314" height="62.2303" filterUnits="userSpaceOnUse" color-interpolation-filters="sRGB">
<feFlood flood-opacity="0" result="BackgroundImageFix"/>
<feColorMatrix in="SourceAlpha" type="matrix" values="0 0 0 0 0 0 0 0 0 0 0 0 0 0 0 0 0 0 127 0"/>
<feOffset dy="2.44941"/>
<feGaussianBlur stdDeviation="1.22471"/>
<feColorMatrix type="matrix" values="0 0 0 0 0 0 0 0 0 0 0 0 0 0 0 0 0 0 0.25 0"/>
<feBlend mode="normal" in2="BackgroundImageFix" result="effect1_dropShadow"/>
<feBlend mode="normal" in="SourceGraphic" in2="effect1_dropShadow" result="shape"/>
</filter>
<filter id="filter6_d" x="68.1973" y="95.9022" width="63.0723" height="20.2076" filterUnits="userSpaceOnUse" color-interpolation-filters="sRGB">
<feFlood flood-opacity="0" result="BackgroundImageFix"/>
<feColorMatrix in="SourceAlpha" type="matrix" values="0 0 0 0 0 0 0 0 0 0 0 0 0 0 0 0 0 0 127 0"/>
<feOffset dy="2.44941"/>
<feGaussianBlur stdDeviation="1.22471"/>
<feColorMatrix type="matrix" values="0 0 0 0 0 0 0 0 0 0 0 0 0 0 0 0 0 0 0.25 0"/>
<feBlend mode="normal" in2="BackgroundImageFix" result="effect1_dropShadow"/>
<feBlend mode="normal" in="SourceGraphic" in2="effect1_dropShadow" result="shape"/>
</filter>
<filter id="filter7_d" x="179.945" y="220.641" width="60.0106" height="60.0106" filterUnits="userSpaceOnUse" color-interpolation-filters="sRGB">
<feFlood flood-opacity="0" result="BackgroundImageFix"/>
<feColorMatrix in="SourceAlpha" type="matrix" values="0 0 0 0 0 0 0 0 0 0 0 0 0 0 0 0 0 0 127 0"/>
<feOffset dy="2.44941"/>
<feGaussianBlur stdDeviation="1.22471"/>
<feColorMatrix type="matrix" values="0 0 0 0 0 0 0 0 0 0 0 0 0 0 0 0 0 0 0.25 0"/>
<feBlend mode="normal" in2="BackgroundImageFix" result="effect1_dropShadow"/>
<feBlend mode="normal" in="SourceGraphic" in2="effect1_dropShadow" result="shape"/>
</filter>
<filter id="filter8_d" x="127.282" y="120.215" width="64.297" height="61.8476" filterUnits="userSpaceOnUse" color-interpolation-filters="sRGB">
<feFlood flood-opacity="0" result="BackgroundImageFix"/>
<feColorMatrix in="SourceAlpha" type="matrix" values="0 0 0 0 0 0 0 0 0 0 0 0 0 0 0 0 0 0 127 0"/>
<feOffset dy="2.44941"/>
<feGaussianBlur stdDeviation="1.22471"/>
<feColorMatrix type="matrix" values="0 0 0 0 0 0 0 0 0 0 0 0 0 0 0 0 0 0 0.25 0"/>
<feBlend mode="normal" in2="BackgroundImageFix" result="effect1_dropShadow"/>
<feBlend mode="normal" in="SourceGraphic" in2="effect1_dropShadow" result="shape"/>
</filter>
<filter id="filter9_d" x="185.456" y="112.255" width="54.4994" height="69.8082" filterUnits="userSpaceOnUse" color-interpolation-filters="sRGB">
<feFlood flood-opacity="0" result="BackgroundImageFix"/>
<feColorMatrix in="SourceAlpha" type="matrix" values="0 0 0 0 0 0 0 0 0 0 0 0 0 0 0 0 0 0 127 0"/>
<feOffset dy="2.44941"/>
<feGaussianBlur stdDeviation="1.22471"/>
<feColorMatrix type="matrix" values="0 0 0 0 0 0 0 0 0 0 0 0 0 0 0 0 0 0 0.25 0"/>
<feBlend mode="normal" in2="BackgroundImageFix" result="effect1_dropShadow"/>
<feBlend mode="normal" in="SourceGraphic" in2="effect1_dropShadow" result="shape"/>
</filter>
<filter id="filter10_d" x="126.67" y="236.562" width="113.285" height="48.3759" filterUnits="userSpaceOnUse" color-interpolation-filters="sRGB">
<feFlood flood-opacity="0" result="BackgroundImageFix"/>
<feColorMatrix in="SourceAlpha" type="matrix" values="0 0 0 0 0 0 0 0 0 0 0 0 0 0 0 0 0 0 127 0"/>
<feOffset dy="2.44941"/>
<feGaussianBlur stdDeviation="1.22471"/>
<feColorMatrix type="matrix" values="0 0 0 0 0 0 0 0 0 0 0 0 0 0 0 0 0 0 0.25 0"/>
<feBlend mode="normal" in2="BackgroundImageFix" result="effect1_dropShadow"/>
<feBlend mode="normal" in="SourceGraphic" in2="effect1_dropShadow" result="shape"/>
</filter>
<filter id="filter11_d" x="127.282" y="47.3454" width="111.448" height="28.7806" filterUnits="userSpaceOnUse" color-interpolation-filters="sRGB">
<feFlood flood-opacity="0" result="BackgroundImageFix"/>
<feColorMatrix in="SourceAlpha" type="matrix" values="0 0 0 0 0 0 0 0 0 0 0 0 0 0 0 0 0 0 127 0"/>
<feOffset dy="2.44941"/>
<feGaussianBlur stdDeviation="1.22471"/>
<feColorMatrix type="matrix" values="0 0 0 0 0 0 0 0 0 0 0 0 0 0 0 0 0 0 0.25 0"/>
<feBlend mode="normal" in2="BackgroundImageFix" result="effect1_dropShadow"/>
<feBlend mode="normal" in="SourceGraphic" in2="effect1_dropShadow" result="shape"/>
</filter>
<filter id="filter12_d" x="22.5701" y="36.9354" width="110.223" height="23.8818" filterUnits="userSpaceOnUse" color-interpolation-filters="sRGB">
<feFlood flood-opacity="0" result="BackgroundImageFix"/>
<feColorMatrix in="SourceAlpha" type="matrix" values="0 0 0 0 0 0 0 0 0 0 0 0 0 0 0 0 0 0 127 0"/>
<feOffset dy="2.44941"/>
<feGaussianBlur stdDeviation="1.22471"/>
<feColorMatrix type="matrix" values="0 0 0 0 0 0 0 0 0 0 0 0 0 0 0 0 0 0 0.25 0"/>
<feBlend mode="normal" in2="BackgroundImageFix" result="effect1_dropShadow"/>
<feBlend mode="normal" in="SourceGraphic" in2="effect1_dropShadow" result="shape"/>
</filter>
<filter id="filter13_d" x="480.37" y="108.469" width="93.7488" height="122.374" filterUnits="userSpaceOnUse" color-interpolation-filters="sRGB">
<feFlood flood-opacity="0" result="BackgroundImageFix"/>
<feColorMatrix in="SourceAlpha" type="matrix" values="0 0 0 0 0 0 0 0 0 0 0 0 0 0 0 0 0 0 127 0"/>
<feOffset dy="2.86256"/>
<feGaussianBlur stdDeviation="1.43128"/>
<feColorMatrix type="matrix" values="0 0 0 0 0 0 0 0 0 0 0 0 0 0 0 0 0 0 0.25 0"/>
<feBlend mode="normal" in2="BackgroundImageFix" result="effect1_dropShadow"/>
<feBlend mode="normal" in="SourceGraphic" in2="effect1_dropShadow" result="shape"/>
</filter>
<filter id="filter14_d" x="833.592" y="41.3809" width="92.5684" height="20.0565" filterUnits="userSpaceOnUse" color-interpolation-filters="sRGB">
<feFlood flood-opacity="0" result="BackgroundImageFix"/>
<feColorMatrix in="SourceAlpha" type="matrix" values="0 0 0 0 0 0 0 0 0 0 0 0 0 0 0 0 0 0 127 0"/>
<feOffset dy="2.05708"/>
<feGaussianBlur stdDeviation="1.02854"/>
<feColorMatrix type="matrix" values="0 0 0 0 0 0 0 0 0 0 0 0 0 0 0 0 0 0 0.25 0"/>
<feBlend mode="normal" in2="BackgroundImageFix" result="effect1_dropShadow"/>
<feBlend mode="normal" in="SourceGraphic" in2="effect1_dropShadow" result="shape"/>
</filter>
<filter id="filter15_d" x="875.716" y="223.175" width="50.3983" height="50.3983" filterUnits="userSpaceOnUse" color-interpolation-filters="sRGB">
<feFlood flood-opacity="0" result="BackgroundImageFix"/>
<feColorMatrix in="SourceAlpha" type="matrix" values="0 0 0 0 0 0 0 0 0 0 0 0 0 0 0 0 0 0 127 0"/>
<feOffset dy="2.05708"/>
<feGaussianBlur stdDeviation="1.02854"/>
<feColorMatrix type="matrix" values="0 0 0 0 0 0 0 0 0 0 0 0 0 0 0 0 0 0 0.25 0"/>
<feBlend mode="normal" in2="BackgroundImageFix" result="effect1_dropShadow"/>
<feBlend mode="normal" in="SourceGraphic" in2="effect1_dropShadow" result="shape"/>
</filter>
<filter id="filter16_d" x="831.489" y="138.835" width="53.9982" height="51.9412" filterUnits="userSpaceOnUse" color-interpolation-filters="sRGB">
<feFlood flood-opacity="0" result="BackgroundImageFix"/>
<feColorMatrix in="SourceAlpha" type="matrix" values="0 0 0 0 0 0 0 0 0 0 0 0 0 0 0 0 0 0 127 0"/>
<feOffset dy="2.05708"/>
<feGaussianBlur stdDeviation="1.02854"/>
<feColorMatrix type="matrix" values="0 0 0 0 0 0 0 0 0 0 0 0 0 0 0 0 0 0 0.25 0"/>
<feBlend mode="normal" in2="BackgroundImageFix" result="effect1_dropShadow"/>
<feBlend mode="normal" in="SourceGraphic" in2="effect1_dropShadow" result="shape"/>
</filter>
<filter id="filter17_d" x="880.344" y="132.149" width="45.7699" height="58.6266" filterUnits="userSpaceOnUse" color-interpolation-filters="sRGB">
<feFlood flood-opacity="0" result="BackgroundImageFix"/>
<feColorMatrix in="SourceAlpha" type="matrix" values="0 0 0 0 0 0 0 0 0 0 0 0 0 0 0 0 0 0 127 0"/>
<feOffset dy="2.05708"/>
<feGaussianBlur stdDeviation="1.02854"/>
<feColorMatrix type="matrix" values="0 0 0 0 0 0 0 0 0 0 0 0 0 0 0 0 0 0 0.25 0"/>
<feBlend mode="normal" in2="BackgroundImageFix" result="effect1_dropShadow"/>
<feBlend mode="normal" in="SourceGraphic" in2="effect1_dropShadow" result="shape"/>
</filter>
<filter id="filter18_d" x="830.974" y="236.546" width="95.1397" height="40.6272" filterUnits="userSpaceOnUse" color-interpolation-filters="sRGB">
<feFlood flood-opacity="0" result="BackgroundImageFix"/>
<feColorMatrix in="SourceAlpha" type="matrix" values="0 0 0 0 0 0 0 0 0 0 0 0 0 0 0 0 0 0 127 0"/>
<feOffset dy="2.05708"/>
<feGaussianBlur stdDeviation="1.02854"/>
<feColorMatrix type="matrix" values="0 0 0 0 0 0 0 0 0 0 0 0 0 0 0 0 0 0 0.25 0"/>
<feBlend mode="normal" in2="BackgroundImageFix" result="effect1_dropShadow"/>
<feBlend mode="normal" in="SourceGraphic" in2="effect1_dropShadow" result="shape"/>
</filter>
<filter id="filter19_d" x="833.142" y="76.5207" width="93.5969" height="24.1706" filterUnits="userSpaceOnUse" color-interpolation-filters="sRGB">
<feFlood flood-opacity="0" result="BackgroundImageFix"/>
<feColorMatrix in="SourceAlpha" type="matrix" values="0 0 0 0 0 0 0 0 0 0 0 0 0 0 0 0 0 0 127 0"/>
<feOffset dy="2.05708"/>
<feGaussianBlur stdDeviation="1.02854"/>
<feColorMatrix type="matrix" values="0 0 0 0 0 0 0 0 0 0 0 0 0 0 0 0 0 0 0.25 0"/>
<feBlend mode="normal" in2="BackgroundImageFix" result="effect1_dropShadow"/>
<feBlend mode="normal" in="SourceGraphic" in2="effect1_dropShadow" result="shape"/>
</filter>
<clipPath id="clip0">
<rect width="262" height="274" fill="white" transform="translate(0 14)"/>
</clipPath>
<clipPath id="clip1">
<rect width="94.4209" height="63.1557" fill="white" transform="translate(830.197 34)"/>
</clipPath>
</defs>
</svg>
