<svg width="411" height="416" viewBox="0 0 411 416" fill="none" xmlns="http://www.w3.org/2000/svg">
<rect width="411" height="416" fill="white"/>
<rect x="49.5" y="27.5" width="101" height="37" fill="#C4C4C4" stroke="black"/>
<rect x="151.5" y="27.5" width="84" height="37" fill="#C4C4C4" stroke="black"/>
<path d="M86.2656 47.293C86.1602 48.1953 85.8262 48.8926 85.2637 49.3848C84.7051 49.873 83.9609 50.1172 83.0312 50.1172C82.0234 50.1172 81.2148 49.7559 80.6055 49.0332C80 48.3105 79.6973 47.3438 79.6973 46.1328V45.3125C79.6973 44.5195 79.8379 43.8223 80.1191 43.2207C80.4043 42.6191 80.8066 42.1582 81.3262 41.8379C81.8457 41.5137 82.4473 41.3516 83.1309 41.3516C84.0371 41.3516 84.7637 41.6055 85.3105 42.1133C85.8574 42.6172 86.1758 43.3164 86.2656 44.2109H85.1348C85.0371 43.5312 84.8242 43.0391 84.4961 42.7344C84.1719 42.4297 83.7168 42.2773 83.1309 42.2773C82.4121 42.2773 81.8477 42.543 81.4375 43.0742C81.0312 43.6055 80.8281 44.3613 80.8281 45.3418V46.168C80.8281 47.0938 81.0215 47.8301 81.4082 48.377C81.7949 48.9238 82.3359 49.1973 83.0312 49.1973C83.6562 49.1973 84.1348 49.0566 84.4668 48.7754C84.8027 48.4902 85.0254 47.9961 85.1348 47.293H86.2656ZM87.3496 46.7715C87.3496 46.1504 87.4707 45.5918 87.7129 45.0957C87.959 44.5996 88.2988 44.2168 88.7324 43.9473C89.1699 43.6777 89.668 43.543 90.2266 43.543C91.0898 43.543 91.7871 43.8418 92.3184 44.4395C92.8535 45.0371 93.1211 45.832 93.1211 46.8242V46.9004C93.1211 47.5176 93.002 48.0723 92.7637 48.5645C92.5293 49.0527 92.1914 49.4336 91.75 49.707C91.3125 49.9805 90.8086 50.1172 90.2383 50.1172C89.3789 50.1172 88.6816 49.8184 88.1465 49.2207C87.6152 48.623 87.3496 47.832 87.3496 46.8477V46.7715ZM88.4395 46.9004C88.4395 47.6035 88.6016 48.168 88.9258 48.5938C89.2539 49.0195 89.6914 49.2324 90.2383 49.2324C90.7891 49.2324 91.2266 49.0176 91.5508 48.5879C91.875 48.1543 92.0371 47.5488 92.0371 46.7715C92.0371 46.0762 91.8711 45.5137 91.5391 45.084C91.2109 44.6504 90.7734 44.4336 90.2266 44.4336C89.6914 44.4336 89.2598 44.6465 88.9316 45.0723C88.6035 45.498 88.4395 46.1074 88.4395 46.9004ZM98.3945 49.373C97.9727 49.8691 97.3535 50.1172 96.5371 50.1172C95.8613 50.1172 95.3457 49.9219 94.9902 49.5312C94.6387 49.1367 94.4609 48.5547 94.457 47.7852V43.6602H95.541V47.7559C95.541 48.7168 95.9316 49.1973 96.7129 49.1973C97.541 49.1973 98.0918 48.8887 98.3652 48.2715V43.6602H99.4492V50H98.418L98.3945 49.373ZM102.127 43.6602L102.162 44.457C102.646 43.8477 103.279 43.543 104.061 43.543C105.4 43.543 106.076 44.2988 106.088 45.8105V50H105.004V45.8047C105 45.3477 104.895 45.0098 104.688 44.791C104.484 44.5723 104.166 44.4629 103.732 44.4629C103.381 44.4629 103.072 44.5566 102.807 44.7441C102.541 44.9316 102.334 45.1777 102.186 45.4824V50H101.102V43.6602H102.127ZM109.193 42.125V43.6602H110.377V44.498H109.193V48.4297C109.193 48.6836 109.246 48.875 109.352 49.0039C109.457 49.1289 109.637 49.1914 109.891 49.1914C110.016 49.1914 110.188 49.168 110.406 49.1211V50C110.121 50.0781 109.844 50.1172 109.574 50.1172C109.09 50.1172 108.725 49.9707 108.479 49.6777C108.232 49.3848 108.109 48.9688 108.109 48.4297V44.498H106.955V43.6602H108.109V42.125H109.193ZM114.713 44.6328C114.549 44.6055 114.371 44.5918 114.18 44.5918C113.469 44.5918 112.986 44.8945 112.732 45.5V50H111.648V43.6602H112.703L112.721 44.3926C113.076 43.8262 113.58 43.543 114.232 43.543C114.443 43.543 114.604 43.5703 114.713 43.625V44.6328ZM117.895 48.4121L119.371 43.6602H120.531L117.982 50.9785C117.588 52.0332 116.961 52.5605 116.102 52.5605L115.896 52.543L115.492 52.4668V51.5879L115.785 51.6113C116.152 51.6113 116.438 51.5371 116.641 51.3887C116.848 51.2402 117.018 50.9688 117.15 50.5742L117.391 49.9297L115.129 43.6602H116.312L117.895 48.4121Z" fill="black"/>
<path d="M173.641 43H172.51V39.0566H168.209V43H167.084V34.4688H168.209V38.1367H172.51V34.4688H173.641V43ZM179.383 43C179.32 42.875 179.27 42.6523 179.23 42.332C178.727 42.8555 178.125 43.1172 177.426 43.1172C176.801 43.1172 176.287 42.9414 175.885 42.5898C175.486 42.2344 175.287 41.7852 175.287 41.2422C175.287 40.582 175.537 40.0703 176.037 39.707C176.541 39.3398 177.248 39.1562 178.158 39.1562H179.213V38.6582C179.213 38.2793 179.1 37.9785 178.873 37.7559C178.646 37.5293 178.312 37.416 177.871 37.416C177.484 37.416 177.16 37.5137 176.898 37.709C176.637 37.9043 176.506 38.1406 176.506 38.418H175.416C175.416 38.1016 175.527 37.7969 175.75 37.5039C175.977 37.207 176.281 36.9727 176.664 36.8008C177.051 36.6289 177.475 36.543 177.936 36.543C178.666 36.543 179.238 36.7266 179.652 37.0938C180.066 37.457 180.281 37.959 180.297 38.5996V41.5176C180.297 42.0996 180.371 42.5625 180.52 42.9062V43H179.383ZM177.584 42.1738C177.924 42.1738 178.246 42.0859 178.551 41.9102C178.855 41.7344 179.076 41.5059 179.213 41.2246V39.9238H178.363C177.035 39.9238 176.371 40.3125 176.371 41.0898C176.371 41.4297 176.484 41.6953 176.711 41.8867C176.938 42.0781 177.229 42.1738 177.584 42.1738ZM187.352 39.9004C187.352 40.8652 187.131 41.6426 186.689 42.2324C186.248 42.8223 185.65 43.1172 184.896 43.1172C184.127 43.1172 183.521 42.873 183.08 42.3848V45.4375H181.996V36.6602H182.986L183.039 37.3633C183.48 36.8164 184.094 36.543 184.879 36.543C185.641 36.543 186.242 36.8301 186.684 37.4043C187.129 37.9785 187.352 38.7773 187.352 39.8008V39.9004ZM186.268 39.7773C186.268 39.0625 186.115 38.498 185.811 38.084C185.506 37.6699 185.088 37.4629 184.557 37.4629C183.9 37.4629 183.408 37.7539 183.08 38.3359V41.3652C183.404 41.9434 183.9 42.2324 184.568 42.2324C185.088 42.2324 185.5 42.0273 185.805 41.6172C186.113 41.2031 186.268 40.5898 186.268 39.7773ZM194.09 39.9004C194.09 40.8652 193.869 41.6426 193.428 42.2324C192.986 42.8223 192.389 43.1172 191.635 43.1172C190.865 43.1172 190.26 42.873 189.818 42.3848V45.4375H188.734V36.6602H189.725L189.777 37.3633C190.219 36.8164 190.832 36.543 191.617 36.543C192.379 36.543 192.98 36.8301 193.422 37.4043C193.867 37.9785 194.09 38.7773 194.09 39.8008V39.9004ZM193.006 39.7773C193.006 39.0625 192.854 38.498 192.549 38.084C192.244 37.6699 191.826 37.4629 191.295 37.4629C190.639 37.4629 190.146 37.7539 189.818 38.3359V41.3652C190.143 41.9434 190.639 42.2324 191.307 42.2324C191.826 42.2324 192.238 42.0273 192.543 41.6172C192.852 41.2031 193.006 40.5898 193.006 39.7773ZM196.65 43H195.566V36.6602H196.65V43ZM195.479 34.9785C195.479 34.8027 195.531 34.6543 195.637 34.5332C195.746 34.4121 195.906 34.3516 196.117 34.3516C196.328 34.3516 196.488 34.4121 196.598 34.5332C196.707 34.6543 196.762 34.8027 196.762 34.9785C196.762 35.1543 196.707 35.3008 196.598 35.418C196.488 35.5352 196.328 35.5938 196.117 35.5938C195.906 35.5938 195.746 35.5352 195.637 35.418C195.531 35.3008 195.479 35.1543 195.479 34.9785ZM199.416 36.6602L199.451 37.457C199.936 36.8477 200.568 36.543 201.35 36.543C202.689 36.543 203.365 37.2988 203.377 38.8105V43H202.293V38.8047C202.289 38.3477 202.184 38.0098 201.977 37.791C201.773 37.5723 201.455 37.4629 201.021 37.4629C200.67 37.4629 200.361 37.5566 200.096 37.7441C199.83 37.9316 199.623 38.1777 199.475 38.4824V43H198.391V36.6602H199.416ZM207.643 43.1172C206.783 43.1172 206.084 42.8359 205.545 42.2734C205.006 41.707 204.736 40.9512 204.736 40.0059V39.8066C204.736 39.1777 204.855 38.6172 205.094 38.125C205.336 37.6289 205.672 37.2422 206.102 36.9648C206.535 36.6836 207.004 36.543 207.508 36.543C208.332 36.543 208.973 36.8145 209.43 37.3574C209.887 37.9004 210.115 38.6777 210.115 39.6895V40.1406H205.82C205.836 40.7656 206.018 41.2715 206.365 41.6582C206.717 42.041 207.162 42.2324 207.701 42.2324C208.084 42.2324 208.408 42.1543 208.674 41.998C208.939 41.8418 209.172 41.6348 209.371 41.377L210.033 41.8926C209.502 42.709 208.705 43.1172 207.643 43.1172ZM207.508 37.4336C207.07 37.4336 206.703 37.5938 206.406 37.9141C206.109 38.2305 205.926 38.6758 205.855 39.25H209.031V39.168C209 38.6172 208.852 38.1914 208.586 37.8906C208.32 37.5859 207.961 37.4336 207.508 37.4336ZM215.066 41.3184C215.066 41.0254 214.955 40.7988 214.732 40.6387C214.514 40.4746 214.129 40.334 213.578 40.2168C213.031 40.0996 212.596 39.959 212.271 39.7949C211.951 39.6309 211.713 39.4355 211.557 39.209C211.404 38.9824 211.328 38.7129 211.328 38.4004C211.328 37.8809 211.547 37.4414 211.984 37.082C212.426 36.7227 212.988 36.543 213.672 36.543C214.391 36.543 214.973 36.7285 215.418 37.0996C215.867 37.4707 216.092 37.9453 216.092 38.5234H215.002C215.002 38.2266 214.875 37.9707 214.621 37.7559C214.371 37.541 214.055 37.4336 213.672 37.4336C213.277 37.4336 212.969 37.5195 212.746 37.6914C212.523 37.8633 212.412 38.0879 212.412 38.3652C212.412 38.627 212.516 38.8242 212.723 38.957C212.93 39.0898 213.303 39.2168 213.842 39.3379C214.385 39.459 214.824 39.6035 215.16 39.7715C215.496 39.9395 215.744 40.1426 215.904 40.3809C216.068 40.6152 216.15 40.9023 216.15 41.2422C216.15 41.8086 215.924 42.2637 215.471 42.6074C215.018 42.9473 214.43 43.1172 213.707 43.1172C213.199 43.1172 212.75 43.0273 212.359 42.8477C211.969 42.668 211.662 42.418 211.439 42.0977C211.221 41.7734 211.111 41.4238 211.111 41.0488H212.195C212.215 41.4121 212.359 41.7012 212.629 41.916C212.902 42.127 213.262 42.2324 213.707 42.2324C214.117 42.2324 214.445 42.1504 214.691 41.9863C214.941 41.8184 215.066 41.5957 215.066 41.3184ZM221.254 41.3184C221.254 41.0254 221.143 40.7988 220.92 40.6387C220.701 40.4746 220.316 40.334 219.766 40.2168C219.219 40.0996 218.783 39.959 218.459 39.7949C218.139 39.6309 217.9 39.4355 217.744 39.209C217.592 38.9824 217.516 38.7129 217.516 38.4004C217.516 37.8809 217.734 37.4414 218.172 37.082C218.613 36.7227 219.176 36.543 219.859 36.543C220.578 36.543 221.16 36.7285 221.605 37.0996C222.055 37.4707 222.279 37.9453 222.279 38.5234H221.189C221.189 38.2266 221.062 37.9707 220.809 37.7559C220.559 37.541 220.242 37.4336 219.859 37.4336C219.465 37.4336 219.156 37.5195 218.934 37.6914C218.711 37.8633 218.6 38.0879 218.6 38.3652C218.6 38.627 218.703 38.8242 218.91 38.957C219.117 39.0898 219.49 39.2168 220.029 39.3379C220.572 39.459 221.012 39.6035 221.348 39.7715C221.684 39.9395 221.932 40.1426 222.092 40.3809C222.256 40.6152 222.338 40.9023 222.338 41.2422C222.338 41.8086 222.111 42.2637 221.658 42.6074C221.205 42.9473 220.617 43.1172 219.895 43.1172C219.387 43.1172 218.938 43.0273 218.547 42.8477C218.156 42.668 217.85 42.418 217.627 42.0977C217.408 41.7734 217.299 41.4238 217.299 41.0488H218.383C218.402 41.4121 218.547 41.7012 218.816 41.916C219.09 42.127 219.449 42.2324 219.895 42.2324C220.305 42.2324 220.633 42.1504 220.879 41.9863C221.129 41.8184 221.254 41.5957 221.254 41.3184ZM186.807 53.5488H184.803V57H183.672V48.4688H186.496C187.457 48.4688 188.195 48.6875 188.711 49.125C189.23 49.5625 189.49 50.1992 189.49 51.0352C189.49 51.5664 189.346 52.0293 189.057 52.4238C188.771 52.8184 188.373 53.1133 187.861 53.3086L189.865 56.9297V57H188.658L186.807 53.5488ZM184.803 52.6289H186.531C187.09 52.6289 187.533 52.4844 187.861 52.1953C188.193 51.9062 188.359 51.5195 188.359 51.0352C188.359 50.5078 188.201 50.1035 187.885 49.8223C187.572 49.541 187.119 49.3984 186.525 49.3945H184.803V52.6289ZM194.816 57C194.754 56.875 194.703 56.6523 194.664 56.332C194.16 56.8555 193.559 57.1172 192.859 57.1172C192.234 57.1172 191.721 56.9414 191.318 56.5898C190.92 56.2344 190.721 55.7852 190.721 55.2422C190.721 54.582 190.971 54.0703 191.471 53.707C191.975 53.3398 192.682 53.1562 193.592 53.1562H194.646V52.6582C194.646 52.2793 194.533 51.9785 194.307 51.7559C194.08 51.5293 193.746 51.416 193.305 51.416C192.918 51.416 192.594 51.5137 192.332 51.709C192.07 51.9043 191.939 52.1406 191.939 52.418H190.85C190.85 52.1016 190.961 51.7969 191.184 51.5039C191.41 51.207 191.715 50.9727 192.098 50.8008C192.484 50.6289 192.908 50.543 193.369 50.543C194.1 50.543 194.672 50.7266 195.086 51.0938C195.5 51.457 195.715 51.959 195.73 52.5996V55.5176C195.73 56.0996 195.805 56.5625 195.953 56.9062V57H194.816ZM193.018 56.1738C193.357 56.1738 193.68 56.0859 193.984 55.9102C194.289 55.7344 194.51 55.5059 194.646 55.2246V53.9238H193.797C192.469 53.9238 191.805 54.3125 191.805 55.0898C191.805 55.4297 191.918 55.6953 192.145 55.8867C192.371 56.0781 192.662 56.1738 193.018 56.1738ZM198.455 50.6602L198.49 51.457C198.975 50.8477 199.607 50.543 200.389 50.543C201.729 50.543 202.404 51.2988 202.416 52.8105V57H201.332V52.8047C201.328 52.3477 201.223 52.0098 201.016 51.791C200.812 51.5723 200.494 51.4629 200.061 51.4629C199.709 51.4629 199.4 51.5566 199.135 51.7441C198.869 51.9316 198.662 52.1777 198.514 52.4824V57H197.43V50.6602H198.455ZM205.82 54.0645L205.141 54.7734V57H204.057V48H205.141V53.4434L205.721 52.7461L207.695 50.6602H209.014L206.547 53.3086L209.301 57H208.029L205.82 54.0645Z" fill="black"/>
<rect x="49.5" y="65.5" width="101" height="37" fill="#F0E442" stroke="black"/>
<path d="M72.5039 83.1973C71.5391 82.9199 70.8359 82.5801 70.3945 82.1777C69.957 81.7715 69.7383 81.2715 69.7383 80.6777C69.7383 80.0059 70.0059 79.4512 70.541 79.0137C71.0801 78.5723 71.7793 78.3516 72.6387 78.3516C73.2246 78.3516 73.7461 78.4648 74.2031 78.6914C74.6641 78.918 75.0195 79.2305 75.2695 79.6289C75.5234 80.0273 75.6504 80.4629 75.6504 80.9355H74.5195C74.5195 80.4199 74.3555 80.0156 74.0273 79.7227C73.6992 79.4258 73.2363 79.2773 72.6387 79.2773C72.084 79.2773 71.6504 79.4004 71.3379 79.6465C71.0293 79.8887 70.875 80.2266 70.875 80.6602C70.875 81.0078 71.0215 81.3027 71.3145 81.5449C71.6113 81.7832 72.1133 82.002 72.8203 82.2012C73.5312 82.4004 74.0859 82.6211 74.4844 82.8633C74.8867 83.1016 75.1836 83.3809 75.375 83.7012C75.5703 84.0215 75.668 84.3984 75.668 84.832C75.668 85.5234 75.3984 86.0781 74.8594 86.4961C74.3203 86.9102 73.5996 87.1172 72.6973 87.1172C72.1113 87.1172 71.5645 87.0059 71.0566 86.7832C70.5488 86.5566 70.1562 86.248 69.8789 85.8574C69.6055 85.4668 69.4688 85.0234 69.4688 84.5273H70.5996C70.5996 85.043 70.7891 85.4512 71.168 85.752C71.5508 86.0488 72.0605 86.1973 72.6973 86.1973C73.291 86.1973 73.7461 86.0762 74.0625 85.834C74.3789 85.5918 74.5371 85.2617 74.5371 84.8438C74.5371 84.4258 74.3906 84.1035 74.0977 83.877C73.8047 83.6465 73.2734 83.4199 72.5039 83.1973ZM82.5586 85.5059L83.7773 80.6602H84.8613L83.0156 87H82.1367L80.5957 82.1953L79.0957 87H78.2168L76.377 80.6602H77.4551L78.7031 85.4062L80.1797 80.6602H81.0527L82.5586 85.5059ZM87.1465 87H86.0625V80.6602H87.1465V87ZM85.9746 78.9785C85.9746 78.8027 86.0273 78.6543 86.1328 78.5332C86.2422 78.4121 86.4023 78.3516 86.6133 78.3516C86.8242 78.3516 86.9844 78.4121 87.0938 78.5332C87.2031 78.6543 87.2578 78.8027 87.2578 78.9785C87.2578 79.1543 87.2031 79.3008 87.0938 79.418C86.9844 79.5352 86.8242 79.5938 86.6133 79.5938C86.4023 79.5938 86.2422 79.5352 86.1328 79.418C86.0273 79.3008 85.9746 79.1543 85.9746 78.9785ZM90.3574 79.125V80.6602H91.541V81.498H90.3574V85.4297C90.3574 85.6836 90.4102 85.875 90.5156 86.0039C90.6211 86.1289 90.8008 86.1914 91.0547 86.1914C91.1797 86.1914 91.3516 86.168 91.5703 86.1211V87C91.2852 87.0781 91.0078 87.1172 90.7383 87.1172C90.2539 87.1172 89.8887 86.9707 89.6426 86.6777C89.3965 86.3848 89.2734 85.9688 89.2734 85.4297V81.498H88.1191V80.6602H89.2734V79.125H90.3574ZM93.832 86.1152H97.541V87H92.5078V86.2031L96.0059 81.5566H92.5605V80.6602H97.3652V81.4277L93.832 86.1152ZM101.303 87.1172C100.443 87.1172 99.7441 86.8359 99.2051 86.2734C98.666 85.707 98.3965 84.9512 98.3965 84.0059V83.8066C98.3965 83.1777 98.5156 82.6172 98.7539 82.125C98.9961 81.6289 99.332 81.2422 99.7617 80.9648C100.195 80.6836 100.664 80.543 101.168 80.543C101.992 80.543 102.633 80.8145 103.09 81.3574C103.547 81.9004 103.775 82.6777 103.775 83.6895V84.1406H99.4805C99.4961 84.7656 99.6777 85.2715 100.025 85.6582C100.377 86.041 100.822 86.2324 101.361 86.2324C101.744 86.2324 102.068 86.1543 102.334 85.998C102.6 85.8418 102.832 85.6348 103.031 85.377L103.693 85.8926C103.162 86.709 102.365 87.1172 101.303 87.1172ZM101.168 81.4336C100.73 81.4336 100.363 81.5938 100.066 81.9141C99.7695 82.2305 99.5859 82.6758 99.5156 83.25H102.691V83.168C102.66 82.6172 102.512 82.1914 102.246 81.8906C101.98 81.5859 101.621 81.4336 101.168 81.4336ZM108.1 81.6328C107.936 81.6055 107.758 81.5918 107.566 81.5918C106.855 81.5918 106.373 81.8945 106.119 82.5V87H105.035V80.6602H106.09L106.107 81.3926C106.463 80.8262 106.967 80.543 107.619 80.543C107.83 80.543 107.99 80.5703 108.1 80.625V81.6328ZM110.279 87H109.195V78H110.279V87ZM115.934 87C115.871 86.875 115.82 86.6523 115.781 86.332C115.277 86.8555 114.676 87.1172 113.977 87.1172C113.352 87.1172 112.838 86.9414 112.436 86.5898C112.037 86.2344 111.838 85.7852 111.838 85.2422C111.838 84.582 112.088 84.0703 112.588 83.707C113.092 83.3398 113.799 83.1562 114.709 83.1562H115.764V82.6582C115.764 82.2793 115.65 81.9785 115.424 81.7559C115.197 81.5293 114.863 81.416 114.422 81.416C114.035 81.416 113.711 81.5137 113.449 81.709C113.188 81.9043 113.057 82.1406 113.057 82.418H111.967C111.967 82.1016 112.078 81.7969 112.301 81.5039C112.527 81.207 112.832 80.9727 113.215 80.8008C113.602 80.6289 114.025 80.543 114.486 80.543C115.217 80.543 115.789 80.7266 116.203 81.0938C116.617 81.457 116.832 81.959 116.848 82.5996V85.5176C116.848 86.0996 116.922 86.5625 117.07 86.9062V87H115.934ZM114.135 86.1738C114.475 86.1738 114.797 86.0859 115.102 85.9102C115.406 85.7344 115.627 85.5059 115.764 85.2246V83.9238H114.914C113.586 83.9238 112.922 84.3125 112.922 85.0898C112.922 85.4297 113.035 85.6953 113.262 85.8867C113.488 86.0781 113.779 86.1738 114.135 86.1738ZM119.572 80.6602L119.607 81.457C120.092 80.8477 120.725 80.543 121.506 80.543C122.846 80.543 123.521 81.2988 123.533 82.8105V87H122.449V82.8047C122.445 82.3477 122.34 82.0098 122.133 81.791C121.93 81.5723 121.611 81.4629 121.178 81.4629C120.826 81.4629 120.518 81.5566 120.252 81.7441C119.986 81.9316 119.779 82.1777 119.631 82.4824V87H118.547V80.6602H119.572ZM124.904 83.7773C124.904 82.8047 125.135 82.0234 125.596 81.4336C126.057 80.8398 126.66 80.543 127.406 80.543C128.148 80.543 128.736 80.7969 129.17 81.3047V78H130.254V87H129.258L129.205 86.3203C128.771 86.8516 128.168 87.1172 127.395 87.1172C126.66 87.1172 126.061 86.8164 125.596 86.2148C125.135 85.6133 124.904 84.8281 124.904 83.8594V83.7773ZM125.988 83.9004C125.988 84.6191 126.137 85.1816 126.434 85.5879C126.73 85.9941 127.141 86.1973 127.664 86.1973C128.352 86.1973 128.854 85.8887 129.17 85.2715V82.3594C128.846 81.7617 128.348 81.4629 127.676 81.4629C127.145 81.4629 126.73 81.668 126.434 82.0781C126.137 82.4883 125.988 83.0957 125.988 83.9004Z" fill="black"/>
<rect x="236.5" y="27.5" width="84" height="37" fill="#C4C4C4" stroke="black"/>
<path d="M269.592 45.752L271.818 41.4688H273.096L270.154 46.8184V50H269.029V46.8184L266.088 41.4688H267.377L269.592 45.752ZM276.271 50.1172C275.412 50.1172 274.713 49.8359 274.174 49.2734C273.635 48.707 273.365 47.9512 273.365 47.0059V46.8066C273.365 46.1777 273.484 45.6172 273.723 45.125C273.965 44.6289 274.301 44.2422 274.73 43.9648C275.164 43.6836 275.633 43.543 276.137 43.543C276.961 43.543 277.602 43.8145 278.059 44.3574C278.516 44.9004 278.744 45.6777 278.744 46.6895V47.1406H274.449C274.465 47.7656 274.646 48.2715 274.994 48.6582C275.346 49.041 275.791 49.2324 276.33 49.2324C276.713 49.2324 277.037 49.1543 277.303 48.998C277.568 48.8418 277.801 48.6348 278 48.377L278.662 48.8926C278.131 49.709 277.334 50.1172 276.271 50.1172ZM276.137 44.4336C275.699 44.4336 275.332 44.5938 275.035 44.9141C274.738 45.2305 274.555 45.6758 274.484 46.25H277.66V46.168C277.629 45.6172 277.48 45.1914 277.215 44.8906C276.949 44.5859 276.59 44.4336 276.137 44.4336ZM283.918 50C283.855 49.875 283.805 49.6523 283.766 49.332C283.262 49.8555 282.66 50.1172 281.961 50.1172C281.336 50.1172 280.822 49.9414 280.42 49.5898C280.021 49.2344 279.822 48.7852 279.822 48.2422C279.822 47.582 280.072 47.0703 280.572 46.707C281.076 46.3398 281.783 46.1562 282.693 46.1562H283.748V45.6582C283.748 45.2793 283.635 44.9785 283.408 44.7559C283.182 44.5293 282.848 44.416 282.406 44.416C282.02 44.416 281.695 44.5137 281.434 44.709C281.172 44.9043 281.041 45.1406 281.041 45.418H279.951C279.951 45.1016 280.062 44.7969 280.285 44.5039C280.512 44.207 280.816 43.9727 281.199 43.8008C281.586 43.6289 282.01 43.543 282.471 43.543C283.201 43.543 283.773 43.7266 284.188 44.0938C284.602 44.457 284.816 44.959 284.832 45.5996V48.5176C284.832 49.0996 284.906 49.5625 285.055 49.9062V50H283.918ZM282.119 49.1738C282.459 49.1738 282.781 49.0859 283.086 48.9102C283.391 48.7344 283.611 48.5059 283.748 48.2246V46.9238H282.898C281.57 46.9238 280.906 47.3125 280.906 48.0898C280.906 48.4297 281.02 48.6953 281.246 48.8867C281.473 49.0781 281.764 49.1738 282.119 49.1738ZM289.596 44.6328C289.432 44.6055 289.254 44.5918 289.062 44.5918C288.352 44.5918 287.869 44.8945 287.615 45.5V50H286.531V43.6602H287.586L287.604 44.3926C287.959 43.8262 288.463 43.543 289.115 43.543C289.326 43.543 289.486 43.5703 289.596 43.625V44.6328Z" fill="black"/>
<rect x="151.5" y="65.5" width="84" height="37" fill="#2D9CDB" stroke="black"/>
<rect x="236.5" y="65.5" width="84" height="37" fill="#2D9CDB" stroke="black"/>
<path d="M197.271 87H196.182V79.7754L193.996 80.5781V79.5938L197.102 78.4277H197.271V87Z" fill="black"/>
<path d="M269.299 87H263.709V86.2207L266.662 82.9395C267.1 82.4434 267.4 82.041 267.564 81.7324C267.732 81.4199 267.816 81.0977 267.816 80.7656C267.816 80.3203 267.682 79.9551 267.412 79.6699C267.143 79.3848 266.783 79.2422 266.334 79.2422C265.795 79.2422 265.375 79.3965 265.074 79.7051C264.777 80.0098 264.629 80.4355 264.629 80.9824H263.545C263.545 80.1973 263.797 79.5625 264.301 79.0781C264.809 78.5938 265.486 78.3516 266.334 78.3516C267.127 78.3516 267.754 78.5605 268.215 78.9785C268.676 79.3926 268.906 79.9453 268.906 80.6367C268.906 81.4766 268.371 82.4766 267.301 83.6367L265.016 86.1152H269.299V87ZM275.797 83.3613C275.797 84.6309 275.58 85.5742 275.146 86.1914C274.713 86.8086 274.035 87.1172 273.113 87.1172C272.203 87.1172 271.529 86.8164 271.092 86.2148C270.654 85.6094 270.428 84.707 270.412 83.5078V82.0605C270.412 80.8066 270.629 79.875 271.062 79.2656C271.496 78.6562 272.176 78.3516 273.102 78.3516C274.02 78.3516 274.695 78.6465 275.129 79.2363C275.562 79.8223 275.785 80.7285 275.797 81.9551V83.3613ZM274.713 81.8789C274.713 80.9609 274.584 80.293 274.326 79.875C274.068 79.4531 273.66 79.2422 273.102 79.2422C272.547 79.2422 272.143 79.4512 271.889 79.8691C271.635 80.2871 271.504 80.9297 271.496 81.7969V83.5312C271.496 84.4531 271.629 85.1348 271.895 85.5762C272.164 86.0137 272.57 86.2324 273.113 86.2324C273.648 86.2324 274.045 86.0254 274.303 85.6113C274.564 85.1973 274.701 84.5449 274.713 83.6543V81.8789ZM280.748 87H279.658V79.7754L277.473 80.5781V79.5938L280.578 78.4277H280.748V87ZM284.422 82.7227L284.855 78.4688H289.227V79.4707H285.775L285.518 81.7969C285.936 81.5508 286.41 81.4277 286.941 81.4277C287.719 81.4277 288.336 81.6855 288.793 82.2012C289.25 82.7129 289.479 83.4062 289.479 84.2812C289.479 85.1602 289.24 85.8535 288.764 86.3613C288.291 86.8652 287.629 87.1172 286.777 87.1172C286.023 87.1172 285.408 86.9082 284.932 86.4902C284.455 86.0723 284.184 85.4941 284.117 84.7559H285.143C285.209 85.2441 285.383 85.6133 285.664 85.8633C285.945 86.1094 286.316 86.2324 286.777 86.2324C287.281 86.2324 287.676 86.0605 287.961 85.7168C288.25 85.373 288.395 84.8984 288.395 84.293C288.395 83.7227 288.238 83.2656 287.926 82.9219C287.617 82.5742 287.205 82.4004 286.689 82.4004C286.217 82.4004 285.846 82.5039 285.576 82.7109L285.289 82.9453L284.422 82.7227Z" fill="black"/>
<rect x="46.5" y="296.5" width="101" height="38" fill="#F0E442" stroke="black"/>
<path d="M73.9902 319V310.469H76.3984C77.1406 310.469 77.7969 310.633 78.3672 310.961C78.9375 311.289 79.377 311.756 79.6855 312.361C79.998 312.967 80.1562 313.662 80.1602 314.447V314.992C80.1602 315.797 80.0039 316.502 79.6914 317.107C79.3828 317.713 78.9395 318.178 78.3613 318.502C77.7871 318.826 77.1172 318.992 76.3516 319H73.9902ZM75.1152 311.395V318.08H76.2988C77.166 318.08 77.8398 317.811 78.3203 317.271C78.8047 316.732 79.0469 315.965 79.0469 314.969V314.471C79.0469 313.502 78.8184 312.75 78.3613 312.215C77.9082 311.676 77.2637 311.402 76.4277 311.395H75.1152ZM84.3262 319.117C83.4668 319.117 82.7676 318.836 82.2285 318.273C81.6895 317.707 81.4199 316.951 81.4199 316.006V315.807C81.4199 315.178 81.5391 314.617 81.7773 314.125C82.0195 313.629 82.3555 313.242 82.7852 312.965C83.2188 312.684 83.6875 312.543 84.1914 312.543C85.0156 312.543 85.6562 312.814 86.1133 313.357C86.5703 313.9 86.7988 314.678 86.7988 315.689V316.141H82.5039C82.5195 316.766 82.7012 317.271 83.0488 317.658C83.4004 318.041 83.8457 318.232 84.3848 318.232C84.7676 318.232 85.0918 318.154 85.3574 317.998C85.623 317.842 85.8555 317.635 86.0547 317.377L86.7168 317.893C86.1855 318.709 85.3887 319.117 84.3262 319.117ZM84.1914 313.434C83.7539 313.434 83.3867 313.594 83.0898 313.914C82.793 314.23 82.6094 314.676 82.5391 315.25H85.7148V315.168C85.6836 314.617 85.5352 314.191 85.2695 313.891C85.0039 313.586 84.6445 313.434 84.1914 313.434ZM89.084 312.66L89.1191 313.457C89.6035 312.848 90.2363 312.543 91.0176 312.543C92.3574 312.543 93.0332 313.299 93.0449 314.811V319H91.9609V314.805C91.957 314.348 91.8516 314.01 91.6445 313.791C91.4414 313.572 91.123 313.463 90.6895 313.463C90.3379 313.463 90.0293 313.557 89.7637 313.744C89.498 313.932 89.291 314.178 89.1426 314.482V319H88.0586V312.66H89.084ZM95.6992 312.66L95.7285 313.363C96.1934 312.816 96.8203 312.543 97.6094 312.543C98.4961 312.543 99.0996 312.883 99.4199 313.562C99.6309 313.258 99.9043 313.012 100.24 312.824C100.58 312.637 100.98 312.543 101.441 312.543C102.832 312.543 103.539 313.279 103.562 314.752V319H102.479V314.816C102.479 314.363 102.375 314.025 102.168 313.803C101.961 313.576 101.613 313.463 101.125 313.463C100.723 313.463 100.389 313.584 100.123 313.826C99.8574 314.064 99.7031 314.387 99.6602 314.793V319H98.5703V314.846C98.5703 313.924 98.1191 313.463 97.2168 313.463C96.5059 313.463 96.0195 313.766 95.7578 314.371V319H94.6738V312.66H95.6992ZM109.117 319C109.055 318.875 109.004 318.652 108.965 318.332C108.461 318.855 107.859 319.117 107.16 319.117C106.535 319.117 106.021 318.941 105.619 318.59C105.221 318.234 105.021 317.785 105.021 317.242C105.021 316.582 105.271 316.07 105.771 315.707C106.275 315.34 106.982 315.156 107.893 315.156H108.947V314.658C108.947 314.279 108.834 313.979 108.607 313.756C108.381 313.529 108.047 313.416 107.605 313.416C107.219 313.416 106.895 313.514 106.633 313.709C106.371 313.904 106.24 314.141 106.24 314.418H105.15C105.15 314.102 105.262 313.797 105.484 313.504C105.711 313.207 106.016 312.973 106.398 312.801C106.785 312.629 107.209 312.543 107.67 312.543C108.4 312.543 108.973 312.727 109.387 313.094C109.801 313.457 110.016 313.959 110.031 314.6V317.518C110.031 318.1 110.105 318.562 110.254 318.906V319H109.117ZM107.318 318.174C107.658 318.174 107.98 318.086 108.285 317.91C108.59 317.734 108.811 317.506 108.947 317.225V315.924H108.098C106.77 315.924 106.105 316.312 106.105 317.09C106.105 317.43 106.219 317.695 106.445 317.887C106.672 318.078 106.963 318.174 107.318 318.174ZM114.795 313.633C114.631 313.605 114.453 313.592 114.262 313.592C113.551 313.592 113.068 313.895 112.814 314.5V319H111.73V312.66H112.785L112.803 313.393C113.158 312.826 113.662 312.543 114.314 312.543C114.525 312.543 114.686 312.57 114.795 312.625V313.633ZM117.566 316.064L116.887 316.773V319H115.803V310H116.887V315.443L117.467 314.746L119.441 312.66H120.76L118.293 315.309L121.047 319H119.775L117.566 316.064Z" fill="black"/>
<rect x="148.5" y="296.5" width="84" height="38" fill="#2D9CDB" stroke="black"/>
<path d="M192.285 314.207H193.1C193.611 314.199 194.014 314.064 194.307 313.803C194.6 313.541 194.746 313.188 194.746 312.742C194.746 311.742 194.248 311.242 193.252 311.242C192.783 311.242 192.408 311.377 192.127 311.646C191.85 311.912 191.711 312.266 191.711 312.707H190.627C190.627 312.031 190.873 311.471 191.365 311.025C191.861 310.576 192.49 310.352 193.252 310.352C194.057 310.352 194.688 310.564 195.145 310.99C195.602 311.416 195.83 312.008 195.83 312.766C195.83 313.137 195.709 313.496 195.467 313.844C195.229 314.191 194.902 314.451 194.488 314.623C194.957 314.771 195.318 315.018 195.572 315.361C195.83 315.705 195.959 316.125 195.959 316.621C195.959 317.387 195.709 317.994 195.209 318.443C194.709 318.893 194.059 319.117 193.258 319.117C192.457 319.117 191.805 318.9 191.301 318.467C190.801 318.033 190.551 317.461 190.551 316.75H191.641C191.641 317.199 191.787 317.559 192.08 317.828C192.373 318.098 192.766 318.232 193.258 318.232C193.781 318.232 194.182 318.096 194.459 317.822C194.736 317.549 194.875 317.156 194.875 316.645C194.875 316.148 194.723 315.768 194.418 315.502C194.113 315.236 193.674 315.1 193.1 315.092H192.285V314.207Z" fill="black"/>
<rect x="233.5" y="296.5" width="84" height="38" fill="#2D9CDB" stroke="black"/>
<path d="M266.299 319H260.709V318.221L263.662 314.939C264.1 314.443 264.4 314.041 264.564 313.732C264.732 313.42 264.816 313.098 264.816 312.766C264.816 312.32 264.682 311.955 264.412 311.67C264.143 311.385 263.783 311.242 263.334 311.242C262.795 311.242 262.375 311.396 262.074 311.705C261.777 312.01 261.629 312.436 261.629 312.982H260.545C260.545 312.197 260.797 311.562 261.301 311.078C261.809 310.594 262.486 310.352 263.334 310.352C264.127 310.352 264.754 310.561 265.215 310.979C265.676 311.393 265.906 311.945 265.906 312.637C265.906 313.477 265.371 314.477 264.301 315.637L262.016 318.115H266.299V319ZM272.797 315.361C272.797 316.631 272.58 317.574 272.146 318.191C271.713 318.809 271.035 319.117 270.113 319.117C269.203 319.117 268.529 318.816 268.092 318.215C267.654 317.609 267.428 316.707 267.412 315.508V314.061C267.412 312.807 267.629 311.875 268.062 311.266C268.496 310.656 269.176 310.352 270.102 310.352C271.02 310.352 271.695 310.646 272.129 311.236C272.562 311.822 272.785 312.729 272.797 313.955V315.361ZM271.713 313.879C271.713 312.961 271.584 312.293 271.326 311.875C271.068 311.453 270.66 311.242 270.102 311.242C269.547 311.242 269.143 311.451 268.889 311.869C268.635 312.287 268.504 312.93 268.496 313.797V315.531C268.496 316.453 268.629 317.135 268.895 317.576C269.164 318.014 269.57 318.232 270.113 318.232C270.648 318.232 271.045 318.025 271.303 317.611C271.564 317.197 271.701 316.545 271.713 315.654V313.879ZM277.748 319H276.658V311.775L274.473 312.578V311.594L277.578 310.428H277.748V319ZM281.422 314.723L281.855 310.469H286.227V311.471H282.775L282.518 313.797C282.936 313.551 283.41 313.428 283.941 313.428C284.719 313.428 285.336 313.686 285.793 314.201C286.25 314.713 286.479 315.406 286.479 316.281C286.479 317.16 286.24 317.854 285.764 318.361C285.291 318.865 284.629 319.117 283.777 319.117C283.023 319.117 282.408 318.908 281.932 318.49C281.455 318.072 281.184 317.494 281.117 316.756H282.143C282.209 317.244 282.383 317.613 282.664 317.863C282.945 318.109 283.316 318.232 283.777 318.232C284.281 318.232 284.676 318.061 284.961 317.717C285.25 317.373 285.395 316.898 285.395 316.293C285.395 315.723 285.238 315.266 284.926 314.922C284.617 314.574 284.205 314.4 283.689 314.4C283.217 314.4 282.846 314.504 282.576 314.711L282.289 314.945L281.422 314.723Z" fill="black"/>
<rect x="281.5" y="125.5" width="84" height="37" fill="#EB5757" stroke="black"/>
<rect x="196.5" y="125.5" width="84" height="37" fill="#EB5757" stroke="black"/>
<rect x="94.5" y="125.5" width="101" height="37" fill="#F0E442" stroke="black"/>
<rect x="97.5" y="238.5" width="101" height="37" fill="#F0E442" stroke="black"/>
<rect x="199.5" y="238.5" width="84" height="37" fill="#EB5757" stroke="black"/>
<rect x="284.5" y="238.5" width="84" height="37" fill="#EB5757" stroke="black"/>
<path d="M318.299 262H312.709V261.221L315.662 257.939C316.1 257.443 316.4 257.041 316.564 256.732C316.732 256.42 316.816 256.098 316.816 255.766C316.816 255.32 316.682 254.955 316.412 254.67C316.143 254.385 315.783 254.242 315.334 254.242C314.795 254.242 314.375 254.396 314.074 254.705C313.777 255.01 313.629 255.436 313.629 255.982H312.545C312.545 255.197 312.797 254.562 313.301 254.078C313.809 253.594 314.486 253.352 315.334 253.352C316.127 253.352 316.754 253.561 317.215 253.979C317.676 254.393 317.906 254.945 317.906 255.637C317.906 256.477 317.371 257.477 316.301 258.637L314.016 261.115H318.299V262ZM324.797 258.361C324.797 259.631 324.58 260.574 324.146 261.191C323.713 261.809 323.035 262.117 322.113 262.117C321.203 262.117 320.529 261.816 320.092 261.215C319.654 260.609 319.428 259.707 319.412 258.508V257.061C319.412 255.807 319.629 254.875 320.062 254.266C320.496 253.656 321.176 253.352 322.102 253.352C323.02 253.352 323.695 253.646 324.129 254.236C324.562 254.822 324.785 255.729 324.797 256.955V258.361ZM323.713 256.879C323.713 255.961 323.584 255.293 323.326 254.875C323.068 254.453 322.66 254.242 322.102 254.242C321.547 254.242 321.143 254.451 320.889 254.869C320.635 255.287 320.504 255.93 320.496 256.797V258.531C320.496 259.453 320.629 260.135 320.895 260.576C321.164 261.014 321.57 261.232 322.113 261.232C322.648 261.232 323.045 261.025 323.303 260.611C323.564 260.197 323.701 259.545 323.713 258.654V256.879ZM329.748 262H328.658V254.775L326.473 255.578V254.594L329.578 253.428H329.748V262ZM337.178 253.463V254.383H336.979C336.135 254.398 335.463 254.648 334.963 255.133C334.463 255.617 334.174 256.299 334.096 257.178C334.545 256.662 335.158 256.404 335.936 256.404C336.678 256.404 337.27 256.666 337.711 257.189C338.156 257.713 338.379 258.389 338.379 259.217C338.379 260.096 338.139 260.799 337.658 261.326C337.182 261.854 336.541 262.117 335.736 262.117C334.92 262.117 334.258 261.805 333.75 261.18C333.242 260.551 332.988 259.742 332.988 258.754V258.338C332.988 256.768 333.322 255.568 333.99 254.74C334.662 253.908 335.66 253.482 336.984 253.463H337.178ZM335.754 257.307C335.383 257.307 335.041 257.418 334.729 257.641C334.416 257.863 334.199 258.143 334.078 258.479V258.877C334.078 259.58 334.236 260.146 334.553 260.576C334.869 261.006 335.264 261.221 335.736 261.221C336.225 261.221 336.607 261.041 336.885 260.682C337.166 260.322 337.307 259.852 337.307 259.27C337.307 258.684 337.164 258.211 336.879 257.852C336.598 257.488 336.223 257.307 335.754 257.307Z" fill="black"/>
<path d="M239.285 257.207H240.1C240.611 257.199 241.014 257.064 241.307 256.803C241.6 256.541 241.746 256.188 241.746 255.742C241.746 254.742 241.248 254.242 240.252 254.242C239.783 254.242 239.408 254.377 239.127 254.646C238.85 254.912 238.711 255.266 238.711 255.707H237.627C237.627 255.031 237.873 254.471 238.365 254.025C238.861 253.576 239.49 253.352 240.252 253.352C241.057 253.352 241.688 253.564 242.145 253.99C242.602 254.416 242.83 255.008 242.83 255.766C242.83 256.137 242.709 256.496 242.467 256.844C242.229 257.191 241.902 257.451 241.488 257.623C241.957 257.771 242.318 258.018 242.572 258.361C242.83 258.705 242.959 259.125 242.959 259.621C242.959 260.387 242.709 260.994 242.209 261.443C241.709 261.893 241.059 262.117 240.258 262.117C239.457 262.117 238.805 261.9 238.301 261.467C237.801 261.033 237.551 260.461 237.551 259.75H238.641C238.641 260.199 238.787 260.559 239.08 260.828C239.373 261.098 239.766 261.232 240.258 261.232C240.781 261.232 241.182 261.096 241.459 260.822C241.736 260.549 241.875 260.156 241.875 259.645C241.875 259.148 241.723 258.768 241.418 258.502C241.113 258.236 240.674 258.1 240.1 258.092H239.285V257.207Z" fill="black"/>
<path d="M128.197 262H127.072V253.469H128.197V262ZM132.633 261.232C133.02 261.232 133.357 261.115 133.646 260.881C133.936 260.646 134.096 260.354 134.127 260.002H135.152C135.133 260.365 135.008 260.711 134.777 261.039C134.547 261.367 134.238 261.629 133.852 261.824C133.469 262.02 133.062 262.117 132.633 262.117C131.77 262.117 131.082 261.83 130.57 261.256C130.062 260.678 129.809 259.889 129.809 258.889V258.707C129.809 258.09 129.922 257.541 130.148 257.061C130.375 256.58 130.699 256.207 131.121 255.941C131.547 255.676 132.049 255.543 132.627 255.543C133.338 255.543 133.928 255.756 134.396 256.182C134.869 256.607 135.121 257.16 135.152 257.84H134.127C134.096 257.43 133.939 257.094 133.658 256.832C133.381 256.566 133.037 256.434 132.627 256.434C132.076 256.434 131.648 256.633 131.344 257.031C131.043 257.426 130.893 257.998 130.893 258.748V258.953C130.893 259.684 131.043 260.246 131.344 260.641C131.645 261.035 132.074 261.232 132.633 261.232ZM139.002 262.117C138.143 262.117 137.443 261.836 136.904 261.273C136.365 260.707 136.096 259.951 136.096 259.006V258.807C136.096 258.178 136.215 257.617 136.453 257.125C136.695 256.629 137.031 256.242 137.461 255.965C137.895 255.684 138.363 255.543 138.867 255.543C139.691 255.543 140.332 255.814 140.789 256.357C141.246 256.9 141.475 257.678 141.475 258.689V259.141H137.18C137.195 259.766 137.377 260.271 137.725 260.658C138.076 261.041 138.521 261.232 139.061 261.232C139.443 261.232 139.768 261.154 140.033 260.998C140.299 260.842 140.531 260.635 140.73 260.377L141.393 260.893C140.861 261.709 140.064 262.117 139.002 262.117ZM138.867 256.434C138.43 256.434 138.062 256.594 137.766 256.914C137.469 257.23 137.285 257.676 137.215 258.25H140.391V258.168C140.359 257.617 140.211 257.191 139.945 256.891C139.68 256.586 139.32 256.434 138.867 256.434ZM143.912 262H142.828V253H143.912V262ZM149.566 262C149.504 261.875 149.453 261.652 149.414 261.332C148.91 261.855 148.309 262.117 147.609 262.117C146.984 262.117 146.471 261.941 146.068 261.59C145.67 261.234 145.471 260.785 145.471 260.242C145.471 259.582 145.721 259.07 146.221 258.707C146.725 258.34 147.432 258.156 148.342 258.156H149.396V257.658C149.396 257.279 149.283 256.979 149.057 256.756C148.83 256.529 148.496 256.416 148.055 256.416C147.668 256.416 147.344 256.514 147.082 256.709C146.82 256.904 146.689 257.141 146.689 257.418H145.6C145.6 257.102 145.711 256.797 145.934 256.504C146.16 256.207 146.465 255.973 146.848 255.801C147.234 255.629 147.658 255.543 148.119 255.543C148.85 255.543 149.422 255.727 149.836 256.094C150.25 256.457 150.465 256.959 150.48 257.6V260.518C150.48 261.1 150.555 261.562 150.703 261.906V262H149.566ZM147.768 261.174C148.107 261.174 148.43 261.086 148.734 260.91C149.039 260.734 149.26 260.506 149.396 260.225V258.924H148.547C147.219 258.924 146.555 259.312 146.555 260.09C146.555 260.43 146.668 260.695 146.895 260.887C147.121 261.078 147.412 261.174 147.768 261.174ZM153.205 255.66L153.24 256.457C153.725 255.848 154.357 255.543 155.139 255.543C156.479 255.543 157.154 256.299 157.166 257.811V262H156.082V257.805C156.078 257.348 155.973 257.01 155.766 256.791C155.562 256.572 155.244 256.463 154.811 256.463C154.459 256.463 154.15 256.557 153.885 256.744C153.619 256.932 153.412 257.178 153.264 257.482V262H152.18V255.66H153.205ZM158.537 258.777C158.537 257.805 158.768 257.023 159.229 256.434C159.689 255.84 160.293 255.543 161.039 255.543C161.781 255.543 162.369 255.797 162.803 256.305V253H163.887V262H162.891L162.838 261.32C162.404 261.852 161.801 262.117 161.027 262.117C160.293 262.117 159.693 261.816 159.229 261.215C158.768 260.613 158.537 259.828 158.537 258.859V258.777ZM159.621 258.9C159.621 259.619 159.77 260.182 160.066 260.588C160.363 260.994 160.773 261.197 161.297 261.197C161.984 261.197 162.486 260.889 162.803 260.271V257.359C162.479 256.762 161.98 256.463 161.309 256.463C160.777 256.463 160.363 256.668 160.066 257.078C159.77 257.488 159.621 258.096 159.621 258.9Z" fill="black"/>
<rect x="54.5" y="178.5" width="101" height="37" fill="#F0E442" stroke="black"/>
<path d="M86.1973 200H85.0723V191.469H86.1973V200ZM90.6328 199.232C91.0195 199.232 91.3574 199.115 91.6465 198.881C91.9355 198.646 92.0957 198.354 92.127 198.002H93.1523C93.1328 198.365 93.0078 198.711 92.7773 199.039C92.5469 199.367 92.2383 199.629 91.8516 199.824C91.4688 200.02 91.0625 200.117 90.6328 200.117C89.7695 200.117 89.082 199.83 88.5703 199.256C88.0625 198.678 87.8086 197.889 87.8086 196.889V196.707C87.8086 196.09 87.9219 195.541 88.1484 195.061C88.375 194.58 88.6992 194.207 89.1211 193.941C89.5469 193.676 90.0488 193.543 90.627 193.543C91.3379 193.543 91.9277 193.756 92.3965 194.182C92.8691 194.607 93.1211 195.16 93.1523 195.84H92.127C92.0957 195.43 91.9395 195.094 91.6582 194.832C91.3809 194.566 91.0371 194.434 90.627 194.434C90.0762 194.434 89.6484 194.633 89.3438 195.031C89.043 195.426 88.8926 195.998 88.8926 196.748V196.953C88.8926 197.684 89.043 198.246 89.3438 198.641C89.6445 199.035 90.0742 199.232 90.6328 199.232ZM97.002 200.117C96.1426 200.117 95.4434 199.836 94.9043 199.273C94.3652 198.707 94.0957 197.951 94.0957 197.006V196.807C94.0957 196.178 94.2148 195.617 94.4531 195.125C94.6953 194.629 95.0312 194.242 95.4609 193.965C95.8945 193.684 96.3633 193.543 96.8672 193.543C97.6914 193.543 98.332 193.814 98.7891 194.357C99.2461 194.9 99.4746 195.678 99.4746 196.689V197.141H95.1797C95.1953 197.766 95.377 198.271 95.7246 198.658C96.0762 199.041 96.5215 199.232 97.0605 199.232C97.4434 199.232 97.7676 199.154 98.0332 198.998C98.2988 198.842 98.5312 198.635 98.7305 198.377L99.3926 198.893C98.8613 199.709 98.0645 200.117 97.002 200.117ZM96.8672 194.434C96.4297 194.434 96.0625 194.594 95.7656 194.914C95.4688 195.23 95.2852 195.676 95.2148 196.25H98.3906V196.168C98.3594 195.617 98.2109 195.191 97.9453 194.891C97.6797 194.586 97.3203 194.434 96.8672 194.434ZM101.912 200H100.828V191H101.912V200ZM107.566 200C107.504 199.875 107.453 199.652 107.414 199.332C106.91 199.855 106.309 200.117 105.609 200.117C104.984 200.117 104.471 199.941 104.068 199.59C103.67 199.234 103.471 198.785 103.471 198.242C103.471 197.582 103.721 197.07 104.221 196.707C104.725 196.34 105.432 196.156 106.342 196.156H107.396V195.658C107.396 195.279 107.283 194.979 107.057 194.756C106.83 194.529 106.496 194.416 106.055 194.416C105.668 194.416 105.344 194.514 105.082 194.709C104.82 194.904 104.689 195.141 104.689 195.418H103.6C103.6 195.102 103.711 194.797 103.934 194.504C104.16 194.207 104.465 193.973 104.848 193.801C105.234 193.629 105.658 193.543 106.119 193.543C106.85 193.543 107.422 193.727 107.836 194.094C108.25 194.457 108.465 194.959 108.48 195.6V198.518C108.48 199.1 108.555 199.562 108.703 199.906V200H107.566ZM105.768 199.174C106.107 199.174 106.43 199.086 106.734 198.91C107.039 198.734 107.26 198.506 107.396 198.225V196.924H106.547C105.219 196.924 104.555 197.312 104.555 198.09C104.555 198.43 104.668 198.695 104.895 198.887C105.121 199.078 105.412 199.174 105.768 199.174ZM111.205 193.66L111.24 194.457C111.725 193.848 112.357 193.543 113.139 193.543C114.479 193.543 115.154 194.299 115.166 195.811V200H114.082V195.805C114.078 195.348 113.973 195.01 113.766 194.791C113.562 194.572 113.244 194.463 112.811 194.463C112.459 194.463 112.15 194.557 111.885 194.744C111.619 194.932 111.412 195.178 111.264 195.482V200H110.18V193.66H111.205ZM116.537 196.777C116.537 195.805 116.768 195.023 117.229 194.434C117.689 193.84 118.293 193.543 119.039 193.543C119.781 193.543 120.369 193.797 120.803 194.305V191H121.887V200H120.891L120.838 199.32C120.404 199.852 119.801 200.117 119.027 200.117C118.293 200.117 117.693 199.816 117.229 199.215C116.768 198.613 116.537 197.828 116.537 196.859V196.777ZM117.621 196.9C117.621 197.619 117.77 198.182 118.066 198.588C118.363 198.994 118.773 199.197 119.297 199.197C119.984 199.197 120.486 198.889 120.803 198.271V195.359C120.479 194.762 119.98 194.463 119.309 194.463C118.777 194.463 118.363 194.668 118.066 195.078C117.77 195.488 117.621 196.096 117.621 196.9Z" fill="black"/>
<rect x="156.5" y="178.5" width="84" height="37" fill="#2D9CDB" stroke="black"/>
<rect x="241.5" y="178.5" width="84" height="37" fill="#2D9CDB" stroke="black"/>
<path d="M204.299 200H198.709V199.221L201.662 195.939C202.1 195.443 202.4 195.041 202.564 194.732C202.732 194.42 202.816 194.098 202.816 193.766C202.816 193.32 202.682 192.955 202.412 192.67C202.143 192.385 201.783 192.242 201.334 192.242C200.795 192.242 200.375 192.396 200.074 192.705C199.777 193.01 199.629 193.436 199.629 193.982H198.545C198.545 193.197 198.797 192.562 199.301 192.078C199.809 191.594 200.486 191.352 201.334 191.352C202.127 191.352 202.754 191.561 203.215 191.979C203.676 192.393 203.906 192.945 203.906 193.637C203.906 194.477 203.371 195.477 202.301 196.637L200.016 199.115H204.299V200Z" fill="black"/>
<path d="M274.299 200H268.709V199.221L271.662 195.939C272.1 195.443 272.4 195.041 272.564 194.732C272.732 194.42 272.816 194.098 272.816 193.766C272.816 193.32 272.682 192.955 272.412 192.67C272.143 192.385 271.783 192.242 271.334 192.242C270.795 192.242 270.375 192.396 270.074 192.705C269.777 193.01 269.629 193.436 269.629 193.982H268.545C268.545 193.197 268.797 192.562 269.301 192.078C269.809 191.594 270.486 191.352 271.334 191.352C272.127 191.352 272.754 191.561 273.215 191.979C273.676 192.393 273.906 192.945 273.906 193.637C273.906 194.477 273.371 195.477 272.301 196.637L270.016 199.115H274.299V200ZM280.797 196.361C280.797 197.631 280.58 198.574 280.146 199.191C279.713 199.809 279.035 200.117 278.113 200.117C277.203 200.117 276.529 199.816 276.092 199.215C275.654 198.609 275.428 197.707 275.412 196.508V195.061C275.412 193.807 275.629 192.875 276.062 192.266C276.496 191.656 277.176 191.352 278.102 191.352C279.02 191.352 279.695 191.646 280.129 192.236C280.562 192.822 280.785 193.729 280.797 194.955V196.361ZM279.713 194.879C279.713 193.961 279.584 193.293 279.326 192.875C279.068 192.453 278.66 192.242 278.102 192.242C277.547 192.242 277.143 192.451 276.889 192.869C276.635 193.287 276.504 193.93 276.496 194.797V196.531C276.496 197.453 276.629 198.135 276.895 198.576C277.164 199.014 277.57 199.232 278.113 199.232C278.648 199.232 279.045 199.025 279.303 198.611C279.564 198.197 279.701 197.545 279.713 196.654V194.879ZM285.748 200H284.658V192.775L282.473 193.578V192.594L285.578 191.428H285.748V200ZM289.422 195.723L289.855 191.469H294.227V192.471H290.775L290.518 194.797C290.936 194.551 291.41 194.428 291.941 194.428C292.719 194.428 293.336 194.686 293.793 195.201C294.25 195.713 294.479 196.406 294.479 197.281C294.479 198.16 294.24 198.854 293.764 199.361C293.291 199.865 292.629 200.117 291.777 200.117C291.023 200.117 290.408 199.908 289.932 199.49C289.455 199.072 289.184 198.494 289.117 197.756H290.143C290.209 198.244 290.383 198.613 290.664 198.863C290.945 199.109 291.316 199.232 291.777 199.232C292.281 199.232 292.676 199.061 292.961 198.717C293.25 198.373 293.395 197.898 293.395 197.293C293.395 196.723 293.238 196.266 292.926 195.922C292.617 195.574 292.205 195.4 291.689 195.4C291.217 195.4 290.846 195.504 290.576 195.711L290.289 195.945L289.422 195.723Z" fill="black"/>
<path d="M117.504 144.197C116.539 143.92 115.836 143.58 115.395 143.178C114.957 142.771 114.738 142.271 114.738 141.678C114.738 141.006 115.006 140.451 115.541 140.014C116.08 139.572 116.779 139.352 117.639 139.352C118.225 139.352 118.746 139.465 119.203 139.691C119.664 139.918 120.02 140.23 120.27 140.629C120.523 141.027 120.65 141.463 120.65 141.936H119.52C119.52 141.42 119.355 141.016 119.027 140.723C118.699 140.426 118.236 140.277 117.639 140.277C117.084 140.277 116.65 140.4 116.338 140.646C116.029 140.889 115.875 141.227 115.875 141.66C115.875 142.008 116.021 142.303 116.314 142.545C116.611 142.783 117.113 143.002 117.82 143.201C118.531 143.4 119.086 143.621 119.484 143.863C119.887 144.102 120.184 144.381 120.375 144.701C120.57 145.021 120.668 145.398 120.668 145.832C120.668 146.523 120.398 147.078 119.859 147.496C119.32 147.91 118.6 148.117 117.697 148.117C117.111 148.117 116.564 148.006 116.057 147.783C115.549 147.557 115.156 147.248 114.879 146.857C114.605 146.467 114.469 146.023 114.469 145.527H115.6C115.6 146.043 115.789 146.451 116.168 146.752C116.551 147.049 117.061 147.197 117.697 147.197C118.291 147.197 118.746 147.076 119.062 146.834C119.379 146.592 119.537 146.262 119.537 145.844C119.537 145.426 119.391 145.104 119.098 144.877C118.805 144.646 118.273 144.42 117.504 144.197ZM127.559 146.506L128.777 141.66H129.861L128.016 148H127.137L125.596 143.195L124.096 148H123.217L121.377 141.66H122.455L123.703 146.406L125.18 141.66H126.053L127.559 146.506ZM132.146 148H131.062V141.66H132.146V148ZM130.975 139.979C130.975 139.803 131.027 139.654 131.133 139.533C131.242 139.412 131.402 139.352 131.613 139.352C131.824 139.352 131.984 139.412 132.094 139.533C132.203 139.654 132.258 139.803 132.258 139.979C132.258 140.154 132.203 140.301 132.094 140.418C131.984 140.535 131.824 140.594 131.613 140.594C131.402 140.594 131.242 140.535 131.133 140.418C131.027 140.301 130.975 140.154 130.975 139.979ZM135.357 140.125V141.66H136.541V142.498H135.357V146.43C135.357 146.684 135.41 146.875 135.516 147.004C135.621 147.129 135.801 147.191 136.055 147.191C136.18 147.191 136.352 147.168 136.57 147.121V148C136.285 148.078 136.008 148.117 135.738 148.117C135.254 148.117 134.889 147.971 134.643 147.678C134.396 147.385 134.273 146.969 134.273 146.43V142.498H133.119V141.66H134.273V140.125H135.357ZM138.832 147.115H142.541V148H137.508V147.203L141.006 142.557H137.561V141.66H142.365V142.428L138.832 147.115ZM146.303 148.117C145.443 148.117 144.744 147.836 144.205 147.273C143.666 146.707 143.396 145.951 143.396 145.006V144.807C143.396 144.178 143.516 143.617 143.754 143.125C143.996 142.629 144.332 142.242 144.762 141.965C145.195 141.684 145.664 141.543 146.168 141.543C146.992 141.543 147.633 141.814 148.09 142.357C148.547 142.9 148.775 143.678 148.775 144.689V145.141H144.48C144.496 145.766 144.678 146.271 145.025 146.658C145.377 147.041 145.822 147.232 146.361 147.232C146.744 147.232 147.068 147.154 147.334 146.998C147.6 146.842 147.832 146.635 148.031 146.377L148.693 146.893C148.162 147.709 147.365 148.117 146.303 148.117ZM146.168 142.434C145.73 142.434 145.363 142.594 145.066 142.914C144.77 143.23 144.586 143.676 144.516 144.25H147.691V144.168C147.66 143.617 147.512 143.191 147.246 142.891C146.98 142.586 146.621 142.434 146.168 142.434ZM153.1 142.633C152.936 142.605 152.758 142.592 152.566 142.592C151.855 142.592 151.373 142.895 151.119 143.5V148H150.035V141.66H151.09L151.107 142.393C151.463 141.826 151.967 141.543 152.619 141.543C152.83 141.543 152.99 141.57 153.1 141.625V142.633ZM155.279 148H154.195V139H155.279V148ZM160.934 148C160.871 147.875 160.82 147.652 160.781 147.332C160.277 147.855 159.676 148.117 158.977 148.117C158.352 148.117 157.838 147.941 157.436 147.59C157.037 147.234 156.838 146.785 156.838 146.242C156.838 145.582 157.088 145.07 157.588 144.707C158.092 144.34 158.799 144.156 159.709 144.156H160.764V143.658C160.764 143.279 160.65 142.979 160.424 142.756C160.197 142.529 159.863 142.416 159.422 142.416C159.035 142.416 158.711 142.514 158.449 142.709C158.188 142.904 158.057 143.141 158.057 143.418H156.967C156.967 143.102 157.078 142.797 157.301 142.504C157.527 142.207 157.832 141.973 158.215 141.801C158.602 141.629 159.025 141.543 159.486 141.543C160.217 141.543 160.789 141.727 161.203 142.094C161.617 142.457 161.832 142.959 161.848 143.6V146.518C161.848 147.1 161.922 147.562 162.07 147.906V148H160.934ZM159.135 147.174C159.475 147.174 159.797 147.086 160.102 146.91C160.406 146.734 160.627 146.506 160.764 146.225V144.924H159.914C158.586 144.924 157.922 145.312 157.922 146.09C157.922 146.43 158.035 146.695 158.262 146.887C158.488 147.078 158.779 147.174 159.135 147.174ZM164.572 141.66L164.607 142.457C165.092 141.848 165.725 141.543 166.506 141.543C167.846 141.543 168.521 142.299 168.533 143.811V148H167.449V143.805C167.445 143.348 167.34 143.01 167.133 142.791C166.93 142.572 166.611 142.463 166.178 142.463C165.826 142.463 165.518 142.557 165.252 142.744C164.986 142.932 164.779 143.178 164.631 143.482V148H163.547V141.66H164.572ZM169.904 144.777C169.904 143.805 170.135 143.023 170.596 142.434C171.057 141.84 171.66 141.543 172.406 141.543C173.148 141.543 173.736 141.797 174.17 142.305V139H175.254V148H174.258L174.205 147.32C173.771 147.852 173.168 148.117 172.395 148.117C171.66 148.117 171.061 147.816 170.596 147.215C170.135 146.613 169.904 145.828 169.904 144.859V144.777ZM170.988 144.9C170.988 145.619 171.137 146.182 171.434 146.588C171.73 146.994 172.141 147.197 172.664 147.197C173.352 147.197 173.854 146.889 174.17 146.271V143.359C173.846 142.762 173.348 142.463 172.676 142.463C172.145 142.463 171.73 142.668 171.434 143.078C171.137 143.488 170.988 144.096 170.988 144.9Z" fill="black"/>
<path d="M242.299 148H236.709V147.221L239.662 143.939C240.1 143.443 240.4 143.041 240.564 142.732C240.732 142.42 240.816 142.098 240.816 141.766C240.816 141.32 240.682 140.955 240.412 140.67C240.143 140.385 239.783 140.242 239.334 140.242C238.795 140.242 238.375 140.396 238.074 140.705C237.777 141.01 237.629 141.436 237.629 141.982H236.545C236.545 141.197 236.797 140.562 237.301 140.078C237.809 139.594 238.486 139.352 239.334 139.352C240.127 139.352 240.754 139.561 241.215 139.979C241.676 140.393 241.906 140.945 241.906 141.637C241.906 142.477 241.371 143.477 240.301 144.637L238.016 147.115H242.299V148Z" fill="black"/>
<path d="M314.299 148H308.709V147.221L311.662 143.939C312.1 143.443 312.4 143.041 312.564 142.732C312.732 142.42 312.816 142.098 312.816 141.766C312.816 141.32 312.682 140.955 312.412 140.67C312.143 140.385 311.783 140.242 311.334 140.242C310.795 140.242 310.375 140.396 310.074 140.705C309.777 141.01 309.629 141.436 309.629 141.982H308.545C308.545 141.197 308.797 140.562 309.301 140.078C309.809 139.594 310.486 139.352 311.334 139.352C312.127 139.352 312.754 139.561 313.215 139.979C313.676 140.393 313.906 140.945 313.906 141.637C313.906 142.477 313.371 143.477 312.301 144.637L310.016 147.115H314.299V148ZM320.797 144.361C320.797 145.631 320.58 146.574 320.146 147.191C319.713 147.809 319.035 148.117 318.113 148.117C317.203 148.117 316.529 147.816 316.092 147.215C315.654 146.609 315.428 145.707 315.412 144.508V143.061C315.412 141.807 315.629 140.875 316.062 140.266C316.496 139.656 317.176 139.352 318.102 139.352C319.02 139.352 319.695 139.646 320.129 140.236C320.562 140.822 320.785 141.729 320.797 142.955V144.361ZM319.713 142.879C319.713 141.961 319.584 141.293 319.326 140.875C319.068 140.453 318.66 140.242 318.102 140.242C317.547 140.242 317.143 140.451 316.889 140.869C316.635 141.287 316.504 141.93 316.496 142.797V144.531C316.496 145.453 316.629 146.135 316.895 146.576C317.164 147.014 317.57 147.232 318.113 147.232C318.648 147.232 319.045 147.025 319.303 146.611C319.564 146.197 319.701 145.545 319.713 144.654V142.879ZM325.748 148H324.658V140.775L322.473 141.578V140.594L325.578 139.428H325.748V148ZM333.178 139.463V140.383H332.979C332.135 140.398 331.463 140.648 330.963 141.133C330.463 141.617 330.174 142.299 330.096 143.178C330.545 142.662 331.158 142.404 331.936 142.404C332.678 142.404 333.27 142.666 333.711 143.189C334.156 143.713 334.379 144.389 334.379 145.217C334.379 146.096 334.139 146.799 333.658 147.326C333.182 147.854 332.541 148.117 331.736 148.117C330.92 148.117 330.258 147.805 329.75 147.18C329.242 146.551 328.988 145.742 328.988 144.754V144.338C328.988 142.768 329.322 141.568 329.99 140.74C330.662 139.908 331.66 139.482 332.984 139.463H333.178ZM331.754 143.307C331.383 143.307 331.041 143.418 330.729 143.641C330.416 143.863 330.199 144.143 330.078 144.479V144.877C330.078 145.58 330.236 146.146 330.553 146.576C330.869 147.006 331.264 147.221 331.736 147.221C332.225 147.221 332.607 147.041 332.885 146.682C333.166 146.322 333.307 145.852 333.307 145.27C333.307 144.684 333.164 144.211 332.879 143.852C332.598 143.488 332.223 143.307 331.754 143.307Z" fill="black"/>
<rect x="97.5" y="356.5" width="101" height="37" fill="#F0E442" stroke="black"/>
<path d="M122.99 378V369.469H125.398C126.141 369.469 126.797 369.633 127.367 369.961C127.938 370.289 128.377 370.756 128.686 371.361C128.998 371.967 129.156 372.662 129.16 373.447V373.992C129.16 374.797 129.004 375.502 128.691 376.107C128.383 376.713 127.939 377.178 127.361 377.502C126.787 377.826 126.117 377.992 125.352 378H122.99ZM124.115 370.395V377.08H125.299C126.166 377.08 126.84 376.811 127.32 376.271C127.805 375.732 128.047 374.965 128.047 373.969V373.471C128.047 372.502 127.818 371.75 127.361 371.215C126.908 370.676 126.264 370.402 125.428 370.395H124.115ZM133.326 378.117C132.467 378.117 131.768 377.836 131.229 377.273C130.689 376.707 130.42 375.951 130.42 375.006V374.807C130.42 374.178 130.539 373.617 130.777 373.125C131.02 372.629 131.355 372.242 131.785 371.965C132.219 371.684 132.688 371.543 133.191 371.543C134.016 371.543 134.656 371.814 135.113 372.357C135.57 372.9 135.799 373.678 135.799 374.689V375.141H131.504C131.52 375.766 131.701 376.271 132.049 376.658C132.4 377.041 132.846 377.232 133.385 377.232C133.768 377.232 134.092 377.154 134.357 376.998C134.623 376.842 134.855 376.635 135.055 376.377L135.717 376.893C135.186 377.709 134.389 378.117 133.326 378.117ZM133.191 372.434C132.754 372.434 132.387 372.594 132.09 372.914C131.793 373.23 131.609 373.676 131.539 374.25H134.715V374.168C134.684 373.617 134.535 373.191 134.27 372.891C134.004 372.586 133.645 372.434 133.191 372.434ZM138.084 371.66L138.119 372.457C138.604 371.848 139.236 371.543 140.018 371.543C141.357 371.543 142.033 372.299 142.045 373.811V378H140.961V373.805C140.957 373.348 140.852 373.01 140.645 372.791C140.441 372.572 140.123 372.463 139.689 372.463C139.338 372.463 139.029 372.557 138.764 372.744C138.498 372.932 138.291 373.178 138.143 373.482V378H137.059V371.66H138.084ZM144.699 371.66L144.729 372.363C145.193 371.816 145.82 371.543 146.609 371.543C147.496 371.543 148.1 371.883 148.42 372.562C148.631 372.258 148.904 372.012 149.24 371.824C149.58 371.637 149.98 371.543 150.441 371.543C151.832 371.543 152.539 372.279 152.562 373.752V378H151.479V373.816C151.479 373.363 151.375 373.025 151.168 372.803C150.961 372.576 150.613 372.463 150.125 372.463C149.723 372.463 149.389 372.584 149.123 372.826C148.857 373.064 148.703 373.387 148.66 373.793V378H147.57V373.846C147.57 372.924 147.119 372.463 146.217 372.463C145.506 372.463 145.02 372.766 144.758 373.371V378H143.674V371.66H144.699ZM158.117 378C158.055 377.875 158.004 377.652 157.965 377.332C157.461 377.855 156.859 378.117 156.16 378.117C155.535 378.117 155.021 377.941 154.619 377.59C154.221 377.234 154.021 376.785 154.021 376.242C154.021 375.582 154.271 375.07 154.771 374.707C155.275 374.34 155.982 374.156 156.893 374.156H157.947V373.658C157.947 373.279 157.834 372.979 157.607 372.756C157.381 372.529 157.047 372.416 156.605 372.416C156.219 372.416 155.895 372.514 155.633 372.709C155.371 372.904 155.24 373.141 155.24 373.418H154.15C154.15 373.102 154.262 372.797 154.484 372.504C154.711 372.207 155.016 371.973 155.398 371.801C155.785 371.629 156.209 371.543 156.67 371.543C157.4 371.543 157.973 371.727 158.387 372.094C158.801 372.457 159.016 372.959 159.031 373.6V376.518C159.031 377.1 159.105 377.562 159.254 377.906V378H158.117ZM156.318 377.174C156.658 377.174 156.98 377.086 157.285 376.91C157.59 376.734 157.811 376.506 157.947 376.225V374.924H157.098C155.77 374.924 155.105 375.312 155.105 376.09C155.105 376.43 155.219 376.695 155.445 376.887C155.672 377.078 155.963 377.174 156.318 377.174ZM163.795 372.633C163.631 372.605 163.453 372.592 163.262 372.592C162.551 372.592 162.068 372.895 161.814 373.5V378H160.73V371.66H161.785L161.803 372.393C162.158 371.826 162.662 371.543 163.314 371.543C163.525 371.543 163.686 371.57 163.795 371.625V372.633ZM166.566 375.064L165.887 375.773V378H164.803V369H165.887V374.443L166.467 373.746L168.441 371.66H169.76L167.293 374.309L170.047 378H168.775L166.566 375.064Z" fill="black"/>
<rect x="199.5" y="356.5" width="84" height="37" fill="#EB5757" stroke="black"/>
<path d="M241.271 378H240.182V370.775L237.996 371.578V370.594L241.102 369.428H241.271V378Z" fill="black"/>
<rect x="284.5" y="356.5" width="84" height="37" fill="#EB5757" stroke="black"/>
<path d="M318.299 378H312.709V377.221L315.662 373.939C316.1 373.443 316.4 373.041 316.564 372.732C316.732 372.42 316.816 372.098 316.816 371.766C316.816 371.32 316.682 370.955 316.412 370.67C316.143 370.385 315.783 370.242 315.334 370.242C314.795 370.242 314.375 370.396 314.074 370.705C313.777 371.01 313.629 371.436 313.629 371.982H312.545C312.545 371.197 312.797 370.562 313.301 370.078C313.809 369.594 314.486 369.352 315.334 369.352C316.127 369.352 316.754 369.561 317.215 369.979C317.676 370.393 317.906 370.945 317.906 371.637C317.906 372.477 317.371 373.477 316.301 374.637L314.016 377.115H318.299V378ZM324.797 374.361C324.797 375.631 324.58 376.574 324.146 377.191C323.713 377.809 323.035 378.117 322.113 378.117C321.203 378.117 320.529 377.816 320.092 377.215C319.654 376.609 319.428 375.707 319.412 374.508V373.061C319.412 371.807 319.629 370.875 320.062 370.266C320.496 369.656 321.176 369.352 322.102 369.352C323.02 369.352 323.695 369.646 324.129 370.236C324.562 370.822 324.785 371.729 324.797 372.955V374.361ZM323.713 372.879C323.713 371.961 323.584 371.293 323.326 370.875C323.068 370.453 322.66 370.242 322.102 370.242C321.547 370.242 321.143 370.451 320.889 370.869C320.635 371.287 320.504 371.93 320.496 372.797V374.531C320.496 375.453 320.629 376.135 320.895 376.576C321.164 377.014 321.57 377.232 322.113 377.232C322.648 377.232 323.045 377.025 323.303 376.611C323.564 376.197 323.701 375.545 323.713 374.654V372.879ZM329.748 378H328.658V370.775L326.473 371.578V370.594L329.578 369.428H329.748V378ZM337.178 369.463V370.383H336.979C336.135 370.398 335.463 370.648 334.963 371.133C334.463 371.617 334.174 372.299 334.096 373.178C334.545 372.662 335.158 372.404 335.936 372.404C336.678 372.404 337.27 372.666 337.711 373.189C338.156 373.713 338.379 374.389 338.379 375.217C338.379 376.096 338.139 376.799 337.658 377.326C337.182 377.854 336.541 378.117 335.736 378.117C334.92 378.117 334.258 377.805 333.75 377.18C333.242 376.551 332.988 375.742 332.988 374.754V374.338C332.988 372.768 333.322 371.568 333.99 370.74C334.662 369.908 335.66 369.482 336.984 369.463H337.178ZM335.754 373.307C335.383 373.307 335.041 373.418 334.729 373.641C334.416 373.863 334.199 374.143 334.078 374.479V374.877C334.078 375.58 334.236 376.146 334.553 376.576C334.869 377.006 335.264 377.221 335.736 377.221C336.225 377.221 336.607 377.041 336.885 376.682C337.166 376.322 337.307 375.852 337.307 375.27C337.307 374.684 337.164 374.211 336.879 373.852C336.598 373.488 336.223 373.307 335.754 373.307Z" fill="black"/>
<path d="M84.9849 120.5C85.2609 120.508 85.4914 120.291 85.4998 120.015L85.6361 115.517C85.6444 115.241 85.4275 115.011 85.1514 115.002C84.8754 114.994 84.6449 115.211 84.6365 115.487L84.5154 119.485L80.5172 119.364C80.2412 119.356 80.0107 119.573 80.0023 119.849C79.9939 120.125 80.2109 120.355 80.4869 120.363L84.9849 120.5ZM68.6359 103.343L84.6359 120.343L85.3641 119.657L69.3641 102.657L68.6359 103.343Z" fill="black"/>
<path d="M84.9849 350.5C85.2609 350.508 85.4914 350.291 85.4998 350.015L85.6361 345.517C85.6444 345.241 85.4275 345.011 85.1514 345.002C84.8754 344.994 84.6449 345.211 84.6365 345.487L84.5154 349.485L80.5172 349.364C80.2412 349.356 80.0107 349.573 80.0023 349.849C79.9939 350.125 80.2109 350.355 80.4869 350.363L84.9849 350.5ZM68.6359 333.343L84.6359 350.343L85.3641 349.657L69.3641 332.657L68.6359 333.343Z" fill="black"/>
<path d="M84.9849 233.5C85.2609 233.508 85.4914 233.291 85.4998 233.015L85.6361 228.517C85.6444 228.241 85.4275 228.011 85.1514 228.002C84.8754 227.994 84.6449 228.211 84.6365 228.487L84.5154 232.485L80.5172 232.364C80.2412 232.356 80.0107 232.573 80.0023 232.849C79.9939 233.125 80.2109 233.355 80.4869 233.363L84.9849 233.5ZM68.6359 216.343L84.6359 233.343L85.3641 232.657L69.3641 215.657L68.6359 216.343Z" fill="black"/>
</svg>
