<svg width="1120" height="582" viewBox="0 0 1120 582" version="1.1" xmlns="http://www.w3.org/2000/svg" xmlns:xlink="http://www.w3.org/1999/xlink">
<title>Frame</title>
<desc>Created using Figma</desc>
<g id="Canvas" transform="matrix(2 0 0 2 100 1170)">
<clipPath id="clip-0" clip-rule="evenodd">
<path d="M -50 -585L 510 -585L 510 -294L -50 -294L -50 -585Z" fill="#FFFFFF"/>
</clipPath>
<g id="Frame" clip-path="url(#clip-0)">
<path d="M -50 -585L 510 -585L 510 -294L -50 -294L -50 -585Z" fill="#FFFFFF"/>
<g id="ndarray.max(axis=0)">
<use xlink:href="#path0_fill" transform="translate(198 -565)" fill="#2E383C"/>
<use xlink:href="#path1_fill" transform="translate(198 -565)" fill="#197D1C"/>
</g>
<g id="2D ndarray">
<use xlink:href="#path2_fill" transform="translate(6 -563)" fill="#333333"/>
</g>
<g id="Result">
<use xlink:href="#path3_fill" transform="translate(389 -352)" fill="#333333"/>
</g>
<g id="Rectangle">
<use xlink:href="#path4_stroke" transform="translate(205 -533)"/>
</g>
<g id="Rectangle">
<use xlink:href="#path4_stroke" transform="translate(205 -495.218)"/>
</g>
<g id="Rectangle">
<use xlink:href="#path4_stroke" transform="translate(205 -457.437)"/>
</g>
<g id="Rectangle">
<use xlink:href="#path4_stroke" transform="translate(205 -419.655)"/>
</g>
<g id="Rectangle">
<use xlink:href="#path4_stroke" transform="translate(242.25 -533)"/>
</g>
<g id="Rectangle">
<use xlink:href="#path4_stroke" transform="translate(242.25 -495.218)"/>
</g>
<g id="Rectangle">
<use xlink:href="#path4_stroke" transform="translate(242.25 -457.437)"/>
</g>
<g id="Rectangle">
<use xlink:href="#path4_stroke" transform="translate(242.25 -419.655)"/>
</g>
<g id="Rectangle">
<use xlink:href="#path4_stroke" transform="translate(280.5 -533)"/>
</g>
<g id="Rectangle">
<use xlink:href="#path4_stroke" transform="translate(280.5 -495.218)"/>
</g>
<g id="Rectangle">
<use xlink:href="#path4_stroke" transform="translate(280.5 -457.437)"/>
</g>
<g id="Rectangle">
<use xlink:href="#path4_stroke" transform="translate(280.5 -419.655)"/>
</g>
<g id="Rectangle">
<use xlink:href="#path4_stroke" transform="translate(318.75 -533)"/>
</g>
<g id="Rectangle">
<use xlink:href="#path4_stroke" transform="translate(318.75 -495.218)"/>
</g>
<g id="Rectangle">
<use xlink:href="#path4_stroke" transform="translate(318.75 -457.437)"/>
</g>
<g id="Rectangle">
<use xlink:href="#path4_stroke" transform="translate(318.75 -419.655)"/>
</g>
<g id="Rectangle">
<use xlink:href="#path5_fill" transform="matrix(6.12323e-17 1 -1 6.12323e-17 243 -533)" fill="#56CCF2" fill-opacity="0.6"/>
<mask id="mask0_outline_ins">
<use xlink:href="#path5_fill" fill="white" transform="matrix(6.12323e-17 1 -1 6.12323e-17 243 -533)"/>
</mask>
<g mask="url(#mask0_outline_ins)">
<use xlink:href="#path6_stroke_2x" transform="matrix(6.12323e-17 1 -1 6.12323e-17 243 -533)" fill="#56CCF2"/>
</g>
</g>
<g id="Rectangle">
<use xlink:href="#path5_fill" transform="matrix(6.12323e-17 -1 1 6.12323e-17 280 -381)" fill="#F2994A" fill-opacity="0.6"/>
<mask id="mask1_outline_ins">
<use xlink:href="#path5_fill" fill="white" transform="matrix(6.12323e-17 -1 1 6.12323e-17 280 -381)"/>
</mask>
<g mask="url(#mask1_outline_ins)">
<use xlink:href="#path6_stroke_2x" transform="matrix(6.12323e-17 -1 1 6.12323e-17 280 -381)" fill="#F2994A"/>
</g>
</g>
<g id="Rectangle">
<use xlink:href="#path7_fill" transform="matrix(6.12323e-17 -1 1 6.12323e-17 243 -381)" fill="#EB5757" fill-opacity="0.6"/>
<mask id="mask2_outline_ins">
<use xlink:href="#path7_fill" fill="white" transform="matrix(6.12323e-17 -1 1 6.12323e-17 243 -381)"/>
</mask>
<g mask="url(#mask2_outline_ins)">
<use xlink:href="#path8_stroke_2x" transform="matrix(6.12323e-17 -1 1 6.12323e-17 243 -381)" fill="#EB5757"/>
</g>
</g>
<g id="Rectangle">
<use xlink:href="#path9_fill" transform="matrix(6.12323e-17 -1 -1 -6.12323e-17 357 -381)" fill="#9B51E0" fill-opacity="0.6"/>
<mask id="mask3_outline_ins">
<use xlink:href="#path9_fill" fill="white" transform="matrix(6.12323e-17 -1 -1 -6.12323e-17 357 -381)"/>
</mask>
<g mask="url(#mask3_outline_ins)">
<use xlink:href="#path10_stroke_2x" transform="matrix(6.12323e-17 -1 -1 -6.12323e-17 357 -381)" fill="#9B51E0"/>
</g>
</g>
<g id="1">
<use xlink:href="#path11_fill" transform="translate(325.705 -525.204)" fill="#333333"/>
</g>
<g id="1">
<use xlink:href="#path11_fill" transform="translate(287.455 -525.204)" fill="#333333"/>
</g>
<g id="0">
<use xlink:href="#path12_fill" transform="translate(249.205 -525.204)" fill="#333333"/>
</g>
<g id="1">
<use xlink:href="#path13_fill" transform="translate(215.432 -525.204)" fill="#333333"/>
</g>
<g id="3">
<use xlink:href="#path14_fill" transform="translate(325.705 -486.767)" fill="#333333"/>
</g>
<g id="4">
<use xlink:href="#path15_fill" transform="translate(287.455 -486.767)" fill="#333333"/>
</g>
<g id="1">
<use xlink:href="#path11_fill" transform="translate(249.205 -486.767)" fill="#333333"/>
</g>
<g id="0">
<use xlink:href="#path16_fill" transform="translate(215.432 -486.767)" fill="#333333"/>
</g>
<g id="2">
<use xlink:href="#path17_fill" transform="translate(325.705 -450.078)" fill="#333333"/>
</g>
<g id="0">
<use xlink:href="#path12_fill" transform="translate(287.455 -450.078)" fill="#333333"/>
</g>
<g id="1">
<use xlink:href="#path11_fill" transform="translate(249.205 -450.078)" fill="#333333"/>
</g>
<g id="0">
<use xlink:href="#path16_fill" transform="translate(215.432 -450.078)" fill="#333333"/>
</g>
<g id="3">
<use xlink:href="#path14_fill" transform="translate(325.705 -411.641)" fill="#333333"/>
</g>
<g id="1">
<use xlink:href="#path11_fill" transform="translate(287.455 -411.641)" fill="#333333"/>
</g>
<g id="0">
<use xlink:href="#path12_fill" transform="translate(249.205 -411.641)" fill="#333333"/>
</g>
<g id="3">
<use xlink:href="#path18_fill" transform="translate(215.432 -411.641)" fill="#333333"/>
</g>
<g id="Rectangle">
<use xlink:href="#path4_stroke" transform="translate(6 -533)"/>
</g>
<g id="Rectangle">
<use xlink:href="#path4_stroke" transform="translate(6 -495.218)"/>
</g>
<g id="Rectangle">
<use xlink:href="#path4_stroke" transform="translate(6 -457.437)"/>
</g>
<g id="Rectangle">
<use xlink:href="#path4_stroke" transform="translate(6 -419.655)"/>
</g>
<g id="Rectangle">
<use xlink:href="#path4_stroke" transform="translate(44.25 -533)"/>
</g>
<g id="Rectangle">
<use xlink:href="#path4_stroke" transform="translate(44.25 -495.218)"/>
</g>
<g id="Rectangle">
<use xlink:href="#path4_stroke" transform="translate(44.25 -457.437)"/>
</g>
<g id="Rectangle">
<use xlink:href="#path4_stroke" transform="translate(44.25 -419.655)"/>
</g>
<g id="Rectangle">
<use xlink:href="#path4_stroke" transform="translate(82.5 -533)"/>
</g>
<g id="Rectangle">
<use xlink:href="#path4_stroke" transform="translate(82.5 -495.218)"/>
</g>
<g id="Rectangle">
<use xlink:href="#path4_stroke" transform="translate(82.5 -457.437)"/>
</g>
<g id="Rectangle">
<use xlink:href="#path4_stroke" transform="translate(82.5 -419.655)"/>
</g>
<g id="Rectangle">
<use xlink:href="#path4_stroke" transform="translate(120.75 -533)"/>
</g>
<g id="Rectangle">
<use xlink:href="#path4_stroke" transform="translate(120.75 -495.218)"/>
</g>
<g id="Rectangle">
<use xlink:href="#path4_stroke" transform="translate(120.75 -457.437)"/>
</g>
<g id="Rectangle">
<use xlink:href="#path4_stroke" transform="translate(120.75 -419.655)"/>
</g>
<g id="1">
<use xlink:href="#path11_fill" transform="translate(127.705 -525.204)" fill="#333333"/>
</g>
<g id="1">
<use xlink:href="#path11_fill" transform="translate(89.4545 -525.204)" fill="#333333"/>
</g>
<g id="0">
<use xlink:href="#path12_fill" transform="translate(51.2045 -525.204)" fill="#333333"/>
</g>
<g id="1">
<use xlink:href="#path13_fill" transform="translate(16.4318 -525.204)" fill="#333333"/>
</g>
<g id="3">
<use xlink:href="#path14_fill" transform="translate(127.705 -486.767)" fill="#333333"/>
</g>
<g id="4">
<use xlink:href="#path15_fill" transform="translate(89.4545 -486.767)" fill="#333333"/>
</g>
<g id="1">
<use xlink:href="#path11_fill" transform="translate(51.2045 -486.767)" fill="#333333"/>
</g>
<g id="0">
<use xlink:href="#path16_fill" transform="translate(16.4318 -486.767)" fill="#333333"/>
</g>
<g id="2">
<use xlink:href="#path17_fill" transform="translate(127.705 -450.078)" fill="#333333"/>
</g>
<g id="0">
<use xlink:href="#path12_fill" transform="translate(89.4545 -450.078)" fill="#333333"/>
</g>
<g id="1">
<use xlink:href="#path11_fill" transform="translate(51.2045 -450.078)" fill="#333333"/>
</g>
<g id="0">
<use xlink:href="#path16_fill" transform="translate(16.4318 -450.078)" fill="#333333"/>
</g>
<g id="3">
<use xlink:href="#path14_fill" transform="translate(127.705 -411.641)" fill="#333333"/>
</g>
<g id="1">
<use xlink:href="#path11_fill" transform="translate(89.4545 -411.641)" fill="#333333"/>
</g>
<g id="0">
<use xlink:href="#path12_fill" transform="translate(51.2045 -411.641)" fill="#333333"/>
</g>
<g id="3">
<use xlink:href="#path18_fill" transform="translate(16.4318 -411.641)" fill="#333333"/>
</g>
<g id="Rectangle">
<use xlink:href="#path4_stroke" transform="translate(205 -363.655)"/>
</g>
<g id="Rectangle">
<use xlink:href="#path4_stroke" transform="translate(242.25 -363.655)"/>
</g>
<g id="Rectangle">
<use xlink:href="#path4_stroke" transform="translate(280.5 -363.655)"/>
</g>
<g id="Rectangle">
<use xlink:href="#path4_stroke" transform="translate(318.75 -363.655)"/>
</g>
<g id="Rectangle">
<use xlink:href="#path19_fill" transform="matrix(2.29995e-16 1 -1 1.63021e-17 243 -364)" fill="#56CCF2" fill-opacity="0.6"/>
<mask id="mask4_outline_ins">
<use xlink:href="#path19_fill" fill="white" transform="matrix(2.29995e-16 1 -1 1.63021e-17 243 -364)"/>
</mask>
<g mask="url(#mask4_outline_ins)">
<use xlink:href="#path20_stroke_2x" transform="matrix(2.29995e-16 1 -1 1.63021e-17 243 -364)" fill="#56CCF2"/>
</g>
</g>
<g id="Rectangle">
<use xlink:href="#path19_fill" transform="matrix(6.12323e-17 -1 1 6.12323e-17 281 -325)" fill="#F2994A" fill-opacity="0.6"/>
<mask id="mask5_outline_ins">
<use xlink:href="#path19_fill" fill="white" transform="matrix(6.12323e-17 -1 1 6.12323e-17 281 -325)"/>
</mask>
<g mask="url(#mask5_outline_ins)">
<use xlink:href="#path20_stroke_2x" transform="matrix(6.12323e-17 -1 1 6.12323e-17 281 -325)" fill="#F2994A"/>
</g>
</g>
<g id="Rectangle">
<use xlink:href="#path19_fill" transform="matrix(2.29995e-16 -1 1 1.63021e-17 243 -325)" fill="#EB5757" fill-opacity="0.6"/>
<mask id="mask6_outline_ins">
<use xlink:href="#path19_fill" fill="white" transform="matrix(2.29995e-16 -1 1 1.63021e-17 243 -325)"/>
</mask>
<g mask="url(#mask6_outline_ins)">
<use xlink:href="#path20_stroke_2x" transform="matrix(2.29995e-16 -1 1 1.63021e-17 243 -325)" fill="#EB5757"/>
</g>
</g>
<g id="Rectangle">
<use xlink:href="#path19_fill" transform="matrix(2.29995e-16 -1 -1 -1.63021e-17 357 -325)" fill="#9B51E0" fill-opacity="0.6"/>
<mask id="mask7_outline_ins">
<use xlink:href="#path19_fill" fill="white" transform="matrix(2.29995e-16 -1 -1 -1.63021e-17 357 -325)"/>
</mask>
<g mask="url(#mask7_outline_ins)">
<use xlink:href="#path20_stroke_2x" transform="matrix(2.29995e-16 -1 -1 -1.63021e-17 357 -325)" fill="#9B51E0"/>
</g>
</g>
<g id="3">
<use xlink:href="#path14_fill" transform="translate(325.705 -355.641)" fill="#333333"/>
</g>
<g id="4">
<use xlink:href="#path15_fill" transform="translate(287.455 -355.641)" fill="#333333"/>
</g>
<g id="1">
<use xlink:href="#path11_fill" transform="translate(249.205 -355.641)" fill="#333333"/>
</g>
<g id="3">
<use xlink:href="#path18_fill" transform="translate(215.432 -355.641)" fill="#333333"/>
</g>
</g>
</g>
<defs>
<path id="path0_fill" d="M 2.89995 7.126L 4.22995 7.126L 4.35595 8.162L 4.41195 8.162C 4.73862 7.83533 5.09795 7.55533 5.48995 7.322C 5.89129 7.07933 6.35795 6.958 6.88995 6.958C 7.68329 6.958 8.26662 7.20067 8.63995 7.686C 9.01329 8.162 9.19995 8.848 9.19995 9.744L 9.19995 14L 7.57595 14L 7.57595 9.954C 7.57595 9.394 7.47795 8.988 7.28195 8.736C 7.09529 8.47467 6.76395 8.344 6.28795 8.344C 5.95195 8.344 5.65329 8.42333 5.39195 8.582C 5.13062 8.74067 4.84129 8.98333 4.52395 9.31L 4.52395 14L 2.89995 14L 2.89995 7.126ZM 10.8885 10.57C 10.8885 10.01 10.9725 9.506 11.1405 9.058C 11.3085 8.61 11.5325 8.232 11.8125 7.924C 12.1018 7.616 12.4285 7.378 12.7925 7.21C 13.1565 7.042 13.5345 6.958 13.9265 6.958C 14.3372 6.958 14.6872 7.03267 14.9765 7.182C 15.2752 7.322 15.5645 7.518 15.8445 7.77L 15.7745 6.608L 15.7745 4.116L 17.3985 4.116L 17.3985 14L 16.0685 14L 15.9425 13.202L 15.9005 13.202C 15.6298 13.4727 15.3125 13.7013 14.9485 13.888C 14.5938 14.0747 14.2205 14.168 13.8285 14.168C 13.3898 14.168 12.9885 14.0887 12.6245 13.93C 12.2605 13.762 11.9478 13.524 11.6865 13.216C 11.4345 12.908 11.2385 12.5347 11.0985 12.096C 10.9585 11.648 10.8885 11.1393 10.8885 10.57ZM 12.5545 10.556C 12.5545 11.3027 12.6992 11.872 12.9885 12.264C 13.2778 12.6467 13.6885 12.838 14.2205 12.838C 14.7898 12.838 15.3078 12.5627 15.7745 12.012L 15.7745 8.918C 15.5318 8.68467 15.2892 8.52133 15.0465 8.428C 14.8038 8.33467 14.5565 8.288 14.3045 8.288C 14.0618 8.288 13.8332 8.33933 13.6185 8.442C 13.4132 8.54467 13.2312 8.694 13.0725 8.89C 12.9138 9.07667 12.7878 9.31 12.6945 9.59C 12.6012 9.87 12.5545 10.192 12.5545 10.556ZM 19.535 12.152C 19.535 11.7693 19.6237 11.4333 19.801 11.144C 19.9783 10.8453 20.2583 10.5933 20.641 10.388C 21.0237 10.1827 21.5137 10.0147 22.111 9.884C 22.7083 9.75333 23.4317 9.66 24.281 9.604C 24.253 9.212 24.113 8.89 23.861 8.638C 23.609 8.386 23.203 8.26 22.643 8.26C 22.251 8.26 21.8637 8.33467 21.481 8.484C 21.1077 8.624 20.7437 8.792 20.389 8.988L 19.801 7.91C 20.221 7.66733 20.7017 7.448 21.243 7.252C 21.7843 7.056 22.349 6.958 22.937 6.958C 23.8983 6.958 24.631 7.21467 25.135 7.728C 25.639 8.232 25.891 8.96467 25.891 9.926L 25.891 14L 24.575 14L 24.449 13.146L 24.407 13.146C 24.043 13.426 23.637 13.6687 23.189 13.874C 22.7503 14.07 22.2977 14.168 21.831 14.168C 21.495 14.168 21.187 14.1167 20.907 14.014C 20.627 13.9207 20.3843 13.7853 20.179 13.608C 19.9737 13.4307 19.815 13.2207 19.703 12.978C 19.591 12.726 19.535 12.4507 19.535 12.152ZM 21.089 12.026C 21.089 12.334 21.2057 12.558 21.439 12.698C 21.6817 12.838 21.9757 12.908 22.321 12.908C 22.6663 12.908 22.9977 12.8333 23.315 12.684C 23.6417 12.5253 23.9637 12.32 24.281 12.068L 24.281 10.612C 23.665 10.6587 23.1517 10.724 22.741 10.808C 22.3303 10.8827 22.0037 10.9807 21.761 11.102C 21.5183 11.2233 21.3457 11.3633 21.243 11.522C 21.1403 11.6713 21.089 11.8393 21.089 12.026ZM 28.7555 7.126L 30.0855 7.126L 30.2255 8.68L 30.2675 8.68C 30.6222 8.12 31.0469 7.69533 31.5415 7.406C 32.0455 7.10733 32.5962 6.958 33.1935 6.958C 33.4735 6.958 33.7115 6.98133 33.9075 7.028C 34.1129 7.06533 34.3182 7.13533 34.5235 7.238L 34.1875 8.596C 33.9635 8.52133 33.7629 8.47 33.5855 8.442C 33.4175 8.40467 33.2029 8.386 32.9415 8.386C 32.4655 8.386 32.0082 8.52133 31.5695 8.792C 31.1309 9.06267 30.7342 9.534 30.3795 10.206L 30.3795 14L 28.7555 14L 28.7555 7.126ZM 37.1501 7.126L 38.4801 7.126L 38.6201 8.68L 38.6621 8.68C 39.0167 8.12 39.4414 7.69533 39.9361 7.406C 40.4401 7.10733 40.9907 6.958 41.5881 6.958C 41.8681 6.958 42.1061 6.98133 42.3021 7.028C 42.5074 7.06533 42.7127 7.13533 42.9181 7.238L 42.5821 8.596C 42.3581 8.52133 42.1574 8.47 41.9801 8.442C 41.8121 8.40467 41.5974 8.386 41.3361 8.386C 40.8601 8.386 40.4027 8.52133 39.9641 8.792C 39.5254 9.06267 39.1287 9.534 38.7741 10.206L 38.7741 14L 37.1501 14L 37.1501 7.126ZM 44.7186 12.152C 44.7186 11.7693 44.8073 11.4333 44.9846 11.144C 45.1619 10.8453 45.4419 10.5933 45.8246 10.388C 46.2073 10.1827 46.6973 10.0147 47.2946 9.884C 47.8919 9.75333 48.6153 9.66 49.4646 9.604C 49.4366 9.212 49.2966 8.89 49.0446 8.638C 48.7926 8.386 48.3866 8.26 47.8266 8.26C 47.4346 8.26 47.0473 8.33467 46.6646 8.484C 46.2913 8.624 45.9273 8.792 45.5726 8.988L 44.9846 7.91C 45.4046 7.66733 45.8853 7.448 46.4266 7.252C 46.9679 7.056 47.5326 6.958 48.1206 6.958C 49.0819 6.958 49.8146 7.21467 50.3186 7.728C 50.8226 8.232 51.0746 8.96467 51.0746 9.926L 51.0746 14L 49.7586 14L 49.6326 13.146L 49.5906 13.146C 49.2266 13.426 48.8206 13.6687 48.3726 13.874C 47.9339 14.07 47.4813 14.168 47.0146 14.168C 46.6786 14.168 46.3706 14.1167 46.0906 14.014C 45.8106 13.9207 45.5679 13.7853 45.3626 13.608C 45.1573 13.4307 44.9986 13.2207 44.8866 12.978C 44.7746 12.726 44.7186 12.4507 44.7186 12.152ZM 46.2726 12.026C 46.2726 12.334 46.3893 12.558 46.6226 12.698C 46.8653 12.838 47.1593 12.908 47.5046 12.908C 47.8499 12.908 48.1813 12.8333 48.4986 12.684C 48.8253 12.5253 49.1473 12.32 49.4646 12.068L 49.4646 10.612C 48.8486 10.6587 48.3353 10.724 47.9246 10.808C 47.5139 10.8827 47.1873 10.9807 46.9446 11.102C 46.7019 11.2233 46.5293 11.3633 46.4266 11.522C 46.3239 11.6713 46.2726 11.8393 46.2726 12.026ZM 53.3651 15.428C 53.4585 15.456 53.5518 15.4793 53.6451 15.498C 53.7385 15.5167 53.8365 15.526 53.9391 15.526C 54.3778 15.526 54.7278 15.414 54.9891 15.19C 55.2505 14.9753 55.4511 14.6953 55.5911 14.35L 55.7591 13.916L 52.6791 7.126L 54.2891 7.126L 55.7031 10.5C 55.8338 10.808 55.9598 11.1347 56.0811 11.48C 56.2025 11.8253 56.3285 12.1707 56.4591 12.516L 56.5151 12.516C 56.6178 12.1893 56.7298 11.8533 56.8511 11.508C 56.9725 11.1627 57.0891 10.8267 57.2011 10.5L 58.4471 7.126L 59.9731 7.126L 57.1031 14.308C 56.9538 14.7 56.7858 15.05 56.5991 15.358C 56.4218 15.666 56.2118 15.9273 55.9691 16.142C 55.7265 16.366 55.4465 16.534 55.1291 16.646C 54.8118 16.7673 54.4478 16.828 54.0371 16.828C 53.8505 16.828 53.6731 16.814 53.5051 16.786C 53.3371 16.7673 53.1878 16.7347 53.0571 16.688L 53.3651 15.428ZM 63.3277 12.754C 63.3277 12.3433 63.4583 12.0073 63.7197 11.746C 63.981 11.4753 64.3123 11.34 64.7137 11.34C 65.115 11.34 65.4463 11.4753 65.7077 11.746C 65.969 12.0073 66.0997 12.3433 66.0997 12.754C 66.0997 13.1647 65.969 13.5053 65.7077 13.776C 65.4463 14.0373 65.115 14.168 64.7137 14.168C 64.3123 14.168 63.981 14.0373 63.7197 13.776C 63.4583 13.5053 63.3277 13.1647 63.3277 12.754ZM 69.5802 7.126L 70.7982 7.126L 70.9242 8.008L 70.9662 8.008C 71.1249 7.70933 71.3162 7.462 71.5402 7.266C 71.7735 7.06067 72.0862 6.958 72.4782 6.958C 73.1502 6.958 73.5702 7.34067 73.7382 8.106C 73.8969 7.77933 74.0975 7.50867 74.3402 7.294C 74.5922 7.07 74.9095 6.958 75.2922 6.958C 75.7775 6.958 76.1509 7.14933 76.4122 7.532C 76.6829 7.90533 76.8182 8.43733 76.8182 9.128L 76.8182 14L 75.2922 14L 75.2922 9.254C 75.2922 8.64733 75.1009 8.344 74.7182 8.344C 74.5315 8.344 74.3682 8.414 74.2282 8.554C 74.0882 8.694 73.9529 8.90867 73.8222 9.198L 73.8222 14L 72.5622 14L 72.5622 9.254C 72.5622 8.64733 72.3662 8.344 71.9742 8.344C 71.7875 8.344 71.6289 8.414 71.4982 8.554C 71.3675 8.694 71.2369 8.90867 71.1062 9.198L 71.1062 14L 69.5802 14L 69.5802 7.126ZM 78.2967 12.152C 78.2967 11.7693 78.3854 11.4333 78.5627 11.144C 78.7401 10.8453 79.0201 10.5933 79.4027 10.388C 79.7854 10.1827 80.2754 10.0147 80.8727 9.884C 81.4701 9.75333 82.1934 9.66 83.0427 9.604C 83.0147 9.212 82.8747 8.89 82.6227 8.638C 82.3707 8.386 81.9647 8.26 81.4047 8.26C 81.0127 8.26 80.6254 8.33467 80.2427 8.484C 79.8694 8.624 79.5054 8.792 79.1507 8.988L 78.5627 7.91C 78.9827 7.66733 79.4634 7.448 80.0047 7.252C 80.5461 7.056 81.1107 6.958 81.6987 6.958C 82.6601 6.958 83.3927 7.21467 83.8967 7.728C 84.4007 8.232 84.6527 8.96467 84.6527 9.926L 84.6527 14L 83.3367 14L 83.2107 13.146L 83.1687 13.146C 82.8047 13.426 82.3987 13.6687 81.9507 13.874C 81.5121 14.07 81.0594 14.168 80.5927 14.168C 80.2567 14.168 79.9487 14.1167 79.6687 14.014C 79.3887 13.9207 79.1461 13.7853 78.9407 13.608C 78.7354 13.4307 78.5767 13.2207 78.4647 12.978C 78.3527 12.726 78.2967 12.4507 78.2967 12.152ZM 79.8507 12.026C 79.8507 12.334 79.9674 12.558 80.2007 12.698C 80.4434 12.838 80.7374 12.908 81.0827 12.908C 81.4281 12.908 81.7594 12.8333 82.0767 12.684C 82.4034 12.5253 82.7254 12.32 83.0427 12.068L 83.0427 10.612C 82.4267 10.6587 81.9134 10.724 81.5027 10.808C 81.0921 10.8827 80.7654 10.9807 80.5227 11.102C 80.2801 11.2233 80.1074 11.3633 80.0047 11.522C 79.9021 11.6713 79.8507 11.8393 79.8507 12.026ZM 88.9033 10.43L 86.5793 7.126L 88.3293 7.126L 89.2253 8.428C 89.3373 8.61467 89.4586 8.81067 89.5893 9.016C 89.7199 9.212 89.8506 9.408 89.9813 9.604L 90.0373 9.604C 90.1399 9.408 90.2519 9.20733 90.3733 9.002C 90.4946 8.79667 90.6066 8.60067 90.7093 8.414L 91.5213 7.126L 93.2153 7.126L 90.8773 10.598L 93.3833 14L 91.6333 14L 90.6393 12.642C 90.5086 12.4553 90.3686 12.2547 90.2193 12.04C 90.0793 11.8253 89.9393 11.62 89.7993 11.424L 89.7433 11.424C 89.6126 11.6293 89.4866 11.8347 89.3653 12.04C 89.2533 12.236 89.1319 12.4413 89.0013 12.656L 88.1053 14L 86.4113 14L 88.9033 10.43ZM 99.8598 16.478C 98.9171 15.694 98.1705 14.77 97.6198 13.706C 97.0785 12.642 96.8078 11.4427 96.8078 10.108C 96.8078 8.77333 97.0785 7.574 97.6198 6.51C 98.1705 5.446 98.9171 4.522 99.8598 3.738L 100.756 4.48C 99.8691 5.28267 99.2205 6.13667 98.8098 7.042C 98.3991 7.94733 98.1938 8.96933 98.1938 10.108C 98.1938 11.2467 98.3991 12.2687 98.8098 13.174C 99.2205 14.0793 99.8691 14.9333 100.756 15.736L 99.8598 16.478ZM 103.48 12.152C 103.48 11.7693 103.569 11.4333 103.746 11.144C 103.924 10.8453 104.204 10.5933 104.586 10.388C 104.969 10.1827 105.459 10.0147 106.056 9.884C 106.654 9.75333 107.377 9.66 108.226 9.604C 108.198 9.212 108.058 8.89 107.806 8.638C 107.554 8.386 107.148 8.26 106.588 8.26C 106.196 8.26 105.809 8.33467 105.426 8.484C 105.053 8.624 104.689 8.792 104.334 8.988L 103.746 7.91C 104.166 7.66733 104.647 7.448 105.188 7.252C 105.73 7.056 106.294 6.958 106.882 6.958C 107.844 6.958 108.576 7.21467 109.08 7.728C 109.584 8.232 109.836 8.96467 109.836 9.926L 109.836 14L 108.52 14L 108.394 13.146L 108.352 13.146C 107.988 13.426 107.582 13.6687 107.134 13.874C 106.696 14.07 106.243 14.168 105.776 14.168C 105.44 14.168 105.132 14.1167 104.852 14.014C 104.572 13.9207 104.33 13.7853 104.124 13.608C 103.919 13.4307 103.76 13.2207 103.648 12.978C 103.536 12.726 103.48 12.4507 103.48 12.152ZM 105.034 12.026C 105.034 12.334 105.151 12.558 105.384 12.698C 105.627 12.838 105.921 12.908 106.266 12.908C 106.612 12.908 106.943 12.8333 107.26 12.684C 107.587 12.5253 107.909 12.32 108.226 12.068L 108.226 10.612C 107.61 10.6587 107.097 10.724 106.686 10.808C 106.276 10.8827 105.949 10.9807 105.706 11.102C 105.464 11.2233 105.291 11.3633 105.188 11.522C 105.086 11.6713 105.034 11.8393 105.034 12.026ZM 114.087 10.43L 111.763 7.126L 113.513 7.126L 114.409 8.428C 114.521 8.61467 114.642 8.81067 114.773 9.016C 114.904 9.212 115.034 9.408 115.165 9.604L 115.221 9.604C 115.324 9.408 115.436 9.20733 115.557 9.002C 115.678 8.79667 115.79 8.60067 115.893 8.414L 116.705 7.126L 118.399 7.126L 116.061 10.598L 118.567 14L 116.817 14L 115.823 12.642C 115.692 12.4553 115.552 12.2547 115.403 12.04C 115.263 11.8253 115.123 11.62 114.983 11.424L 114.927 11.424C 114.796 11.6293 114.67 11.8347 114.549 12.04C 114.437 12.236 114.316 12.4413 114.185 12.656L 113.289 14L 111.595 14L 114.087 10.43ZM 120.451 7.126L 125.043 7.126L 125.043 14L 123.433 14L 123.433 8.4L 120.451 8.4L 120.451 7.126ZM 124.119 5.922C 123.793 5.922 123.517 5.824 123.293 5.628C 123.079 5.432 122.971 5.17067 122.971 4.844C 122.971 4.51733 123.079 4.256 123.293 4.06C 123.517 3.85467 123.793 3.752 124.119 3.752C 124.455 3.752 124.731 3.85467 124.945 4.06C 125.16 4.256 125.267 4.51733 125.267 4.844C 125.267 5.17067 125.16 5.432 124.945 5.628C 124.731 5.824 124.455 5.922 124.119 5.922ZM 129.294 12.082C 129.686 12.3527 130.092 12.5673 130.512 12.726C 130.941 12.8753 131.422 12.95 131.954 12.95C 132.495 12.95 132.892 12.8753 133.144 12.726C 133.396 12.5673 133.522 12.3667 133.522 12.124C 133.522 11.8813 133.359 11.6807 133.032 11.522C 132.705 11.354 132.192 11.1767 131.492 10.99C 131.165 10.906 130.848 10.8033 130.54 10.682C 130.232 10.5607 129.961 10.4207 129.728 10.262C 129.495 10.1033 129.308 9.92133 129.168 9.716C 129.028 9.51067 128.958 9.27733 128.958 9.016C 128.958 8.40933 129.219 7.91467 129.742 7.532C 130.265 7.14933 131.016 6.958 131.996 6.958C 132.556 6.958 133.083 7.05133 133.578 7.238C 134.073 7.42467 134.497 7.63467 134.852 7.868L 134.11 8.862C 133.802 8.65667 133.471 8.49333 133.116 8.372C 132.771 8.24133 132.402 8.176 132.01 8.176C 131.478 8.176 131.105 8.25067 130.89 8.4C 130.675 8.54 130.568 8.71733 130.568 8.932C 130.568 9.05333 130.615 9.16533 130.708 9.268C 130.811 9.36133 130.946 9.45 131.114 9.534C 131.291 9.60867 131.497 9.68333 131.73 9.758C 131.963 9.83267 132.22 9.90267 132.5 9.968C 132.901 10.0707 133.261 10.1873 133.578 10.318C 133.905 10.4393 134.18 10.5793 134.404 10.738C 134.637 10.8967 134.815 11.0833 134.936 11.298C 135.067 11.5127 135.132 11.76 135.132 12.04C 135.132 12.3387 135.062 12.6187 134.922 12.88C 134.782 13.132 134.577 13.356 134.306 13.552C 134.035 13.7387 133.699 13.888 133.298 14C 132.897 14.112 132.435 14.168 131.912 14.168C 131.268 14.168 130.652 14.0653 130.064 13.86C 129.476 13.6547 128.967 13.4027 128.538 13.104L 129.294 12.082ZM 137.156 7.224L 143.372 7.224L 143.372 8.4L 137.156 8.4L 137.156 7.224ZM 137.156 10.346L 143.372 10.346L 143.372 11.522L 137.156 11.522L 137.156 10.346Z"/>
<path id="path1_fill" d="M 148.659 14.168C 147.642 14.168 146.834 13.7667 146.237 12.964C 145.649 12.1613 145.355 11.0087 145.355 9.506C 145.355 7.994 145.649 6.85533 146.237 6.09C 146.834 5.31533 147.642 4.928 148.659 4.928C 149.676 4.928 150.479 5.31533 151.067 6.09C 151.664 6.85533 151.963 7.994 151.963 9.506C 151.963 11.0087 151.664 12.1613 151.067 12.964C 150.479 13.7667 149.676 14.168 148.659 14.168ZM 148.659 6.188C 148.388 6.188 148.141 6.24867 147.917 6.37C 147.693 6.482 147.497 6.66867 147.329 6.93C 147.17 7.19133 147.044 7.53667 146.951 7.966C 146.858 8.386 146.811 8.89933 146.811 9.506C 146.811 10.1127 146.858 10.6353 146.951 11.074C 147.044 11.5033 147.17 11.8533 147.329 12.124C 147.497 12.3947 147.693 12.5953 147.917 12.726C 148.141 12.8473 148.388 12.908 148.659 12.908C 148.92 12.908 149.163 12.8473 149.387 12.726C 149.62 12.5953 149.816 12.3947 149.975 12.124C 150.143 11.8533 150.274 11.5033 150.367 11.074C 150.46 10.6353 150.507 10.1127 150.507 9.506C 150.507 8.89933 150.46 8.386 150.367 7.966C 150.274 7.53667 150.143 7.19133 149.975 6.93C 149.816 6.66867 149.62 6.482 149.387 6.37C 149.163 6.24867 148.92 6.188 148.659 6.188ZM 148.659 10.444C 148.388 10.444 148.16 10.3553 147.973 10.178C 147.786 10.0007 147.693 9.758 147.693 9.45C 147.693 9.142 147.786 8.89933 147.973 8.722C 148.16 8.54467 148.388 8.456 148.659 8.456C 148.93 8.456 149.158 8.54467 149.345 8.722C 149.532 8.89933 149.625 9.142 149.625 9.45C 149.625 9.758 149.532 10.0007 149.345 10.178C 149.158 10.3553 148.93 10.444 148.659 10.444ZM 154.59 15.736C 155.476 14.9333 156.125 14.0793 156.536 13.174C 156.946 12.2687 157.152 11.2467 157.152 10.108C 157.152 8.96933 156.946 7.94733 156.536 7.042C 156.125 6.13667 155.476 5.28267 154.59 4.48L 155.486 3.738C 156.428 4.522 157.17 5.446 157.712 6.51C 158.262 7.574 158.538 8.77333 158.538 10.108C 158.538 11.4427 158.262 12.642 157.712 13.706C 157.17 14.77 156.428 15.694 155.486 16.478L 154.59 15.736Z"/>
<path id="path2_fill" d="M 52.1631 12L 46.1074 12L 46.1074 11.1558L 49.3066 7.60107C 49.7806 7.06364 50.1064 6.62777 50.2842 6.29346C 50.4661 5.95492 50.5571 5.60579 50.5571 5.24609C 50.5571 4.76367 50.4111 4.368 50.1191 4.05908C 49.8271 3.75016 49.4378 3.5957 48.9512 3.5957C 48.3672 3.5957 47.9123 3.76286 47.5864 4.09717C 47.2648 4.42725 47.104 4.88851 47.104 5.48096L 45.9297 5.48096C 45.9297 4.63037 46.2026 3.94271 46.7485 3.41797C 47.2987 2.89323 48.0329 2.63086 48.9512 2.63086C 49.8102 2.63086 50.4894 2.85726 50.9888 3.31006C 51.4881 3.75863 51.7378 4.35742 51.7378 5.10645C 51.7378 6.01628 51.158 7.09961 49.9985 8.35645L 47.5229 11.0415L 52.1631 11.0415L 52.1631 12ZM 53.7119 12L 53.7119 2.75781L 56.3208 2.75781C 57.1248 2.75781 57.8358 2.93555 58.4536 3.29102C 59.0715 3.64648 59.5475 4.15218 59.8818 4.80811C 60.2204 5.46403 60.3918 6.21729 60.396 7.06787L 60.396 7.6582C 60.396 8.52995 60.2267 9.29378 59.8882 9.94971C 59.5539 10.6056 59.0736 11.1092 58.4473 11.4604C 57.8252 11.8117 57.0994 11.9915 56.27 12L 53.7119 12ZM 54.9307 3.76074L 54.9307 11.0034L 56.2129 11.0034C 57.1523 11.0034 57.8823 10.7114 58.4028 10.1274C 58.9276 9.54346 59.1899 8.71191 59.1899 7.63281L 59.1899 7.09326C 59.1899 6.04378 58.9424 5.22917 58.4473 4.64941C 57.9564 4.06543 57.2581 3.76921 56.3525 3.76074L 54.9307 3.76074ZM 66.3945 5.13184L 66.4326 5.99512C 66.9574 5.33496 67.6429 5.00488 68.4893 5.00488C 69.9408 5.00488 70.6729 5.82373 70.6855 7.46143L 70.6855 12L 69.5112 12L 69.5112 7.45508C 69.507 6.95996 69.3927 6.59391 69.1685 6.35693C 68.9484 6.11995 68.6035 6.00146 68.1338 6.00146C 67.7529 6.00146 67.4186 6.10303 67.1309 6.30615C 66.8431 6.50928 66.6188 6.77588 66.458 7.10596L 66.458 12L 65.2837 12L 65.2837 5.13184L 66.3945 5.13184ZM 72.1709 8.50879C 72.1709 7.45508 72.4206 6.60872 72.9199 5.96973C 73.4193 5.3265 74.0731 5.00488 74.8813 5.00488C 75.6854 5.00488 76.3223 5.27995 76.792 5.83008L 76.792 2.25L 77.9663 2.25L 77.9663 12L 76.8872 12L 76.8301 11.2637C 76.3604 11.8392 75.7065 12.127 74.8687 12.127C 74.0731 12.127 73.4235 11.8011 72.9199 11.1494C 72.4206 10.4977 72.1709 9.64714 72.1709 8.59766L 72.1709 8.50879ZM 73.3452 8.64209C 73.3452 9.42074 73.506 10.0301 73.8276 10.4702C 74.1493 10.9103 74.5936 11.1304 75.1606 11.1304C 75.9054 11.1304 76.4492 10.7961 76.792 10.1274L 76.792 6.97266C 76.4408 6.3252 75.9012 6.00146 75.1733 6.00146C 74.5978 6.00146 74.1493 6.22363 73.8276 6.66797C 73.506 7.1123 73.3452 7.77035 73.3452 8.64209ZM 84.0347 12C 83.967 11.8646 83.9119 11.6234 83.8696 11.2764C 83.3237 11.8434 82.672 12.127 81.9146 12.127C 81.2375 12.127 80.681 11.9365 80.2451 11.5557C 79.8135 11.1706 79.5977 10.6839 79.5977 10.0957C 79.5977 9.38053 79.8685 8.82617 80.4102 8.43262C 80.9561 8.03483 81.722 7.83594 82.708 7.83594L 83.8506 7.83594L 83.8506 7.29639C 83.8506 6.8859 83.7279 6.56006 83.4824 6.31885C 83.237 6.0734 82.8752 5.95068 82.397 5.95068C 81.978 5.95068 81.6268 6.05648 81.3433 6.26807C 81.0597 6.47965 80.918 6.73568 80.918 7.03613L 79.7373 7.03613C 79.7373 6.69336 79.8579 6.36328 80.0991 6.0459C 80.3446 5.72428 80.6746 5.47038 81.0894 5.28418C 81.5083 5.09798 81.9674 5.00488 82.4668 5.00488C 83.2581 5.00488 83.8781 5.20378 84.3267 5.60156C 84.7752 5.99512 85.008 6.5389 85.0249 7.23291L 85.0249 10.394C 85.0249 11.0246 85.1053 11.526 85.2661 11.8984L 85.2661 12L 84.0347 12ZM 82.0859 11.105C 82.4541 11.105 82.8032 11.0098 83.1333 10.8193C 83.4634 10.6289 83.7025 10.3813 83.8506 10.0767L 83.8506 8.66748L 82.9302 8.66748C 81.4914 8.66748 80.772 9.08854 80.772 9.93066C 80.772 10.2988 80.8947 10.5866 81.1401 10.7939C 81.3856 11.0013 81.7008 11.105 82.0859 11.105ZM 90.1855 6.18555C 90.0078 6.15592 89.8153 6.14111 89.6079 6.14111C 88.8377 6.14111 88.3151 6.46908 88.04 7.125L 88.04 12L 86.8657 12L 86.8657 5.13184L 88.0083 5.13184L 88.0273 5.92529C 88.4124 5.31169 88.9583 5.00488 89.665 5.00488C 89.8936 5.00488 90.0671 5.0345 90.1855 5.09375L 90.1855 6.18555ZM 94.5908 6.18555C 94.4131 6.15592 94.2205 6.14111 94.0132 6.14111C 93.243 6.14111 92.7204 6.46908 92.4453 7.125L 92.4453 12L 91.271 12L 91.271 5.13184L 92.4136 5.13184L 92.4326 5.92529C 92.8177 5.31169 93.3636 5.00488 94.0703 5.00488C 94.2988 5.00488 94.4723 5.0345 94.5908 5.09375L 94.5908 6.18555ZM 99.6626 12C 99.5949 11.8646 99.5399 11.6234 99.4976 11.2764C 98.9517 11.8434 98.3 12.127 97.5425 12.127C 96.8654 12.127 96.3089 11.9365 95.873 11.5557C 95.4414 11.1706 95.2256 10.6839 95.2256 10.0957C 95.2256 9.38053 95.4964 8.82617 96.0381 8.43262C 96.584 8.03483 97.3499 7.83594 98.3359 7.83594L 99.4785 7.83594L 99.4785 7.29639C 99.4785 6.8859 99.3558 6.56006 99.1104 6.31885C 98.8649 6.0734 98.5031 5.95068 98.0249 5.95068C 97.606 5.95068 97.2547 6.05648 96.9712 6.26807C 96.6877 6.47965 96.5459 6.73568 96.5459 7.03613L 95.3652 7.03613C 95.3652 6.69336 95.4858 6.36328 95.7271 6.0459C 95.9725 5.72428 96.3026 5.47038 96.7173 5.28418C 97.1362 5.09798 97.5954 5.00488 98.0947 5.00488C 98.8861 5.00488 99.506 5.20378 99.9546 5.60156C 100.403 5.99512 100.636 6.5389 100.653 7.23291L 100.653 10.394C 100.653 11.0246 100.733 11.526 100.894 11.8984L 100.894 12L 99.6626 12ZM 97.7139 11.105C 98.082 11.105 98.4312 11.0098 98.7612 10.8193C 99.0913 10.6289 99.3304 10.3813 99.4785 10.0767L 99.4785 8.66748L 98.5581 8.66748C 97.1193 8.66748 96.3999 9.08854 96.3999 9.93066C 96.3999 10.2988 96.5226 10.5866 96.7681 10.7939C 97.0135 11.0013 97.3288 11.105 97.7139 11.105ZM 104.639 10.2798L 106.239 5.13184L 107.496 5.13184L 104.734 13.0601C 104.307 14.2026 103.628 14.7739 102.697 14.7739L 102.475 14.7549L 102.037 14.6724L 102.037 13.7202L 102.354 13.7456C 102.752 13.7456 103.061 13.6652 103.281 13.5044C 103.505 13.3436 103.689 13.0495 103.833 12.6221L 104.093 11.9238L 101.643 5.13184L 102.925 5.13184L 104.639 10.2798Z"/>
<path id="path3_fill" d="M 17.3652 8.26123L 15.1943 8.26123L 15.1943 12L 13.9692 12L 13.9692 2.75781L 17.0288 2.75781C 18.0698 2.75781 18.8696 2.99479 19.4282 3.46875C 19.991 3.94271 20.2725 4.63249 20.2725 5.53809C 20.2725 6.11361 20.1159 6.61507 19.8027 7.04248C 19.4938 7.46989 19.0622 7.78939 18.5078 8.00098L 20.6787 11.9238L 20.6787 12L 19.3711 12L 17.3652 8.26123ZM 15.1943 7.26465L 17.0669 7.26465C 17.672 7.26465 18.1523 7.10807 18.5078 6.79492C 18.8675 6.48177 19.0474 6.06283 19.0474 5.53809C 19.0474 4.9668 18.876 4.52881 18.5332 4.22412C 18.1947 3.91943 17.7038 3.76497 17.0605 3.76074L 15.1943 3.76074L 15.1943 7.26465ZM 24.6523 12.127C 23.7214 12.127 22.9639 11.8223 22.3799 11.2129C 21.7959 10.5993 21.5039 9.78044 21.5039 8.75635L 21.5039 8.54053C 21.5039 7.85921 21.633 7.25195 21.8911 6.71875C 22.1535 6.18132 22.5174 5.76237 22.9829 5.46191C 23.4526 5.15723 23.9604 5.00488 24.5063 5.00488C 25.3993 5.00488 26.0933 5.29899 26.5884 5.88721C 27.0835 6.47542 27.3311 7.31755 27.3311 8.41357L 27.3311 8.90234L 22.6782 8.90234C 22.6951 9.57943 22.8919 10.1274 23.2686 10.5464C 23.6494 10.9611 24.1318 11.1685 24.7158 11.1685C 25.1305 11.1685 25.4818 11.0838 25.7695 10.9146C 26.0573 10.7453 26.3091 10.521 26.5249 10.2417L 27.2422 10.8003C 26.6667 11.6847 25.8034 12.127 24.6523 12.127ZM 24.5063 5.96973C 24.0324 5.96973 23.6346 6.14323 23.313 6.49023C 22.9914 6.83301 22.7925 7.31543 22.7163 7.9375L 26.1567 7.9375L 26.1567 7.84863C 26.1229 7.25195 25.9621 6.79069 25.6743 6.46484C 25.3866 6.13477 24.9972 5.96973 24.5063 5.96973ZM 32.6948 10.1782C 32.6948 9.86084 32.5742 9.6154 32.333 9.44189C 32.096 9.26416 31.6792 9.11182 31.0825 8.98486C 30.4901 8.85791 30.0182 8.70557 29.667 8.52783C 29.32 8.3501 29.0618 8.13851 28.8926 7.89307C 28.7275 7.64762 28.645 7.35563 28.645 7.01709C 28.645 6.45426 28.882 5.97819 29.356 5.58887C 29.8341 5.19954 30.4435 5.00488 31.1841 5.00488C 31.9627 5.00488 32.5933 5.20589 33.0757 5.60791C 33.5623 6.00993 33.8057 6.52409 33.8057 7.15039L 32.625 7.15039C 32.625 6.82878 32.4875 6.5516 32.2124 6.31885C 31.9416 6.0861 31.5988 5.96973 31.1841 5.96973C 30.7567 5.96973 30.4224 6.06283 30.1812 6.24902C 29.9399 6.43522 29.8193 6.67855 29.8193 6.979C 29.8193 7.26253 29.9315 7.47624 30.1558 7.62012C 30.38 7.764 30.7842 7.90153 31.3682 8.03271C 31.9564 8.1639 32.4325 8.32048 32.7964 8.50244C 33.1603 8.68441 33.429 8.90446 33.6025 9.1626C 33.7803 9.4165 33.8691 9.72754 33.8691 10.0957C 33.8691 10.7093 33.6237 11.2023 33.1328 11.5747C 32.6419 11.9429 32.005 12.127 31.2222 12.127C 30.672 12.127 30.1854 12.0296 29.7622 11.835C 29.339 11.6403 29.0068 11.3695 28.7656 11.0225C 28.5286 10.6712 28.4102 10.2925 28.4102 9.88623L 29.5845 9.88623C 29.6056 10.2798 29.7622 10.5929 30.0542 10.8257C 30.3504 11.0542 30.7397 11.1685 31.2222 11.1685C 31.6665 11.1685 32.022 11.0796 32.2886 10.9019C 32.5594 10.7199 32.6948 10.4787 32.6948 10.1782ZM 39.6392 11.3208C 39.1821 11.8582 38.5114 12.127 37.627 12.127C 36.8949 12.127 36.3363 11.9154 35.9512 11.4922C 35.5703 11.0648 35.3778 10.4342 35.3735 9.60059L 35.3735 5.13184L 36.5479 5.13184L 36.5479 9.56885C 36.5479 10.6099 36.971 11.1304 37.8174 11.1304C 38.7145 11.1304 39.3112 10.7961 39.6074 10.1274L 39.6074 5.13184L 40.7817 5.13184L 40.7817 12L 39.6646 12L 39.6392 11.3208ZM 43.8477 12L 42.6733 12L 42.6733 2.25L 43.8477 2.25L 43.8477 12ZM 47.3262 3.46875L 47.3262 5.13184L 48.6084 5.13184L 48.6084 6.03955L 47.3262 6.03955L 47.3262 10.2988C 47.3262 10.5739 47.3833 10.7812 47.4976 10.9209C 47.6118 11.0563 47.8065 11.124 48.0815 11.124C 48.217 11.124 48.4032 11.0986 48.6401 11.0479L 48.6401 12C 48.3312 12.0846 48.0308 12.127 47.7388 12.127C 47.214 12.127 46.8184 11.9683 46.5518 11.6509C 46.2852 11.3335 46.1519 10.8828 46.1519 10.2988L 46.1519 6.03955L 44.9014 6.03955L 44.9014 5.13184L 46.1519 5.13184L 46.1519 3.46875L 47.3262 3.46875Z"/>
<path id="path4_stroke" d="M 0 0L 0 -0.5L -0.5 -0.5L -0.5 0L 0 0ZM 38.25 0L 38.75 0L 38.75 -0.5L 38.25 -0.5L 38.25 0ZM 38.25 38.4368L 38.25 38.9368L 38.75 38.9368L 38.75 38.4368L 38.25 38.4368ZM 0 38.4368L -0.5 38.4368L -0.5 38.9368L 0 38.9368L 0 38.4368ZM 0 0.5L 38.25 0.5L 38.25 -0.5L 0 -0.5L 0 0.5ZM 37.75 0L 37.75 38.4368L 38.75 38.4368L 38.75 0L 37.75 0ZM 38.25 37.9368L 0 37.9368L 0 38.9368L 38.25 38.9368L 38.25 37.9368ZM 0.5 38.4368L 0.5 0L -0.5 0L -0.5 38.4368L 0.5 38.4368Z"/>
<path id="path5_fill" d="M 0 0L 152 0L 152 38L 0 38L 0 0Z"/>
<path id="path6_stroke_2x" d="M 0 0L 0 -2L -2 -2L -2 0L 0 0ZM 152 0L 154 0L 154 -2L 152 -2L 152 0ZM 152 38L 152 40L 154 40L 154 38L 152 38ZM 0 38L -2 38L -2 40L 0 40L 0 38ZM 0 2L 152 2L 152 -2L 0 -2L 0 2ZM 150 0L 150 38L 154 38L 154 0L 150 0ZM 152 36L 0 36L 0 40L 152 40L 152 36ZM 2 38L 2 0L -2 0L -2 38L 2 38Z"/>
<path id="path7_fill" d="M 0 0L 152 0L 152 37L 0 37L 0 0Z"/>
<path id="path8_stroke_2x" d="M 0 0L 0 -2L -2 -2L -2 0L 0 0ZM 152 0L 154 0L 154 -2L 152 -2L 152 0ZM 152 37L 152 39L 154 39L 154 37L 152 37ZM 0 37L -2 37L -2 39L 0 39L 0 37ZM 0 2L 152 2L 152 -2L 0 -2L 0 2ZM 150 0L 150 37L 154 37L 154 0L 150 0ZM 152 35L 0 35L 0 39L 152 39L 152 35ZM 2 37L 2 0L -2 0L -2 37L 2 37Z"/>
<path id="path9_fill" d="M 0 0L 152 0L 152 39L 0 39L 0 0Z"/>
<path id="path10_stroke_2x" d="M 0 0L 0 -2L -2 -2L -2 0L 0 0ZM 152 0L 154 0L 154 -2L 152 -2L 152 0ZM 152 39L 152 41L 154 41L 154 39L 152 39ZM 0 39L -2 39L -2 41L 0 41L 0 39ZM 0 2L 152 2L 152 -2L 0 -2L 0 2ZM 150 0L 150 39L 154 39L 154 0L 150 0ZM 152 37L 0 37L 0 41L 152 41L 152 37ZM 2 39L 2 0L -2 0L -2 39L 2 39Z"/>
<path id="path11_fill" d="M 14.3933 17L 12.7585 17L 12.7585 6.16309L 9.4802 7.36719L 9.4802 5.89062L 14.1384 4.1416L 14.3933 4.1416L 14.3933 17Z"/>
<path id="path12_fill" d="M 17.074 11.542C 17.074 13.4463 16.7488 14.8613 16.0984 15.7871C 15.448 16.7129 14.4314 17.1758 13.0486 17.1758C 11.6833 17.1758 10.6726 16.7246 10.0163 15.8223C 9.36008 14.9141 9.02024 13.5605 8.9968 11.7617L 8.9968 9.59082C 8.9968 7.70996 9.322 6.3125 9.97239 5.39844C 10.6228 4.48438 11.6423 4.02734 13.031 4.02734C 14.4079 4.02734 15.4216 4.46973 16.072 5.35449C 16.7224 6.2334 17.0564 7.59277 17.074 9.43262L 17.074 11.542ZM 15.448 9.31836C 15.448 7.94141 15.2546 6.93945 14.8679 6.3125C 14.4812 5.67969 13.8689 5.36328 13.031 5.36328C 12.199 5.36328 11.5925 5.67676 11.2116 6.30371C 10.8308 6.93066 10.6345 7.89453 10.6228 9.19531L 10.6228 11.7969C 10.6228 13.1797 10.822 14.2021 11.2204 14.8643C 11.6247 15.5205 12.2341 15.8486 13.0486 15.8486C 13.8513 15.8486 14.446 15.5381 14.8327 14.917C 15.2253 14.2959 15.4304 13.3174 15.448 11.9814L 15.448 9.31836Z"/>
<path id="path13_fill" d="M 10.916 17L 9.28125 17L 9.28125 6.16309L 6.00293 7.36719L 6.00293 5.89062L 10.6611 4.1416L 10.916 4.1416L 10.916 17Z"/>
<path id="path14_fill" d="M 11.4138 9.81055L 12.6355 9.81055C 13.4031 9.79883 14.0066 9.59668 14.446 9.2041C 14.8855 8.81152 15.1052 8.28125 15.1052 7.61328C 15.1052 6.11328 14.3581 5.36328 12.864 5.36328C 12.1609 5.36328 11.5984 5.56543 11.1765 5.96973C 10.7605 6.36816 10.5525 6.89844 10.5525 7.56055L 8.92649 7.56055C 8.92649 6.54687 9.29563 5.70605 10.0339 5.03809C 10.7781 4.36426 11.7214 4.02734 12.864 4.02734C 14.071 4.02734 15.0173 4.34668 15.7029 4.98535C 16.3884 5.62402 16.7312 6.51172 16.7312 7.64844C 16.7312 8.20508 16.5495 8.74414 16.1863 9.26562C 15.8288 9.78711 15.3396 10.1768 14.7185 10.4346C 15.4216 10.6572 15.9636 11.0264 16.3445 11.542C 16.7312 12.0576 16.9245 12.6875 16.9245 13.4316C 16.9245 14.5801 16.5495 15.4912 15.7995 16.165C 15.0495 16.8389 14.074 17.1758 12.8728 17.1758C 11.6716 17.1758 10.6931 16.8506 9.93723 16.2002C 9.18723 15.5498 8.81223 14.6914 8.81223 13.625L 10.447 13.625C 10.447 14.2988 10.6667 14.8379 11.1062 15.2422C 11.5456 15.6465 12.1345 15.8486 12.8728 15.8486C 13.6579 15.8486 14.2585 15.6436 14.6745 15.2334C 15.0906 14.8232 15.2986 14.2344 15.2986 13.4668C 15.2986 12.7227 15.07 12.1514 14.613 11.7529C 14.156 11.3545 13.4968 11.1494 12.6355 11.1377L 11.4138 11.1377L 11.4138 9.81055Z"/>
<path id="path15_fill" d="M 15.9138 12.7021L 17.6892 12.7021L 17.6892 14.0293L 15.9138 14.0293L 15.9138 17L 14.279 17L 14.279 14.0293L 8.45188 14.0293L 8.45188 13.0713L 14.1823 4.20312L 15.9138 4.20312L 15.9138 12.7021ZM 10.2976 12.7021L 14.279 12.7021L 14.279 6.42676L 14.0857 6.77832L 10.2976 12.7021Z"/>
<path id="path16_fill" d="M 13.5967 11.542C 13.5967 13.4463 13.2715 14.8613 12.6211 15.7871C 11.9707 16.7129 10.9541 17.1758 9.57129 17.1758C 8.20605 17.1758 7.19531 16.7246 6.53906 15.8223C 5.88281 14.9141 5.54297 13.5605 5.51953 11.7617L 5.51953 9.59082C 5.51953 7.70996 5.84473 6.3125 6.49512 5.39844C 7.14551 4.48438 8.16504 4.02734 9.55371 4.02734C 10.9307 4.02734 11.9443 4.46973 12.5947 5.35449C 13.2451 6.2334 13.5791 7.59277 13.5967 9.43262L 13.5967 11.542ZM 11.9707 9.31836C 11.9707 7.94141 11.7773 6.93945 11.3906 6.3125C 11.0039 5.67969 10.3916 5.36328 9.55371 5.36328C 8.72168 5.36328 8.11523 5.67676 7.73438 6.30371C 7.35352 6.93066 7.15723 7.89453 7.14551 9.19531L 7.14551 11.7969C 7.14551 13.1797 7.34473 14.2021 7.74316 14.8643C 8.14746 15.5205 8.75684 15.8486 9.57129 15.8486C 10.374 15.8486 10.9688 15.5381 11.3555 14.917C 11.748 14.2959 11.9531 13.3174 11.9707 11.9814L 11.9707 9.31836Z"/>
<path id="path17_fill" d="M 17.4343 17L 9.04954 17L 9.04954 15.8311L 13.4792 10.9092C 14.1355 10.165 14.5866 9.56152 14.8327 9.09863C 15.0847 8.62988 15.2107 8.14648 15.2107 7.64844C 15.2107 6.98047 15.0085 6.43262 14.6042 6.00488C 14.1999 5.57715 13.6609 5.36328 12.987 5.36328C 12.1784 5.36328 11.5486 5.59473 11.0974 6.05762C 10.6521 6.51465 10.4294 7.15332 10.4294 7.97363L 8.80344 7.97363C 8.80344 6.7959 9.18137 5.84375 9.93723 5.11719C 10.699 4.39063 11.7156 4.02734 12.987 4.02734C 14.1765 4.02734 15.1169 4.34082 15.8083 4.96777C 16.4997 5.58887 16.8454 6.41797 16.8454 7.45508C 16.8454 8.71484 16.0427 10.2148 14.4372 11.9551L 11.0095 15.6729L 17.4343 15.6729L 17.4343 17Z"/>
<path id="path18_fill" d="M 7.93652 9.81055L 9.1582 9.81055C 9.92578 9.79883 10.5293 9.59668 10.9688 9.2041C 11.4082 8.81152 11.6279 8.28125 11.6279 7.61328C 11.6279 6.11328 10.8809 5.36328 9.38672 5.36328C 8.68359 5.36328 8.12109 5.56543 7.69922 5.96973C 7.2832 6.36816 7.0752 6.89844 7.0752 7.56055L 5.44922 7.56055C 5.44922 6.54687 5.81836 5.70605 6.55664 5.03809C 7.30078 4.36426 8.24414 4.02734 9.38672 4.02734C 10.5937 4.02734 11.54 4.34668 12.2256 4.98535C 12.9111 5.62402 13.2539 6.51172 13.2539 7.64844C 13.2539 8.20508 13.0723 8.74414 12.709 9.26562C 12.3516 9.78711 11.8623 10.1768 11.2412 10.4346C 11.9443 10.6572 12.4863 11.0264 12.8672 11.542C 13.2539 12.0576 13.4473 12.6875 13.4473 13.4316C 13.4473 14.5801 13.0723 15.4912 12.3223 16.165C 11.5723 16.8389 10.5967 17.1758 9.39551 17.1758C 8.19434 17.1758 7.21582 16.8506 6.45996 16.2002C 5.70996 15.5498 5.33496 14.6914 5.33496 13.625L 6.96973 13.625C 6.96973 14.2988 7.18945 14.8379 7.62891 15.2422C 8.06836 15.6465 8.65723 15.8486 9.39551 15.8486C 10.1807 15.8486 10.7813 15.6436 11.1973 15.2334C 11.6133 14.8232 11.8213 14.2344 11.8213 13.4668C 11.8213 12.7227 11.5928 12.1514 11.1357 11.7529C 10.6787 11.3545 10.0195 11.1494 9.1582 11.1377L 7.93652 11.1377L 7.93652 9.81055Z"/>
<path id="path19_fill" d="M 0 0L 39 0L 39 38L 0 38L 0 0Z"/>
<path id="path20_stroke_2x" d="M 0 0L 0 -2L -2 -2L -2 0L 0 0ZM 39 0L 41 0L 41 -2L 39 -2L 39 0ZM 39 38L 39 40L 41 40L 41 38L 39 38ZM 0 38L -2 38L -2 40L 0 40L 0 38ZM 0 2L 39 2L 39 -2L 0 -2L 0 2ZM 37 0L 37 38L 41 38L 41 0L 37 0ZM 39 36L 0 36L 0 40L 39 40L 39 36ZM 2 38L 2 0L -2 0L -2 38L 2 38Z"/>
</defs>
</svg>
