<svg width="1120" height="488" viewBox="0 0 1120 488" version="1.1" xmlns="http://www.w3.org/2000/svg" xmlns:xlink="http://www.w3.org/1999/xlink">
<title>Frame</title>
<desc>Created using Figma</desc>
<g id="Canvas" transform="matrix(2 0 0 2 100 2326)">
<clipPath id="clip-0" clip-rule="evenodd">
<path d="M -50 -1163L 510 -1163L 510 -919L -50 -919L -50 -1163Z" fill="#FFFFFF"/>
</clipPath>
<g id="Frame" clip-path="url(#clip-0)">
<path d="M -50 -1163L 510 -1163L 510 -919L -50 -919L -50 -1163Z" fill="#FFFFFF"/>
<g id="ndarray.max()">
<use xlink:href="#path0_fill" transform="translate(207 -1143)" fill="#2E383C"/>
<use xlink:href="#path1_fill" transform="translate(207 -1143)" fill="#197D1C"/>
</g>
<g id="2D ndarray">
<use xlink:href="#path2_fill" transform="translate(6 -1141)" fill="#333333"/>
</g>
<g id="Result">
<use xlink:href="#path3_fill" transform="translate(384 -1141)" fill="#333333"/>
</g>
<g id="Rectangle">
<use xlink:href="#path4_stroke" transform="translate(205 -1111)"/>
</g>
<g id="Rectangle">
<use xlink:href="#path4_stroke" transform="translate(205 -1073.22)"/>
</g>
<g id="Rectangle">
<use xlink:href="#path4_stroke" transform="translate(205 -1035.44)"/>
</g>
<g id="Rectangle">
<use xlink:href="#path4_stroke" transform="translate(205 -997.655)"/>
</g>
<g id="Rectangle">
<use xlink:href="#path4_stroke" transform="translate(242.25 -1111)"/>
</g>
<g id="Rectangle">
<use xlink:href="#path4_stroke" transform="translate(242.25 -1073.22)"/>
</g>
<g id="Rectangle">
<use xlink:href="#path4_stroke" transform="translate(242.25 -1035.44)"/>
</g>
<g id="Rectangle">
<use xlink:href="#path4_stroke" transform="translate(242.25 -997.655)"/>
</g>
<g id="Rectangle">
<use xlink:href="#path4_stroke" transform="translate(280.5 -1111)"/>
</g>
<g id="Rectangle">
<use xlink:href="#path4_stroke" transform="translate(280.5 -1073.22)"/>
</g>
<g id="Rectangle">
<use xlink:href="#path4_stroke" transform="translate(280.5 -1035.44)"/>
</g>
<g id="Rectangle">
<use xlink:href="#path4_stroke" transform="translate(280.5 -997.655)"/>
</g>
<g id="Rectangle">
<use xlink:href="#path4_stroke" transform="translate(318.75 -1111)"/>
</g>
<g id="Rectangle">
<use xlink:href="#path4_stroke" transform="translate(318.75 -1073.22)"/>
</g>
<g id="Rectangle">
<use xlink:href="#path4_stroke" transform="translate(318.75 -1035.44)"/>
</g>
<g id="Rectangle">
<use xlink:href="#path4_stroke" transform="translate(318.75 -997.655)"/>
</g>
<g id="Rectangle">
<use xlink:href="#path5_fill" transform="translate(205 -1111)" fill="#56CCF2" fill-opacity="0.6"/>
<mask id="mask0_outline_ins">
<use xlink:href="#path5_fill" fill="white" transform="translate(205 -1111)"/>
</mask>
<g mask="url(#mask0_outline_ins)">
<use xlink:href="#path6_stroke_2x" transform="translate(205 -1111)" fill="#56CCF2"/>
</g>
</g>
<g id="1">
<use xlink:href="#path7_fill" transform="translate(325.705 -1103.2)" fill="#333333"/>
</g>
<g id="1">
<use xlink:href="#path7_fill" transform="translate(287.455 -1103.2)" fill="#333333"/>
</g>
<g id="0">
<use xlink:href="#path8_fill" transform="translate(249.205 -1103.2)" fill="#333333"/>
</g>
<g id="1">
<use xlink:href="#path9_fill" transform="translate(215.432 -1103.2)" fill="#333333"/>
</g>
<g id="3">
<use xlink:href="#path10_fill" transform="translate(325.705 -1064.77)" fill="#333333"/>
</g>
<g id="4">
<use xlink:href="#path11_fill" transform="translate(287.455 -1064.77)" fill="#333333"/>
</g>
<g id="1">
<use xlink:href="#path7_fill" transform="translate(249.205 -1064.77)" fill="#333333"/>
</g>
<g id="0">
<use xlink:href="#path12_fill" transform="translate(215.432 -1064.77)" fill="#333333"/>
</g>
<g id="2">
<use xlink:href="#path13_fill" transform="translate(325.705 -1028.08)" fill="#333333"/>
</g>
<g id="0">
<use xlink:href="#path8_fill" transform="translate(287.455 -1028.08)" fill="#333333"/>
</g>
<g id="1">
<use xlink:href="#path7_fill" transform="translate(249.205 -1028.08)" fill="#333333"/>
</g>
<g id="0">
<use xlink:href="#path12_fill" transform="translate(215.432 -1028.08)" fill="#333333"/>
</g>
<g id="3">
<use xlink:href="#path10_fill" transform="translate(325.705 -989.641)" fill="#333333"/>
</g>
<g id="1">
<use xlink:href="#path7_fill" transform="translate(287.455 -989.641)" fill="#333333"/>
</g>
<g id="0">
<use xlink:href="#path8_fill" transform="translate(249.205 -989.641)" fill="#333333"/>
</g>
<g id="3">
<use xlink:href="#path14_fill" transform="translate(215.432 -989.641)" fill="#333333"/>
</g>
<g id="Rectangle">
<use xlink:href="#path4_stroke" transform="translate(6 -1111)"/>
</g>
<g id="Rectangle">
<use xlink:href="#path4_stroke" transform="translate(6 -1073.22)"/>
</g>
<g id="Rectangle">
<use xlink:href="#path4_stroke" transform="translate(6 -1035.44)"/>
</g>
<g id="Rectangle">
<use xlink:href="#path4_stroke" transform="translate(6 -997.655)"/>
</g>
<g id="Rectangle">
<use xlink:href="#path4_stroke" transform="translate(44.25 -1111)"/>
</g>
<g id="Rectangle">
<use xlink:href="#path4_stroke" transform="translate(44.25 -1073.22)"/>
</g>
<g id="Rectangle">
<use xlink:href="#path4_stroke" transform="translate(44.25 -1035.44)"/>
</g>
<g id="Rectangle">
<use xlink:href="#path4_stroke" transform="translate(44.25 -997.655)"/>
</g>
<g id="Rectangle">
<use xlink:href="#path4_stroke" transform="translate(82.5 -1111)"/>
</g>
<g id="Rectangle">
<use xlink:href="#path4_stroke" transform="translate(82.5 -1073.22)"/>
</g>
<g id="Rectangle">
<use xlink:href="#path4_stroke" transform="translate(82.5 -1035.44)"/>
</g>
<g id="Rectangle">
<use xlink:href="#path4_stroke" transform="translate(82.5 -997.655)"/>
</g>
<g id="Rectangle">
<use xlink:href="#path4_stroke" transform="translate(120.75 -1111)"/>
</g>
<g id="Rectangle">
<use xlink:href="#path4_stroke" transform="translate(120.75 -1073.22)"/>
</g>
<g id="Rectangle">
<use xlink:href="#path4_stroke" transform="translate(120.75 -1035.44)"/>
</g>
<g id="Rectangle">
<use xlink:href="#path4_stroke" transform="translate(120.75 -997.655)"/>
</g>
<g id="1">
<use xlink:href="#path7_fill" transform="translate(127.705 -1103.2)" fill="#333333"/>
</g>
<g id="1">
<use xlink:href="#path7_fill" transform="translate(89.4545 -1103.2)" fill="#333333"/>
</g>
<g id="0">
<use xlink:href="#path8_fill" transform="translate(51.2045 -1103.2)" fill="#333333"/>
</g>
<g id="1">
<use xlink:href="#path9_fill" transform="translate(16.4318 -1103.2)" fill="#333333"/>
</g>
<g id="3">
<use xlink:href="#path10_fill" transform="translate(127.705 -1064.77)" fill="#333333"/>
</g>
<g id="4">
<use xlink:href="#path11_fill" transform="translate(89.4545 -1064.77)" fill="#333333"/>
</g>
<g id="1">
<use xlink:href="#path7_fill" transform="translate(51.2045 -1064.77)" fill="#333333"/>
</g>
<g id="0">
<use xlink:href="#path12_fill" transform="translate(16.4318 -1064.77)" fill="#333333"/>
</g>
<g id="2">
<use xlink:href="#path13_fill" transform="translate(127.705 -1028.08)" fill="#333333"/>
</g>
<g id="0">
<use xlink:href="#path8_fill" transform="translate(89.4545 -1028.08)" fill="#333333"/>
</g>
<g id="1">
<use xlink:href="#path7_fill" transform="translate(51.2045 -1028.08)" fill="#333333"/>
</g>
<g id="0">
<use xlink:href="#path12_fill" transform="translate(16.4318 -1028.08)" fill="#333333"/>
</g>
<g id="3">
<use xlink:href="#path10_fill" transform="translate(127.705 -989.641)" fill="#333333"/>
</g>
<g id="1">
<use xlink:href="#path7_fill" transform="translate(89.4545 -989.641)" fill="#333333"/>
</g>
<g id="0">
<use xlink:href="#path8_fill" transform="translate(51.2045 -989.641)" fill="#333333"/>
</g>
<g id="3">
<use xlink:href="#path14_fill" transform="translate(16.4318 -989.641)" fill="#333333"/>
</g>
<g id="Rectangle">
<use xlink:href="#path4_stroke" transform="translate(396 -1054)"/>
</g>
<g id="Rectangle">
<use xlink:href="#path15_fill" transform="translate(396 -1054)" fill="#56CCF2" fill-opacity="0.6"/>
<mask id="mask1_outline_ins">
<use xlink:href="#path15_fill" fill="white" transform="translate(396 -1054)"/>
</mask>
<g mask="url(#mask1_outline_ins)">
<use xlink:href="#path16_stroke_2x" transform="translate(396 -1054)" fill="#56CCF2"/>
</g>
</g>
<g id="4">
<use xlink:href="#path11_fill" transform="translate(402.955 -1046.2)" fill="#333333"/>
</g>
</g>
</g>
<defs>
<path id="path0_fill" d="M 23.0835 7.126L 24.4135 7.126L 24.5395 8.162L 24.5955 8.162C 24.9222 7.83533 25.2815 7.55533 25.6735 7.322C 26.0749 7.07933 26.5415 6.958 27.0735 6.958C 27.8669 6.958 28.4502 7.20067 28.8235 7.686C 29.1969 8.162 29.3835 8.848 29.3835 9.744L 29.3835 14L 27.7595 14L 27.7595 9.954C 27.7595 9.394 27.6615 8.988 27.4655 8.736C 27.2789 8.47467 26.9475 8.344 26.4715 8.344C 26.1355 8.344 25.8369 8.42333 25.5755 8.582C 25.3142 8.74067 25.0249 8.98333 24.7075 9.31L 24.7075 14L 23.0835 14L 23.0835 7.126ZM 31.0721 10.57C 31.0721 10.01 31.1561 9.506 31.3241 9.058C 31.4921 8.61 31.7161 8.232 31.9961 7.924C 32.2854 7.616 32.6121 7.378 32.9761 7.21C 33.3401 7.042 33.7181 6.958 34.1101 6.958C 34.5207 6.958 34.8707 7.03267 35.1601 7.182C 35.4587 7.322 35.7481 7.518 36.0281 7.77L 35.9581 6.608L 35.9581 4.116L 37.5821 4.116L 37.5821 14L 36.2521 14L 36.1261 13.202L 36.0841 13.202C 35.8134 13.4727 35.4961 13.7013 35.1321 13.888C 34.7774 14.0747 34.4041 14.168 34.0121 14.168C 33.5734 14.168 33.1721 14.0887 32.8081 13.93C 32.4441 13.762 32.1314 13.524 31.8701 13.216C 31.6181 12.908 31.4221 12.5347 31.2821 12.096C 31.1421 11.648 31.0721 11.1393 31.0721 10.57ZM 32.7381 10.556C 32.7381 11.3027 32.8827 11.872 33.1721 12.264C 33.4614 12.6467 33.8721 12.838 34.4041 12.838C 34.9734 12.838 35.4914 12.5627 35.9581 12.012L 35.9581 8.918C 35.7154 8.68467 35.4727 8.52133 35.2301 8.428C 34.9874 8.33467 34.7401 8.288 34.4881 8.288C 34.2454 8.288 34.0167 8.33933 33.8021 8.442C 33.5967 8.54467 33.4147 8.694 33.2561 8.89C 33.0974 9.07667 32.9714 9.31 32.8781 9.59C 32.7847 9.87 32.7381 10.192 32.7381 10.556ZM 39.7186 12.152C 39.7186 11.7693 39.8073 11.4333 39.9846 11.144C 40.1619 10.8453 40.4419 10.5933 40.8246 10.388C 41.2073 10.1827 41.6973 10.0147 42.2946 9.884C 42.8919 9.75333 43.6153 9.66 44.4646 9.604C 44.4366 9.212 44.2966 8.89 44.0446 8.638C 43.7926 8.386 43.3866 8.26 42.8266 8.26C 42.4346 8.26 42.0473 8.33467 41.6646 8.484C 41.2913 8.624 40.9273 8.792 40.5726 8.988L 39.9846 7.91C 40.4046 7.66733 40.8853 7.448 41.4266 7.252C 41.9679 7.056 42.5326 6.958 43.1206 6.958C 44.0819 6.958 44.8146 7.21467 45.3186 7.728C 45.8226 8.232 46.0746 8.96467 46.0746 9.926L 46.0746 14L 44.7586 14L 44.6326 13.146L 44.5906 13.146C 44.2266 13.426 43.8206 13.6687 43.3726 13.874C 42.9339 14.07 42.4813 14.168 42.0146 14.168C 41.6786 14.168 41.3706 14.1167 41.0906 14.014C 40.8106 13.9207 40.5679 13.7853 40.3626 13.608C 40.1573 13.4307 39.9986 13.2207 39.8866 12.978C 39.7746 12.726 39.7186 12.4507 39.7186 12.152ZM 41.2726 12.026C 41.2726 12.334 41.3893 12.558 41.6226 12.698C 41.8653 12.838 42.1593 12.908 42.5046 12.908C 42.8499 12.908 43.1813 12.8333 43.4986 12.684C 43.8253 12.5253 44.1473 12.32 44.4646 12.068L 44.4646 10.612C 43.8486 10.6587 43.3353 10.724 42.9246 10.808C 42.5139 10.8827 42.1873 10.9807 41.9446 11.102C 41.7019 11.2233 41.5293 11.3633 41.4266 11.522C 41.3239 11.6713 41.2726 11.8393 41.2726 12.026ZM 48.9391 7.126L 50.2691 7.126L 50.4091 8.68L 50.4511 8.68C 50.8058 8.12 51.2305 7.69533 51.7251 7.406C 52.2291 7.10733 52.7798 6.958 53.3771 6.958C 53.6571 6.958 53.8951 6.98133 54.0911 7.028C 54.2965 7.06533 54.5018 7.13533 54.7071 7.238L 54.3711 8.596C 54.1471 8.52133 53.9465 8.47 53.7691 8.442C 53.6011 8.40467 53.3865 8.386 53.1251 8.386C 52.6491 8.386 52.1918 8.52133 51.7531 8.792C 51.3145 9.06267 50.9178 9.534 50.5631 10.206L 50.5631 14L 48.9391 14L 48.9391 7.126ZM 57.3337 7.126L 58.6637 7.126L 58.8037 8.68L 58.8457 8.68C 59.2003 8.12 59.625 7.69533 60.1197 7.406C 60.6237 7.10733 61.1743 6.958 61.7717 6.958C 62.0517 6.958 62.2897 6.98133 62.4857 7.028C 62.691 7.06533 62.8963 7.13533 63.1017 7.238L 62.7657 8.596C 62.5417 8.52133 62.341 8.47 62.1637 8.442C 61.9957 8.40467 61.781 8.386 61.5197 8.386C 61.0437 8.386 60.5863 8.52133 60.1477 8.792C 59.709 9.06267 59.3123 9.534 58.9577 10.206L 58.9577 14L 57.3337 14L 57.3337 7.126ZM 64.9022 12.152C 64.9022 11.7693 64.9909 11.4333 65.1682 11.144C 65.3455 10.8453 65.6255 10.5933 66.0082 10.388C 66.3909 10.1827 66.8809 10.0147 67.4782 9.884C 68.0755 9.75333 68.7989 9.66 69.6482 9.604C 69.6202 9.212 69.4802 8.89 69.2282 8.638C 68.9762 8.386 68.5702 8.26 68.0102 8.26C 67.6182 8.26 67.2309 8.33467 66.8482 8.484C 66.4749 8.624 66.1109 8.792 65.7562 8.988L 65.1682 7.91C 65.5882 7.66733 66.0689 7.448 66.6102 7.252C 67.1515 7.056 67.7162 6.958 68.3042 6.958C 69.2655 6.958 69.9982 7.21467 70.5022 7.728C 71.0062 8.232 71.2582 8.96467 71.2582 9.926L 71.2582 14L 69.9422 14L 69.8162 13.146L 69.7742 13.146C 69.4102 13.426 69.0042 13.6687 68.5562 13.874C 68.1175 14.07 67.6649 14.168 67.1982 14.168C 66.8622 14.168 66.5542 14.1167 66.2742 14.014C 65.9942 13.9207 65.7515 13.7853 65.5462 13.608C 65.3409 13.4307 65.1822 13.2207 65.0702 12.978C 64.9582 12.726 64.9022 12.4507 64.9022 12.152ZM 66.4562 12.026C 66.4562 12.334 66.5729 12.558 66.8062 12.698C 67.0489 12.838 67.3429 12.908 67.6882 12.908C 68.0335 12.908 68.3649 12.8333 68.6822 12.684C 69.0089 12.5253 69.3309 12.32 69.6482 12.068L 69.6482 10.612C 69.0322 10.6587 68.5189 10.724 68.1082 10.808C 67.6975 10.8827 67.3709 10.9807 67.1282 11.102C 66.8855 11.2233 66.7129 11.3633 66.6102 11.522C 66.5075 11.6713 66.4562 11.8393 66.4562 12.026ZM 73.5487 15.428C 73.6421 15.456 73.7354 15.4793 73.8287 15.498C 73.9221 15.5167 74.0201 15.526 74.1227 15.526C 74.5614 15.526 74.9114 15.414 75.1727 15.19C 75.4341 14.9753 75.6347 14.6953 75.7747 14.35L 75.9427 13.916L 72.8627 7.126L 74.4727 7.126L 75.8867 10.5C 76.0174 10.808 76.1434 11.1347 76.2647 11.48C 76.3861 11.8253 76.5121 12.1707 76.6427 12.516L 76.6987 12.516C 76.8014 12.1893 76.9134 11.8533 77.0347 11.508C 77.1561 11.1627 77.2727 10.8267 77.3847 10.5L 78.6307 7.126L 80.1567 7.126L 77.2867 14.308C 77.1374 14.7 76.9694 15.05 76.7827 15.358C 76.6054 15.666 76.3954 15.9273 76.1527 16.142C 75.9101 16.366 75.6301 16.534 75.3127 16.646C 74.9954 16.7673 74.6314 16.828 74.2207 16.828C 74.0341 16.828 73.8567 16.814 73.6887 16.786C 73.5207 16.7673 73.3714 16.7347 73.2407 16.688L 73.5487 15.428ZM 83.5113 12.754C 83.5113 12.3433 83.6419 12.0073 83.9033 11.746C 84.1646 11.4753 84.4959 11.34 84.8973 11.34C 85.2986 11.34 85.6299 11.4753 85.8913 11.746C 86.1526 12.0073 86.2833 12.3433 86.2833 12.754C 86.2833 13.1647 86.1526 13.5053 85.8913 13.776C 85.6299 14.0373 85.2986 14.168 84.8973 14.168C 84.4959 14.168 84.1646 14.0373 83.9033 13.776C 83.6419 13.5053 83.5113 13.1647 83.5113 12.754ZM 89.7638 7.126L 90.9818 7.126L 91.1078 8.008L 91.1498 8.008C 91.3085 7.70933 91.4998 7.462 91.7238 7.266C 91.9571 7.06067 92.2698 6.958 92.6618 6.958C 93.3338 6.958 93.7538 7.34067 93.9218 8.106C 94.0805 7.77933 94.2811 7.50867 94.5238 7.294C 94.7758 7.07 95.0931 6.958 95.4758 6.958C 95.9611 6.958 96.3345 7.14933 96.5958 7.532C 96.8665 7.90533 97.0018 8.43733 97.0018 9.128L 97.0018 14L 95.4758 14L 95.4758 9.254C 95.4758 8.64733 95.2845 8.344 94.9018 8.344C 94.7151 8.344 94.5518 8.414 94.4118 8.554C 94.2718 8.694 94.1365 8.90867 94.0058 9.198L 94.0058 14L 92.7458 14L 92.7458 9.254C 92.7458 8.64733 92.5498 8.344 92.1578 8.344C 91.9711 8.344 91.8125 8.414 91.6818 8.554C 91.5511 8.694 91.4205 8.90867 91.2898 9.198L 91.2898 14L 89.7638 14L 89.7638 7.126ZM 98.4803 12.152C 98.4803 11.7693 98.569 11.4333 98.7463 11.144C 98.9237 10.8453 99.2037 10.5933 99.5863 10.388C 99.969 10.1827 100.459 10.0147 101.056 9.884C 101.654 9.75333 102.377 9.66 103.226 9.604C 103.198 9.212 103.058 8.89 102.806 8.638C 102.554 8.386 102.148 8.26 101.588 8.26C 101.196 8.26 100.809 8.33467 100.426 8.484C 100.053 8.624 99.689 8.792 99.3343 8.988L 98.7463 7.91C 99.1663 7.66733 99.647 7.448 100.188 7.252C 100.73 7.056 101.294 6.958 101.882 6.958C 102.844 6.958 103.576 7.21467 104.08 7.728C 104.584 8.232 104.836 8.96467 104.836 9.926L 104.836 14L 103.52 14L 103.394 13.146L 103.352 13.146C 102.988 13.426 102.582 13.6687 102.134 13.874C 101.696 14.07 101.243 14.168 100.776 14.168C 100.44 14.168 100.132 14.1167 99.8523 14.014C 99.5723 13.9207 99.3297 13.7853 99.1243 13.608C 98.919 13.4307 98.7603 13.2207 98.6483 12.978C 98.5363 12.726 98.4803 12.4507 98.4803 12.152ZM 100.034 12.026C 100.034 12.334 100.151 12.558 100.384 12.698C 100.627 12.838 100.921 12.908 101.266 12.908C 101.612 12.908 101.943 12.8333 102.26 12.684C 102.587 12.5253 102.909 12.32 103.226 12.068L 103.226 10.612C 102.61 10.6587 102.097 10.724 101.686 10.808C 101.276 10.8827 100.949 10.9807 100.706 11.102C 100.464 11.2233 100.291 11.3633 100.188 11.522C 100.086 11.6713 100.034 11.8393 100.034 12.026ZM 109.087 10.43L 106.763 7.126L 108.513 7.126L 109.409 8.428C 109.521 8.61467 109.642 8.81067 109.773 9.016C 109.904 9.212 110.034 9.408 110.165 9.604L 110.221 9.604C 110.324 9.408 110.436 9.20733 110.557 9.002C 110.678 8.79667 110.79 8.60067 110.893 8.414L 111.705 7.126L 113.399 7.126L 111.061 10.598L 113.567 14L 111.817 14L 110.823 12.642C 110.692 12.4553 110.552 12.2547 110.403 12.04C 110.263 11.8253 110.123 11.62 109.983 11.424L 109.927 11.424C 109.796 11.6293 109.67 11.8347 109.549 12.04C 109.437 12.236 109.316 12.4413 109.185 12.656L 108.289 14L 106.595 14L 109.087 10.43ZM 120.043 16.478C 119.101 15.694 118.354 14.77 117.803 13.706C 117.262 12.642 116.991 11.4427 116.991 10.108C 116.991 8.77333 117.262 7.574 117.803 6.51C 118.354 5.446 119.101 4.522 120.043 3.738L 120.939 4.48C 120.053 5.28267 119.404 6.13667 118.993 7.042C 118.583 7.94733 118.377 8.96933 118.377 10.108C 118.377 11.2467 118.583 12.2687 118.993 13.174C 119.404 14.0793 120.053 14.9333 120.939 15.736L 120.043 16.478Z"/>
<path id="path1_fill" d="M 124.406 15.736C 125.293 14.9333 125.941 14.0793 126.352 13.174C 126.763 12.2687 126.968 11.2467 126.968 10.108C 126.968 8.96933 126.763 7.94733 126.352 7.042C 125.941 6.13667 125.293 5.28267 124.406 4.48L 125.302 3.738C 126.245 4.522 126.987 5.446 127.528 6.51C 128.079 7.574 128.354 8.77333 128.354 10.108C 128.354 11.4427 128.079 12.642 127.528 13.706C 126.987 14.77 126.245 15.694 125.302 16.478L 124.406 15.736Z"/>
<path id="path2_fill" d="M 52.1631 12L 46.1074 12L 46.1074 11.1558L 49.3066 7.60107C 49.7806 7.06364 50.1064 6.62777 50.2842 6.29346C 50.4661 5.95492 50.5571 5.60579 50.5571 5.24609C 50.5571 4.76367 50.4111 4.368 50.1191 4.05908C 49.8271 3.75016 49.4378 3.5957 48.9512 3.5957C 48.3672 3.5957 47.9123 3.76286 47.5864 4.09717C 47.2648 4.42725 47.104 4.88851 47.104 5.48096L 45.9297 5.48096C 45.9297 4.63037 46.2026 3.94271 46.7485 3.41797C 47.2987 2.89323 48.0329 2.63086 48.9512 2.63086C 49.8102 2.63086 50.4894 2.85726 50.9888 3.31006C 51.4881 3.75863 51.7378 4.35742 51.7378 5.10645C 51.7378 6.01628 51.158 7.09961 49.9985 8.35645L 47.5229 11.0415L 52.1631 11.0415L 52.1631 12ZM 53.7119 12L 53.7119 2.75781L 56.3208 2.75781C 57.1248 2.75781 57.8358 2.93555 58.4536 3.29102C 59.0715 3.64648 59.5475 4.15218 59.8818 4.80811C 60.2204 5.46403 60.3918 6.21729 60.396 7.06787L 60.396 7.6582C 60.396 8.52995 60.2267 9.29378 59.8882 9.94971C 59.5539 10.6056 59.0736 11.1092 58.4473 11.4604C 57.8252 11.8117 57.0994 11.9915 56.27 12L 53.7119 12ZM 54.9307 3.76074L 54.9307 11.0034L 56.2129 11.0034C 57.1523 11.0034 57.8823 10.7114 58.4028 10.1274C 58.9276 9.54346 59.1899 8.71191 59.1899 7.63281L 59.1899 7.09326C 59.1899 6.04378 58.9424 5.22917 58.4473 4.64941C 57.9564 4.06543 57.2581 3.76921 56.3525 3.76074L 54.9307 3.76074ZM 66.3945 5.13184L 66.4326 5.99512C 66.9574 5.33496 67.6429 5.00488 68.4893 5.00488C 69.9408 5.00488 70.6729 5.82373 70.6855 7.46143L 70.6855 12L 69.5112 12L 69.5112 7.45508C 69.507 6.95996 69.3927 6.59391 69.1685 6.35693C 68.9484 6.11995 68.6035 6.00146 68.1338 6.00146C 67.7529 6.00146 67.4186 6.10303 67.1309 6.30615C 66.8431 6.50928 66.6188 6.77588 66.458 7.10596L 66.458 12L 65.2837 12L 65.2837 5.13184L 66.3945 5.13184ZM 72.1709 8.50879C 72.1709 7.45508 72.4206 6.60872 72.9199 5.96973C 73.4193 5.3265 74.0731 5.00488 74.8813 5.00488C 75.6854 5.00488 76.3223 5.27995 76.792 5.83008L 76.792 2.25L 77.9663 2.25L 77.9663 12L 76.8872 12L 76.8301 11.2637C 76.3604 11.8392 75.7065 12.127 74.8687 12.127C 74.0731 12.127 73.4235 11.8011 72.9199 11.1494C 72.4206 10.4977 72.1709 9.64714 72.1709 8.59766L 72.1709 8.50879ZM 73.3452 8.64209C 73.3452 9.42074 73.506 10.0301 73.8276 10.4702C 74.1493 10.9103 74.5936 11.1304 75.1606 11.1304C 75.9054 11.1304 76.4492 10.7961 76.792 10.1274L 76.792 6.97266C 76.4408 6.3252 75.9012 6.00146 75.1733 6.00146C 74.5978 6.00146 74.1493 6.22363 73.8276 6.66797C 73.506 7.1123 73.3452 7.77035 73.3452 8.64209ZM 84.0347 12C 83.967 11.8646 83.9119 11.6234 83.8696 11.2764C 83.3237 11.8434 82.672 12.127 81.9146 12.127C 81.2375 12.127 80.681 11.9365 80.2451 11.5557C 79.8135 11.1706 79.5977 10.6839 79.5977 10.0957C 79.5977 9.38053 79.8685 8.82617 80.4102 8.43262C 80.9561 8.03483 81.722 7.83594 82.708 7.83594L 83.8506 7.83594L 83.8506 7.29639C 83.8506 6.8859 83.7279 6.56006 83.4824 6.31885C 83.237 6.0734 82.8752 5.95068 82.397 5.95068C 81.978 5.95068 81.6268 6.05648 81.3433 6.26807C 81.0597 6.47965 80.918 6.73568 80.918 7.03613L 79.7373 7.03613C 79.7373 6.69336 79.8579 6.36328 80.0991 6.0459C 80.3446 5.72428 80.6746 5.47038 81.0894 5.28418C 81.5083 5.09798 81.9674 5.00488 82.4668 5.00488C 83.2581 5.00488 83.8781 5.20378 84.3267 5.60156C 84.7752 5.99512 85.008 6.5389 85.0249 7.23291L 85.0249 10.394C 85.0249 11.0246 85.1053 11.526 85.2661 11.8984L 85.2661 12L 84.0347 12ZM 82.0859 11.105C 82.4541 11.105 82.8032 11.0098 83.1333 10.8193C 83.4634 10.6289 83.7025 10.3813 83.8506 10.0767L 83.8506 8.66748L 82.9302 8.66748C 81.4914 8.66748 80.772 9.08854 80.772 9.93066C 80.772 10.2988 80.8947 10.5866 81.1401 10.7939C 81.3856 11.0013 81.7008 11.105 82.0859 11.105ZM 90.1855 6.18555C 90.0078 6.15592 89.8153 6.14111 89.6079 6.14111C 88.8377 6.14111 88.3151 6.46908 88.04 7.125L 88.04 12L 86.8657 12L 86.8657 5.13184L 88.0083 5.13184L 88.0273 5.92529C 88.4124 5.31169 88.9583 5.00488 89.665 5.00488C 89.8936 5.00488 90.0671 5.0345 90.1855 5.09375L 90.1855 6.18555ZM 94.5908 6.18555C 94.4131 6.15592 94.2205 6.14111 94.0132 6.14111C 93.243 6.14111 92.7204 6.46908 92.4453 7.125L 92.4453 12L 91.271 12L 91.271 5.13184L 92.4136 5.13184L 92.4326 5.92529C 92.8177 5.31169 93.3636 5.00488 94.0703 5.00488C 94.2988 5.00488 94.4723 5.0345 94.5908 5.09375L 94.5908 6.18555ZM 99.6626 12C 99.5949 11.8646 99.5399 11.6234 99.4976 11.2764C 98.9517 11.8434 98.3 12.127 97.5425 12.127C 96.8654 12.127 96.3089 11.9365 95.873 11.5557C 95.4414 11.1706 95.2256 10.6839 95.2256 10.0957C 95.2256 9.38053 95.4964 8.82617 96.0381 8.43262C 96.584 8.03483 97.3499 7.83594 98.3359 7.83594L 99.4785 7.83594L 99.4785 7.29639C 99.4785 6.8859 99.3558 6.56006 99.1104 6.31885C 98.8649 6.0734 98.5031 5.95068 98.0249 5.95068C 97.606 5.95068 97.2547 6.05648 96.9712 6.26807C 96.6877 6.47965 96.5459 6.73568 96.5459 7.03613L 95.3652 7.03613C 95.3652 6.69336 95.4858 6.36328 95.7271 6.0459C 95.9725 5.72428 96.3026 5.47038 96.7173 5.28418C 97.1362 5.09798 97.5954 5.00488 98.0947 5.00488C 98.8861 5.00488 99.506 5.20378 99.9546 5.60156C 100.403 5.99512 100.636 6.5389 100.653 7.23291L 100.653 10.394C 100.653 11.0246 100.733 11.526 100.894 11.8984L 100.894 12L 99.6626 12ZM 97.7139 11.105C 98.082 11.105 98.4312 11.0098 98.7612 10.8193C 99.0913 10.6289 99.3304 10.3813 99.4785 10.0767L 99.4785 8.66748L 98.5581 8.66748C 97.1193 8.66748 96.3999 9.08854 96.3999 9.93066C 96.3999 10.2988 96.5226 10.5866 96.7681 10.7939C 97.0135 11.0013 97.3288 11.105 97.7139 11.105ZM 104.639 10.2798L 106.239 5.13184L 107.496 5.13184L 104.734 13.0601C 104.307 14.2026 103.628 14.7739 102.697 14.7739L 102.475 14.7549L 102.037 14.6724L 102.037 13.7202L 102.354 13.7456C 102.752 13.7456 103.061 13.6652 103.281 13.5044C 103.505 13.3436 103.689 13.0495 103.833 12.6221L 104.093 11.9238L 101.643 5.13184L 102.925 5.13184L 104.639 10.2798Z"/>
<path id="path3_fill" d="M 17.3652 8.26123L 15.1943 8.26123L 15.1943 12L 13.9692 12L 13.9692 2.75781L 17.0288 2.75781C 18.0698 2.75781 18.8696 2.99479 19.4282 3.46875C 19.991 3.94271 20.2725 4.63249 20.2725 5.53809C 20.2725 6.11361 20.1159 6.61507 19.8027 7.04248C 19.4938 7.46989 19.0622 7.78939 18.5078 8.00098L 20.6787 11.9238L 20.6787 12L 19.3711 12L 17.3652 8.26123ZM 15.1943 7.26465L 17.0669 7.26465C 17.672 7.26465 18.1523 7.10807 18.5078 6.79492C 18.8675 6.48177 19.0474 6.06283 19.0474 5.53809C 19.0474 4.9668 18.876 4.52881 18.5332 4.22412C 18.1947 3.91943 17.7038 3.76497 17.0605 3.76074L 15.1943 3.76074L 15.1943 7.26465ZM 24.6523 12.127C 23.7214 12.127 22.9639 11.8223 22.3799 11.2129C 21.7959 10.5993 21.5039 9.78044 21.5039 8.75635L 21.5039 8.54053C 21.5039 7.85921 21.633 7.25195 21.8911 6.71875C 22.1535 6.18132 22.5174 5.76237 22.9829 5.46191C 23.4526 5.15723 23.9604 5.00488 24.5063 5.00488C 25.3993 5.00488 26.0933 5.29899 26.5884 5.88721C 27.0835 6.47542 27.3311 7.31755 27.3311 8.41357L 27.3311 8.90234L 22.6782 8.90234C 22.6951 9.57943 22.8919 10.1274 23.2686 10.5464C 23.6494 10.9611 24.1318 11.1685 24.7158 11.1685C 25.1305 11.1685 25.4818 11.0838 25.7695 10.9146C 26.0573 10.7453 26.3091 10.521 26.5249 10.2417L 27.2422 10.8003C 26.6667 11.6847 25.8034 12.127 24.6523 12.127ZM 24.5063 5.96973C 24.0324 5.96973 23.6346 6.14323 23.313 6.49023C 22.9914 6.83301 22.7925 7.31543 22.7163 7.9375L 26.1567 7.9375L 26.1567 7.84863C 26.1229 7.25195 25.9621 6.79069 25.6743 6.46484C 25.3866 6.13477 24.9972 5.96973 24.5063 5.96973ZM 32.6948 10.1782C 32.6948 9.86084 32.5742 9.6154 32.333 9.44189C 32.096 9.26416 31.6792 9.11182 31.0825 8.98486C 30.4901 8.85791 30.0182 8.70557 29.667 8.52783C 29.32 8.3501 29.0618 8.13851 28.8926 7.89307C 28.7275 7.64762 28.645 7.35563 28.645 7.01709C 28.645 6.45426 28.882 5.97819 29.356 5.58887C 29.8341 5.19954 30.4435 5.00488 31.1841 5.00488C 31.9627 5.00488 32.5933 5.20589 33.0757 5.60791C 33.5623 6.00993 33.8057 6.52409 33.8057 7.15039L 32.625 7.15039C 32.625 6.82878 32.4875 6.5516 32.2124 6.31885C 31.9416 6.0861 31.5988 5.96973 31.1841 5.96973C 30.7567 5.96973 30.4224 6.06283 30.1812 6.24902C 29.9399 6.43522 29.8193 6.67855 29.8193 6.979C 29.8193 7.26253 29.9315 7.47624 30.1558 7.62012C 30.38 7.764 30.7842 7.90153 31.3682 8.03271C 31.9564 8.1639 32.4325 8.32048 32.7964 8.50244C 33.1603 8.68441 33.429 8.90446 33.6025 9.1626C 33.7803 9.4165 33.8691 9.72754 33.8691 10.0957C 33.8691 10.7093 33.6237 11.2023 33.1328 11.5747C 32.6419 11.9429 32.005 12.127 31.2222 12.127C 30.672 12.127 30.1854 12.0296 29.7622 11.835C 29.339 11.6403 29.0068 11.3695 28.7656 11.0225C 28.5286 10.6712 28.4102 10.2925 28.4102 9.88623L 29.5845 9.88623C 29.6056 10.2798 29.7622 10.5929 30.0542 10.8257C 30.3504 11.0542 30.7397 11.1685 31.2222 11.1685C 31.6665 11.1685 32.022 11.0796 32.2886 10.9019C 32.5594 10.7199 32.6948 10.4787 32.6948 10.1782ZM 39.6392 11.3208C 39.1821 11.8582 38.5114 12.127 37.627 12.127C 36.8949 12.127 36.3363 11.9154 35.9512 11.4922C 35.5703 11.0648 35.3778 10.4342 35.3735 9.60059L 35.3735 5.13184L 36.5479 5.13184L 36.5479 9.56885C 36.5479 10.6099 36.971 11.1304 37.8174 11.1304C 38.7145 11.1304 39.3112 10.7961 39.6074 10.1274L 39.6074 5.13184L 40.7817 5.13184L 40.7817 12L 39.6646 12L 39.6392 11.3208ZM 43.8477 12L 42.6733 12L 42.6733 2.25L 43.8477 2.25L 43.8477 12ZM 47.3262 3.46875L 47.3262 5.13184L 48.6084 5.13184L 48.6084 6.03955L 47.3262 6.03955L 47.3262 10.2988C 47.3262 10.5739 47.3833 10.7812 47.4976 10.9209C 47.6118 11.0563 47.8065 11.124 48.0815 11.124C 48.217 11.124 48.4032 11.0986 48.6401 11.0479L 48.6401 12C 48.3312 12.0846 48.0308 12.127 47.7388 12.127C 47.214 12.127 46.8184 11.9683 46.5518 11.6509C 46.2852 11.3335 46.1519 10.8828 46.1519 10.2988L 46.1519 6.03955L 44.9014 6.03955L 44.9014 5.13184L 46.1519 5.13184L 46.1519 3.46875L 47.3262 3.46875Z"/>
<path id="path4_stroke" d="M 0 0L 0 -0.5L -0.5 -0.5L -0.5 0L 0 0ZM 38.25 0L 38.75 0L 38.75 -0.5L 38.25 -0.5L 38.25 0ZM 38.25 38.4368L 38.25 38.9368L 38.75 38.9368L 38.75 38.4368L 38.25 38.4368ZM 0 38.4368L -0.5 38.4368L -0.5 38.9368L 0 38.9368L 0 38.4368ZM 0 0.5L 38.25 0.5L 38.25 -0.5L 0 -0.5L 0 0.5ZM 37.75 0L 37.75 38.4368L 38.75 38.4368L 38.75 0L 37.75 0ZM 38.25 37.9368L 0 37.9368L 0 38.9368L 38.25 38.9368L 38.25 37.9368ZM 0.5 38.4368L 0.5 0L -0.5 0L -0.5 38.4368L 0.5 38.4368Z"/>
<path id="path5_fill" d="M 0 0L 152 0L 152 152L 0 152L 0 0Z"/>
<path id="path6_stroke_2x" d="M 0 0L 0 -2L -2 -2L -2 0L 0 0ZM 152 0L 154 0L 154 -2L 152 -2L 152 0ZM 152 152L 152 154L 154 154L 154 152L 152 152ZM 0 152L -2 152L -2 154L 0 154L 0 152ZM 0 2L 152 2L 152 -2L 0 -2L 0 2ZM 150 0L 150 152L 154 152L 154 0L 150 0ZM 152 150L 0 150L 0 154L 152 154L 152 150ZM 2 152L 2 0L -2 0L -2 152L 2 152Z"/>
<path id="path7_fill" d="M 14.3933 17L 12.7585 17L 12.7585 6.16309L 9.4802 7.36719L 9.4802 5.89062L 14.1384 4.1416L 14.3933 4.1416L 14.3933 17Z"/>
<path id="path8_fill" d="M 17.074 11.542C 17.074 13.4463 16.7488 14.8613 16.0984 15.7871C 15.448 16.7129 14.4314 17.1758 13.0486 17.1758C 11.6833 17.1758 10.6726 16.7246 10.0163 15.8223C 9.36008 14.9141 9.02024 13.5605 8.9968 11.7617L 8.9968 9.59082C 8.9968 7.70996 9.322 6.3125 9.97239 5.39844C 10.6228 4.48438 11.6423 4.02734 13.031 4.02734C 14.4079 4.02734 15.4216 4.46973 16.072 5.35449C 16.7224 6.2334 17.0564 7.59277 17.074 9.43262L 17.074 11.542ZM 15.448 9.31836C 15.448 7.94141 15.2546 6.93945 14.8679 6.3125C 14.4812 5.67969 13.8689 5.36328 13.031 5.36328C 12.199 5.36328 11.5925 5.67676 11.2116 6.30371C 10.8308 6.93066 10.6345 7.89453 10.6228 9.19531L 10.6228 11.7969C 10.6228 13.1797 10.822 14.2021 11.2204 14.8643C 11.6247 15.5205 12.2341 15.8486 13.0486 15.8486C 13.8513 15.8486 14.446 15.5381 14.8327 14.917C 15.2253 14.2959 15.4304 13.3174 15.448 11.9814L 15.448 9.31836Z"/>
<path id="path9_fill" d="M 10.916 17L 9.28125 17L 9.28125 6.16309L 6.00293 7.36719L 6.00293 5.89062L 10.6611 4.1416L 10.916 4.1416L 10.916 17Z"/>
<path id="path10_fill" d="M 11.4138 9.81055L 12.6355 9.81055C 13.4031 9.79883 14.0066 9.59668 14.446 9.2041C 14.8855 8.81152 15.1052 8.28125 15.1052 7.61328C 15.1052 6.11328 14.3581 5.36328 12.864 5.36328C 12.1609 5.36328 11.5984 5.56543 11.1765 5.96973C 10.7605 6.36816 10.5525 6.89844 10.5525 7.56055L 8.92649 7.56055C 8.92649 6.54687 9.29563 5.70605 10.0339 5.03809C 10.7781 4.36426 11.7214 4.02734 12.864 4.02734C 14.071 4.02734 15.0173 4.34668 15.7029 4.98535C 16.3884 5.62402 16.7312 6.51172 16.7312 7.64844C 16.7312 8.20508 16.5495 8.74414 16.1863 9.26562C 15.8288 9.78711 15.3396 10.1768 14.7185 10.4346C 15.4216 10.6572 15.9636 11.0264 16.3445 11.542C 16.7312 12.0576 16.9245 12.6875 16.9245 13.4316C 16.9245 14.5801 16.5495 15.4912 15.7995 16.165C 15.0495 16.8389 14.074 17.1758 12.8728 17.1758C 11.6716 17.1758 10.6931 16.8506 9.93723 16.2002C 9.18723 15.5498 8.81223 14.6914 8.81223 13.625L 10.447 13.625C 10.447 14.2988 10.6667 14.8379 11.1062 15.2422C 11.5456 15.6465 12.1345 15.8486 12.8728 15.8486C 13.6579 15.8486 14.2585 15.6436 14.6745 15.2334C 15.0906 14.8232 15.2986 14.2344 15.2986 13.4668C 15.2986 12.7227 15.07 12.1514 14.613 11.7529C 14.156 11.3545 13.4968 11.1494 12.6355 11.1377L 11.4138 11.1377L 11.4138 9.81055Z"/>
<path id="path11_fill" d="M 15.9138 12.7021L 17.6892 12.7021L 17.6892 14.0293L 15.9138 14.0293L 15.9138 17L 14.279 17L 14.279 14.0293L 8.45188 14.0293L 8.45188 13.0713L 14.1823 4.20312L 15.9138 4.20312L 15.9138 12.7021ZM 10.2976 12.7021L 14.279 12.7021L 14.279 6.42676L 14.0857 6.77832L 10.2976 12.7021Z"/>
<path id="path12_fill" d="M 13.5967 11.542C 13.5967 13.4463 13.2715 14.8613 12.6211 15.7871C 11.9707 16.7129 10.9541 17.1758 9.57129 17.1758C 8.20605 17.1758 7.19531 16.7246 6.53906 15.8223C 5.88281 14.9141 5.54297 13.5605 5.51953 11.7617L 5.51953 9.59082C 5.51953 7.70996 5.84473 6.3125 6.49512 5.39844C 7.14551 4.48438 8.16504 4.02734 9.55371 4.02734C 10.9307 4.02734 11.9443 4.46973 12.5947 5.35449C 13.2451 6.2334 13.5791 7.59277 13.5967 9.43262L 13.5967 11.542ZM 11.9707 9.31836C 11.9707 7.94141 11.7773 6.93945 11.3906 6.3125C 11.0039 5.67969 10.3916 5.36328 9.55371 5.36328C 8.72168 5.36328 8.11523 5.67676 7.73438 6.30371C 7.35352 6.93066 7.15723 7.89453 7.14551 9.19531L 7.14551 11.7969C 7.14551 13.1797 7.34473 14.2021 7.74316 14.8643C 8.14746 15.5205 8.75684 15.8486 9.57129 15.8486C 10.374 15.8486 10.9688 15.5381 11.3555 14.917C 11.748 14.2959 11.9531 13.3174 11.9707 11.9814L 11.9707 9.31836Z"/>
<path id="path13_fill" d="M 17.4343 17L 9.04954 17L 9.04954 15.8311L 13.4792 10.9092C 14.1355 10.165 14.5866 9.56152 14.8327 9.09863C 15.0847 8.62988 15.2107 8.14648 15.2107 7.64844C 15.2107 6.98047 15.0085 6.43262 14.6042 6.00488C 14.1999 5.57715 13.6609 5.36328 12.987 5.36328C 12.1784 5.36328 11.5486 5.59473 11.0974 6.05762C 10.6521 6.51465 10.4294 7.15332 10.4294 7.97363L 8.80344 7.97363C 8.80344 6.7959 9.18137 5.84375 9.93723 5.11719C 10.699 4.39063 11.7156 4.02734 12.987 4.02734C 14.1765 4.02734 15.1169 4.34082 15.8083 4.96777C 16.4997 5.58887 16.8454 6.41797 16.8454 7.45508C 16.8454 8.71484 16.0427 10.2148 14.4372 11.9551L 11.0095 15.6729L 17.4343 15.6729L 17.4343 17Z"/>
<path id="path14_fill" d="M 7.93652 9.81055L 9.1582 9.81055C 9.92578 9.79883 10.5293 9.59668 10.9688 9.2041C 11.4082 8.81152 11.6279 8.28125 11.6279 7.61328C 11.6279 6.11328 10.8809 5.36328 9.38672 5.36328C 8.68359 5.36328 8.12109 5.56543 7.69922 5.96973C 7.2832 6.36816 7.0752 6.89844 7.0752 7.56055L 5.44922 7.56055C 5.44922 6.54687 5.81836 5.70605 6.55664 5.03809C 7.30078 4.36426 8.24414 4.02734 9.38672 4.02734C 10.5937 4.02734 11.54 4.34668 12.2256 4.98535C 12.9111 5.62402 13.2539 6.51172 13.2539 7.64844C 13.2539 8.20508 13.0723 8.74414 12.709 9.26562C 12.3516 9.78711 11.8623 10.1768 11.2412 10.4346C 11.9443 10.6572 12.4863 11.0264 12.8672 11.542C 13.2539 12.0576 13.4473 12.6875 13.4473 13.4316C 13.4473 14.5801 13.0723 15.4912 12.3223 16.165C 11.5723 16.8389 10.5967 17.1758 9.39551 17.1758C 8.19434 17.1758 7.21582 16.8506 6.45996 16.2002C 5.70996 15.5498 5.33496 14.6914 5.33496 13.625L 6.96973 13.625C 6.96973 14.2988 7.18945 14.8379 7.62891 15.2422C 8.06836 15.6465 8.65723 15.8486 9.39551 15.8486C 10.1807 15.8486 10.7813 15.6436 11.1973 15.2334C 11.6133 14.8232 11.8213 14.2344 11.8213 13.4668C 11.8213 12.7227 11.5928 12.1514 11.1357 11.7529C 10.6787 11.3545 10.0195 11.1494 9.1582 11.1377L 7.93652 11.1377L 7.93652 9.81055Z"/>
<path id="path15_fill" d="M 0 0L 38 0L 38 38L 0 38L 0 0Z"/>
<path id="path16_stroke_2x" d="M 0 0L 0 -2L -2 -2L -2 0L 0 0ZM 38 0L 40 0L 40 -2L 38 -2L 38 0ZM 38 38L 38 40L 40 40L 40 38L 38 38ZM 0 38L -2 38L -2 40L 0 40L 0 38ZM 0 2L 38 2L 38 -2L 0 -2L 0 2ZM 36 0L 36 38L 40 38L 40 0L 36 0ZM 38 36L 0 36L 0 40L 38 40L 38 36ZM 2 38L 2 0L -2 0L -2 38L 2 38Z"/>
</defs>
</svg>
