<svg width="561" height="120" viewBox="0 0 561 120" fill="none" xmlns="http://www.w3.org/2000/svg">
<rect width="561" height="120" fill="white"/>
<rect x="47" y="63" width="22" height="22" stroke="black"/>
<rect x="69" y="63" width="22" height="22" stroke="black"/>
<rect x="91" y="63" width="22" height="22" stroke="black"/>
<rect x="113" y="63" width="22" height="22" stroke="black"/>
<rect x="135" y="63" width="22" height="22" stroke="black"/>
<path d="M67.4258 109L69.1553 99.0469L71.7393 99.0537C72.5505 99.0537 73.2477 99.2565 73.8311 99.6621C74.4189 100.068 74.8405 100.628 75.0957 101.344C75.3509 102.055 75.4261 102.852 75.3213 103.736L75.2529 104.235C75.0524 105.685 74.4896 106.842 73.5645 107.708C72.6393 108.569 71.4772 109 70.0781 109H67.4258ZM70.249 100.127L68.8955 107.927L70.1602 107.934C71.1263 107.934 71.9443 107.633 72.6143 107.031C73.2887 106.43 73.7262 105.605 73.9268 104.557C74.0863 103.718 74.141 103.005 74.0908 102.417C74.0225 101.711 73.7878 101.159 73.3867 100.763C72.9857 100.362 72.4479 100.152 71.7734 100.134L70.249 100.127ZM77.5566 109H76.3262L77.6113 101.604H78.8418L77.5566 109ZM78.5752 98.9033C78.7848 98.8942 78.958 98.958 79.0947 99.0947C79.236 99.2269 79.3066 99.4023 79.3066 99.6211C79.3021 99.8353 79.2314 100.011 79.0947 100.147C78.9626 100.284 78.7894 100.357 78.5752 100.366C78.361 100.375 78.1855 100.314 78.0488 100.182C77.9121 100.049 77.846 99.8763 77.8506 99.6621C77.8551 99.4479 77.9235 99.2702 78.0557 99.1289C78.1878 98.9876 78.361 98.9124 78.5752 98.9033ZM82.0205 101.597L81.8633 102.424C82.4831 101.768 83.2327 101.449 84.1123 101.467C84.5817 101.476 84.9782 101.583 85.3018 101.788C85.6299 101.993 85.8555 102.283 85.9785 102.656C86.6712 101.845 87.4893 101.449 88.4326 101.467C89.1709 101.485 89.7155 101.733 90.0664 102.212C90.4173 102.69 90.5472 103.333 90.4561 104.14L89.6426 109H88.4121L89.2188 104.126C89.2461 103.889 89.2461 103.673 89.2188 103.477C89.1322 102.857 88.7266 102.54 88.002 102.526C87.5508 102.517 87.1406 102.659 86.7715 102.95C86.4069 103.237 86.1722 103.616 86.0674 104.085L85.2266 109H83.9824L84.8027 104.133C84.862 103.627 84.7845 103.237 84.5703 102.964C84.3607 102.69 84.0326 102.549 83.5859 102.54C82.8158 102.522 82.2028 102.873 81.7471 103.593L80.8105 109H79.5732L80.8584 101.604L82.0205 101.597ZM94.7559 109.137C93.8353 109.118 93.1152 108.779 92.5957 108.118C92.0762 107.457 91.8574 106.612 91.9395 105.582L91.9736 105.288C92.0511 104.554 92.2676 103.884 92.623 103.278C92.9831 102.672 93.4206 102.216 93.9355 101.911C94.4505 101.601 95.0065 101.453 95.6035 101.467C96.3646 101.485 96.9616 101.738 97.3945 102.226C97.8275 102.713 98.0645 103.374 98.1055 104.208C98.1191 104.504 98.11 104.8 98.0781 105.097L98.0029 105.664H93.1699C93.0879 106.334 93.1973 106.904 93.498 107.373C93.8034 107.842 94.2568 108.086 94.8584 108.104C95.5876 108.123 96.262 107.795 96.8818 107.12L97.5928 107.722C97.2829 108.168 96.8818 108.519 96.3896 108.774C95.902 109.025 95.3574 109.146 94.7559 109.137ZM95.542 102.499C95.0316 102.485 94.585 102.659 94.2021 103.019C93.8239 103.379 93.5231 103.914 93.2998 104.625L96.8955 104.632L96.9229 104.522C96.9958 103.948 96.9023 103.472 96.6426 103.094C96.3874 102.711 96.0205 102.513 95.542 102.499ZM101.271 101.597L101.093 102.533C101.758 101.804 102.515 101.449 103.362 101.467C104.06 101.485 104.575 101.727 104.907 102.191C105.24 102.656 105.363 103.31 105.276 104.153L104.47 109H103.232L104.046 104.133C104.073 103.91 104.076 103.702 104.053 103.511C103.975 102.873 103.599 102.547 102.925 102.533C102.182 102.52 101.53 102.916 100.97 103.723L100.054 109H98.8164L100.102 101.604L101.271 101.597ZM110.957 106.997C111.025 106.487 110.745 106.127 110.116 105.917L108.831 105.541C107.746 105.167 107.222 104.548 107.259 103.682C107.291 103.03 107.587 102.497 108.147 102.082C108.713 101.663 109.376 101.458 110.137 101.467C110.884 101.476 111.49 101.695 111.955 102.123C112.424 102.547 112.65 103.101 112.632 103.784L111.401 103.777C111.41 103.408 111.294 103.107 111.053 102.875C110.811 102.643 110.49 102.522 110.089 102.513C109.66 102.504 109.291 102.608 108.981 102.827C108.694 103.032 108.528 103.301 108.482 103.634C108.423 104.062 108.685 104.374 109.269 104.57L109.891 104.741C110.738 104.96 111.34 105.245 111.695 105.596C112.051 105.947 112.215 106.382 112.188 106.901C112.16 107.362 112.01 107.763 111.736 108.104C111.463 108.446 111.098 108.708 110.643 108.891C110.187 109.068 109.701 109.15 109.187 109.137C108.403 109.128 107.756 108.9 107.245 108.453C106.735 108.002 106.489 107.423 106.507 106.717L107.744 106.724C107.744 107.138 107.876 107.471 108.141 107.722C108.405 107.972 108.767 108.098 109.228 108.098C109.679 108.107 110.068 108.013 110.396 107.817C110.725 107.617 110.911 107.343 110.957 106.997ZM114.785 109H113.555L114.84 101.604H116.07L114.785 109ZM115.804 98.9033C116.013 98.8942 116.187 98.958 116.323 99.0947C116.465 99.2269 116.535 99.4023 116.535 99.6211C116.531 99.8353 116.46 100.011 116.323 100.147C116.191 100.284 116.018 100.357 115.804 100.366C115.59 100.375 115.414 100.314 115.277 100.182C115.141 100.049 115.075 99.8763 115.079 99.6621C115.084 99.4479 115.152 99.2702 115.284 99.1289C115.416 98.9876 115.59 98.9124 115.804 98.9033ZM120.917 101.467C121.537 101.476 122.068 101.645 122.51 101.973C122.952 102.301 123.278 102.754 123.487 103.333C123.701 103.907 123.774 104.536 123.706 105.22L123.692 105.37C123.606 106.09 123.392 106.742 123.05 107.325C122.708 107.904 122.266 108.355 121.724 108.679C121.181 109.002 120.587 109.155 119.939 109.137C119.324 109.128 118.793 108.959 118.347 108.631C117.905 108.303 117.581 107.856 117.376 107.291C117.171 106.726 117.098 106.104 117.157 105.425C117.226 104.659 117.433 103.971 117.779 103.36C118.126 102.75 118.57 102.278 119.112 101.945C119.659 101.608 120.261 101.449 120.917 101.467ZM118.401 105.432C118.369 105.719 118.369 106.017 118.401 106.327C118.447 106.865 118.606 107.293 118.88 107.612C119.158 107.931 119.527 108.098 119.987 108.111C120.397 108.125 120.776 108.025 121.122 107.811C121.468 107.592 121.76 107.264 121.997 106.826C122.234 106.389 122.387 105.903 122.455 105.37C122.492 104.951 122.498 104.598 122.476 104.311C122.421 103.759 122.255 103.324 121.977 103.005C121.699 102.686 121.329 102.517 120.869 102.499C120.231 102.485 119.689 102.736 119.242 103.251C118.796 103.766 118.52 104.44 118.415 105.274L118.401 105.432ZM127.083 101.597L126.905 102.533C127.571 101.804 128.327 101.449 129.175 101.467C129.872 101.485 130.387 101.727 130.72 102.191C131.052 102.656 131.175 103.31 131.089 104.153L130.282 109H129.045L129.858 104.133C129.886 103.91 129.888 103.702 129.865 103.511C129.788 102.873 129.412 102.547 128.737 102.533C127.994 102.52 127.343 102.916 126.782 103.723L125.866 109H124.629L125.914 101.604L127.083 101.597Z" fill="#EB5757"/>
<path d="M156.707 95.7071C157.098 95.3166 157.098 94.6834 156.707 94.2929L150.343 87.9289C149.953 87.5384 149.319 87.5384 148.929 87.9289C148.538 88.3195 148.538 88.9526 148.929 89.3431L154.586 95L148.929 100.657C148.538 101.047 148.538 101.681 148.929 102.071C149.319 102.462 149.953 102.462 150.343 102.071L156.707 95.7071ZM46 96H156V94H46V96Z" fill="#EB5757"/>
<path d="M291.925 74.3447C291.925 75.32 291.761 76.1722 291.433 76.9014C291.104 77.626 290.64 78.1797 290.038 78.5625C289.437 78.9453 288.735 79.1367 287.933 79.1367C287.149 79.1367 286.454 78.9453 285.848 78.5625C285.242 78.1751 284.77 77.626 284.433 76.915C284.1 76.1995 283.929 75.3724 283.92 74.4336V73.7158C283.92 72.7588 284.086 71.9134 284.419 71.1797C284.752 70.446 285.221 69.8854 285.827 69.498C286.438 69.1061 287.135 68.9102 287.919 68.9102C288.716 68.9102 289.418 69.1038 290.024 69.4912C290.635 69.874 291.104 70.4323 291.433 71.166C291.761 71.8952 291.925 72.7451 291.925 73.7158V74.3447ZM290.619 73.7021C290.619 72.5218 290.382 71.6172 289.908 70.9883C289.434 70.3548 288.771 70.0381 287.919 70.0381C287.09 70.0381 286.436 70.3548 285.957 70.9883C285.483 71.6172 285.239 72.4922 285.226 73.6133V74.3447C285.226 75.4886 285.465 76.3887 285.943 77.0449C286.426 77.6966 287.09 78.0225 287.933 78.0225C288.78 78.0225 289.437 77.7148 289.901 77.0996C290.366 76.4798 290.605 75.5934 290.619 74.4404V73.7021ZM294.892 71.6035L294.933 72.5332C295.498 71.8223 296.236 71.4668 297.147 71.4668C298.711 71.4668 299.499 72.3486 299.513 74.1123V79H298.248V74.1055C298.243 73.5723 298.12 73.1781 297.879 72.9229C297.642 72.6676 297.271 72.54 296.765 72.54C296.354 72.54 295.994 72.6494 295.685 72.8682C295.375 73.0869 295.133 73.374 294.96 73.7295V79H293.695V71.6035H294.892ZM304.489 79.1367C303.487 79.1367 302.671 78.8086 302.042 78.1523C301.413 77.4915 301.099 76.6097 301.099 75.5068V75.2744C301.099 74.5407 301.238 73.8867 301.516 73.3125C301.798 72.7337 302.19 72.2826 302.691 71.959C303.197 71.6309 303.744 71.4668 304.332 71.4668C305.294 71.4668 306.041 71.7835 306.574 72.417C307.107 73.0505 307.374 73.9574 307.374 75.1377V75.6641H302.363C302.382 76.3932 302.593 76.9834 302.999 77.4346C303.409 77.8812 303.929 78.1045 304.558 78.1045C305.004 78.1045 305.382 78.0133 305.692 77.8311C306.002 77.6488 306.273 77.4072 306.506 77.1064L307.278 77.708C306.659 78.6605 305.729 79.1367 304.489 79.1367ZM304.332 72.5059C303.822 72.5059 303.393 72.6927 303.047 73.0664C302.701 73.4355 302.486 73.9551 302.404 74.625H306.109V74.5293C306.073 73.8867 305.9 73.39 305.59 73.0391C305.28 72.6836 304.861 72.5059 304.332 72.5059Z" fill="black"/>
<path d="M232.186 32H230.135L226.143 25.4512V32H224.092V22.0469H226.143L230.142 28.6094V22.0469H232.186V32ZM238.276 31.248C237.789 31.8405 237.114 32.1367 236.253 32.1367C235.46 32.1367 234.854 31.9089 234.435 31.4531C234.02 30.9974 233.808 30.3298 233.799 29.4502V24.6035H235.774V29.3818C235.774 30.152 236.125 30.5371 236.827 30.5371C237.497 30.5371 237.957 30.3047 238.208 29.8398V24.6035H240.19V32H238.331L238.276 31.248ZM243.533 24.6035L243.595 25.4307C244.119 24.7881 244.827 24.4668 245.721 24.4668C246.673 24.4668 247.327 24.8428 247.683 25.5947C248.202 24.8428 248.943 24.4668 249.904 24.4668C250.706 24.4668 251.303 24.7015 251.695 25.1709C252.087 25.6357 252.283 26.3376 252.283 27.2764V32H250.301V27.2832C250.301 26.8639 250.219 26.5586 250.055 26.3672C249.891 26.1712 249.601 26.0732 249.187 26.0732C248.594 26.0732 248.184 26.3558 247.956 26.9209L247.963 32H245.987V27.29C245.987 26.8617 245.903 26.5518 245.734 26.3604C245.566 26.1689 245.279 26.0732 244.873 26.0732C244.312 26.0732 243.907 26.3057 243.656 26.7705V32H241.681V24.6035H243.533ZM260.473 28.3701C260.473 29.555 260.22 30.4801 259.714 31.1455C259.208 31.8063 258.502 32.1367 257.595 32.1367C256.793 32.1367 256.152 31.8291 255.674 31.2139L255.585 32H253.808V21.5H255.783V25.2666C256.239 24.7334 256.838 24.4668 257.581 24.4668C258.483 24.4668 259.19 24.7995 259.7 25.4648C260.215 26.1257 260.473 27.0576 260.473 28.2607V28.3701ZM258.497 28.2266C258.497 27.4792 258.379 26.9346 258.142 26.5928C257.905 26.2464 257.551 26.0732 257.082 26.0732C256.453 26.0732 256.02 26.3307 255.783 26.8457V29.7646C256.025 30.2842 256.462 30.5439 257.096 30.5439C257.734 30.5439 258.153 30.2295 258.354 29.6006C258.449 29.2998 258.497 28.8418 258.497 28.2266ZM265.101 32.1367C264.016 32.1367 263.132 31.804 262.448 31.1387C261.769 30.4733 261.43 29.5869 261.43 28.4795V28.2881C261.43 27.5452 261.573 26.8822 261.86 26.2988C262.147 25.7109 262.553 25.2598 263.077 24.9453C263.606 24.6263 264.207 24.4668 264.882 24.4668C265.894 24.4668 266.689 24.7858 267.268 25.4238C267.851 26.0618 268.143 26.9665 268.143 28.1377V28.9443H263.433C263.496 29.4274 263.688 29.8148 264.007 30.1064C264.33 30.3981 264.738 30.5439 265.23 30.5439C265.992 30.5439 266.586 30.2682 267.015 29.7168L267.985 30.8037C267.689 31.223 267.288 31.5511 266.782 31.7881C266.276 32.0205 265.716 32.1367 265.101 32.1367ZM264.875 26.0664C264.483 26.0664 264.164 26.1986 263.918 26.4629C263.676 26.7272 263.521 27.1055 263.453 27.5977H266.201V27.4404C266.192 27.0029 266.074 26.6657 265.846 26.4287C265.618 26.1872 265.294 26.0664 264.875 26.0664ZM273.427 26.4561C273.158 26.4196 272.921 26.4014 272.716 26.4014C271.968 26.4014 271.479 26.6543 271.246 27.1602V32H269.271V24.6035H271.137L271.191 25.4854C271.588 24.8063 272.137 24.4668 272.839 24.4668C273.058 24.4668 273.263 24.4964 273.454 24.5557L273.427 26.4561ZM277.562 28.2334C277.562 27.4997 277.704 26.8457 277.986 26.2715C278.269 25.6973 278.674 25.2529 279.203 24.9385C279.736 24.624 280.354 24.4668 281.056 24.4668C282.054 24.4668 282.867 24.7721 283.496 25.3828C284.13 25.9935 284.483 26.8229 284.556 27.8711L284.569 28.377C284.569 29.5117 284.253 30.4232 283.619 31.1113C282.986 31.7949 282.136 32.1367 281.069 32.1367C280.003 32.1367 279.151 31.7949 278.513 31.1113C277.879 30.4277 277.562 29.498 277.562 28.3223V28.2334ZM279.538 28.377C279.538 29.0788 279.67 29.6165 279.935 29.9902C280.199 30.3594 280.577 30.5439 281.069 30.5439C281.548 30.5439 281.922 30.3617 282.19 29.9971C282.459 29.6279 282.594 29.04 282.594 28.2334C282.594 27.5452 282.459 27.012 282.19 26.6338C281.922 26.2555 281.543 26.0664 281.056 26.0664C280.573 26.0664 280.199 26.2555 279.935 26.6338C279.67 27.0075 279.538 27.5885 279.538 28.377ZM286.326 32V26.0527H285.226V24.6035H286.326V23.9746C286.326 23.1452 286.563 22.5026 287.037 22.0469C287.516 21.5866 288.183 21.3564 289.04 21.3564C289.313 21.3564 289.648 21.402 290.045 21.4932L290.024 23.0244C289.86 22.9834 289.66 22.9629 289.423 22.9629C288.68 22.9629 288.309 23.3115 288.309 24.0088V24.6035H289.778V26.0527H288.309V32H286.326ZM294.42 32V22.0469H297.482C298.357 22.0469 299.139 22.2451 299.827 22.6416C300.52 23.0335 301.06 23.5941 301.447 24.3232C301.835 25.0479 302.028 25.8727 302.028 26.7979V27.2559C302.028 28.181 301.837 29.0036 301.454 29.7236C301.076 30.4437 300.54 31.002 299.848 31.3984C299.155 31.7949 298.373 31.9954 297.503 32H294.42ZM296.471 23.708V30.3525H297.462C298.264 30.3525 298.877 30.0905 299.301 29.5664C299.725 29.0423 299.941 28.2926 299.95 27.3174V26.791C299.95 25.7793 299.741 25.0137 299.321 24.4941C298.902 23.9701 298.289 23.708 297.482 23.708H296.471ZM305.48 32H303.498V24.6035H305.48V32ZM303.382 22.6895C303.382 22.3932 303.48 22.1494 303.676 21.958C303.876 21.7666 304.147 21.6709 304.489 21.6709C304.826 21.6709 305.095 21.7666 305.296 21.958C305.496 22.1494 305.597 22.3932 305.597 22.6895C305.597 22.9902 305.494 23.2363 305.289 23.4277C305.089 23.6191 304.822 23.7148 304.489 23.7148C304.157 23.7148 303.888 23.6191 303.683 23.4277C303.482 23.2363 303.382 22.9902 303.382 22.6895ZM308.967 24.6035L309.028 25.4307C309.552 24.7881 310.261 24.4668 311.154 24.4668C312.107 24.4668 312.761 24.8428 313.116 25.5947C313.636 24.8428 314.376 24.4668 315.338 24.4668C316.14 24.4668 316.737 24.7015 317.129 25.1709C317.521 25.6357 317.717 26.3376 317.717 27.2764V32H315.734V27.2832C315.734 26.8639 315.652 26.5586 315.488 26.3672C315.324 26.1712 315.035 26.0732 314.62 26.0732C314.028 26.0732 313.618 26.3558 313.39 26.9209L313.396 32H311.421V27.29C311.421 26.8617 311.337 26.5518 311.168 26.3604C310.999 26.1689 310.712 26.0732 310.307 26.0732C309.746 26.0732 309.34 26.3057 309.09 26.7705V32H307.114V24.6035H308.967ZM322.646 32.1367C321.561 32.1367 320.677 31.804 319.993 31.1387C319.314 30.4733 318.975 29.5869 318.975 28.4795V28.2881C318.975 27.5452 319.118 26.8822 319.405 26.2988C319.692 25.7109 320.098 25.2598 320.622 24.9453C321.151 24.6263 321.752 24.4668 322.427 24.4668C323.438 24.4668 324.234 24.7858 324.812 25.4238C325.396 26.0618 325.688 26.9665 325.688 28.1377V28.9443H320.978C321.041 29.4274 321.233 29.8148 321.552 30.1064C321.875 30.3981 322.283 30.5439 322.775 30.5439C323.536 30.5439 324.131 30.2682 324.56 29.7168L325.53 30.8037C325.234 31.223 324.833 31.5511 324.327 31.7881C323.821 32.0205 323.261 32.1367 322.646 32.1367ZM322.42 26.0664C322.028 26.0664 321.709 26.1986 321.463 26.4629C321.221 26.7272 321.066 27.1055 320.998 27.5977H323.746V27.4404C323.737 27.0029 323.618 26.6657 323.391 26.4287C323.163 26.1872 322.839 26.0664 322.42 26.0664ZM328.634 24.6035L328.695 25.458C329.224 24.7972 329.933 24.4668 330.821 24.4668C331.605 24.4668 332.188 24.6969 332.571 25.1572C332.954 25.6175 333.15 26.3057 333.159 27.2217V32H331.184V27.2695C331.184 26.8503 331.092 26.5472 330.91 26.3604C330.728 26.1689 330.425 26.0732 330.001 26.0732C329.445 26.0732 329.028 26.3102 328.75 26.7842V32H326.774V24.6035H328.634ZM338.669 29.9561C338.669 29.7145 338.548 29.5254 338.307 29.3887C338.07 29.2474 337.687 29.1221 337.158 29.0127C335.399 28.6436 334.52 27.8962 334.52 26.7705C334.52 26.1143 334.791 25.5674 335.333 25.1299C335.88 24.6878 336.593 24.4668 337.473 24.4668C338.411 24.4668 339.161 24.6878 339.722 25.1299C340.287 25.5719 340.569 26.1462 340.569 26.8525H338.594C338.594 26.57 338.503 26.3376 338.32 26.1553C338.138 25.9684 337.853 25.875 337.466 25.875C337.133 25.875 336.876 25.9502 336.693 26.1006C336.511 26.251 336.42 26.4424 336.42 26.6748C336.42 26.8936 336.522 27.0713 336.728 27.208C336.937 27.3402 337.288 27.4564 337.78 27.5566C338.272 27.6523 338.687 27.7617 339.024 27.8848C340.068 28.2676 340.59 28.9307 340.59 29.874C340.59 30.5485 340.3 31.0954 339.722 31.5146C339.143 31.9294 338.396 32.1367 337.479 32.1367C336.86 32.1367 336.308 32.0273 335.825 31.8086C335.347 31.5853 334.971 31.2822 334.697 30.8994C334.424 30.512 334.287 30.0951 334.287 29.6484H336.16C336.178 29.9993 336.308 30.2682 336.55 30.4551C336.791 30.6419 337.115 30.7354 337.521 30.7354C337.899 30.7354 338.184 30.6647 338.375 30.5234C338.571 30.3776 338.669 30.1885 338.669 29.9561ZM343.953 32H341.971V24.6035H343.953V32ZM341.854 22.6895C341.854 22.3932 341.952 22.1494 342.148 21.958C342.349 21.7666 342.62 21.6709 342.962 21.6709C343.299 21.6709 343.568 21.7666 343.769 21.958C343.969 22.1494 344.069 22.3932 344.069 22.6895C344.069 22.9902 343.967 23.2363 343.762 23.4277C343.561 23.6191 343.295 23.7148 342.962 23.7148C342.629 23.7148 342.36 23.6191 342.155 23.4277C341.955 23.2363 341.854 22.9902 341.854 22.6895ZM345.279 28.2334C345.279 27.4997 345.421 26.8457 345.703 26.2715C345.986 25.6973 346.391 25.2529 346.92 24.9385C347.453 24.624 348.071 24.4668 348.772 24.4668C349.771 24.4668 350.584 24.7721 351.213 25.3828C351.846 25.9935 352.2 26.8229 352.272 27.8711L352.286 28.377C352.286 29.5117 351.969 30.4232 351.336 31.1113C350.702 31.7949 349.853 32.1367 348.786 32.1367C347.72 32.1367 346.868 31.7949 346.229 31.1113C345.596 30.4277 345.279 29.498 345.279 28.3223V28.2334ZM347.255 28.377C347.255 29.0788 347.387 29.6165 347.651 29.9902C347.916 30.3594 348.294 30.5439 348.786 30.5439C349.265 30.5439 349.638 30.3617 349.907 29.9971C350.176 29.6279 350.311 29.04 350.311 28.2334C350.311 27.5452 350.176 27.012 349.907 26.6338C349.638 26.2555 349.26 26.0664 348.772 26.0664C348.289 26.0664 347.916 26.2555 347.651 26.6338C347.387 27.0075 347.255 27.5885 347.255 28.377ZM355.321 24.6035L355.383 25.458C355.911 24.7972 356.62 24.4668 357.509 24.4668C358.293 24.4668 358.876 24.6969 359.259 25.1572C359.642 25.6175 359.838 26.3057 359.847 27.2217V32H357.871V27.2695C357.871 26.8503 357.78 26.5472 357.598 26.3604C357.415 26.1689 357.112 26.0732 356.688 26.0732C356.132 26.0732 355.715 26.3102 355.438 26.7842V32H353.462V24.6035H355.321ZM365.356 29.9561C365.356 29.7145 365.236 29.5254 364.994 29.3887C364.757 29.2474 364.374 29.1221 363.846 29.0127C362.087 28.6436 361.207 27.8962 361.207 26.7705C361.207 26.1143 361.478 25.5674 362.021 25.1299C362.567 24.6878 363.281 24.4668 364.16 24.4668C365.099 24.4668 365.849 24.6878 366.409 25.1299C366.974 25.5719 367.257 26.1462 367.257 26.8525H365.281C365.281 26.57 365.19 26.3376 365.008 26.1553C364.826 25.9684 364.541 25.875 364.153 25.875C363.821 25.875 363.563 25.9502 363.381 26.1006C363.199 26.251 363.107 26.4424 363.107 26.6748C363.107 26.8936 363.21 27.0713 363.415 27.208C363.625 27.3402 363.976 27.4564 364.468 27.5566C364.96 27.6523 365.375 27.7617 365.712 27.8848C366.756 28.2676 367.277 28.9307 367.277 29.874C367.277 30.5485 366.988 31.0954 366.409 31.5146C365.83 31.9294 365.083 32.1367 364.167 32.1367C363.547 32.1367 362.996 32.0273 362.513 31.8086C362.034 31.5853 361.658 31.2822 361.385 30.8994C361.111 30.512 360.975 30.0951 360.975 29.6484H362.848C362.866 29.9993 362.996 30.2682 363.237 30.4551C363.479 30.6419 363.802 30.7354 364.208 30.7354C364.586 30.7354 364.871 30.6647 365.062 30.5234C365.258 30.3776 365.356 30.1885 365.356 29.9561Z" fill="black"/>
<path d="M436.448 58.3447C436.448 59.32 436.284 60.1722 435.956 60.9014C435.628 61.626 435.163 62.1797 434.562 62.5625C433.96 62.9453 433.258 63.1367 432.456 63.1367C431.672 63.1367 430.977 62.9453 430.371 62.5625C429.765 62.1751 429.293 61.626 428.956 60.915C428.623 60.1995 428.452 59.3724 428.443 58.4336V57.7158C428.443 56.7588 428.61 55.9134 428.942 55.1797C429.275 54.446 429.744 53.8854 430.351 53.498C430.961 53.1061 431.659 52.9102 432.442 52.9102C433.24 52.9102 433.942 53.1038 434.548 53.4912C435.159 53.874 435.628 54.4323 435.956 55.166C436.284 55.8952 436.448 56.7451 436.448 57.7158V58.3447ZM435.143 57.7021C435.143 56.5218 434.906 55.6172 434.432 54.9883C433.958 54.3548 433.295 54.0381 432.442 54.0381C431.613 54.0381 430.959 54.3548 430.48 54.9883C430.007 55.6172 429.763 56.4922 429.749 57.6133V58.3447C429.749 59.4886 429.988 60.3887 430.467 61.0449C430.95 61.6966 431.613 62.0225 432.456 62.0225C433.304 62.0225 433.96 61.7148 434.425 61.0996C434.89 60.4798 435.129 59.5934 435.143 58.4404V57.7021ZM439.415 55.6035L439.456 56.5332C440.021 55.8223 440.759 55.4668 441.671 55.4668C443.234 55.4668 444.022 56.3486 444.036 58.1123V63H442.771V58.1055C442.767 57.5723 442.644 57.1781 442.402 56.9229C442.165 56.6676 441.794 56.54 441.288 56.54C440.878 56.54 440.518 56.6494 440.208 56.8682C439.898 57.0869 439.657 57.374 439.483 57.7295V63H438.219V55.6035H439.415ZM449.013 63.1367C448.01 63.1367 447.194 62.8086 446.565 62.1523C445.937 61.4915 445.622 60.6097 445.622 59.5068V59.2744C445.622 58.5407 445.761 57.8867 446.039 57.3125C446.322 56.7337 446.714 56.2826 447.215 55.959C447.721 55.6309 448.268 55.4668 448.855 55.4668C449.817 55.4668 450.564 55.7835 451.098 56.417C451.631 57.0505 451.897 57.9574 451.897 59.1377V59.6641H446.887C446.905 60.3932 447.117 60.9834 447.522 61.4346C447.933 61.8812 448.452 62.1045 449.081 62.1045C449.528 62.1045 449.906 62.0133 450.216 61.8311C450.526 61.6488 450.797 61.4072 451.029 61.1064L451.802 61.708C451.182 62.6605 450.252 63.1367 449.013 63.1367ZM448.855 56.5059C448.345 56.5059 447.917 56.6927 447.57 57.0664C447.224 57.4355 447.01 57.9551 446.928 58.625H450.633V58.5293C450.596 57.8867 450.423 57.39 450.113 57.0391C449.803 56.6836 449.384 56.5059 448.855 56.5059ZM455.999 59.2881H452.663V58.2559H455.999V59.2881ZM456.929 59.2402C456.929 58.1055 457.198 57.194 457.735 56.5059C458.273 55.8132 458.977 55.4668 459.848 55.4668C460.714 55.4668 461.399 55.763 461.905 56.3555V52.5H463.17V63H462.008L461.946 62.207C461.44 62.8268 460.736 63.1367 459.834 63.1367C458.977 63.1367 458.278 62.7858 457.735 62.084C457.198 61.3822 456.929 60.4661 456.929 59.3359V59.2402ZM458.193 59.3838C458.193 60.2223 458.367 60.8786 458.713 61.3525C459.059 61.8265 459.538 62.0635 460.148 62.0635C460.951 62.0635 461.536 61.7035 461.905 60.9834V57.5859C461.527 56.8887 460.946 56.54 460.162 56.54C459.542 56.54 459.059 56.7793 458.713 57.2578C458.367 57.7363 458.193 58.445 458.193 59.3838ZM466.513 63H465.248V55.6035H466.513V63ZM465.146 53.6416C465.146 53.4365 465.207 53.2633 465.33 53.1221C465.458 52.9808 465.645 52.9102 465.891 52.9102C466.137 52.9102 466.324 52.9808 466.451 53.1221C466.579 53.2633 466.643 53.4365 466.643 53.6416C466.643 53.8467 466.579 54.0176 466.451 54.1543C466.324 54.291 466.137 54.3594 465.891 54.3594C465.645 54.3594 465.458 54.291 465.33 54.1543C465.207 54.0176 465.146 53.8467 465.146 53.6416ZM469.732 55.6035L469.767 56.4238C470.309 55.7858 471.04 55.4668 471.961 55.4668C472.995 55.4668 473.7 55.8633 474.073 56.6562C474.319 56.3008 474.638 56.0137 475.03 55.7949C475.427 55.5762 475.894 55.4668 476.432 55.4668C478.054 55.4668 478.879 56.3258 478.906 58.0439V63H477.642V58.1191C477.642 57.5905 477.521 57.1963 477.279 56.9365C477.038 56.6722 476.632 56.54 476.062 56.54C475.593 56.54 475.203 56.6813 474.894 56.9639C474.584 57.2419 474.404 57.6178 474.354 58.0918V63H473.082V58.1533C473.082 57.0778 472.556 56.54 471.503 56.54C470.674 56.54 470.106 56.8932 469.801 57.5996V63H468.536V55.6035H469.732ZM483.89 63.1367C482.887 63.1367 482.071 62.8086 481.442 62.1523C480.813 61.4915 480.499 60.6097 480.499 59.5068V59.2744C480.499 58.5407 480.638 57.8867 480.916 57.3125C481.199 56.7337 481.59 56.2826 482.092 55.959C482.598 55.6309 483.145 55.4668 483.732 55.4668C484.694 55.4668 485.441 55.7835 485.975 56.417C486.508 57.0505 486.774 57.9574 486.774 59.1377V59.6641H481.764C481.782 60.3932 481.994 60.9834 482.399 61.4346C482.81 61.8812 483.329 62.1045 483.958 62.1045C484.405 62.1045 484.783 62.0133 485.093 61.8311C485.403 61.6488 485.674 61.4072 485.906 61.1064L486.679 61.708C486.059 62.6605 485.129 63.1367 483.89 63.1367ZM483.732 56.5059C483.222 56.5059 482.794 56.6927 482.447 57.0664C482.101 57.4355 481.887 57.9551 481.805 58.625H485.51V58.5293C485.473 57.8867 485.3 57.39 484.99 57.0391C484.68 56.6836 484.261 56.5059 483.732 56.5059ZM489.44 55.6035L489.481 56.5332C490.047 55.8223 490.785 55.4668 491.696 55.4668C493.259 55.4668 494.048 56.3486 494.062 58.1123V63H492.797V58.1055C492.792 57.5723 492.669 57.1781 492.428 56.9229C492.191 56.6676 491.819 56.54 491.313 56.54C490.903 56.54 490.543 56.6494 490.233 56.8682C489.924 57.0869 489.682 57.374 489.509 57.7295V63H488.244V55.6035H489.44ZM500.275 61.0381C500.275 60.6963 500.146 60.432 499.886 60.2451C499.631 60.0537 499.182 59.8896 498.539 59.7529C497.901 59.6162 497.393 59.4521 497.015 59.2607C496.641 59.0693 496.363 58.8415 496.181 58.5771C496.003 58.3128 495.914 57.9984 495.914 57.6338C495.914 57.0277 496.169 56.515 496.68 56.0957C497.195 55.6764 497.851 55.4668 498.648 55.4668C499.487 55.4668 500.166 55.6833 500.686 56.1162C501.21 56.5492 501.472 57.1029 501.472 57.7773H500.2C500.2 57.431 500.052 57.1325 499.756 56.8818C499.464 56.6312 499.095 56.5059 498.648 56.5059C498.188 56.5059 497.828 56.6061 497.568 56.8066C497.309 57.0072 497.179 57.2692 497.179 57.5928C497.179 57.8981 497.299 58.1283 497.541 58.2832C497.783 58.4382 498.218 58.5863 498.847 58.7275C499.48 58.8688 499.993 59.0374 500.385 59.2334C500.777 59.4294 501.066 59.6663 501.253 59.9443C501.444 60.2178 501.54 60.5527 501.54 60.9492C501.54 61.61 501.276 62.141 500.747 62.542C500.218 62.9385 499.533 63.1367 498.689 63.1367C498.097 63.1367 497.573 63.0319 497.117 62.8223C496.661 62.6126 496.304 62.321 496.044 61.9473C495.789 61.569 495.661 61.1611 495.661 60.7236H496.926C496.949 61.1475 497.117 61.4847 497.432 61.7354C497.751 61.9814 498.17 62.1045 498.689 62.1045C499.168 62.1045 499.551 62.0088 499.838 61.8174C500.13 61.6214 500.275 61.3617 500.275 61.0381ZM504.562 63H503.297V55.6035H504.562V63ZM503.194 53.6416C503.194 53.4365 503.256 53.2633 503.379 53.1221C503.507 52.9808 503.693 52.9102 503.939 52.9102C504.186 52.9102 504.372 52.9808 504.5 53.1221C504.628 53.2633 504.691 53.4365 504.691 53.6416C504.691 53.8467 504.628 54.0176 504.5 54.1543C504.372 54.291 504.186 54.3594 503.939 54.3594C503.693 54.3594 503.507 54.291 503.379 54.1543C503.256 54.0176 503.194 53.8467 503.194 53.6416ZM506.257 59.2334C506.257 58.5088 506.398 57.8571 506.681 57.2783C506.968 56.6995 507.364 56.2529 507.87 55.9385C508.381 55.624 508.962 55.4668 509.613 55.4668C510.62 55.4668 511.434 55.8154 512.054 56.5127C512.678 57.21 512.99 58.1374 512.99 59.2949V59.3838C512.99 60.1038 512.851 60.751 512.573 61.3252C512.3 61.8949 511.906 62.3392 511.391 62.6582C510.88 62.9772 510.292 63.1367 509.627 63.1367C508.624 63.1367 507.811 62.7881 507.187 62.0908C506.567 61.3936 506.257 60.4707 506.257 59.3223V59.2334ZM507.528 59.3838C507.528 60.2041 507.717 60.8626 508.096 61.3594C508.479 61.8561 508.989 62.1045 509.627 62.1045C510.27 62.1045 510.78 61.8538 511.158 61.3525C511.536 60.8467 511.726 60.1403 511.726 59.2334C511.726 58.4222 511.532 57.766 511.145 57.2646C510.762 56.7588 510.251 56.5059 509.613 56.5059C508.989 56.5059 508.485 56.7542 508.103 57.251C507.72 57.7477 507.528 58.4587 507.528 59.3838ZM515.772 55.6035L515.813 56.5332C516.379 55.8223 517.117 55.4668 518.028 55.4668C519.591 55.4668 520.38 56.3486 520.394 58.1123V63H519.129V58.1055C519.124 57.5723 519.001 57.1781 518.76 56.9229C518.523 56.6676 518.151 56.54 517.646 56.54C517.235 56.54 516.875 56.6494 516.565 56.8682C516.256 57.0869 516.014 57.374 515.841 57.7295V63H514.576V55.6035H515.772ZM526.867 63C526.794 62.8542 526.735 62.5944 526.689 62.2207C526.102 62.8314 525.4 63.1367 524.584 63.1367C523.855 63.1367 523.256 62.9316 522.786 62.5215C522.321 62.1068 522.089 61.5827 522.089 60.9492C522.089 60.179 522.381 59.582 522.964 59.1582C523.552 58.7298 524.377 58.5156 525.438 58.5156H526.669V57.9346C526.669 57.4925 526.537 57.1416 526.272 56.8818C526.008 56.6175 525.618 56.4854 525.104 56.4854C524.652 56.4854 524.274 56.5993 523.969 56.8271C523.663 57.055 523.511 57.3307 523.511 57.6543H522.239C522.239 57.2852 522.369 56.9297 522.629 56.5879C522.893 56.2415 523.249 55.9681 523.695 55.7676C524.146 55.5671 524.641 55.4668 525.179 55.4668C526.031 55.4668 526.699 55.681 527.182 56.1094C527.665 56.5332 527.915 57.1188 527.934 57.8662V61.2705C527.934 61.9495 528.02 62.4896 528.193 62.8906V63H526.867ZM524.769 62.0361C525.165 62.0361 525.541 61.9336 525.896 61.7285C526.252 61.5234 526.509 61.2568 526.669 60.9287V59.4111H525.678C524.128 59.4111 523.354 59.8646 523.354 60.7715C523.354 61.168 523.486 61.4779 523.75 61.7012C524.014 61.9245 524.354 62.0361 524.769 62.0361ZM531.29 63H530.025V52.5H531.29V63ZM438.396 79C438.324 78.8542 438.264 78.5944 438.219 78.2207C437.631 78.8314 436.929 79.1367 436.113 79.1367C435.384 79.1367 434.785 78.9316 434.315 78.5215C433.851 78.1068 433.618 77.5827 433.618 76.9492C433.618 76.179 433.91 75.582 434.493 75.1582C435.081 74.7298 435.906 74.5156 436.968 74.5156H438.198V73.9346C438.198 73.4925 438.066 73.1416 437.802 72.8818C437.537 72.6175 437.148 72.4854 436.633 72.4854C436.182 72.4854 435.803 72.5993 435.498 72.8271C435.193 73.055 435.04 73.3307 435.04 73.6543H433.769C433.769 73.2852 433.898 72.9297 434.158 72.5879C434.423 72.2415 434.778 71.9681 435.225 71.7676C435.676 71.5671 436.17 71.4668 436.708 71.4668C437.56 71.4668 438.228 71.681 438.711 72.1094C439.194 72.5332 439.445 73.1188 439.463 73.8662V77.2705C439.463 77.9495 439.549 78.4896 439.723 78.8906V79H438.396ZM436.298 78.0361C436.694 78.0361 437.07 77.9336 437.426 77.7285C437.781 77.5234 438.039 77.2568 438.198 76.9287V75.4111H437.207C435.658 75.4111 434.883 75.8646 434.883 76.7715C434.883 77.168 435.015 77.4779 435.279 77.7012C435.544 77.9245 435.883 78.0361 436.298 78.0361ZM445.021 72.7383C444.829 72.7064 444.622 72.6904 444.398 72.6904C443.569 72.6904 443.006 73.0436 442.71 73.75V79H441.445V71.6035H442.676L442.696 72.458C443.111 71.7972 443.699 71.4668 444.46 71.4668C444.706 71.4668 444.893 71.4987 445.021 71.5625V72.7383ZM449.765 72.7383C449.573 72.7064 449.366 72.6904 449.143 72.6904C448.313 72.6904 447.75 73.0436 447.454 73.75V79H446.189V71.6035H447.42L447.44 72.458C447.855 71.7972 448.443 71.4668 449.204 71.4668C449.45 71.4668 449.637 71.4987 449.765 71.5625V72.7383ZM455.227 79C455.154 78.8542 455.094 78.5944 455.049 78.2207C454.461 78.8314 453.759 79.1367 452.943 79.1367C452.214 79.1367 451.615 78.9316 451.146 78.5215C450.681 78.1068 450.448 77.5827 450.448 76.9492C450.448 76.179 450.74 75.582 451.323 75.1582C451.911 74.7298 452.736 74.5156 453.798 74.5156H455.028V73.9346C455.028 73.4925 454.896 73.1416 454.632 72.8818C454.368 72.6175 453.978 72.4854 453.463 72.4854C453.012 72.4854 452.633 72.5993 452.328 72.8271C452.023 73.055 451.87 73.3307 451.87 73.6543H450.599C450.599 73.2852 450.729 72.9297 450.988 72.5879C451.253 72.2415 451.608 71.9681 452.055 71.7676C452.506 71.5671 453 71.4668 453.538 71.4668C454.39 71.4668 455.058 71.681 455.541 72.1094C456.024 72.5332 456.275 73.1188 456.293 73.8662V77.2705C456.293 77.9495 456.38 78.4896 456.553 78.8906V79H455.227ZM453.128 78.0361C453.524 78.0361 453.9 77.9336 454.256 77.7285C454.611 77.5234 454.869 77.2568 455.028 76.9287V75.4111H454.037C452.488 75.4111 451.713 75.8646 451.713 76.7715C451.713 77.168 451.845 77.4779 452.109 77.7012C452.374 77.9245 452.713 78.0361 453.128 78.0361ZM460.586 77.1475L462.309 71.6035H463.662L460.688 80.1416C460.228 81.3721 459.497 81.9873 458.494 81.9873L458.255 81.9668L457.783 81.8779V80.8525L458.125 80.8799C458.553 80.8799 458.886 80.7933 459.123 80.6201C459.365 80.4469 459.563 80.1302 459.718 79.6699L459.998 78.918L457.359 71.6035H458.74L460.586 77.1475ZM464.018 80.9824L463.3 80.4902C463.728 79.8932 463.951 79.278 463.97 78.6445V77.5029H465.207V78.4941C465.207 78.9544 465.093 79.4147 464.865 79.875C464.642 80.3353 464.359 80.7044 464.018 80.9824ZM474.846 79C474.773 78.8542 474.714 78.5944 474.668 78.2207C474.08 78.8314 473.378 79.1367 472.562 79.1367C471.833 79.1367 471.234 78.9316 470.765 78.5215C470.3 78.1068 470.067 77.5827 470.067 76.9492C470.067 76.179 470.359 75.582 470.942 75.1582C471.53 74.7298 472.355 74.5156 473.417 74.5156H474.647V73.9346C474.647 73.4925 474.515 73.1416 474.251 72.8818C473.987 72.6175 473.597 72.4854 473.082 72.4854C472.631 72.4854 472.253 72.5993 471.947 72.8271C471.642 73.055 471.489 73.3307 471.489 73.6543H470.218C470.218 73.2852 470.348 72.9297 470.607 72.5879C470.872 72.2415 471.227 71.9681 471.674 71.7676C472.125 71.5671 472.619 71.4668 473.157 71.4668C474.009 71.4668 474.677 71.681 475.16 72.1094C475.643 72.5332 475.894 73.1188 475.912 73.8662V77.2705C475.912 77.9495 475.999 78.4896 476.172 78.8906V79H474.846ZM472.747 78.0361C473.144 78.0361 473.52 77.9336 473.875 77.7285C474.23 77.5234 474.488 77.2568 474.647 76.9287V75.4111H473.656C472.107 75.4111 471.332 75.8646 471.332 76.7715C471.332 77.168 471.464 77.4779 471.729 77.7012C471.993 77.9245 472.332 78.0361 472.747 78.0361ZM481.47 72.7383C481.278 72.7064 481.071 72.6904 480.848 72.6904C480.018 72.6904 479.455 73.0436 479.159 73.75V79H477.895V71.6035H479.125L479.146 72.458C479.56 71.7972 480.148 71.4668 480.909 71.4668C481.155 71.4668 481.342 71.4987 481.47 71.5625V72.7383ZM486.214 72.7383C486.022 72.7064 485.815 72.6904 485.592 72.6904C484.762 72.6904 484.2 73.0436 483.903 73.75V79H482.639V71.6035H483.869L483.89 72.458C484.304 71.7972 484.892 71.4668 485.653 71.4668C485.899 71.4668 486.086 71.4987 486.214 71.5625V72.7383ZM491.676 79C491.603 78.8542 491.544 78.5944 491.498 78.2207C490.91 78.8314 490.208 79.1367 489.393 79.1367C488.663 79.1367 488.064 78.9316 487.595 78.5215C487.13 78.1068 486.897 77.5827 486.897 76.9492C486.897 76.179 487.189 75.582 487.772 75.1582C488.36 74.7298 489.185 74.5156 490.247 74.5156H491.478V73.9346C491.478 73.4925 491.345 73.1416 491.081 72.8818C490.817 72.6175 490.427 72.4854 489.912 72.4854C489.461 72.4854 489.083 72.5993 488.777 72.8271C488.472 73.055 488.319 73.3307 488.319 73.6543H487.048C487.048 73.2852 487.178 72.9297 487.438 72.5879C487.702 72.2415 488.057 71.9681 488.504 71.7676C488.955 71.5671 489.45 71.4668 489.987 71.4668C490.84 71.4668 491.507 71.681 491.99 72.1094C492.473 72.5332 492.724 73.1188 492.742 73.8662V77.2705C492.742 77.9495 492.829 78.4896 493.002 78.8906V79H491.676ZM489.577 78.0361C489.974 78.0361 490.35 77.9336 490.705 77.7285C491.061 77.5234 491.318 77.2568 491.478 76.9287V75.4111H490.486C488.937 75.4111 488.162 75.8646 488.162 76.7715C488.162 77.168 488.294 77.4779 488.559 77.7012C488.823 77.9245 489.162 78.0361 489.577 78.0361ZM497.035 77.1475L498.758 71.6035H500.111L497.138 80.1416C496.677 81.3721 495.946 81.9873 494.943 81.9873L494.704 81.9668L494.232 81.8779V80.8525L494.574 80.8799C495.003 80.8799 495.335 80.7933 495.572 80.6201C495.814 80.4469 496.012 80.1302 496.167 79.6699L496.447 78.918L493.809 71.6035H495.189L497.035 77.1475ZM500.467 80.9824L499.749 80.4902C500.177 79.8932 500.401 79.278 500.419 78.6445V77.5029H501.656V78.4941C501.656 78.9544 501.542 79.4147 501.314 79.875C501.091 80.3353 500.809 80.7044 500.467 80.9824ZM508.103 79H506.838V68.5H508.103V79ZM511.507 79H510.242V71.6035H511.507V79ZM510.14 69.6416C510.14 69.4365 510.201 69.2633 510.324 69.1221C510.452 68.9808 510.639 68.9102 510.885 68.9102C511.131 68.9102 511.318 68.9808 511.445 69.1221C511.573 69.2633 511.637 69.4365 511.637 69.6416C511.637 69.8467 511.573 70.0176 511.445 70.1543C511.318 70.291 511.131 70.3594 510.885 70.3594C510.639 70.3594 510.452 70.291 510.324 70.1543C510.201 70.0176 510.14 69.8467 510.14 69.6416ZM517.844 77.0381C517.844 76.6963 517.714 76.432 517.454 76.2451C517.199 76.0537 516.75 75.8896 516.107 75.7529C515.469 75.6162 514.961 75.4521 514.583 75.2607C514.209 75.0693 513.931 74.8415 513.749 74.5771C513.571 74.3128 513.482 73.9984 513.482 73.6338C513.482 73.0277 513.738 72.515 514.248 72.0957C514.763 71.6764 515.419 71.4668 516.217 71.4668C517.055 71.4668 517.734 71.6833 518.254 72.1162C518.778 72.5492 519.04 73.1029 519.04 73.7773H517.769C517.769 73.431 517.62 73.1325 517.324 72.8818C517.033 72.6312 516.663 72.5059 516.217 72.5059C515.757 72.5059 515.396 72.6061 515.137 72.8066C514.877 73.0072 514.747 73.2692 514.747 73.5928C514.747 73.8981 514.868 74.1283 515.109 74.2832C515.351 74.4382 515.786 74.5863 516.415 74.7275C517.049 74.8688 517.561 75.0374 517.953 75.2334C518.345 75.4294 518.634 75.6663 518.821 75.9443C519.013 76.2178 519.108 76.5527 519.108 76.9492C519.108 77.61 518.844 78.141 518.315 78.542C517.787 78.9385 517.101 79.1367 516.258 79.1367C515.665 79.1367 515.141 79.0319 514.686 78.8223C514.23 78.6126 513.872 78.321 513.612 77.9473C513.357 77.569 513.229 77.1611 513.229 76.7236H514.494C514.517 77.1475 514.686 77.4847 515 77.7354C515.319 77.9814 515.738 78.1045 516.258 78.1045C516.736 78.1045 517.119 78.0088 517.406 77.8174C517.698 77.6214 517.844 77.3617 517.844 77.0381ZM522.472 69.8125V71.6035H523.853V72.5811H522.472V77.168C522.472 77.4642 522.533 77.6875 522.656 77.8379C522.779 77.9837 522.989 78.0566 523.285 78.0566C523.431 78.0566 523.632 78.0293 523.887 77.9746V79C523.554 79.0911 523.23 79.1367 522.916 79.1367C522.351 79.1367 521.925 78.9658 521.638 78.624C521.351 78.2822 521.207 77.7969 521.207 77.168V72.5811H519.86V71.6035H521.207V69.8125H522.472ZM525.295 80.9824L524.577 80.4902C525.006 79.8932 525.229 79.278 525.247 78.6445V77.5029H526.484V78.4941C526.484 78.9544 526.37 79.4147 526.143 79.875C525.919 80.3353 525.637 80.7044 525.295 80.9824ZM431.294 94.2842L433.126 88.6035H434.418L431.766 96H430.802L428.122 88.6035H429.414L431.294 94.2842ZM438.608 96.1367C437.606 96.1367 436.79 95.8086 436.161 95.1523C435.532 94.4915 435.218 93.6097 435.218 92.5068V92.2744C435.218 91.5407 435.357 90.8867 435.635 90.3125C435.917 89.7337 436.309 89.2826 436.811 88.959C437.316 88.6309 437.863 88.4668 438.451 88.4668C439.413 88.4668 440.16 88.7835 440.693 89.417C441.227 90.0505 441.493 90.9574 441.493 92.1377V92.6641H436.482C436.501 93.3932 436.713 93.9834 437.118 94.4346C437.528 94.8812 438.048 95.1045 438.677 95.1045C439.123 95.1045 439.502 95.0133 439.812 94.8311C440.121 94.6488 440.393 94.4072 440.625 94.1064L441.397 94.708C440.778 95.6605 439.848 96.1367 438.608 96.1367ZM438.451 89.5059C437.941 89.5059 437.512 89.6927 437.166 90.0664C436.82 90.4355 436.605 90.9551 436.523 91.625H440.229V91.5293C440.192 90.8867 440.019 90.39 439.709 90.0391C439.399 89.6836 438.98 89.5059 438.451 89.5059ZM445.93 95.1045C446.381 95.1045 446.775 94.9678 447.112 94.6943C447.45 94.4209 447.636 94.0791 447.673 93.6689H448.869C448.846 94.0928 448.701 94.4961 448.432 94.8789C448.163 95.2617 447.803 95.5671 447.352 95.7949C446.905 96.0228 446.431 96.1367 445.93 96.1367C444.923 96.1367 444.12 95.8018 443.523 95.1318C442.931 94.4574 442.635 93.5368 442.635 92.3701V92.1582C442.635 91.4382 442.767 90.7979 443.031 90.2373C443.296 89.6768 443.674 89.2415 444.166 88.9316C444.663 88.6217 445.248 88.4668 445.923 88.4668C446.752 88.4668 447.44 88.7152 447.987 89.2119C448.539 89.7087 448.833 90.3535 448.869 91.1465H447.673C447.636 90.668 447.454 90.276 447.126 89.9707C446.802 89.6608 446.401 89.5059 445.923 89.5059C445.28 89.5059 444.781 89.7383 444.426 90.2031C444.075 90.6634 443.899 91.3311 443.899 92.2061V92.4453C443.899 93.2975 444.075 93.9538 444.426 94.4141C444.777 94.8743 445.278 95.1045 445.93 95.1045ZM452.007 86.8125V88.6035H453.388V89.5811H452.007V94.168C452.007 94.4642 452.068 94.6875 452.191 94.8379C452.314 94.9837 452.524 95.0566 452.82 95.0566C452.966 95.0566 453.167 95.0293 453.422 94.9746V96C453.089 96.0911 452.766 96.1367 452.451 96.1367C451.886 96.1367 451.46 95.9658 451.173 95.624C450.886 95.2822 450.742 94.7969 450.742 94.168V89.5811H449.396V88.6035H450.742V86.8125H452.007ZM454.399 92.2334C454.399 91.5088 454.541 90.8571 454.823 90.2783C455.11 89.6995 455.507 89.2529 456.013 88.9385C456.523 88.624 457.104 88.4668 457.756 88.4668C458.763 88.4668 459.576 88.8154 460.196 89.5127C460.821 90.21 461.133 91.1374 461.133 92.2949V92.3838C461.133 93.1038 460.994 93.751 460.716 94.3252C460.442 94.8949 460.048 95.3392 459.533 95.6582C459.023 95.9772 458.435 96.1367 457.77 96.1367C456.767 96.1367 455.953 95.7881 455.329 95.0908C454.709 94.3936 454.399 93.4707 454.399 92.3223V92.2334ZM455.671 92.3838C455.671 93.2041 455.86 93.8626 456.238 94.3594C456.621 94.8561 457.132 95.1045 457.77 95.1045C458.412 95.1045 458.923 94.8538 459.301 94.3525C459.679 93.8467 459.868 93.1403 459.868 92.2334C459.868 91.4222 459.674 90.766 459.287 90.2646C458.904 89.7588 458.394 89.5059 457.756 89.5059C457.132 89.5059 456.628 89.7542 456.245 90.251C455.862 90.7477 455.671 91.4587 455.671 92.3838ZM466.294 89.7383C466.103 89.7064 465.895 89.6904 465.672 89.6904C464.842 89.6904 464.28 90.0436 463.983 90.75V96H462.719V88.6035H463.949L463.97 89.458C464.384 88.7972 464.972 88.4668 465.733 88.4668C465.979 88.4668 466.166 88.4987 466.294 88.5625V89.7383ZM466.574 97.9824L465.856 97.4902C466.285 96.8932 466.508 96.278 466.526 95.6445V94.5029H467.764V95.4941C467.764 95.9544 467.65 96.4147 467.422 96.875C467.199 97.3353 466.916 97.7044 466.574 97.9824ZM477.143 94.0381C477.143 93.6963 477.013 93.432 476.753 93.2451C476.498 93.0537 476.049 92.8896 475.406 92.7529C474.768 92.6162 474.26 92.4521 473.882 92.2607C473.508 92.0693 473.23 91.8415 473.048 91.5771C472.87 91.3128 472.781 90.9984 472.781 90.6338C472.781 90.0277 473.036 89.515 473.547 89.0957C474.062 88.6764 474.718 88.4668 475.516 88.4668C476.354 88.4668 477.033 88.6833 477.553 89.1162C478.077 89.5492 478.339 90.1029 478.339 90.7773H477.067C477.067 90.431 476.919 90.1325 476.623 89.8818C476.331 89.6312 475.962 89.5059 475.516 89.5059C475.055 89.5059 474.695 89.6061 474.436 89.8066C474.176 90.0072 474.046 90.2692 474.046 90.5928C474.046 90.8981 474.167 91.1283 474.408 91.2832C474.65 91.4382 475.085 91.5863 475.714 91.7275C476.347 91.8688 476.86 92.0374 477.252 92.2334C477.644 92.4294 477.933 92.6663 478.12 92.9443C478.312 93.2178 478.407 93.5527 478.407 93.9492C478.407 94.61 478.143 95.141 477.614 95.542C477.086 95.9385 476.4 96.1367 475.557 96.1367C474.964 96.1367 474.44 96.0319 473.984 95.8223C473.529 95.6126 473.171 95.321 472.911 94.9473C472.656 94.569 472.528 94.1611 472.528 93.7236H473.793C473.816 94.1475 473.984 94.4847 474.299 94.7354C474.618 94.9814 475.037 95.1045 475.557 95.1045C476.035 95.1045 476.418 95.0088 476.705 94.8174C476.997 94.6214 477.143 94.3617 477.143 94.0381ZM483.124 96.1367C482.121 96.1367 481.306 95.8086 480.677 95.1523C480.048 94.4915 479.733 93.6097 479.733 92.5068V92.2744C479.733 91.5407 479.872 90.8867 480.15 90.3125C480.433 89.7337 480.825 89.2826 481.326 88.959C481.832 88.6309 482.379 88.4668 482.967 88.4668C483.928 88.4668 484.676 88.7835 485.209 89.417C485.742 90.0505 486.009 90.9574 486.009 92.1377V92.6641H480.998C481.016 93.3932 481.228 93.9834 481.634 94.4346C482.044 94.8812 482.563 95.1045 483.192 95.1045C483.639 95.1045 484.017 95.0133 484.327 94.8311C484.637 94.6488 484.908 94.4072 485.141 94.1064L485.913 94.708C485.293 95.6605 484.364 96.1367 483.124 96.1367ZM482.967 89.5059C482.456 89.5059 482.028 89.6927 481.682 90.0664C481.335 90.4355 481.121 90.9551 481.039 91.625H484.744V91.5293C484.708 90.8867 484.535 90.39 484.225 90.0391C483.915 89.6836 483.495 89.5059 482.967 89.5059ZM487.171 92.2402C487.171 91.0781 487.438 90.1598 487.971 89.4854C488.504 88.8063 489.219 88.4668 490.117 88.4668C490.992 88.4668 491.683 88.7607 492.188 89.3486L492.243 88.6035H493.405V98.8438H492.141V95.3164C491.63 95.8633 490.951 96.1367 490.104 96.1367C489.21 96.1367 488.497 95.7904 487.964 95.0977C487.435 94.4004 487.171 93.4775 487.171 92.3291V92.2402ZM488.436 92.3838C488.436 93.2314 488.613 93.8968 488.969 94.3799C489.329 94.863 489.812 95.1045 490.418 95.1045C491.17 95.1045 491.744 94.7718 492.141 94.1064V90.4834C491.74 89.8317 491.17 89.5059 490.432 89.5059C489.821 89.5059 489.336 89.7497 488.976 90.2373C488.616 90.7204 488.436 91.4359 488.436 92.3838ZM500.002 95.2686C499.51 95.8473 498.787 96.1367 497.835 96.1367C497.047 96.1367 496.445 95.9089 496.03 95.4531C495.62 94.9928 495.413 94.3138 495.408 93.416V88.6035H496.673V93.3818C496.673 94.5029 497.129 95.0635 498.04 95.0635C499.006 95.0635 499.649 94.7035 499.968 93.9834V88.6035H501.232V96H500.029L500.002 95.2686ZM506.229 96.1367C505.227 96.1367 504.411 95.8086 503.782 95.1523C503.153 94.4915 502.839 93.6097 502.839 92.5068V92.2744C502.839 91.5407 502.978 90.8867 503.256 90.3125C503.538 89.7337 503.93 89.2826 504.432 88.959C504.938 88.6309 505.484 88.4668 506.072 88.4668C507.034 88.4668 507.781 88.7835 508.314 89.417C508.848 90.0505 509.114 90.9574 509.114 92.1377V92.6641H504.104C504.122 93.3932 504.334 93.9834 504.739 94.4346C505.149 94.8812 505.669 95.1045 506.298 95.1045C506.744 95.1045 507.123 95.0133 507.433 94.8311C507.743 94.6488 508.014 94.4072 508.246 94.1064L509.019 94.708C508.399 95.6605 507.469 96.1367 506.229 96.1367ZM506.072 89.5059C505.562 89.5059 505.133 89.6927 504.787 90.0664C504.441 90.4355 504.227 90.9551 504.145 91.625H507.85V91.5293C507.813 90.8867 507.64 90.39 507.33 90.0391C507.02 89.6836 506.601 89.5059 506.072 89.5059ZM511.78 88.6035L511.821 89.5332C512.386 88.8223 513.125 88.4668 514.036 88.4668C515.599 88.4668 516.388 89.3486 516.401 91.1123V96H515.137V91.1055C515.132 90.5723 515.009 90.1781 514.768 89.9229C514.531 89.6676 514.159 89.54 513.653 89.54C513.243 89.54 512.883 89.6494 512.573 89.8682C512.263 90.0869 512.022 90.374 511.849 90.7295V96H510.584V88.6035H511.78ZM521.275 95.1045C521.727 95.1045 522.121 94.9678 522.458 94.6943C522.795 94.4209 522.982 94.0791 523.019 93.6689H524.215C524.192 94.0928 524.046 94.4961 523.777 94.8789C523.508 95.2617 523.148 95.5671 522.697 95.7949C522.251 96.0228 521.777 96.1367 521.275 96.1367C520.268 96.1367 519.466 95.8018 518.869 95.1318C518.277 94.4574 517.98 93.5368 517.98 92.3701V92.1582C517.98 91.4382 518.113 90.7979 518.377 90.2373C518.641 89.6768 519.02 89.2415 519.512 88.9316C520.008 88.6217 520.594 88.4668 521.269 88.4668C522.098 88.4668 522.786 88.7152 523.333 89.2119C523.884 89.7087 524.178 90.3535 524.215 91.1465H523.019C522.982 90.668 522.8 90.276 522.472 89.9707C522.148 89.6608 521.747 89.5059 521.269 89.5059C520.626 89.5059 520.127 89.7383 519.771 90.2031C519.421 90.6634 519.245 91.3311 519.245 92.2061V92.4453C519.245 93.2975 519.421 93.9538 519.771 94.4141C520.122 94.8743 520.624 95.1045 521.275 95.1045ZM528.706 96.1367C527.703 96.1367 526.888 95.8086 526.259 95.1523C525.63 94.4915 525.315 93.6097 525.315 92.5068V92.2744C525.315 91.5407 525.454 90.8867 525.732 90.3125C526.015 89.7337 526.407 89.2826 526.908 88.959C527.414 88.6309 527.961 88.4668 528.549 88.4668C529.51 88.4668 530.258 88.7835 530.791 89.417C531.324 90.0505 531.591 90.9574 531.591 92.1377V92.6641H526.58C526.598 93.3932 526.81 93.9834 527.216 94.4346C527.626 94.8812 528.146 95.1045 528.774 95.1045C529.221 95.1045 529.599 95.0133 529.909 94.8311C530.219 94.6488 530.49 94.4072 530.723 94.1064L531.495 94.708C530.875 95.6605 529.946 96.1367 528.706 96.1367ZM528.549 89.5059C528.038 89.5059 527.61 89.6927 527.264 90.0664C526.917 90.4355 526.703 90.9551 526.621 91.625H530.326V91.5293C530.29 90.8867 530.117 90.39 529.807 90.0391C529.497 89.6836 529.077 89.5059 528.549 89.5059Z" fill="black"/>
<path d="M452.054 28.0078L450.987 29.1562V32H448.937V22.0469H450.987V26.5586L451.89 25.3213L454.426 22.0469H456.948L453.414 26.4697L457.051 32H454.61L452.054 28.0078ZM459.512 24.6035L459.573 25.458C460.102 24.7972 460.811 24.4668 461.699 24.4668C462.483 24.4668 463.066 24.6969 463.449 25.1572C463.832 25.6175 464.028 26.3057 464.037 27.2217V32H462.062V27.2695C462.062 26.8503 461.97 26.5472 461.788 26.3604C461.606 26.1689 461.303 26.0732 460.879 26.0732C460.323 26.0732 459.906 26.3102 459.628 26.7842V32H457.652V24.6035H459.512ZM465.233 28.2334C465.233 27.4997 465.375 26.8457 465.657 26.2715C465.94 25.6973 466.345 25.2529 466.874 24.9385C467.407 24.624 468.025 24.4668 468.727 24.4668C469.725 24.4668 470.538 24.7721 471.167 25.3828C471.8 25.9935 472.154 26.8229 472.227 27.8711L472.24 28.377C472.24 29.5117 471.924 30.4232 471.29 31.1113C470.657 31.7949 469.807 32.1367 468.74 32.1367C467.674 32.1367 466.822 31.7949 466.184 31.1113C465.55 30.4277 465.233 29.498 465.233 28.3223V28.2334ZM467.209 28.377C467.209 29.0788 467.341 29.6165 467.605 29.9902C467.87 30.3594 468.248 30.5439 468.74 30.5439C469.219 30.5439 469.592 30.3617 469.861 29.9971C470.13 29.6279 470.265 29.04 470.265 28.2334C470.265 27.5452 470.13 27.012 469.861 26.6338C469.592 26.2555 469.214 26.0664 468.727 26.0664C468.243 26.0664 467.87 26.2555 467.605 26.6338C467.341 27.0075 467.209 27.5885 467.209 28.377ZM479.89 29.3135L480.86 24.6035H482.768L480.881 32H479.227L477.825 27.3447L476.424 32H474.776L472.89 24.6035H474.797L475.761 29.3066L477.114 24.6035H478.543L479.89 29.3135ZM485.57 24.6035L485.632 25.458C486.16 24.7972 486.869 24.4668 487.758 24.4668C488.542 24.4668 489.125 24.6969 489.508 25.1572C489.891 25.6175 490.087 26.3057 490.096 27.2217V32H488.12V27.2695C488.12 26.8503 488.029 26.5472 487.847 26.3604C487.664 26.1689 487.361 26.0732 486.938 26.0732C486.382 26.0732 485.965 26.3102 485.687 26.7842V32H483.711V24.6035H485.57ZM500.835 29.9492H497.239L496.556 32H494.375L498.08 22.0469H499.98L503.706 32H501.525L500.835 29.9492ZM497.793 28.2881H500.281L499.03 24.5625L497.793 28.2881ZM508.512 29.9561C508.512 29.7145 508.391 29.5254 508.149 29.3887C507.912 29.2474 507.53 29.1221 507.001 29.0127C505.242 28.6436 504.362 27.8962 504.362 26.7705C504.362 26.1143 504.633 25.5674 505.176 25.1299C505.723 24.6878 506.436 24.4668 507.315 24.4668C508.254 24.4668 509.004 24.6878 509.564 25.1299C510.13 25.5719 510.412 26.1462 510.412 26.8525H508.437C508.437 26.57 508.345 26.3376 508.163 26.1553C507.981 25.9684 507.696 25.875 507.309 25.875C506.976 25.875 506.718 25.9502 506.536 26.1006C506.354 26.251 506.263 26.4424 506.263 26.6748C506.263 26.8936 506.365 27.0713 506.57 27.208C506.78 27.3402 507.131 27.4564 507.623 27.5566C508.115 27.6523 508.53 27.7617 508.867 27.8848C509.911 28.2676 510.433 28.9307 510.433 29.874C510.433 30.5485 510.143 31.0954 509.564 31.5146C508.986 31.9294 508.238 32.1367 507.322 32.1367C506.702 32.1367 506.151 32.0273 505.668 31.8086C505.189 31.5853 504.813 31.2822 504.54 30.8994C504.267 30.512 504.13 30.0951 504.13 29.6484H506.003C506.021 29.9993 506.151 30.2682 506.393 30.4551C506.634 30.6419 506.958 30.7354 507.363 30.7354C507.742 30.7354 508.026 30.6647 508.218 30.5234C508.414 30.3776 508.512 30.1885 508.512 29.9561Z" fill="black"/>
</svg>
