<svg width="702" height="268" viewBox="0 0 702 268" version="1.1" xmlns="http://www.w3.org/2000/svg" xmlns:xlink="http://www.w3.org/1999/xlink">
<g data-name="Canvas" fill="none">
<g data-name="Frame" clip-path="url(#clip0)">
<rect width="351" height="134" fill="white" transform="scale(2)"/>
<g data-name="code">
<g data-name="Rectangle">
<path d="M 0 0L 197 0L 197 32L 0 32L 0 0Z" transform="translate(6 108) scale(2)" fill="#F1F4F8"/>
</g>
<g data-name="print(df)">
<path d="M 1.98 19.4L 1.98 20.94L 0.82 20.94L 0.82 14.09L 1.77 14.09L 1.86 14.65L 1.89 14.65C 2.10333 14.4567 2.34667 14.2967 2.62 14.17C 2.9 14.0367 3.18 13.97 3.46 13.97C 3.78 13.97 4.06333 14.03 4.31 14.15C 4.56333 14.2633 4.77333 14.43 4.94 14.65C 5.11333 14.87 5.24333 15.1333 5.33 15.44C 5.42333 15.7467 5.47 16.09 5.47 16.47C 5.47 16.89 5.41 17.2667 5.29 17.6C 5.17 17.9267 5.00667 18.2033 4.8 18.43C 4.6 18.65 4.36667 18.82 4.1 18.94C 3.84 19.06 3.57 19.12 3.29 19.12C 3.06333 19.12 2.83 19.07 2.59 18.97C 2.35667 18.87 2.14 18.7267 1.94 18.54L 1.98 19.4ZM 1.98 17.72C 2.16 17.8867 2.34333 18.0033 2.53 18.07C 2.72333 18.1367 2.89667 18.17 3.05 18.17C 3.40333 18.17 3.69667 18.03 3.93 17.75C 4.16333 17.4633 4.28 17.04 4.28 16.48C 4.28 15.9867 4.19 15.6033 4.01 15.33C 3.83 15.0567 3.54 14.92 3.14 14.92C 2.95333 14.92 2.76333 14.9667 2.57 15.06C 2.37667 15.1533 2.18 15.3033 1.98 15.51L 1.98 17.72ZM 7.29609 14.09L 8.24609 14.09L 8.34609 15.2L 8.37609 15.2C 8.62943 14.8 8.93276 14.4967 9.28609 14.29C 9.64609 14.0767 10.0394 13.97 10.4661 13.97C 10.6661 13.97 10.8361 13.9867 10.9761 14.02C 11.1228 14.0467 11.2694 14.0967 11.4161 14.17L 11.1761 15.14C 11.0161 15.0867 10.8728 15.05 10.7461 15.03C 10.6261 15.0033 10.4728 14.99 10.2861 14.99C 9.94609 14.99 9.61943 15.0867 9.30609 15.28C 8.99276 15.4733 8.70943 15.81 8.45609 16.29L 8.45609 19L 7.29609 19L 7.29609 14.09ZM 12.8322 14.09L 16.1122 14.09L 16.1122 19L 14.9622 19L 14.9622 15L 12.8322 15L 12.8322 14.09ZM 15.4522 13.23C 15.2189 13.23 15.0222 13.16 14.8622 13.02C 14.7089 12.88 14.6322 12.6933 14.6322 12.46C 14.6322 12.2267 14.7089 12.04 14.8622 11.9C 15.0222 11.7533 15.2189 11.68 15.4522 11.68C 15.6922 11.68 15.8889 11.7533 16.0422 11.9C 16.1955 12.04 16.2722 12.2267 16.2722 12.46C 16.2722 12.6933 16.1955 12.88 16.0422 13.02C 15.8889 13.16 15.6922 13.23 15.4522 13.23ZM 18.8083 14.09L 19.7583 14.09L 19.8483 14.83L 19.8883 14.83C 20.1216 14.5967 20.3783 14.3967 20.6583 14.23C 20.9449 14.0567 21.2783 13.97 21.6583 13.97C 22.2249 13.97 22.6416 14.1433 22.9083 14.49C 23.1749 14.83 23.3083 15.32 23.3083 15.96L 23.3083 19L 22.1483 19L 22.1483 16.11C 22.1483 15.71 22.0783 15.42 21.9383 15.24C 21.8049 15.0533 21.5683 14.96 21.2283 14.96C 20.9883 14.96 20.7749 15.0167 20.5883 15.13C 20.4016 15.2433 20.1949 15.4167 19.9683 15.65L 19.9683 19L 18.8083 19L 18.8083 14.09ZM 25.8844 15L 24.5744 15L 24.5744 14.14L 25.9344 14.09L 26.0844 12.75L 27.0344 12.75L 27.0344 14.09L 29.2744 14.09L 29.2744 15L 27.0344 15L 27.0344 17.02C 27.0344 17.4267 27.1177 17.7267 27.2844 17.92C 27.451 18.1067 27.7444 18.2 28.1644 18.2C 28.3777 18.2 28.571 18.1833 28.7444 18.15C 28.9177 18.11 29.0844 18.06 29.2444 18L 29.4644 18.84C 29.2444 18.9133 29.001 18.9767 28.7344 19.03C 28.4677 19.09 28.1844 19.12 27.8844 19.12C 27.511 19.12 27.1977 19.07 26.9444 18.97C 26.691 18.87 26.4844 18.73 26.3244 18.55C 26.171 18.3633 26.0577 18.14 25.9844 17.88C 25.9177 17.62 25.8844 17.3333 25.8844 17.02L 25.8844 15Z" transform="translate(14.0408 110) scale(2)" fill="#0C570A"/>
<path d="M 34.1005 20.77C 33.4271 20.21 32.8938 19.55 32.5005 18.79C 32.1138 18.03 31.9205 17.1733 31.9205 16.22C 31.9205 15.2667 32.1138 14.41 32.5005 13.65C 32.8938 12.89 33.4271 12.23 34.1005 11.67L 34.7405 12.2C 34.1071 12.7733 33.6438 13.3833 33.3505 14.03C 33.0571 14.6767 32.9105 15.4067 32.9105 16.22C 32.9105 17.0333 33.0571 17.7633 33.3505 18.41C 33.6438 19.0567 34.1071 19.6667 34.7405 20.24L 34.1005 20.77ZM 36.5066 16.55C 36.5066 16.15 36.5666 15.79 36.6866 15.47C 36.8066 15.15 36.9666 14.88 37.1666 14.66C 37.3732 14.44 37.6066 14.27 37.8666 14.15C 38.1266 14.03 38.3966 13.97 38.6766 13.97C 38.9699 13.97 39.2199 14.0233 39.4266 14.13C 39.6399 14.23 39.8466 14.37 40.0466 14.55L 39.9966 13.72L 39.9966 11.94L 41.1566 11.94L 41.1566 19L 40.2066 19L 40.1166 18.43L 40.0866 18.43C 39.8932 18.6233 39.6666 18.7867 39.4066 18.92C 39.1532 19.0533 38.8866 19.12 38.6066 19.12C 38.2932 19.12 38.0066 19.0633 37.7466 18.95C 37.4866 18.83 37.2632 18.66 37.0766 18.44C 36.8966 18.22 36.7566 17.9533 36.6566 17.64C 36.5566 17.32 36.5066 16.9567 36.5066 16.55ZM 37.6966 16.54C 37.6966 17.0733 37.7999 17.48 38.0066 17.76C 38.2132 18.0333 38.5066 18.17 38.8866 18.17C 39.2932 18.17 39.6632 17.9733 39.9966 17.58L 39.9966 15.37C 39.8232 15.2033 39.6499 15.0867 39.4766 15.02C 39.3032 14.9533 39.1266 14.92 38.9466 14.92C 38.7732 14.92 38.6099 14.9567 38.4566 15.03C 38.3099 15.1033 38.1799 15.21 38.0666 15.35C 37.9532 15.4833 37.8632 15.65 37.7966 15.85C 37.7299 16.05 37.6966 16.28 37.6966 16.54ZM 47.5527 12.94C 47.3727 12.8667 47.196 12.8133 47.0227 12.78C 46.856 12.7467 46.6727 12.73 46.4727 12.73C 46.0927 12.73 45.816 12.8233 45.6427 13.01C 45.476 13.19 45.3927 13.4533 45.3927 13.8L 45.3927 14.09L 47.2627 14.09L 47.2627 15L 45.3927 15L 45.3927 19L 44.2527 19L 44.2527 15L 42.8927 15L 42.8927 14.14L 44.2527 14.09L 44.2527 13.82C 44.2527 13.5333 44.2927 13.2667 44.3727 13.02C 44.4527 12.7733 44.576 12.5633 44.7427 12.39C 44.916 12.21 45.1327 12.07 45.3927 11.97C 45.6593 11.87 45.9727 11.82 46.3327 11.82C 46.5993 11.82 46.8527 11.8433 47.0927 11.89C 47.3393 11.9367 47.5727 12.0033 47.7927 12.09L 47.5527 12.94ZM 49.2087 20.24C 49.8421 19.6667 50.3054 19.0567 50.5988 18.41C 50.8921 17.7633 51.0388 17.0333 51.0388 16.22C 51.0388 15.4067 50.8921 14.6767 50.5988 14.03C 50.3054 13.3833 49.8421 12.7733 49.2087 12.2L 49.8487 11.67C 50.5221 12.23 51.0521 12.89 51.4388 13.65C 51.8321 14.41 52.0287 15.2667 52.0287 16.22C 52.0287 17.1733 51.8321 18.03 51.4388 18.79C 51.0521 19.55 50.5221 20.21 49.8487 20.77L 49.2087 20.24Z" transform="translate(14.0408 110) scale(2)" fill="#2E383C"/>
</g>
</g>
<g data-name="Rectangle">
<rect width="28" height="21.9812" transform="translate(454 62) scale(2)" stroke="black"/>
</g>
<g data-name="Rectangle">
<rect width="28" height="21.9056" transform="translate(454 105.811) scale(2)" stroke="black"/>
</g>
<g data-name="Rectangle">
<rect width="28" height="21.9056" transform="translate(454 150) scale(2)" stroke="black"/>
</g>
<g data-name="0">
<path d="M 6.43359 9.50586L 7.65234 4.66016L 8.73633 4.66016L 6.89062 11L 6.01172 11L 4.4707 6.19531L 2.9707 11L 2.0918 11L 0.251953 4.66016L 1.33008 4.66016L 2.57812 9.40625L 4.05469 4.66016L 4.92773 4.66016L 6.43359 9.50586Z" transform="translate(434 72) scale(2)" fill="#828282"/>
</g>
<g data-name="0">
<path d="M 15.7871 7.77344L 12.2129 7.77344L 11.4102 10L 10.25 10L 13.5078 1.46875L 14.4922 1.46875L 17.7559 10L 16.6016 10L 15.7871 7.77344ZM 12.5527 6.84766L 15.4531 6.84766L 14 2.85742L 12.5527 6.84766Z" transform="translate(454 34) scale(2)" fill="#828282"/>
</g>
<g data-name="0">
<path d="M 14.3223 3.46289L 14.3223 4.38281L 14.123 4.38281C 13.2793 4.39844 12.6074 4.64844 12.1074 5.13281C 11.6074 5.61719 11.3184 6.29883 11.2402 7.17773C 11.6895 6.66211 12.3027 6.4043 13.0801 6.4043C 13.8223 6.4043 14.4141 6.66602 14.8555 7.18945C 15.3008 7.71289 15.5234 8.38867 15.5234 9.2168C 15.5234 10.0957 15.2832 10.7988 14.8027 11.3262C 14.3262 11.8535 13.6855 12.1172 12.8809 12.1172C 12.0645 12.1172 11.4023 11.8047 10.8945 11.1797C 10.3867 10.5508 10.1328 9.74219 10.1328 8.75391L 10.1328 8.33789C 10.1328 6.76758 10.4668 5.56836 11.1348 4.74023C 11.8066 3.9082 12.8047 3.48242 14.1289 3.46289L 14.3223 3.46289ZM 12.8984 7.30664C 12.5273 7.30664 12.1855 7.41797 11.873 7.64062C 11.5605 7.86328 11.3438 8.14258 11.2227 8.47852L 11.2227 8.87695C 11.2227 9.58008 11.3809 10.1465 11.6973 10.5762C 12.0137 11.0059 12.4082 11.2207 12.8809 11.2207C 13.3691 11.2207 13.752 11.041 14.0293 10.6816C 14.3105 10.3223 14.4512 9.85156 14.4512 9.26953C 14.4512 8.68359 14.3086 8.21094 14.0234 7.85156C 13.7422 7.48828 13.3672 7.30664 12.8984 7.30664ZM 16.9414 11.4316C 16.9414 11.2441 16.9961 11.0879 17.1055 10.9629C 17.2188 10.8379 17.3867 10.7754 17.6094 10.7754C 17.832 10.7754 18 10.8379 18.1133 10.9629C 18.2305 11.0879 18.2891 11.2441 18.2891 11.4316C 18.2891 11.6113 18.2305 11.7617 18.1133 11.8828C 18 12.0039 17.832 12.0645 17.6094 12.0645C 17.3867 12.0645 17.2188 12.0039 17.1055 11.8828C 16.9961 11.7617 16.9414 11.6113 16.9414 11.4316ZM 25.3203 8.36133C 25.3203 9.63086 25.1035 10.5742 24.6699 11.1914C 24.2363 11.8086 23.5586 12.1172 22.6367 12.1172C 21.7266 12.1172 21.0527 11.8164 20.6152 11.2148C 20.1777 10.6094 19.9512 9.70703 19.9355 8.50781L 19.9355 7.06055C 19.9355 5.80664 20.1523 4.875 20.5859 4.26562C 21.0195 3.65625 21.6992 3.35156 22.625 3.35156C 23.543 3.35156 24.2188 3.64648 24.6523 4.23633C 25.0859 4.82227 25.3086 5.72852 25.3203 6.95508L 25.3203 8.36133ZM 24.2363 6.87891C 24.2363 5.96094 24.1074 5.29297 23.8496 4.875C 23.5918 4.45312 23.1836 4.24219 22.625 4.24219C 22.0703 4.24219 21.666 4.45117 21.4121 4.86914C 21.1582 5.28711 21.0273 5.92969 21.0195 6.79688L 21.0195 8.53125C 21.0195 9.45312 21.1523 10.1348 21.418 10.5762C 21.6875 11.0137 22.0938 11.2324 22.6367 11.2324C 23.1719 11.2324 23.5684 11.0254 23.8262 10.6113C 24.0879 10.1973 24.2246 9.54492 24.2363 8.6543L 24.2363 6.87891Z" transform="translate(454 72) scale(2)" fill="#333333"/>
</g>
<g data-name="0">
<path d="M 14.3223 3.46289L 14.3223 4.38281L 14.123 4.38281C 13.2793 4.39844 12.6074 4.64844 12.1074 5.13281C 11.6074 5.61719 11.3184 6.29883 11.2402 7.17773C 11.6895 6.66211 12.3027 6.4043 13.0801 6.4043C 13.8223 6.4043 14.4141 6.66602 14.8555 7.18945C 15.3008 7.71289 15.5234 8.38867 15.5234 9.2168C 15.5234 10.0957 15.2832 10.7988 14.8027 11.3262C 14.3262 11.8535 13.6855 12.1172 12.8809 12.1172C 12.0645 12.1172 11.4023 11.8047 10.8945 11.1797C 10.3867 10.5508 10.1328 9.74219 10.1328 8.75391L 10.1328 8.33789C 10.1328 6.76758 10.4668 5.56836 11.1348 4.74023C 11.8066 3.9082 12.8047 3.48242 14.1289 3.46289L 14.3223 3.46289ZM 12.8984 7.30664C 12.5273 7.30664 12.1855 7.41797 11.873 7.64062C 11.5605 7.86328 11.3438 8.14258 11.2227 8.47852L 11.2227 8.87695C 11.2227 9.58008 11.3809 10.1465 11.6973 10.5762C 12.0137 11.0059 12.4082 11.2207 12.8809 11.2207C 13.3691 11.2207 13.752 11.041 14.0293 10.6816C 14.3105 10.3223 14.4512 9.85156 14.4512 9.26953C 14.4512 8.68359 14.3086 8.21094 14.0234 7.85156C 13.7422 7.48828 13.3672 7.30664 12.8984 7.30664ZM 16.9414 11.4316C 16.9414 11.2441 16.9961 11.0879 17.1055 10.9629C 17.2188 10.8379 17.3867 10.7754 17.6094 10.7754C 17.832 10.7754 18 10.8379 18.1133 10.9629C 18.2305 11.0879 18.2891 11.2441 18.2891 11.4316C 18.2891 11.6113 18.2305 11.7617 18.1133 11.8828C 18 12.0039 17.832 12.0645 17.6094 12.0645C 17.3867 12.0645 17.2188 12.0039 17.1055 11.8828C 16.9961 11.7617 16.9414 11.6113 16.9414 11.4316ZM 25.3203 8.36133C 25.3203 9.63086 25.1035 10.5742 24.6699 11.1914C 24.2363 11.8086 23.5586 12.1172 22.6367 12.1172C 21.7266 12.1172 21.0527 11.8164 20.6152 11.2148C 20.1777 10.6094 19.9512 9.70703 19.9355 8.50781L 19.9355 7.06055C 19.9355 5.80664 20.1523 4.875 20.5859 4.26562C 21.0195 3.65625 21.6992 3.35156 22.625 3.35156C 23.543 3.35156 24.2188 3.64648 24.6523 4.23633C 25.0859 4.82227 25.3086 5.72852 25.3203 6.95508L 25.3203 8.36133ZM 24.2363 6.87891C 24.2363 5.96094 24.1074 5.29297 23.8496 4.875C 23.5918 4.45312 23.1836 4.24219 22.625 4.24219C 22.0703 4.24219 21.666 4.45117 21.4121 4.86914C 21.1582 5.28711 21.0273 5.92969 21.0195 6.79688L 21.0195 8.53125C 21.0195 9.45312 21.1523 10.1348 21.418 10.5762C 21.6875 11.0137 22.0938 11.2324 22.6367 11.2324C 23.1719 11.2324 23.5684 11.0254 23.8262 10.6113C 24.0879 10.1973 24.2246 9.54492 24.2363 8.6543L 24.2363 6.87891Z" transform="translate(454 114) scale(2)" fill="#333333"/>
</g>
<g data-name="0">
<path d="M 14.6445 9.13477L 15.8281 9.13477L 15.8281 10.0195L 14.6445 10.0195L 14.6445 12L 13.5547 12L 13.5547 10.0195L 9.66992 10.0195L 9.66992 9.38086L 13.4902 3.46875L 14.6445 3.46875L 14.6445 9.13477ZM 10.9004 9.13477L 13.5547 9.13477L 13.5547 4.95117L 13.4258 5.18555L 10.9004 9.13477ZM 16.9414 11.4316C 16.9414 11.2441 16.9961 11.0879 17.1055 10.9629C 17.2188 10.8379 17.3867 10.7754 17.6094 10.7754C 17.832 10.7754 18 10.8379 18.1133 10.9629C 18.2305 11.0879 18.2891 11.2441 18.2891 11.4316C 18.2891 11.6113 18.2305 11.7617 18.1133 11.8828C 18 12.0039 17.832 12.0645 17.6094 12.0645C 17.3867 12.0645 17.2188 12.0039 17.1055 11.8828C 16.9961 11.7617 16.9414 11.6113 16.9414 11.4316ZM 25.3203 8.36133C 25.3203 9.63086 25.1035 10.5742 24.6699 11.1914C 24.2363 11.8086 23.5586 12.1172 22.6367 12.1172C 21.7266 12.1172 21.0527 11.8164 20.6152 11.2148C 20.1777 10.6094 19.9512 9.70703 19.9355 8.50781L 19.9355 7.06055C 19.9355 5.80664 20.1523 4.875 20.5859 4.26562C 21.0195 3.65625 21.6992 3.35156 22.625 3.35156C 23.543 3.35156 24.2188 3.64648 24.6523 4.23633C 25.0859 4.82227 25.3086 5.72852 25.3203 6.95508L 25.3203 8.36133ZM 24.2363 6.87891C 24.2363 5.96094 24.1074 5.29297 23.8496 4.875C 23.5918 4.45312 23.1836 4.24219 22.625 4.24219C 22.0703 4.24219 21.666 4.45117 21.4121 4.86914C 21.1582 5.28711 21.0273 5.92969 21.0195 6.79688L 21.0195 8.53125C 21.0195 9.45312 21.1523 10.1348 21.418 10.5762C 21.6875 11.0137 22.0938 11.2324 22.6367 11.2324C 23.1719 11.2324 23.5684 11.0254 23.8262 10.6113C 24.0879 10.1973 24.2246 9.54492 24.2363 8.6543L 24.2363 6.87891Z" transform="translate(454 159.125) scale(2)" fill="#333333"/>
</g>
<g data-name="0">
<path d="M 15.6582 12L 10.0684 12L 10.0684 11.2207L 13.0215 7.93945C 13.459 7.44336 13.7598 7.04102 13.9238 6.73242C 14.0918 6.41992 14.1758 6.09766 14.1758 5.76562C 14.1758 5.32031 14.041 4.95508 13.7715 4.66992C 13.502 4.38477 13.1426 4.24219 12.6934 4.24219C 12.1543 4.24219 11.7344 4.39648 11.4336 4.70508C 11.1367 5.00977 10.9883 5.43555 10.9883 5.98242L 9.9043 5.98242C 9.9043 5.19727 10.1562 4.5625 10.6602 4.07812C 11.168 3.59375 11.8457 3.35156 12.6934 3.35156C 13.4863 3.35156 14.1133 3.56055 14.5742 3.97852C 15.0352 4.39258 15.2656 4.94531 15.2656 5.63672C 15.2656 6.47656 14.7305 7.47656 13.6602 8.63672L 11.375 11.1152L 15.6582 11.1152L 15.6582 12ZM 16.9414 11.4316C 16.9414 11.2441 16.9961 11.0879 17.1055 10.9629C 17.2188 10.8379 17.3867 10.7754 17.6094 10.7754C 17.832 10.7754 18 10.8379 18.1133 10.9629C 18.2305 11.0879 18.2891 11.2441 18.2891 11.4316C 18.2891 11.6113 18.2305 11.7617 18.1133 11.8828C 18 12.0039 17.832 12.0645 17.6094 12.0645C 17.3867 12.0645 17.2188 12.0039 17.1055 11.8828C 16.9961 11.7617 16.9414 11.6113 16.9414 11.4316ZM 25.3203 8.36133C 25.3203 9.63086 25.1035 10.5742 24.6699 11.1914C 24.2363 11.8086 23.5586 12.1172 22.6367 12.1172C 21.7266 12.1172 21.0527 11.8164 20.6152 11.2148C 20.1777 10.6094 19.9512 9.70703 19.9355 8.50781L 19.9355 7.06055C 19.9355 5.80664 20.1523 4.875 20.5859 4.26562C 21.0195 3.65625 21.6992 3.35156 22.625 3.35156C 23.543 3.35156 24.2188 3.64648 24.6523 4.23633C 25.0859 4.82227 25.3086 5.72852 25.3203 6.95508L 25.3203 8.36133ZM 24.2363 6.87891C 24.2363 5.96094 24.1074 5.29297 23.8496 4.875C 23.5918 4.45312 23.1836 4.24219 22.625 4.24219C 22.0703 4.24219 21.666 4.45117 21.4121 4.86914C 21.1582 5.28711 21.0273 5.92969 21.0195 6.79688L 21.0195 8.53125C 21.0195 9.45312 21.1523 10.1348 21.418 10.5762C 21.6875 11.0137 22.0938 11.2324 22.6367 11.2324C 23.1719 11.2324 23.5684 11.0254 23.8262 10.6113C 24.0879 10.1973 24.2246 9.54492 24.2363 8.6543L 24.2363 6.87891Z" transform="translate(454 201.125) scale(2)" fill="#333333"/>
</g>
<g data-name="x">
<path d="M 2.94727 6.97461L 4.35352 4.66016L 5.61914 4.66016L 3.54492 7.79492L 5.68359 11L 4.42969 11L 2.96484 8.62695L 1.5 11L 0.240234 11L 2.37891 7.79492L 0.304688 4.66016L 1.55859 4.66016L 2.94727 6.97461Z" transform="translate(434 114) scale(2)" fill="#828282"/>
</g>
<g data-name="y">
<path d="M 2.89453 9.41211L 4.37109 4.66016L 5.53125 4.66016L 2.98242 11.9785C 2.58789 13.0332 1.96094 13.5605 1.10156 13.5605L 0.896484 13.543L 0.492188 13.4668L 0.492188 12.5879L 0.785156 12.6113C 1.15234 12.6113 1.4375 12.5371 1.64062 12.3887C 1.84766 12.2402 2.01758 11.9688 2.15039 11.5742L 2.39062 10.9297L 0.128906 4.66016L 1.3125 4.66016L 2.89453 9.41211Z" transform="translate(434 159.125) scale(2)" fill="#828282"/>
</g>
<g data-name="Rectangle">
<rect width="28" height="21.9056" transform="translate(454 193.313) scale(2)" stroke="black"/>
</g>
<g data-name="Rectangle">
<rect width="28" height="21.9812" transform="translate(510 62) scale(2)" stroke="black"/>
</g>
<g data-name="Rectangle">
<rect width="28" height="21.9056" transform="translate(510 105.811) scale(2)" stroke="black"/>
</g>
<g data-name="Rectangle">
<rect width="28" height="21.9056" transform="translate(510 150) scale(2)" stroke="black"/>
</g>
<g data-name="0">
<path d="M 11.252 10L 11.252 1.46875L 14.041 1.46875C 14.9668 1.46875 15.6621 1.66016 16.127 2.04297C 16.5957 2.42578 16.8301 2.99219 16.8301 3.74219C 16.8301 4.14062 16.7168 4.49414 16.4902 4.80273C 16.2637 5.10742 15.9551 5.34375 15.5645 5.51172C 16.0254 5.64062 16.3887 5.88672 16.6543 6.25C 16.9238 6.60938 17.0586 7.03906 17.0586 7.53906C 17.0586 8.30469 16.8105 8.90625 16.3145 9.34375C 15.8184 9.78125 15.1172 10 14.2109 10L 11.252 10ZM 12.377 6.00977L 12.377 9.08008L 14.2344 9.08008C 14.7578 9.08008 15.1699 8.94531 15.4707 8.67578C 15.7754 8.40234 15.9277 8.02734 15.9277 7.55078C 15.9277 6.52344 15.3691 6.00977 14.252 6.00977L 12.377 6.00977ZM 12.377 5.10742L 14.0762 5.10742C 14.5684 5.10742 14.9609 4.98438 15.2539 4.73828C 15.5508 4.49219 15.6992 4.1582 15.6992 3.73633C 15.6992 3.26758 15.5625 2.92773 15.2891 2.7168C 15.0156 2.50195 14.5996 2.39453 14.041 2.39453L 12.377 2.39453L 12.377 5.10742Z" transform="translate(510 34) scale(2)" fill="#828282"/>
</g>
<g data-name="0">
<path d="M 11.6445 7.20703L 12.459 7.20703C 12.9707 7.19922 13.373 7.06445 13.666 6.80273C 13.959 6.54102 14.1055 6.1875 14.1055 5.74219C 14.1055 4.74219 13.6074 4.24219 12.6113 4.24219C 12.1426 4.24219 11.7676 4.37695 11.4863 4.64648C 11.209 4.91211 11.0703 5.26562 11.0703 5.70703L 9.98633 5.70703C 9.98633 5.03125 10.2324 4.4707 10.7246 4.02539C 11.2207 3.57617 11.8496 3.35156 12.6113 3.35156C 13.416 3.35156 14.0469 3.56445 14.5039 3.99023C 14.9609 4.41602 15.1895 5.00781 15.1895 5.76562C 15.1895 6.13672 15.0684 6.49609 14.8262 6.84375C 14.5879 7.19141 14.2617 7.45117 13.8477 7.62305C 14.3164 7.77148 14.6777 8.01758 14.9316 8.36133C 15.1895 8.70508 15.3184 9.125 15.3184 9.62109C 15.3184 10.3867 15.0684 10.9941 14.5684 11.4434C 14.0684 11.8926 13.418 12.1172 12.6172 12.1172C 11.8164 12.1172 11.1641 11.9004 10.6602 11.4668C 10.1602 11.0332 9.91016 10.4609 9.91016 9.75L 11 9.75C 11 10.1992 11.1465 10.5586 11.4395 10.8281C 11.7324 11.0977 12.125 11.2324 12.6172 11.2324C 13.1406 11.2324 13.541 11.0957 13.8184 10.8223C 14.0957 10.5488 14.2344 10.1562 14.2344 9.64453C 14.2344 9.14844 14.082 8.76758 13.7773 8.50195C 13.4727 8.23633 13.0332 8.09961 12.459 8.0918L 11.6445 8.0918L 11.6445 7.20703ZM 16.9414 11.4316C 16.9414 11.2441 16.9961 11.0879 17.1055 10.9629C 17.2188 10.8379 17.3867 10.7754 17.6094 10.7754C 17.832 10.7754 18 10.8379 18.1133 10.9629C 18.2305 11.0879 18.2891 11.2441 18.2891 11.4316C 18.2891 11.6113 18.2305 11.7617 18.1133 11.8828C 18 12.0039 17.832 12.0645 17.6094 12.0645C 17.3867 12.0645 17.2188 12.0039 17.1055 11.8828C 16.9961 11.7617 16.9414 11.6113 16.9414 11.4316ZM 25.3203 8.36133C 25.3203 9.63086 25.1035 10.5742 24.6699 11.1914C 24.2363 11.8086 23.5586 12.1172 22.6367 12.1172C 21.7266 12.1172 21.0527 11.8164 20.6152 11.2148C 20.1777 10.6094 19.9512 9.70703 19.9355 8.50781L 19.9355 7.06055C 19.9355 5.80664 20.1523 4.875 20.5859 4.26562C 21.0195 3.65625 21.6992 3.35156 22.625 3.35156C 23.543 3.35156 24.2188 3.64648 24.6523 4.23633C 25.0859 4.82227 25.3086 5.72852 25.3203 6.95508L 25.3203 8.36133ZM 24.2363 6.87891C 24.2363 5.96094 24.1074 5.29297 23.8496 4.875C 23.5918 4.45312 23.1836 4.24219 22.625 4.24219C 22.0703 4.24219 21.666 4.45117 21.4121 4.86914C 21.1582 5.28711 21.0273 5.92969 21.0195 6.79688L 21.0195 8.53125C 21.0195 9.45312 21.1523 10.1348 21.418 10.5762C 21.6875 11.0137 22.0938 11.2324 22.6367 11.2324C 23.1719 11.2324 23.5684 11.0254 23.8262 10.6113C 24.0879 10.1973 24.2246 9.54492 24.2363 8.6543L 24.2363 6.87891Z" transform="translate(510 72) scale(2)" fill="#333333"/>
</g>
<g data-name="0">
<path d="M 15.6582 12L 10.0684 12L 10.0684 11.2207L 13.0215 7.93945C 13.459 7.44336 13.7598 7.04102 13.9238 6.73242C 14.0918 6.41992 14.1758 6.09766 14.1758 5.76562C 14.1758 5.32031 14.041 4.95508 13.7715 4.66992C 13.502 4.38477 13.1426 4.24219 12.6934 4.24219C 12.1543 4.24219 11.7344 4.39648 11.4336 4.70508C 11.1367 5.00977 10.9883 5.43555 10.9883 5.98242L 9.9043 5.98242C 9.9043 5.19727 10.1562 4.5625 10.6602 4.07812C 11.168 3.59375 11.8457 3.35156 12.6934 3.35156C 13.4863 3.35156 14.1133 3.56055 14.5742 3.97852C 15.0352 4.39258 15.2656 4.94531 15.2656 5.63672C 15.2656 6.47656 14.7305 7.47656 13.6602 8.63672L 11.375 11.1152L 15.6582 11.1152L 15.6582 12ZM 16.9414 11.4316C 16.9414 11.2441 16.9961 11.0879 17.1055 10.9629C 17.2188 10.8379 17.3867 10.7754 17.6094 10.7754C 17.832 10.7754 18 10.8379 18.1133 10.9629C 18.2305 11.0879 18.2891 11.2441 18.2891 11.4316C 18.2891 11.6113 18.2305 11.7617 18.1133 11.8828C 18 12.0039 17.832 12.0645 17.6094 12.0645C 17.3867 12.0645 17.2188 12.0039 17.1055 11.8828C 16.9961 11.7617 16.9414 11.6113 16.9414 11.4316ZM 25.3203 8.36133C 25.3203 9.63086 25.1035 10.5742 24.6699 11.1914C 24.2363 11.8086 23.5586 12.1172 22.6367 12.1172C 21.7266 12.1172 21.0527 11.8164 20.6152 11.2148C 20.1777 10.6094 19.9512 9.70703 19.9355 8.50781L 19.9355 7.06055C 19.9355 5.80664 20.1523 4.875 20.5859 4.26562C 21.0195 3.65625 21.6992 3.35156 22.625 3.35156C 23.543 3.35156 24.2188 3.64648 24.6523 4.23633C 25.0859 4.82227 25.3086 5.72852 25.3203 6.95508L 25.3203 8.36133ZM 24.2363 6.87891C 24.2363 5.96094 24.1074 5.29297 23.8496 4.875C 23.5918 4.45312 23.1836 4.24219 22.625 4.24219C 22.0703 4.24219 21.666 4.45117 21.4121 4.86914C 21.1582 5.28711 21.0273 5.92969 21.0195 6.79688L 21.0195 8.53125C 21.0195 9.45312 21.1523 10.1348 21.418 10.5762C 21.6875 11.0137 22.0938 11.2324 22.6367 11.2324C 23.1719 11.2324 23.5684 11.0254 23.8262 10.6113C 24.0879 10.1973 24.2246 9.54492 24.2363 8.6543L 24.2363 6.87891Z" transform="translate(510 114) scale(2)" fill="#333333"/>
</g>
<g data-name="0">
<path d="M 11.6445 7.20703L 12.459 7.20703C 12.9707 7.19922 13.373 7.06445 13.666 6.80273C 13.959 6.54102 14.1055 6.1875 14.1055 5.74219C 14.1055 4.74219 13.6074 4.24219 12.6113 4.24219C 12.1426 4.24219 11.7676 4.37695 11.4863 4.64648C 11.209 4.91211 11.0703 5.26562 11.0703 5.70703L 9.98633 5.70703C 9.98633 5.03125 10.2324 4.4707 10.7246 4.02539C 11.2207 3.57617 11.8496 3.35156 12.6113 3.35156C 13.416 3.35156 14.0469 3.56445 14.5039 3.99023C 14.9609 4.41602 15.1895 5.00781 15.1895 5.76562C 15.1895 6.13672 15.0684 6.49609 14.8262 6.84375C 14.5879 7.19141 14.2617 7.45117 13.8477 7.62305C 14.3164 7.77148 14.6777 8.01758 14.9316 8.36133C 15.1895 8.70508 15.3184 9.125 15.3184 9.62109C 15.3184 10.3867 15.0684 10.9941 14.5684 11.4434C 14.0684 11.8926 13.418 12.1172 12.6172 12.1172C 11.8164 12.1172 11.1641 11.9004 10.6602 11.4668C 10.1602 11.0332 9.91016 10.4609 9.91016 9.75L 11 9.75C 11 10.1992 11.1465 10.5586 11.4395 10.8281C 11.7324 11.0977 12.125 11.2324 12.6172 11.2324C 13.1406 11.2324 13.541 11.0957 13.8184 10.8223C 14.0957 10.5488 14.2344 10.1562 14.2344 9.64453C 14.2344 9.14844 14.082 8.76758 13.7773 8.50195C 13.4727 8.23633 13.0332 8.09961 12.459 8.0918L 11.6445 8.0918L 11.6445 7.20703ZM 16.9414 11.4316C 16.9414 11.2441 16.9961 11.0879 17.1055 10.9629C 17.2188 10.8379 17.3867 10.7754 17.6094 10.7754C 17.832 10.7754 18 10.8379 18.1133 10.9629C 18.2305 11.0879 18.2891 11.2441 18.2891 11.4316C 18.2891 11.6113 18.2305 11.7617 18.1133 11.8828C 18 12.0039 17.832 12.0645 17.6094 12.0645C 17.3867 12.0645 17.2188 12.0039 17.1055 11.8828C 16.9961 11.7617 16.9414 11.6113 16.9414 11.4316ZM 25.3203 8.36133C 25.3203 9.63086 25.1035 10.5742 24.6699 11.1914C 24.2363 11.8086 23.5586 12.1172 22.6367 12.1172C 21.7266 12.1172 21.0527 11.8164 20.6152 11.2148C 20.1777 10.6094 19.9512 9.70703 19.9355 8.50781L 19.9355 7.06055C 19.9355 5.80664 20.1523 4.875 20.5859 4.26562C 21.0195 3.65625 21.6992 3.35156 22.625 3.35156C 23.543 3.35156 24.2188 3.64648 24.6523 4.23633C 25.0859 4.82227 25.3086 5.72852 25.3203 6.95508L 25.3203 8.36133ZM 24.2363 6.87891C 24.2363 5.96094 24.1074 5.29297 23.8496 4.875C 23.5918 4.45312 23.1836 4.24219 22.625 4.24219C 22.0703 4.24219 21.666 4.45117 21.4121 4.86914C 21.1582 5.28711 21.0273 5.92969 21.0195 6.79688L 21.0195 8.53125C 21.0195 9.45312 21.1523 10.1348 21.418 10.5762C 21.6875 11.0137 22.0938 11.2324 22.6367 11.2324C 23.1719 11.2324 23.5684 11.0254 23.8262 10.6113C 24.0879 10.1973 24.2246 9.54492 24.2363 8.6543L 24.2363 6.87891Z" transform="translate(510 159.125) scale(2)" fill="#333333"/>
</g>
<g data-name="0">
<path d="M 10.5664 7.72266L 11 3.46875L 15.3711 3.46875L 15.3711 4.4707L 11.9199 4.4707L 11.6621 6.79688C 12.0801 6.55078 12.5547 6.42773 13.0859 6.42773C 13.8633 6.42773 14.4805 6.68555 14.9375 7.20117C 15.3945 7.71289 15.623 8.40625 15.623 9.28125C 15.623 10.1602 15.3848 10.8535 14.9082 11.3613C 14.4355 11.8652 13.7734 12.1172 12.9219 12.1172C 12.168 12.1172 11.5527 11.9082 11.0762 11.4902C 10.5996 11.0723 10.3281 10.4941 10.2617 9.75586L 11.2871 9.75586C 11.3535 10.2441 11.5273 10.6133 11.8086 10.8633C 12.0898 11.1094 12.4609 11.2324 12.9219 11.2324C 13.4258 11.2324 13.8203 11.0605 14.1055 10.7168C 14.3945 10.373 14.5391 9.89844 14.5391 9.29297C 14.5391 8.72266 14.3828 8.26562 14.0703 7.92188C 13.7617 7.57422 13.3496 7.40039 12.834 7.40039C 12.3613 7.40039 11.9902 7.50391 11.7207 7.71094L 11.4336 7.94531L 10.5664 7.72266ZM 16.9414 11.4316C 16.9414 11.2441 16.9961 11.0879 17.1055 10.9629C 17.2188 10.8379 17.3867 10.7754 17.6094 10.7754C 17.832 10.7754 18 10.8379 18.1133 10.9629C 18.2305 11.0879 18.2891 11.2441 18.2891 11.4316C 18.2891 11.6113 18.2305 11.7617 18.1133 11.8828C 18 12.0039 17.832 12.0645 17.6094 12.0645C 17.3867 12.0645 17.2188 12.0039 17.1055 11.8828C 16.9961 11.7617 16.9414 11.6113 16.9414 11.4316ZM 25.3203 8.36133C 25.3203 9.63086 25.1035 10.5742 24.6699 11.1914C 24.2363 11.8086 23.5586 12.1172 22.6367 12.1172C 21.7266 12.1172 21.0527 11.8164 20.6152 11.2148C 20.1777 10.6094 19.9512 9.70703 19.9355 8.50781L 19.9355 7.06055C 19.9355 5.80664 20.1523 4.875 20.5859 4.26562C 21.0195 3.65625 21.6992 3.35156 22.625 3.35156C 23.543 3.35156 24.2188 3.64648 24.6523 4.23633C 25.0859 4.82227 25.3086 5.72852 25.3203 6.95508L 25.3203 8.36133ZM 24.2363 6.87891C 24.2363 5.96094 24.1074 5.29297 23.8496 4.875C 23.5918 4.45312 23.1836 4.24219 22.625 4.24219C 22.0703 4.24219 21.666 4.45117 21.4121 4.86914C 21.1582 5.28711 21.0273 5.92969 21.0195 6.79688L 21.0195 8.53125C 21.0195 9.45312 21.1523 10.1348 21.418 10.5762C 21.6875 11.0137 22.0938 11.2324 22.6367 11.2324C 23.1719 11.2324 23.5684 11.0254 23.8262 10.6113C 24.0879 10.1973 24.2246 9.54492 24.2363 8.6543L 24.2363 6.87891Z" transform="translate(510 201.125) scale(2)" fill="#333333"/>
</g>
<g data-name="Rectangle">
<rect width="28" height="21.9056" transform="translate(510 193.313) scale(2)" stroke="black"/>
</g>
<g data-name="Rectangle">
<rect width="28" height="21.9812" transform="translate(566 62) scale(2)" stroke="black"/>
</g>
<g data-name="Rectangle">
<rect width="28" height="21.9056" transform="translate(566 105.811) scale(2)" stroke="black"/>
</g>
<g data-name="Rectangle">
<rect width="28" height="21.9056" transform="translate(566 150) scale(2)" stroke="black"/>
</g>
<g data-name="0">
<path d="M 17.3574 7.29297C 17.252 8.19531 16.918 8.89258 16.3555 9.38477C 15.7969 9.87305 15.0527 10.1172 14.123 10.1172C 13.1152 10.1172 12.3066 9.75586 11.6973 9.0332C 11.0918 8.31055 10.7891 7.34375 10.7891 6.13281L 10.7891 5.3125C 10.7891 4.51953 10.9297 3.82227 11.2109 3.2207C 11.4961 2.61914 11.8984 2.1582 12.418 1.83789C 12.9375 1.51367 13.5391 1.35156 14.2227 1.35156C 15.1289 1.35156 15.8555 1.60547 16.4023 2.11328C 16.9492 2.61719 17.2676 3.31641 17.3574 4.21094L 16.2266 4.21094C 16.1289 3.53125 15.916 3.03906 15.5879 2.73438C 15.2637 2.42969 14.8086 2.27734 14.2227 2.27734C 13.5039 2.27734 12.9395 2.54297 12.5293 3.07422C 12.123 3.60547 11.9199 4.36133 11.9199 5.3418L 11.9199 6.16797C 11.9199 7.09375 12.1133 7.83008 12.5 8.37695C 12.8867 8.92383 13.4277 9.19727 14.123 9.19727C 14.748 9.19727 15.2266 9.05664 15.5586 8.77539C 15.8945 8.49023 16.1172 7.99609 16.2266 7.29297L 17.3574 7.29297Z" transform="translate(566 34) scale(2)" fill="#828282"/>
</g>
<g data-name="0">
<path d="M 15.5762 4.07812L 12.043 12L 10.9062 12L 14.4277 4.35938L 9.81055 4.35938L 9.81055 3.46875L 15.5762 3.46875L 15.5762 4.07812ZM 16.9414 11.4316C 16.9414 11.2441 16.9961 11.0879 17.1055 10.9629C 17.2188 10.8379 17.3867 10.7754 17.6094 10.7754C 17.832 10.7754 18 10.8379 18.1133 10.9629C 18.2305 11.0879 18.2891 11.2441 18.2891 11.4316C 18.2891 11.6113 18.2305 11.7617 18.1133 11.8828C 18 12.0039 17.832 12.0645 17.6094 12.0645C 17.3867 12.0645 17.2188 12.0039 17.1055 11.8828C 16.9961 11.7617 16.9414 11.6113 16.9414 11.4316ZM 25.3203 8.36133C 25.3203 9.63086 25.1035 10.5742 24.6699 11.1914C 24.2363 11.8086 23.5586 12.1172 22.6367 12.1172C 21.7266 12.1172 21.0527 11.8164 20.6152 11.2148C 20.1777 10.6094 19.9512 9.70703 19.9355 8.50781L 19.9355 7.06055C 19.9355 5.80664 20.1523 4.875 20.5859 4.26562C 21.0195 3.65625 21.6992 3.35156 22.625 3.35156C 23.543 3.35156 24.2188 3.64648 24.6523 4.23633C 25.0859 4.82227 25.3086 5.72852 25.3203 6.95508L 25.3203 8.36133ZM 24.2363 6.87891C 24.2363 5.96094 24.1074 5.29297 23.8496 4.875C 23.5918 4.45312 23.1836 4.24219 22.625 4.24219C 22.0703 4.24219 21.666 4.45117 21.4121 4.86914C 21.1582 5.28711 21.0273 5.92969 21.0195 6.79688L 21.0195 8.53125C 21.0195 9.45312 21.1523 10.1348 21.418 10.5762C 21.6875 11.0137 22.0938 11.2324 22.6367 11.2324C 23.1719 11.2324 23.5684 11.0254 23.8262 10.6113C 24.0879 10.1973 24.2246 9.54492 24.2363 8.6543L 24.2363 6.87891Z" transform="translate(566 72) scale(2)" fill="#333333"/>
</g>
<g data-name="0">
<path d="M 9.91016 12L 8.7793 12L 4.48438 5.42578L 4.48438 12L 3.35352 12L 3.35352 3.46875L 4.48438 3.46875L 8.79102 10.0723L 8.79102 3.46875L 9.91016 3.46875L 9.91016 12ZM 15.6523 12C 15.5898 11.875 15.5391 11.6523 15.5 11.332C 14.9961 11.8555 14.3945 12.1172 13.6953 12.1172C 13.0703 12.1172 12.5566 11.9414 12.1543 11.5898C 11.7559 11.2344 11.5566 10.7852 11.5566 10.2422C 11.5566 9.58203 11.8066 9.07031 12.3066 8.70703C 12.8105 8.33984 13.5176 8.15625 14.4277 8.15625L 15.4824 8.15625L 15.4824 7.6582C 15.4824 7.2793 15.3691 6.97852 15.1426 6.75586C 14.916 6.5293 14.582 6.41602 14.1406 6.41602C 13.7539 6.41602 13.4297 6.51367 13.168 6.70898C 12.9062 6.9043 12.7754 7.14062 12.7754 7.41797L 11.6855 7.41797C 11.6855 7.10156 11.7969 6.79688 12.0195 6.50391C 12.2461 6.20703 12.5508 5.97266 12.9336 5.80078C 13.3203 5.62891 13.7441 5.54297 14.2051 5.54297C 14.9355 5.54297 15.5078 5.72656 15.9219 6.09375C 16.3359 6.45703 16.5508 6.95898 16.5664 7.59961L 16.5664 10.5176C 16.5664 11.0996 16.6406 11.5625 16.7891 11.9062L 16.7891 12L 15.6523 12ZM 13.8535 11.1738C 14.1934 11.1738 14.5156 11.0859 14.8203 10.9102C 15.125 10.7344 15.3457 10.5059 15.4824 10.2246L 15.4824 8.92383L 14.6328 8.92383C 13.3047 8.92383 12.6406 9.3125 12.6406 10.0898C 12.6406 10.4297 12.7539 10.6953 12.9805 10.8867C 13.207 11.0781 13.498 11.1738 13.8535 11.1738ZM 24.9922 12L 23.8613 12L 19.5664 5.42578L 19.5664 12L 18.4355 12L 18.4355 3.46875L 19.5664 3.46875L 23.873 10.0723L 23.873 3.46875L 24.9922 3.46875L 24.9922 12Z" transform="translate(566 114) scale(2)" fill="#EB5757" fill-opacity="0.5"/>
</g>
<g data-name="0">
<path d="M 15.5762 4.07812L 12.043 12L 10.9062 12L 14.4277 4.35938L 9.81055 4.35938L 9.81055 3.46875L 15.5762 3.46875L 15.5762 4.07812ZM 16.9414 11.4316C 16.9414 11.2441 16.9961 11.0879 17.1055 10.9629C 17.2188 10.8379 17.3867 10.7754 17.6094 10.7754C 17.832 10.7754 18 10.8379 18.1133 10.9629C 18.2305 11.0879 18.2891 11.2441 18.2891 11.4316C 18.2891 11.6113 18.2305 11.7617 18.1133 11.8828C 18 12.0039 17.832 12.0645 17.6094 12.0645C 17.3867 12.0645 17.2188 12.0039 17.1055 11.8828C 16.9961 11.7617 16.9414 11.6113 16.9414 11.4316ZM 25.3203 8.36133C 25.3203 9.63086 25.1035 10.5742 24.6699 11.1914C 24.2363 11.8086 23.5586 12.1172 22.6367 12.1172C 21.7266 12.1172 21.0527 11.8164 20.6152 11.2148C 20.1777 10.6094 19.9512 9.70703 19.9355 8.50781L 19.9355 7.06055C 19.9355 5.80664 20.1523 4.875 20.5859 4.26562C 21.0195 3.65625 21.6992 3.35156 22.625 3.35156C 23.543 3.35156 24.2188 3.64648 24.6523 4.23633C 25.0859 4.82227 25.3086 5.72852 25.3203 6.95508L 25.3203 8.36133ZM 24.2363 6.87891C 24.2363 5.96094 24.1074 5.29297 23.8496 4.875C 23.5918 4.45312 23.1836 4.24219 22.625 4.24219C 22.0703 4.24219 21.666 4.45117 21.4121 4.86914C 21.1582 5.28711 21.0273 5.92969 21.0195 6.79688L 21.0195 8.53125C 21.0195 9.45312 21.1523 10.1348 21.418 10.5762C 21.6875 11.0137 22.0938 11.2324 22.6367 11.2324C 23.1719 11.2324 23.5684 11.0254 23.8262 10.6113C 24.0879 10.1973 24.2246 9.54492 24.2363 8.6543L 24.2363 6.87891Z" transform="translate(566 159.125) scale(2)" fill="#333333"/>
</g>
<g data-name="0">
<path d="M 9.91016 12L 8.7793 12L 4.48438 5.42578L 4.48438 12L 3.35352 12L 3.35352 3.46875L 4.48438 3.46875L 8.79102 10.0723L 8.79102 3.46875L 9.91016 3.46875L 9.91016 12ZM 15.6523 12C 15.5898 11.875 15.5391 11.6523 15.5 11.332C 14.9961 11.8555 14.3945 12.1172 13.6953 12.1172C 13.0703 12.1172 12.5566 11.9414 12.1543 11.5898C 11.7559 11.2344 11.5566 10.7852 11.5566 10.2422C 11.5566 9.58203 11.8066 9.07031 12.3066 8.70703C 12.8105 8.33984 13.5176 8.15625 14.4277 8.15625L 15.4824 8.15625L 15.4824 7.6582C 15.4824 7.2793 15.3691 6.97852 15.1426 6.75586C 14.916 6.5293 14.582 6.41602 14.1406 6.41602C 13.7539 6.41602 13.4297 6.51367 13.168 6.70898C 12.9062 6.9043 12.7754 7.14062 12.7754 7.41797L 11.6855 7.41797C 11.6855 7.10156 11.7969 6.79688 12.0195 6.50391C 12.2461 6.20703 12.5508 5.97266 12.9336 5.80078C 13.3203 5.62891 13.7441 5.54297 14.2051 5.54297C 14.9355 5.54297 15.5078 5.72656 15.9219 6.09375C 16.3359 6.45703 16.5508 6.95898 16.5664 7.59961L 16.5664 10.5176C 16.5664 11.0996 16.6406 11.5625 16.7891 11.9062L 16.7891 12L 15.6523 12ZM 13.8535 11.1738C 14.1934 11.1738 14.5156 11.0859 14.8203 10.9102C 15.125 10.7344 15.3457 10.5059 15.4824 10.2246L 15.4824 8.92383L 14.6328 8.92383C 13.3047 8.92383 12.6406 9.3125 12.6406 10.0898C 12.6406 10.4297 12.7539 10.6953 12.9805 10.8867C 13.207 11.0781 13.498 11.1738 13.8535 11.1738ZM 24.9922 12L 23.8613 12L 19.5664 5.42578L 19.5664 12L 18.4355 12L 18.4355 3.46875L 19.5664 3.46875L 23.873 10.0723L 23.873 3.46875L 24.9922 3.46875L 24.9922 12Z" transform="translate(566 201.125) scale(2)" fill="#EB5757" fill-opacity="0.5"/>
</g>
<g data-name="Rectangle">
<rect width="28" height="21.9056" transform="translate(566 193.313) scale(2)" stroke="black"/>
</g>
<g data-name="Rectangle">
<rect width="28" height="21.9812" transform="translate(622 62) scale(2)" stroke="black"/>
</g>
<g data-name="Rectangle">
<rect width="28" height="21.9056" transform="translate(622 105.811) scale(2)" stroke="black"/>
</g>
<g data-name="Rectangle">
<rect width="28" height="21.9056" transform="translate(622 150) scale(2)" stroke="black"/>
</g>
<g data-name="0">
<path d="M 11.0527 10L 11.0527 1.46875L 13.4609 1.46875C 14.2031 1.46875 14.8594 1.63281 15.4297 1.96094C 16 2.28906 16.4395 2.75586 16.748 3.36133C 17.0605 3.9668 17.2188 4.66211 17.2227 5.44727L 17.2227 5.99219C 17.2227 6.79688 17.0664 7.50195 16.7539 8.10742C 16.4453 8.71289 16.002 9.17773 15.4238 9.50195C 14.8496 9.82617 14.1797 9.99219 13.4141 10L 11.0527 10ZM 12.1777 2.39453L 12.1777 9.08008L 13.3613 9.08008C 14.2285 9.08008 14.9023 8.81055 15.3828 8.27148C 15.8672 7.73242 16.1094 6.96484 16.1094 5.96875L 16.1094 5.4707C 16.1094 4.50195 15.8809 3.75 15.4238 3.21484C 14.9707 2.67578 14.3262 2.40234 13.4902 2.39453L 12.1777 2.39453Z" transform="translate(622 34) scale(2)" fill="#828282"/>
</g>
<g data-name="0">
<path d="M 14.6445 9.13477L 15.8281 9.13477L 15.8281 10.0195L 14.6445 10.0195L 14.6445 12L 13.5547 12L 13.5547 10.0195L 9.66992 10.0195L 9.66992 9.38086L 13.4902 3.46875L 14.6445 3.46875L 14.6445 9.13477ZM 10.9004 9.13477L 13.5547 9.13477L 13.5547 4.95117L 13.4258 5.18555L 10.9004 9.13477ZM 16.9414 11.4316C 16.9414 11.2441 16.9961 11.0879 17.1055 10.9629C 17.2188 10.8379 17.3867 10.7754 17.6094 10.7754C 17.832 10.7754 18 10.8379 18.1133 10.9629C 18.2305 11.0879 18.2891 11.2441 18.2891 11.4316C 18.2891 11.6113 18.2305 11.7617 18.1133 11.8828C 18 12.0039 17.832 12.0645 17.6094 12.0645C 17.3867 12.0645 17.2188 12.0039 17.1055 11.8828C 16.9961 11.7617 16.9414 11.6113 16.9414 11.4316ZM 25.3203 8.36133C 25.3203 9.63086 25.1035 10.5742 24.6699 11.1914C 24.2363 11.8086 23.5586 12.1172 22.6367 12.1172C 21.7266 12.1172 21.0527 11.8164 20.6152 11.2148C 20.1777 10.6094 19.9512 9.70703 19.9355 8.50781L 19.9355 7.06055C 19.9355 5.80664 20.1523 4.875 20.5859 4.26562C 21.0195 3.65625 21.6992 3.35156 22.625 3.35156C 23.543 3.35156 24.2188 3.64648 24.6523 4.23633C 25.0859 4.82227 25.3086 5.72852 25.3203 6.95508L 25.3203 8.36133ZM 24.2363 6.87891C 24.2363 5.96094 24.1074 5.29297 23.8496 4.875C 23.5918 4.45312 23.1836 4.24219 22.625 4.24219C 22.0703 4.24219 21.666 4.45117 21.4121 4.86914C 21.1582 5.28711 21.0273 5.92969 21.0195 6.79688L 21.0195 8.53125C 21.0195 9.45312 21.1523 10.1348 21.418 10.5762C 21.6875 11.0137 22.0938 11.2324 22.6367 11.2324C 23.1719 11.2324 23.5684 11.0254 23.8262 10.6113C 24.0879 10.1973 24.2246 9.54492 24.2363 8.6543L 24.2363 6.87891Z" transform="translate(622 72) scale(2)" fill="#333333"/>
</g>
<g data-name="0">
<path d="M 15.5762 4.07812L 12.043 12L 10.9062 12L 14.4277 4.35938L 9.81055 4.35938L 9.81055 3.46875L 15.5762 3.46875L 15.5762 4.07812ZM 16.9414 11.4316C 16.9414 11.2441 16.9961 11.0879 17.1055 10.9629C 17.2188 10.8379 17.3867 10.7754 17.6094 10.7754C 17.832 10.7754 18 10.8379 18.1133 10.9629C 18.2305 11.0879 18.2891 11.2441 18.2891 11.4316C 18.2891 11.6113 18.2305 11.7617 18.1133 11.8828C 18 12.0039 17.832 12.0645 17.6094 12.0645C 17.3867 12.0645 17.2188 12.0039 17.1055 11.8828C 16.9961 11.7617 16.9414 11.6113 16.9414 11.4316ZM 25.3203 8.36133C 25.3203 9.63086 25.1035 10.5742 24.6699 11.1914C 24.2363 11.8086 23.5586 12.1172 22.6367 12.1172C 21.7266 12.1172 21.0527 11.8164 20.6152 11.2148C 20.1777 10.6094 19.9512 9.70703 19.9355 8.50781L 19.9355 7.06055C 19.9355 5.80664 20.1523 4.875 20.5859 4.26562C 21.0195 3.65625 21.6992 3.35156 22.625 3.35156C 23.543 3.35156 24.2188 3.64648 24.6523 4.23633C 25.0859 4.82227 25.3086 5.72852 25.3203 6.95508L 25.3203 8.36133ZM 24.2363 6.87891C 24.2363 5.96094 24.1074 5.29297 23.8496 4.875C 23.5918 4.45312 23.1836 4.24219 22.625 4.24219C 22.0703 4.24219 21.666 4.45117 21.4121 4.86914C 21.1582 5.28711 21.0273 5.92969 21.0195 6.79688L 21.0195 8.53125C 21.0195 9.45312 21.1523 10.1348 21.418 10.5762C 21.6875 11.0137 22.0938 11.2324 22.6367 11.2324C 23.1719 11.2324 23.5684 11.0254 23.8262 10.6113C 24.0879 10.1973 24.2246 9.54492 24.2363 8.6543L 24.2363 6.87891Z" transform="translate(622 114) scale(2)" fill="#333333"/>
</g>
<g data-name="0">
<path d="M 15.5762 4.07812L 12.043 12L 10.9062 12L 14.4277 4.35938L 9.81055 4.35938L 9.81055 3.46875L 15.5762 3.46875L 15.5762 4.07812ZM 16.9414 11.4316C 16.9414 11.2441 16.9961 11.0879 17.1055 10.9629C 17.2188 10.8379 17.3867 10.7754 17.6094 10.7754C 17.832 10.7754 18 10.8379 18.1133 10.9629C 18.2305 11.0879 18.2891 11.2441 18.2891 11.4316C 18.2891 11.6113 18.2305 11.7617 18.1133 11.8828C 18 12.0039 17.832 12.0645 17.6094 12.0645C 17.3867 12.0645 17.2188 12.0039 17.1055 11.8828C 16.9961 11.7617 16.9414 11.6113 16.9414 11.4316ZM 25.3203 8.36133C 25.3203 9.63086 25.1035 10.5742 24.6699 11.1914C 24.2363 11.8086 23.5586 12.1172 22.6367 12.1172C 21.7266 12.1172 21.0527 11.8164 20.6152 11.2148C 20.1777 10.6094 19.9512 9.70703 19.9355 8.50781L 19.9355 7.06055C 19.9355 5.80664 20.1523 4.875 20.5859 4.26562C 21.0195 3.65625 21.6992 3.35156 22.625 3.35156C 23.543 3.35156 24.2188 3.64648 24.6523 4.23633C 25.0859 4.82227 25.3086 5.72852 25.3203 6.95508L 25.3203 8.36133ZM 24.2363 6.87891C 24.2363 5.96094 24.1074 5.29297 23.8496 4.875C 23.5918 4.45312 23.1836 4.24219 22.625 4.24219C 22.0703 4.24219 21.666 4.45117 21.4121 4.86914C 21.1582 5.28711 21.0273 5.92969 21.0195 6.79688L 21.0195 8.53125C 21.0195 9.45312 21.1523 10.1348 21.418 10.5762C 21.6875 11.0137 22.0938 11.2324 22.6367 11.2324C 23.1719 11.2324 23.5684 11.0254 23.8262 10.6113C 24.0879 10.1973 24.2246 9.54492 24.2363 8.6543L 24.2363 6.87891Z" transform="translate(622 159.125) scale(2)" fill="#333333"/>
</g>
<g data-name="0">
<path d="M 13.6309 12L 12.541 12L 12.541 4.77539L 10.3555 5.57812L 10.3555 4.59375L 13.4609 3.42773L 13.6309 3.42773L 13.6309 12ZM 16.9414 11.4316C 16.9414 11.2441 16.9961 11.0879 17.1055 10.9629C 17.2188 10.8379 17.3867 10.7754 17.6094 10.7754C 17.832 10.7754 18 10.8379 18.1133 10.9629C 18.2305 11.0879 18.2891 11.2441 18.2891 11.4316C 18.2891 11.6113 18.2305 11.7617 18.1133 11.8828C 18 12.0039 17.832 12.0645 17.6094 12.0645C 17.3867 12.0645 17.2188 12.0039 17.1055 11.8828C 16.9961 11.7617 16.9414 11.6113 16.9414 11.4316ZM 25.3203 8.36133C 25.3203 9.63086 25.1035 10.5742 24.6699 11.1914C 24.2363 11.8086 23.5586 12.1172 22.6367 12.1172C 21.7266 12.1172 21.0527 11.8164 20.6152 11.2148C 20.1777 10.6094 19.9512 9.70703 19.9355 8.50781L 19.9355 7.06055C 19.9355 5.80664 20.1523 4.875 20.5859 4.26562C 21.0195 3.65625 21.6992 3.35156 22.625 3.35156C 23.543 3.35156 24.2188 3.64648 24.6523 4.23633C 25.0859 4.82227 25.3086 5.72852 25.3203 6.95508L 25.3203 8.36133ZM 24.2363 6.87891C 24.2363 5.96094 24.1074 5.29297 23.8496 4.875C 23.5918 4.45312 23.1836 4.24219 22.625 4.24219C 22.0703 4.24219 21.666 4.45117 21.4121 4.86914C 21.1582 5.28711 21.0273 5.92969 21.0195 6.79688L 21.0195 8.53125C 21.0195 9.45312 21.1523 10.1348 21.418 10.5762C 21.6875 11.0137 22.0938 11.2324 22.6367 11.2324C 23.1719 11.2324 23.5684 11.0254 23.8262 10.6113C 24.0879 10.1973 24.2246 9.54492 24.2363 8.6543L 24.2363 6.87891Z" transform="translate(622 201.125) scale(2)" fill="#333333"/>
</g>
<g data-name="Rectangle">
<rect width="28" height="21.9056" transform="translate(622 193.313) scale(2)" stroke="black"/>
</g>
<g data-name="z">
<path d="M 1.83984 10.1152L 5.54883 10.1152L 5.54883 11L 0.515625 11L 0.515625 10.2031L 4.01367 5.55664L 0.568359 5.55664L 0.568359 4.66016L 5.37305 4.66016L 5.37305 5.42773L 1.83984 10.1152Z" transform="translate(434 201.875) scale(2)" fill="#828282"/>
</g>
</g>
</g>
<defs>

<clipPath id="clip0">
<rect width="351" height="134" fill="white" transform="scale(2)"/>
</clipPath>

</defs>
</svg>

