<svg width="297" height="118" viewBox="0 0 297 118" version="1.1" xmlns="http://www.w3.org/2000/svg" xmlns:xlink="http://www.w3.org/1999/xlink">
<title>Group</title>
<desc>Created using Figma</desc>
<g id="Canvas" transform="translate(306 -269)">
<g id="Group">
<g id="jobs.db">
<use xlink:href="#path0_fill" transform="translate(-298 369)"/>
</g>
<g id="Ellipse">
<use xlink:href="#path1_fill" transform="translate(-291 316)" fill="#4CC4F2"/>
</g>
<g id="Ellipse">
<use xlink:href="#path1_fill" transform="translate(-291 341.732)" fill="#4CC4F2"/>
</g>
<g id="Rectangle 7">
<use xlink:href="#path2_fill" transform="translate(-291 322.833)" fill="#4CC4F2"/>
</g>
<g id="recent_grads">
<use xlink:href="#path3_fill" transform="translate(-158 369)"/>
</g>
<g id="This database contains one table.">
<use xlink:href="#path4_fill" transform="translate(-306 267)" fill="#6FCF97"/>
<use xlink:href="#path5_fill" transform="translate(-306 267)" fill="#4CC4F2"/>
<use xlink:href="#path6_fill" transform="translate(-306 267)"/>
</g>
<g id="Line 8">
<use xlink:href="#path7_stroke" transform="translate(-259 337)"/>
</g>
<g id="Rectangle 13">
<use xlink:href="#path8_fill" transform="translate(-151 314)" fill="#F2F2F2"/>
<mask id="mask0_outline_ins">
<use xlink:href="#path8_fill" fill="white" transform="translate(-151 314)"/>
</mask>
<g mask="url(#mask0_outline_ins)">
<use xlink:href="#path9_stroke_2x" transform="translate(-151 314)"/>
</g>
</g>
<g id="Rectangle 13">
<use xlink:href="#path8_fill" transform="translate(-136.363 314)" fill="#F2F2F2"/>
<mask id="mask1_outline_ins">
<use xlink:href="#path8_fill" fill="white" transform="translate(-136.363 314)"/>
</mask>
<g mask="url(#mask1_outline_ins)">
<use xlink:href="#path9_stroke_2x" transform="translate(-136.363 314)"/>
</g>
</g>
<g id="Rectangle 13">
<use xlink:href="#path8_fill" transform="translate(-121.725 314)" fill="#F2F2F2"/>
<mask id="mask2_outline_ins">
<use xlink:href="#path8_fill" fill="white" transform="translate(-121.725 314)"/>
</mask>
<g mask="url(#mask2_outline_ins)">
<use xlink:href="#path9_stroke_2x" transform="translate(-121.725 314)"/>
</g>
</g>
<g id="Rectangle 13">
<use xlink:href="#path8_fill" transform="translate(-107.088 314)" fill="#F2F2F2"/>
<mask id="mask3_outline_ins">
<use xlink:href="#path8_fill" fill="white" transform="translate(-107.088 314)"/>
</mask>
<g mask="url(#mask3_outline_ins)">
<use xlink:href="#path9_stroke_2x" transform="translate(-107.088 314)"/>
</g>
</g>
<g id="Rectangle 13">
<use xlink:href="#path8_fill" transform="translate(-92.4506 314)" fill="#F2F2F2"/>
<mask id="mask4_outline_ins">
<use xlink:href="#path8_fill" fill="white" transform="translate(-92.4506 314)"/>
</mask>
<g mask="url(#mask4_outline_ins)">
<use xlink:href="#path9_stroke_2x" transform="translate(-92.4506 314)"/>
</g>
</g>
<g id="Rectangle 13">
<use xlink:href="#path8_fill" transform="translate(-151 321.421)" fill="#F2F2F2"/>
<mask id="mask5_outline_ins">
<use xlink:href="#path8_fill" fill="white" transform="translate(-151 321.421)"/>
</mask>
<g mask="url(#mask5_outline_ins)">
<use xlink:href="#path9_stroke_2x" transform="translate(-151 321.421)"/>
</g>
</g>
<g id="Rectangle 13">
<use xlink:href="#path8_fill" transform="translate(-136.363 321.421)" fill="#F2F2F2"/>
<mask id="mask6_outline_ins">
<use xlink:href="#path8_fill" fill="white" transform="translate(-136.363 321.421)"/>
</mask>
<g mask="url(#mask6_outline_ins)">
<use xlink:href="#path9_stroke_2x" transform="translate(-136.363 321.421)"/>
</g>
</g>
<g id="Rectangle 13">
<use xlink:href="#path8_fill" transform="translate(-121.725 321.421)" fill="#F2F2F2"/>
<mask id="mask7_outline_ins">
<use xlink:href="#path8_fill" fill="white" transform="translate(-121.725 321.421)"/>
</mask>
<g mask="url(#mask7_outline_ins)">
<use xlink:href="#path9_stroke_2x" transform="translate(-121.725 321.421)"/>
</g>
</g>
<g id="Rectangle 13">
<use xlink:href="#path8_fill" transform="translate(-107.088 321.421)" fill="#F2F2F2"/>
<mask id="mask8_outline_ins">
<use xlink:href="#path8_fill" fill="white" transform="translate(-107.088 321.421)"/>
</mask>
<g mask="url(#mask8_outline_ins)">
<use xlink:href="#path9_stroke_2x" transform="translate(-107.088 321.421)"/>
</g>
</g>
<g id="Rectangle 13">
<use xlink:href="#path8_fill" transform="translate(-92.4506 321.421)" fill="#F2F2F2"/>
<mask id="mask9_outline_ins">
<use xlink:href="#path8_fill" fill="white" transform="translate(-92.4506 321.421)"/>
</mask>
<g mask="url(#mask9_outline_ins)">
<use xlink:href="#path9_stroke_2x" transform="translate(-92.4506 321.421)"/>
</g>
</g>
<g id="Rectangle 13">
<use xlink:href="#path8_fill" transform="translate(-151 328.842)" fill="#F2F2F2"/>
<mask id="mask10_outline_ins">
<use xlink:href="#path8_fill" fill="white" transform="translate(-151 328.842)"/>
</mask>
<g mask="url(#mask10_outline_ins)">
<use xlink:href="#path9_stroke_2x" transform="translate(-151 328.842)"/>
</g>
</g>
<g id="Rectangle 13">
<use xlink:href="#path8_fill" transform="translate(-136.363 328.842)" fill="#F2F2F2"/>
<mask id="mask11_outline_ins">
<use xlink:href="#path8_fill" fill="white" transform="translate(-136.363 328.842)"/>
</mask>
<g mask="url(#mask11_outline_ins)">
<use xlink:href="#path9_stroke_2x" transform="translate(-136.363 328.842)"/>
</g>
</g>
<g id="Rectangle 13">
<use xlink:href="#path8_fill" transform="translate(-121.725 328.842)" fill="#F2F2F2"/>
<mask id="mask12_outline_ins">
<use xlink:href="#path8_fill" fill="white" transform="translate(-121.725 328.842)"/>
</mask>
<g mask="url(#mask12_outline_ins)">
<use xlink:href="#path9_stroke_2x" transform="translate(-121.725 328.842)"/>
</g>
</g>
<g id="Rectangle 13">
<use xlink:href="#path8_fill" transform="translate(-107.088 328.842)" fill="#F2F2F2"/>
<mask id="mask13_outline_ins">
<use xlink:href="#path8_fill" fill="white" transform="translate(-107.088 328.842)"/>
</mask>
<g mask="url(#mask13_outline_ins)">
<use xlink:href="#path9_stroke_2x" transform="translate(-107.088 328.842)"/>
</g>
</g>
<g id="Rectangle 13">
<use xlink:href="#path8_fill" transform="translate(-92.4506 328.842)" fill="#F2F2F2"/>
<mask id="mask14_outline_ins">
<use xlink:href="#path8_fill" fill="white" transform="translate(-92.4506 328.842)"/>
</mask>
<g mask="url(#mask14_outline_ins)">
<use xlink:href="#path9_stroke_2x" transform="translate(-92.4506 328.842)"/>
</g>
</g>
<g id="Rectangle 13">
<use xlink:href="#path8_fill" transform="translate(-151 336.263)" fill="#F2F2F2"/>
<mask id="mask15_outline_ins">
<use xlink:href="#path8_fill" fill="white" transform="translate(-151 336.263)"/>
</mask>
<g mask="url(#mask15_outline_ins)">
<use xlink:href="#path9_stroke_2x" transform="translate(-151 336.263)"/>
</g>
</g>
<g id="Rectangle 13">
<use xlink:href="#path8_fill" transform="translate(-136.363 336.263)" fill="#F2F2F2"/>
<mask id="mask16_outline_ins">
<use xlink:href="#path8_fill" fill="white" transform="translate(-136.363 336.263)"/>
</mask>
<g mask="url(#mask16_outline_ins)">
<use xlink:href="#path9_stroke_2x" transform="translate(-136.363 336.263)"/>
</g>
</g>
<g id="Rectangle 13">
<use xlink:href="#path8_fill" transform="translate(-121.725 336.263)" fill="#F2F2F2"/>
<mask id="mask17_outline_ins">
<use xlink:href="#path8_fill" fill="white" transform="translate(-121.725 336.263)"/>
</mask>
<g mask="url(#mask17_outline_ins)">
<use xlink:href="#path9_stroke_2x" transform="translate(-121.725 336.263)"/>
</g>
</g>
<g id="Rectangle 13">
<use xlink:href="#path8_fill" transform="translate(-107.088 336.263)" fill="#F2F2F2"/>
<mask id="mask18_outline_ins">
<use xlink:href="#path8_fill" fill="white" transform="translate(-107.088 336.263)"/>
</mask>
<g mask="url(#mask18_outline_ins)">
<use xlink:href="#path9_stroke_2x" transform="translate(-107.088 336.263)"/>
</g>
</g>
<g id="Rectangle 13">
<use xlink:href="#path8_fill" transform="translate(-92.4506 336.263)" fill="#F2F2F2"/>
<mask id="mask19_outline_ins">
<use xlink:href="#path8_fill" fill="white" transform="translate(-92.4506 336.263)"/>
</mask>
<g mask="url(#mask19_outline_ins)">
<use xlink:href="#path9_stroke_2x" transform="translate(-92.4506 336.263)"/>
</g>
</g>
<g id="Rectangle 13">
<use xlink:href="#path8_fill" transform="translate(-151 343.734)" fill="#F2F2F2"/>
<mask id="mask20_outline_ins">
<use xlink:href="#path8_fill" fill="white" transform="translate(-151 343.734)"/>
</mask>
<g mask="url(#mask20_outline_ins)">
<use xlink:href="#path9_stroke_2x" transform="translate(-151 343.734)"/>
</g>
</g>
<g id="Rectangle 13">
<use xlink:href="#path8_fill" transform="translate(-136.363 343.734)" fill="#F2F2F2"/>
<mask id="mask21_outline_ins">
<use xlink:href="#path8_fill" fill="white" transform="translate(-136.363 343.734)"/>
</mask>
<g mask="url(#mask21_outline_ins)">
<use xlink:href="#path9_stroke_2x" transform="translate(-136.363 343.734)"/>
</g>
</g>
<g id="Rectangle 13">
<use xlink:href="#path8_fill" transform="translate(-121.725 343.734)" fill="#F2F2F2"/>
<mask id="mask22_outline_ins">
<use xlink:href="#path8_fill" fill="white" transform="translate(-121.725 343.734)"/>
</mask>
<g mask="url(#mask22_outline_ins)">
<use xlink:href="#path9_stroke_2x" transform="translate(-121.725 343.734)"/>
</g>
</g>
<g id="Rectangle 13">
<use xlink:href="#path8_fill" transform="translate(-107.088 343.734)" fill="#F2F2F2"/>
<mask id="mask23_outline_ins">
<use xlink:href="#path8_fill" fill="white" transform="translate(-107.088 343.734)"/>
</mask>
<g mask="url(#mask23_outline_ins)">
<use xlink:href="#path9_stroke_2x" transform="translate(-107.088 343.734)"/>
</g>
</g>
<g id="Rectangle 13">
<use xlink:href="#path8_fill" transform="translate(-92.4506 343.734)" fill="#F2F2F2"/>
<mask id="mask24_outline_ins">
<use xlink:href="#path8_fill" fill="white" transform="translate(-92.4506 343.734)"/>
</mask>
<g mask="url(#mask24_outline_ins)">
<use xlink:href="#path9_stroke_2x" transform="translate(-92.4506 343.734)"/>
</g>
</g>
<g id="Rectangle 13">
<use xlink:href="#path8_fill" transform="translate(-151 350.755)" fill="#F2F2F2"/>
<mask id="mask25_outline_ins">
<use xlink:href="#path8_fill" fill="white" transform="translate(-151 350.755)"/>
</mask>
<g mask="url(#mask25_outline_ins)">
<use xlink:href="#path9_stroke_2x" transform="translate(-151 350.755)"/>
</g>
</g>
<g id="Rectangle 13">
<use xlink:href="#path8_fill" transform="translate(-136.363 350.755)" fill="#F2F2F2"/>
<mask id="mask26_outline_ins">
<use xlink:href="#path8_fill" fill="white" transform="translate(-136.363 350.755)"/>
</mask>
<g mask="url(#mask26_outline_ins)">
<use xlink:href="#path9_stroke_2x" transform="translate(-136.363 350.755)"/>
</g>
</g>
<g id="Rectangle 13">
<use xlink:href="#path8_fill" transform="translate(-121.725 350.755)" fill="#F2F2F2"/>
<mask id="mask27_outline_ins">
<use xlink:href="#path8_fill" fill="white" transform="translate(-121.725 350.755)"/>
</mask>
<g mask="url(#mask27_outline_ins)">
<use xlink:href="#path9_stroke_2x" transform="translate(-121.725 350.755)"/>
</g>
</g>
<g id="Rectangle 13">
<use xlink:href="#path8_fill" transform="translate(-107.088 350.755)" fill="#F2F2F2"/>
<mask id="mask28_outline_ins">
<use xlink:href="#path8_fill" fill="white" transform="translate(-107.088 350.755)"/>
</mask>
<g mask="url(#mask28_outline_ins)">
<use xlink:href="#path9_stroke_2x" transform="translate(-107.088 350.755)"/>
</g>
</g>
<g id="Rectangle 13">
<use xlink:href="#path8_fill" transform="translate(-92.4506 350.755)" fill="#F2F2F2"/>
<mask id="mask29_outline_ins">
<use xlink:href="#path8_fill" fill="white" transform="translate(-92.4506 350.755)"/>
</mask>
<g mask="url(#mask29_outline_ins)">
<use xlink:href="#path9_stroke_2x" transform="translate(-92.4506 350.755)"/>
</g>
</g>
<g id="Line 11">
<use xlink:href="#path10_stroke" transform="matrix(6.24662e-17 1 -1 6.245e-17 -151 314)" fill="#6FCF97"/>
</g>
<g id="Line 11">
<use xlink:href="#path10_stroke" transform="matrix(6.24662e-17 1 -1 6.245e-17 -78 314)" fill="#6FCF97"/>
</g>
<g id="Line 11">
<use xlink:href="#path11_stroke" transform="matrix(1 0 -1.2326e-32 1 -150 315)" fill="#6FCF97"/>
</g>
<g id="Line 11">
<use xlink:href="#path11_stroke" transform="matrix(1 0 -1.2326e-32 1 -150 359)" fill="#6FCF97"/>
</g>
<g id="21 columns">
<use xlink:href="#path12_fill" transform="translate(-149 292)"/>
</g>
<g id="173 rows">
<use xlink:href="#path13_fill" transform="translate(-65 324)"/>
</g>
</g>
</g>
<defs>
<path id="path0_fill" d="M -1.19629 16.7275C -1.1416 16.7503 -1.06185 16.7686 -0.957031 16.7822C -0.852214 16.8005 -0.772461 16.8096 -0.717773 16.8096C 0.371419 16.8096 1.03223 15.7249 1.26465 13.5557L 1.93457 7.30078L 0.868164 6.95215L 0.991211 6.39844L 3.1582 6.0498L 3.48633 6.21387L 2.59766 14C 2.50651 14.7565 2.31738 15.3991 2.03027 15.9277C 1.74772 16.4609 1.38997 16.862 0.957031 17.1309C 0.528646 17.4043 0.0524089 17.541 -0.47168 17.541C -0.694987 17.541 -0.893229 17.5182 -1.06641 17.4727C -1.23958 17.4316 -1.36491 17.3701 -1.44238 17.2881L -1.19629 16.7275ZM 2.15332 3.72559C 2.15332 3.54785 2.20345 3.38151 2.30371 3.22656C 2.40397 3.06706 2.53158 2.93945 2.68652 2.84375C 2.84147 2.74805 2.99642 2.7002 3.15137 2.7002C 3.40658 2.7002 3.61165 2.77539 3.7666 2.92578C 3.92155 3.07161 3.99902 3.25163 3.99902 3.46582C 3.99902 3.64811 3.95117 3.82129 3.85547 3.98535C 3.75977 4.14941 3.62988 4.28158 3.46582 4.38184C 3.30632 4.47754 3.13542 4.52539 2.95312 4.52539C 2.73438 4.52539 2.54525 4.44792 2.38574 4.29297C 2.23079 4.13346 2.15332 3.94434 2.15332 3.72559ZM 8.90723 6.0498C 9.78678 6.0498 10.4613 6.33236 10.9307 6.89746C 11.4046 7.46257 11.6416 8.25781 11.6416 9.2832C 11.6416 10.1081 11.473 10.8942 11.1357 11.6416C 10.7985 12.389 10.3314 12.9928 9.73438 13.4531C 9.14193 13.9089 8.47656 14.1367 7.73828 14.1367C 6.85872 14.1367 6.18424 13.8564 5.71484 13.2959C 5.24544 12.7308 5.01074 11.9355 5.01074 10.9102C 5.01074 10.0853 5.17936 9.29915 5.5166 8.55176C 5.85384 7.80436 6.31868 7.20052 6.91113 6.74023C 7.50814 6.27995 8.1735 6.0498 8.90723 6.0498ZM 10.1719 9.33105C 10.1719 8.55176 10.0443 7.9502 9.78906 7.52637C 9.53385 7.10254 9.15788 6.89062 8.66113 6.89062C 8.18717 6.89062 7.78613 7.09115 7.45801 7.49219C 7.12988 7.88867 6.88379 8.38997 6.71973 8.99609C 6.55566 9.60221 6.47363 10.2152 6.47363 10.835C 6.47363 11.6279 6.59896 12.2386 6.84961 12.667C 7.10026 13.0908 7.47624 13.3027 7.97754 13.3027C 8.4515 13.3027 8.85482 13.1022 9.1875 12.7012C 9.52018 12.2956 9.76628 11.7874 9.92578 11.1768C 10.0898 10.5661 10.1719 9.95085 10.1719 9.33105ZM 13.8018 3.56152L 13.9453 2.9873L 15.6201 2.7207L 15.9688 2.90527L 15.4014 7.15039C 15.6475 6.83594 15.9482 6.57389 16.3037 6.36426C 16.6592 6.15462 17.0465 6.0498 17.4658 6.0498C 17.9762 6.0498 18.4046 6.17513 18.751 6.42578C 19.1019 6.67643 19.3617 7.02507 19.5303 7.47168C 19.7035 7.91374 19.79 8.42643 19.79 9.00977C 19.79 9.75716 19.61 10.5319 19.25 11.334C 18.8945 12.1315 18.3841 12.7992 17.7188 13.3369C 17.0579 13.8701 16.2923 14.1367 15.4219 14.1367C 15.1621 14.1367 14.8796 14.1071 14.5742 14.0479C 14.2734 13.9886 14.0114 13.918 13.7881 13.8359L 13.1045 14.1367L 14.4512 3.85547L 13.8018 3.56152ZM 14.6084 13.0293C 14.8499 13.2116 15.1917 13.3027 15.6338 13.3027C 16.2217 13.3027 16.7207 13.0817 17.1309 12.6396C 17.5456 12.193 17.8532 11.6439 18.0537 10.9922C 18.2542 10.3405 18.3545 9.70931 18.3545 9.09863C 18.3545 8.44694 18.252 7.94108 18.0469 7.58105C 17.8464 7.21647 17.5684 7.03418 17.2129 7.03418C 16.8346 7.03418 16.4655 7.16634 16.1055 7.43066C 15.75 7.69043 15.4629 7.98438 15.2441 8.3125L 14.6084 13.0293ZM 20.9248 12.6875C 21.1117 12.8151 21.3714 12.9336 21.7041 13.043C 22.0368 13.1523 22.3877 13.207 22.7568 13.207C 23.1442 13.207 23.4655 13.1432 23.7207 13.0156C 23.9759 12.888 24.1035 12.626 24.1035 12.2295C 24.1035 11.9971 24.0488 11.7852 23.9395 11.5938C 23.8301 11.3978 23.6934 11.2269 23.5293 11.0811C 23.3698 10.9352 23.1602 10.7666 22.9004 10.5752C 22.5358 10.3063 22.2054 9.97591 21.9092 9.58398C 21.6175 9.19206 21.4717 8.75456 21.4717 8.27148C 21.4717 7.83398 21.5924 7.44661 21.834 7.10938C 22.0801 6.77214 22.4059 6.51237 22.8115 6.33008C 23.2171 6.14323 23.6569 6.0498 24.1309 6.0498C 24.4727 6.0498 24.8167 6.07715 25.1631 6.13184C 25.514 6.18652 25.7533 6.24349 25.8809 6.30273L 25.6211 7.45801C 25.5892 7.40788 25.5003 7.3418 25.3545 7.25977C 25.2087 7.17318 25.0241 7.09798 24.8008 7.03418C 24.5775 6.97038 24.3359 6.93848 24.0762 6.93848C 23.7435 6.93848 23.4587 7.00911 23.2217 7.15039C 22.9847 7.28711 22.848 7.52181 22.8115 7.85449C 22.807 7.88639 22.8047 7.93424 22.8047 7.99805C 22.8047 8.28971 22.9027 8.56315 23.0986 8.81836C 23.2946 9.06901 23.5612 9.32422 23.8984 9.58398C 24.2129 9.83008 24.4727 10.0557 24.6777 10.2607C 24.8828 10.4658 25.0583 10.7119 25.2041 10.999C 25.3499 11.2816 25.4229 11.6006 25.4229 11.9561C 25.4229 12.4118 25.2975 12.806 25.0469 13.1387C 24.8008 13.4668 24.4681 13.7152 24.0488 13.8838C 23.6341 14.0524 23.1807 14.1367 22.6885 14.1367C 22.2783 14.1367 21.8704 14.0957 21.4648 14.0137C 21.0592 13.9316 20.7949 13.8382 20.6719 13.7334L 20.9248 12.6875ZM 28.0205 12.2637C 28.2985 12.2637 28.5059 12.332 28.6426 12.4688C 28.7839 12.6009 28.8545 12.7764 28.8545 12.9951C 28.8545 13.2184 28.7998 13.4189 28.6904 13.5967C 28.5811 13.7699 28.4352 13.9043 28.2529 14C 28.0752 14.1003 27.8883 14.1504 27.6924 14.1504C 27.4645 14.1504 27.2799 14.0843 27.1387 13.9521C 26.9974 13.82 26.9268 13.6423 26.9268 13.4189C 26.9268 13.2093 26.9792 13.0179 27.084 12.8447C 27.1888 12.667 27.3255 12.5257 27.4941 12.4209C 27.6628 12.3161 27.8382 12.2637 28.0205 12.2637ZM 30.5156 11.1836C 30.5156 10.4408 30.6956 9.66829 31.0557 8.86621C 31.4202 8.06413 31.9398 7.39421 32.6143 6.85645C 33.2887 6.31869 34.068 6.0498 34.9521 6.0498C 35.2074 6.0498 35.5195 6.09082 35.8887 6.17285L 36.2373 3.86914L 35.3828 3.5752L 35.5264 3.00781L 37.3789 2.7207L 37.7412 2.90527L 36.3193 12.708C 36.3102 12.7992 36.3057 12.863 36.3057 12.8994C 36.3057 13.1182 36.3604 13.2275 36.4697 13.2275C 36.5335 13.2275 36.611 13.2048 36.7021 13.1592C 36.7933 13.1136 36.9141 13.0316 37.0645 12.9131L 37.2764 13.2754C 37.2262 13.3574 37.1237 13.4668 36.9688 13.6035C 36.8184 13.7402 36.6338 13.8633 36.415 13.9727C 36.2008 14.082 35.9775 14.1367 35.7451 14.1367C 35.458 14.1367 35.2438 14.0615 35.1025 13.9111C 34.9613 13.7607 34.8952 13.5215 34.9043 13.1934L 34.8975 13.0361C 34.6468 13.3506 34.3369 13.6126 33.9678 13.8223C 33.6032 14.0319 33.2067 14.1367 32.7783 14.1367C 32.2816 14.1367 31.8623 14.0114 31.5205 13.7607C 31.1833 13.5101 30.9303 13.1637 30.7617 12.7217C 30.5977 12.2796 30.5156 11.7669 30.5156 11.1836ZM 35.7314 7.17773C 35.5036 6.98633 35.1755 6.89062 34.7471 6.89062C 34.141 6.89062 33.626 7.11393 33.2021 7.56055C 32.7829 8.0026 32.4707 8.54948 32.2656 9.20117C 32.0605 9.85286 31.958 10.484 31.958 11.0947C 31.958 11.751 32.0537 12.2591 32.2451 12.6191C 32.4365 12.9792 32.6986 13.1592 33.0312 13.1592C 33.4004 13.1592 33.765 13.0384 34.125 12.7969C 34.4896 12.5508 34.7835 12.2705 35.0068 11.9561L 35.7314 7.17773ZM 39.5732 3.56152L 39.7168 2.9873L 41.3916 2.7207L 41.7402 2.90527L 41.1729 7.15039C 41.4189 6.83594 41.7197 6.57389 42.0752 6.36426C 42.4307 6.15462 42.818 6.0498 43.2373 6.0498C 43.7477 6.0498 44.1761 6.17513 44.5225 6.42578C 44.8734 6.67643 45.1331 7.02507 45.3018 7.47168C 45.4749 7.91374 45.5615 8.42643 45.5615 9.00977C 45.5615 9.75716 45.3815 10.5319 45.0215 11.334C 44.666 12.1315 44.1556 12.7992 43.4902 13.3369C 42.8294 13.8701 42.0638 14.1367 41.1934 14.1367C 40.9336 14.1367 40.651 14.1071 40.3457 14.0479C 40.0449 13.9886 39.7829 13.918 39.5596 13.8359L 38.876 14.1367L 40.2227 3.85547L 39.5732 3.56152ZM 40.3799 13.0293C 40.6214 13.2116 40.9632 13.3027 41.4053 13.3027C 41.9932 13.3027 42.4922 13.0817 42.9023 12.6396C 43.3171 12.193 43.6247 11.6439 43.8252 10.9922C 44.0257 10.3405 44.126 9.70931 44.126 9.09863C 44.126 8.44694 44.0234 7.94108 43.8184 7.58105C 43.6178 7.21647 43.3398 7.03418 42.9844 7.03418C 42.6061 7.03418 42.237 7.16634 41.877 7.43066C 41.5215 7.69043 41.2344 7.98438 41.0156 8.3125L 40.3799 13.0293Z"/>
<path id="path1_fill" d="M 32 7.63411C 32 11.8503 24.8366 15.2682 16 15.2682C 7.16344 15.2682 0 11.8503 0 7.63411C 0 3.41791 7.16344 0 16 0C 24.8366 0 32 3.41791 32 7.63411Z"/>
<path id="path2_fill" d="M 0 0L 32 0L 32 25.625L 0 25.625L 0 0Z"/>
<path id="path3_fill" d="M 1.05957 7.01367L 1.18262 6.40527L 2.86426 6.0498L 3.19238 6.21387L 3.04883 7.7793C 3.16276 7.55143 3.33366 7.30534 3.56152 7.04102C 3.78939 6.77214 4.07194 6.54199 4.40918 6.35059C 4.75098 6.15462 5.12012 6.05664 5.5166 6.05664C 5.73535 6.05664 5.87435 6.08626 5.93359 6.14551L 5.62598 7.6084C 5.49837 7.54004 5.26367 7.50586 4.92188 7.50586C 4.54818 7.50586 4.17448 7.63118 3.80078 7.88184C 3.43164 8.13249 3.12858 8.53125 2.8916 9.07812L 2.27637 14L 0.90918 14L 1.74316 7.42383L 1.05957 7.01367ZM 10.3564 6.0498C 10.7848 6.0498 11.1449 6.125 11.4365 6.27539C 11.7327 6.42122 11.9515 6.62402 12.0928 6.88379C 12.2386 7.139 12.3115 7.43066 12.3115 7.75879C 12.3115 8.41048 12.0449 8.96647 11.5117 9.42676C 10.9785 9.88704 10.3519 10.2357 9.63184 10.4727C 8.91634 10.7096 8.29883 10.8372 7.7793 10.8555C 7.77018 10.974 7.76562 11.0674 7.76562 11.1357C 7.76562 11.4593 7.81576 11.7783 7.91602 12.0928C 8.01628 12.4027 8.17578 12.6624 8.39453 12.8721C 8.61784 13.0771 8.90039 13.1797 9.24219 13.1797C 9.61589 13.1797 10.0033 13.0977 10.4043 12.9336C 10.8053 12.7695 11.1882 12.5166 11.5527 12.1748L 11.874 12.749C 11.7282 12.9495 11.514 13.1569 11.2314 13.3711C 10.9535 13.5853 10.6253 13.7676 10.2471 13.918C 9.86882 14.0638 9.47233 14.1367 9.05762 14.1367C 8.43783 14.1367 7.91829 13.9932 7.49902 13.7061C 7.08431 13.4189 6.77897 13.043 6.58301 12.5781C 6.38704 12.1087 6.2959 11.6029 6.30957 11.0605C 6.33236 10.1992 6.52376 9.38346 6.88379 8.61328C 7.24382 7.8431 7.72917 7.22331 8.33984 6.75391C 8.95052 6.28451 9.62272 6.0498 10.3564 6.0498ZM 10.8828 7.875C 10.8783 7.5332 10.7985 7.27799 10.6436 7.10938C 10.4932 6.94076 10.2881 6.85645 10.0283 6.85645C 9.60449 6.85645 9.23307 7.03646 8.91406 7.39648C 8.59505 7.75195 8.3444 8.18262 8.16211 8.68848C 7.97982 9.18978 7.86361 9.66146 7.81348 10.1035C 8.21452 10.0853 8.6543 9.98275 9.13281 9.7959C 9.61589 9.60905 10.0283 9.34928 10.3701 9.0166C 10.7119 8.68392 10.8828 8.30339 10.8828 7.875ZM 13.4395 11.0537C 13.4395 10.3109 13.599 9.55208 13.918 8.77734C 14.237 7.99805 14.7018 7.34863 15.3125 6.8291C 15.9277 6.30957 16.6523 6.0498 17.4863 6.0498C 17.737 6.0498 18.0036 6.08171 18.2861 6.14551C 18.5687 6.20475 18.8057 6.28223 18.9971 6.37793L 18.5938 7.73828C 18.5755 7.72461 18.5231 7.68587 18.4365 7.62207C 17.9671 7.24382 17.5433 7.05469 17.165 7.05469C 16.7139 7.05469 16.3174 7.2028 15.9756 7.49902C 15.6383 7.79525 15.3763 8.22819 15.1895 8.79785C 15.0026 9.36751 14.9092 10.0534 14.9092 10.8555C 14.9092 11.6393 15.0299 12.2227 15.2715 12.6055C 15.5176 12.9837 15.8594 13.1729 16.2969 13.1729C 16.6159 13.1729 16.9007 13.1159 17.1514 13.002C 17.402 12.888 17.7279 12.6852 18.1289 12.3936L 18.4023 12.9541C 18.1562 13.2458 17.819 13.5169 17.3906 13.7676C 16.9668 14.0137 16.4678 14.1367 15.8936 14.1367C 15.3831 14.1367 14.9434 14.016 14.5742 13.7744C 14.2051 13.5283 13.9225 13.1751 13.7266 12.7148C 13.5352 12.25 13.4395 11.6963 13.4395 11.0537ZM 23.5771 6.0498C 24.0055 6.0498 24.3656 6.125 24.6572 6.27539C 24.9535 6.42122 25.1722 6.62402 25.3135 6.88379C 25.4593 7.139 25.5322 7.43066 25.5322 7.75879C 25.5322 8.41048 25.2656 8.96647 24.7324 9.42676C 24.1992 9.88704 23.5726 10.2357 22.8525 10.4727C 22.137 10.7096 21.5195 10.8372 21 10.8555C 20.9909 10.974 20.9863 11.0674 20.9863 11.1357C 20.9863 11.4593 21.0365 11.7783 21.1367 12.0928C 21.237 12.4027 21.3965 12.6624 21.6152 12.8721C 21.8385 13.0771 22.1211 13.1797 22.4629 13.1797C 22.8366 13.1797 23.224 13.0977 23.625 12.9336C 24.026 12.7695 24.4089 12.5166 24.7734 12.1748L 25.0947 12.749C 24.9489 12.9495 24.7347 13.1569 24.4521 13.3711C 24.1742 13.5853 23.846 13.7676 23.4678 13.918C 23.0895 14.0638 22.693 14.1367 22.2783 14.1367C 21.6585 14.1367 21.139 13.9932 20.7197 13.7061C 20.305 13.4189 19.9997 13.043 19.8037 12.5781C 19.6077 12.1087 19.5166 11.6029 19.5303 11.0605C 19.5531 10.1992 19.7445 9.38346 20.1045 8.61328C 20.4645 7.8431 20.9499 7.22331 21.5605 6.75391C 22.1712 6.28451 22.8434 6.0498 23.5771 6.0498ZM 24.1035 7.875C 24.099 7.5332 24.0192 7.27799 23.8643 7.10938C 23.7139 6.94076 23.5088 6.85645 23.249 6.85645C 22.8252 6.85645 22.4538 7.03646 22.1348 7.39648C 21.8158 7.75195 21.5651 8.18262 21.3828 8.68848C 21.2005 9.18978 21.0843 9.66146 21.0342 10.1035C 21.4352 10.0853 21.875 9.98275 22.3535 9.7959C 22.8366 9.60905 23.249 9.34928 23.5908 9.0166C 23.9326 8.68392 24.1035 8.30339 24.1035 7.875ZM 27.2686 7.01367L 27.3916 6.40527L 29.0801 6.0498L 29.4082 6.21387L 29.2715 7.66309C 29.6589 7.18457 30.0964 6.7972 30.584 6.50098C 31.0762 6.2002 31.5661 6.0498 32.0537 6.0498C 32.555 6.0498 32.9378 6.20931 33.2021 6.52832C 33.471 6.84733 33.6055 7.37598 33.6055 8.11426C 33.6055 8.36035 33.5804 8.6429 33.5303 8.96191C 33.4847 9.27637 33.4186 9.66602 33.332 10.1309C 33.291 10.3405 33.266 10.4795 33.2568 10.5479C 33.1657 11.0628 33.0951 11.4775 33.0449 11.792C 32.9993 12.1064 32.9697 12.4163 32.9561 12.7217C 32.9515 12.7581 32.9492 12.8105 32.9492 12.8789C 32.9492 12.9974 32.9606 13.0863 32.9834 13.1455C 33.0062 13.2048 33.0449 13.2344 33.0996 13.2344C 33.2363 13.2344 33.4346 13.1296 33.6943 12.9199L 33.9062 13.2822C 33.8607 13.3597 33.7581 13.4691 33.5986 13.6104C 33.4437 13.7471 33.2546 13.8701 33.0312 13.9795C 32.8125 14.0889 32.5846 14.1436 32.3477 14.1436C 32.0469 14.1436 31.8236 14.0706 31.6777 13.9248C 31.5319 13.779 31.4681 13.5465 31.4863 13.2275C 31.5 12.9769 31.5296 12.6966 31.5752 12.3867C 31.6253 12.0768 31.6937 11.6849 31.7803 11.2109L 31.8213 10.9717C 31.8258 10.9398 31.8509 10.8053 31.8965 10.5684C 31.9967 10.026 32.0719 9.57487 32.1221 9.21484C 32.1768 8.85026 32.2041 8.51074 32.2041 8.19629C 32.2041 7.88184 32.1722 7.64941 32.1084 7.49902C 32.0492 7.34863 31.9671 7.25293 31.8623 7.21191C 31.762 7.16634 31.6185 7.14355 31.4316 7.14355C 31.0944 7.14355 30.7093 7.30078 30.2764 7.61523C 29.848 7.92969 29.4629 8.32845 29.1211 8.81152L 28.417 14L 27.0498 14L 27.9385 7.41699L 27.2686 7.01367ZM 36.4697 7.06152L 35.6494 7.06152L 35.7861 6.45996L 36.627 6.13867C 36.7637 5.98372 36.9141 5.73763 37.0781 5.40039C 37.2467 5.05859 37.404 4.69857 37.5498 4.32031L 38.2197 4.32031L 37.9873 6.10449L 39.7646 6.10449L 39.6279 7.06152L 37.8711 7.06152L 37.3037 11.334C 37.2262 11.9128 37.1875 12.3138 37.1875 12.5371C 37.1875 12.7103 37.2035 12.8424 37.2354 12.9336C 37.2673 13.0202 37.3219 13.0817 37.3994 13.1182C 37.4814 13.1546 37.6022 13.1729 37.7617 13.1729C 37.9258 13.1729 38.1423 13.1113 38.4111 12.9883C 38.6846 12.8607 38.9033 12.7331 39.0674 12.6055L 39.1904 13.1387C 39.0811 13.2754 38.901 13.4235 38.6504 13.583C 38.4043 13.738 38.1331 13.8701 37.8369 13.9795C 37.5407 14.0843 37.2673 14.1367 37.0166 14.1367C 36.6383 14.1367 36.3353 14.0433 36.1074 13.8564C 35.8796 13.665 35.7656 13.3506 35.7656 12.9131C 35.7656 12.7308 35.7952 12.4186 35.8545 11.9766L 36.4697 7.06152ZM 48.4463 16.3105L 39.0264 16.3105L 39.1631 15.2783L 48.583 15.2783L 48.4463 16.3105ZM 53.9219 6.0498C 54.1771 6.0498 54.4346 6.07715 54.6943 6.13184C 54.9541 6.18652 55.1934 6.25488 55.4121 6.33691L 56.2461 6.0498L 54.9336 14.5264C 54.8288 15.2008 54.5758 15.7591 54.1748 16.2012C 53.7738 16.6432 53.3089 16.9645 52.7803 17.165C 52.2562 17.3701 51.7412 17.4727 51.2354 17.4727C 50.9482 17.4727 50.6611 17.4476 50.374 17.3975C 50.0869 17.3519 49.8704 17.2972 49.7246 17.2334L 50.0664 15.9619C 50.2988 16.0713 50.5814 16.1693 50.9141 16.2559C 51.2513 16.347 51.5794 16.3926 51.8984 16.3926C 52.2949 16.3926 52.5934 16.3538 52.7939 16.2764C 52.999 16.1989 53.1517 16.0645 53.252 15.873C 53.3522 15.6816 53.4342 15.3877 53.498 14.9912L 53.8057 13.1113C 53.5505 13.4076 53.2451 13.6536 52.8896 13.8496C 52.5387 14.041 52.1559 14.1367 51.7412 14.1367C 51.2445 14.1367 50.8252 14.0114 50.4834 13.7607C 50.1462 13.5101 49.8932 13.1637 49.7246 12.7217C 49.5605 12.2796 49.4785 11.7669 49.4785 11.1836C 49.4785 10.4408 49.6585 9.66829 50.0186 8.86621C 50.3831 8.06413 50.9027 7.39421 51.5771 6.85645C 52.2562 6.31869 53.0378 6.0498 53.9219 6.0498ZM 54.6738 7.15723C 54.4414 6.97949 54.1201 6.89062 53.71 6.89062C 53.1038 6.89062 52.5911 7.11393 52.1719 7.56055C 51.7526 8.0026 51.4382 8.55176 51.2285 9.20801C 51.0234 9.8597 50.9209 10.4886 50.9209 11.0947C 50.9209 11.7464 51.0166 12.2546 51.208 12.6191C 51.3994 12.9792 51.6615 13.1592 51.9941 13.1592C 52.3678 13.1592 52.7347 13.0384 53.0947 12.7969C 53.4548 12.5508 53.7487 12.2682 53.9766 11.9492L 54.6738 7.15723ZM 57.8799 7.01367L 58.0029 6.40527L 59.6846 6.0498L 60.0127 6.21387L 59.8691 7.7793C 59.9831 7.55143 60.154 7.30534 60.3818 7.04102C 60.6097 6.77214 60.8923 6.54199 61.2295 6.35059C 61.5713 6.15462 61.9404 6.05664 62.3369 6.05664C 62.5557 6.05664 62.6947 6.08626 62.7539 6.14551L 62.4463 7.6084C 62.3187 7.54004 62.084 7.50586 61.7422 7.50586C 61.3685 7.50586 60.9948 7.63118 60.6211 7.88184C 60.252 8.13249 59.9489 8.53125 59.7119 9.07812L 59.0967 14L 57.7295 14L 58.5635 7.42383L 57.8799 7.01367ZM 67.5527 6.0498C 67.7624 6.0498 67.988 6.07259 68.2295 6.11816C 68.471 6.16374 68.6989 6.2207 68.9131 6.28906L 69.7402 6.05664L 68.8447 12.708C 68.8402 12.7445 68.8379 12.7923 68.8379 12.8516C 68.8379 12.9746 68.8584 13.068 68.8994 13.1318C 68.9404 13.1956 68.9906 13.2275 69.0498 13.2275C 69.1182 13.2275 69.1979 13.2048 69.2891 13.1592C 69.3802 13.1136 69.501 13.0316 69.6514 12.9131L 69.8633 13.2822C 69.8223 13.3597 69.7243 13.4668 69.5693 13.6035C 69.4189 13.7402 69.2321 13.8633 69.0088 13.9727C 68.79 14.082 68.5622 14.1367 68.3252 14.1367C 68.0335 14.1367 67.8079 14.0638 67.6484 13.918C 67.4935 13.7676 67.4251 13.5329 67.4434 13.2139L 67.4912 12.7627C 67.1904 13.1501 66.8441 13.4759 66.4521 13.7402C 66.0602 14.0046 65.6569 14.1367 65.2422 14.1367C 64.5085 14.1367 63.9684 13.8724 63.6221 13.3438C 63.2803 12.8151 63.1094 12.0951 63.1094 11.1836C 63.1094 10.4408 63.2894 9.66829 63.6494 8.86621C 64.014 8.06413 64.5335 7.39421 65.208 6.85645C 65.887 6.31869 66.6686 6.0498 67.5527 6.0498ZM 68.2227 7.10254C 67.9993 6.96126 67.7054 6.89062 67.3408 6.89062C 66.7347 6.89062 66.222 7.10938 65.8027 7.54688C 65.3835 7.97982 65.069 8.51758 64.8594 9.16016C 64.6543 9.79818 64.5518 10.4202 64.5518 11.0264C 64.5518 12.4482 64.8753 13.1592 65.5225 13.1592C 65.8825 13.1592 66.2539 13.002 66.6367 12.6875C 67.0241 12.3685 67.3568 12.0107 67.6348 11.6143L 68.2227 7.10254ZM 71.1484 11.1836C 71.1484 10.4408 71.3285 9.66829 71.6885 8.86621C 72.0531 8.06413 72.5726 7.39421 73.2471 6.85645C 73.9215 6.31869 74.7008 6.0498 75.585 6.0498C 75.8402 6.0498 76.1523 6.09082 76.5215 6.17285L 76.8701 3.86914L 76.0156 3.5752L 76.1592 3.00781L 78.0117 2.7207L 78.374 2.90527L 76.9521 12.708C 76.943 12.7992 76.9385 12.863 76.9385 12.8994C 76.9385 13.1182 76.9932 13.2275 77.1025 13.2275C 77.1663 13.2275 77.2438 13.2048 77.335 13.1592C 77.4261 13.1136 77.5469 13.0316 77.6973 12.9131L 77.9092 13.2754C 77.859 13.3574 77.7565 13.4668 77.6016 13.6035C 77.4512 13.7402 77.2666 13.8633 77.0479 13.9727C 76.8337 14.082 76.6104 14.1367 76.3779 14.1367C 76.0908 14.1367 75.8766 14.0615 75.7354 13.9111C 75.5941 13.7607 75.528 13.5215 75.5371 13.1934L 75.5303 13.0361C 75.2796 13.3506 74.9697 13.6126 74.6006 13.8223C 74.236 14.0319 73.8395 14.1367 73.4111 14.1367C 72.9144 14.1367 72.4951 14.0114 72.1533 13.7607C 71.8161 13.5101 71.5632 13.1637 71.3945 12.7217C 71.2305 12.2796 71.1484 11.7669 71.1484 11.1836ZM 76.3643 7.17773C 76.1364 6.98633 75.8083 6.89062 75.3799 6.89062C 74.7738 6.89062 74.2588 7.11393 73.835 7.56055C 73.4157 8.0026 73.1035 8.54948 72.8984 9.20117C 72.6934 9.85286 72.5908 10.484 72.5908 11.0947C 72.5908 11.751 72.6865 12.2591 72.8779 12.6191C 73.0693 12.9792 73.3314 13.1592 73.6641 13.1592C 74.0332 13.1592 74.3978 13.0384 74.7578 12.7969C 75.1224 12.5508 75.4163 12.2705 75.6396 11.9561L 76.3643 7.17773ZM 79.1943 12.6875C 79.3812 12.8151 79.641 12.9336 79.9736 13.043C 80.3063 13.1523 80.6572 13.207 81.0264 13.207C 81.4137 13.207 81.735 13.1432 81.9902 13.0156C 82.2454 12.888 82.373 12.626 82.373 12.2295C 82.373 11.9971 82.3184 11.7852 82.209 11.5938C 82.0996 11.3978 81.9629 11.2269 81.7988 11.0811C 81.6393 10.9352 81.4297 10.7666 81.1699 10.5752C 80.8053 10.3063 80.4749 9.97591 80.1787 9.58398C 79.887 9.19206 79.7412 8.75456 79.7412 8.27148C 79.7412 7.83398 79.862 7.44661 80.1035 7.10938C 80.3496 6.77214 80.6755 6.51237 81.0811 6.33008C 81.4867 6.14323 81.9264 6.0498 82.4004 6.0498C 82.7422 6.0498 83.0863 6.07715 83.4326 6.13184C 83.7835 6.18652 84.0228 6.24349 84.1504 6.30273L 83.8906 7.45801C 83.8587 7.40788 83.7699 7.3418 83.624 7.25977C 83.4782 7.17318 83.2936 7.09798 83.0703 7.03418C 82.847 6.97038 82.6055 6.93848 82.3457 6.93848C 82.013 6.93848 81.7282 7.00911 81.4912 7.15039C 81.2542 7.28711 81.1175 7.52181 81.0811 7.85449C 81.0765 7.88639 81.0742 7.93424 81.0742 7.99805C 81.0742 8.28971 81.1722 8.56315 81.3682 8.81836C 81.5641 9.06901 81.8307 9.32422 82.168 9.58398C 82.4824 9.83008 82.7422 10.0557 82.9473 10.2607C 83.1523 10.4658 83.3278 10.7119 83.4736 10.999C 83.6195 11.2816 83.6924 11.6006 83.6924 11.9561C 83.6924 12.4118 83.5671 12.806 83.3164 13.1387C 83.0703 13.4668 82.7376 13.7152 82.3184 13.8838C 81.9036 14.0524 81.4502 14.1367 80.958 14.1367C 80.5479 14.1367 80.14 14.0957 79.7344 14.0137C 79.3288 13.9316 79.0645 13.8382 78.9414 13.7334L 79.1943 12.6875Z"/>
<path id="path4_fill" d="M 221.977 8.23438L 221.977 7.49219C 222.122 7.45573 222.289 7.40365 222.477 7.33594C 222.669 7.26823 222.794 7.21615 222.852 7.17969C 223.023 7.05469 223.164 6.85156 223.273 6.57031C 223.352 6.39323 223.453 6.11198 223.578 5.72656C 223.708 5.33594 223.797 5.04167 223.844 4.84375L 224.859 4.84375L 224.875 7.11719L 227.5 7.11719L 227.5 8.23438L 224.883 8.23438L 224.883 12.9609C 224.883 13.5964 224.901 14.0391 224.938 14.2891C 224.974 14.5339 225.047 14.6927 225.156 14.7656C 225.271 14.8333 225.477 14.8672 225.773 14.8672L 225.781 14.8672C 226.052 14.8672 226.357 14.8333 226.695 14.7656C 227.039 14.6979 227.305 14.6276 227.492 14.5547L 227.5 14.5547L 227.766 15.3125C 227.609 15.4427 227.375 15.5755 227.062 15.7109C 226.75 15.8411 226.414 15.9505 226.055 16.0391C 225.695 16.1276 225.365 16.1719 225.062 16.1719L 225.047 16.1719C 224.401 16.1719 223.914 16.0312 223.586 15.75C 223.258 15.4635 223.094 14.987 223.094 14.3203L 223.094 8.23438L 221.977 8.23438ZM 233.867 10.1953C 233.867 9.70573 233.815 9.32031 233.711 9.03906C 233.612 8.75781 233.438 8.55208 233.188 8.42188C 232.938 8.29167 232.583 8.22656 232.125 8.22656C 231.245 8.22656 230.318 8.47396 229.344 8.96875L 229.336 8.96875L 228.945 8.15625C 229.086 8.03125 229.354 7.86979 229.75 7.67188C 230.151 7.47396 230.604 7.30208 231.109 7.15625C 231.62 7.00521 232.104 6.92969 232.562 6.92969C 233.323 6.92969 233.919 7.03385 234.352 7.24219C 234.789 7.44531 235.104 7.77344 235.297 8.22656C 235.49 8.67969 235.586 9.29167 235.586 10.0625L 235.586 15.1406L 236.539 15.1406L 236.539 15.9062C 235.779 16.0885 235.206 16.1797 234.82 16.1797C 234.602 16.1797 234.435 16.1615 234.32 16.125C 234.206 16.0885 234.12 16.0156 234.062 15.9062C 234.01 15.7917 233.984 15.6172 233.984 15.3828L 233.984 15.0078C 233.703 15.2839 233.333 15.5495 232.875 15.8047C 232.417 16.0547 231.904 16.1797 231.336 16.1797C 230.836 16.1797 230.38 16.0885 229.969 15.9062C 229.562 15.724 229.237 15.4427 228.992 15.0625C 228.753 14.6823 228.633 14.2083 228.633 13.6406C 228.633 12.9479 228.872 12.3776 229.352 11.9297C 229.836 11.4818 230.469 11.1536 231.25 10.9453C 232.036 10.7318 232.909 10.6172 233.867 10.6016L 233.867 10.1953ZM 233.867 11.4844C 233.102 11.4844 232.471 11.5729 231.977 11.75C 231.487 11.9219 231.13 12.151 230.906 12.4375C 230.688 12.724 230.578 13.0495 230.578 13.4141C 230.578 13.9609 230.714 14.362 230.984 14.6172C 231.255 14.8724 231.62 15 232.078 15C 232.323 15 232.617 14.9323 232.961 14.7969C 233.31 14.6562 233.612 14.487 233.867 14.2891L 233.867 11.4844ZM 236.898 3.95312L 236.898 3.21875L 239.531 2.88281L 239.57 2.88281L 239.961 3.14844L 239.961 7.92188C 240.268 7.61979 240.635 7.36979 241.062 7.17188C 241.49 6.97396 241.964 6.875 242.484 6.875C 243.12 6.875 243.701 7.02865 244.227 7.33594C 244.753 7.64323 245.174 8.125 245.492 8.78125C 245.81 9.43229 245.969 10.2526 245.969 11.2422C 245.969 12.1589 245.781 12.9948 245.406 13.75C 245.031 14.5 244.492 15.0938 243.789 15.5312C 243.091 15.9635 242.276 16.1797 241.344 16.1797C 240.839 16.1797 240.357 16.1432 239.898 16.0703C 239.445 16.0026 239.065 15.9193 238.758 15.8203C 238.451 15.7214 238.26 15.6354 238.188 15.5625L 238.188 4.10938L 236.898 3.95312ZM 239.961 14.7734C 240.029 14.9297 240.203 15.0547 240.484 15.1484C 240.766 15.237 241.091 15.2812 241.461 15.2812C 241.971 15.2812 242.419 15.138 242.805 14.8516C 243.195 14.5651 243.5 14.1354 243.719 13.5625C 243.938 12.9844 244.047 12.2734 244.047 11.4297C 244.047 10.6797 243.948 10.0547 243.75 9.55469C 243.557 9.05469 243.289 8.6849 242.945 8.44531C 242.602 8.20573 242.208 8.08594 241.766 8.08594C 241.391 8.08594 241.044 8.17188 240.727 8.34375C 240.409 8.51042 240.154 8.70052 239.961 8.91406L 239.961 14.7734ZM 248.477 15.0156L 248.477 4.11719L 247.195 3.96094L 247.195 3.21875L 249.859 2.88281L 249.875 2.88281L 250.258 3.14844L 250.258 15.0156L 251.586 15.1484L 251.586 16L 247.211 16L 247.211 15.1484L 248.477 15.0156ZM 252.68 11.5391C 252.68 10.6224 252.859 9.8099 253.219 9.10156C 253.578 8.39323 254.076 7.84635 254.711 7.46094C 255.346 7.07031 256.068 6.875 256.875 6.875C 257.875 6.875 258.648 7.14844 259.195 7.69531C 259.742 8.24219 260.034 9.03125 260.07 10.0625L 260.07 10.3438C 260.07 10.8906 260.039 11.3073 259.977 11.5938L 254.562 11.5938C 254.583 12.3594 254.714 12.9948 254.953 13.5C 255.193 14.0052 255.508 14.3776 255.898 14.6172C 256.289 14.8568 256.729 14.9766 257.219 14.9766C 257.646 14.9766 258.083 14.9036 258.531 14.7578C 258.984 14.6068 259.339 14.4349 259.594 14.2422L 259.922 14.9922C 259.724 15.1953 259.451 15.388 259.102 15.5703C 258.758 15.7526 258.372 15.8984 257.945 16.0078C 257.523 16.1224 257.104 16.1797 256.688 16.1797C 255.812 16.1797 255.073 15.987 254.469 15.6016C 253.87 15.2109 253.422 14.6693 253.125 13.9766C 252.828 13.2786 252.68 12.4661 252.68 11.5391ZM 258.195 10.6875C 258.216 10.5 258.227 10.276 258.227 10.0156C 258.221 9.35417 258.083 8.82292 257.812 8.42188C 257.542 8.02083 257.115 7.82031 256.531 7.82031C 255.948 7.82031 255.484 8.03906 255.141 8.47656C 254.802 8.90885 254.609 9.64583 254.562 10.6875L 258.195 10.6875Z"/>
<path id="path5_fill" d="M 40.6172 11.7656C 40.6172 10.8542 40.8021 10.0286 41.1719 9.28906C 41.5417 8.54427 42.0755 7.95573 42.7734 7.52344C 43.4714 7.09115 44.2891 6.875 45.2266 6.875C 45.6849 6.875 46.1562 6.92448 46.6406 7.02344L 46.6406 4.10938L 45.0703 3.95312L 45.0703 3.19531L 47.9844 2.88281L 48.0312 2.88281L 48.4141 3.16406L 48.4141 15.0938L 49.3359 15.0938L 49.3359 15.9062C 48.9974 15.9896 48.6953 16.0547 48.4297 16.1016C 48.1693 16.1536 47.8984 16.1797 47.6172 16.1797C 47.4141 16.1797 47.2526 16.1589 47.1328 16.1172C 47.0182 16.0807 46.9297 16.0052 46.8672 15.8906C 46.8099 15.7708 46.7812 15.599 46.7812 15.375L 46.7812 14.9609C 46.4635 15.3099 46.0755 15.6016 45.6172 15.8359C 45.1641 16.0651 44.6589 16.1797 44.1016 16.1797C 43.4609 16.1797 42.8776 16.0182 42.3516 15.6953C 41.8255 15.3672 41.4036 14.8724 41.0859 14.2109C 40.7734 13.5443 40.6172 12.7292 40.6172 11.7656ZM 46.6406 8.27344C 46.5625 8.14323 46.375 8.03125 46.0781 7.9375C 45.7812 7.84375 45.4609 7.79688 45.1172 7.79688C 44.3359 7.79688 43.7109 8.10677 43.2422 8.72656C 42.7734 9.34635 42.5391 10.3177 42.5391 11.6406C 42.5391 12.3958 42.638 13.0234 42.8359 13.5234C 43.0391 14.0182 43.3099 14.3854 43.6484 14.625C 43.9922 14.8594 44.3828 14.9766 44.8203 14.9766C 45.2005 14.9766 45.5495 14.8932 45.8672 14.7266C 46.1849 14.5599 46.4427 14.3672 46.6406 14.1484L 46.6406 8.27344ZM 55.7891 10.1953C 55.7891 9.70573 55.737 9.32031 55.6328 9.03906C 55.5339 8.75781 55.3594 8.55208 55.1094 8.42188C 54.8594 8.29167 54.5052 8.22656 54.0469 8.22656C 53.1667 8.22656 52.2396 8.47396 51.2656 8.96875L 51.2578 8.96875L 50.8672 8.15625C 51.0078 8.03125 51.276 7.86979 51.6719 7.67188C 52.0729 7.47396 52.526 7.30208 53.0312 7.15625C 53.5417 7.00521 54.026 6.92969 54.4844 6.92969C 55.2448 6.92969 55.8411 7.03385 56.2734 7.24219C 56.7109 7.44531 57.026 7.77344 57.2188 8.22656C 57.4115 8.67969 57.5078 9.29167 57.5078 10.0625L 57.5078 15.1406L 58.4609 15.1406L 58.4609 15.9062C 57.7005 16.0885 57.1276 16.1797 56.7422 16.1797C 56.5234 16.1797 56.3568 16.1615 56.2422 16.125C 56.1276 16.0885 56.0417 16.0156 55.9844 15.9062C 55.9323 15.7917 55.9062 15.6172 55.9062 15.3828L 55.9062 15.0078C 55.625 15.2839 55.2552 15.5495 54.7969 15.8047C 54.3385 16.0547 53.8255 16.1797 53.2578 16.1797C 52.7578 16.1797 52.3021 16.0885 51.8906 15.9062C 51.4844 15.724 51.1589 15.4427 50.9141 15.0625C 50.6745 14.6823 50.5547 14.2083 50.5547 13.6406C 50.5547 12.9479 50.7943 12.3776 51.2734 11.9297C 51.7578 11.4818 52.3906 11.1536 53.1719 10.9453C 53.9583 10.7318 54.8307 10.6172 55.7891 10.6016L 55.7891 10.1953ZM 55.7891 11.4844C 55.0234 11.4844 54.3932 11.5729 53.8984 11.75C 53.4089 11.9219 53.0521 12.151 52.8281 12.4375C 52.6094 12.724 52.5 13.0495 52.5 13.4141C 52.5 13.9609 52.6354 14.362 52.9062 14.6172C 53.1771 14.8724 53.5417 15 54 15C 54.2448 15 54.5391 14.9323 54.8828 14.7969C 55.2318 14.6562 55.5339 14.487 55.7891 14.2891L 55.7891 11.4844ZM 59.3828 8.23438L 59.3828 7.49219C 59.5286 7.45573 59.6953 7.40365 59.8828 7.33594C 60.0755 7.26823 60.2005 7.21615 60.2578 7.17969C 60.4297 7.05469 60.5703 6.85156 60.6797 6.57031C 60.7578 6.39323 60.8594 6.11198 60.9844 5.72656C 61.1146 5.33594 61.2031 5.04167 61.25 4.84375L 62.2656 4.84375L 62.2812 7.11719L 64.9062 7.11719L 64.9062 8.23438L 62.2891 8.23438L 62.2891 12.9609C 62.2891 13.5964 62.3073 14.0391 62.3438 14.2891C 62.3802 14.5339 62.4531 14.6927 62.5625 14.7656C 62.6771 14.8333 62.8828 14.8672 63.1797 14.8672L 63.1875 14.8672C 63.4583 14.8672 63.763 14.8333 64.1016 14.7656C 64.4453 14.6979 64.7109 14.6276 64.8984 14.5547L 64.9062 14.5547L 65.1719 15.3125C 65.0156 15.4427 64.7812 15.5755 64.4688 15.7109C 64.1562 15.8411 63.8203 15.9505 63.4609 16.0391C 63.1016 16.1276 62.7708 16.1719 62.4688 16.1719L 62.4531 16.1719C 61.8073 16.1719 61.3203 16.0312 60.9922 15.75C 60.6641 15.4635 60.5 14.987 60.5 14.3203L 60.5 8.23438L 59.3828 8.23438ZM 71.2734 10.1953C 71.2734 9.70573 71.2214 9.32031 71.1172 9.03906C 71.0182 8.75781 70.8438 8.55208 70.5938 8.42188C 70.3438 8.29167 69.9896 8.22656 69.5312 8.22656C 68.651 8.22656 67.724 8.47396 66.75 8.96875L 66.7422 8.96875L 66.3516 8.15625C 66.4922 8.03125 66.7604 7.86979 67.1562 7.67188C 67.5573 7.47396 68.0104 7.30208 68.5156 7.15625C 69.026 7.00521 69.5104 6.92969 69.9688 6.92969C 70.7292 6.92969 71.3255 7.03385 71.7578 7.24219C 72.1953 7.44531 72.5104 7.77344 72.7031 8.22656C 72.8958 8.67969 72.9922 9.29167 72.9922 10.0625L 72.9922 15.1406L 73.9453 15.1406L 73.9453 15.9062C 73.1849 16.0885 72.612 16.1797 72.2266 16.1797C 72.0078 16.1797 71.8411 16.1615 71.7266 16.125C 71.612 16.0885 71.526 16.0156 71.4688 15.9062C 71.4167 15.7917 71.3906 15.6172 71.3906 15.3828L 71.3906 15.0078C 71.1094 15.2839 70.7396 15.5495 70.2812 15.8047C 69.8229 16.0547 69.3099 16.1797 68.7422 16.1797C 68.2422 16.1797 67.7865 16.0885 67.375 15.9062C 66.9688 15.724 66.6432 15.4427 66.3984 15.0625C 66.1589 14.6823 66.0391 14.2083 66.0391 13.6406C 66.0391 12.9479 66.2786 12.3776 66.7578 11.9297C 67.2422 11.4818 67.875 11.1536 68.6562 10.9453C 69.4427 10.7318 70.3151 10.6172 71.2734 10.6016L 71.2734 10.1953ZM 71.2734 11.4844C 70.5078 11.4844 69.8776 11.5729 69.3828 11.75C 68.8932 11.9219 68.5365 12.151 68.3125 12.4375C 68.0938 12.724 67.9844 13.0495 67.9844 13.4141C 67.9844 13.9609 68.1198 14.362 68.3906 14.6172C 68.6615 14.8724 69.026 15 69.4844 15C 69.7292 15 70.0234 14.9323 70.3672 14.7969C 70.7161 14.6562 71.0182 14.487 71.2734 14.2891L 71.2734 11.4844ZM 74.3047 3.95312L 74.3047 3.21875L 76.9375 2.88281L 76.9766 2.88281L 77.3672 3.14844L 77.3672 7.92188C 77.6745 7.61979 78.0417 7.36979 78.4688 7.17188C 78.8958 6.97396 79.3698 6.875 79.8906 6.875C 80.526 6.875 81.1068 7.02865 81.6328 7.33594C 82.1589 7.64323 82.5807 8.125 82.8984 8.78125C 83.2161 9.43229 83.375 10.2526 83.375 11.2422C 83.375 12.1589 83.1875 12.9948 82.8125 13.75C 82.4375 14.5 81.8984 15.0938 81.1953 15.5312C 80.4974 15.9635 79.6823 16.1797 78.75 16.1797C 78.2448 16.1797 77.763 16.1432 77.3047 16.0703C 76.8516 16.0026 76.4714 15.9193 76.1641 15.8203C 75.8568 15.7214 75.6667 15.6354 75.5938 15.5625L 75.5938 4.10938L 74.3047 3.95312ZM 77.3672 14.7734C 77.4349 14.9297 77.6094 15.0547 77.8906 15.1484C 78.1719 15.237 78.4974 15.2812 78.8672 15.2812C 79.3776 15.2812 79.8255 15.138 80.2109 14.8516C 80.6016 14.5651 80.9062 14.1354 81.125 13.5625C 81.3438 12.9844 81.4531 12.2734 81.4531 11.4297C 81.4531 10.6797 81.3542 10.0547 81.1562 9.55469C 80.9635 9.05469 80.6953 8.6849 80.3516 8.44531C 80.0078 8.20573 79.6146 8.08594 79.1719 8.08594C 78.7969 8.08594 78.4505 8.17188 78.1328 8.34375C 77.8151 8.51042 77.5599 8.70052 77.3672 8.91406L 77.3672 14.7734ZM 89.9453 10.1953C 89.9453 9.70573 89.8932 9.32031 89.7891 9.03906C 89.6901 8.75781 89.5156 8.55208 89.2656 8.42188C 89.0156 8.29167 88.6615 8.22656 88.2031 8.22656C 87.3229 8.22656 86.3958 8.47396 85.4219 8.96875L 85.4141 8.96875L 85.0234 8.15625C 85.1641 8.03125 85.4323 7.86979 85.8281 7.67188C 86.2292 7.47396 86.6823 7.30208 87.1875 7.15625C 87.6979 7.00521 88.1823 6.92969 88.6406 6.92969C 89.401 6.92969 89.9974 7.03385 90.4297 7.24219C 90.8672 7.44531 91.1823 7.77344 91.375 8.22656C 91.5677 8.67969 91.6641 9.29167 91.6641 10.0625L 91.6641 15.1406L 92.6172 15.1406L 92.6172 15.9062C 91.8568 16.0885 91.2839 16.1797 90.8984 16.1797C 90.6797 16.1797 90.513 16.1615 90.3984 16.125C 90.2839 16.0885 90.1979 16.0156 90.1406 15.9062C 90.0885 15.7917 90.0625 15.6172 90.0625 15.3828L 90.0625 15.0078C 89.7812 15.2839 89.4115 15.5495 88.9531 15.8047C 88.4948 16.0547 87.9818 16.1797 87.4141 16.1797C 86.9141 16.1797 86.4583 16.0885 86.0469 15.9062C 85.6406 15.724 85.3151 15.4427 85.0703 15.0625C 84.8307 14.6823 84.7109 14.2083 84.7109 13.6406C 84.7109 12.9479 84.9505 12.3776 85.4297 11.9297C 85.9141 11.4818 86.5469 11.1536 87.3281 10.9453C 88.1146 10.7318 88.987 10.6172 89.9453 10.6016L 89.9453 10.1953ZM 89.9453 11.4844C 89.1797 11.4844 88.5495 11.5729 88.0547 11.75C 87.5651 11.9219 87.2083 12.151 86.9844 12.4375C 86.7656 12.724 86.6562 13.0495 86.6562 13.4141C 86.6562 13.9609 86.7917 14.362 87.0625 14.6172C 87.3333 14.8724 87.6979 15 88.1562 15C 88.401 15 88.6953 14.9323 89.0391 14.7969C 89.388 14.6562 89.6901 14.487 89.9453 14.2891L 89.9453 11.4844ZM 95.0469 13.4609L 95.3594 14.6484C 95.4219 14.7578 95.5417 14.862 95.7188 14.9609C 95.901 15.0599 96.1146 15.1406 96.3594 15.2031C 96.6042 15.2656 96.8542 15.2969 97.1094 15.2969C 97.6979 15.2969 98.1172 15.1875 98.3672 14.9688C 98.6172 14.7448 98.7422 14.4401 98.7422 14.0547C 98.7422 13.7839 98.6562 13.5469 98.4844 13.3438C 98.3177 13.1354 98.0677 12.9401 97.7344 12.7578C 97.401 12.5755 96.9479 12.3698 96.375 12.1406C 95.5469 11.8177 94.9427 11.4375 94.5625 11C 94.1823 10.5573 93.9922 9.98698 93.9922 9.28906C 93.9922 8.82031 94.1328 8.40885 94.4141 8.05469C 94.7005 7.69531 95.0911 7.41667 95.5859 7.21875C 96.0807 7.02083 96.638 6.92188 97.2578 6.92188C 97.737 6.92188 98.1589 6.96094 98.5234 7.03906C 98.888 7.11198 99.2552 7.20833 99.625 7.32812L 99.9062 7.41406L 99.9062 9.39062L 98.9062 9.39062L 98.5703 8.29688C 98.5078 8.16146 98.3385 8.04427 98.0625 7.94531C 97.7917 7.84635 97.487 7.79688 97.1484 7.79688C 96.6693 7.79688 96.2995 7.89844 96.0391 8.10156C 95.7786 8.30469 95.6484 8.57031 95.6484 8.89844C 95.6484 9.1901 95.724 9.4349 95.875 9.63281C 96.0312 9.83073 96.224 9.99219 96.4531 10.1172C 96.6823 10.2422 97.0026 10.3906 97.4141 10.5625L 97.7188 10.6953C 98.3125 10.9505 98.7943 11.1901 99.1641 11.4141C 99.5339 11.638 99.8411 11.9245 100.086 12.2734C 100.331 12.6224 100.453 13.0495 100.453 13.5547C 100.453 14.0755 100.315 14.5339 100.039 14.9297C 99.7682 15.3255 99.3724 15.6328 98.8516 15.8516C 98.3359 16.0703 97.724 16.1797 97.0156 16.1797C 96.4844 16.1797 95.9271 16.1068 95.3438 15.9609C 94.7604 15.8151 94.2943 15.6641 93.9453 15.5078L 93.9453 13.4609L 95.0469 13.4609ZM 101.836 11.5391C 101.836 10.6224 102.016 9.8099 102.375 9.10156C 102.734 8.39323 103.232 7.84635 103.867 7.46094C 104.503 7.07031 105.224 6.875 106.031 6.875C 107.031 6.875 107.805 7.14844 108.352 7.69531C 108.898 8.24219 109.19 9.03125 109.227 10.0625L 109.227 10.3438C 109.227 10.8906 109.195 11.3073 109.133 11.5938L 103.719 11.5938C 103.74 12.3594 103.87 12.9948 104.109 13.5C 104.349 14.0052 104.664 14.3776 105.055 14.6172C 105.445 14.8568 105.885 14.9766 106.375 14.9766C 106.802 14.9766 107.24 14.9036 107.688 14.7578C 108.141 14.6068 108.495 14.4349 108.75 14.2422L 109.078 14.9922C 108.88 15.1953 108.607 15.388 108.258 15.5703C 107.914 15.7526 107.529 15.8984 107.102 16.0078C 106.68 16.1224 106.26 16.1797 105.844 16.1797C 104.969 16.1797 104.229 15.987 103.625 15.6016C 103.026 15.2109 102.578 14.6693 102.281 13.9766C 101.984 13.2786 101.836 12.4661 101.836 11.5391ZM 107.352 10.6875C 107.372 10.5 107.383 10.276 107.383 10.0156C 107.378 9.35417 107.24 8.82292 106.969 8.42188C 106.698 8.02083 106.271 7.82031 105.688 7.82031C 105.104 7.82031 104.641 8.03906 104.297 8.47656C 103.958 8.90885 103.766 9.64583 103.719 10.6875L 107.352 10.6875Z"/>
<path id="path6_fill" d="M 4.57031 14.9609L 4.57031 5.03906L 1.96875 5.11719L 1.38281 8.38281L 0.25 8.38281L 0.523438 4.10938L 10.4141 4.10938L 10.6641 8.38281L 9.54688 8.38281L 8.95312 5.11719L 6.45312 5.03906L 6.45312 14.9609L 8.66406 15.1484L 8.66406 16L 2.53125 16L 2.53125 15.1484L 4.57031 14.9609ZM 12.6641 15.0234L 12.6641 4.11719L 11.375 3.96094L 11.375 3.21875L 14.0234 2.88281L 14.0625 2.88281L 14.4375 3.14844L 14.4453 6.77344L 14.375 8.17188C 14.7292 7.85938 15.1927 7.57292 15.7656 7.3125C 16.3385 7.04688 16.9271 6.91406 17.5312 6.91406C 18.1979 6.91406 18.7161 7.04167 19.0859 7.29688C 19.4609 7.55208 19.7214 7.94531 19.8672 8.47656C 20.0182 9.0026 20.0938 9.71094 20.0938 10.6016L 20.0938 15.0156L 21.2188 15.1484L 21.2188 16L 17.2891 16L 17.2891 15.1562L 18.3125 15.0234L 18.3125 10.5938C 18.3125 9.98958 18.2708 9.51562 18.1875 9.17188C 18.1094 8.82292 17.9557 8.5625 17.7266 8.39062C 17.4974 8.21354 17.1615 8.125 16.7188 8.125C 16.3438 8.125 15.9505 8.20312 15.5391 8.35938C 15.1276 8.51042 14.7656 8.70312 14.4531 8.9375L 14.4531 15.0156L 15.5625 15.1484L 15.5625 16L 11.7266 16L 11.7266 15.1484L 12.6641 15.0234ZM 23.5 15.0156L 23.5 8.46875L 22.3672 8.14844L 22.3672 7.22656L 24.8516 6.90625L 24.8906 6.90625L 25.2891 7.21094L 25.2891 15.0156L 26.5391 15.1484L 26.5391 16L 22.2344 16L 22.2344 15.1484L 23.5 15.0156ZM 23.1797 4.36719C 23.1797 4.01302 23.2812 3.71354 23.4844 3.46875C 23.6927 3.22396 23.9818 3.10156 24.3516 3.10156L 24.3594 3.10156C 24.5781 3.10156 24.7682 3.15365 24.9297 3.25781C 25.0911 3.35677 25.2135 3.48958 25.2969 3.65625C 25.3854 3.82292 25.4297 4 25.4297 4.1875C 25.4297 4.55208 25.3255 4.85156 25.1172 5.08594C 24.9089 5.32031 24.6068 5.4375 24.2109 5.4375L 24.2031 5.4375C 23.901 5.4375 23.6536 5.33594 23.4609 5.13281C 23.2734 4.92969 23.1797 4.67448 23.1797 4.36719ZM 29.0156 13.4609L 29.3281 14.6484C 29.3906 14.7578 29.5104 14.862 29.6875 14.9609C 29.8698 15.0599 30.0833 15.1406 30.3281 15.2031C 30.5729 15.2656 30.8229 15.2969 31.0781 15.2969C 31.6667 15.2969 32.0859 15.1875 32.3359 14.9688C 32.5859 14.7448 32.7109 14.4401 32.7109 14.0547C 32.7109 13.7839 32.625 13.5469 32.4531 13.3438C 32.2865 13.1354 32.0365 12.9401 31.7031 12.7578C 31.3698 12.5755 30.9167 12.3698 30.3438 12.1406C 29.5156 11.8177 28.9115 11.4375 28.5312 11C 28.151 10.5573 27.9609 9.98698 27.9609 9.28906C 27.9609 8.82031 28.1016 8.40885 28.3828 8.05469C 28.6693 7.69531 29.0599 7.41667 29.5547 7.21875C 30.0495 7.02083 30.6068 6.92188 31.2266 6.92188C 31.7057 6.92188 32.1276 6.96094 32.4922 7.03906C 32.8568 7.11198 33.224 7.20833 33.5938 7.32812L 33.875 7.41406L 33.875 9.39062L 32.875 9.39062L 32.5391 8.29688C 32.4766 8.16146 32.3073 8.04427 32.0312 7.94531C 31.7604 7.84635 31.4557 7.79688 31.1172 7.79688C 30.638 7.79688 30.2682 7.89844 30.0078 8.10156C 29.7474 8.30469 29.6172 8.57031 29.6172 8.89844C 29.6172 9.1901 29.6927 9.4349 29.8438 9.63281C 30 9.83073 30.1927 9.99219 30.4219 10.1172C 30.651 10.2422 30.9714 10.3906 31.3828 10.5625L 31.6875 10.6953C 32.2812 10.9505 32.763 11.1901 33.1328 11.4141C 33.5026 11.638 33.8099 11.9245 34.0547 12.2734C 34.2995 12.6224 34.4219 13.0495 34.4219 13.5547C 34.4219 14.0755 34.2839 14.5339 34.0078 14.9297C 33.737 15.3255 33.3411 15.6328 32.8203 15.8516C 32.3047 16.0703 31.6927 16.1797 30.9844 16.1797C 30.4531 16.1797 29.8958 16.1068 29.3125 15.9609C 28.7292 15.8151 28.263 15.6641 27.9141 15.5078L 27.9141 13.4609L 29.0156 13.4609ZM 119.773 6.875C 120.523 6.875 121.326 7.03646 122.18 7.35938L 122.102 9.76562L 121.016 9.76562L 120.656 8.30469C 120.583 8.13281 120.438 8.00521 120.219 7.92188C 120.005 7.83854 119.747 7.79688 119.445 7.79688C 118.987 7.79688 118.589 7.92448 118.25 8.17969C 117.911 8.42969 117.648 8.80729 117.461 9.3125C 117.273 9.8125 117.18 10.4323 117.18 11.1719C 117.18 12.0312 117.292 12.7448 117.516 13.3125C 117.74 13.8802 118.044 14.2995 118.43 14.5703C 118.815 14.8411 119.25 14.9766 119.734 14.9766C 120.188 14.9766 120.604 14.9115 120.984 14.7812C 121.37 14.6458 121.698 14.4818 121.969 14.2891L 122.305 15.0078C 122.117 15.2005 121.867 15.388 121.555 15.5703C 121.242 15.7474 120.891 15.8932 120.5 16.0078C 120.115 16.1224 119.727 16.1797 119.336 16.1797C 118.456 16.1797 117.711 15.9844 117.102 15.5938C 116.492 15.2031 116.034 14.6693 115.727 13.9922C 115.424 13.3099 115.273 12.5365 115.273 11.6719C 115.273 10.7812 115.445 9.97396 115.789 9.25C 116.133 8.52083 116.643 7.94271 117.32 7.51562C 117.997 7.08854 118.815 6.875 119.773 6.875ZM 127.711 6.875C 128.617 6.875 129.372 7.07552 129.977 7.47656C 130.581 7.8776 131.029 8.42969 131.32 9.13281C 131.612 9.83073 131.758 10.6302 131.758 11.5312C 131.758 12.4948 131.557 13.3281 131.156 14.0312C 130.76 14.7344 130.237 15.2682 129.586 15.6328C 128.94 15.9974 128.25 16.1797 127.516 16.1797C 126.609 16.1797 125.854 15.9792 125.25 15.5781C 124.651 15.1771 124.206 14.6276 123.914 13.9297C 123.622 13.2266 123.477 12.4245 123.477 11.5234C 123.477 10.5703 123.674 9.74219 124.07 9.03906C 124.471 8.33594 124.995 7.79948 125.641 7.42969C 126.292 7.0599 126.982 6.875 127.711 6.875ZM 129.781 11.6719C 129.781 10.5 129.607 9.57031 129.258 8.88281C 128.914 8.1901 128.367 7.84375 127.617 7.84375C 126.898 7.84375 126.357 8.14062 125.992 8.73438C 125.628 9.32292 125.445 10.2057 125.445 11.3828C 125.445 12.5547 125.62 13.487 125.969 14.1797C 126.323 14.8672 126.872 15.2109 127.617 15.2109C 129.06 15.2109 129.781 14.0312 129.781 11.6719ZM 134.195 15.0156L 134.195 8.46875L 133.078 8.15625L 133.078 7.21875L 135.391 6.90625L 135.43 6.90625L 135.797 7.21094L 135.797 7.84375L 135.789 8.20312C 136.029 7.98958 136.328 7.78385 136.688 7.58594C 137.052 7.38802 137.44 7.22656 137.852 7.10156C 138.268 6.97656 138.661 6.91406 139.031 6.91406C 139.708 6.91406 140.232 7.04167 140.602 7.29688C 140.971 7.54688 141.229 7.9349 141.375 8.46094C 141.521 8.98698 141.594 9.70052 141.594 10.6016L 141.594 15.0156L 142.719 15.1484L 142.719 16L 138.797 16L 138.797 15.1484L 139.797 15.0156L 139.797 10.5938C 139.797 9.98958 139.755 9.51562 139.672 9.17188C 139.594 8.82292 139.443 8.5625 139.219 8.39062C 138.995 8.21354 138.664 8.125 138.227 8.125C 137.852 8.125 137.461 8.20573 137.055 8.36719C 136.648 8.52865 136.292 8.72396 135.984 8.95312L 135.984 15.0156L 137.062 15.1484L 137.062 16L 133.172 16L 133.172 15.1484L 134.195 15.0156ZM 143.648 8.23438L 143.648 7.49219C 143.794 7.45573 143.961 7.40365 144.148 7.33594C 144.341 7.26823 144.466 7.21615 144.523 7.17969C 144.695 7.05469 144.836 6.85156 144.945 6.57031C 145.023 6.39323 145.125 6.11198 145.25 5.72656C 145.38 5.33594 145.469 5.04167 145.516 4.84375L 146.531 4.84375L 146.547 7.11719L 149.172 7.11719L 149.172 8.23438L 146.555 8.23438L 146.555 12.9609C 146.555 13.5964 146.573 14.0391 146.609 14.2891C 146.646 14.5339 146.719 14.6927 146.828 14.7656C 146.943 14.8333 147.148 14.8672 147.445 14.8672L 147.453 14.8672C 147.724 14.8672 148.029 14.8333 148.367 14.7656C 148.711 14.6979 148.977 14.6276 149.164 14.5547L 149.172 14.5547L 149.438 15.3125C 149.281 15.4427 149.047 15.5755 148.734 15.7109C 148.422 15.8411 148.086 15.9505 147.727 16.0391C 147.367 16.1276 147.036 16.1719 146.734 16.1719L 146.719 16.1719C 146.073 16.1719 145.586 16.0312 145.258 15.75C 144.93 15.4635 144.766 14.987 144.766 14.3203L 144.766 8.23438L 143.648 8.23438ZM 155.539 10.1953C 155.539 9.70573 155.487 9.32031 155.383 9.03906C 155.284 8.75781 155.109 8.55208 154.859 8.42188C 154.609 8.29167 154.255 8.22656 153.797 8.22656C 152.917 8.22656 151.99 8.47396 151.016 8.96875L 151.008 8.96875L 150.617 8.15625C 150.758 8.03125 151.026 7.86979 151.422 7.67188C 151.823 7.47396 152.276 7.30208 152.781 7.15625C 153.292 7.00521 153.776 6.92969 154.234 6.92969C 154.995 6.92969 155.591 7.03385 156.023 7.24219C 156.461 7.44531 156.776 7.77344 156.969 8.22656C 157.161 8.67969 157.258 9.29167 157.258 10.0625L 157.258 15.1406L 158.211 15.1406L 158.211 15.9062C 157.451 16.0885 156.878 16.1797 156.492 16.1797C 156.273 16.1797 156.107 16.1615 155.992 16.125C 155.878 16.0885 155.792 16.0156 155.734 15.9062C 155.682 15.7917 155.656 15.6172 155.656 15.3828L 155.656 15.0078C 155.375 15.2839 155.005 15.5495 154.547 15.8047C 154.089 16.0547 153.576 16.1797 153.008 16.1797C 152.508 16.1797 152.052 16.0885 151.641 15.9062C 151.234 15.724 150.909 15.4427 150.664 15.0625C 150.424 14.6823 150.305 14.2083 150.305 13.6406C 150.305 12.9479 150.544 12.3776 151.023 11.9297C 151.508 11.4818 152.141 11.1536 152.922 10.9453C 153.708 10.7318 154.581 10.6172 155.539 10.6016L 155.539 10.1953ZM 155.539 11.4844C 154.773 11.4844 154.143 11.5729 153.648 11.75C 153.159 11.9219 152.802 12.151 152.578 12.4375C 152.359 12.724 152.25 13.0495 152.25 13.4141C 152.25 13.9609 152.385 14.362 152.656 14.6172C 152.927 14.8724 153.292 15 153.75 15C 153.995 15 154.289 14.9323 154.633 14.7969C 154.982 14.6562 155.284 14.487 155.539 14.2891L 155.539 11.4844ZM 160.484 15.0156L 160.484 8.46875L 159.352 8.14844L 159.352 7.22656L 161.836 6.90625L 161.875 6.90625L 162.273 7.21094L 162.273 15.0156L 163.523 15.1484L 163.523 16L 159.219 16L 159.219 15.1484L 160.484 15.0156ZM 160.164 4.36719C 160.164 4.01302 160.266 3.71354 160.469 3.46875C 160.677 3.22396 160.966 3.10156 161.336 3.10156L 161.344 3.10156C 161.562 3.10156 161.753 3.15365 161.914 3.25781C 162.076 3.35677 162.198 3.48958 162.281 3.65625C 162.37 3.82292 162.414 4 162.414 4.1875C 162.414 4.55208 162.31 4.85156 162.102 5.08594C 161.893 5.32031 161.591 5.4375 161.195 5.4375L 161.188 5.4375C 160.885 5.4375 160.638 5.33594 160.445 5.13281C 160.258 4.92969 160.164 4.67448 160.164 4.36719ZM 165.789 15.0156L 165.789 8.46875L 164.672 8.15625L 164.672 7.21875L 166.984 6.90625L 167.023 6.90625L 167.391 7.21094L 167.391 7.84375L 167.383 8.20312C 167.622 7.98958 167.922 7.78385 168.281 7.58594C 168.646 7.38802 169.034 7.22656 169.445 7.10156C 169.862 6.97656 170.255 6.91406 170.625 6.91406C 171.302 6.91406 171.826 7.04167 172.195 7.29688C 172.565 7.54688 172.823 7.9349 172.969 8.46094C 173.115 8.98698 173.188 9.70052 173.188 10.6016L 173.188 15.0156L 174.312 15.1484L 174.312 16L 170.391 16L 170.391 15.1484L 171.391 15.0156L 171.391 10.5938C 171.391 9.98958 171.349 9.51562 171.266 9.17188C 171.188 8.82292 171.036 8.5625 170.812 8.39062C 170.589 8.21354 170.258 8.125 169.82 8.125C 169.445 8.125 169.055 8.20573 168.648 8.36719C 168.242 8.52865 167.885 8.72396 167.578 8.95312L 167.578 15.0156L 168.656 15.1484L 168.656 16L 164.766 16L 164.766 15.1484L 165.789 15.0156ZM 176.75 13.4609L 177.062 14.6484C 177.125 14.7578 177.245 14.862 177.422 14.9609C 177.604 15.0599 177.818 15.1406 178.062 15.2031C 178.307 15.2656 178.557 15.2969 178.812 15.2969C 179.401 15.2969 179.82 15.1875 180.07 14.9688C 180.32 14.7448 180.445 14.4401 180.445 14.0547C 180.445 13.7839 180.359 13.5469 180.188 13.3438C 180.021 13.1354 179.771 12.9401 179.438 12.7578C 179.104 12.5755 178.651 12.3698 178.078 12.1406C 177.25 11.8177 176.646 11.4375 176.266 11C 175.885 10.5573 175.695 9.98698 175.695 9.28906C 175.695 8.82031 175.836 8.40885 176.117 8.05469C 176.404 7.69531 176.794 7.41667 177.289 7.21875C 177.784 7.02083 178.341 6.92188 178.961 6.92188C 179.44 6.92188 179.862 6.96094 180.227 7.03906C 180.591 7.11198 180.958 7.20833 181.328 7.32812L 181.609 7.41406L 181.609 9.39062L 180.609 9.39062L 180.273 8.29688C 180.211 8.16146 180.042 8.04427 179.766 7.94531C 179.495 7.84635 179.19 7.79688 178.852 7.79688C 178.372 7.79688 178.003 7.89844 177.742 8.10156C 177.482 8.30469 177.352 8.57031 177.352 8.89844C 177.352 9.1901 177.427 9.4349 177.578 9.63281C 177.734 9.83073 177.927 9.99219 178.156 10.1172C 178.385 10.2422 178.706 10.3906 179.117 10.5625L 179.422 10.6953C 180.016 10.9505 180.497 11.1901 180.867 11.4141C 181.237 11.638 181.544 11.9245 181.789 12.2734C 182.034 12.6224 182.156 13.0495 182.156 13.5547C 182.156 14.0755 182.018 14.5339 181.742 14.9297C 181.471 15.3255 181.076 15.6328 180.555 15.8516C 180.039 16.0703 179.427 16.1797 178.719 16.1797C 178.188 16.1797 177.63 16.1068 177.047 15.9609C 176.464 15.8151 175.997 15.6641 175.648 15.5078L 175.648 13.4609L 176.75 13.4609ZM 192.539 6.875C 193.445 6.875 194.201 7.07552 194.805 7.47656C 195.409 7.8776 195.857 8.42969 196.148 9.13281C 196.44 9.83073 196.586 10.6302 196.586 11.5312C 196.586 12.4948 196.385 13.3281 195.984 14.0312C 195.589 14.7344 195.065 15.2682 194.414 15.6328C 193.768 15.9974 193.078 16.1797 192.344 16.1797C 191.438 16.1797 190.682 15.9792 190.078 15.5781C 189.479 15.1771 189.034 14.6276 188.742 13.9297C 188.451 13.2266 188.305 12.4245 188.305 11.5234C 188.305 10.5703 188.503 9.74219 188.898 9.03906C 189.299 8.33594 189.823 7.79948 190.469 7.42969C 191.12 7.0599 191.81 6.875 192.539 6.875ZM 194.609 11.6719C 194.609 10.5 194.435 9.57031 194.086 8.88281C 193.742 8.1901 193.195 7.84375 192.445 7.84375C 191.727 7.84375 191.185 8.14062 190.82 8.73438C 190.456 9.32292 190.273 10.2057 190.273 11.3828C 190.273 12.5547 190.448 13.487 190.797 14.1797C 191.151 14.8672 191.701 15.2109 192.445 15.2109C 193.888 15.2109 194.609 14.0312 194.609 11.6719ZM 199.023 15.0156L 199.023 8.46875L 197.906 8.15625L 197.906 7.21875L 200.219 6.90625L 200.258 6.90625L 200.625 7.21094L 200.625 7.84375L 200.617 8.20312C 200.857 7.98958 201.156 7.78385 201.516 7.58594C 201.88 7.38802 202.268 7.22656 202.68 7.10156C 203.096 6.97656 203.49 6.91406 203.859 6.91406C 204.536 6.91406 205.06 7.04167 205.43 7.29688C 205.799 7.54688 206.057 7.9349 206.203 8.46094C 206.349 8.98698 206.422 9.70052 206.422 10.6016L 206.422 15.0156L 207.547 15.1484L 207.547 16L 203.625 16L 203.625 15.1484L 204.625 15.0156L 204.625 10.5938C 204.625 9.98958 204.583 9.51562 204.5 9.17188C 204.422 8.82292 204.271 8.5625 204.047 8.39062C 203.823 8.21354 203.492 8.125 203.055 8.125C 202.68 8.125 202.289 8.20573 201.883 8.36719C 201.477 8.52865 201.12 8.72396 200.812 8.95312L 200.812 15.0156L 201.891 15.1484L 201.891 16L 198 16L 198 15.1484L 199.023 15.0156ZM 208.617 11.5391C 208.617 10.6224 208.797 9.8099 209.156 9.10156C 209.516 8.39323 210.013 7.84635 210.648 7.46094C 211.284 7.07031 212.005 6.875 212.812 6.875C 213.812 6.875 214.586 7.14844 215.133 7.69531C 215.68 8.24219 215.971 9.03125 216.008 10.0625L 216.008 10.3438C 216.008 10.8906 215.977 11.3073 215.914 11.5938L 210.5 11.5938C 210.521 12.3594 210.651 12.9948 210.891 13.5C 211.13 14.0052 211.445 14.3776 211.836 14.6172C 212.227 14.8568 212.667 14.9766 213.156 14.9766C 213.583 14.9766 214.021 14.9036 214.469 14.7578C 214.922 14.6068 215.276 14.4349 215.531 14.2422L 215.859 14.9922C 215.661 15.1953 215.388 15.388 215.039 15.5703C 214.695 15.7526 214.31 15.8984 213.883 16.0078C 213.461 16.1224 213.042 16.1797 212.625 16.1797C 211.75 16.1797 211.01 15.987 210.406 15.6016C 209.807 15.2109 209.359 14.6693 209.062 13.9766C 208.766 13.2786 208.617 12.4661 208.617 11.5391ZM 214.133 10.6875C 214.154 10.5 214.164 10.276 214.164 10.0156C 214.159 9.35417 214.021 8.82292 213.75 8.42188C 213.479 8.02083 213.052 7.82031 212.469 7.82031C 211.885 7.82031 211.422 8.03906 211.078 8.47656C 210.74 8.90885 210.547 9.64583 210.5 10.6875L 214.133 10.6875ZM 261.836 15.0938C 261.836 14.8646 261.896 14.6562 262.016 14.4688C 262.141 14.276 262.302 14.125 262.5 14.0156C 262.698 13.9062 262.906 13.8516 263.125 13.8516C 263.484 13.8516 263.758 13.9531 263.945 14.1562C 264.138 14.3594 264.234 14.612 264.234 14.9141C 264.234 15.1589 264.174 15.3776 264.055 15.5703C 263.94 15.7578 263.781 15.901 263.578 16C 263.38 16.1042 263.164 16.1562 262.93 16.1562C 262.737 16.1562 262.557 16.112 262.391 16.0234C 262.224 15.9349 262.089 15.8099 261.984 15.6484C 261.885 15.487 261.836 15.3021 261.836 15.0938Z"/>
<path id="path7_stroke" d="M 0 0L 108 0L 108 -0.5L 0 -0.5L 0 0Z"/>
<path id="path8_fill" d="M 0 0L 15.4506 0L 15.4506 8.24548L 0 8.24548L 0 0Z"/>
<path id="path9_stroke_2x" d="M 0 0L 0 -0.5L -0.5 -0.5L -0.5 0L 0 0ZM 15.4506 0L 15.9506 0L 15.9506 -0.5L 15.4506 -0.5L 15.4506 0ZM 15.4506 8.24548L 15.4506 8.74548L 15.9506 8.74548L 15.9506 8.24548L 15.4506 8.24548ZM 0 8.24548L -0.5 8.24548L -0.5 8.74548L 0 8.74548L 0 8.24548ZM 0 0.5L 15.4506 0.5L 15.4506 -0.5L 0 -0.5L 0 0.5ZM 14.9506 0L 14.9506 8.24548L 15.9506 8.24548L 15.9506 0L 14.9506 0ZM 15.4506 7.74548L 0 7.74548L 0 8.74548L 15.4506 8.74548L 15.4506 7.74548ZM 0.5 8.24548L 0.5 0L -0.5 0L -0.5 8.24548L 0.5 8.24548Z"/>
<path id="path10_stroke" d="M 0 0L 45 0L 45 -1L 0 -1L 0 0Z"/>
<path id="path11_stroke" d="M 0 0L 72 0L 72 -1L 0 -1L 0 0Z"/>
<path id="path12_fill" d="M 0.239258 13.4531C 1.68848 12.7376 2.86198 11.9652 3.75977 11.1357C 4.66211 10.3018 5.11328 9.46777 5.11328 8.63379C 5.11328 8.09603 4.99707 7.69043 4.76465 7.41699C 4.53678 7.139 4.16309 7 3.64355 7C 3.22884 7 2.83919 7.09798 2.47461 7.29395C 2.11458 7.48991 1.75684 7.736 1.40137 8.03223L 1.03223 7.41016C 1.37402 7.05469 1.81608 6.74023 2.3584 6.4668C 2.90527 6.19336 3.50911 6.05664 4.16992 6.05664C 5.82878 6.05664 6.6582 6.82682 6.6582 8.36719C 6.6582 9.23763 6.2207 10.0944 5.3457 10.9375C 4.4707 11.776 3.361 12.5326 2.0166 13.207L 5.74219 12.8789L 6.40527 11.8535L 7.10938 12.0996L 6.5625 14L 0.362305 14L 0.239258 13.4531ZM 10.1719 13.2275L 10.9238 7.74512C 10.377 7.88184 9.80729 8.00033 9.21484 8.10059L 9.1123 7.4375C 9.5498 7.3418 10.0283 7.16178 10.5479 6.89746C 11.0674 6.63314 11.5413 6.35286 11.9697 6.05664L 12.5713 6.2002L 11.5869 13.2207L 13.043 13.3984L 12.9746 14L 8.74316 14L 8.81152 13.3984L 10.1719 13.2275ZM 18.1152 11.0537C 18.1152 10.3109 18.2747 9.55208 18.5938 8.77734C 18.9128 7.99805 19.3776 7.34863 19.9883 6.8291C 20.6035 6.30957 21.3281 6.0498 22.1621 6.0498C 22.4128 6.0498 22.6794 6.08171 22.9619 6.14551C 23.2445 6.20475 23.4814 6.28223 23.6729 6.37793L 23.2695 7.73828C 23.2513 7.72461 23.1989 7.68587 23.1123 7.62207C 22.6429 7.24382 22.2191 7.05469 21.8408 7.05469C 21.3896 7.05469 20.9932 7.2028 20.6514 7.49902C 20.3141 7.79525 20.0521 8.22819 19.8652 8.79785C 19.6784 9.36751 19.585 10.0534 19.585 10.8555C 19.585 11.6393 19.7057 12.2227 19.9473 12.6055C 20.1934 12.9837 20.5352 13.1729 20.9727 13.1729C 21.2917 13.1729 21.5765 13.1159 21.8271 13.002C 22.0778 12.888 22.4036 12.6852 22.8047 12.3936L 23.0781 12.9541C 22.832 13.2458 22.4948 13.5169 22.0664 13.7676C 21.6426 14.0137 21.1436 14.1367 20.5693 14.1367C 20.0589 14.1367 19.6191 14.016 19.25 13.7744C 18.8809 13.5283 18.5983 13.1751 18.4023 12.7148C 18.2109 12.25 18.1152 11.6963 18.1152 11.0537ZM 28.1025 6.0498C 28.9821 6.0498 29.6566 6.33236 30.126 6.89746C 30.5999 7.46257 30.8369 8.25781 30.8369 9.2832C 30.8369 10.1081 30.6683 10.8942 30.3311 11.6416C 29.9938 12.389 29.5267 12.9928 28.9297 13.4531C 28.3372 13.9089 27.6719 14.1367 26.9336 14.1367C 26.054 14.1367 25.3796 13.8564 24.9102 13.2959C 24.4408 12.7308 24.2061 11.9355 24.2061 10.9102C 24.2061 10.0853 24.3747 9.29915 24.7119 8.55176C 25.0492 7.80436 25.514 7.20052 26.1064 6.74023C 26.7035 6.27995 27.3688 6.0498 28.1025 6.0498ZM 29.3672 9.33105C 29.3672 8.55176 29.2396 7.9502 28.9844 7.52637C 28.7292 7.10254 28.3532 6.89062 27.8564 6.89062C 27.3825 6.89062 26.9814 7.09115 26.6533 7.49219C 26.3252 7.88867 26.0791 8.38997 25.915 8.99609C 25.751 9.60221 25.6689 10.2152 25.6689 10.835C 25.6689 11.6279 25.7943 12.2386 26.0449 12.667C 26.2956 13.0908 26.6715 13.3027 27.1729 13.3027C 27.6468 13.3027 28.0501 13.1022 28.3828 12.7012C 28.7155 12.2956 28.9616 11.7874 29.1211 11.1768C 29.2852 10.5661 29.3672 9.95085 29.3672 9.33105ZM 33.708 3.86914L 32.8672 3.5752L 33.0107 3.00781L 34.8428 2.7207L 35.1709 2.90527L 33.7969 12.708C 33.7878 12.7581 33.7832 12.8265 33.7832 12.9131C 33.7832 13.0133 33.7969 13.0908 33.8242 13.1455C 33.8516 13.2002 33.8903 13.2275 33.9404 13.2275C 34.0225 13.2275 34.1182 13.1979 34.2275 13.1387C 34.3415 13.0749 34.4896 12.9564 34.6719 12.7832L 34.8838 13.1455C 34.8291 13.2367 34.7197 13.362 34.5557 13.5215C 34.3916 13.681 34.1911 13.8245 33.9541 13.9521C 33.7217 14.0752 33.4801 14.1367 33.2295 14.1367C 32.9469 14.1367 32.7396 14.0661 32.6074 13.9248C 32.4798 13.779 32.416 13.542 32.416 13.2139C 32.416 13.0316 32.4297 12.8561 32.457 12.6875L 33.708 3.86914ZM 37.3174 7.41699L 36.6338 7.00684L 36.7568 6.39844L 38.459 6.0498L 38.7871 6.21387L 38.3154 9.97363C 38.3018 10.083 38.2881 10.181 38.2744 10.2676C 38.2653 10.3542 38.2562 10.4339 38.2471 10.5068C 38.1969 10.8623 38.1605 11.1494 38.1377 11.3682C 38.1195 11.5869 38.1104 11.8125 38.1104 12.0449C 38.1104 12.487 38.1901 12.79 38.3496 12.9541C 38.5091 13.1136 38.7507 13.1934 39.0742 13.1934C 39.375 13.1934 39.6849 13.0885 40.0039 12.8789C 40.3229 12.6693 40.6009 12.4095 40.8379 12.0996L 41.6309 6.10449L 42.9912 6.10449L 42.1367 12.6943C 42.123 12.7809 42.1162 12.8584 42.1162 12.9268C 42.1162 13.1182 42.1732 13.2139 42.2871 13.2139C 42.3646 13.2139 42.4557 13.182 42.5605 13.1182C 42.6699 13.0544 42.8203 12.9359 43.0117 12.7627L 43.2236 13.1318C 43.1644 13.223 43.0482 13.3483 42.875 13.5078C 42.7064 13.6673 42.5013 13.8109 42.2598 13.9385C 42.0182 14.0615 41.7721 14.123 41.5215 14.123C 41.2663 14.123 41.0703 14.057 40.9336 13.9248C 40.7969 13.7926 40.7285 13.6081 40.7285 13.3711C 40.7285 13.2891 40.7399 13.1865 40.7627 13.0635L 40.7559 13.002C 40.1042 13.7585 39.3477 14.1367 38.4863 14.1367C 37.9258 14.1367 37.4928 13.9932 37.1875 13.7061C 36.8822 13.4189 36.7295 12.9382 36.7295 12.2637C 36.7295 11.9993 36.7477 11.6917 36.7842 11.3408C 36.8252 10.9899 36.8867 10.516 36.9688 9.91895L 37.3174 7.41699ZM 49.6357 10.9717C 49.8226 9.82324 49.916 8.89811 49.916 8.19629C 49.916 7.88184 49.8887 7.64941 49.834 7.49902C 49.7793 7.34863 49.7018 7.25293 49.6016 7.21191C 49.5013 7.16634 49.36 7.14355 49.1777 7.14355C 48.8405 7.14355 48.4554 7.30078 48.0225 7.61523C 47.5941 7.92969 47.209 8.32845 46.8672 8.81152L 46.1631 14L 44.7959 14L 45.6846 7.41699L 45.0078 7.01367L 45.1309 6.40527L 46.8193 6.0498L 47.1475 6.21387L 47.0176 7.66309C 47.4049 7.18457 47.8424 6.7972 48.3301 6.50098C 48.8177 6.2002 49.3053 6.0498 49.793 6.0498C 50.2487 6.0498 50.6042 6.18197 50.8594 6.44629C 51.1146 6.70605 51.2627 7.139 51.3037 7.74512C 51.6729 7.24382 52.0944 6.83594 52.5684 6.52148C 53.0469 6.20703 53.5277 6.0498 54.0107 6.0498C 54.4893 6.0498 54.8675 6.21842 55.1455 6.55566C 55.4281 6.8929 55.5693 7.41243 55.5693 8.11426C 55.5693 8.35579 55.5488 8.62923 55.5078 8.93457C 55.4668 9.23535 55.4053 9.63867 55.3232 10.1445C 55.305 10.2357 55.2822 10.3678 55.2549 10.541C 55.1729 11.0423 55.109 11.4525 55.0635 11.7715C 55.0225 12.0859 54.9906 12.4004 54.9678 12.7148L 54.9609 12.8652C 54.9609 13.1068 55.0111 13.2275 55.1113 13.2275C 55.1934 13.2275 55.2868 13.1979 55.3916 13.1387C 55.501 13.0749 55.6536 12.9564 55.8496 12.7832L 56.0615 13.1455C 55.9977 13.2458 55.8838 13.3734 55.7197 13.5283C 55.5557 13.6833 55.3551 13.8245 55.1182 13.9521C 54.8857 14.0752 54.6419 14.1367 54.3867 14.1367C 54.0951 14.1367 53.8786 14.0661 53.7373 13.9248C 53.6006 13.779 53.5391 13.5511 53.5527 13.2412C 53.5664 12.945 53.596 12.6237 53.6416 12.2773C 53.6872 11.931 53.7533 11.4798 53.8398 10.9238L 53.8945 10.5889C 53.9811 10.0876 54.0472 9.64779 54.0928 9.26953C 54.1429 8.88672 54.168 8.53125 54.168 8.20312C 54.168 7.89779 54.1383 7.66992 54.0791 7.51953C 54.0199 7.36458 53.9424 7.2666 53.8467 7.22559C 53.751 7.18001 53.6279 7.15723 53.4775 7.15723C 53.154 7.15723 52.7939 7.3099 52.3975 7.61523C 52.001 7.92057 51.6318 8.31022 51.29 8.78418C 51.2445 9.3265 51.1738 9.91439 51.0781 10.5479L 50.6406 14L 49.2529 14L 49.6357 10.9717ZM 57.9072 7.01367L 58.0303 6.40527L 59.7188 6.0498L 60.0469 6.21387L 59.9102 7.66309C 60.2975 7.18457 60.735 6.7972 61.2227 6.50098C 61.7148 6.2002 62.2048 6.0498 62.6924 6.0498C 63.1937 6.0498 63.5765 6.20931 63.8408 6.52832C 64.1097 6.84733 64.2441 7.37598 64.2441 8.11426C 64.2441 8.36035 64.2191 8.6429 64.1689 8.96191C 64.1234 9.27637 64.0573 9.66602 63.9707 10.1309C 63.9297 10.3405 63.9046 10.4795 63.8955 10.5479C 63.8044 11.0628 63.7337 11.4775 63.6836 11.792C 63.638 12.1064 63.6084 12.4163 63.5947 12.7217C 63.5902 12.7581 63.5879 12.8105 63.5879 12.8789C 63.5879 12.9974 63.5993 13.0863 63.6221 13.1455C 63.6449 13.2048 63.6836 13.2344 63.7383 13.2344C 63.875 13.2344 64.0732 13.1296 64.333 12.9199L 64.5449 13.2822C 64.4993 13.3597 64.3968 13.4691 64.2373 13.6104C 64.0824 13.7471 63.8932 13.8701 63.6699 13.9795C 63.4512 14.0889 63.2233 14.1436 62.9863 14.1436C 62.6855 14.1436 62.4622 14.0706 62.3164 13.9248C 62.1706 13.779 62.1068 13.5465 62.125 13.2275C 62.1387 12.9769 62.1683 12.6966 62.2139 12.3867C 62.264 12.0768 62.3324 11.6849 62.4189 11.2109L 62.46 10.9717C 62.4645 10.9398 62.4896 10.8053 62.5352 10.5684C 62.6354 10.026 62.7106 9.57487 62.7607 9.21484C 62.8154 8.85026 62.8428 8.51074 62.8428 8.19629C 62.8428 7.88184 62.8109 7.64941 62.7471 7.49902C 62.6878 7.34863 62.6058 7.25293 62.501 7.21191C 62.4007 7.16634 62.2572 7.14355 62.0703 7.14355C 61.7331 7.14355 61.348 7.30078 60.915 7.61523C 60.4867 7.92969 60.1016 8.32845 59.7598 8.81152L 59.0557 14L 57.6885 14L 58.5771 7.41699L 57.9072 7.01367ZM 65.9189 12.6875C 66.1058 12.8151 66.3656 12.9336 66.6982 13.043C 67.0309 13.1523 67.3818 13.207 67.751 13.207C 68.1383 13.207 68.4596 13.1432 68.7148 13.0156C 68.9701 12.888 69.0977 12.626 69.0977 12.2295C 69.0977 11.9971 69.043 11.7852 68.9336 11.5938C 68.8242 11.3978 68.6875 11.2269 68.5234 11.0811C 68.3639 10.9352 68.1543 10.7666 67.8945 10.5752C 67.5299 10.3063 67.1995 9.97591 66.9033 9.58398C 66.6117 9.19206 66.4658 8.75456 66.4658 8.27148C 66.4658 7.83398 66.5866 7.44661 66.8281 7.10938C 67.0742 6.77214 67.4001 6.51237 67.8057 6.33008C 68.2113 6.14323 68.651 6.0498 69.125 6.0498C 69.4668 6.0498 69.8109 6.07715 70.1572 6.13184C 70.5081 6.18652 70.7474 6.24349 70.875 6.30273L 70.6152 7.45801C 70.5833 7.40788 70.4945 7.3418 70.3486 7.25977C 70.2028 7.17318 70.0182 7.09798 69.7949 7.03418C 69.5716 6.97038 69.3301 6.93848 69.0703 6.93848C 68.7376 6.93848 68.4528 7.00911 68.2158 7.15039C 67.9788 7.28711 67.8421 7.52181 67.8057 7.85449C 67.8011 7.88639 67.7988 7.93424 67.7988 7.99805C 67.7988 8.28971 67.8968 8.56315 68.0928 8.81836C 68.2887 9.06901 68.5553 9.32422 68.8926 9.58398C 69.207 9.83008 69.4668 10.0557 69.6719 10.2607C 69.877 10.4658 70.0524 10.7119 70.1982 10.999C 70.3441 11.2816 70.417 11.6006 70.417 11.9561C 70.417 12.4118 70.2917 12.806 70.041 13.1387C 69.7949 13.4668 69.4622 13.7152 69.043 13.8838C 68.6283 14.0524 68.1748 14.1367 67.6826 14.1367C 67.2725 14.1367 66.8646 14.0957 66.459 14.0137C 66.0534 13.9316 65.7891 13.8382 65.666 13.7334L 65.9189 12.6875Z"/>
<path id="path13_fill" d="M 2.17383 13.2275L 2.92578 7.74512C 2.37891 7.88184 1.80924 8.00033 1.2168 8.10059L 1.11426 7.4375C 1.55176 7.3418 2.03027 7.16178 2.5498 6.89746C 3.06934 6.63314 3.54329 6.35286 3.97168 6.05664L 4.57324 6.2002L 3.58887 13.2207L 5.04492 13.3984L 4.97656 14L 0.745117 14L 0.813477 13.3984L 2.17383 13.2275ZM 8.50391 7.21191L 7.91602 8.46973L 7.01367 8.44238L 7.43066 6.16602L 13.542 6.16602L 13.7607 6.45996L 9.64551 16.2012L 8.19629 15.7432L 12.6738 7.21191L 8.50391 7.21191ZM 14.9229 15.4424C 15.529 15.4424 16.1009 15.3398 16.6387 15.1348C 17.181 14.9342 17.6162 14.6426 17.9443 14.2598C 18.277 13.877 18.4434 13.4303 18.4434 12.9199C 18.4434 12.3822 18.2861 11.972 17.9717 11.6895C 17.6618 11.4023 17.1696 11.2565 16.4951 11.252L 15.5312 11.4844L 15.6406 10.6777C 16.1055 10.582 16.5589 10.4271 17.001 10.2129C 17.4476 9.9987 17.819 9.72526 18.1152 9.39258C 18.416 9.0599 18.5664 8.67936 18.5664 8.25098C 18.5664 7.82259 18.4411 7.5127 18.1904 7.32129C 17.9443 7.12533 17.6276 7.02734 17.2402 7.02734C 16.8255 7.02734 16.445 7.10254 16.0986 7.25293C 15.7568 7.40332 15.4014 7.61296 15.0322 7.88184L 14.7383 7.19141C 14.9115 7.02279 15.1507 6.85189 15.4561 6.67871C 15.766 6.50098 16.1283 6.35286 16.543 6.23438C 16.9622 6.11589 17.3997 6.05664 17.8555 6.05664C 18.2611 6.05664 18.6325 6.12728 18.9697 6.26855C 19.3115 6.40527 19.585 6.61719 19.79 6.9043C 19.9951 7.19141 20.0977 7.54915 20.0977 7.97754C 20.0977 8.37402 19.9792 8.75456 19.7422 9.11914C 19.5052 9.47917 19.193 9.79818 18.8057 10.0762C 18.4229 10.3542 18.015 10.5684 17.582 10.7188L 17.7939 10.7119C 18.5915 10.7119 19.1589 10.8919 19.4961 11.252C 19.8379 11.6074 20.0088 12.0837 20.0088 12.6807C 20.0088 13.3551 19.7673 13.9658 19.2842 14.5127C 18.8057 15.0596 18.1813 15.4857 17.4111 15.791C 16.6455 16.0964 15.8571 16.249 15.0459 16.249C 14.7451 16.249 14.3737 16.2194 13.9316 16.1602L 14.0342 15.3672C 14.3851 15.4173 14.6813 15.4424 14.9229 15.4424ZM 25.5186 7.01367L 25.6416 6.40527L 27.3232 6.0498L 27.6514 6.21387L 27.5078 7.7793C 27.6217 7.55143 27.7926 7.30534 28.0205 7.04102C 28.2484 6.77214 28.5309 6.54199 28.8682 6.35059C 29.21 6.15462 29.5791 6.05664 29.9756 6.05664C 30.1943 6.05664 30.3333 6.08626 30.3926 6.14551L 30.085 7.6084C 29.9574 7.54004 29.7227 7.50586 29.3809 7.50586C 29.0072 7.50586 28.6335 7.63118 28.2598 7.88184C 27.8906 8.13249 27.5876 8.53125 27.3506 9.07812L 26.7354 14L 25.3682 14L 26.2021 7.42383L 25.5186 7.01367ZM 34.665 6.0498C 35.5446 6.0498 36.2191 6.33236 36.6885 6.89746C 37.1624 7.46257 37.3994 8.25781 37.3994 9.2832C 37.3994 10.1081 37.2308 10.8942 36.8936 11.6416C 36.5563 12.389 36.0892 12.9928 35.4922 13.4531C 34.8997 13.9089 34.2344 14.1367 33.4961 14.1367C 32.6165 14.1367 31.9421 13.8564 31.4727 13.2959C 31.0033 12.7308 30.7686 11.9355 30.7686 10.9102C 30.7686 10.0853 30.9372 9.29915 31.2744 8.55176C 31.6117 7.80436 32.0765 7.20052 32.6689 6.74023C 33.266 6.27995 33.9313 6.0498 34.665 6.0498ZM 35.9297 9.33105C 35.9297 8.55176 35.8021 7.9502 35.5469 7.52637C 35.2917 7.10254 34.9157 6.89062 34.4189 6.89062C 33.945 6.89062 33.5439 7.09115 33.2158 7.49219C 32.8877 7.88867 32.6416 8.38997 32.4775 8.99609C 32.3135 9.60221 32.2314 10.2152 32.2314 10.835C 32.2314 11.6279 32.3568 12.2386 32.6074 12.667C 32.8581 13.0908 33.234 13.3027 33.7354 13.3027C 34.2093 13.3027 34.6126 13.1022 34.9453 12.7012C 35.278 12.2956 35.5241 11.7874 35.6836 11.1768C 35.8477 10.5661 35.9297 9.95085 35.9297 9.33105ZM 44.6729 14.1299L 44.4062 11.5732L 44.1807 8.99609L 44.126 8.02539L 43.7979 9.00293L 42.4922 11.7715L 41.3574 14.0547L 40.1816 14.1367L 39.7715 11.5732L 39.1768 7.41699C 39.1266 7.16178 39.0332 7.03418 38.8965 7.03418C 38.7689 7.02962 38.6276 7.07975 38.4727 7.18457L 38.2676 6.76758C 38.3177 6.69466 38.4089 6.60352 38.541 6.49414C 38.6777 6.38021 38.8418 6.27767 39.0332 6.18652C 39.2292 6.09538 39.4342 6.0498 39.6484 6.0498C 39.8763 6.0498 40.0563 6.08626 40.1885 6.15918C 40.3206 6.22754 40.4141 6.3278 40.4688 6.45996C 40.528 6.59212 40.569 6.76758 40.5918 6.98633L 40.9541 11.6484L 41.0361 12.9199L 41.5625 11.7441L 43.9346 6.10449L 45.1582 6.10449L 45.5957 11.6553L 45.7051 12.9199L 46.4434 11.792C 46.5846 11.5778 46.7646 11.2497 46.9834 10.8076C 47.2021 10.3656 47.4027 9.88021 47.585 9.35156C 47.7673 8.82292 47.8721 8.33301 47.8994 7.88184C 47.904 7.76335 47.8971 7.64941 47.8789 7.54004C 47.8607 7.43066 47.8311 7.31445 47.79 7.19141C 47.7673 7.12305 47.7467 7.05469 47.7285 6.98633C 47.7148 6.91341 47.708 6.84961 47.708 6.79492C 47.708 6.54883 47.7673 6.36426 47.8857 6.24121C 48.0088 6.11361 48.1706 6.0498 48.3711 6.0498C 48.6764 6.0498 48.8952 6.16602 49.0273 6.39844C 49.1641 6.63086 49.2324 6.99316 49.2324 7.48535C 49.2324 8.0459 49.0501 8.70443 48.6855 9.46094C 48.3255 10.2129 47.8789 11.0081 47.3457 11.8467L 45.958 14.0547L 44.6729 14.1299ZM 50.1826 12.6875C 50.3695 12.8151 50.6292 12.9336 50.9619 13.043C 51.2946 13.1523 51.6455 13.207 52.0146 13.207C 52.402 13.207 52.7233 13.1432 52.9785 13.0156C 53.2337 12.888 53.3613 12.626 53.3613 12.2295C 53.3613 11.9971 53.3066 11.7852 53.1973 11.5938C 53.0879 11.3978 52.9512 11.2269 52.7871 11.0811C 52.6276 10.9352 52.418 10.7666 52.1582 10.5752C 51.7936 10.3063 51.4632 9.97591 51.167 9.58398C 50.8753 9.19206 50.7295 8.75456 50.7295 8.27148C 50.7295 7.83398 50.8503 7.44661 51.0918 7.10938C 51.3379 6.77214 51.6637 6.51237 52.0693 6.33008C 52.4749 6.14323 52.9147 6.0498 53.3887 6.0498C 53.7305 6.0498 54.0745 6.07715 54.4209 6.13184C 54.7718 6.18652 55.0111 6.24349 55.1387 6.30273L 54.8789 7.45801C 54.847 7.40788 54.7581 7.3418 54.6123 7.25977C 54.4665 7.17318 54.2819 7.09798 54.0586 7.03418C 53.8353 6.97038 53.5938 6.93848 53.334 6.93848C 53.0013 6.93848 52.7165 7.00911 52.4795 7.15039C 52.2425 7.28711 52.1058 7.52181 52.0693 7.85449C 52.0648 7.88639 52.0625 7.93424 52.0625 7.99805C 52.0625 8.28971 52.1605 8.56315 52.3564 8.81836C 52.5524 9.06901 52.819 9.32422 53.1562 9.58398C 53.4707 9.83008 53.7305 10.0557 53.9355 10.2607C 54.1406 10.4658 54.3161 10.7119 54.4619 10.999C 54.6077 11.2816 54.6807 11.6006 54.6807 11.9561C 54.6807 12.4118 54.5553 12.806 54.3047 13.1387C 54.0586 13.4668 53.7259 13.7152 53.3066 13.8838C 52.8919 14.0524 52.4385 14.1367 51.9463 14.1367C 51.5361 14.1367 51.1283 14.0957 50.7227 14.0137C 50.3171 13.9316 50.0527 13.8382 49.9297 13.7334L 50.1826 12.6875Z"/>
</defs>
</svg>

