<svg width="740" height="406" viewBox="0 0 740 406" version="1.1" xmlns="http://www.w3.org/2000/svg" xmlns:xlink="http://www.w3.org/1999/xlink">
<title>Frame</title>
<desc>Created using Figma</desc>
<g id="Canvas" transform="matrix(2 0 0 2 50 1700)">
<clipPath id="clip-0" clip-rule="evenodd">
<path d="M -25 -850L 345 -850L 345 -647L -25 -647L -25 -850Z" fill="#FFFFFF"/>
</clipPath>
<g id="Frame" clip-path="url(#clip-0)">
<path d="M -25 -850L 345 -850L 345 -647L -25 -647L -25 -850Z" fill="#FFFFFF"/>
<g id="row 2">
<g id="code">
<g id="Rectangle">
<use xlink:href="#path0_fill" transform="translate(155 -712)" fill="#F1F4F8"/>
</g>
<g id="df.loc[&#34;y&#34;]">
<use xlink:href="#path1_fill" transform="translate(166 -711)" fill="#2E383C"/>
<use xlink:href="#path2_fill" transform="translate(166 -711)" fill="#B82629"/>
</g>
</g>
<g id="table">
<g id="Rectangle">
<use xlink:href="#path3_stroke" transform="translate(30 -728)"/>
</g>
<g id="Rectangle">
<use xlink:href="#path3_stroke" transform="translate(30 -706.375)"/>
</g>
<g id="Rectangle">
<use xlink:href="#path3_stroke" transform="translate(30 -684.75)"/>
</g>
<g id="Rectangle">
<use xlink:href="#path3_stroke" transform="translate(52 -728)"/>
</g>
<g id="Rectangle">
<use xlink:href="#path3_stroke" transform="translate(52 -706.375)"/>
</g>
<g id="Rectangle">
<use xlink:href="#path3_stroke" transform="translate(52 -684.75)"/>
</g>
<g id="Rectangle">
<use xlink:href="#path3_stroke" transform="translate(74 -728)"/>
</g>
<g id="Rectangle">
<use xlink:href="#path3_stroke" transform="translate(74 -706.375)"/>
</g>
<g id="Rectangle">
<use xlink:href="#path3_stroke" transform="translate(74 -684.75)"/>
</g>
<g id="Rectangle">
<use xlink:href="#path4_fill" transform="translate(30 -706)" fill="#56CCF2" fill-opacity="0.6"/>
<use xlink:href="#path5_stroke" transform="translate(30 -706)" fill="#56CCF2"/>
</g>
<g id="x">
<use xlink:href="#path6_fill" transform="translate(20 -724)" fill="#828282"/>
</g>
<g id="y">
<use xlink:href="#path7_fill" transform="translate(20 -702)" fill="#828282"/>
</g>
<g id="z">
<use xlink:href="#path8_fill" transform="translate(20 -680)" fill="#828282"/>
</g>
<g id="B">
<use xlink:href="#path9_fill" transform="translate(59 -743)" fill="#828282"/>
</g>
<g id="A">
<use xlink:href="#path10_fill" transform="translate(37 -743)" fill="#828282"/>
</g>
<g id="C">
<use xlink:href="#path11_fill" transform="translate(81 -743)" fill="#828282"/>
</g>
</g>
</g>
<g id="row 1">
<g id="code">
<g id="Rectangle">
<use xlink:href="#path0_fill" transform="translate(155 -811)" fill="#F1F4F8"/>
</g>
<g id="df.loc[&#34;z&#34;,&#34;A&#34;]">
<use xlink:href="#path12_fill" transform="translate(166 -810)" fill="#2E383C"/>
<use xlink:href="#path13_fill" transform="translate(166 -810)" fill="#B82629"/>
</g>
</g>
<g id="table">
<g id="Rectangle">
<use xlink:href="#path3_stroke" transform="translate(30 -827)"/>
</g>
<g id="Rectangle">
<use xlink:href="#path3_stroke" transform="translate(30 -805.375)"/>
</g>
<g id="Rectangle">
<use xlink:href="#path3_stroke" transform="translate(30 -783.75)"/>
</g>
<g id="Rectangle">
<use xlink:href="#path3_stroke" transform="translate(52 -827)"/>
</g>
<g id="Rectangle">
<use xlink:href="#path3_stroke" transform="translate(52 -805.375)"/>
</g>
<g id="Rectangle">
<use xlink:href="#path3_stroke" transform="translate(52 -783.75)"/>
</g>
<g id="Rectangle">
<use xlink:href="#path3_stroke" transform="translate(74 -827)"/>
</g>
<g id="Rectangle">
<use xlink:href="#path3_stroke" transform="translate(74 -805.375)"/>
</g>
<g id="Rectangle">
<use xlink:href="#path3_stroke" transform="translate(74 -783.75)"/>
</g>
<g id="Rectangle">
<use xlink:href="#path14_fill" transform="translate(30 -784)" fill="#56CCF2" fill-opacity="0.6"/>
<use xlink:href="#path15_stroke" transform="translate(30 -784)" fill="#56CCF2"/>
</g>
<g id="x">
<use xlink:href="#path6_fill" transform="translate(20 -823)" fill="#828282"/>
</g>
<g id="y">
<use xlink:href="#path7_fill" transform="translate(20 -801)" fill="#828282"/>
</g>
<g id="z">
<use xlink:href="#path8_fill" transform="translate(20 -779)" fill="#828282"/>
</g>
<g id="B">
<use xlink:href="#path9_fill" transform="translate(59 -842)" fill="#828282"/>
</g>
<g id="A">
<use xlink:href="#path10_fill" transform="translate(37 -842)" fill="#828282"/>
</g>
<g id="C">
<use xlink:href="#path11_fill" transform="translate(81 -842)" fill="#828282"/>
</g>
</g>
</g>
<g id="located at row with label z, column with label A">
<use xlink:href="#path16_fill" transform="translate(150 -778)"/>
</g>
<g id="located at row with label y">
<use xlink:href="#path17_fill" transform="translate(155 -679)"/>
</g>
</g>
</g>
<defs>
<path id="path0_fill" d="M 0 0L 151 0L 151 32L 0 32L 0 0Z"/>
<path id="path1_fill" d="M 0.636 16.06C 0.636 15.58 0.708 15.148 0.852 14.764C 0.996 14.38 1.188 14.056 1.428 13.792C 1.676 13.528 1.956 13.324 2.268 13.18C 2.58 13.036 2.904 12.964 3.24 12.964C 3.592 12.964 3.892 13.028 4.14 13.156C 4.396 13.276 4.644 13.444 4.884 13.66L 4.824 12.664L 4.824 10.528L 6.216 10.528L 6.216 19L 5.076 19L 4.968 18.316L 4.932 18.316C 4.7 18.548 4.428 18.744 4.116 18.904C 3.812 19.064 3.492 19.144 3.156 19.144C 2.78 19.144 2.436 19.076 2.124 18.94C 1.812 18.796 1.544 18.592 1.32 18.328C 1.104 18.064 0.936 17.744 0.816 17.368C 0.696 16.984 0.636 16.548 0.636 16.06ZM 2.064 16.048C 2.064 16.688 2.188 17.176 2.436 17.512C 2.684 17.84 3.036 18.004 3.492 18.004C 3.98 18.004 4.424 17.768 4.824 17.296L 4.824 14.644C 4.616 14.444 4.408 14.304 4.2 14.224C 3.992 14.144 3.78 14.104 3.564 14.104C 3.356 14.104 3.16 14.148 2.976 14.236C 2.8 14.324 2.644 14.452 2.508 14.62C 2.372 14.78 2.264 14.98 2.184 15.22C 2.104 15.46 2.064 15.736 2.064 16.048ZM 13.8913 11.728C 13.6753 11.64 13.4633 11.576 13.2553 11.536C 13.0553 11.496 12.8353 11.476 12.5953 11.476C 12.1393 11.476 11.8073 11.588 11.5993 11.812C 11.3993 12.028 11.2993 12.344 11.2993 12.76L 11.2993 13.108L 13.5433 13.108L 13.5433 14.2L 11.2993 14.2L 11.2993 19L 9.93131 19L 9.93131 14.2L 8.29931 14.2L 8.29931 13.168L 9.93131 13.108L 9.93131 12.784C 9.93131 12.44 9.97931 12.12 10.0753 11.824C 10.1713 11.528 10.3193 11.276 10.5193 11.068C 10.7273 10.852 10.9873 10.684 11.2993 10.564C 11.6193 10.444 11.9953 10.384 12.4273 10.384C 12.7473 10.384 13.0513 10.412 13.3393 10.468C 13.6353 10.524 13.9153 10.604 14.1793 10.708L 13.8913 11.728ZM 16.8026 17.932C 16.8026 17.58 16.9146 17.292 17.1386 17.068C 17.3626 16.836 17.6466 16.72 17.9906 16.72C 18.3346 16.72 18.6186 16.836 18.8426 17.068C 19.0666 17.292 19.1786 17.58 19.1786 17.932C 19.1786 18.284 19.0666 18.576 18.8426 18.808C 18.6186 19.032 18.3346 19.144 17.9906 19.144C 17.6466 19.144 17.3626 19.032 17.1386 18.808C 16.9146 18.576 16.8026 18.284 16.8026 17.932ZM 22.4379 10.528L 25.6779 10.528L 25.6779 16.924C 25.6779 17.324 25.7779 17.608 25.9779 17.776C 26.1779 17.936 26.4299 18.016 26.7339 18.016C 27.0219 18.016 27.3579 17.94 27.7419 17.788L 28.0659 18.808C 27.7859 18.904 27.5219 18.984 27.2739 19.048C 27.0339 19.112 26.7419 19.144 26.3979 19.144C 25.7019 19.144 25.1779 18.944 24.8259 18.544C 24.4739 18.144 24.2979 17.58 24.2979 16.852L 24.2979 11.62L 22.4379 11.62L 22.4379 10.528ZM 29.4172 16.06C 29.4172 15.572 29.4972 15.136 29.6572 14.752C 29.8252 14.368 30.0452 14.044 30.3173 13.78C 30.5893 13.516 30.9053 13.316 31.2653 13.18C 31.6253 13.036 31.9973 12.964 32.3813 12.964C 32.7652 12.964 33.1372 13.036 33.4973 13.18C 33.8572 13.316 34.1732 13.516 34.4453 13.78C 34.7172 14.044 34.9332 14.368 35.0933 14.752C 35.2613 15.136 35.3452 15.572 35.3452 16.06C 35.3452 16.548 35.2613 16.984 35.0933 17.368C 34.9332 17.752 34.7172 18.076 34.4453 18.34C 34.1732 18.604 33.8572 18.804 33.4973 18.94C 33.1372 19.076 32.7652 19.144 32.3813 19.144C 31.9973 19.144 31.6253 19.076 31.2653 18.94C 30.9053 18.804 30.5893 18.604 30.3173 18.34C 30.0452 18.076 29.8252 17.752 29.6572 17.368C 29.4972 16.984 29.4172 16.548 29.4172 16.06ZM 30.8453 16.06C 30.8453 16.652 30.9813 17.128 31.2533 17.488C 31.5252 17.84 31.9013 18.016 32.3813 18.016C 32.8613 18.016 33.2373 17.84 33.5092 17.488C 33.7812 17.128 33.9173 16.652 33.9173 16.06C 33.9173 15.46 33.7812 14.984 33.5092 14.632C 33.2373 14.272 32.8613 14.092 32.3813 14.092C 31.9013 14.092 31.5252 14.272 31.2533 14.632C 30.9813 14.984 30.8453 15.46 30.8453 16.06ZM 36.8526 16.06C 36.8526 15.572 36.9406 15.136 37.1166 14.752C 37.3006 14.368 37.5446 14.044 37.8486 13.78C 38.1526 13.516 38.5086 13.316 38.9166 13.18C 39.3246 13.036 39.7526 12.964 40.2006 12.964C 40.6806 12.964 41.1006 13.044 41.4606 13.204C 41.8286 13.364 42.1366 13.56 42.3846 13.792L 41.7246 14.656C 41.4926 14.472 41.2566 14.332 41.0166 14.236C 40.7846 14.14 40.5366 14.092 40.2726 14.092C 39.6806 14.092 39.2006 14.272 38.8326 14.632C 38.4646 14.984 38.2806 15.46 38.2806 16.06C 38.2806 16.356 38.3286 16.624 38.4246 16.864C 38.5206 17.104 38.6526 17.312 38.8206 17.488C 38.9966 17.656 39.2046 17.788 39.4446 17.884C 39.6846 17.972 39.9486 18.016 40.2366 18.016C 40.5726 18.016 40.8766 17.952 41.1486 17.824C 41.4286 17.696 41.6846 17.544 41.9166 17.368L 42.4926 18.256C 42.1566 18.552 41.7806 18.776 41.3646 18.928C 40.9486 19.072 40.5286 19.144 40.1046 19.144C 39.6406 19.144 39.2086 19.076 38.8086 18.94C 38.4166 18.804 38.0726 18.604 37.7766 18.34C 37.4886 18.076 37.2606 17.752 37.0926 17.368C 36.9326 16.984 36.8526 16.548 36.8526 16.06ZM 45.7279 10.504L 49.1599 10.504L 49.1599 11.26L 46.7959 11.26L 46.7959 20.068L 49.1599 20.068L 49.1599 20.824L 45.7279 20.824L 45.7279 10.504ZM 75.5291 20.068L 75.5291 11.26L 73.1771 11.26L 73.1771 10.504L 76.6091 10.504L 76.6091 20.824L 73.1771 20.824L 73.1771 20.068L 75.5291 20.068Z"/>
<path id="path2_fill" d="M 51.6872 12.304L 51.6512 10.768L 53.3312 10.768L 53.2952 12.304L 52.9352 15.076L 52.0472 15.076L 51.6872 12.304ZM 54.6512 12.304L 54.6152 10.768L 56.2952 10.768L 56.2592 12.304L 55.8992 15.076L 55.0112 15.076L 54.6512 12.304ZM 58.6305 20.224C 58.7105 20.248 58.7905 20.268 58.8705 20.284C 58.9505 20.3 59.0345 20.308 59.1225 20.308C 59.4985 20.308 59.7985 20.212 60.0225 20.02C 60.2465 19.836 60.4185 19.596 60.5385 19.3L 60.6825 18.928L 58.0425 13.108L 59.4225 13.108L 60.6345 16C 60.7465 16.264 60.8545 16.544 60.9585 16.84C 61.0625 17.136 61.1705 17.432 61.2825 17.728L 61.3305 17.728C 61.4185 17.448 61.5145 17.16 61.6185 16.864C 61.7225 16.568 61.8225 16.28 61.9185 16L 62.9865 13.108L 64.2945 13.108L 61.8345 19.264C 61.7065 19.6 61.5625 19.9 61.4025 20.164C 61.2505 20.428 61.0705 20.652 60.8625 20.836C 60.6545 21.028 60.4145 21.172 60.1425 21.268C 59.8705 21.372 59.5585 21.424 59.2065 21.424C 59.0465 21.424 58.8945 21.412 58.7505 21.388C 58.6065 21.372 58.4785 21.344 58.3665 21.304L 58.6305 20.224ZM 66.0778 12.304L 66.0418 10.768L 67.7218 10.768L 67.6858 12.304L 67.3258 15.076L 66.4378 15.076L 66.0778 12.304ZM 69.0418 12.304L 69.0058 10.768L 70.6858 10.768L 70.6498 12.304L 70.2898 15.076L 69.4018 15.076L 69.0418 12.304Z"/>
<path id="path3_stroke" d="M 0 0L 0 -0.5L -0.5 -0.5L -0.5 0L 0 0ZM 22 0L 22.5 0L 22.5 -0.5L 22 -0.5L 22 0ZM 22 22L 22 22.5L 22.5 22.5L 22.5 22L 22 22ZM 0 22L -0.5 22L -0.5 22.5L 0 22.5L 0 22ZM 0 0.5L 22 0.5L 22 -0.5L 0 -0.5L 0 0.5ZM 21.5 0L 21.5 22L 22.5 22L 22.5 0L 21.5 0ZM 22 21.5L 0 21.5L 0 22.5L 22 22.5L 22 21.5ZM 0.5 22L 0.5 0L -0.5 0L -0.5 22L 0.5 22Z"/>
<path id="path4_fill" d="M 0 0L 66 0L 66 21L 0 21L 0 0Z"/>
<path id="path5_stroke" d="M 0 0L 0 -1L -1 -1L -1 0L 0 0ZM 66 0L 67 0L 67 -1L 66 -1L 66 0ZM 66 21L 66 22L 67 22L 67 21L 66 21ZM 0 21L -1 21L -1 22L 0 22L 0 21ZM 0 1L 66 1L 66 -1L 0 -1L 0 1ZM 65 0L 65 21L 67 21L 67 0L 65 0ZM 66 20L 0 20L 0 22L 66 22L 66 20ZM 1 21L 1 0L -1 0L -1 21L 1 21Z"/>
<path id="path6_fill" d="M 2.94727 6.97461L 4.35352 4.66016L 5.61914 4.66016L 3.54492 7.79492L 5.68359 11L 4.42969 11L 2.96484 8.62695L 1.5 11L 0.240234 11L 2.37891 7.79492L 0.304688 4.66016L 1.55859 4.66016L 2.94727 6.97461Z"/>
<path id="path7_fill" d="M 2.89453 9.41211L 4.37109 4.66016L 5.53125 4.66016L 2.98242 11.9785C 2.58789 13.0332 1.96094 13.5605 1.10156 13.5605L 0.896484 13.543L 0.492188 13.4668L 0.492188 12.5879L 0.785156 12.6113C 1.15234 12.6113 1.4375 12.5371 1.64062 12.3887C 1.84766 12.2402 2.01758 11.9688 2.15039 11.5742L 2.39062 10.9297L 0.128906 4.66016L 1.3125 4.66016L 2.89453 9.41211Z"/>
<path id="path8_fill" d="M 1.83984 10.1152L 5.54883 10.1152L 5.54883 11L 0.515625 11L 0.515625 10.2031L 4.01367 5.55664L 0.568359 5.55664L 0.568359 4.66016L 5.37305 4.66016L 5.37305 5.42773L 1.83984 10.1152Z"/>
<path id="path9_fill" d="M 0.990234 11L 0.990234 2.46875L 3.7793 2.46875C 4.70508 2.46875 5.40039 2.66016 5.86523 3.04297C 6.33398 3.42578 6.56836 3.99219 6.56836 4.74219C 6.56836 5.14062 6.45508 5.49414 6.22852 5.80273C 6.00195 6.10742 5.69336 6.34375 5.30273 6.51172C 5.76367 6.64062 6.12695 6.88672 6.39258 7.25C 6.66211 7.60938 6.79688 8.03906 6.79688 8.53906C 6.79688 9.30469 6.54883 9.90625 6.05273 10.3438C 5.55664 10.7812 4.85547 11 3.94922 11L 0.990234 11ZM 2.11523 7.00977L 2.11523 10.0801L 3.97266 10.0801C 4.49609 10.0801 4.9082 9.94531 5.20898 9.67578C 5.51367 9.40234 5.66602 9.02734 5.66602 8.55078C 5.66602 7.52344 5.10742 7.00977 3.99023 7.00977L 2.11523 7.00977ZM 2.11523 6.10742L 3.81445 6.10742C 4.30664 6.10742 4.69922 5.98438 4.99219 5.73828C 5.28906 5.49219 5.4375 5.1582 5.4375 4.73633C 5.4375 4.26758 5.30078 3.92773 5.02734 3.7168C 4.75391 3.50195 4.33789 3.39453 3.7793 3.39453L 2.11523 3.39453L 2.11523 6.10742Z"/>
<path id="path10_fill" d="M 5.70117 8.77344L 2.12695 8.77344L 1.32422 11L 0.164062 11L 3.42188 2.46875L 4.40625 2.46875L 7.66992 11L 6.51562 11L 5.70117 8.77344ZM 2.4668 7.84766L 5.36719 7.84766L 3.91406 3.85742L 2.4668 7.84766Z"/>
<path id="path11_fill" d="M 7.26562 8.29297C 7.16016 9.19531 6.82617 9.89258 6.26367 10.3848C 5.70508 10.873 4.96094 11.1172 4.03125 11.1172C 3.02344 11.1172 2.21484 10.7559 1.60547 10.0332C 1 9.31055 0.697266 8.34375 0.697266 7.13281L 0.697266 6.3125C 0.697266 5.51953 0.837891 4.82227 1.11914 4.2207C 1.4043 3.61914 1.80664 3.1582 2.32617 2.83789C 2.8457 2.51367 3.44727 2.35156 4.13086 2.35156C 5.03711 2.35156 5.76367 2.60547 6.31055 3.11328C 6.85742 3.61719 7.17578 4.31641 7.26562 5.21094L 6.13477 5.21094C 6.03711 4.53125 5.82422 4.03906 5.49609 3.73438C 5.17188 3.42969 4.7168 3.27734 4.13086 3.27734C 3.41211 3.27734 2.84766 3.54297 2.4375 4.07422C 2.03125 4.60547 1.82812 5.36133 1.82812 6.3418L 1.82812 7.16797C 1.82812 8.09375 2.02148 8.83008 2.4082 9.37695C 2.79492 9.92383 3.33594 10.1973 4.03125 10.1973C 4.65625 10.1973 5.13477 10.0566 5.4668 9.77539C 5.80273 9.49023 6.02539 8.99609 6.13477 8.29297L 7.26562 8.29297Z"/>
<path id="path12_fill" d="M 0.636 16.06C 0.636 15.58 0.708 15.148 0.852 14.764C 0.996 14.38 1.188 14.056 1.428 13.792C 1.676 13.528 1.956 13.324 2.268 13.18C 2.58 13.036 2.904 12.964 3.24 12.964C 3.592 12.964 3.892 13.028 4.14 13.156C 4.396 13.276 4.644 13.444 4.884 13.66L 4.824 12.664L 4.824 10.528L 6.216 10.528L 6.216 19L 5.076 19L 4.968 18.316L 4.932 18.316C 4.7 18.548 4.428 18.744 4.116 18.904C 3.812 19.064 3.492 19.144 3.156 19.144C 2.78 19.144 2.436 19.076 2.124 18.94C 1.812 18.796 1.544 18.592 1.32 18.328C 1.104 18.064 0.936 17.744 0.816 17.368C 0.696 16.984 0.636 16.548 0.636 16.06ZM 2.064 16.048C 2.064 16.688 2.188 17.176 2.436 17.512C 2.684 17.84 3.036 18.004 3.492 18.004C 3.98 18.004 4.424 17.768 4.824 17.296L 4.824 14.644C 4.616 14.444 4.408 14.304 4.2 14.224C 3.992 14.144 3.78 14.104 3.564 14.104C 3.356 14.104 3.16 14.148 2.976 14.236C 2.8 14.324 2.644 14.452 2.508 14.62C 2.372 14.78 2.264 14.98 2.184 15.22C 2.104 15.46 2.064 15.736 2.064 16.048ZM 13.8913 11.728C 13.6753 11.64 13.4633 11.576 13.2553 11.536C 13.0553 11.496 12.8353 11.476 12.5953 11.476C 12.1393 11.476 11.8073 11.588 11.5993 11.812C 11.3993 12.028 11.2993 12.344 11.2993 12.76L 11.2993 13.108L 13.5433 13.108L 13.5433 14.2L 11.2993 14.2L 11.2993 19L 9.93131 19L 9.93131 14.2L 8.29931 14.2L 8.29931 13.168L 9.93131 13.108L 9.93131 12.784C 9.93131 12.44 9.97931 12.12 10.0753 11.824C 10.1713 11.528 10.3193 11.276 10.5193 11.068C 10.7273 10.852 10.9873 10.684 11.2993 10.564C 11.6193 10.444 11.9953 10.384 12.4273 10.384C 12.7473 10.384 13.0513 10.412 13.3393 10.468C 13.6353 10.524 13.9153 10.604 14.1793 10.708L 13.8913 11.728ZM 16.8026 17.932C 16.8026 17.58 16.9146 17.292 17.1386 17.068C 17.3626 16.836 17.6466 16.72 17.9906 16.72C 18.3346 16.72 18.6186 16.836 18.8426 17.068C 19.0666 17.292 19.1786 17.58 19.1786 17.932C 19.1786 18.284 19.0666 18.576 18.8426 18.808C 18.6186 19.032 18.3346 19.144 17.9906 19.144C 17.6466 19.144 17.3626 19.032 17.1386 18.808C 16.9146 18.576 16.8026 18.284 16.8026 17.932ZM 22.4379 10.528L 25.6779 10.528L 25.6779 16.924C 25.6779 17.324 25.7779 17.608 25.9779 17.776C 26.1779 17.936 26.4299 18.016 26.7339 18.016C 27.0219 18.016 27.3579 17.94 27.7419 17.788L 28.0659 18.808C 27.7859 18.904 27.5219 18.984 27.2739 19.048C 27.0339 19.112 26.7419 19.144 26.3979 19.144C 25.7019 19.144 25.1779 18.944 24.8259 18.544C 24.4739 18.144 24.2979 17.58 24.2979 16.852L 24.2979 11.62L 22.4379 11.62L 22.4379 10.528ZM 29.4172 16.06C 29.4172 15.572 29.4972 15.136 29.6572 14.752C 29.8252 14.368 30.0452 14.044 30.3173 13.78C 30.5893 13.516 30.9053 13.316 31.2653 13.18C 31.6253 13.036 31.9973 12.964 32.3813 12.964C 32.7652 12.964 33.1372 13.036 33.4973 13.18C 33.8572 13.316 34.1732 13.516 34.4453 13.78C 34.7172 14.044 34.9332 14.368 35.0933 14.752C 35.2613 15.136 35.3452 15.572 35.3452 16.06C 35.3452 16.548 35.2613 16.984 35.0933 17.368C 34.9332 17.752 34.7172 18.076 34.4453 18.34C 34.1732 18.604 33.8572 18.804 33.4973 18.94C 33.1372 19.076 32.7652 19.144 32.3813 19.144C 31.9973 19.144 31.6253 19.076 31.2653 18.94C 30.9053 18.804 30.5893 18.604 30.3173 18.34C 30.0452 18.076 29.8252 17.752 29.6572 17.368C 29.4972 16.984 29.4172 16.548 29.4172 16.06ZM 30.8453 16.06C 30.8453 16.652 30.9813 17.128 31.2533 17.488C 31.5252 17.84 31.9013 18.016 32.3813 18.016C 32.8613 18.016 33.2373 17.84 33.5092 17.488C 33.7812 17.128 33.9173 16.652 33.9173 16.06C 33.9173 15.46 33.7812 14.984 33.5092 14.632C 33.2373 14.272 32.8613 14.092 32.3813 14.092C 31.9013 14.092 31.5252 14.272 31.2533 14.632C 30.9813 14.984 30.8453 15.46 30.8453 16.06ZM 36.8526 16.06C 36.8526 15.572 36.9406 15.136 37.1166 14.752C 37.3006 14.368 37.5446 14.044 37.8486 13.78C 38.1526 13.516 38.5086 13.316 38.9166 13.18C 39.3246 13.036 39.7526 12.964 40.2006 12.964C 40.6806 12.964 41.1006 13.044 41.4606 13.204C 41.8286 13.364 42.1366 13.56 42.3846 13.792L 41.7246 14.656C 41.4926 14.472 41.2566 14.332 41.0166 14.236C 40.7846 14.14 40.5366 14.092 40.2726 14.092C 39.6806 14.092 39.2006 14.272 38.8326 14.632C 38.4646 14.984 38.2806 15.46 38.2806 16.06C 38.2806 16.356 38.3286 16.624 38.4246 16.864C 38.5206 17.104 38.6526 17.312 38.8206 17.488C 38.9966 17.656 39.2046 17.788 39.4446 17.884C 39.6846 17.972 39.9486 18.016 40.2366 18.016C 40.5726 18.016 40.8766 17.952 41.1486 17.824C 41.4286 17.696 41.6846 17.544 41.9166 17.368L 42.4926 18.256C 42.1566 18.552 41.7806 18.776 41.3646 18.928C 40.9486 19.072 40.5286 19.144 40.1046 19.144C 39.6406 19.144 39.2086 19.076 38.8086 18.94C 38.4166 18.804 38.0726 18.604 37.7766 18.34C 37.4886 18.076 37.2606 17.752 37.0926 17.368C 36.9326 16.984 36.8526 16.548 36.8526 16.06ZM 45.7279 10.504L 49.1599 10.504L 49.1599 11.26L 46.7959 11.26L 46.7959 20.068L 49.1599 20.068L 49.1599 20.824L 45.7279 20.824L 45.7279 10.504ZM 74.2211 20.752C 75.2371 20.344 75.7491 19.728 75.7571 18.904C 75.7171 18.912 75.6611 18.916 75.5891 18.916C 75.2851 18.916 75.0211 18.828 74.7971 18.652C 74.5731 18.468 74.4611 18.2 74.4611 17.848C 74.4611 17.512 74.5731 17.252 74.7971 17.068C 75.0291 16.876 75.3011 16.78 75.6131 16.78C 76.0451 16.78 76.3691 16.94 76.5851 17.26C 76.8011 17.58 76.9091 18.02 76.9091 18.58C 76.9091 19.316 76.7091 19.936 76.3091 20.44C 75.9091 20.952 75.3331 21.332 74.5811 21.58L 74.2211 20.752ZM 104.31 20.068L 104.31 11.26L 101.958 11.26L 101.958 10.504L 105.39 10.504L 105.39 20.824L 101.958 20.824L 101.958 20.068L 104.31 20.068Z"/>
<path id="path13_fill" d="M 51.6872 12.304L 51.6512 10.768L 53.3312 10.768L 53.2952 12.304L 52.9352 15.076L 52.0472 15.076L 51.6872 12.304ZM 54.6512 12.304L 54.6152 10.768L 56.2952 10.768L 56.2592 12.304L 55.8992 15.076L 55.0112 15.076L 54.6512 12.304ZM 58.4145 18.256L 61.9545 14.2L 58.8225 14.2L 58.8225 13.108L 63.8985 13.108L 63.8985 13.84L 60.3465 17.896L 64.0065 17.896L 64.0065 19L 58.4145 19L 58.4145 18.256ZM 66.0778 12.304L 66.0418 10.768L 67.7218 10.768L 67.6858 12.304L 67.3258 15.076L 66.4378 15.076L 66.0778 12.304ZM 69.0418 12.304L 69.0058 10.768L 70.6858 10.768L 70.6498 12.304L 70.2898 15.076L 69.4018 15.076L 69.0418 12.304ZM 80.4684 12.304L 80.4324 10.768L 82.1124 10.768L 82.0764 12.304L 81.7164 15.076L 80.8284 15.076L 80.4684 12.304ZM 83.4324 12.304L 83.3964 10.768L 85.0764 10.768L 85.0404 12.304L 84.6804 15.076L 83.7924 15.076L 83.4324 12.304ZM 90.9158 15.784L 90.6398 14.824C 90.5278 14.408 90.4118 13.98 90.2917 13.54C 90.1718 13.1 90.0558 12.664 89.9438 12.232L 89.8958 12.232C 89.7838 12.672 89.6678 13.112 89.5477 13.552C 89.4357 13.984 89.3197 14.408 89.1998 14.824L 88.9238 15.784L 90.9158 15.784ZM 91.2278 16.876L 88.6117 16.876L 87.9997 19L 86.5837 19L 89.1277 11.152L 90.7598 11.152L 93.3037 19L 91.8277 19L 91.2278 16.876ZM 94.8591 12.304L 94.8231 10.768L 96.5031 10.768L 96.4671 12.304L 96.1071 15.076L 95.2191 15.076L 94.8591 12.304ZM 97.8231 12.304L 97.7871 10.768L 99.4671 10.768L 99.4311 12.304L 99.0711 15.076L 98.1831 15.076L 97.8231 12.304Z"/>
<path id="path14_fill" d="M 0 0L 22 0L 22 22L 0 22L 0 0Z"/>
<path id="path15_stroke" d="M 0 0L 0 -1L -1 -1L -1 0L 0 0ZM 22 0L 23 0L 23 -1L 22 -1L 22 0ZM 22 22L 22 23L 23 23L 23 22L 22 22ZM 0 22L -1 22L -1 23L 0 23L 0 22ZM 0 1L 22 1L 22 -1L 0 -1L 0 1ZM 21 0L 21 22L 23 22L 23 0L 21 0ZM 22 21L 0 21L 0 23L 22 23L 22 21ZM 1 22L 1 0L -1 0L -1 22L 1 22Z"/>
<path id="path16_fill" d="M 5.94531 12L 4.89062 12L 6.44922 3L 7.50977 3L 5.94531 12ZM 11.2012 5.54297C 11.7324 5.55078 12.1875 5.69531 12.5664 5.97656C 12.9453 6.25781 13.2246 6.64648 13.4043 7.14258C 13.5879 7.63477 13.6504 8.17383 13.5918 8.75977L 13.5801 8.88867C 13.5059 9.50586 13.3223 10.0645 13.0293 10.5645C 12.7363 11.0605 12.3574 11.4473 11.8926 11.7246C 11.4277 12.002 10.918 12.1328 10.3633 12.1172C 9.83594 12.1094 9.38086 11.9648 8.99805 11.6836C 8.61914 11.4023 8.3418 11.0195 8.16602 10.5352C 7.99023 10.0508 7.92773 9.51758 7.97852 8.93555C 8.03711 8.2793 8.21484 7.68945 8.51172 7.16602C 8.80859 6.64258 9.18945 6.23828 9.6543 5.95312C 10.123 5.66406 10.6387 5.52734 11.2012 5.54297ZM 9.04492 8.94141C 9.01758 9.1875 9.01758 9.44336 9.04492 9.70898C 9.08398 10.1699 9.2207 10.5371 9.45508 10.8105C 9.69336 11.084 10.0098 11.2266 10.4043 11.2383C 10.7559 11.25 11.0801 11.1641 11.377 10.9805C 11.6738 10.793 11.9238 10.5117 12.127 10.1367C 12.3301 9.76172 12.4609 9.3457 12.5195 8.88867C 12.5508 8.5293 12.5566 8.22656 12.5371 7.98047C 12.4902 7.50781 12.3477 7.13477 12.1094 6.86133C 11.8711 6.58789 11.5547 6.44336 11.1602 6.42773C 10.6133 6.41602 10.1484 6.63086 9.76562 7.07227C 9.38281 7.51367 9.14648 8.0918 9.05664 8.80664L 9.04492 8.94141ZM 17.0605 11.2383C 17.4395 11.2461 17.7812 11.1367 18.0859 10.9102C 18.3906 10.6797 18.5898 10.3789 18.6836 10.0078L 19.6855 10.002C 19.627 10.4004 19.4668 10.7637 19.2051 11.0918C 18.9473 11.4199 18.6211 11.6758 18.2266 11.8594C 17.832 12.043 17.4277 12.1289 17.0137 12.1172C 16.4863 12.1094 16.0391 11.9727 15.6719 11.707C 15.3086 11.4375 15.041 11.0645 14.8691 10.5879C 14.6973 10.1074 14.6387 9.56836 14.6934 8.9707L 14.7227 8.67773C 14.7969 8.06836 14.9746 7.52344 15.2559 7.04297C 15.5371 6.5625 15.9043 6.18945 16.3574 5.92383C 16.8105 5.6543 17.3105 5.52734 17.8574 5.54297C 18.5215 5.55859 19.0527 5.78125 19.4512 6.21094C 19.8496 6.64062 20.0488 7.18555 20.0488 7.8457L 19.0586 7.83984C 19.0508 7.42578 18.9355 7.0918 18.7129 6.83789C 18.4902 6.58008 18.1895 6.44336 17.8105 6.42773C 17.2598 6.41602 16.8008 6.62109 16.4336 7.04297C 16.0703 7.46484 15.8438 8.05469 15.7539 8.8125L 15.7363 8.96484C 15.7129 9.21484 15.709 9.47266 15.7246 9.73828C 15.752 10.1953 15.8809 10.5566 16.1113 10.8223C 16.3418 11.0879 16.6582 11.2266 17.0605 11.2383ZM 24.4141 12C 24.3867 11.8867 24.373 11.7754 24.373 11.666L 24.3906 11.332C 23.8086 11.8711 23.1914 12.1328 22.5391 12.1172C 21.9805 12.1094 21.5254 11.9336 21.1738 11.5898C 20.8262 11.2422 20.668 10.8086 20.6992 10.2891C 20.7383 9.61719 21.0312 9.09375 21.5781 8.71875C 22.1289 8.33984 22.8516 8.15039 23.7461 8.15039L 24.8535 8.15625L 24.9238 7.65234C 24.9629 7.27344 24.8887 6.97461 24.7012 6.75586C 24.5176 6.5332 24.2402 6.41797 23.8691 6.41016C 23.5059 6.40234 23.1836 6.49219 22.9023 6.67969C 22.625 6.86328 22.4551 7.10742 22.3926 7.41211L 21.3262 7.41797C 21.3613 7.04688 21.5059 6.71875 21.7598 6.43359C 22.0137 6.14453 22.3398 5.92188 22.7383 5.76562C 23.1367 5.60547 23.5488 5.5293 23.9746 5.53711C 24.6348 5.55273 25.1484 5.75391 25.5156 6.14062C 25.8828 6.52344 26.0371 7.0332 25.9785 7.66992L 25.4629 10.8105L 25.4336 11.2617C 25.4258 11.4766 25.4492 11.6895 25.5039 11.9004L 25.4922 12L 24.4141 12ZM 22.75 11.1797C 23.0898 11.1875 23.4102 11.1074 23.7109 10.9395C 24.0156 10.7676 24.2773 10.5312 24.4961 10.2305L 24.7246 8.92383L 23.9219 8.91797C 23.2539 8.91797 22.7422 9.02344 22.3867 9.23438C 22.0312 9.44531 21.8301 9.74414 21.7832 10.1309C 21.748 10.4277 21.8164 10.6758 21.9883 10.875C 22.1641 11.0703 22.418 11.1719 22.75 11.1797ZM 29.7344 4.125L 29.4648 5.66016L 30.6191 5.66016L 30.4727 6.49805L 29.3242 6.49805L 28.6621 10.4414C 28.6504 10.543 28.6484 10.6367 28.6562 10.7227C 28.6836 11.0273 28.8496 11.1797 29.1543 11.1797C 29.2832 11.1797 29.4551 11.1602 29.6699 11.1211L 29.5879 12.0059C 29.334 12.0762 29.0762 12.1113 28.8145 12.1113C 28.3926 12.1035 28.0762 11.9492 27.8652 11.6484C 27.6543 11.3438 27.5723 10.9355 27.6191 10.4238L 28.2637 6.49805L 27.1445 6.49805L 27.291 5.66016L 28.4102 5.66016L 28.6797 4.125L 29.7344 4.125ZM 33.543 12.1172C 32.7539 12.1016 32.1367 11.8105 31.6914 11.2441C 31.2461 10.6777 31.0586 9.95312 31.1289 9.07031L 31.1582 8.81836C 31.2246 8.18945 31.4102 7.61523 31.7148 7.0957C 32.0234 6.57617 32.3984 6.18555 32.8398 5.92383C 33.2812 5.6582 33.7578 5.53125 34.2695 5.54297C 34.9219 5.55859 35.4336 5.77539 35.8047 6.19336C 36.1758 6.61133 36.3789 7.17773 36.4141 7.89258C 36.4258 8.14648 36.418 8.40039 36.3906 8.6543L 36.3262 9.14062L 32.1836 9.14062C 32.1133 9.71484 32.207 10.2031 32.4648 10.6055C 32.7266 11.0078 33.1152 11.2168 33.6309 11.2324C 34.2559 11.248 34.834 10.9668 35.3652 10.3887L 35.9746 10.9043C 35.709 11.2871 35.3652 11.5879 34.9434 11.8066C 34.5254 12.0215 34.0586 12.125 33.543 12.1172ZM 34.2168 6.42773C 33.7793 6.41602 33.3965 6.56445 33.0684 6.87305C 32.7441 7.18164 32.4863 7.64062 32.2949 8.25L 35.377 8.25586L 35.4004 8.16211C 35.4629 7.66992 35.3828 7.26172 35.1602 6.9375C 34.9414 6.60938 34.627 6.43945 34.2168 6.42773ZM 37.3281 8.81836C 37.4062 8.17383 37.584 7.5918 37.8613 7.07227C 38.1387 6.55273 38.4805 6.16406 38.8867 5.90625C 39.293 5.64844 39.7402 5.52539 40.2285 5.53711C 40.9355 5.55273 41.4785 5.81055 41.8574 6.31055L 42.4668 3L 43.5273 3L 41.9688 12L 41.002 12L 41.1133 11.3203C 40.6133 11.8672 39.9961 12.1328 39.2617 12.1172C 38.6758 12.1016 38.209 11.873 37.8613 11.4316C 37.5137 10.9863 37.3262 10.3906 37.2988 9.64453C 37.2871 9.41406 37.2969 9.13867 37.3281 8.81836ZM 38.3477 9.42773C 38.3359 9.98633 38.4355 10.4199 38.6465 10.7285C 38.8574 11.0371 39.166 11.1953 39.5723 11.2031C 40.1855 11.2305 40.7305 10.9219 41.207 10.2773L 41.7109 7.34766C 41.4766 6.76953 41.0508 6.47266 40.4336 6.45703C 40.0156 6.44531 39.6465 6.57227 39.3262 6.83789C 39.0098 7.09961 38.7676 7.46875 38.5996 7.94531C 38.4355 8.41797 38.3516 8.91211 38.3477 9.42773ZM 50.4648 12C 50.4375 11.8867 50.4238 11.7754 50.4238 11.666L 50.4414 11.332C 49.8594 11.8711 49.2422 12.1328 48.5898 12.1172C 48.0312 12.1094 47.5762 11.9336 47.2246 11.5898C 46.877 11.2422 46.7188 10.8086 46.75 10.2891C 46.7891 9.61719 47.082 9.09375 47.6289 8.71875C 48.1797 8.33984 48.9023 8.15039 49.7969 8.15039L 50.9043 8.15625L 50.9746 7.65234C 51.0137 7.27344 50.9395 6.97461 50.752 6.75586C 50.5684 6.5332 50.291 6.41797 49.9199 6.41016C 49.5566 6.40234 49.2344 6.49219 48.9531 6.67969C 48.6758 6.86328 48.5059 7.10742 48.4434 7.41211L 47.377 7.41797C 47.4121 7.04688 47.5566 6.71875 47.8105 6.43359C 48.0645 6.14453 48.3906 5.92188 48.7891 5.76562C 49.1875 5.60547 49.5996 5.5293 50.0254 5.53711C 50.6855 5.55273 51.1992 5.75391 51.5664 6.14062C 51.9336 6.52344 52.0879 7.0332 52.0293 7.66992L 51.5137 10.8105L 51.4844 11.2617C 51.4766 11.4766 51.5 11.6895 51.5547 11.9004L 51.543 12L 50.4648 12ZM 48.8008 11.1797C 49.1406 11.1875 49.4609 11.1074 49.7617 10.9395C 50.0664 10.7676 50.3281 10.5312 50.5469 10.2305L 50.7754 8.92383L 49.9727 8.91797C 49.3047 8.91797 48.793 9.02344 48.4375 9.23438C 48.082 9.44531 47.8809 9.74414 47.834 10.1309C 47.7988 10.4277 47.8672 10.6758 48.0391 10.875C 48.2148 11.0703 48.4688 11.1719 48.8008 11.1797ZM 55.7852 4.125L 55.5156 5.66016L 56.6699 5.66016L 56.5234 6.49805L 55.375 6.49805L 54.7129 10.4414C 54.7012 10.543 54.6992 10.6367 54.707 10.7227C 54.7344 11.0273 54.9004 11.1797 55.2051 11.1797C 55.334 11.1797 55.5059 11.1602 55.7207 11.1211L 55.6387 12.0059C 55.3848 12.0762 55.127 12.1113 54.8652 12.1113C 54.4434 12.1035 54.127 11.9492 53.916 11.6484C 53.7051 11.3438 53.623 10.9355 53.6699 10.4238L 54.3145 6.49805L 53.1953 6.49805L 53.3418 5.66016L 54.4609 5.66016L 54.7305 4.125L 55.7852 4.125ZM 63.7363 6.62695L 63.2383 6.57422C 62.5586 6.57422 62.0234 6.88086 61.6328 7.49414L 60.8535 12L 59.793 12L 60.8945 5.66016L 61.9199 5.6543L 61.7617 6.39258C 62.2109 5.80273 62.7402 5.51562 63.3496 5.53125C 63.4785 5.53125 63.6465 5.56055 63.8535 5.61914L 63.7363 6.62695ZM 67.1934 5.54297C 67.7246 5.55078 68.1797 5.69531 68.5586 5.97656C 68.9375 6.25781 69.2168 6.64648 69.3965 7.14258C 69.5801 7.63477 69.6426 8.17383 69.584 8.75977L 69.5723 8.88867C 69.498 9.50586 69.3145 10.0645 69.0215 10.5645C 68.7285 11.0605 68.3496 11.4473 67.8848 11.7246C 67.4199 12.002 66.9102 12.1328 66.3555 12.1172C 65.8281 12.1094 65.373 11.9648 64.9902 11.6836C 64.6113 11.4023 64.334 11.0195 64.1582 10.5352C 63.9824 10.0508 63.9199 9.51758 63.9707 8.93555C 64.0293 8.2793 64.207 7.68945 64.5039 7.16602C 64.8008 6.64258 65.1816 6.23828 65.6465 5.95312C 66.1152 5.66406 66.6309 5.52734 67.1934 5.54297ZM 65.0371 8.94141C 65.0098 9.1875 65.0098 9.44336 65.0371 9.70898C 65.0762 10.1699 65.2129 10.5371 65.4473 10.8105C 65.6855 11.084 66.002 11.2266 66.3965 11.2383C 66.748 11.25 67.0723 11.1641 67.3691 10.9805C 67.666 10.793 67.916 10.5117 68.1191 10.1367C 68.3223 9.76172 68.4531 9.3457 68.5117 8.88867C 68.543 8.5293 68.5488 8.22656 68.5293 7.98047C 68.4824 7.50781 68.3398 7.13477 68.1016 6.86133C 67.8633 6.58789 67.5469 6.44336 67.1523 6.42773C 66.6055 6.41602 66.1406 6.63086 65.7578 7.07227C 65.375 7.51367 65.1387 8.0918 65.0488 8.80664L 65.0371 8.94141ZM 76.0645 10.5L 78.0859 5.66016L 79.1816 5.66016L 76.293 12L 75.4316 12L 74.7754 7.20703L 72.4902 12L 71.6289 12L 70.9434 5.66016L 71.957 5.66016L 72.3438 10.3828L 74.5938 5.66016L 75.4492 5.66016L 76.0645 10.5ZM 87.8184 10.5L 89.8398 5.66016L 90.9355 5.66016L 88.0469 12L 87.1855 12L 86.5293 7.20703L 84.2441 12L 83.3828 12L 82.6973 5.66016L 83.7109 5.66016L 84.0977 10.3828L 86.3477 5.66016L 87.2031 5.66016L 87.8184 10.5ZM 92.0898 12L 91.0352 12L 92.1367 5.66016L 93.1914 5.66016L 92.0898 12ZM 92.9629 3.3457C 93.1426 3.33789 93.291 3.39258 93.4082 3.50977C 93.5293 3.62305 93.5898 3.77344 93.5898 3.96094C 93.5859 4.14453 93.5254 4.29492 93.4082 4.41211C 93.2949 4.5293 93.1465 4.5918 92.9629 4.59961C 92.7793 4.60742 92.6289 4.55469 92.5117 4.44141C 92.3945 4.32812 92.3379 4.17969 92.3418 3.99609C 92.3457 3.8125 92.4043 3.66016 92.5176 3.53906C 92.6309 3.41797 92.7793 3.35352 92.9629 3.3457ZM 96.625 4.125L 96.3555 5.66016L 97.5098 5.66016L 97.3633 6.49805L 96.2148 6.49805L 95.5527 10.4414C 95.541 10.543 95.5391 10.6367 95.5469 10.7227C 95.5742 11.0273 95.7402 11.1797 96.0449 11.1797C 96.1738 11.1797 96.3457 11.1602 96.5605 11.1211L 96.4785 12.0059C 96.2246 12.0762 95.9668 12.1113 95.7051 12.1113C 95.2832 12.1035 94.9668 11.9492 94.7559 11.6484C 94.5449 11.3438 94.4629 10.9355 94.5098 10.4238L 95.1543 6.49805L 94.0352 6.49805L 94.1816 5.66016L 95.3008 5.66016L 95.5703 4.125L 96.625 4.125ZM 99.6719 6.43359C 100.227 5.82812 100.865 5.5332 101.588 5.54883C 102.182 5.55664 102.621 5.76172 102.906 6.16406C 103.195 6.5625 103.303 7.12305 103.229 7.8457L 102.537 12L 101.477 12L 102.174 7.82812C 102.197 7.63672 102.199 7.45898 102.18 7.29492C 102.113 6.74805 101.791 6.46875 101.213 6.45703C 100.564 6.44141 100.006 6.78125 99.5371 7.47656L 98.752 12L 97.6914 12L 99.2559 3L 100.316 3L 99.6719 6.43359ZM 108.25 12L 107.195 12L 108.754 3L 109.814 3L 108.25 12ZM 113.863 12C 113.836 11.8867 113.822 11.7754 113.822 11.666L 113.84 11.332C 113.258 11.8711 112.641 12.1328 111.988 12.1172C 111.43 12.1094 110.975 11.9336 110.623 11.5898C 110.275 11.2422 110.117 10.8086 110.148 10.2891C 110.188 9.61719 110.48 9.09375 111.027 8.71875C 111.578 8.33984 112.301 8.15039 113.195 8.15039L 114.303 8.15625L 114.373 7.65234C 114.412 7.27344 114.338 6.97461 114.15 6.75586C 113.967 6.5332 113.689 6.41797 113.318 6.41016C 112.955 6.40234 112.633 6.49219 112.352 6.67969C 112.074 6.86328 111.904 7.10742 111.842 7.41211L 110.775 7.41797C 110.811 7.04688 110.955 6.71875 111.209 6.43359C 111.463 6.14453 111.789 5.92188 112.188 5.76562C 112.586 5.60547 112.998 5.5293 113.424 5.53711C 114.084 5.55273 114.598 5.75391 114.965 6.14062C 115.332 6.52344 115.486 7.0332 115.428 7.66992L 114.912 10.8105L 114.883 11.2617C 114.875 11.4766 114.898 11.6895 114.953 11.9004L 114.941 12L 113.863 12ZM 112.199 11.1797C 112.539 11.1875 112.859 11.1074 113.16 10.9395C 113.465 10.7676 113.727 10.5312 113.945 10.2305L 114.174 8.92383L 113.371 8.91797C 112.703 8.91797 112.191 9.02344 111.836 9.23438C 111.48 9.44531 111.279 9.74414 111.232 10.1309C 111.197 10.4277 111.266 10.6758 111.438 10.875C 111.613 11.0703 111.867 11.1719 112.199 11.1797ZM 122.137 8.85938C 122.059 9.50781 121.881 10.0918 121.604 10.6113C 121.326 11.1309 120.99 11.5156 120.596 11.7656C 120.201 12.0156 119.764 12.1348 119.283 12.123C 118.518 12.1074 117.949 11.8203 117.578 11.2617L 117.361 12L 116.383 12L 117.947 3L 119.008 3L 118.369 6.36328C 118.877 5.80078 119.494 5.52734 120.221 5.54297C 120.83 5.55859 121.305 5.7832 121.645 6.2168C 121.984 6.65039 122.164 7.24805 122.184 8.00977C 122.188 8.25977 122.176 8.50195 122.148 8.73633L 122.137 8.85938ZM 121.129 8.24414C 121.141 7.67383 121.045 7.23828 120.842 6.9375C 120.639 6.63281 120.328 6.47266 119.91 6.45703C 119.25 6.44141 118.691 6.77344 118.234 7.45312L 117.76 10.2129C 117.994 10.8574 118.434 11.1875 119.078 11.2031C 119.492 11.2188 119.854 11.0957 120.162 10.834C 120.475 10.5723 120.711 10.207 120.871 9.73828C 121.031 9.26562 121.117 8.76758 121.129 8.24414ZM 125.723 12.1172C 124.934 12.1016 124.316 11.8105 123.871 11.2441C 123.426 10.6777 123.238 9.95312 123.309 9.07031L 123.338 8.81836C 123.404 8.18945 123.59 7.61523 123.895 7.0957C 124.203 6.57617 124.578 6.18555 125.02 5.92383C 125.461 5.6582 125.938 5.53125 126.449 5.54297C 127.102 5.55859 127.613 5.77539 127.984 6.19336C 128.355 6.61133 128.559 7.17773 128.594 7.89258C 128.605 8.14648 128.598 8.40039 128.57 8.6543L 128.506 9.14062L 124.363 9.14062C 124.293 9.71484 124.387 10.2031 124.645 10.6055C 124.906 11.0078 125.295 11.2168 125.811 11.2324C 126.436 11.248 127.014 10.9668 127.545 10.3887L 128.154 10.9043C 127.889 11.2871 127.545 11.5879 127.123 11.8066C 126.705 12.0215 126.238 12.125 125.723 12.1172ZM 126.396 6.42773C 125.959 6.41602 125.576 6.56445 125.248 6.87305C 124.924 7.18164 124.666 7.64062 124.475 8.25L 127.557 8.25586L 127.58 8.16211C 127.643 7.66992 127.562 7.26172 127.34 6.9375C 127.121 6.60938 126.807 6.43945 126.396 6.42773ZM 130.352 12L 129.297 12L 130.855 3L 131.916 3L 130.352 12ZM 135.698 11.256L 139.238 7.2L 136.106 7.2L 136.106 6.108L 141.182 6.108L 141.182 6.84L 137.63 10.896L 141.29 10.896L 141.29 12L 135.698 12L 135.698 11.256ZM 141.988 13.7051L 141.379 13.2656C 141.832 12.707 142.113 12.1523 142.223 11.6016L 142.375 10.7168L 143.412 10.7168L 143.289 11.5078C 143.148 12.3984 142.715 13.1309 141.988 13.7051ZM 26.3594 26.2383C 26.7383 26.2461 27.0801 26.1367 27.3848 25.9102C 27.6895 25.6797 27.8887 25.3789 27.9824 25.0078L 28.9844 25.002C 28.9258 25.4004 28.7656 25.7637 28.5039 26.0918C 28.2461 26.4199 27.9199 26.6758 27.5254 26.8594C 27.1309 27.043 26.7266 27.1289 26.3125 27.1172C 25.7852 27.1094 25.3379 26.9727 24.9707 26.707C 24.6074 26.4375 24.3398 26.0645 24.168 25.5879C 23.9961 25.1074 23.9375 24.5684 23.9922 23.9707L 24.0215 23.6777C 24.0957 23.0684 24.2734 22.5234 24.5547 22.043C 24.8359 21.5625 25.2031 21.1895 25.6562 20.9238C 26.1094 20.6543 26.6094 20.5273 27.1562 20.543C 27.8203 20.5586 28.3516 20.7812 28.75 21.2109C 29.1484 21.6406 29.3477 22.1855 29.3477 22.8457L 28.3574 22.8398C 28.3496 22.4258 28.2344 22.0918 28.0117 21.8379C 27.7891 21.5801 27.4883 21.4434 27.1094 21.4277C 26.5586 21.416 26.0996 21.6211 25.7324 22.043C 25.3691 22.4648 25.1426 23.0547 25.0527 23.8125L 25.0352 23.9648C 25.0117 24.2148 25.0078 24.4727 25.0234 24.7383C 25.0508 25.1953 25.1797 25.5566 25.4102 25.8223C 25.6406 26.0879 25.957 26.2266 26.3594 26.2383ZM 33.3555 20.543C 33.8867 20.5508 34.3418 20.6953 34.7207 20.9766C 35.0996 21.2578 35.3789 21.6465 35.5586 22.1426C 35.7422 22.6348 35.8047 23.1738 35.7461 23.7598L 35.7344 23.8887C 35.6602 24.5059 35.4766 25.0645 35.1836 25.5645C 34.8906 26.0605 34.5117 26.4473 34.0469 26.7246C 33.582 27.002 33.0723 27.1328 32.5176 27.1172C 31.9902 27.1094 31.5352 26.9648 31.1523 26.6836C 30.7734 26.4023 30.4961 26.0195 30.3203 25.5352C 30.1445 25.0508 30.082 24.5176 30.1328 23.9355C 30.1914 23.2793 30.3691 22.6895 30.666 22.166C 30.9629 21.6426 31.3438 21.2383 31.8086 20.9531C 32.2773 20.6641 32.793 20.5273 33.3555 20.543ZM 31.1992 23.9414C 31.1719 24.1875 31.1719 24.4434 31.1992 24.709C 31.2383 25.1699 31.375 25.5371 31.6094 25.8105C 31.8477 26.084 32.1641 26.2266 32.5586 26.2383C 32.9102 26.25 33.2344 26.1641 33.5312 25.9805C 33.8281 25.793 34.0781 25.5117 34.2812 25.1367C 34.4844 24.7617 34.6152 24.3457 34.6738 23.8887C 34.7051 23.5293 34.7109 23.2266 34.6914 22.9805C 34.6445 22.5078 34.502 22.1348 34.2637 21.8613C 34.0254 21.5879 33.709 21.4434 33.3145 21.4277C 32.7676 21.416 32.3027 21.6309 31.9199 22.0723C 31.5371 22.5137 31.3008 23.0918 31.2109 23.8066L 31.1992 23.9414ZM 37.6855 27L 36.6309 27L 38.1895 18L 39.25 18L 37.6855 27ZM 43.4453 26.373C 42.9492 26.8848 42.3184 27.1328 41.5527 27.1172C 40.9473 27.1016 40.498 26.8848 40.2051 26.4668C 39.916 26.0488 39.8086 25.4785 39.8828 24.7559L 40.5625 20.6602L 41.623 20.6602L 40.9375 24.7734C 40.918 24.9453 40.9141 25.1133 40.9258 25.2773C 40.9453 25.5586 41.0293 25.7793 41.1777 25.9395C 41.3262 26.0996 41.5332 26.1855 41.7988 26.1973C 42.5566 26.2207 43.1426 25.9141 43.5566 25.2773L 44.3535 20.6602L 45.4141 20.6602L 44.3125 27L 43.3105 27L 43.4453 26.373ZM 47.9922 20.6543L 47.8574 21.3633C 48.3887 20.8008 49.0312 20.5273 49.7852 20.543C 50.1875 20.5508 50.5273 20.6426 50.8047 20.8184C 51.0859 20.9941 51.2793 21.2422 51.3848 21.5625C 51.9785 20.8672 52.6797 20.5273 53.4883 20.543C 54.1211 20.5586 54.5879 20.7715 54.8887 21.1816C 55.1895 21.5918 55.3008 22.1426 55.2227 22.834L 54.5254 27L 53.4707 27L 54.1621 22.8223C 54.1855 22.6191 54.1855 22.4336 54.1621 22.2656C 54.0879 21.7344 53.7402 21.4629 53.1191 21.4512C 52.7324 21.4434 52.3809 21.5645 52.0645 21.8145C 51.752 22.0605 51.5508 22.3848 51.4609 22.7871L 50.7402 27L 49.6738 27L 50.377 22.8281C 50.4277 22.3945 50.3613 22.0605 50.1777 21.8262C 49.998 21.5918 49.7168 21.4707 49.334 21.4629C 48.6738 21.4473 48.1484 21.748 47.7578 22.3652L 46.9551 27L 45.8945 27L 46.9961 20.6602L 47.9922 20.6543ZM 58.2695 20.6543L 58.1172 21.457C 58.6875 20.832 59.3359 20.5273 60.0625 20.543C 60.6602 20.5586 61.1016 20.7656 61.3867 21.1641C 61.6719 21.5625 61.7773 22.123 61.7031 22.8457L 61.0117 27L 59.9512 27L 60.6484 22.8281C 60.6719 22.6367 60.6738 22.459 60.6543 22.2949C 60.5879 21.748 60.2656 21.4688 59.6875 21.457C 59.0508 21.4453 58.4922 21.7852 58.0117 22.4766L 57.2266 27L 56.166 27L 57.2676 20.6602L 58.2695 20.6543ZM 71.2773 25.5L 73.2988 20.6602L 74.3945 20.6602L 71.5059 27L 70.6445 27L 69.9883 22.207L 67.7031 27L 66.8418 27L 66.1562 20.6602L 67.1699 20.6602L 67.5566 25.3828L 69.8066 20.6602L 70.6621 20.6602L 71.2773 25.5ZM 75.5488 27L 74.4941 27L 75.5957 20.6602L 76.6504 20.6602L 75.5488 27ZM 76.4219 18.3457C 76.6016 18.3379 76.75 18.3926 76.8672 18.5098C 76.9883 18.623 77.0488 18.7734 77.0488 18.9609C 77.0449 19.1445 76.9844 19.2949 76.8672 19.4121C 76.7539 19.5293 76.6055 19.5918 76.4219 19.5996C 76.2383 19.6074 76.0879 19.5547 75.9707 19.4414C 75.8535 19.3281 75.7969 19.1797 75.8008 18.9961C 75.8047 18.8125 75.8633 18.6602 75.9766 18.5391C 76.0898 18.418 76.2383 18.3535 76.4219 18.3457ZM 80.084 19.125L 79.8145 20.6602L 80.9688 20.6602L 80.8223 21.498L 79.6738 21.498L 79.0117 25.4414C 79 25.543 78.998 25.6367 79.0059 25.7227C 79.0332 26.0273 79.1992 26.1797 79.5039 26.1797C 79.6328 26.1797 79.8047 26.1602 80.0195 26.1211L 79.9375 27.0059C 79.6836 27.0762 79.4258 27.1113 79.1641 27.1113C 78.7422 27.1035 78.4258 26.9492 78.2148 26.6484C 78.0039 26.3438 77.9219 25.9355 77.9688 25.4238L 78.6133 21.498L 77.4941 21.498L 77.6406 20.6602L 78.7598 20.6602L 79.0293 19.125L 80.084 19.125ZM 83.1309 21.4336C 83.6855 20.8281 84.3242 20.5332 85.0469 20.5488C 85.6406 20.5566 86.0801 20.7617 86.3652 21.1641C 86.6543 21.5625 86.7617 22.123 86.6875 22.8457L 85.9961 27L 84.9355 27L 85.6328 22.8281C 85.6562 22.6367 85.6582 22.459 85.6387 22.2949C 85.5723 21.748 85.25 21.4688 84.6719 21.457C 84.0234 21.4414 83.4648 21.7812 82.9961 22.4766L 82.2109 27L 81.1504 27L 82.7148 18L 83.7754 18L 83.1309 21.4336ZM 91.709 27L 90.6543 27L 92.2129 18L 93.2734 18L 91.709 27ZM 97.3223 27C 97.2949 26.8867 97.2812 26.7754 97.2812 26.666L 97.2988 26.332C 96.7168 26.8711 96.0996 27.1328 95.4473 27.1172C 94.8887 27.1094 94.4336 26.9336 94.082 26.5898C 93.7344 26.2422 93.5762 25.8086 93.6074 25.2891C 93.6465 24.6172 93.9395 24.0938 94.4863 23.7188C 95.0371 23.3398 95.7598 23.1504 96.6543 23.1504L 97.7617 23.1562L 97.832 22.6523C 97.8711 22.2734 97.7969 21.9746 97.6094 21.7559C 97.4258 21.5332 97.1484 21.418 96.7773 21.4102C 96.4141 21.4023 96.0918 21.4922 95.8105 21.6797C 95.5332 21.8633 95.3633 22.1074 95.3008 22.4121L 94.2344 22.418C 94.2695 22.0469 94.4141 21.7188 94.668 21.4336C 94.9219 21.1445 95.248 20.9219 95.6465 20.7656C 96.0449 20.6055 96.457 20.5293 96.8828 20.5371C 97.543 20.5527 98.0566 20.7539 98.4238 21.1406C 98.791 21.5234 98.9453 22.0332 98.8867 22.6699L 98.3711 25.8105L 98.3418 26.2617C 98.334 26.4766 98.3574 26.6895 98.4121 26.9004L 98.4004 27L 97.3223 27ZM 95.6582 26.1797C 95.998 26.1875 96.3184 26.1074 96.6191 25.9395C 96.9238 25.7676 97.1855 25.5312 97.4043 25.2305L 97.6328 23.9238L 96.8301 23.918C 96.1621 23.918 95.6504 24.0234 95.2949 24.2344C 94.9395 24.4453 94.7383 24.7441 94.6914 25.1309C 94.6562 25.4277 94.7246 25.6758 94.8965 25.875C 95.0723 26.0703 95.3262 26.1719 95.6582 26.1797ZM 105.596 23.8594C 105.518 24.5078 105.34 25.0918 105.062 25.6113C 104.785 26.1309 104.449 26.5156 104.055 26.7656C 103.66 27.0156 103.223 27.1348 102.742 27.123C 101.977 27.1074 101.408 26.8203 101.037 26.2617L 100.82 27L 99.8418 27L 101.406 18L 102.467 18L 101.828 21.3633C 102.336 20.8008 102.953 20.5273 103.68 20.543C 104.289 20.5586 104.764 20.7832 105.104 21.2168C 105.443 21.6504 105.623 22.248 105.643 23.0098C 105.646 23.2598 105.635 23.502 105.607 23.7363L 105.596 23.8594ZM 104.588 23.2441C 104.6 22.6738 104.504 22.2383 104.301 21.9375C 104.098 21.6328 103.787 21.4727 103.369 21.457C 102.709 21.4414 102.15 21.7734 101.693 22.4531L 101.219 25.2129C 101.453 25.8574 101.893 26.1875 102.537 26.2031C 102.951 26.2188 103.312 26.0957 103.621 25.834C 103.934 25.5723 104.17 25.207 104.33 24.7383C 104.49 24.2656 104.576 23.7676 104.588 23.2441ZM 109.182 27.1172C 108.393 27.1016 107.775 26.8105 107.33 26.2441C 106.885 25.6777 106.697 24.9531 106.768 24.0703L 106.797 23.8184C 106.863 23.1895 107.049 22.6152 107.354 22.0957C 107.662 21.5762 108.037 21.1855 108.479 20.9238C 108.92 20.6582 109.396 20.5312 109.908 20.543C 110.561 20.5586 111.072 20.7754 111.443 21.1934C 111.814 21.6113 112.018 22.1777 112.053 22.8926C 112.064 23.1465 112.057 23.4004 112.029 23.6543L 111.965 24.1406L 107.822 24.1406C 107.752 24.7148 107.846 25.2031 108.104 25.6055C 108.365 26.0078 108.754 26.2168 109.27 26.2324C 109.895 26.248 110.473 25.9668 111.004 25.3887L 111.613 25.9043C 111.348 26.2871 111.004 26.5879 110.582 26.8066C 110.164 27.0215 109.697 27.125 109.182 27.1172ZM 109.855 21.4277C 109.418 21.416 109.035 21.5645 108.707 21.873C 108.383 22.1816 108.125 22.6406 107.934 23.25L 111.016 23.2559L 111.039 23.1621C 111.102 22.6699 111.021 22.2617 110.799 21.9375C 110.58 21.6094 110.266 21.4395 109.855 21.4277ZM 113.811 27L 112.756 27L 114.314 18L 115.375 18L 113.811 27ZM 122.877 23.784L 122.601 22.824C 122.489 22.408 122.373 21.98 122.253 21.54C 122.133 21.1 122.017 20.664 121.905 20.232L 121.857 20.232C 121.745 20.672 121.629 21.112 121.509 21.552C 121.397 21.984 121.281 22.408 121.161 22.824L 120.885 23.784L 122.877 23.784ZM 123.189 24.876L 120.573 24.876L 119.961 27L 118.545 27L 121.089 19.152L 122.721 19.152L 125.265 27L 123.789 27L 123.189 24.876Z"/>
<path id="path17_fill" d="M 7.11719 12L 6.0625 12L 7.62109 3L 8.68164 3L 7.11719 12ZM 12.373 5.54297C 12.9043 5.55078 13.3594 5.69531 13.7383 5.97656C 14.1172 6.25781 14.3965 6.64648 14.5762 7.14258C 14.7598 7.63477 14.8223 8.17383 14.7637 8.75977L 14.752 8.88867C 14.6777 9.50586 14.4941 10.0645 14.2012 10.5645C 13.9082 11.0605 13.5293 11.4473 13.0645 11.7246C 12.5996 12.002 12.0898 12.1328 11.5352 12.1172C 11.0078 12.1094 10.5527 11.9648 10.1699 11.6836C 9.79102 11.4023 9.51367 11.0195 9.33789 10.5352C 9.16211 10.0508 9.09961 9.51758 9.15039 8.93555C 9.20898 8.2793 9.38672 7.68945 9.68359 7.16602C 9.98047 6.64258 10.3613 6.23828 10.8262 5.95312C 11.2949 5.66406 11.8105 5.52734 12.373 5.54297ZM 10.2168 8.94141C 10.1895 9.1875 10.1895 9.44336 10.2168 9.70898C 10.2559 10.1699 10.3926 10.5371 10.627 10.8105C 10.8652 11.084 11.1816 11.2266 11.5762 11.2383C 11.9277 11.25 12.252 11.1641 12.5488 10.9805C 12.8457 10.793 13.0957 10.5117 13.2988 10.1367C 13.502 9.76172 13.6328 9.3457 13.6914 8.88867C 13.7227 8.5293 13.7285 8.22656 13.709 7.98047C 13.6621 7.50781 13.5195 7.13477 13.2812 6.86133C 13.043 6.58789 12.7266 6.44336 12.332 6.42773C 11.7852 6.41602 11.3203 6.63086 10.9375 7.07227C 10.5547 7.51367 10.3184 8.0918 10.2285 8.80664L 10.2168 8.94141ZM 18.2324 11.2383C 18.6113 11.2461 18.9531 11.1367 19.2578 10.9102C 19.5625 10.6797 19.7617 10.3789 19.8555 10.0078L 20.8574 10.002C 20.7988 10.4004 20.6387 10.7637 20.377 11.0918C 20.1191 11.4199 19.793 11.6758 19.3984 11.8594C 19.0039 12.043 18.5996 12.1289 18.1855 12.1172C 17.6582 12.1094 17.2109 11.9727 16.8438 11.707C 16.4805 11.4375 16.2129 11.0645 16.041 10.5879C 15.8691 10.1074 15.8105 9.56836 15.8652 8.9707L 15.8945 8.67773C 15.9688 8.06836 16.1465 7.52344 16.4277 7.04297C 16.709 6.5625 17.0762 6.18945 17.5293 5.92383C 17.9824 5.6543 18.4824 5.52734 19.0293 5.54297C 19.6934 5.55859 20.2246 5.78125 20.623 6.21094C 21.0215 6.64062 21.2207 7.18555 21.2207 7.8457L 20.2305 7.83984C 20.2227 7.42578 20.1074 7.0918 19.8848 6.83789C 19.6621 6.58008 19.3613 6.44336 18.9824 6.42773C 18.4316 6.41602 17.9727 6.62109 17.6055 7.04297C 17.2422 7.46484 17.0156 8.05469 16.9258 8.8125L 16.9082 8.96484C 16.8848 9.21484 16.8809 9.47266 16.8965 9.73828C 16.9238 10.1953 17.0527 10.5566 17.2832 10.8223C 17.5137 11.0879 17.8301 11.2266 18.2324 11.2383ZM 25.5859 12C 25.5586 11.8867 25.5449 11.7754 25.5449 11.666L 25.5625 11.332C 24.9805 11.8711 24.3633 12.1328 23.7109 12.1172C 23.1523 12.1094 22.6973 11.9336 22.3457 11.5898C 21.998 11.2422 21.8398 10.8086 21.8711 10.2891C 21.9102 9.61719 22.2031 9.09375 22.75 8.71875C 23.3008 8.33984 24.0234 8.15039 24.918 8.15039L 26.0254 8.15625L 26.0957 7.65234C 26.1348 7.27344 26.0605 6.97461 25.873 6.75586C 25.6895 6.5332 25.4121 6.41797 25.041 6.41016C 24.6777 6.40234 24.3555 6.49219 24.0742 6.67969C 23.7969 6.86328 23.627 7.10742 23.5645 7.41211L 22.498 7.41797C 22.5332 7.04688 22.6777 6.71875 22.9316 6.43359C 23.1855 6.14453 23.5117 5.92188 23.9102 5.76562C 24.3086 5.60547 24.7207 5.5293 25.1465 5.53711C 25.8066 5.55273 26.3203 5.75391 26.6875 6.14062C 27.0547 6.52344 27.209 7.0332 27.1504 7.66992L 26.6348 10.8105L 26.6055 11.2617C 26.5977 11.4766 26.6211 11.6895 26.6758 11.9004L 26.6641 12L 25.5859 12ZM 23.9219 11.1797C 24.2617 11.1875 24.582 11.1074 24.8828 10.9395C 25.1875 10.7676 25.4492 10.5312 25.668 10.2305L 25.8965 8.92383L 25.0938 8.91797C 24.4258 8.91797 23.9141 9.02344 23.5586 9.23438C 23.2031 9.44531 23.002 9.74414 22.9551 10.1309C 22.9199 10.4277 22.9883 10.6758 23.1602 10.875C 23.3359 11.0703 23.5898 11.1719 23.9219 11.1797ZM 30.9062 4.125L 30.6367 5.66016L 31.791 5.66016L 31.6445 6.49805L 30.4961 6.49805L 29.834 10.4414C 29.8223 10.543 29.8203 10.6367 29.8281 10.7227C 29.8555 11.0273 30.0215 11.1797 30.3262 11.1797C 30.4551 11.1797 30.627 11.1602 30.8418 11.1211L 30.7598 12.0059C 30.5059 12.0762 30.248 12.1113 29.9863 12.1113C 29.5645 12.1035 29.248 11.9492 29.0371 11.6484C 28.8262 11.3438 28.7441 10.9355 28.791 10.4238L 29.4355 6.49805L 28.3164 6.49805L 28.4629 5.66016L 29.582 5.66016L 29.8516 4.125L 30.9062 4.125ZM 34.7148 12.1172C 33.9258 12.1016 33.3086 11.8105 32.8633 11.2441C 32.418 10.6777 32.2305 9.95312 32.3008 9.07031L 32.3301 8.81836C 32.3965 8.18945 32.582 7.61523 32.8867 7.0957C 33.1953 6.57617 33.5703 6.18555 34.0117 5.92383C 34.4531 5.6582 34.9297 5.53125 35.4414 5.54297C 36.0938 5.55859 36.6055 5.77539 36.9766 6.19336C 37.3477 6.61133 37.5508 7.17773 37.5859 7.89258C 37.5977 8.14648 37.5898 8.40039 37.5625 8.6543L 37.498 9.14062L 33.3555 9.14062C 33.2852 9.71484 33.3789 10.2031 33.6367 10.6055C 33.8984 11.0078 34.2871 11.2168 34.8027 11.2324C 35.4277 11.248 36.0059 10.9668 36.5371 10.3887L 37.1465 10.9043C 36.8809 11.2871 36.5371 11.5879 36.1152 11.8066C 35.6973 12.0215 35.2305 12.125 34.7148 12.1172ZM 35.3887 6.42773C 34.9512 6.41602 34.5684 6.56445 34.2402 6.87305C 33.916 7.18164 33.6582 7.64062 33.4668 8.25L 36.5488 8.25586L 36.5723 8.16211C 36.6348 7.66992 36.5547 7.26172 36.332 6.9375C 36.1133 6.60938 35.7988 6.43945 35.3887 6.42773ZM 38.5 8.81836C 38.5781 8.17383 38.7559 7.5918 39.0332 7.07227C 39.3105 6.55273 39.6523 6.16406 40.0586 5.90625C 40.4648 5.64844 40.9121 5.52539 41.4004 5.53711C 42.1074 5.55273 42.6504 5.81055 43.0293 6.31055L 43.6387 3L 44.6992 3L 43.1406 12L 42.1738 12L 42.2852 11.3203C 41.7852 11.8672 41.168 12.1328 40.4336 12.1172C 39.8477 12.1016 39.3809 11.873 39.0332 11.4316C 38.6855 10.9863 38.498 10.3906 38.4707 9.64453C 38.459 9.41406 38.4688 9.13867 38.5 8.81836ZM 39.5195 9.42773C 39.5078 9.98633 39.6074 10.4199 39.8184 10.7285C 40.0293 11.0371 40.3379 11.1953 40.7441 11.2031C 41.3574 11.2305 41.9023 10.9219 42.3789 10.2773L 42.8828 7.34766C 42.6484 6.76953 42.2227 6.47266 41.6055 6.45703C 41.1875 6.44531 40.8184 6.57227 40.498 6.83789C 40.1816 7.09961 39.9395 7.46875 39.7715 7.94531C 39.6074 8.41797 39.5234 8.91211 39.5195 9.42773ZM 51.6367 12C 51.6094 11.8867 51.5957 11.7754 51.5957 11.666L 51.6133 11.332C 51.0312 11.8711 50.4141 12.1328 49.7617 12.1172C 49.2031 12.1094 48.748 11.9336 48.3965 11.5898C 48.0488 11.2422 47.8906 10.8086 47.9219 10.2891C 47.9609 9.61719 48.2539 9.09375 48.8008 8.71875C 49.3516 8.33984 50.0742 8.15039 50.9688 8.15039L 52.0762 8.15625L 52.1465 7.65234C 52.1855 7.27344 52.1113 6.97461 51.9238 6.75586C 51.7402 6.5332 51.4629 6.41797 51.0918 6.41016C 50.7285 6.40234 50.4062 6.49219 50.125 6.67969C 49.8477 6.86328 49.6777 7.10742 49.6152 7.41211L 48.5488 7.41797C 48.584 7.04688 48.7285 6.71875 48.9824 6.43359C 49.2363 6.14453 49.5625 5.92188 49.9609 5.76562C 50.3594 5.60547 50.7715 5.5293 51.1973 5.53711C 51.8574 5.55273 52.3711 5.75391 52.7383 6.14062C 53.1055 6.52344 53.2598 7.0332 53.2012 7.66992L 52.6855 10.8105L 52.6562 11.2617C 52.6484 11.4766 52.6719 11.6895 52.7266 11.9004L 52.7148 12L 51.6367 12ZM 49.9727 11.1797C 50.3125 11.1875 50.6328 11.1074 50.9336 10.9395C 51.2383 10.7676 51.5 10.5312 51.7188 10.2305L 51.9473 8.92383L 51.1445 8.91797C 50.4766 8.91797 49.9648 9.02344 49.6094 9.23438C 49.2539 9.44531 49.0527 9.74414 49.0059 10.1309C 48.9707 10.4277 49.0391 10.6758 49.2109 10.875C 49.3867 11.0703 49.6406 11.1719 49.9727 11.1797ZM 56.957 4.125L 56.6875 5.66016L 57.8418 5.66016L 57.6953 6.49805L 56.5469 6.49805L 55.8848 10.4414C 55.873 10.543 55.8711 10.6367 55.8789 10.7227C 55.9062 11.0273 56.0723 11.1797 56.377 11.1797C 56.5059 11.1797 56.6777 11.1602 56.8926 11.1211L 56.8105 12.0059C 56.5566 12.0762 56.2988 12.1113 56.0371 12.1113C 55.6152 12.1035 55.2988 11.9492 55.0879 11.6484C 54.877 11.3438 54.7949 10.9355 54.8418 10.4238L 55.4863 6.49805L 54.3672 6.49805L 54.5137 5.66016L 55.6328 5.66016L 55.9023 4.125L 56.957 4.125ZM 64.9082 6.62695L 64.4102 6.57422C 63.7305 6.57422 63.1953 6.88086 62.8047 7.49414L 62.0254 12L 60.9648 12L 62.0664 5.66016L 63.0918 5.6543L 62.9336 6.39258C 63.3828 5.80273 63.9121 5.51562 64.5215 5.53125C 64.6504 5.53125 64.8184 5.56055 65.0254 5.61914L 64.9082 6.62695ZM 68.3652 5.54297C 68.8965 5.55078 69.3516 5.69531 69.7305 5.97656C 70.1094 6.25781 70.3887 6.64648 70.5684 7.14258C 70.752 7.63477 70.8145 8.17383 70.7559 8.75977L 70.7441 8.88867C 70.6699 9.50586 70.4863 10.0645 70.1934 10.5645C 69.9004 11.0605 69.5215 11.4473 69.0566 11.7246C 68.5918 12.002 68.082 12.1328 67.5273 12.1172C 67 12.1094 66.5449 11.9648 66.1621 11.6836C 65.7832 11.4023 65.5059 11.0195 65.3301 10.5352C 65.1543 10.0508 65.0918 9.51758 65.1426 8.93555C 65.2012 8.2793 65.3789 7.68945 65.6758 7.16602C 65.9727 6.64258 66.3535 6.23828 66.8184 5.95312C 67.2871 5.66406 67.8027 5.52734 68.3652 5.54297ZM 66.209 8.94141C 66.1816 9.1875 66.1816 9.44336 66.209 9.70898C 66.248 10.1699 66.3848 10.5371 66.6191 10.8105C 66.8574 11.084 67.1738 11.2266 67.5684 11.2383C 67.9199 11.25 68.2441 11.1641 68.541 10.9805C 68.8379 10.793 69.0879 10.5117 69.291 10.1367C 69.4941 9.76172 69.625 9.3457 69.6836 8.88867C 69.7148 8.5293 69.7207 8.22656 69.7012 7.98047C 69.6543 7.50781 69.5117 7.13477 69.2734 6.86133C 69.0352 6.58789 68.7188 6.44336 68.3242 6.42773C 67.7773 6.41602 67.3125 6.63086 66.9297 7.07227C 66.5469 7.51367 66.3105 8.0918 66.2207 8.80664L 66.209 8.94141ZM 77.2363 10.5L 79.2578 5.66016L 80.3535 5.66016L 77.4648 12L 76.6035 12L 75.9473 7.20703L 73.6621 12L 72.8008 12L 72.1152 5.66016L 73.1289 5.66016L 73.5156 10.3828L 75.7656 5.66016L 76.6211 5.66016L 77.2363 10.5ZM 88.9902 10.5L 91.0117 5.66016L 92.1074 5.66016L 89.2188 12L 88.3574 12L 87.7012 7.20703L 85.416 12L 84.5547 12L 83.8691 5.66016L 84.8828 5.66016L 85.2695 10.3828L 87.5195 5.66016L 88.375 5.66016L 88.9902 10.5ZM 93.2617 12L 92.207 12L 93.3086 5.66016L 94.3633 5.66016L 93.2617 12ZM 94.1348 3.3457C 94.3145 3.33789 94.4629 3.39258 94.5801 3.50977C 94.7012 3.62305 94.7617 3.77344 94.7617 3.96094C 94.7578 4.14453 94.6973 4.29492 94.5801 4.41211C 94.4668 4.5293 94.3184 4.5918 94.1348 4.59961C 93.9512 4.60742 93.8008 4.55469 93.6836 4.44141C 93.5664 4.32812 93.5098 4.17969 93.5137 3.99609C 93.5176 3.8125 93.5762 3.66016 93.6895 3.53906C 93.8027 3.41797 93.9512 3.35352 94.1348 3.3457ZM 97.7969 4.125L 97.5273 5.66016L 98.6816 5.66016L 98.5352 6.49805L 97.3867 6.49805L 96.7246 10.4414C 96.7129 10.543 96.7109 10.6367 96.7188 10.7227C 96.7461 11.0273 96.9121 11.1797 97.2168 11.1797C 97.3457 11.1797 97.5176 11.1602 97.7324 11.1211L 97.6504 12.0059C 97.3965 12.0762 97.1387 12.1113 96.877 12.1113C 96.4551 12.1035 96.1387 11.9492 95.9277 11.6484C 95.7168 11.3438 95.6348 10.9355 95.6816 10.4238L 96.3262 6.49805L 95.207 6.49805L 95.3535 5.66016L 96.4727 5.66016L 96.7422 4.125L 97.7969 4.125ZM 100.844 6.43359C 101.398 5.82812 102.037 5.5332 102.76 5.54883C 103.354 5.55664 103.793 5.76172 104.078 6.16406C 104.367 6.5625 104.475 7.12305 104.4 7.8457L 103.709 12L 102.648 12L 103.346 7.82812C 103.369 7.63672 103.371 7.45898 103.352 7.29492C 103.285 6.74805 102.963 6.46875 102.385 6.45703C 101.736 6.44141 101.178 6.78125 100.709 7.47656L 99.9238 12L 98.8633 12L 100.428 3L 101.488 3L 100.844 6.43359ZM 109.422 12L 108.367 12L 109.926 3L 110.986 3L 109.422 12ZM 115.035 12C 115.008 11.8867 114.994 11.7754 114.994 11.666L 115.012 11.332C 114.43 11.8711 113.812 12.1328 113.16 12.1172C 112.602 12.1094 112.146 11.9336 111.795 11.5898C 111.447 11.2422 111.289 10.8086 111.32 10.2891C 111.359 9.61719 111.652 9.09375 112.199 8.71875C 112.75 8.33984 113.473 8.15039 114.367 8.15039L 115.475 8.15625L 115.545 7.65234C 115.584 7.27344 115.51 6.97461 115.322 6.75586C 115.139 6.5332 114.861 6.41797 114.49 6.41016C 114.127 6.40234 113.805 6.49219 113.523 6.67969C 113.246 6.86328 113.076 7.10742 113.014 7.41211L 111.947 7.41797C 111.982 7.04688 112.127 6.71875 112.381 6.43359C 112.635 6.14453 112.961 5.92188 113.359 5.76562C 113.758 5.60547 114.17 5.5293 114.596 5.53711C 115.256 5.55273 115.77 5.75391 116.137 6.14062C 116.504 6.52344 116.658 7.0332 116.6 7.66992L 116.084 10.8105L 116.055 11.2617C 116.047 11.4766 116.07 11.6895 116.125 11.9004L 116.113 12L 115.035 12ZM 113.371 11.1797C 113.711 11.1875 114.031 11.1074 114.332 10.9395C 114.637 10.7676 114.898 10.5312 115.117 10.2305L 115.346 8.92383L 114.543 8.91797C 113.875 8.91797 113.363 9.02344 113.008 9.23438C 112.652 9.44531 112.451 9.74414 112.404 10.1309C 112.369 10.4277 112.438 10.6758 112.609 10.875C 112.785 11.0703 113.039 11.1719 113.371 11.1797ZM 123.309 8.85938C 123.23 9.50781 123.053 10.0918 122.775 10.6113C 122.498 11.1309 122.162 11.5156 121.768 11.7656C 121.373 12.0156 120.936 12.1348 120.455 12.123C 119.689 12.1074 119.121 11.8203 118.75 11.2617L 118.533 12L 117.555 12L 119.119 3L 120.18 3L 119.541 6.36328C 120.049 5.80078 120.666 5.52734 121.393 5.54297C 122.002 5.55859 122.477 5.7832 122.816 6.2168C 123.156 6.65039 123.336 7.24805 123.355 8.00977C 123.359 8.25977 123.348 8.50195 123.32 8.73633L 123.309 8.85938ZM 122.301 8.24414C 122.312 7.67383 122.217 7.23828 122.014 6.9375C 121.811 6.63281 121.5 6.47266 121.082 6.45703C 120.422 6.44141 119.863 6.77344 119.406 7.45312L 118.932 10.2129C 119.166 10.8574 119.605 11.1875 120.25 11.2031C 120.664 11.2188 121.025 11.0957 121.334 10.834C 121.646 10.5723 121.883 10.207 122.043 9.73828C 122.203 9.26562 122.289 8.76758 122.301 8.24414ZM 126.895 12.1172C 126.105 12.1016 125.488 11.8105 125.043 11.2441C 124.598 10.6777 124.41 9.95312 124.48 9.07031L 124.51 8.81836C 124.576 8.18945 124.762 7.61523 125.066 7.0957C 125.375 6.57617 125.75 6.18555 126.191 5.92383C 126.633 5.6582 127.109 5.53125 127.621 5.54297C 128.273 5.55859 128.785 5.77539 129.156 6.19336C 129.527 6.61133 129.73 7.17773 129.766 7.89258C 129.777 8.14648 129.77 8.40039 129.742 8.6543L 129.678 9.14062L 125.535 9.14062C 125.465 9.71484 125.559 10.2031 125.816 10.6055C 126.078 11.0078 126.467 11.2168 126.982 11.2324C 127.607 11.248 128.186 10.9668 128.717 10.3887L 129.326 10.9043C 129.061 11.2871 128.717 11.5879 128.295 11.8066C 127.877 12.0215 127.41 12.125 126.895 12.1172ZM 127.568 6.42773C 127.131 6.41602 126.748 6.56445 126.42 6.87305C 126.096 7.18164 125.838 7.64062 125.646 8.25L 128.729 8.25586L 128.752 8.16211C 128.814 7.66992 128.734 7.26172 128.512 6.9375C 128.293 6.60938 127.979 6.43945 127.568 6.42773ZM 131.523 12L 130.469 12L 132.027 3L 133.088 3L 131.523 12ZM 137.086 13.224C 137.166 13.248 137.246 13.268 137.326 13.284C 137.406 13.3 137.49 13.308 137.578 13.308C 137.954 13.308 138.254 13.212 138.478 13.02C 138.702 12.836 138.874 12.596 138.994 12.3L 139.138 11.928L 136.498 6.108L 137.878 6.108L 139.09 9C 139.202 9.264 139.31 9.544 139.414 9.84C 139.518 10.136 139.626 10.432 139.738 10.728L 139.786 10.728C 139.874 10.448 139.97 10.16 140.074 9.864C 140.178 9.568 140.278 9.28 140.374 9L 141.442 6.108L 142.75 6.108L 140.29 12.264C 140.162 12.6 140.018 12.9 139.858 13.164C 139.706 13.428 139.526 13.652 139.318 13.836C 139.11 14.028 138.87 14.172 138.598 14.268C 138.326 14.372 138.014 14.424 137.662 14.424C 137.502 14.424 137.35 14.412 137.206 14.388C 137.062 14.372 136.934 14.344 136.822 14.304L 137.086 13.224Z"/>
</defs>
</svg>
