<svg width="740" height="406" viewBox="0 0 740 406" version="1.1" xmlns="http://www.w3.org/2000/svg" xmlns:xlink="http://www.w3.org/1999/xlink">
<title>Frame</title>
<desc>Created using Figma</desc>
<g id="Canvas" transform="matrix(2 0 0 2 50 1222)">
<clipPath id="clip-0" clip-rule="evenodd">
<path d="M -25 -611L 345 -611L 345 -408L -25 -408L -25 -611Z" fill="#FFFFFF"/>
</clipPath>
<g id="Frame" clip-path="url(#clip-0)">
<path d="M -25 -611L 345 -611L 345 -408L -25 -408L -25 -611Z" fill="#FFFFFF"/>
<g id="row 2">
<g id="code">
<g id="Rectangle">
<use xlink:href="#path0_fill" transform="translate(155 -473)" fill="#F1F4F8"/>
</g>
<g id="df.iloc[1]">
<use xlink:href="#path1_fill" transform="translate(166 -472)" fill="#2E383C"/>
<use xlink:href="#path2_fill" transform="translate(166 -472)" fill="#197D1C"/>
</g>
</g>
<g id="table">
<g id="Rectangle">
<use xlink:href="#path3_stroke" transform="translate(30 -489)"/>
</g>
<g id="Rectangle">
<use xlink:href="#path3_stroke" transform="translate(30 -467.375)"/>
</g>
<g id="Rectangle">
<use xlink:href="#path3_stroke" transform="translate(30 -445.75)"/>
</g>
<g id="Rectangle">
<use xlink:href="#path3_stroke" transform="translate(52 -489)"/>
</g>
<g id="Rectangle">
<use xlink:href="#path3_stroke" transform="translate(52 -467.375)"/>
</g>
<g id="Rectangle">
<use xlink:href="#path3_stroke" transform="translate(52 -445.75)"/>
</g>
<g id="Rectangle">
<use xlink:href="#path3_stroke" transform="translate(74 -489)"/>
</g>
<g id="Rectangle">
<use xlink:href="#path3_stroke" transform="translate(74 -467.375)"/>
</g>
<g id="Rectangle">
<use xlink:href="#path3_stroke" transform="translate(74 -445.75)"/>
</g>
<g id="Rectangle">
<use xlink:href="#path4_fill" transform="translate(30 -467)" fill="#56CCF2" fill-opacity="0.6"/>
<use xlink:href="#path5_stroke" transform="translate(30 -467)" fill="#56CCF2"/>
</g>
<g id="x">
<use xlink:href="#path6_fill" transform="translate(20 -485)" fill="#828282"/>
</g>
<g id="y">
<use xlink:href="#path7_fill" transform="translate(20 -463)" fill="#828282"/>
</g>
<g id="z">
<use xlink:href="#path8_fill" transform="translate(20 -441)" fill="#828282"/>
</g>
<g id="B">
<use xlink:href="#path9_fill" transform="translate(59 -504)" fill="#828282"/>
</g>
<g id="A">
<use xlink:href="#path10_fill" transform="translate(37 -504)" fill="#828282"/>
</g>
<g id="C">
<use xlink:href="#path11_fill" transform="translate(81 -504)" fill="#828282"/>
</g>
</g>
</g>
<g id="row 1">
<g id="code">
<g id="Rectangle">
<use xlink:href="#path0_fill" transform="translate(155 -572)" fill="#F1F4F8"/>
</g>
<g id="df.iloc[2,0]">
<use xlink:href="#path12_fill" transform="translate(166 -571)" fill="#2E383C"/>
<use xlink:href="#path13_fill" transform="translate(166 -571)" fill="#197D1C"/>
</g>
</g>
<g id="table">
<g id="Rectangle">
<use xlink:href="#path3_stroke" transform="translate(30 -588)"/>
</g>
<g id="Rectangle">
<use xlink:href="#path3_stroke" transform="translate(30 -566.375)"/>
</g>
<g id="Rectangle">
<use xlink:href="#path3_stroke" transform="translate(30 -544.75)"/>
</g>
<g id="Rectangle">
<use xlink:href="#path3_stroke" transform="translate(52 -588)"/>
</g>
<g id="Rectangle">
<use xlink:href="#path3_stroke" transform="translate(52 -566.375)"/>
</g>
<g id="Rectangle">
<use xlink:href="#path3_stroke" transform="translate(52 -544.75)"/>
</g>
<g id="Rectangle">
<use xlink:href="#path3_stroke" transform="translate(74 -588)"/>
</g>
<g id="Rectangle">
<use xlink:href="#path3_stroke" transform="translate(74 -566.375)"/>
</g>
<g id="Rectangle">
<use xlink:href="#path3_stroke" transform="translate(74 -544.75)"/>
</g>
<g id="Rectangle">
<use xlink:href="#path14_fill" transform="translate(30 -545)" fill="#56CCF2" fill-opacity="0.6"/>
<use xlink:href="#path15_stroke" transform="translate(30 -545)" fill="#56CCF2"/>
</g>
<g id="x">
<use xlink:href="#path6_fill" transform="translate(20 -584)" fill="#828282"/>
</g>
<g id="y">
<use xlink:href="#path7_fill" transform="translate(20 -562)" fill="#828282"/>
</g>
<g id="z">
<use xlink:href="#path8_fill" transform="translate(20 -540)" fill="#828282"/>
</g>
<g id="B">
<use xlink:href="#path9_fill" transform="translate(59 -603)" fill="#828282"/>
</g>
<g id="A">
<use xlink:href="#path10_fill" transform="translate(37 -603)" fill="#828282"/>
</g>
<g id="C">
<use xlink:href="#path11_fill" transform="translate(81 -603)" fill="#828282"/>
</g>
</g>
</g>
</g>
</g>
<defs>
<path id="path0_fill" d="M 0 0L 151 0L 151 32L 0 32L 0 0Z"/>
<path id="path1_fill" d="M 0.636 16.06C 0.636 15.58 0.708 15.148 0.852 14.764C 0.996 14.38 1.188 14.056 1.428 13.792C 1.676 13.528 1.956 13.324 2.268 13.18C 2.58 13.036 2.904 12.964 3.24 12.964C 3.592 12.964 3.892 13.028 4.14 13.156C 4.396 13.276 4.644 13.444 4.884 13.66L 4.824 12.664L 4.824 10.528L 6.216 10.528L 6.216 19L 5.076 19L 4.968 18.316L 4.932 18.316C 4.7 18.548 4.428 18.744 4.116 18.904C 3.812 19.064 3.492 19.144 3.156 19.144C 2.78 19.144 2.436 19.076 2.124 18.94C 1.812 18.796 1.544 18.592 1.32 18.328C 1.104 18.064 0.936 17.744 0.816 17.368C 0.696 16.984 0.636 16.548 0.636 16.06ZM 2.064 16.048C 2.064 16.688 2.188 17.176 2.436 17.512C 2.684 17.84 3.036 18.004 3.492 18.004C 3.98 18.004 4.424 17.768 4.824 17.296L 4.824 14.644C 4.616 14.444 4.408 14.304 4.2 14.224C 3.992 14.144 3.78 14.104 3.564 14.104C 3.356 14.104 3.16 14.148 2.976 14.236C 2.8 14.324 2.644 14.452 2.508 14.62C 2.372 14.78 2.264 14.98 2.184 15.22C 2.104 15.46 2.064 15.736 2.064 16.048ZM 13.8913 11.728C 13.6753 11.64 13.4633 11.576 13.2553 11.536C 13.0553 11.496 12.8353 11.476 12.5953 11.476C 12.1393 11.476 11.8073 11.588 11.5993 11.812C 11.3993 12.028 11.2993 12.344 11.2993 12.76L 11.2993 13.108L 13.5433 13.108L 13.5433 14.2L 11.2993 14.2L 11.2993 19L 9.93131 19L 9.93131 14.2L 8.29931 14.2L 8.29931 13.168L 9.93131 13.108L 9.93131 12.784C 9.93131 12.44 9.97931 12.12 10.0753 11.824C 10.1713 11.528 10.3193 11.276 10.5193 11.068C 10.7273 10.852 10.9873 10.684 11.2993 10.564C 11.6193 10.444 11.9953 10.384 12.4273 10.384C 12.7473 10.384 13.0513 10.412 13.3393 10.468C 13.6353 10.524 13.9153 10.604 14.1793 10.708L 13.8913 11.728ZM 16.8026 17.932C 16.8026 17.58 16.9146 17.292 17.1386 17.068C 17.3626 16.836 17.6466 16.72 17.9906 16.72C 18.3346 16.72 18.6186 16.836 18.8426 17.068C 19.0666 17.292 19.1786 17.58 19.1786 17.932C 19.1786 18.284 19.0666 18.576 18.8426 18.808C 18.6186 19.032 18.3346 19.144 17.9906 19.144C 17.6466 19.144 17.3626 19.032 17.1386 18.808C 16.9146 18.576 16.8026 18.284 16.8026 17.932ZM 22.5939 13.108L 26.5299 13.108L 26.5299 19L 25.1499 19L 25.1499 14.2L 22.5939 14.2L 22.5939 13.108ZM 25.7379 12.076C 25.4579 12.076 25.2219 11.992 25.0299 11.824C 24.8459 11.656 24.7539 11.432 24.7539 11.152C 24.7539 10.872 24.8459 10.648 25.0299 10.48C 25.2219 10.304 25.4579 10.216 25.7379 10.216C 26.0259 10.216 26.2619 10.304 26.4459 10.48C 26.6299 10.648 26.7219 10.872 26.7219 11.152C 26.7219 11.432 26.6299 11.656 26.4459 11.824C 26.2619 11.992 26.0259 12.076 25.7379 12.076ZM 29.6333 10.528L 32.8732 10.528L 32.8732 16.924C 32.8732 17.324 32.9732 17.608 33.1732 17.776C 33.3733 17.936 33.6252 18.016 33.9292 18.016C 34.2172 18.016 34.5533 17.94 34.9373 17.788L 35.2613 18.808C 34.9813 18.904 34.7172 18.984 34.4693 19.048C 34.2293 19.112 33.9373 19.144 33.5932 19.144C 32.8973 19.144 32.3733 18.944 32.0213 18.544C 31.6693 18.144 31.4932 17.58 31.4932 16.852L 31.4932 11.62L 29.6333 11.62L 29.6333 10.528ZM 36.6126 16.06C 36.6126 15.572 36.6926 15.136 36.8526 14.752C 37.0206 14.368 37.2406 14.044 37.5126 13.78C 37.7846 13.516 38.1006 13.316 38.4606 13.18C 38.8206 13.036 39.1926 12.964 39.5766 12.964C 39.9606 12.964 40.3326 13.036 40.6926 13.18C 41.0526 13.316 41.3686 13.516 41.6406 13.78C 41.9126 14.044 42.1286 14.368 42.2886 14.752C 42.4566 15.136 42.5406 15.572 42.5406 16.06C 42.5406 16.548 42.4566 16.984 42.2886 17.368C 42.1286 17.752 41.9126 18.076 41.6406 18.34C 41.3686 18.604 41.0526 18.804 40.6926 18.94C 40.3326 19.076 39.9606 19.144 39.5766 19.144C 39.1926 19.144 38.8206 19.076 38.4606 18.94C 38.1006 18.804 37.7846 18.604 37.5126 18.34C 37.2406 18.076 37.0206 17.752 36.8526 17.368C 36.6926 16.984 36.6126 16.548 36.6126 16.06ZM 38.0406 16.06C 38.0406 16.652 38.1766 17.128 38.4486 17.488C 38.7206 17.84 39.0966 18.016 39.5766 18.016C 40.0566 18.016 40.4326 17.84 40.7046 17.488C 40.9766 17.128 41.1126 16.652 41.1126 16.06C 41.1126 15.46 40.9766 14.984 40.7046 14.632C 40.4326 14.272 40.0566 14.092 39.5766 14.092C 39.0966 14.092 38.7206 14.272 38.4486 14.632C 38.1766 14.984 38.0406 15.46 38.0406 16.06ZM 44.0479 16.06C 44.0479 15.572 44.1359 15.136 44.3119 14.752C 44.4959 14.368 44.7399 14.044 45.0439 13.78C 45.3479 13.516 45.7039 13.316 46.1119 13.18C 46.5199 13.036 46.9479 12.964 47.3959 12.964C 47.8759 12.964 48.2959 13.044 48.6559 13.204C 49.0239 13.364 49.3319 13.56 49.5799 13.792L 48.9199 14.656C 48.6879 14.472 48.4519 14.332 48.2119 14.236C 47.9799 14.14 47.7319 14.092 47.4679 14.092C 46.8759 14.092 46.3959 14.272 46.0279 14.632C 45.6599 14.984 45.4759 15.46 45.4759 16.06C 45.4759 16.356 45.5239 16.624 45.6199 16.864C 45.7159 17.104 45.8479 17.312 46.0159 17.488C 46.1919 17.656 46.3999 17.788 46.6399 17.884C 46.8799 17.972 47.1439 18.016 47.4319 18.016C 47.7679 18.016 48.0719 17.952 48.3439 17.824C 48.6239 17.696 48.8799 17.544 49.1119 17.368L 49.6879 18.256C 49.3519 18.552 48.9759 18.776 48.5599 18.928C 48.1439 19.072 47.7239 19.144 47.2999 19.144C 46.8359 19.144 46.4039 19.076 46.0039 18.94C 45.6119 18.804 45.2679 18.604 44.9719 18.34C 44.6839 18.076 44.4559 17.752 44.2879 17.368C 44.1279 16.984 44.0479 16.548 44.0479 16.06ZM 52.9232 10.504L 56.3552 10.504L 56.3552 11.26L 53.9912 11.26L 53.9912 20.068L 56.3552 20.068L 56.3552 20.824L 52.9232 20.824L 52.9232 10.504ZM 68.3338 20.068L 68.3338 11.26L 65.9818 11.26L 65.9818 10.504L 69.4138 10.504L 69.4138 20.824L 65.9818 20.824L 65.9818 20.068L 68.3338 20.068Z"/>
<path id="path2_fill" d="M 63.9585 17.872L 63.9585 19L 58.6425 19L 58.6425 17.872L 60.7065 17.872L 60.7065 12.856L 59.1105 12.856L 59.1105 11.992C 59.5425 11.92 59.9105 11.836 60.2145 11.74C 60.5265 11.636 60.8145 11.512 61.0785 11.368L 62.0865 11.368L 62.0865 17.872L 63.9585 17.872Z"/>
<path id="path3_stroke" d="M 0 0L 0 -0.5L -0.5 -0.5L -0.5 0L 0 0ZM 22 0L 22.5 0L 22.5 -0.5L 22 -0.5L 22 0ZM 22 22L 22 22.5L 22.5 22.5L 22.5 22L 22 22ZM 0 22L -0.5 22L -0.5 22.5L 0 22.5L 0 22ZM 0 0.5L 22 0.5L 22 -0.5L 0 -0.5L 0 0.5ZM 21.5 0L 21.5 22L 22.5 22L 22.5 0L 21.5 0ZM 22 21.5L 0 21.5L 0 22.5L 22 22.5L 22 21.5ZM 0.5 22L 0.5 0L -0.5 0L -0.5 22L 0.5 22Z"/>
<path id="path4_fill" d="M 0 0L 66 0L 66 21L 0 21L 0 0Z"/>
<path id="path5_stroke" d="M 0 0L 0 -1L -1 -1L -1 0L 0 0ZM 66 0L 67 0L 67 -1L 66 -1L 66 0ZM 66 21L 66 22L 67 22L 67 21L 66 21ZM 0 21L -1 21L -1 22L 0 22L 0 21ZM 0 1L 66 1L 66 -1L 0 -1L 0 1ZM 65 0L 65 21L 67 21L 67 0L 65 0ZM 66 20L 0 20L 0 22L 66 22L 66 20ZM 1 21L 1 0L -1 0L -1 21L 1 21Z"/>
<path id="path6_fill" d="M 2.94727 6.97461L 4.35352 4.66016L 5.61914 4.66016L 3.54492 7.79492L 5.68359 11L 4.42969 11L 2.96484 8.62695L 1.5 11L 0.240234 11L 2.37891 7.79492L 0.304688 4.66016L 1.55859 4.66016L 2.94727 6.97461Z"/>
<path id="path7_fill" d="M 2.89453 9.41211L 4.37109 4.66016L 5.53125 4.66016L 2.98242 11.9785C 2.58789 13.0332 1.96094 13.5605 1.10156 13.5605L 0.896484 13.543L 0.492188 13.4668L 0.492188 12.5879L 0.785156 12.6113C 1.15234 12.6113 1.4375 12.5371 1.64062 12.3887C 1.84766 12.2402 2.01758 11.9688 2.15039 11.5742L 2.39062 10.9297L 0.128906 4.66016L 1.3125 4.66016L 2.89453 9.41211Z"/>
<path id="path8_fill" d="M 1.83984 10.1152L 5.54883 10.1152L 5.54883 11L 0.515625 11L 0.515625 10.2031L 4.01367 5.55664L 0.568359 5.55664L 0.568359 4.66016L 5.37305 4.66016L 5.37305 5.42773L 1.83984 10.1152Z"/>
<path id="path9_fill" d="M 0.990234 11L 0.990234 2.46875L 3.7793 2.46875C 4.70508 2.46875 5.40039 2.66016 5.86523 3.04297C 6.33398 3.42578 6.56836 3.99219 6.56836 4.74219C 6.56836 5.14062 6.45508 5.49414 6.22852 5.80273C 6.00195 6.10742 5.69336 6.34375 5.30273 6.51172C 5.76367 6.64062 6.12695 6.88672 6.39258 7.25C 6.66211 7.60938 6.79688 8.03906 6.79688 8.53906C 6.79688 9.30469 6.54883 9.90625 6.05273 10.3438C 5.55664 10.7812 4.85547 11 3.94922 11L 0.990234 11ZM 2.11523 7.00977L 2.11523 10.0801L 3.97266 10.0801C 4.49609 10.0801 4.9082 9.94531 5.20898 9.67578C 5.51367 9.40234 5.66602 9.02734 5.66602 8.55078C 5.66602 7.52344 5.10742 7.00977 3.99023 7.00977L 2.11523 7.00977ZM 2.11523 6.10742L 3.81445 6.10742C 4.30664 6.10742 4.69922 5.98438 4.99219 5.73828C 5.28906 5.49219 5.4375 5.1582 5.4375 4.73633C 5.4375 4.26758 5.30078 3.92773 5.02734 3.7168C 4.75391 3.50195 4.33789 3.39453 3.7793 3.39453L 2.11523 3.39453L 2.11523 6.10742Z"/>
<path id="path10_fill" d="M 5.70117 8.77344L 2.12695 8.77344L 1.32422 11L 0.164062 11L 3.42188 2.46875L 4.40625 2.46875L 7.66992 11L 6.51562 11L 5.70117 8.77344ZM 2.4668 7.84766L 5.36719 7.84766L 3.91406 3.85742L 2.4668 7.84766Z"/>
<path id="path11_fill" d="M 7.26562 8.29297C 7.16016 9.19531 6.82617 9.89258 6.26367 10.3848C 5.70508 10.873 4.96094 11.1172 4.03125 11.1172C 3.02344 11.1172 2.21484 10.7559 1.60547 10.0332C 1 9.31055 0.697266 8.34375 0.697266 7.13281L 0.697266 6.3125C 0.697266 5.51953 0.837891 4.82227 1.11914 4.2207C 1.4043 3.61914 1.80664 3.1582 2.32617 2.83789C 2.8457 2.51367 3.44727 2.35156 4.13086 2.35156C 5.03711 2.35156 5.76367 2.60547 6.31055 3.11328C 6.85742 3.61719 7.17578 4.31641 7.26562 5.21094L 6.13477 5.21094C 6.03711 4.53125 5.82422 4.03906 5.49609 3.73438C 5.17188 3.42969 4.7168 3.27734 4.13086 3.27734C 3.41211 3.27734 2.84766 3.54297 2.4375 4.07422C 2.03125 4.60547 1.82812 5.36133 1.82812 6.3418L 1.82812 7.16797C 1.82812 8.09375 2.02148 8.83008 2.4082 9.37695C 2.79492 9.92383 3.33594 10.1973 4.03125 10.1973C 4.65625 10.1973 5.13477 10.0566 5.4668 9.77539C 5.80273 9.49023 6.02539 8.99609 6.13477 8.29297L 7.26562 8.29297Z"/>
<path id="path12_fill" d="M 0.636 16.06C 0.636 15.58 0.708 15.148 0.852 14.764C 0.996 14.38 1.188 14.056 1.428 13.792C 1.676 13.528 1.956 13.324 2.268 13.18C 2.58 13.036 2.904 12.964 3.24 12.964C 3.592 12.964 3.892 13.028 4.14 13.156C 4.396 13.276 4.644 13.444 4.884 13.66L 4.824 12.664L 4.824 10.528L 6.216 10.528L 6.216 19L 5.076 19L 4.968 18.316L 4.932 18.316C 4.7 18.548 4.428 18.744 4.116 18.904C 3.812 19.064 3.492 19.144 3.156 19.144C 2.78 19.144 2.436 19.076 2.124 18.94C 1.812 18.796 1.544 18.592 1.32 18.328C 1.104 18.064 0.936 17.744 0.816 17.368C 0.696 16.984 0.636 16.548 0.636 16.06ZM 2.064 16.048C 2.064 16.688 2.188 17.176 2.436 17.512C 2.684 17.84 3.036 18.004 3.492 18.004C 3.98 18.004 4.424 17.768 4.824 17.296L 4.824 14.644C 4.616 14.444 4.408 14.304 4.2 14.224C 3.992 14.144 3.78 14.104 3.564 14.104C 3.356 14.104 3.16 14.148 2.976 14.236C 2.8 14.324 2.644 14.452 2.508 14.62C 2.372 14.78 2.264 14.98 2.184 15.22C 2.104 15.46 2.064 15.736 2.064 16.048ZM 13.8913 11.728C 13.6753 11.64 13.4633 11.576 13.2553 11.536C 13.0553 11.496 12.8353 11.476 12.5953 11.476C 12.1393 11.476 11.8073 11.588 11.5993 11.812C 11.3993 12.028 11.2993 12.344 11.2993 12.76L 11.2993 13.108L 13.5433 13.108L 13.5433 14.2L 11.2993 14.2L 11.2993 19L 9.93131 19L 9.93131 14.2L 8.29931 14.2L 8.29931 13.168L 9.93131 13.108L 9.93131 12.784C 9.93131 12.44 9.97931 12.12 10.0753 11.824C 10.1713 11.528 10.3193 11.276 10.5193 11.068C 10.7273 10.852 10.9873 10.684 11.2993 10.564C 11.6193 10.444 11.9953 10.384 12.4273 10.384C 12.7473 10.384 13.0513 10.412 13.3393 10.468C 13.6353 10.524 13.9153 10.604 14.1793 10.708L 13.8913 11.728ZM 16.8026 17.932C 16.8026 17.58 16.9146 17.292 17.1386 17.068C 17.3626 16.836 17.6466 16.72 17.9906 16.72C 18.3346 16.72 18.6186 16.836 18.8426 17.068C 19.0666 17.292 19.1786 17.58 19.1786 17.932C 19.1786 18.284 19.0666 18.576 18.8426 18.808C 18.6186 19.032 18.3346 19.144 17.9906 19.144C 17.6466 19.144 17.3626 19.032 17.1386 18.808C 16.9146 18.576 16.8026 18.284 16.8026 17.932ZM 22.5939 13.108L 26.5299 13.108L 26.5299 19L 25.1499 19L 25.1499 14.2L 22.5939 14.2L 22.5939 13.108ZM 25.7379 12.076C 25.4579 12.076 25.2219 11.992 25.0299 11.824C 24.8459 11.656 24.7539 11.432 24.7539 11.152C 24.7539 10.872 24.8459 10.648 25.0299 10.48C 25.2219 10.304 25.4579 10.216 25.7379 10.216C 26.0259 10.216 26.2619 10.304 26.4459 10.48C 26.6299 10.648 26.7219 10.872 26.7219 11.152C 26.7219 11.432 26.6299 11.656 26.4459 11.824C 26.2619 11.992 26.0259 12.076 25.7379 12.076ZM 29.6333 10.528L 32.8732 10.528L 32.8732 16.924C 32.8732 17.324 32.9732 17.608 33.1732 17.776C 33.3733 17.936 33.6252 18.016 33.9292 18.016C 34.2172 18.016 34.5533 17.94 34.9373 17.788L 35.2613 18.808C 34.9813 18.904 34.7172 18.984 34.4693 19.048C 34.2293 19.112 33.9373 19.144 33.5932 19.144C 32.8973 19.144 32.3733 18.944 32.0213 18.544C 31.6693 18.144 31.4932 17.58 31.4932 16.852L 31.4932 11.62L 29.6333 11.62L 29.6333 10.528ZM 36.6126 16.06C 36.6126 15.572 36.6926 15.136 36.8526 14.752C 37.0206 14.368 37.2406 14.044 37.5126 13.78C 37.7846 13.516 38.1006 13.316 38.4606 13.18C 38.8206 13.036 39.1926 12.964 39.5766 12.964C 39.9606 12.964 40.3326 13.036 40.6926 13.18C 41.0526 13.316 41.3686 13.516 41.6406 13.78C 41.9126 14.044 42.1286 14.368 42.2886 14.752C 42.4566 15.136 42.5406 15.572 42.5406 16.06C 42.5406 16.548 42.4566 16.984 42.2886 17.368C 42.1286 17.752 41.9126 18.076 41.6406 18.34C 41.3686 18.604 41.0526 18.804 40.6926 18.94C 40.3326 19.076 39.9606 19.144 39.5766 19.144C 39.1926 19.144 38.8206 19.076 38.4606 18.94C 38.1006 18.804 37.7846 18.604 37.5126 18.34C 37.2406 18.076 37.0206 17.752 36.8526 17.368C 36.6926 16.984 36.6126 16.548 36.6126 16.06ZM 38.0406 16.06C 38.0406 16.652 38.1766 17.128 38.4486 17.488C 38.7206 17.84 39.0966 18.016 39.5766 18.016C 40.0566 18.016 40.4326 17.84 40.7046 17.488C 40.9766 17.128 41.1126 16.652 41.1126 16.06C 41.1126 15.46 40.9766 14.984 40.7046 14.632C 40.4326 14.272 40.0566 14.092 39.5766 14.092C 39.0966 14.092 38.7206 14.272 38.4486 14.632C 38.1766 14.984 38.0406 15.46 38.0406 16.06ZM 44.0479 16.06C 44.0479 15.572 44.1359 15.136 44.3119 14.752C 44.4959 14.368 44.7399 14.044 45.0439 13.78C 45.3479 13.516 45.7039 13.316 46.1119 13.18C 46.5199 13.036 46.9479 12.964 47.3959 12.964C 47.8759 12.964 48.2959 13.044 48.6559 13.204C 49.0239 13.364 49.3319 13.56 49.5799 13.792L 48.9199 14.656C 48.6879 14.472 48.4519 14.332 48.2119 14.236C 47.9799 14.14 47.7319 14.092 47.4679 14.092C 46.8759 14.092 46.3959 14.272 46.0279 14.632C 45.6599 14.984 45.4759 15.46 45.4759 16.06C 45.4759 16.356 45.5239 16.624 45.6199 16.864C 45.7159 17.104 45.8479 17.312 46.0159 17.488C 46.1919 17.656 46.3999 17.788 46.6399 17.884C 46.8799 17.972 47.1439 18.016 47.4319 18.016C 47.7679 18.016 48.0719 17.952 48.3439 17.824C 48.6239 17.696 48.8799 17.544 49.1119 17.368L 49.6879 18.256C 49.3519 18.552 48.9759 18.776 48.5599 18.928C 48.1439 19.072 47.7239 19.144 47.2999 19.144C 46.8359 19.144 46.4039 19.076 46.0039 18.94C 45.6119 18.804 45.2679 18.604 44.9719 18.34C 44.6839 18.076 44.4559 17.752 44.2879 17.368C 44.1279 16.984 44.0479 16.548 44.0479 16.06ZM 52.9232 10.504L 56.3552 10.504L 56.3552 11.26L 53.9912 11.26L 53.9912 20.068L 56.3552 20.068L 56.3552 20.824L 52.9232 20.824L 52.9232 10.504ZM 67.0258 20.752C 68.0418 20.344 68.5538 19.728 68.5618 18.904C 68.5218 18.912 68.4658 18.916 68.3938 18.916C 68.0898 18.916 67.8258 18.828 67.6018 18.652C 67.3778 18.468 67.2658 18.2 67.2658 17.848C 67.2658 17.512 67.3778 17.252 67.6018 17.068C 67.8338 16.876 68.1058 16.78 68.4178 16.78C 68.8498 16.78 69.1738 16.94 69.3898 17.26C 69.6058 17.58 69.7138 18.02 69.7138 18.58C 69.7138 19.316 69.5138 19.936 69.1138 20.44C 68.7138 20.952 68.1378 21.332 67.3858 21.58L 67.0258 20.752ZM 82.7244 20.068L 82.7244 11.26L 80.3724 11.26L 80.3724 10.504L 83.8044 10.504L 83.8044 20.824L 80.3724 20.824L 80.3724 20.068L 82.7244 20.068Z"/>
<path id="path13_fill" d="M 58.3425 18.196C 58.9425 17.684 59.4785 17.216 59.9505 16.792C 60.4225 16.36 60.8225 15.96 61.1505 15.592C 61.4865 15.224 61.7425 14.88 61.9185 14.56C 62.0945 14.24 62.1825 13.932 62.1825 13.636C 62.1825 13.228 62.0585 12.908 61.8105 12.676C 61.5625 12.436 61.1985 12.316 60.7185 12.316C 60.3825 12.316 60.0745 12.4 59.7945 12.568C 59.5225 12.736 59.2705 12.936 59.0385 13.168L 58.2825 12.4C 58.6505 12.024 59.0385 11.736 59.4465 11.536C 59.8545 11.328 60.3385 11.224 60.8985 11.224C 61.2905 11.224 61.6465 11.28 61.9665 11.392C 62.2865 11.504 62.5585 11.664 62.7825 11.872C 63.0145 12.072 63.1905 12.316 63.3105 12.604C 63.4385 12.892 63.5025 13.212 63.5025 13.564C 63.5025 13.9 63.4185 14.244 63.2505 14.596C 63.0905 14.94 62.8705 15.292 62.5905 15.652C 62.3105 16.004 61.9745 16.368 61.5825 16.744C 61.1985 17.12 60.7865 17.508 60.3465 17.908C 60.5705 17.892 60.8065 17.876 61.0545 17.86C 61.3025 17.836 61.5305 17.824 61.7385 17.824L 63.8985 17.824L 63.8985 19L 58.3425 19L 58.3425 18.196ZM 75.5531 19.144C 74.6811 19.144 73.9891 18.8 73.4771 18.112C 72.9731 17.424 72.7211 16.436 72.7211 15.148C 72.7211 13.852 72.9731 12.876 73.4771 12.22C 73.9891 11.556 74.6811 11.224 75.5531 11.224C 76.4251 11.224 77.1131 11.556 77.6171 12.22C 78.1291 12.876 78.3851 13.852 78.3851 15.148C 78.3851 16.436 78.1291 17.424 77.6171 18.112C 77.1131 18.8 76.4251 19.144 75.5531 19.144ZM 75.5531 12.304C 75.3211 12.304 75.1091 12.356 74.9171 12.46C 74.7251 12.556 74.5571 12.716 74.4131 12.94C 74.2771 13.164 74.1691 13.46 74.0891 13.828C 74.0091 14.188 73.9691 14.628 73.9691 15.148C 73.9691 15.668 74.0091 16.116 74.0891 16.492C 74.1691 16.86 74.2771 17.16 74.4131 17.392C 74.5571 17.624 74.7251 17.796 74.9171 17.908C 75.1091 18.012 75.3211 18.064 75.5531 18.064C 75.7771 18.064 75.9851 18.012 76.1771 17.908C 76.3771 17.796 76.5451 17.624 76.6811 17.392C 76.8251 17.16 76.9371 16.86 77.0171 16.492C 77.0971 16.116 77.1371 15.668 77.1371 15.148C 77.1371 14.628 77.0971 14.188 77.0171 13.828C 76.9371 13.46 76.8251 13.164 76.6811 12.94C 76.5451 12.716 76.3771 12.556 76.1771 12.46C 75.9851 12.356 75.7771 12.304 75.5531 12.304ZM 75.5531 15.952C 75.3211 15.952 75.1251 15.876 74.9651 15.724C 74.8051 15.572 74.7251 15.364 74.7251 15.1C 74.7251 14.836 74.8051 14.628 74.9651 14.476C 75.1251 14.324 75.3211 14.248 75.5531 14.248C 75.7851 14.248 75.9811 14.324 76.1411 14.476C 76.3011 14.628 76.3811 14.836 76.3811 15.1C 76.3811 15.364 76.3011 15.572 76.1411 15.724C 75.9811 15.876 75.7851 15.952 75.5531 15.952Z"/>
<path id="path14_fill" d="M 0 0L 22 0L 22 22L 0 22L 0 0Z"/>
<path id="path15_stroke" d="M 0 0L 0 -1L -1 -1L -1 0L 0 0ZM 22 0L 23 0L 23 -1L 22 -1L 22 0ZM 22 22L 22 23L 23 23L 23 22L 22 22ZM 0 22L -1 22L -1 23L 0 23L 0 22ZM 0 1L 22 1L 22 -1L 0 -1L 0 1ZM 21 0L 21 22L 23 22L 23 0L 21 0ZM 22 21L 0 21L 0 23L 22 23L 22 21ZM 1 22L 1 0L -1 0L -1 22L 1 22Z"/>
</defs>
</svg>
