<svg width="1120" height="372" viewBox="0 0 1120 372" version="1.1" xmlns="http://www.w3.org/2000/svg" xmlns:xlink="http://www.w3.org/1999/xlink">
<title>Frame</title>
<desc>Created using Figma</desc>
<g id="Canvas" transform="matrix(2 0 0 2 248 -656)">
<clipPath id="clip-0" clip-rule="evenodd">
<path d="M -124 328L 436 328L 436 514L -124 514L -124 328Z" fill="#FFFFFF"/>
</clipPath>
<g id="Frame" clip-path="url(#clip-0)">
<path d="M -124 328L 436 328L 436 514L -124 514L -124 328Z" fill="#FFFFFF"/>
<g id="Group 2">
<g id="Rectangle">
<use xlink:href="#path0_stroke" transform="translate(260 344)"/>
</g>
<g id="False">
<use xlink:href="#path1_fill" transform="translate(261 349)" fill="#EB5757"/>
</g>
<g id="Rectangle">
<use xlink:href="#path0_stroke" transform="translate(260 370.6)"/>
</g>
<g id="True">
<use xlink:href="#path2_fill" transform="translate(262 375.709)" fill="#27AE60"/>
</g>
<g id="Rectangle">
<use xlink:href="#path0_stroke" transform="translate(260 397.2)"/>
</g>
<g id="True">
<use xlink:href="#path2_fill" transform="translate(260.5 402.419)" fill="#27AE60"/>
</g>
<g id="Rectangle">
<use xlink:href="#path0_stroke" transform="translate(260 423.8)"/>
</g>
<g id="True">
<use xlink:href="#path2_fill" transform="translate(260.5 429.128)" fill="#27AE60"/>
</g>
<g id="1">
<use xlink:href="#path3_fill" transform="translate(242 376)" fill="#828282"/>
</g>
<g id="2">
<use xlink:href="#path4_fill" transform="translate(242 403)" fill="#828282"/>
</g>
<g id="3">
<use xlink:href="#path5_fill" transform="translate(243 429)" fill="#828282"/>
</g>
<g id="Rectangle">
<use xlink:href="#path0_stroke" transform="translate(260 450.4)"/>
</g>
<g id="False">
<use xlink:href="#path1_fill" transform="translate(260.5 455.838)" fill="#EB5757"/>
</g>
<g id="china">
<use xlink:href="#path6_fill" transform="translate(252 479)" fill="#4F4F4F"/>
</g>
<g id="4">
<use xlink:href="#path7_fill" transform="translate(242 456)" fill="#828282"/>
</g>
<g id="0">
<use xlink:href="#path8_fill" transform="translate(242 349)" fill="#828282"/>
</g>
</g>
<g id="Group">
<g id="Rectangle">
<use xlink:href="#path9_fill" transform="translate(-124 389)" fill="#F1F4F8"/>
</g>
<g id="combined = over_265 &#38; china">
<use xlink:href="#path10_fill" transform="translate(-119.747 390)" fill="#2E383C"/>
<use xlink:href="#path11_fill" transform="translate(-119.747 390)" fill="#A541F8"/>
</g>
</g>
<g id="Group 2.1">
<g id="Rectangle">
<use xlink:href="#path0_stroke" transform="translate(172 344)"/>
</g>
<g id="True">
<use xlink:href="#path2_fill" transform="translate(173 349)" fill="#27AE60"/>
</g>
<g id="Rectangle">
<use xlink:href="#path0_stroke" transform="translate(172 370.6)"/>
</g>
<g id="True">
<use xlink:href="#path2_fill" transform="translate(174 375.709)" fill="#27AE60"/>
</g>
<g id="Rectangle">
<use xlink:href="#path0_stroke" transform="translate(172 397.2)"/>
</g>
<g id="True">
<use xlink:href="#path2_fill" transform="translate(172.5 402.419)" fill="#27AE60"/>
</g>
<g id="Rectangle">
<use xlink:href="#path0_stroke" transform="translate(172 423.8)"/>
</g>
<g id="False">
<use xlink:href="#path1_fill" transform="translate(172.5 429.128)" fill="#EB5757"/>
</g>
<g id="1">
<use xlink:href="#path3_fill" transform="translate(154 376)" fill="#828282"/>
</g>
<g id="2">
<use xlink:href="#path4_fill" transform="translate(154 403)" fill="#828282"/>
</g>
<g id="3">
<use xlink:href="#path5_fill" transform="translate(155 429)" fill="#828282"/>
</g>
<g id="Rectangle">
<use xlink:href="#path0_stroke" transform="translate(172 450.4)"/>
</g>
<g id="False">
<use xlink:href="#path1_fill" transform="translate(172.5 455.838)" fill="#EB5757"/>
</g>
<g id="over_265">
<use xlink:href="#path12_fill" transform="translate(161 479)" fill="#4F4F4F"/>
</g>
<g id="4">
<use xlink:href="#path7_fill" transform="translate(154 456)" fill="#828282"/>
</g>
<g id="0">
<use xlink:href="#path8_fill" transform="translate(154 349)" fill="#828282"/>
</g>
</g>
<g id="&#38;">
<use xlink:href="#path13_fill" transform="translate(229 350)" fill="#A541F8"/>
</g>
<g id="&#38;">
<use xlink:href="#path13_fill" transform="translate(229 377)" fill="#A541F8"/>
</g>
<g id="&#38;">
<use xlink:href="#path13_fill" transform="translate(229 403)" fill="#A541F8"/>
</g>
<g id="&#38;">
<use xlink:href="#path13_fill" transform="translate(230 430)" fill="#A541F8"/>
</g>
<g id="&#38;">
<use xlink:href="#path13_fill" transform="translate(230 456)" fill="#A541F8"/>
</g>
<g id="Group 2.2">
<g id="Rectangle">
<use xlink:href="#path0_stroke" transform="translate(364 344)"/>
</g>
<g id="False">
<use xlink:href="#path1_fill" transform="translate(365 349)" fill="#EB5757"/>
</g>
<g id="Rectangle">
<use xlink:href="#path0_stroke" transform="translate(364 370.6)"/>
</g>
<g id="True">
<use xlink:href="#path2_fill" transform="translate(366 375.709)" fill="#27AE60"/>
</g>
<g id="Rectangle">
<use xlink:href="#path0_stroke" transform="translate(364 397.2)"/>
</g>
<g id="True">
<use xlink:href="#path2_fill" transform="translate(364.5 402.419)" fill="#27AE60"/>
</g>
<g id="Rectangle">
<use xlink:href="#path0_stroke" transform="translate(364 423.8)"/>
</g>
<g id="False">
<use xlink:href="#path1_fill" transform="translate(364.5 429.128)" fill="#EB5757"/>
</g>
<g id="1">
<use xlink:href="#path3_fill" transform="translate(346 376)" fill="#828282"/>
</g>
<g id="2">
<use xlink:href="#path4_fill" transform="translate(346 403)" fill="#828282"/>
</g>
<g id="3">
<use xlink:href="#path5_fill" transform="translate(347 429)" fill="#828282"/>
</g>
<g id="Rectangle">
<use xlink:href="#path0_stroke" transform="translate(364 450.4)"/>
</g>
<g id="False">
<use xlink:href="#path1_fill" transform="translate(364.5 455.838)" fill="#EB5757"/>
</g>
<g id="combined">
<use xlink:href="#path14_fill" transform="translate(352 479)" fill="#4F4F4F"/>
</g>
<g id="4">
<use xlink:href="#path7_fill" transform="translate(346 456)" fill="#828282"/>
</g>
<g id="0">
<use xlink:href="#path8_fill" transform="translate(346 349)" fill="#828282"/>
</g>
</g>
<g id="=">
<use xlink:href="#path15_fill" transform="translate(326 350)" fill="#A541F8"/>
</g>
<g id="=">
<use xlink:href="#path15_fill" transform="translate(326 377)" fill="#A541F8"/>
</g>
<g id="=">
<use xlink:href="#path15_fill" transform="translate(326 403)" fill="#A541F8"/>
</g>
<g id="=">
<use xlink:href="#path15_fill" transform="translate(327 430)" fill="#A541F8"/>
</g>
<g id="=">
<use xlink:href="#path15_fill" transform="translate(327 456)" fill="#A541F8"/>
</g>
</g>
</g>
<defs>
<path id="path0_stroke" d="M 0 0L 0 -0.5L -0.5 -0.5L -0.5 0L 0 0ZM 51 0L 51.5 0L 51.5 -0.5L 51 -0.5L 51 0ZM 51 26.6L 51 27.1L 51.5 27.1L 51.5 26.6L 51 26.6ZM 0 26.6L -0.5 26.6L -0.5 27.1L 0 27.1L 0 26.6ZM 0 0.5L 51 0.5L 51 -0.5L 0 -0.5L 0 0.5ZM 50.5 0L 50.5 26.6L 51.5 26.6L 51.5 0L 50.5 0ZM 51 26.1L 0 26.1L 0 27.1L 51 27.1L 51 26.1ZM 0.5 26.6L 0.5 0L -0.5 0L -0.5 26.6L 0.5 26.6Z"/>
<path id="path1_fill" d="M 14.0605 8.60449L 9.88379 8.60449L 9.88379 13L 8.57129 13L 8.57129 3.04688L 14.7373 3.04688L 14.7373 4.12695L 9.88379 4.12695L 9.88379 7.53125L 14.0605 7.53125L 14.0605 8.60449ZM 20.4453 13C 20.3724 12.8542 20.3132 12.5944 20.2676 12.2207C 19.6797 12.8314 18.9779 13.1367 18.1621 13.1367C 17.4329 13.1367 16.8337 12.9316 16.3643 12.5215C 15.8994 12.1068 15.667 11.5827 15.667 10.9492C 15.667 10.179 15.9587 9.58203 16.542 9.1582C 17.1299 8.72982 17.9548 8.51562 19.0166 8.51562L 20.2471 8.51562L 20.2471 7.93457C 20.2471 7.49251 20.1149 7.1416 19.8506 6.88184C 19.5863 6.61751 19.1966 6.48535 18.6816 6.48535C 18.2305 6.48535 17.8522 6.59928 17.5469 6.82715C 17.2415 7.05501 17.0889 7.33073 17.0889 7.6543L 15.8174 7.6543C 15.8174 7.28516 15.9473 6.92969 16.207 6.58789C 16.4714 6.24154 16.8268 5.9681 17.2734 5.76758C 17.7246 5.56706 18.2191 5.4668 18.7568 5.4668C 19.609 5.4668 20.2767 5.68099 20.7598 6.10938C 21.2428 6.5332 21.4935 7.11882 21.5117 7.86621L 21.5117 11.2705C 21.5117 11.9495 21.5983 12.4896 21.7715 12.8906L 21.7715 13L 20.4453 13ZM 18.3467 12.0361C 18.7432 12.0361 19.1191 11.9336 19.4746 11.7285C 19.8301 11.5234 20.0876 11.2568 20.2471 10.9287L 20.2471 9.41113L 19.2559 9.41113C 17.7064 9.41113 16.9316 9.86458 16.9316 10.7715C 16.9316 11.168 17.0638 11.4779 17.3281 11.7012C 17.5924 11.9245 17.932 12.0361 18.3467 12.0361ZM 24.8682 13L 23.6035 13L 23.6035 2.5L 24.8682 2.5L 24.8682 13ZM 31.2051 11.0381C 31.2051 10.6963 31.0752 10.432 30.8154 10.2451C 30.5602 10.0537 30.1113 9.88965 29.4688 9.75293C 28.8307 9.61621 28.3226 9.45215 27.9443 9.26074C 27.5706 9.06934 27.2926 8.84147 27.1104 8.57715C 26.9326 8.31283 26.8438 7.99837 26.8438 7.63379C 26.8438 7.02767 27.099 6.51497 27.6094 6.0957C 28.1243 5.67643 28.7806 5.4668 29.5781 5.4668C 30.4167 5.4668 31.0957 5.68327 31.6152 6.11621C 32.1393 6.54915 32.4014 7.10286 32.4014 7.77734L 31.1299 7.77734C 31.1299 7.43099 30.9818 7.13249 30.6855 6.88184C 30.3939 6.63118 30.0247 6.50586 29.5781 6.50586C 29.1178 6.50586 28.7578 6.60612 28.498 6.80664C 28.2383 7.00716 28.1084 7.26921 28.1084 7.59277C 28.1084 7.89811 28.2292 8.12826 28.4707 8.2832C 28.7122 8.43815 29.1475 8.58626 29.7764 8.72754C 30.4098 8.86882 30.9225 9.03743 31.3145 9.2334C 31.7064 9.42936 31.9958 9.66634 32.1826 9.94434C 32.374 10.2178 32.4697 10.5527 32.4697 10.9492C 32.4697 11.61 32.2054 12.141 31.6768 12.542C 31.1481 12.9385 30.4622 13.1367 29.6191 13.1367C 29.0267 13.1367 28.5026 13.0319 28.0469 12.8223C 27.5911 12.6126 27.2334 12.321 26.9736 11.9473C 26.7184 11.569 26.5908 11.1611 26.5908 10.7236L 27.8555 10.7236C 27.8783 11.1475 28.0469 11.4847 28.3613 11.7354C 28.6803 11.9814 29.0996 12.1045 29.6191 12.1045C 30.0977 12.1045 30.4805 12.0088 30.7676 11.8174C 31.0592 11.6214 31.2051 11.3617 31.2051 11.0381ZM 37.1865 13.1367C 36.1839 13.1367 35.3682 12.8086 34.7393 12.1523C 34.1104 11.4915 33.7959 10.6097 33.7959 9.50684L 33.7959 9.27441C 33.7959 8.54069 33.9349 7.88672 34.2129 7.3125C 34.4954 6.73372 34.8874 6.28255 35.3887 5.95898C 35.8945 5.63086 36.4414 5.4668 37.0293 5.4668C 37.9909 5.4668 38.7383 5.78353 39.2715 6.41699C 39.8047 7.05046 40.0713 7.95736 40.0713 9.1377L 40.0713 9.66406L 35.0605 9.66406C 35.0788 10.3932 35.2907 10.9834 35.6963 11.4346C 36.1064 11.8812 36.626 12.1045 37.2549 12.1045C 37.7015 12.1045 38.0798 12.0133 38.3896 11.8311C 38.6995 11.6488 38.9707 11.4072 39.2031 11.1064L 39.9756 11.708C 39.3558 12.6605 38.4261 13.1367 37.1865 13.1367ZM 37.0293 6.50586C 36.5189 6.50586 36.0905 6.69271 35.7441 7.06641C 35.3978 7.43555 35.1836 7.95508 35.1016 8.625L 38.8066 8.625L 38.8066 8.5293C 38.7702 7.88672 38.597 7.38997 38.2871 7.03906C 37.9772 6.68359 37.5579 6.50586 37.0293 6.50586Z"/>
<path id="path2_fill" d="M 18.1689 4.12695L 14.9697 4.12695L 14.9697 13L 13.6641 13L 13.6641 4.12695L 10.4717 4.12695L 10.4717 3.04688L 18.1689 3.04688L 18.1689 4.12695ZM 22.5029 6.73828C 22.3115 6.70638 22.1042 6.69043 21.8809 6.69043C 21.0514 6.69043 20.4886 7.04362 20.1924 7.75L 20.1924 13L 18.9277 13L 18.9277 5.60352L 20.1582 5.60352L 20.1787 6.45801C 20.5934 5.7972 21.1813 5.4668 21.9424 5.4668C 22.1885 5.4668 22.3753 5.4987 22.5029 5.5625L 22.5029 6.73828ZM 28.2383 12.2686C 27.7461 12.8473 27.0238 13.1367 26.0713 13.1367C 25.2829 13.1367 24.6813 12.9089 24.2666 12.4531C 23.8564 11.9928 23.6491 11.3138 23.6445 10.416L 23.6445 5.60352L 24.9092 5.60352L 24.9092 10.3818C 24.9092 11.5029 25.3649 12.0635 26.2764 12.0635C 27.2425 12.0635 27.8851 11.7035 28.2041 10.9834L 28.2041 5.60352L 29.4688 5.60352L 29.4688 13L 28.2656 13L 28.2383 12.2686ZM 34.4658 13.1367C 33.4632 13.1367 32.6475 12.8086 32.0186 12.1523C 31.3896 11.4915 31.0752 10.6097 31.0752 9.50684L 31.0752 9.27441C 31.0752 8.54069 31.2142 7.88672 31.4922 7.3125C 31.7747 6.73372 32.1667 6.28255 32.668 5.95898C 33.1738 5.63086 33.7207 5.4668 34.3086 5.4668C 35.2702 5.4668 36.0176 5.78353 36.5508 6.41699C 37.084 7.05046 37.3506 7.95736 37.3506 9.1377L 37.3506 9.66406L 32.3398 9.66406C 32.3581 10.3932 32.57 10.9834 32.9756 11.4346C 33.3857 11.8812 33.9053 12.1045 34.5342 12.1045C 34.9808 12.1045 35.359 12.0133 35.6689 11.8311C 35.9788 11.6488 36.25 11.4072 36.4824 11.1064L 37.2549 11.708C 36.6351 12.6605 35.7054 13.1367 34.4658 13.1367ZM 34.3086 6.50586C 33.7982 6.50586 33.3698 6.69271 33.0234 7.06641C 32.6771 7.43555 32.4629 7.95508 32.3809 8.625L 36.0859 8.625L 36.0859 8.5293C 36.0495 7.88672 35.8763 7.38997 35.5664 7.03906C 35.2565 6.68359 34.8372 6.50586 34.3086 6.50586Z"/>
<path id="path3_fill" d="M 9.55273 13L 8.28125 13L 8.28125 4.57129L 5.73145 5.50781L 5.73145 4.35938L 9.35449 2.99902L 9.55273 2.99902L 9.55273 13Z"/>
<path id="path4_fill" d="M 11.918 13L 5.39648 13L 5.39648 12.0908L 8.8418 8.2627C 9.35221 7.68392 9.70312 7.21452 9.89453 6.85449C 10.0905 6.48991 10.1885 6.11393 10.1885 5.72656C 10.1885 5.20703 10.0312 4.78092 9.7168 4.44824C 9.40234 4.11556 8.98307 3.94922 8.45898 3.94922C 7.83008 3.94922 7.34017 4.12923 6.98926 4.48926C 6.6429 4.84473 6.46973 5.34147 6.46973 5.97949L 5.20508 5.97949C 5.20508 5.06348 5.49902 4.32292 6.08691 3.75781C 6.67936 3.19271 7.47005 2.91016 8.45898 2.91016C 9.38411 2.91016 10.1156 3.15397 10.6533 3.6416C 11.1911 4.12467 11.46 4.76953 11.46 5.57617C 11.46 6.55599 10.8356 7.72266 9.58691 9.07617L 6.9209 11.9678L 11.918 11.9678L 11.918 13Z"/>
<path id="path5_fill" d="M 7.23535 7.4082L 8.18555 7.4082C 8.78255 7.39909 9.25195 7.24186 9.59375 6.93652C 9.93555 6.63118 10.1064 6.21875 10.1064 5.69922C 10.1064 4.53255 9.52539 3.94922 8.36328 3.94922C 7.81641 3.94922 7.37891 4.10645 7.05078 4.4209C 6.72721 4.73079 6.56543 5.14323 6.56543 5.6582L 5.30078 5.6582C 5.30078 4.86979 5.58789 4.21582 6.16211 3.69629C 6.74089 3.1722 7.47461 2.91016 8.36328 2.91016C 9.30208 2.91016 10.0381 3.15853 10.5713 3.65527C 11.1045 4.15202 11.3711 4.84245 11.3711 5.72656C 11.3711 6.15951 11.2298 6.57878 10.9473 6.98438C 10.6693 7.38997 10.2887 7.69303 9.80566 7.89355C 10.3525 8.06673 10.7741 8.35384 11.0703 8.75488C 11.3711 9.15592 11.5215 9.64583 11.5215 10.2246C 11.5215 11.1178 11.2298 11.8265 10.6465 12.3506C 10.0632 12.8747 9.30436 13.1367 8.37012 13.1367C 7.43587 13.1367 6.6748 12.8838 6.08691 12.3779C 5.50358 11.8721 5.21191 11.2044 5.21191 10.375L 6.4834 10.375C 6.4834 10.8991 6.6543 11.3184 6.99609 11.6328C 7.33789 11.9473 7.7959 12.1045 8.37012 12.1045C 8.98079 12.1045 9.44792 11.945 9.77148 11.626C 10.0951 11.307 10.2568 10.849 10.2568 10.252C 10.2568 9.67318 10.0791 9.22884 9.72363 8.91895C 9.36816 8.60905 8.85547 8.44954 8.18555 8.44043L 7.23535 8.44043L 7.23535 7.4082Z"/>
<path id="path6_fill" d="M 13.4517 10.528C 13.4517 9.94933 13.559 9.436 13.7737 8.988C 13.9977 8.53067 14.2917 8.148 14.6557 7.84C 15.029 7.532 15.4583 7.29867 15.9437 7.14C 16.429 6.972 16.9377 6.888 17.4697 6.888C 18.0203 6.888 18.515 6.97667 18.9537 7.154C 19.4017 7.33133 19.775 7.55533 20.0737 7.826L 19.1217 9.1C 18.6083 8.736 18.095 8.554 17.5817 8.554C 16.9843 8.554 16.499 8.73133 16.1257 9.086C 15.7523 9.44067 15.5657 9.92133 15.5657 10.528C 15.5657 11.1347 15.743 11.6153 16.0977 11.97C 16.4617 12.3247 16.933 12.502 17.5117 12.502C 17.8757 12.502 18.2117 12.4367 18.5197 12.306C 18.8277 12.1753 19.103 12.0213 19.3457 11.844L 20.1857 13.146C 19.7657 13.5007 19.299 13.762 18.7857 13.93C 18.2817 14.0887 17.7917 14.168 17.3157 14.168C 16.765 14.168 16.2563 14.0887 15.7897 13.93C 15.323 13.762 14.9123 13.524 14.5577 13.216C 14.2123 12.908 13.9417 12.53 13.7457 12.082C 13.5497 11.6247 13.4517 11.1067 13.4517 10.528ZM 21.9162 4.186L 23.9742 4.186L 23.9742 6.594L 23.8622 7.924C 24.0022 7.79333 24.1515 7.66733 24.3102 7.546C 24.4782 7.41533 24.6555 7.30333 24.8422 7.21C 25.0382 7.10733 25.2482 7.028 25.4722 6.972C 25.7055 6.916 25.9529 6.888 26.2142 6.888C 26.9982 6.888 27.5675 7.14 27.9222 7.644C 28.2862 8.148 28.4682 8.83867 28.4682 9.716L 28.4682 14L 26.4102 14L 26.4102 9.982C 26.4102 9.51533 26.3355 9.17467 26.1862 8.96C 26.0369 8.74533 25.7709 8.638 25.3882 8.638C 25.1082 8.638 24.8609 8.69867 24.6462 8.82C 24.4409 8.94133 24.2169 9.12333 23.9742 9.366L 23.9742 14L 21.9162 14L 21.9162 4.186ZM 30.4087 7.056L 35.2527 7.056L 35.2527 14L 33.1947 14L 33.1947 8.666L 30.4087 8.666L 30.4087 7.056ZM 34.1327 6.034C 33.7314 6.034 33.4001 5.922 33.1387 5.698C 32.8867 5.474 32.7607 5.17067 32.7607 4.788C 32.7607 4.40533 32.8867 4.09733 33.1387 3.864C 33.4001 3.62133 33.7314 3.5 34.1327 3.5C 34.5341 3.5 34.8607 3.62133 35.1127 3.864C 35.3741 4.09733 35.5047 4.40533 35.5047 4.788C 35.5047 5.17067 35.3741 5.474 35.1127 5.698C 34.8607 5.922 34.5341 6.034 34.1327 6.034ZM 38.7053 7.056L 40.3853 7.056L 40.5393 7.98L 40.5953 7.98C 40.8939 7.68133 41.2346 7.42467 41.6173 7.21C 42.0093 6.99533 42.4666 6.888 42.9893 6.888C 43.7733 6.888 44.3473 7.14 44.7113 7.644C 45.0753 8.148 45.2573 8.83867 45.2573 9.716L 45.2573 14L 43.1993 14L 43.1993 9.982C 43.1993 9.51533 43.1246 9.17467 42.9753 8.96C 42.8259 8.74533 42.5599 8.638 42.1773 8.638C 41.8973 8.638 41.6499 8.69867 41.4353 8.82C 41.2299 8.94133 41.0059 9.12333 40.7633 9.366L 40.7633 14L 38.7053 14L 38.7053 7.056ZM 46.9458 12.068C 46.9458 11.676 47.0298 11.3353 47.1978 11.046C 47.3658 10.7473 47.6318 10.4953 47.9958 10.29C 48.3691 10.0847 48.8451 9.92133 49.4238 9.8C 50.0025 9.66933 50.7025 9.58067 51.5238 9.534C 51.4865 9.21667 51.3465 8.96933 51.1038 8.792C 50.8705 8.61467 50.5158 8.526 50.0398 8.526C 49.7038 8.526 49.3631 8.58667 49.0178 8.708C 48.6818 8.82 48.3178 8.974 47.9258 9.17L 47.1978 7.826C 47.6738 7.55533 48.1825 7.33133 48.7238 7.154C 49.2745 6.97667 49.8485 6.888 50.4458 6.888C 51.4165 6.888 52.1818 7.14467 52.7418 7.658C 53.3018 8.17133 53.5818 8.96 53.5818 10.024L 53.5818 14L 51.9018 14L 51.7478 13.216L 51.6918 13.216C 51.3371 13.4867 50.9498 13.7153 50.5298 13.902C 50.1098 14.0793 49.6758 14.168 49.2278 14.168C 48.8731 14.168 48.5558 14.112 48.2758 14C 47.9958 13.8973 47.7578 13.7527 47.5618 13.566C 47.3658 13.37 47.2118 13.146 47.0998 12.894C 46.9971 12.642 46.9458 12.3667 46.9458 12.068ZM 48.9198 11.914C 48.9198 12.138 49.0038 12.306 49.1718 12.418C 49.3491 12.5207 49.5871 12.572 49.8858 12.572C 50.1938 12.572 50.4831 12.5113 50.7538 12.39C 51.0245 12.2593 51.2811 12.1007 51.5238 11.914L 51.5238 10.766C 51.0105 10.794 50.5858 10.8407 50.2498 10.906C 49.9138 10.9713 49.6478 11.0553 49.4518 11.158C 49.2558 11.2513 49.1158 11.3633 49.0318 11.494C 48.9571 11.6247 48.9198 11.7647 48.9198 11.914Z"/>
<path id="path7_fill" d="M 10.7354 9.65723L 12.1162 9.65723L 12.1162 10.6895L 10.7354 10.6895L 10.7354 13L 9.46387 13L 9.46387 10.6895L 4.93164 10.6895L 4.93164 9.94434L 9.38867 3.04688L 10.7354 3.04688L 10.7354 9.65723ZM 6.36719 9.65723L 9.46387 9.65723L 9.46387 4.77637L 9.31348 5.0498L 6.36719 9.65723Z"/>
<path id="path8_fill" d="M 11.6377 8.75488C 11.6377 10.236 11.3848 11.3366 10.8789 12.0566C 10.373 12.7767 9.58236 13.1367 8.50684 13.1367C 7.44499 13.1367 6.65885 12.7858 6.14844 12.084C 5.63802 11.3776 5.3737 10.3249 5.35547 8.92578L 5.35547 7.2373C 5.35547 5.77441 5.6084 4.6875 6.11426 3.97656C 6.62012 3.26562 7.41309 2.91016 8.49316 2.91016C 9.56413 2.91016 10.3525 3.25423 10.8584 3.94238C 11.3643 4.62598 11.624 5.68327 11.6377 7.11426L 11.6377 8.75488ZM 10.373 7.02539C 10.373 5.95443 10.2227 5.17513 9.92188 4.6875C 9.62109 4.19531 9.14486 3.94922 8.49316 3.94922C 7.84603 3.94922 7.37435 4.19303 7.07812 4.68066C 6.7819 5.16829 6.62923 5.91797 6.62012 6.92969L 6.62012 8.95312C 6.62012 10.0286 6.77507 10.8239 7.08496 11.3389C 7.39941 11.8493 7.87337 12.1045 8.50684 12.1045C 9.13118 12.1045 9.59375 11.863 9.89453 11.3799C 10.1999 10.8968 10.3594 10.1357 10.373 9.09668L 10.373 7.02539Z"/>
<path id="path9_fill" d="M 0 0L 258 0L 258 42L 0 42L 0 0Z"/>
<path id="path10_fill" d="M 1.022 21.57C 1.022 21.0007 1.12467 20.492 1.33 20.044C 1.54467 19.596 1.82933 19.218 2.184 18.91C 2.53867 18.602 2.954 18.3687 3.43 18.21C 3.906 18.042 4.40533 17.958 4.928 17.958C 5.488 17.958 5.978 18.0513 6.398 18.238C 6.82733 18.4247 7.18667 18.6533 7.476 18.924L 6.706 19.932C 6.43533 19.7173 6.16 19.554 5.88 19.442C 5.60933 19.33 5.32 19.274 5.012 19.274C 4.32133 19.274 3.76133 19.484 3.332 19.904C 2.90267 20.3147 2.688 20.87 2.688 21.57C 2.688 21.9153 2.744 22.228 2.856 22.508C 2.968 22.788 3.122 23.0307 3.318 23.236C 3.52333 23.432 3.766 23.586 4.046 23.698C 4.326 23.8007 4.634 23.852 4.97 23.852C 5.362 23.852 5.71667 23.7773 6.034 23.628C 6.36067 23.4787 6.65933 23.3013 6.93 23.096L 7.602 24.132C 7.21 24.4773 6.77133 24.7387 6.286 24.916C 5.80067 25.084 5.31067 25.168 4.816 25.168C 4.27467 25.168 3.77067 25.0887 3.304 24.93C 2.84667 24.7713 2.44533 24.538 2.1 24.23C 1.764 23.922 1.498 23.544 1.302 23.096C 1.11533 22.648 1.022 22.1393 1.022 21.57ZM 9.13653 21.57C 9.13653 21.0007 9.22986 20.492 9.41653 20.044C 9.61253 19.596 9.8692 19.218 10.1865 18.91C 10.5039 18.602 10.8725 18.3687 11.2925 18.21C 11.7125 18.042 12.1465 17.958 12.5945 17.958C 13.0425 17.958 13.4765 18.042 13.8965 18.21C 14.3165 18.3687 14.6852 18.602 15.0025 18.91C 15.3199 19.218 15.5719 19.596 15.7585 20.044C 15.9545 20.492 16.0525 21.0007 16.0525 21.57C 16.0525 22.1393 15.9545 22.648 15.7585 23.096C 15.5719 23.544 15.3199 23.922 15.0025 24.23C 14.6852 24.538 14.3165 24.7713 13.8965 24.93C 13.4765 25.0887 13.0425 25.168 12.5945 25.168C 12.1465 25.168 11.7125 25.0887 11.2925 24.93C 10.8725 24.7713 10.5039 24.538 10.1865 24.23C 9.8692 23.922 9.61253 23.544 9.41653 23.096C 9.22986 22.648 9.13653 22.1393 9.13653 21.57ZM 10.8025 21.57C 10.8025 22.2607 10.9612 22.816 11.2785 23.236C 11.5959 23.6467 12.0345 23.852 12.5945 23.852C 13.1545 23.852 13.5932 23.6467 13.9105 23.236C 14.2279 22.816 14.3865 22.2607 14.3865 21.57C 14.3865 20.87 14.2279 20.3147 13.9105 19.904C 13.5932 19.484 13.1545 19.274 12.5945 19.274C 12.0345 19.274 11.5959 19.484 11.2785 19.904C 10.9612 20.3147 10.8025 20.87 10.8025 21.57ZM 17.4611 18.126L 18.6791 18.126L 18.8051 19.008L 18.8471 19.008C 19.0057 18.7093 19.1971 18.462 19.4211 18.266C 19.6544 18.0607 19.9671 17.958 20.3591 17.958C 21.0311 17.958 21.4511 18.3407 21.6191 19.106C 21.7777 18.7793 21.9784 18.5087 22.2211 18.294C 22.4731 18.07 22.7904 17.958 23.1731 17.958C 23.6584 17.958 24.0317 18.1493 24.2931 18.532C 24.5637 18.9053 24.6991 19.4373 24.6991 20.128L 24.6991 25L 23.1731 25L 23.1731 20.254C 23.1731 19.6473 22.9817 19.344 22.5991 19.344C 22.4124 19.344 22.2491 19.414 22.1091 19.554C 21.9691 19.694 21.8337 19.9087 21.7031 20.198L 21.7031 25L 20.4431 25L 20.4431 20.254C 20.4431 19.6473 20.2471 19.344 19.8551 19.344C 19.6684 19.344 19.5097 19.414 19.3791 19.554C 19.2484 19.694 19.1177 19.9087 18.9871 20.198L 18.9871 25L 17.4611 25L 17.4611 18.126ZM 26.3316 15.116L 27.9556 15.116L 27.9556 17.664L 27.8996 18.868C 28.1983 18.588 28.5343 18.3687 28.9076 18.21C 29.2809 18.042 29.6543 17.958 30.0276 17.958C 30.4756 17.958 30.8723 18.042 31.2176 18.21C 31.5629 18.3687 31.8569 18.602 32.0996 18.91C 32.3423 19.2087 32.5243 19.5727 32.6456 20.002C 32.7763 20.4313 32.8416 20.912 32.8416 21.444C 32.8416 22.032 32.7576 22.5593 32.5896 23.026C 32.4216 23.4833 32.1929 23.8707 31.9036 24.188C 31.6236 24.5053 31.2969 24.748 30.9236 24.916C 30.5596 25.084 30.1816 25.168 29.7896 25.168C 29.4629 25.168 29.1223 25.0887 28.7676 24.93C 28.4129 24.7713 28.0863 24.5427 27.7876 24.244L 27.7456 24.244L 27.6056 25L 26.3316 25L 26.3316 15.116ZM 27.9556 23.208C 28.2076 23.4413 28.4689 23.6047 28.7396 23.698C 29.0103 23.7913 29.2529 23.838 29.4676 23.838C 29.9529 23.838 30.3589 23.642 30.6856 23.25C 31.0123 22.8487 31.1756 22.256 31.1756 21.472C 31.1756 20.7813 31.0496 20.2447 30.7976 19.862C 30.5456 19.4793 30.1396 19.288 29.5796 19.288C 29.3183 19.288 29.0523 19.3533 28.7816 19.484C 28.5109 19.6147 28.2356 19.8247 27.9556 20.114L 27.9556 23.208ZM 34.7541 18.126L 39.3461 18.126L 39.3461 25L 37.7361 25L 37.7361 19.4L 34.7541 19.4L 34.7541 18.126ZM 38.4221 16.922C 38.0955 16.922 37.8201 16.824 37.5961 16.628C 37.3815 16.432 37.2741 16.1707 37.2741 15.844C 37.2741 15.5173 37.3815 15.256 37.5961 15.06C 37.8201 14.8547 38.0955 14.752 38.4221 14.752C 38.7581 14.752 39.0335 14.8547 39.2481 15.06C 39.4628 15.256 39.5701 15.5173 39.5701 15.844C 39.5701 16.1707 39.4628 16.432 39.2481 16.628C 39.0335 16.824 38.7581 16.922 38.4221 16.922ZM 43.1207 18.126L 44.4507 18.126L 44.5767 19.162L 44.6327 19.162C 44.9593 18.8353 45.3187 18.5553 45.7107 18.322C 46.112 18.0793 46.5787 17.958 47.1107 17.958C 47.904 17.958 48.4873 18.2007 48.8607 18.686C 49.234 19.162 49.4207 19.848 49.4207 20.744L 49.4207 25L 47.7967 25L 47.7967 20.954C 47.7967 20.394 47.6987 19.988 47.5027 19.736C 47.316 19.4747 46.9847 19.344 46.5087 19.344C 46.1727 19.344 45.874 19.4233 45.6127 19.582C 45.3513 19.7407 45.062 19.9833 44.7447 20.31L 44.7447 25L 43.1207 25L 43.1207 18.126ZM 51.2352 21.57C 51.2352 21.01 51.3332 20.506 51.5292 20.058C 51.7345 19.61 52.0005 19.232 52.3272 18.924C 52.6539 18.6067 53.0272 18.3687 53.4472 18.21C 53.8765 18.042 54.3152 17.958 54.7632 17.958C 55.2765 17.958 55.7292 18.042 56.1212 18.21C 56.5225 18.3687 56.8585 18.5927 57.1292 18.882C 57.3999 19.162 57.6052 19.5027 57.7452 19.904C 57.8852 20.3053 57.9552 20.744 57.9552 21.22C 57.9552 21.3787 57.9459 21.528 57.9272 21.668C 57.9179 21.808 57.9039 21.92 57.8852 22.004L 52.8872 22.004C 52.9432 22.62 53.1859 23.096 53.6152 23.432C 54.0445 23.7587 54.5719 23.922 55.1972 23.922C 55.5519 23.922 55.8832 23.8753 56.1912 23.782C 56.4992 23.6793 56.8119 23.5393 57.1292 23.362L 57.6752 24.37C 57.3019 24.6033 56.8865 24.7947 56.4292 24.944C 55.9719 25.0933 55.4912 25.168 54.9872 25.168C 54.4645 25.168 53.9745 25.0887 53.5172 24.93C 53.0599 24.762 52.6632 24.524 52.3272 24.216C 51.9912 23.908 51.7252 23.5347 51.5292 23.096C 51.3332 22.648 51.2352 22.1393 51.2352 21.57ZM 56.4712 20.912C 56.4712 20.38 56.3312 19.9647 56.0512 19.666C 55.7712 19.358 55.3559 19.204 54.8052 19.204C 54.3385 19.204 53.9232 19.3487 53.5592 19.638C 53.1952 19.9273 52.9665 20.352 52.8732 20.912L 56.4712 20.912ZM 59.5037 21.57C 59.5037 21.01 59.5877 20.506 59.7557 20.058C 59.9237 19.61 60.1477 19.232 60.4277 18.924C 60.7171 18.616 61.0437 18.378 61.4077 18.21C 61.7717 18.042 62.1497 17.958 62.5417 17.958C 62.9524 17.958 63.3024 18.0327 63.5917 18.182C 63.8904 18.322 64.1797 18.518 64.4597 18.77L 64.3897 17.608L 64.3897 15.116L 66.0137 15.116L 66.0137 25L 64.6837 25L 64.5577 24.202L 64.5157 24.202C 64.2451 24.4727 63.9277 24.7013 63.5637 24.888C 63.2091 25.0747 62.8357 25.168 62.4437 25.168C 62.0051 25.168 61.6037 25.0887 61.2397 24.93C 60.8757 24.762 60.5631 24.524 60.3017 24.216C 60.0497 23.908 59.8537 23.5347 59.7137 23.096C 59.5737 22.648 59.5037 22.1393 59.5037 21.57ZM 61.1697 21.556C 61.1697 22.3027 61.3144 22.872 61.6037 23.264C 61.8931 23.6467 62.3037 23.838 62.8357 23.838C 63.4051 23.838 63.9231 23.5627 64.3897 23.012L 64.3897 19.918C 64.1471 19.6847 63.9044 19.5213 63.6617 19.428C 63.4191 19.3347 63.1717 19.288 62.9197 19.288C 62.6771 19.288 62.4484 19.3393 62.2337 19.442C 62.0284 19.5447 61.8464 19.694 61.6877 19.89C 61.5291 20.0767 61.4031 20.31 61.3097 20.59C 61.2164 20.87 61.1697 21.192 61.1697 21.556ZM 76.6428 18.224L 82.8588 18.224L 82.8588 19.4L 76.6428 19.4L 76.6428 18.224ZM 76.6428 21.346L 82.8588 21.346L 82.8588 22.522L 76.6428 22.522L 76.6428 21.346ZM 93.0818 21.57C 93.0818 21.0007 93.1752 20.492 93.3618 20.044C 93.5578 19.596 93.8145 19.218 94.1318 18.91C 94.4492 18.602 94.8178 18.3687 95.2378 18.21C 95.6578 18.042 96.0918 17.958 96.5398 17.958C 96.9878 17.958 97.4218 18.042 97.8418 18.21C 98.2618 18.3687 98.6305 18.602 98.9478 18.91C 99.2652 19.218 99.5172 19.596 99.7038 20.044C 99.8998 20.492 99.9978 21.0007 99.9978 21.57C 99.9978 22.1393 99.8998 22.648 99.7038 23.096C 99.5172 23.544 99.2652 23.922 98.9478 24.23C 98.6305 24.538 98.2618 24.7713 97.8418 24.93C 97.4218 25.0887 96.9878 25.168 96.5398 25.168C 96.0918 25.168 95.6578 25.0887 95.2378 24.93C 94.8178 24.7713 94.4492 24.538 94.1318 24.23C 93.8145 23.922 93.5578 23.544 93.3618 23.096C 93.1752 22.648 93.0818 22.1393 93.0818 21.57ZM 94.7478 21.57C 94.7478 22.2607 94.9065 22.816 95.2238 23.236C 95.5412 23.6467 95.9798 23.852 96.5398 23.852C 97.0998 23.852 97.5385 23.6467 97.8558 23.236C 98.1732 22.816 98.3318 22.2607 98.3318 21.57C 98.3318 20.87 98.1732 20.3147 97.8558 19.904C 97.5385 19.484 97.0998 19.274 96.5398 19.274C 95.9798 19.274 95.5412 19.484 95.2238 19.904C 94.9065 20.3147 94.7478 20.87 94.7478 21.57ZM 101.308 18.126L 102.932 18.126L 104.262 21.696C 104.393 22.0413 104.51 22.3867 104.612 22.732C 104.724 23.068 104.836 23.4133 104.948 23.768L 105.004 23.768C 105.116 23.4133 105.224 23.068 105.326 22.732C 105.438 22.3867 105.56 22.0413 105.69 21.696L 107.02 18.126L 108.56 18.126L 105.886 25L 104.052 25L 101.308 18.126ZM 109.997 21.57C 109.997 21.01 110.095 20.506 110.291 20.058C 110.496 19.61 110.762 19.232 111.089 18.924C 111.416 18.6067 111.789 18.3687 112.209 18.21C 112.638 18.042 113.077 17.958 113.525 17.958C 114.038 17.958 114.491 18.042 114.883 18.21C 115.284 18.3687 115.62 18.5927 115.891 18.882C 116.162 19.162 116.367 19.5027 116.507 19.904C 116.647 20.3053 116.717 20.744 116.717 21.22C 116.717 21.3787 116.708 21.528 116.689 21.668C 116.68 21.808 116.666 21.92 116.647 22.004L 111.649 22.004C 111.705 22.62 111.948 23.096 112.377 23.432C 112.806 23.7587 113.334 23.922 113.959 23.922C 114.314 23.922 114.645 23.8753 114.953 23.782C 115.261 23.6793 115.574 23.5393 115.891 23.362L 116.437 24.37C 116.064 24.6033 115.648 24.7947 115.191 24.944C 114.734 25.0933 114.253 25.168 113.749 25.168C 113.226 25.168 112.736 25.0887 112.279 24.93C 111.822 24.762 111.425 24.524 111.089 24.216C 110.753 23.908 110.487 23.5347 110.291 23.096C 110.095 22.648 109.997 22.1393 109.997 21.57ZM 115.233 20.912C 115.233 20.38 115.093 19.9647 114.813 19.666C 114.533 19.358 114.118 19.204 113.567 19.204C 113.1 19.204 112.685 19.3487 112.321 19.638C 111.957 19.9273 111.728 20.352 111.635 20.912L 115.233 20.912ZM 119.343 18.126L 120.673 18.126L 120.813 19.68L 120.855 19.68C 121.21 19.12 121.635 18.6953 122.129 18.406C 122.633 18.1073 123.184 17.958 123.781 17.958C 124.061 17.958 124.299 17.9813 124.495 18.028C 124.701 18.0653 124.906 18.1353 125.111 18.238L 124.775 19.596C 124.551 19.5213 124.351 19.47 124.173 19.442C 124.005 19.4047 123.791 19.386 123.529 19.386C 123.053 19.386 122.596 19.5213 122.157 19.792C 121.719 20.0627 121.322 20.534 120.967 21.206L 120.967 25L 119.343 25L 119.343 18.126ZM 133.478 25.868L 133.478 27.128L 126.758 27.128L 126.758 25.868L 133.478 25.868ZM 135.222 24.062C 135.922 23.4647 136.548 22.9187 137.099 22.424C 137.649 21.92 138.116 21.4533 138.498 21.024C 138.89 20.5947 139.189 20.1933 139.395 19.82C 139.6 19.4467 139.702 19.0873 139.702 18.742C 139.702 18.266 139.558 17.8927 139.269 17.622C 138.979 17.342 138.555 17.202 137.995 17.202C 137.603 17.202 137.243 17.3 136.917 17.496C 136.599 17.692 136.305 17.9253 136.035 18.196L 135.152 17.3C 135.582 16.8613 136.035 16.5253 136.511 16.292C 136.987 16.0493 137.551 15.928 138.204 15.928C 138.662 15.928 139.077 15.9933 139.451 16.124C 139.824 16.2547 140.141 16.4413 140.403 16.684C 140.673 16.9173 140.878 17.202 141.019 17.538C 141.168 17.874 141.243 18.2473 141.243 18.658C 141.243 19.05 141.145 19.4513 140.949 19.862C 140.762 20.2633 140.505 20.674 140.178 21.094C 139.852 21.5047 139.46 21.9293 139.003 22.368C 138.555 22.8067 138.074 23.2593 137.56 23.726C 137.822 23.7073 138.097 23.6887 138.387 23.67C 138.676 23.642 138.942 23.628 139.184 23.628L 141.704 23.628L 141.704 25L 135.222 25L 135.222 24.062ZM 147.159 23.936C 147.383 23.936 147.588 23.8987 147.775 23.824C 147.971 23.7493 148.144 23.642 148.293 23.502C 148.442 23.3527 148.559 23.1753 148.643 22.97C 148.727 22.7553 148.769 22.5127 148.769 22.242C 148.769 21.71 148.624 21.3133 148.335 21.052C 148.055 20.7907 147.663 20.66 147.159 20.66C 146.86 20.66 146.543 20.7393 146.207 20.898C 145.871 21.0473 145.54 21.3133 145.213 21.696C 145.316 22.4893 145.54 23.0633 145.885 23.418C 146.23 23.7633 146.655 23.936 147.159 23.936ZM 149.245 17.916C 149.04 17.72 148.788 17.5613 148.489 17.44C 148.2 17.3093 147.896 17.244 147.579 17.244C 147.262 17.244 146.958 17.3 146.669 17.412C 146.389 17.524 146.137 17.7107 145.913 17.972C 145.698 18.2333 145.521 18.5787 145.381 19.008C 145.25 19.428 145.176 19.946 145.157 20.562C 145.502 20.226 145.88 19.9647 146.291 19.778C 146.702 19.582 147.103 19.484 147.495 19.484C 147.896 19.484 148.265 19.54 148.601 19.652C 148.937 19.764 149.226 19.9367 149.469 20.17C 149.721 20.394 149.917 20.6787 150.057 21.024C 150.197 21.3693 150.267 21.7753 150.267 22.242C 150.267 22.69 150.183 23.096 150.015 23.46C 149.847 23.8147 149.618 24.118 149.329 24.37C 149.049 24.622 148.722 24.818 148.349 24.958C 147.976 25.098 147.584 25.168 147.173 25.168C 146.706 25.168 146.258 25.084 145.829 24.916C 145.409 24.7387 145.036 24.4727 144.709 24.118C 144.392 23.7633 144.135 23.3107 143.939 22.76C 143.752 22.2093 143.659 21.5607 143.659 20.814C 143.659 19.946 143.762 19.204 143.967 18.588C 144.182 17.972 144.466 17.468 144.821 17.076C 145.176 16.684 145.577 16.3947 146.025 16.208C 146.482 16.0213 146.958 15.928 147.453 15.928C 148.041 15.928 148.554 16.026 148.993 16.222C 149.441 16.418 149.814 16.656 150.113 16.936L 149.245 17.916ZM 152.558 22.9C 152.856 23.152 153.188 23.376 153.552 23.572C 153.925 23.7587 154.368 23.852 154.882 23.852C 155.442 23.852 155.908 23.7027 156.282 23.404C 156.664 23.1053 156.856 22.6853 156.856 22.144C 156.856 21.612 156.678 21.2013 156.324 20.912C 155.978 20.6227 155.521 20.478 154.952 20.478C 154.625 20.478 154.345 20.52 154.112 20.604C 153.878 20.6787 153.608 20.8047 153.3 20.982L 152.53 20.492L 152.81 16.096L 158.06 16.096L 158.06 17.454L 154.21 17.454L 154.014 19.61C 154.247 19.5167 154.471 19.4467 154.686 19.4C 154.9 19.344 155.143 19.316 155.414 19.316C 155.834 19.316 156.23 19.372 156.604 19.484C 156.977 19.596 157.299 19.7687 157.57 20.002C 157.85 20.226 158.069 20.5153 158.228 20.87C 158.396 21.2153 158.48 21.626 158.48 22.102C 158.48 22.5873 158.386 23.0213 158.2 23.404C 158.013 23.7867 157.761 24.1087 157.444 24.37C 157.126 24.6313 156.762 24.832 156.352 24.972C 155.95 25.1027 155.526 25.168 155.078 25.168C 154.294 25.168 153.64 25.0467 153.118 24.804C 152.604 24.552 152.17 24.2627 151.816 23.936L 152.558 22.9ZM 185.702 21.57C 185.702 21.0007 185.804 20.492 186.01 20.044C 186.224 19.596 186.509 19.218 186.864 18.91C 187.218 18.602 187.634 18.3687 188.11 18.21C 188.586 18.042 189.085 17.958 189.608 17.958C 190.168 17.958 190.658 18.0513 191.078 18.238C 191.507 18.4247 191.866 18.6533 192.156 18.924L 191.386 19.932C 191.115 19.7173 190.84 19.554 190.56 19.442C 190.289 19.33 190 19.274 189.692 19.274C 189.001 19.274 188.441 19.484 188.012 19.904C 187.582 20.3147 187.368 20.87 187.368 21.57C 187.368 21.9153 187.424 22.228 187.536 22.508C 187.648 22.788 187.802 23.0307 187.998 23.236C 188.203 23.432 188.446 23.586 188.726 23.698C 189.006 23.8007 189.314 23.852 189.65 23.852C 190.042 23.852 190.396 23.7773 190.714 23.628C 191.04 23.4787 191.339 23.3013 191.61 23.096L 192.282 24.132C 191.89 24.4773 191.451 24.7387 190.966 24.916C 190.48 25.084 189.99 25.168 189.496 25.168C 188.954 25.168 188.45 25.0887 187.984 24.93C 187.526 24.7713 187.125 24.538 186.78 24.23C 186.444 23.922 186.178 23.544 185.982 23.096C 185.795 22.648 185.702 22.1393 185.702 21.57ZM 194.222 15.116L 195.846 15.116L 195.846 17.664L 195.748 19.134C 196.066 18.8167 196.42 18.5413 196.812 18.308C 197.214 18.0747 197.68 17.958 198.212 17.958C 199.006 17.958 199.589 18.2007 199.962 18.686C 200.336 19.162 200.522 19.848 200.522 20.744L 200.522 25L 198.898 25L 198.898 20.954C 198.898 20.394 198.8 19.988 198.604 19.736C 198.418 19.4747 198.086 19.344 197.61 19.344C 197.274 19.344 196.976 19.4233 196.714 19.582C 196.453 19.7407 196.164 19.9833 195.846 20.31L 195.846 25L 194.222 25L 194.222 15.116ZM 202.645 18.126L 207.237 18.126L 207.237 25L 205.627 25L 205.627 19.4L 202.645 19.4L 202.645 18.126ZM 206.313 16.922C 205.986 16.922 205.711 16.824 205.487 16.628C 205.272 16.432 205.165 16.1707 205.165 15.844C 205.165 15.5173 205.272 15.256 205.487 15.06C 205.711 14.8547 205.986 14.752 206.313 14.752C 206.649 14.752 206.924 14.8547 207.139 15.06C 207.353 15.256 207.461 15.5173 207.461 15.844C 207.461 16.1707 207.353 16.432 207.139 16.628C 206.924 16.824 206.649 16.922 206.313 16.922ZM 211.011 18.126L 212.341 18.126L 212.467 19.162L 212.523 19.162C 212.85 18.8353 213.209 18.5553 213.601 18.322C 214.003 18.0793 214.469 17.958 215.001 17.958C 215.795 17.958 216.378 18.2007 216.751 18.686C 217.125 19.162 217.311 19.848 217.311 20.744L 217.311 25L 215.687 25L 215.687 20.954C 215.687 20.394 215.589 19.988 215.393 19.736C 215.207 19.4747 214.875 19.344 214.399 19.344C 214.063 19.344 213.765 19.4233 213.503 19.582C 213.242 19.7407 212.953 19.9833 212.635 20.31L 212.635 25L 211.011 25L 211.011 18.126ZM 219.252 23.152C 219.252 22.7693 219.34 22.4333 219.518 22.144C 219.695 21.8453 219.975 21.5933 220.358 21.388C 220.74 21.1827 221.23 21.0147 221.828 20.884C 222.425 20.7533 223.148 20.66 223.998 20.604C 223.97 20.212 223.83 19.89 223.578 19.638C 223.326 19.386 222.92 19.26 222.36 19.26C 221.968 19.26 221.58 19.3347 221.198 19.484C 220.824 19.624 220.46 19.792 220.106 19.988L 219.518 18.91C 219.938 18.6673 220.418 18.448 220.96 18.252C 221.501 18.056 222.066 17.958 222.654 17.958C 223.615 17.958 224.348 18.2147 224.852 18.728C 225.356 19.232 225.608 19.9647 225.608 20.926L 225.608 25L 224.292 25L 224.166 24.146L 224.124 24.146C 223.76 24.426 223.354 24.6687 222.906 24.874C 222.467 25.07 222.014 25.168 221.548 25.168C 221.212 25.168 220.904 25.1167 220.624 25.014C 220.344 24.9207 220.101 24.7853 219.896 24.608C 219.69 24.4307 219.532 24.2207 219.42 23.978C 219.308 23.726 219.252 23.4507 219.252 23.152ZM 220.806 23.026C 220.806 23.334 220.922 23.558 221.156 23.698C 221.398 23.838 221.692 23.908 222.038 23.908C 222.383 23.908 222.714 23.8333 223.032 23.684C 223.358 23.5253 223.68 23.32 223.998 23.068L 223.998 21.612C 223.382 21.6587 222.868 21.724 222.458 21.808C 222.047 21.8827 221.72 21.9807 221.478 22.102C 221.235 22.2233 221.062 22.3633 220.96 22.522C 220.857 22.6713 220.806 22.8393 220.806 23.026Z"/>
<path id="path11_fill" d="M 169.879 22.494C 169.879 22.9233 170.019 23.2687 170.299 23.53C 170.588 23.7913 170.947 23.922 171.377 23.922C 171.601 23.922 171.82 23.8753 172.035 23.782C 172.249 23.6887 172.455 23.558 172.651 23.39C 172.259 23.054 171.885 22.6947 171.531 22.312C 171.185 21.92 170.868 21.514 170.579 21.094C 170.373 21.2993 170.205 21.5187 170.075 21.752C 169.944 21.976 169.879 22.2233 169.879 22.494ZM 170.677 17.944C 170.677 18.3453 170.793 18.7887 171.027 19.274C 171.353 19.0407 171.629 18.798 171.853 18.546C 172.086 18.2847 172.203 17.9813 172.203 17.636C 172.203 17.3933 172.151 17.188 172.049 17.02C 171.946 16.852 171.759 16.768 171.489 16.768C 171.246 16.768 171.05 16.8753 170.901 17.09C 170.751 17.3047 170.677 17.5893 170.677 17.944ZM 175.633 25.168C 175.017 25 174.373 24.6827 173.701 24.216C 173.365 24.5053 172.987 24.7387 172.567 24.916C 172.156 25.084 171.694 25.168 171.181 25.168C 170.742 25.168 170.345 25.1027 169.991 24.972C 169.636 24.832 169.337 24.65 169.095 24.426C 168.852 24.1927 168.665 23.922 168.535 23.614C 168.404 23.2967 168.339 22.956 168.339 22.592C 168.339 22.284 168.381 22.0087 168.465 21.766C 168.558 21.514 168.675 21.2853 168.815 21.08C 168.964 20.8747 169.132 20.688 169.319 20.52C 169.515 20.3427 169.72 20.1793 169.935 20.03C 169.748 19.6567 169.599 19.2973 169.487 18.952C 169.384 18.5973 169.333 18.266 169.333 17.958C 169.333 17.6407 169.384 17.3467 169.487 17.076C 169.589 16.796 169.734 16.5533 169.921 16.348C 170.107 16.1427 170.331 15.9793 170.593 15.858C 170.854 15.7367 171.148 15.676 171.475 15.676C 172.1 15.676 172.585 15.8533 172.931 16.208C 173.285 16.5627 173.463 17.034 173.463 17.622C 173.463 17.9207 173.407 18.1913 173.295 18.434C 173.192 18.6767 173.052 18.9053 172.875 19.12C 172.697 19.3253 172.497 19.5213 172.273 19.708C 172.058 19.8947 171.834 20.0767 171.601 20.254C 171.871 20.6273 172.17 20.9913 172.497 21.346C 172.833 21.7007 173.183 22.0273 173.547 22.326C 173.976 21.6633 174.293 20.87 174.499 19.946L 175.983 19.946C 175.824 20.5247 175.633 21.08 175.409 21.612C 175.185 22.144 174.919 22.648 174.611 23.124C 174.872 23.3013 175.119 23.4507 175.353 23.572C 175.595 23.6933 175.824 23.7867 176.039 23.852L 175.633 25.168Z"/>
<path id="path12_fill" d="M 2.57987 10.528C 2.57987 9.94933 2.67788 9.436 2.87388 8.988C 3.06988 8.53067 3.33121 8.148 3.65787 7.84C 3.99387 7.532 4.37187 7.29867 4.79187 7.14C 5.22121 6.972 5.66454 6.888 6.12188 6.888C 6.57921 6.888 7.01788 6.972 7.43787 7.14C 7.86721 7.29867 8.24521 7.532 8.57187 7.84C 8.90787 8.148 9.17387 8.53067 9.36988 8.988C 9.56587 9.436 9.66387 9.94933 9.66387 10.528C 9.66387 11.1067 9.56587 11.6247 9.36988 12.082C 9.17387 12.53 8.90787 12.908 8.57187 13.216C 8.24521 13.524 7.86721 13.762 7.43787 13.93C 7.01788 14.0887 6.57921 14.168 6.12188 14.168C 5.66454 14.168 5.22121 14.0887 4.79187 13.93C 4.37187 13.762 3.99387 13.524 3.65787 13.216C 3.33121 12.908 3.06988 12.53 2.87388 12.082C 2.67788 11.6247 2.57987 11.1067 2.57987 10.528ZM 4.69387 10.528C 4.69387 11.1347 4.81054 11.6153 5.04388 11.97C 5.28654 12.3247 5.64588 12.502 6.12188 12.502C 6.59788 12.502 6.95254 12.3247 7.18587 11.97C 7.42854 11.6153 7.54988 11.1347 7.54988 10.528C 7.54988 9.92133 7.42854 9.44067 7.18587 9.086C 6.95254 8.73133 6.59788 8.554 6.12188 8.554C 5.64588 8.554 5.28654 8.73133 5.04388 9.086C 4.81054 9.44067 4.69387 9.92133 4.69387 10.528ZM 10.7504 7.056L 12.8224 7.056L 13.9144 10.332C 14.0264 10.6867 14.1337 11.0413 14.2364 11.396C 14.3391 11.7507 14.4417 12.11 14.5444 12.474L 14.6004 12.474C 14.7031 12.11 14.8011 11.7507 14.8944 11.396C 14.9971 11.0413 15.1044 10.6867 15.2164 10.332L 16.3084 7.056L 18.2824 7.056L 15.7344 14L 13.3684 14L 10.7504 7.056ZM 19.4809 10.528C 19.4809 9.95867 19.5789 9.45 19.7749 9.002C 19.9803 8.554 20.2509 8.176 20.5869 7.868C 20.9229 7.55067 21.3056 7.308 21.7349 7.14C 22.1736 6.972 22.6263 6.888 23.0929 6.888C 23.6249 6.888 24.0963 6.972 24.5069 7.14C 24.9176 7.308 25.2583 7.54133 25.5289 7.84C 25.7996 8.13867 26.0049 8.49333 26.1449 8.904C 26.2849 9.30533 26.3549 9.744 26.3549 10.22C 26.3549 10.4067 26.3456 10.584 26.3269 10.752C 26.3083 10.92 26.2896 11.046 26.2709 11.13L 21.5949 11.13C 21.6696 11.6527 21.8936 12.0307 22.2669 12.264C 22.6496 12.488 23.0976 12.6 23.6109 12.6C 23.9283 12.6 24.2269 12.5627 24.5069 12.488C 24.7963 12.404 25.0949 12.2827 25.4029 12.124L 26.0749 13.356C 25.6829 13.608 25.2443 13.8087 24.7589 13.958C 24.2736 14.098 23.7976 14.168 23.3309 14.168C 22.7896 14.168 22.2856 14.0887 21.8189 13.93C 21.3523 13.762 20.9463 13.524 20.6009 13.216C 20.2556 12.8987 19.9803 12.516 19.7749 12.068C 19.5789 11.62 19.4809 11.1067 19.4809 10.528ZM 24.4929 9.772C 24.4929 9.38 24.3856 9.06267 24.1709 8.82C 23.9563 8.57733 23.6109 8.456 23.1349 8.456C 22.7616 8.456 22.4303 8.56333 22.1409 8.778C 21.8516 8.99267 21.6603 9.324 21.5669 9.772L 24.4929 9.772ZM 28.7295 7.056L 30.4095 7.056L 30.5775 8.568L 30.6195 8.568C 30.9648 7.99867 31.3801 7.57867 31.8655 7.308C 32.3508 7.028 32.8735 6.888 33.4335 6.888C 33.7415 6.888 33.9888 6.91133 34.1755 6.958C 34.3715 7.00467 34.5721 7.07467 34.7775 7.168L 34.3575 8.89C 34.1428 8.82467 33.9468 8.778 33.7695 8.75C 33.6015 8.71267 33.3868 8.694 33.1255 8.694C 32.6961 8.694 32.2715 8.82 31.8515 9.072C 31.4408 9.324 31.0861 9.76267 30.7875 10.388L 30.7875 14L 28.7295 14L 28.7295 7.056ZM 43.06 14.756L 43.06 16.296L 36.34 16.296L 36.34 14.756L 43.06 14.756ZM 44.7065 12.824C 45.3412 12.292 45.9199 11.7973 46.4425 11.34C 46.9652 10.8733 47.4132 10.4393 47.7865 10.038C 48.1599 9.63667 48.4492 9.25867 48.6545 8.904C 48.8599 8.54933 48.9625 8.21333 48.9625 7.896C 48.9625 7.45733 48.8365 7.126 48.5845 6.902C 48.3325 6.66867 47.9732 6.552 47.5065 6.552C 47.1519 6.552 46.8252 6.64533 46.5265 6.832C 46.2372 7.00933 45.9665 7.21933 45.7145 7.462L 44.6085 6.356C 44.8419 6.12267 45.0705 5.91733 45.2945 5.74C 45.5279 5.56267 45.7705 5.418 46.0225 5.306C 46.2839 5.18467 46.5545 5.096 46.8345 5.04C 47.1239 4.97467 47.4412 4.942 47.7865 4.942C 48.2532 4.942 48.6779 5.012 49.0605 5.152C 49.4432 5.28267 49.7699 5.474 50.0405 5.726C 50.3205 5.96867 50.5352 6.26267 50.6845 6.608C 50.8432 6.95333 50.9225 7.34067 50.9225 7.77C 50.9225 8.14333 50.8339 8.526 50.6565 8.918C 50.4792 9.30067 50.2365 9.688 49.9285 10.08C 49.6299 10.4627 49.2845 10.85 48.8925 11.242C 48.5005 11.6247 48.0899 12.0027 47.6605 12.376C 47.9125 12.348 48.1832 12.3247 48.4725 12.306C 48.7712 12.278 49.0372 12.264 49.2705 12.264L 51.3845 12.264L 51.3845 14L 44.7065 14L 44.7065 12.824ZM 56.6851 12.628C 56.8624 12.628 57.0304 12.6 57.1891 12.544C 57.3571 12.488 57.5017 12.404 57.6231 12.292C 57.7537 12.1707 57.8564 12.0213 57.9311 11.844C 58.0057 11.6573 58.0431 11.438 58.0431 11.186C 58.0431 10.7287 57.9217 10.402 57.6791 10.206C 57.4364 10.0007 57.1191 9.898 56.7271 9.898C 56.4657 9.898 56.1951 9.96333 55.9151 10.094C 55.6351 10.2247 55.3597 10.4487 55.0891 10.766C 55.1451 11.1207 55.2244 11.4193 55.3271 11.662C 55.4391 11.8953 55.5651 12.0867 55.7051 12.236C 55.8451 12.376 55.9991 12.4787 56.1671 12.544C 56.3351 12.6 56.5077 12.628 56.6851 12.628ZM 58.7151 7.238C 58.5284 7.07 58.2951 6.92533 58.0151 6.804C 57.7351 6.67333 57.4457 6.608 57.1471 6.608C 56.8764 6.608 56.6151 6.65933 56.3631 6.762C 56.1204 6.85533 55.9011 7.014 55.7051 7.238C 55.5184 7.45267 55.3644 7.73733 55.2431 8.092C 55.1217 8.44667 55.0517 8.88533 55.0331 9.408C 55.3504 9.1 55.7004 8.862 56.0831 8.694C 56.4751 8.526 56.8391 8.442 57.1751 8.442C 57.5671 8.442 57.9264 8.498 58.2531 8.61C 58.5891 8.722 58.8784 8.89 59.1211 9.114C 59.3731 9.338 59.5691 9.62267 59.7091 9.968C 59.8491 10.3133 59.9191 10.7193 59.9191 11.186C 59.9191 11.6527 59.8304 12.068 59.6531 12.432C 59.4851 12.796 59.2517 13.1087 58.9531 13.37C 58.6637 13.6313 58.3277 13.832 57.9451 13.972C 57.5624 14.1027 57.1564 14.168 56.7271 14.168C 56.2697 14.168 55.8264 14.084 55.3971 13.916C 54.9677 13.748 54.5851 13.4867 54.2491 13.132C 53.9131 12.7773 53.6424 12.3247 53.4371 11.774C 53.2317 11.214 53.1291 10.542 53.1291 9.758C 53.1291 8.92733 53.2364 8.20867 53.4511 7.602C 53.6657 6.99533 53.9504 6.496 54.3051 6.104C 54.6691 5.712 55.0797 5.42267 55.5371 5.236C 55.9944 5.04 56.4704 4.942 56.9651 4.942C 57.5997 4.942 58.1551 5.04933 58.6311 5.264C 59.1071 5.46933 59.4944 5.71667 59.7931 6.006L 58.7151 7.238ZM 62.2516 11.62C 62.5503 11.8627 62.8676 12.0727 63.2036 12.25C 63.5489 12.418 63.9316 12.502 64.3516 12.502C 64.8556 12.502 65.2663 12.3853 65.5836 12.152C 65.9103 11.9187 66.0736 11.5733 66.0736 11.116C 66.0736 10.668 65.9196 10.3273 65.6116 10.094C 65.3129 9.86067 64.9256 9.744 64.4496 9.744C 64.3003 9.744 64.1649 9.75333 64.0436 9.772C 63.9316 9.78133 63.8196 9.80467 63.7076 9.842C 63.5956 9.87933 63.4789 9.926 63.3576 9.982C 63.2363 10.038 63.1009 10.108 62.9516 10.192L 62.0416 9.604L 62.2796 5.11L 67.7256 5.11L 67.7256 6.846L 64.0576 6.846L 63.9036 8.512C 64.1089 8.43733 64.3003 8.386 64.4776 8.358C 64.6549 8.32067 64.8556 8.302 65.0796 8.302C 65.4903 8.302 65.8776 8.358 66.2416 8.47C 66.6149 8.582 66.9416 8.75 67.2216 8.974C 67.5016 9.198 67.7209 9.48267 67.8796 9.828C 68.0476 10.1733 68.1316 10.584 68.1316 11.06C 68.1316 11.5547 68.0336 11.9933 67.8376 12.376C 67.6509 12.7587 67.3943 13.0853 67.0676 13.356C 66.7503 13.6173 66.3816 13.818 65.9616 13.958C 65.5416 14.098 65.1029 14.168 64.6456 14.168C 63.8709 14.168 63.2129 14.0513 62.6716 13.818C 62.1396 13.5753 61.6916 13.2767 61.3276 12.922L 62.2516 11.62Z"/>
<path id="path13_fill" d="M 1.988 10.494C 1.988 10.9233 2.128 11.2687 2.408 11.53C 2.69733 11.7913 3.05667 11.922 3.486 11.922C 3.71 11.922 3.92933 11.8753 4.144 11.782C 4.35867 11.6887 4.564 11.558 4.76 11.39C 4.368 11.054 3.99467 10.6947 3.64 10.312C 3.29467 9.92 2.97733 9.514 2.688 9.094C 2.48267 9.29933 2.31467 9.51867 2.184 9.752C 2.05333 9.976 1.988 10.2233 1.988 10.494ZM 2.786 5.944C 2.786 6.34533 2.90267 6.78867 3.136 7.274C 3.46267 7.04067 3.738 6.798 3.962 6.546C 4.19533 6.28467 4.312 5.98133 4.312 5.636C 4.312 5.39333 4.26067 5.188 4.158 5.02C 4.05533 4.852 3.86867 4.768 3.598 4.768C 3.35533 4.768 3.15933 4.87533 3.01 5.09C 2.86067 5.30467 2.786 5.58933 2.786 5.944ZM 7.742 13.168C 7.126 13 6.482 12.6827 5.81 12.216C 5.474 12.5053 5.096 12.7387 4.676 12.916C 4.26533 13.084 3.80333 13.168 3.29 13.168C 2.85133 13.168 2.45467 13.1027 2.1 12.972C 1.74533 12.832 1.44667 12.65 1.204 12.426C 0.961333 12.1927 0.774667 11.922 0.644 11.614C 0.513333 11.2967 0.448 10.956 0.448 10.592C 0.448 10.284 0.49 10.0087 0.574 9.766C 0.667333 9.514 0.784 9.28533 0.924 9.08C 1.07333 8.87467 1.24133 8.688 1.428 8.52C 1.624 8.34267 1.82933 8.17933 2.044 8.03C 1.85733 7.65667 1.708 7.29733 1.596 6.952C 1.49333 6.59733 1.442 6.266 1.442 5.958C 1.442 5.64067 1.49333 5.34667 1.596 5.076C 1.69867 4.796 1.84333 4.55333 2.03 4.348C 2.21667 4.14267 2.44067 3.97933 2.702 3.858C 2.96333 3.73667 3.25733 3.676 3.584 3.676C 4.20933 3.676 4.69467 3.85333 5.04 4.208C 5.39467 4.56267 5.572 5.034 5.572 5.622C 5.572 5.92067 5.516 6.19133 5.404 6.434C 5.30133 6.67667 5.16133 6.90533 4.984 7.12C 4.80667 7.32533 4.606 7.52133 4.382 7.708C 4.16733 7.89467 3.94333 8.07667 3.71 8.254C 3.98067 8.62733 4.27933 8.99133 4.606 9.346C 4.942 9.70067 5.292 10.0273 5.656 10.326C 6.08533 9.66333 6.40267 8.87 6.608 7.946L 8.092 7.946C 7.93333 8.52467 7.742 9.08 7.518 9.612C 7.294 10.144 7.028 10.648 6.72 11.124C 6.98133 11.3013 7.22867 11.4507 7.462 11.572C 7.70467 11.6933 7.93333 11.7867 8.148 11.852L 7.742 13.168Z"/>
<path id="path14_fill" d="M 5.35988 10.528C 5.35988 9.94933 5.46721 9.436 5.68188 8.988C 5.90588 8.53067 6.19987 8.148 6.56387 7.84C 6.93721 7.532 7.36654 7.29867 7.85188 7.14C 8.33721 6.972 8.84587 6.888 9.37788 6.888C 9.92854 6.888 10.4232 6.97667 10.8619 7.154C 11.3099 7.33133 11.6832 7.55533 11.9819 7.826L 11.0299 9.1C 10.5165 8.736 10.0032 8.554 9.48987 8.554C 8.89254 8.554 8.40721 8.73133 8.03387 9.086C 7.66054 9.44067 7.47387 9.92133 7.47387 10.528C 7.47387 11.1347 7.65121 11.6153 8.00588 11.97C 8.36987 12.3247 8.84121 12.502 9.41987 12.502C 9.78387 12.502 10.1199 12.4367 10.4279 12.306C 10.7359 12.1753 11.0112 12.0213 11.2539 11.844L 12.0939 13.146C 11.6739 13.5007 11.2072 13.762 10.6939 13.93C 10.1899 14.0887 9.69987 14.168 9.22387 14.168C 8.67321 14.168 8.16454 14.0887 7.69787 13.93C 7.23121 13.762 6.82054 13.524 6.46587 13.216C 6.12054 12.908 5.84987 12.53 5.65387 12.082C 5.45788 11.6247 5.35988 11.1067 5.35988 10.528ZM 13.4744 10.528C 13.4744 9.94933 13.5724 9.436 13.7684 8.988C 13.9644 8.53067 14.2257 8.148 14.5524 7.84C 14.8884 7.532 15.2664 7.29867 15.6864 7.14C 16.1157 6.972 16.5591 6.888 17.0164 6.888C 17.4737 6.888 17.9124 6.972 18.3324 7.14C 18.7617 7.29867 19.1397 7.532 19.4664 7.84C 19.8024 8.148 20.0684 8.53067 20.2644 8.988C 20.4604 9.436 20.5584 9.94933 20.5584 10.528C 20.5584 11.1067 20.4604 11.6247 20.2644 12.082C 20.0684 12.53 19.8024 12.908 19.4664 13.216C 19.1397 13.524 18.7617 13.762 18.3324 13.93C 17.9124 14.0887 17.4737 14.168 17.0164 14.168C 16.5591 14.168 16.1157 14.0887 15.6864 13.93C 15.2664 13.762 14.8884 13.524 14.5524 13.216C 14.2257 12.908 13.9644 12.53 13.7684 12.082C 13.5724 11.6247 13.4744 11.1067 13.4744 10.528ZM 15.5884 10.528C 15.5884 11.1347 15.7051 11.6153 15.9384 11.97C 16.1811 12.3247 16.5404 12.502 17.0164 12.502C 17.4924 12.502 17.8471 12.3247 18.0804 11.97C 18.3231 11.6153 18.4444 11.1347 18.4444 10.528C 18.4444 9.92133 18.3231 9.44067 18.0804 9.086C 17.8471 8.73133 17.4924 8.554 17.0164 8.554C 16.5404 8.554 16.1811 8.73133 15.9384 9.086C 15.7051 9.44067 15.5884 9.92133 15.5884 10.528ZM 21.7149 7.056L 23.2549 7.056L 23.4089 7.924L 23.4649 7.924C 23.5956 7.63467 23.7729 7.392 23.9969 7.196C 24.2303 6.99067 24.5476 6.888 24.9489 6.888C 25.2569 6.888 25.5136 6.986 25.7189 7.182C 25.9336 7.36867 26.0829 7.64867 26.1669 8.022C 26.2976 7.70467 26.4843 7.43867 26.7269 7.224C 26.9789 7 27.3009 6.888 27.6929 6.888C 28.1783 6.888 28.5563 7.08867 28.8269 7.49C 29.0976 7.882 29.2329 8.428 29.2329 9.128L 29.2329 14L 27.3009 14L 27.3009 9.282C 27.3009 8.85267 27.1703 8.638 26.9089 8.638C 26.6569 8.638 26.4423 8.862 26.2649 9.31L 26.2649 14L 24.6829 14L 24.6829 9.282C 24.6829 8.85267 24.5476 8.638 24.2769 8.638C 24.1463 8.638 24.0343 8.694 23.9409 8.806C 23.8476 8.918 23.7496 9.086 23.6469 9.31L 23.6469 14L 21.7149 14L 21.7149 7.056ZM 30.6135 4.186L 32.6715 4.186L 32.6715 6.594L 32.6155 7.686C 32.8861 7.434 33.1895 7.238 33.5255 7.098C 33.8708 6.958 34.2115 6.888 34.5475 6.888C 34.9768 6.888 35.3641 6.972 35.7095 7.14C 36.0641 7.308 36.3581 7.546 36.5915 7.854C 36.8341 8.15267 37.0208 8.52133 37.1515 8.96C 37.2821 9.38933 37.3475 9.87 37.3475 10.402C 37.3475 10.9993 37.2635 11.5313 37.0955 11.998C 36.9275 12.4647 36.7035 12.8613 36.4235 13.188C 36.1435 13.5053 35.8215 13.748 35.4575 13.916C 35.1028 14.084 34.7295 14.168 34.3375 14.168C 34.0108 14.168 33.6841 14.0887 33.3575 13.93C 33.0401 13.7713 32.7368 13.5427 32.4475 13.244L 32.3915 13.244L 32.2235 14L 30.6135 14L 30.6135 4.186ZM 32.6715 12.026C 32.8675 12.194 33.0681 12.3153 33.2735 12.39C 33.4881 12.4553 33.6888 12.488 33.8755 12.488C 34.2581 12.488 34.5801 12.3293 34.8415 12.012C 35.1028 11.6853 35.2335 11.1627 35.2335 10.444C 35.2335 9.19333 34.8088 8.568 33.9595 8.568C 33.5208 8.568 33.0915 8.78267 32.6715 9.212L 32.6715 12.026ZM 39.106 7.056L 43.95 7.056L 43.95 14L 41.892 14L 41.892 8.666L 39.106 8.666L 39.106 7.056ZM 42.83 6.034C 42.4287 6.034 42.0973 5.922 41.836 5.698C 41.584 5.474 41.458 5.17067 41.458 4.788C 41.458 4.40533 41.584 4.09733 41.836 3.864C 42.0973 3.62133 42.4287 3.5 42.83 3.5C 43.2313 3.5 43.558 3.62133 43.81 3.864C 44.0713 4.09733 44.202 4.40533 44.202 4.788C 44.202 5.17067 44.0713 5.474 43.81 5.698C 43.558 5.922 43.2313 6.034 42.83 6.034ZM 47.4025 7.056L 49.0825 7.056L 49.2365 7.98L 49.2925 7.98C 49.5912 7.68133 49.9319 7.42467 50.3145 7.21C 50.7065 6.99533 51.1639 6.888 51.6865 6.888C 52.4705 6.888 53.0445 7.14 53.4085 7.644C 53.7725 8.148 53.9545 8.83867 53.9545 9.716L 53.9545 14L 51.8965 14L 51.8965 9.982C 51.8965 9.51533 51.8219 9.17467 51.6725 8.96C 51.5232 8.74533 51.2572 8.638 50.8745 8.638C 50.5945 8.638 50.3472 8.69867 50.1325 8.82C 49.9272 8.94133 49.7032 9.12333 49.4605 9.366L 49.4605 14L 47.4025 14L 47.4025 7.056ZM 55.5591 10.528C 55.5591 9.95867 55.6571 9.45 55.8531 9.002C 56.0584 8.554 56.3291 8.176 56.6651 7.868C 57.0011 7.55067 57.3837 7.308 57.8131 7.14C 58.2517 6.972 58.7044 6.888 59.1711 6.888C 59.7031 6.888 60.1744 6.972 60.5851 7.14C 60.9957 7.308 61.3364 7.54133 61.6071 7.84C 61.8777 8.13867 62.0831 8.49333 62.2231 8.904C 62.3631 9.30533 62.4331 9.744 62.4331 10.22C 62.4331 10.4067 62.4237 10.584 62.4051 10.752C 62.3864 10.92 62.3677 11.046 62.3491 11.13L 57.6731 11.13C 57.7477 11.6527 57.9717 12.0307 58.3451 12.264C 58.7277 12.488 59.1757 12.6 59.6891 12.6C 60.0064 12.6 60.3051 12.5627 60.5851 12.488C 60.8744 12.404 61.1731 12.2827 61.4811 12.124L 62.1531 13.356C 61.7611 13.608 61.3224 13.8087 60.8371 13.958C 60.3517 14.098 59.8757 14.168 59.4091 14.168C 58.8677 14.168 58.3637 14.0887 57.8971 13.93C 57.4304 13.762 57.0244 13.524 56.6791 13.216C 56.3337 12.8987 56.0584 12.516 55.8531 12.068C 55.6571 11.62 55.5591 11.1067 55.5591 10.528ZM 60.5711 9.772C 60.5711 9.38 60.4637 9.06267 60.2491 8.82C 60.0344 8.57733 59.6891 8.456 59.2131 8.456C 58.8397 8.456 58.5084 8.56333 58.2191 8.778C 57.9297 8.99267 57.7384 9.324 57.6451 9.772L 60.5711 9.772ZM 63.8416 10.528C 63.8416 9.95867 63.9256 9.45 64.0936 9.002C 64.2616 8.554 64.4809 8.176 64.7516 7.868C 65.0316 7.55067 65.3489 7.308 65.7036 7.14C 66.0583 6.972 66.4269 6.888 66.8096 6.888C 67.2109 6.888 67.5469 6.958 67.8176 7.098C 68.0883 7.22867 68.3449 7.406 68.5876 7.63L 68.5176 6.552L 68.5176 4.186L 70.5756 4.186L 70.5756 14L 68.8956 14L 68.7416 13.286L 68.6996 13.286C 68.4383 13.538 68.1396 13.748 67.8036 13.916C 67.4676 14.084 67.1223 14.168 66.7676 14.168C 66.3289 14.168 65.9276 14.084 65.5636 13.916C 65.2089 13.748 64.9009 13.51 64.6396 13.202C 64.3876 12.8847 64.1916 12.502 64.0516 12.054C 63.9116 11.606 63.8416 11.0973 63.8416 10.528ZM 65.9556 10.5C 65.9556 11.1907 66.0723 11.6947 66.3056 12.012C 66.5389 12.3293 66.8703 12.488 67.2996 12.488C 67.5329 12.488 67.7476 12.4413 67.9436 12.348C 68.1396 12.2453 68.3309 12.0773 68.5176 11.844L 68.5176 9.03C 68.3309 8.862 68.1396 8.74533 67.9436 8.68C 67.7569 8.60533 67.5609 8.568 67.3556 8.568C 66.9729 8.568 66.6416 8.72667 66.3616 9.044C 66.0909 9.36133 65.9556 9.84667 65.9556 10.5Z"/>
<path id="path15_fill" d="M 1.092 6.224L 7.308 6.224L 7.308 7.4L 1.092 7.4L 1.092 6.224ZM 1.092 9.346L 7.308 9.346L 7.308 10.522L 1.092 10.522L 1.092 9.346Z"/>
</defs>
</svg>
