<svg width="1120" height="372" viewBox="0 0 1120 372" version="1.1" xmlns="http://www.w3.org/2000/svg" xmlns:xlink="http://www.w3.org/1999/xlink">
<title>Frame</title>
<desc>Created using Figma</desc>
<g id="Canvas" transform="matrix(2 0 0 2 248 -210)">
<clipPath id="clip-0" clip-rule="evenodd">
<path d="M -124 105L 436 105L 436 291L -124 291L -124 105Z" fill="#FFFFFF"/>
</clipPath>
<g id="Frame" clip-path="url(#clip-0)">
<path d="M -124 105L 436 105L 436 291L -124 291L -124 105Z" fill="#FFFFFF"/>
<g id="Group 2">
<g id="Rectangle">
<use xlink:href="#path0_stroke" transform="translate(263 121)"/>
</g>
<g id="True">
<use xlink:href="#path1_fill" transform="translate(264 126)" fill="#27AE60"/>
</g>
<g id="Rectangle">
<use xlink:href="#path0_stroke" transform="translate(263 147.6)"/>
</g>
<g id="True">
<use xlink:href="#path1_fill" transform="translate(265 152.709)" fill="#27AE60"/>
</g>
<g id="Rectangle">
<use xlink:href="#path0_stroke" transform="translate(263 174.2)"/>
</g>
<g id="True">
<use xlink:href="#path1_fill" transform="translate(263.5 179.419)" fill="#27AE60"/>
</g>
<g id="Rectangle">
<use xlink:href="#path0_stroke" transform="translate(263 200.8)"/>
</g>
<g id="False">
<use xlink:href="#path2_fill" transform="translate(263.5 206.128)" fill="#EB5757"/>
</g>
<g id="1">
<use xlink:href="#path3_fill" transform="translate(245 153)" fill="#828282"/>
</g>
<g id="2">
<use xlink:href="#path4_fill" transform="translate(245 180)" fill="#828282"/>
</g>
<g id="3">
<use xlink:href="#path5_fill" transform="translate(246 206)" fill="#828282"/>
</g>
<g id="Rectangle">
<use xlink:href="#path0_stroke" transform="translate(263 227.4)"/>
</g>
<g id="False">
<use xlink:href="#path2_fill" transform="translate(263.5 232.838)" fill="#EB5757"/>
</g>
<g id="over_265">
<use xlink:href="#path6_fill" transform="translate(252 256)" fill="#4F4F4F"/>
</g>
<g id="4">
<use xlink:href="#path7_fill" transform="translate(245 233)" fill="#828282"/>
</g>
<g id="0">
<use xlink:href="#path8_fill" transform="translate(245 126)" fill="#828282"/>
</g>
</g>
<g id="Group">
<g id="Rectangle">
<use xlink:href="#path9_fill" transform="translate(-124 166)" fill="#F1F4F8"/>
</g>
<g id="over_265 = f500_sel[&#34;revenues&#34;] &#62; 265000 china = f500_sel[&#34;country&#34;] == &#34;China&#34;">
<use xlink:href="#path10_fill" transform="translate(-118.214 167)" fill="#2E383C"/>
<use xlink:href="#path11_fill" transform="translate(-118.214 167)" fill="#B82629"/>
<use xlink:href="#path12_fill" transform="translate(-118.214 167)" fill="#0C570A"/>
</g>
</g>
<g id="Group 2">
<g id="Rectangle">
<use xlink:href="#path0_stroke" transform="translate(364 121)"/>
</g>
<g id="False">
<use xlink:href="#path2_fill" transform="translate(365 126)" fill="#EB5757"/>
</g>
<g id="Rectangle">
<use xlink:href="#path0_stroke" transform="translate(364 147.6)"/>
</g>
<g id="True">
<use xlink:href="#path1_fill" transform="translate(366 152.709)" fill="#27AE60"/>
</g>
<g id="Rectangle">
<use xlink:href="#path0_stroke" transform="translate(364 174.2)"/>
</g>
<g id="True">
<use xlink:href="#path1_fill" transform="translate(364.5 179.419)" fill="#27AE60"/>
</g>
<g id="Rectangle">
<use xlink:href="#path0_stroke" transform="translate(364 200.8)"/>
</g>
<g id="True">
<use xlink:href="#path1_fill" transform="translate(364.5 206.128)" fill="#27AE60"/>
</g>
<g id="1">
<use xlink:href="#path3_fill" transform="translate(346 153)" fill="#828282"/>
</g>
<g id="2">
<use xlink:href="#path4_fill" transform="translate(346 180)" fill="#828282"/>
</g>
<g id="3">
<use xlink:href="#path5_fill" transform="translate(347 206)" fill="#828282"/>
</g>
<g id="Rectangle">
<use xlink:href="#path0_stroke" transform="translate(364 227.4)"/>
</g>
<g id="False">
<use xlink:href="#path2_fill" transform="translate(364.5 232.838)" fill="#EB5757"/>
</g>
<g id="china">
<use xlink:href="#path13_fill" transform="translate(356 256)" fill="#4F4F4F"/>
</g>
<g id="4">
<use xlink:href="#path7_fill" transform="translate(346 233)" fill="#828282"/>
</g>
<g id="0">
<use xlink:href="#path8_fill" transform="translate(346 126)" fill="#828282"/>
</g>
</g>
</g>
</g>
<defs>
<path id="path0_stroke" d="M 0 0L 0 -0.5L -0.5 -0.5L -0.5 0L 0 0ZM 51 0L 51.5 0L 51.5 -0.5L 51 -0.5L 51 0ZM 51 26.6L 51 27.1L 51.5 27.1L 51.5 26.6L 51 26.6ZM 0 26.6L -0.5 26.6L -0.5 27.1L 0 27.1L 0 26.6ZM 0 0.5L 51 0.5L 51 -0.5L 0 -0.5L 0 0.5ZM 50.5 0L 50.5 26.6L 51.5 26.6L 51.5 0L 50.5 0ZM 51 26.1L 0 26.1L 0 27.1L 51 27.1L 51 26.1ZM 0.5 26.6L 0.5 0L -0.5 0L -0.5 26.6L 0.5 26.6Z"/>
<path id="path1_fill" d="M 18.1689 4.12695L 14.9697 4.12695L 14.9697 13L 13.6641 13L 13.6641 4.12695L 10.4717 4.12695L 10.4717 3.04688L 18.1689 3.04688L 18.1689 4.12695ZM 22.5029 6.73828C 22.3115 6.70638 22.1042 6.69043 21.8809 6.69043C 21.0514 6.69043 20.4886 7.04362 20.1924 7.75L 20.1924 13L 18.9277 13L 18.9277 5.60352L 20.1582 5.60352L 20.1787 6.45801C 20.5934 5.7972 21.1813 5.4668 21.9424 5.4668C 22.1885 5.4668 22.3753 5.4987 22.5029 5.5625L 22.5029 6.73828ZM 28.2383 12.2686C 27.7461 12.8473 27.0238 13.1367 26.0713 13.1367C 25.2829 13.1367 24.6813 12.9089 24.2666 12.4531C 23.8564 11.9928 23.6491 11.3138 23.6445 10.416L 23.6445 5.60352L 24.9092 5.60352L 24.9092 10.3818C 24.9092 11.5029 25.3649 12.0635 26.2764 12.0635C 27.2425 12.0635 27.8851 11.7035 28.2041 10.9834L 28.2041 5.60352L 29.4688 5.60352L 29.4688 13L 28.2656 13L 28.2383 12.2686ZM 34.4658 13.1367C 33.4632 13.1367 32.6475 12.8086 32.0186 12.1523C 31.3896 11.4915 31.0752 10.6097 31.0752 9.50684L 31.0752 9.27441C 31.0752 8.54069 31.2142 7.88672 31.4922 7.3125C 31.7747 6.73372 32.1667 6.28255 32.668 5.95898C 33.1738 5.63086 33.7207 5.4668 34.3086 5.4668C 35.2702 5.4668 36.0176 5.78353 36.5508 6.41699C 37.084 7.05046 37.3506 7.95736 37.3506 9.1377L 37.3506 9.66406L 32.3398 9.66406C 32.3581 10.3932 32.57 10.9834 32.9756 11.4346C 33.3857 11.8812 33.9053 12.1045 34.5342 12.1045C 34.9808 12.1045 35.359 12.0133 35.6689 11.8311C 35.9788 11.6488 36.25 11.4072 36.4824 11.1064L 37.2549 11.708C 36.6351 12.6605 35.7054 13.1367 34.4658 13.1367ZM 34.3086 6.50586C 33.7982 6.50586 33.3698 6.69271 33.0234 7.06641C 32.6771 7.43555 32.4629 7.95508 32.3809 8.625L 36.0859 8.625L 36.0859 8.5293C 36.0495 7.88672 35.8763 7.38997 35.5664 7.03906C 35.2565 6.68359 34.8372 6.50586 34.3086 6.50586Z"/>
<path id="path2_fill" d="M 14.0605 8.60449L 9.88379 8.60449L 9.88379 13L 8.57129 13L 8.57129 3.04688L 14.7373 3.04688L 14.7373 4.12695L 9.88379 4.12695L 9.88379 7.53125L 14.0605 7.53125L 14.0605 8.60449ZM 20.4453 13C 20.3724 12.8542 20.3132 12.5944 20.2676 12.2207C 19.6797 12.8314 18.9779 13.1367 18.1621 13.1367C 17.4329 13.1367 16.8337 12.9316 16.3643 12.5215C 15.8994 12.1068 15.667 11.5827 15.667 10.9492C 15.667 10.179 15.9587 9.58203 16.542 9.1582C 17.1299 8.72982 17.9548 8.51562 19.0166 8.51562L 20.2471 8.51562L 20.2471 7.93457C 20.2471 7.49251 20.1149 7.1416 19.8506 6.88184C 19.5863 6.61751 19.1966 6.48535 18.6816 6.48535C 18.2305 6.48535 17.8522 6.59928 17.5469 6.82715C 17.2415 7.05501 17.0889 7.33073 17.0889 7.6543L 15.8174 7.6543C 15.8174 7.28516 15.9473 6.92969 16.207 6.58789C 16.4714 6.24154 16.8268 5.9681 17.2734 5.76758C 17.7246 5.56706 18.2191 5.4668 18.7568 5.4668C 19.609 5.4668 20.2767 5.68099 20.7598 6.10938C 21.2428 6.5332 21.4935 7.11882 21.5117 7.86621L 21.5117 11.2705C 21.5117 11.9495 21.5983 12.4896 21.7715 12.8906L 21.7715 13L 20.4453 13ZM 18.3467 12.0361C 18.7432 12.0361 19.1191 11.9336 19.4746 11.7285C 19.8301 11.5234 20.0876 11.2568 20.2471 10.9287L 20.2471 9.41113L 19.2559 9.41113C 17.7064 9.41113 16.9316 9.86458 16.9316 10.7715C 16.9316 11.168 17.0638 11.4779 17.3281 11.7012C 17.5924 11.9245 17.932 12.0361 18.3467 12.0361ZM 24.8682 13L 23.6035 13L 23.6035 2.5L 24.8682 2.5L 24.8682 13ZM 31.2051 11.0381C 31.2051 10.6963 31.0752 10.432 30.8154 10.2451C 30.5602 10.0537 30.1113 9.88965 29.4688 9.75293C 28.8307 9.61621 28.3226 9.45215 27.9443 9.26074C 27.5706 9.06934 27.2926 8.84147 27.1104 8.57715C 26.9326 8.31283 26.8438 7.99837 26.8438 7.63379C 26.8438 7.02767 27.099 6.51497 27.6094 6.0957C 28.1243 5.67643 28.7806 5.4668 29.5781 5.4668C 30.4167 5.4668 31.0957 5.68327 31.6152 6.11621C 32.1393 6.54915 32.4014 7.10286 32.4014 7.77734L 31.1299 7.77734C 31.1299 7.43099 30.9818 7.13249 30.6855 6.88184C 30.3939 6.63118 30.0247 6.50586 29.5781 6.50586C 29.1178 6.50586 28.7578 6.60612 28.498 6.80664C 28.2383 7.00716 28.1084 7.26921 28.1084 7.59277C 28.1084 7.89811 28.2292 8.12826 28.4707 8.2832C 28.7122 8.43815 29.1475 8.58626 29.7764 8.72754C 30.4098 8.86882 30.9225 9.03743 31.3145 9.2334C 31.7064 9.42936 31.9958 9.66634 32.1826 9.94434C 32.374 10.2178 32.4697 10.5527 32.4697 10.9492C 32.4697 11.61 32.2054 12.141 31.6768 12.542C 31.1481 12.9385 30.4622 13.1367 29.6191 13.1367C 29.0267 13.1367 28.5026 13.0319 28.0469 12.8223C 27.5911 12.6126 27.2334 12.321 26.9736 11.9473C 26.7184 11.569 26.5908 11.1611 26.5908 10.7236L 27.8555 10.7236C 27.8783 11.1475 28.0469 11.4847 28.3613 11.7354C 28.6803 11.9814 29.0996 12.1045 29.6191 12.1045C 30.0977 12.1045 30.4805 12.0088 30.7676 11.8174C 31.0592 11.6214 31.2051 11.3617 31.2051 11.0381ZM 37.1865 13.1367C 36.1839 13.1367 35.3682 12.8086 34.7393 12.1523C 34.1104 11.4915 33.7959 10.6097 33.7959 9.50684L 33.7959 9.27441C 33.7959 8.54069 33.9349 7.88672 34.2129 7.3125C 34.4954 6.73372 34.8874 6.28255 35.3887 5.95898C 35.8945 5.63086 36.4414 5.4668 37.0293 5.4668C 37.9909 5.4668 38.7383 5.78353 39.2715 6.41699C 39.8047 7.05046 40.0713 7.95736 40.0713 9.1377L 40.0713 9.66406L 35.0605 9.66406C 35.0788 10.3932 35.2907 10.9834 35.6963 11.4346C 36.1064 11.8812 36.626 12.1045 37.2549 12.1045C 37.7015 12.1045 38.0798 12.0133 38.3896 11.8311C 38.6995 11.6488 38.9707 11.4072 39.2031 11.1064L 39.9756 11.708C 39.3558 12.6605 38.4261 13.1367 37.1865 13.1367ZM 37.0293 6.50586C 36.5189 6.50586 36.0905 6.69271 35.7441 7.06641C 35.3978 7.43555 35.1836 7.95508 35.1016 8.625L 38.8066 8.625L 38.8066 8.5293C 38.7702 7.88672 38.597 7.38997 38.2871 7.03906C 37.9772 6.68359 37.5579 6.50586 37.0293 6.50586Z"/>
<path id="path3_fill" d="M 9.55273 13L 8.28125 13L 8.28125 4.57129L 5.73145 5.50781L 5.73145 4.35938L 9.35449 2.99902L 9.55273 2.99902L 9.55273 13Z"/>
<path id="path4_fill" d="M 11.918 13L 5.39648 13L 5.39648 12.0908L 8.8418 8.2627C 9.35221 7.68392 9.70312 7.21452 9.89453 6.85449C 10.0905 6.48991 10.1885 6.11393 10.1885 5.72656C 10.1885 5.20703 10.0312 4.78092 9.7168 4.44824C 9.40234 4.11556 8.98307 3.94922 8.45898 3.94922C 7.83008 3.94922 7.34017 4.12923 6.98926 4.48926C 6.6429 4.84473 6.46973 5.34147 6.46973 5.97949L 5.20508 5.97949C 5.20508 5.06348 5.49902 4.32292 6.08691 3.75781C 6.67936 3.19271 7.47005 2.91016 8.45898 2.91016C 9.38411 2.91016 10.1156 3.15397 10.6533 3.6416C 11.1911 4.12467 11.46 4.76953 11.46 5.57617C 11.46 6.55599 10.8356 7.72266 9.58691 9.07617L 6.9209 11.9678L 11.918 11.9678L 11.918 13Z"/>
<path id="path5_fill" d="M 7.23535 7.4082L 8.18555 7.4082C 8.78255 7.39909 9.25195 7.24186 9.59375 6.93652C 9.93555 6.63118 10.1064 6.21875 10.1064 5.69922C 10.1064 4.53255 9.52539 3.94922 8.36328 3.94922C 7.81641 3.94922 7.37891 4.10645 7.05078 4.4209C 6.72721 4.73079 6.56543 5.14323 6.56543 5.6582L 5.30078 5.6582C 5.30078 4.86979 5.58789 4.21582 6.16211 3.69629C 6.74089 3.1722 7.47461 2.91016 8.36328 2.91016C 9.30208 2.91016 10.0381 3.15853 10.5713 3.65527C 11.1045 4.15202 11.3711 4.84245 11.3711 5.72656C 11.3711 6.15951 11.2298 6.57878 10.9473 6.98438C 10.6693 7.38997 10.2887 7.69303 9.80566 7.89355C 10.3525 8.06673 10.7741 8.35384 11.0703 8.75488C 11.3711 9.15592 11.5215 9.64583 11.5215 10.2246C 11.5215 11.1178 11.2298 11.8265 10.6465 12.3506C 10.0632 12.8747 9.30436 13.1367 8.37012 13.1367C 7.43587 13.1367 6.6748 12.8838 6.08691 12.3779C 5.50358 11.8721 5.21191 11.2044 5.21191 10.375L 6.4834 10.375C 6.4834 10.8991 6.6543 11.3184 6.99609 11.6328C 7.33789 11.9473 7.7959 12.1045 8.37012 12.1045C 8.98079 12.1045 9.44792 11.945 9.77148 11.626C 10.0951 11.307 10.2568 10.849 10.2568 10.252C 10.2568 9.67318 10.0791 9.22884 9.72363 8.91895C 9.36816 8.60905 8.85547 8.44954 8.18555 8.44043L 7.23535 8.44043L 7.23535 7.4082Z"/>
<path id="path6_fill" d="M 3.57987 10.528C 3.57987 9.94933 3.67788 9.436 3.87388 8.988C 4.06988 8.53067 4.33121 8.148 4.65787 7.84C 4.99387 7.532 5.37187 7.29867 5.79187 7.14C 6.22121 6.972 6.66454 6.888 7.12188 6.888C 7.57921 6.888 8.01788 6.972 8.43787 7.14C 8.86721 7.29867 9.24521 7.532 9.57187 7.84C 9.90787 8.148 10.1739 8.53067 10.3699 8.988C 10.5659 9.436 10.6639 9.94933 10.6639 10.528C 10.6639 11.1067 10.5659 11.6247 10.3699 12.082C 10.1739 12.53 9.90787 12.908 9.57187 13.216C 9.24521 13.524 8.86721 13.762 8.43787 13.93C 8.01788 14.0887 7.57921 14.168 7.12188 14.168C 6.66454 14.168 6.22121 14.0887 5.79187 13.93C 5.37187 13.762 4.99387 13.524 4.65787 13.216C 4.33121 12.908 4.06988 12.53 3.87388 12.082C 3.67788 11.6247 3.57987 11.1067 3.57987 10.528ZM 5.69387 10.528C 5.69387 11.1347 5.81054 11.6153 6.04388 11.97C 6.28654 12.3247 6.64588 12.502 7.12188 12.502C 7.59788 12.502 7.95254 12.3247 8.18587 11.97C 8.42854 11.6153 8.54988 11.1347 8.54988 10.528C 8.54988 9.92133 8.42854 9.44067 8.18587 9.086C 7.95254 8.73133 7.59788 8.554 7.12188 8.554C 6.64588 8.554 6.28654 8.73133 6.04388 9.086C 5.81054 9.44067 5.69387 9.92133 5.69387 10.528ZM 11.7504 7.056L 13.8224 7.056L 14.9144 10.332C 15.0264 10.6867 15.1337 11.0413 15.2364 11.396C 15.3391 11.7507 15.4417 12.11 15.5444 12.474L 15.6004 12.474C 15.7031 12.11 15.8011 11.7507 15.8944 11.396C 15.9971 11.0413 16.1044 10.6867 16.2164 10.332L 17.3084 7.056L 19.2824 7.056L 16.7344 14L 14.3684 14L 11.7504 7.056ZM 20.4809 10.528C 20.4809 9.95867 20.5789 9.45 20.7749 9.002C 20.9803 8.554 21.2509 8.176 21.5869 7.868C 21.9229 7.55067 22.3056 7.308 22.7349 7.14C 23.1736 6.972 23.6263 6.888 24.0929 6.888C 24.6249 6.888 25.0963 6.972 25.5069 7.14C 25.9176 7.308 26.2583 7.54133 26.5289 7.84C 26.7996 8.13867 27.0049 8.49333 27.1449 8.904C 27.2849 9.30533 27.3549 9.744 27.3549 10.22C 27.3549 10.4067 27.3456 10.584 27.3269 10.752C 27.3083 10.92 27.2896 11.046 27.2709 11.13L 22.5949 11.13C 22.6696 11.6527 22.8936 12.0307 23.2669 12.264C 23.6496 12.488 24.0976 12.6 24.6109 12.6C 24.9283 12.6 25.2269 12.5627 25.5069 12.488C 25.7963 12.404 26.0949 12.2827 26.4029 12.124L 27.0749 13.356C 26.6829 13.608 26.2443 13.8087 25.7589 13.958C 25.2736 14.098 24.7976 14.168 24.3309 14.168C 23.7896 14.168 23.2856 14.0887 22.8189 13.93C 22.3523 13.762 21.9463 13.524 21.6009 13.216C 21.2556 12.8987 20.9803 12.516 20.7749 12.068C 20.5789 11.62 20.4809 11.1067 20.4809 10.528ZM 25.4929 9.772C 25.4929 9.38 25.3856 9.06267 25.1709 8.82C 24.9563 8.57733 24.6109 8.456 24.1349 8.456C 23.7616 8.456 23.4303 8.56333 23.1409 8.778C 22.8516 8.99267 22.6603 9.324 22.5669 9.772L 25.4929 9.772ZM 29.7295 7.056L 31.4095 7.056L 31.5775 8.568L 31.6195 8.568C 31.9648 7.99867 32.3801 7.57867 32.8655 7.308C 33.3508 7.028 33.8735 6.888 34.4335 6.888C 34.7415 6.888 34.9888 6.91133 35.1755 6.958C 35.3715 7.00467 35.5721 7.07467 35.7775 7.168L 35.3575 8.89C 35.1428 8.82467 34.9468 8.778 34.7695 8.75C 34.6015 8.71267 34.3868 8.694 34.1255 8.694C 33.6961 8.694 33.2715 8.82 32.8515 9.072C 32.4408 9.324 32.0861 9.76267 31.7875 10.388L 31.7875 14L 29.7295 14L 29.7295 7.056ZM 44.06 14.756L 44.06 16.296L 37.34 16.296L 37.34 14.756L 44.06 14.756ZM 45.7065 12.824C 46.3412 12.292 46.9199 11.7973 47.4425 11.34C 47.9652 10.8733 48.4132 10.4393 48.7865 10.038C 49.1599 9.63667 49.4492 9.25867 49.6545 8.904C 49.8599 8.54933 49.9625 8.21333 49.9625 7.896C 49.9625 7.45733 49.8365 7.126 49.5845 6.902C 49.3325 6.66867 48.9732 6.552 48.5065 6.552C 48.1519 6.552 47.8252 6.64533 47.5265 6.832C 47.2372 7.00933 46.9665 7.21933 46.7145 7.462L 45.6085 6.356C 45.8419 6.12267 46.0705 5.91733 46.2945 5.74C 46.5279 5.56267 46.7705 5.418 47.0225 5.306C 47.2839 5.18467 47.5545 5.096 47.8345 5.04C 48.1239 4.97467 48.4412 4.942 48.7865 4.942C 49.2532 4.942 49.6779 5.012 50.0605 5.152C 50.4432 5.28267 50.7699 5.474 51.0405 5.726C 51.3205 5.96867 51.5352 6.26267 51.6845 6.608C 51.8432 6.95333 51.9225 7.34067 51.9225 7.77C 51.9225 8.14333 51.8339 8.526 51.6565 8.918C 51.4792 9.30067 51.2365 9.688 50.9285 10.08C 50.6299 10.4627 50.2845 10.85 49.8925 11.242C 49.5005 11.6247 49.0899 12.0027 48.6605 12.376C 48.9125 12.348 49.1832 12.3247 49.4725 12.306C 49.7712 12.278 50.0372 12.264 50.2705 12.264L 52.3845 12.264L 52.3845 14L 45.7065 14L 45.7065 12.824ZM 57.6851 12.628C 57.8624 12.628 58.0304 12.6 58.1891 12.544C 58.3571 12.488 58.5017 12.404 58.6231 12.292C 58.7537 12.1707 58.8564 12.0213 58.9311 11.844C 59.0057 11.6573 59.0431 11.438 59.0431 11.186C 59.0431 10.7287 58.9217 10.402 58.6791 10.206C 58.4364 10.0007 58.1191 9.898 57.7271 9.898C 57.4657 9.898 57.1951 9.96333 56.9151 10.094C 56.6351 10.2247 56.3597 10.4487 56.0891 10.766C 56.1451 11.1207 56.2244 11.4193 56.3271 11.662C 56.4391 11.8953 56.5651 12.0867 56.7051 12.236C 56.8451 12.376 56.9991 12.4787 57.1671 12.544C 57.3351 12.6 57.5077 12.628 57.6851 12.628ZM 59.7151 7.238C 59.5284 7.07 59.2951 6.92533 59.0151 6.804C 58.7351 6.67333 58.4457 6.608 58.1471 6.608C 57.8764 6.608 57.6151 6.65933 57.3631 6.762C 57.1204 6.85533 56.9011 7.014 56.7051 7.238C 56.5184 7.45267 56.3644 7.73733 56.2431 8.092C 56.1217 8.44667 56.0517 8.88533 56.0331 9.408C 56.3504 9.1 56.7004 8.862 57.0831 8.694C 57.4751 8.526 57.8391 8.442 58.1751 8.442C 58.5671 8.442 58.9264 8.498 59.2531 8.61C 59.5891 8.722 59.8784 8.89 60.1211 9.114C 60.3731 9.338 60.5691 9.62267 60.7091 9.968C 60.8491 10.3133 60.9191 10.7193 60.9191 11.186C 60.9191 11.6527 60.8304 12.068 60.6531 12.432C 60.4851 12.796 60.2517 13.1087 59.9531 13.37C 59.6637 13.6313 59.3277 13.832 58.9451 13.972C 58.5624 14.1027 58.1564 14.168 57.7271 14.168C 57.2697 14.168 56.8264 14.084 56.3971 13.916C 55.9677 13.748 55.5851 13.4867 55.2491 13.132C 54.9131 12.7773 54.6424 12.3247 54.4371 11.774C 54.2317 11.214 54.1291 10.542 54.1291 9.758C 54.1291 8.92733 54.2364 8.20867 54.4511 7.602C 54.6657 6.99533 54.9504 6.496 55.3051 6.104C 55.6691 5.712 56.0797 5.42267 56.5371 5.236C 56.9944 5.04 57.4704 4.942 57.9651 4.942C 58.5997 4.942 59.1551 5.04933 59.6311 5.264C 60.1071 5.46933 60.4944 5.71667 60.7931 6.006L 59.7151 7.238ZM 63.2516 11.62C 63.5503 11.8627 63.8676 12.0727 64.2036 12.25C 64.5489 12.418 64.9316 12.502 65.3516 12.502C 65.8556 12.502 66.2663 12.3853 66.5836 12.152C 66.9103 11.9187 67.0736 11.5733 67.0736 11.116C 67.0736 10.668 66.9196 10.3273 66.6116 10.094C 66.3129 9.86067 65.9256 9.744 65.4496 9.744C 65.3003 9.744 65.1649 9.75333 65.0436 9.772C 64.9316 9.78133 64.8196 9.80467 64.7076 9.842C 64.5956 9.87933 64.4789 9.926 64.3576 9.982C 64.2363 10.038 64.1009 10.108 63.9516 10.192L 63.0416 9.604L 63.2796 5.11L 68.7256 5.11L 68.7256 6.846L 65.0576 6.846L 64.9036 8.512C 65.1089 8.43733 65.3003 8.386 65.4776 8.358C 65.6549 8.32067 65.8556 8.302 66.0796 8.302C 66.4903 8.302 66.8776 8.358 67.2416 8.47C 67.6149 8.582 67.9416 8.75 68.2216 8.974C 68.5016 9.198 68.7209 9.48267 68.8796 9.828C 69.0476 10.1733 69.1316 10.584 69.1316 11.06C 69.1316 11.5547 69.0336 11.9933 68.8376 12.376C 68.6509 12.7587 68.3943 13.0853 68.0676 13.356C 67.7503 13.6173 67.3816 13.818 66.9616 13.958C 66.5416 14.098 66.1029 14.168 65.6456 14.168C 64.8709 14.168 64.2129 14.0513 63.6716 13.818C 63.1396 13.5753 62.6916 13.2767 62.3276 12.922L 63.2516 11.62Z"/>
<path id="path7_fill" d="M 10.7354 9.65723L 12.1162 9.65723L 12.1162 10.6895L 10.7354 10.6895L 10.7354 13L 9.46387 13L 9.46387 10.6895L 4.93164 10.6895L 4.93164 9.94434L 9.38867 3.04688L 10.7354 3.04688L 10.7354 9.65723ZM 6.36719 9.65723L 9.46387 9.65723L 9.46387 4.77637L 9.31348 5.0498L 6.36719 9.65723Z"/>
<path id="path8_fill" d="M 11.6377 8.75488C 11.6377 10.236 11.3848 11.3366 10.8789 12.0566C 10.373 12.7767 9.58236 13.1367 8.50684 13.1367C 7.44499 13.1367 6.65885 12.7858 6.14844 12.084C 5.63802 11.3776 5.3737 10.3249 5.35547 8.92578L 5.35547 7.2373C 5.35547 5.77441 5.6084 4.6875 6.11426 3.97656C 6.62012 3.26562 7.41309 2.91016 8.49316 2.91016C 9.56413 2.91016 10.3525 3.25423 10.8584 3.94238C 11.3643 4.62598 11.624 5.68327 11.6377 7.11426L 11.6377 8.75488ZM 10.373 7.02539C 10.373 5.95443 10.2227 5.17513 9.92188 4.6875C 9.62109 4.19531 9.14486 3.94922 8.49316 3.94922C 7.84603 3.94922 7.37435 4.19303 7.07812 4.68066C 6.7819 5.16829 6.62923 5.91797 6.62012 6.92969L 6.62012 8.95312C 6.62012 10.0286 6.77507 10.8239 7.08496 11.3389C 7.39941 11.8493 7.87337 12.1045 8.50684 12.1045C 9.13118 12.1045 9.59375 11.863 9.89453 11.3799C 10.1999 10.8968 10.3594 10.1357 10.373 9.09668L 10.373 7.02539Z"/>
<path id="path9_fill" d="M 0 0L 351 0L 351 53L 0 53L 0 0Z"/>
<path id="path10_fill" d="M 0.742 18.57C 0.742 18.0007 0.835333 17.492 1.022 17.044C 1.218 16.596 1.47467 16.218 1.792 15.91C 2.10933 15.602 2.478 15.3687 2.898 15.21C 3.318 15.042 3.752 14.958 4.2 14.958C 4.648 14.958 5.082 15.042 5.502 15.21C 5.922 15.3687 6.29067 15.602 6.608 15.91C 6.92533 16.218 7.17733 16.596 7.364 17.044C 7.56 17.492 7.658 18.0007 7.658 18.57C 7.658 19.1393 7.56 19.648 7.364 20.096C 7.17733 20.544 6.92533 20.922 6.608 21.23C 6.29067 21.538 5.922 21.7713 5.502 21.93C 5.082 22.0887 4.648 22.168 4.2 22.168C 3.752 22.168 3.318 22.0887 2.898 21.93C 2.478 21.7713 2.10933 21.538 1.792 21.23C 1.47467 20.922 1.218 20.544 1.022 20.096C 0.835333 19.648 0.742 19.1393 0.742 18.57ZM 2.408 18.57C 2.408 19.2607 2.56667 19.816 2.884 20.236C 3.20133 20.6467 3.64 20.852 4.2 20.852C 4.76 20.852 5.19867 20.6467 5.516 20.236C 5.83333 19.816 5.992 19.2607 5.992 18.57C 5.992 17.87 5.83333 17.3147 5.516 16.904C 5.19867 16.484 4.76 16.274 4.2 16.274C 3.64 16.274 3.20133 16.484 2.884 16.904C 2.56667 17.3147 2.408 17.87 2.408 18.57ZM 8.96853 15.126L 10.5925 15.126L 11.9225 18.696C 12.0532 19.0413 12.1699 19.3867 12.2725 19.732C 12.3845 20.068 12.4965 20.4133 12.6085 20.768L 12.6645 20.768C 12.7765 20.4133 12.8839 20.068 12.9865 19.732C 13.0985 19.3867 13.2199 19.0413 13.3505 18.696L 14.6805 15.126L 16.2205 15.126L 13.5465 22L 11.7125 22L 8.96853 15.126ZM 17.6571 18.57C 17.6571 18.01 17.7551 17.506 17.9511 17.058C 18.1564 16.61 18.4224 16.232 18.7491 15.924C 19.0757 15.6067 19.4491 15.3687 19.8691 15.21C 20.2984 15.042 20.7371 14.958 21.1851 14.958C 21.6984 14.958 22.1511 15.042 22.5431 15.21C 22.9444 15.3687 23.2804 15.5927 23.5511 15.882C 23.8217 16.162 24.0271 16.5027 24.1671 16.904C 24.3071 17.3053 24.3771 17.744 24.3771 18.22C 24.3771 18.3787 24.3677 18.528 24.3491 18.668C 24.3397 18.808 24.3257 18.92 24.3071 19.004L 19.3091 19.004C 19.3651 19.62 19.6077 20.096 20.0371 20.432C 20.4664 20.7587 20.9937 20.922 21.6191 20.922C 21.9737 20.922 22.3051 20.8753 22.6131 20.782C 22.9211 20.6793 23.2337 20.5393 23.5511 20.362L 24.0971 21.37C 23.7237 21.6033 23.3084 21.7947 22.8511 21.944C 22.3937 22.0933 21.9131 22.168 21.4091 22.168C 20.8864 22.168 20.3964 22.0887 19.9391 21.93C 19.4817 21.762 19.0851 21.524 18.7491 21.216C 18.4131 20.908 18.1471 20.5347 17.9511 20.096C 17.7551 19.648 17.6571 19.1393 17.6571 18.57ZM 22.8931 17.912C 22.8931 17.38 22.7531 16.9647 22.4731 16.666C 22.1931 16.358 21.7777 16.204 21.2271 16.204C 20.7604 16.204 20.3451 16.3487 19.9811 16.638C 19.6171 16.9273 19.3884 17.352 19.2951 17.912L 22.8931 17.912ZM 27.0036 15.126L 28.3336 15.126L 28.4736 16.68L 28.5156 16.68C 28.8703 16.12 29.2949 15.6953 29.7896 15.406C 30.2936 15.1073 30.8443 14.958 31.4416 14.958C 31.7216 14.958 31.9596 14.9813 32.1556 15.028C 32.3609 15.0653 32.5663 15.1353 32.7716 15.238L 32.4356 16.596C 32.2116 16.5213 32.0109 16.47 31.8336 16.442C 31.6656 16.4047 31.4509 16.386 31.1896 16.386C 30.7136 16.386 30.2563 16.5213 29.8176 16.792C 29.3789 17.0627 28.9823 17.534 28.6276 18.206L 28.6276 22L 27.0036 22L 27.0036 15.126ZM 41.1381 22.868L 41.1381 24.128L 34.4181 24.128L 34.4181 22.868L 41.1381 22.868ZM 42.8827 21.062C 43.5827 20.4647 44.208 19.9187 44.7587 19.424C 45.3093 18.92 45.776 18.4533 46.1587 18.024C 46.5507 17.5947 46.8493 17.1933 47.0547 16.82C 47.26 16.4467 47.3627 16.0873 47.3627 15.742C 47.3627 15.266 47.218 14.8927 46.9287 14.622C 46.6393 14.342 46.2147 14.202 45.6547 14.202C 45.2627 14.202 44.9033 14.3 44.5767 14.496C 44.2593 14.692 43.9653 14.9253 43.6947 15.196L 42.8127 14.3C 43.242 13.8613 43.6947 13.5253 44.1707 13.292C 44.6467 13.0493 45.2113 12.928 45.8647 12.928C 46.322 12.928 46.7373 12.9933 47.1107 13.124C 47.484 13.2547 47.8013 13.4413 48.0627 13.684C 48.3333 13.9173 48.5387 14.202 48.6787 14.538C 48.828 14.874 48.9027 15.2473 48.9027 15.658C 48.9027 16.05 48.8047 16.4513 48.6087 16.862C 48.422 17.2633 48.1653 17.674 47.8387 18.094C 47.512 18.5047 47.12 18.9293 46.6627 19.368C 46.2147 19.8067 45.734 20.2593 45.2207 20.726C 45.482 20.7073 45.7573 20.6887 46.0467 20.67C 46.336 20.642 46.602 20.628 46.8447 20.628L 49.3647 20.628L 49.3647 22L 42.8827 22L 42.8827 21.062ZM 54.8192 20.936C 55.0432 20.936 55.2485 20.8987 55.4352 20.824C 55.6312 20.7493 55.8039 20.642 55.9532 20.502C 56.1025 20.3527 56.2192 20.1753 56.3032 19.97C 56.3872 19.7553 56.4292 19.5127 56.4292 19.242C 56.4292 18.71 56.2845 18.3133 55.9952 18.052C 55.7152 17.7907 55.3232 17.66 54.8192 17.66C 54.5205 17.66 54.2032 17.7393 53.8672 17.898C 53.5312 18.0473 53.1999 18.3133 52.8732 18.696C 52.9759 19.4893 53.1999 20.0633 53.5452 20.418C 53.8905 20.7633 54.3152 20.936 54.8192 20.936ZM 56.9052 14.916C 56.6999 14.72 56.4479 14.5613 56.1492 14.44C 55.8599 14.3093 55.5565 14.244 55.2392 14.244C 54.9219 14.244 54.6185 14.3 54.3292 14.412C 54.0492 14.524 53.7972 14.7107 53.5732 14.972C 53.3585 15.2333 53.1812 15.5787 53.0412 16.008C 52.9105 16.428 52.8359 16.946 52.8172 17.562C 53.1625 17.226 53.5405 16.9647 53.9512 16.778C 54.3619 16.582 54.7632 16.484 55.1552 16.484C 55.5565 16.484 55.9252 16.54 56.2612 16.652C 56.5972 16.764 56.8865 16.9367 57.1292 17.17C 57.3812 17.394 57.5772 17.6787 57.7172 18.024C 57.8572 18.3693 57.9272 18.7753 57.9272 19.242C 57.9272 19.69 57.8432 20.096 57.6752 20.46C 57.5072 20.8147 57.2785 21.118 56.9892 21.37C 56.7092 21.622 56.3825 21.818 56.0092 21.958C 55.6359 22.098 55.2439 22.168 54.8332 22.168C 54.3665 22.168 53.9185 22.084 53.4892 21.916C 53.0692 21.7387 52.6959 21.4727 52.3692 21.118C 52.0519 20.7633 51.7952 20.3107 51.5992 19.76C 51.4125 19.2093 51.3192 18.5607 51.3192 17.814C 51.3192 16.946 51.4219 16.204 51.6272 15.588C 51.8419 14.972 52.1265 14.468 52.4812 14.076C 52.8359 13.684 53.2372 13.3947 53.6852 13.208C 54.1425 13.0213 54.6185 12.928 55.1132 12.928C 55.7012 12.928 56.2145 13.026 56.6532 13.222C 57.1012 13.418 57.4745 13.656 57.7732 13.936L 56.9052 14.916ZM 60.2177 19.9C 60.5164 20.152 60.8477 20.376 61.2117 20.572C 61.5851 20.7587 62.0284 20.852 62.5417 20.852C 63.1017 20.852 63.5684 20.7027 63.9417 20.404C 64.3244 20.1053 64.5157 19.6853 64.5157 19.144C 64.5157 18.612 64.3384 18.2013 63.9837 17.912C 63.6384 17.6227 63.1811 17.478 62.6117 17.478C 62.2851 17.478 62.0051 17.52 61.7717 17.604C 61.5384 17.6787 61.2677 17.8047 60.9597 17.982L 60.1897 17.492L 60.4697 13.096L 65.7197 13.096L 65.7197 14.454L 61.8697 14.454L 61.6737 16.61C 61.9071 16.5167 62.1311 16.4467 62.3457 16.4C 62.5604 16.344 62.8031 16.316 63.0737 16.316C 63.4937 16.316 63.8904 16.372 64.2637 16.484C 64.6371 16.596 64.9591 16.7687 65.2297 17.002C 65.5097 17.226 65.7291 17.5153 65.8877 17.87C 66.0557 18.2153 66.1397 18.626 66.1397 19.102C 66.1397 19.5873 66.0464 20.0213 65.8597 20.404C 65.6731 20.7867 65.4211 21.1087 65.1037 21.37C 64.7864 21.6313 64.4224 21.832 64.0117 21.972C 63.6104 22.1027 63.1857 22.168 62.7377 22.168C 61.9537 22.168 61.3004 22.0467 60.7777 21.804C 60.2644 21.552 59.8304 21.2627 59.4757 20.936L 60.2177 19.9ZM 76.6428 15.224L 82.8588 15.224L 82.8588 16.4L 76.6428 16.4L 76.6428 15.224ZM 76.6428 18.346L 82.8588 18.346L 82.8588 19.522L 76.6428 19.522L 76.6428 18.346ZM 100.152 13.516C 99.8998 13.4133 99.6525 13.3387 99.4098 13.292C 99.1765 13.2453 98.9198 13.222 98.6398 13.222C 98.1078 13.222 97.7205 13.3527 97.4778 13.614C 97.2445 13.866 97.1278 14.2347 97.1278 14.72L 97.1278 15.126L 99.7458 15.126L 99.7458 16.4L 97.1278 16.4L 97.1278 22L 95.5318 22L 95.5318 16.4L 93.6278 16.4L 93.6278 15.196L 95.5318 15.126L 95.5318 14.748C 95.5318 14.3467 95.5878 13.9733 95.6998 13.628C 95.8118 13.2827 95.9845 12.9887 96.2178 12.746C 96.4605 12.494 96.7638 12.298 97.1278 12.158C 97.5012 12.018 97.9398 11.948 98.4438 11.948C 98.8172 11.948 99.1718 11.9807 99.5078 12.046C 99.8532 12.1113 100.18 12.2047 100.488 12.326L 100.152 13.516ZM 102.19 19.9C 102.489 20.152 102.82 20.376 103.184 20.572C 103.558 20.7587 104.001 20.852 104.514 20.852C 105.074 20.852 105.541 20.7027 105.914 20.404C 106.297 20.1053 106.488 19.6853 106.488 19.144C 106.488 18.612 106.311 18.2013 105.956 17.912C 105.611 17.6227 105.154 17.478 104.584 17.478C 104.258 17.478 103.978 17.52 103.744 17.604C 103.511 17.6787 103.24 17.8047 102.932 17.982L 102.162 17.492L 102.442 13.096L 107.692 13.096L 107.692 14.454L 103.842 14.454L 103.646 16.61C 103.88 16.5167 104.104 16.4467 104.318 16.4C 104.533 16.344 104.776 16.316 105.046 16.316C 105.466 16.316 105.863 16.372 106.236 16.484C 106.61 16.596 106.932 16.7687 107.202 17.002C 107.482 17.226 107.702 17.5153 107.86 17.87C 108.028 18.2153 108.112 18.626 108.112 19.102C 108.112 19.5873 108.019 20.0213 107.832 20.404C 107.646 20.7867 107.394 21.1087 107.076 21.37C 106.759 21.6313 106.395 21.832 105.984 21.972C 105.583 22.1027 105.158 22.168 104.71 22.168C 103.926 22.168 103.273 22.0467 102.75 21.804C 102.237 21.552 101.803 21.2627 101.448 20.936L 102.19 19.9ZM 113.329 22.168C 112.312 22.168 111.504 21.7667 110.907 20.964C 110.319 20.1613 110.025 19.0087 110.025 17.506C 110.025 15.994 110.319 14.8553 110.907 14.09C 111.504 13.3153 112.312 12.928 113.329 12.928C 114.346 12.928 115.149 13.3153 115.737 14.09C 116.334 14.8553 116.633 15.994 116.633 17.506C 116.633 19.0087 116.334 20.1613 115.737 20.964C 115.149 21.7667 114.346 22.168 113.329 22.168ZM 113.329 14.188C 113.058 14.188 112.811 14.2487 112.587 14.37C 112.363 14.482 112.167 14.6687 111.999 14.93C 111.84 15.1913 111.714 15.5367 111.621 15.966C 111.528 16.386 111.481 16.8993 111.481 17.506C 111.481 18.1127 111.528 18.6353 111.621 19.074C 111.714 19.5033 111.84 19.8533 111.999 20.124C 112.167 20.3947 112.363 20.5953 112.587 20.726C 112.811 20.8473 113.058 20.908 113.329 20.908C 113.59 20.908 113.833 20.8473 114.057 20.726C 114.29 20.5953 114.486 20.3947 114.645 20.124C 114.813 19.8533 114.944 19.5033 115.037 19.074C 115.13 18.6353 115.177 18.1127 115.177 17.506C 115.177 16.8993 115.13 16.386 115.037 15.966C 114.944 15.5367 114.813 15.1913 114.645 14.93C 114.486 14.6687 114.29 14.482 114.057 14.37C 113.833 14.2487 113.59 14.188 113.329 14.188ZM 113.329 18.444C 113.058 18.444 112.83 18.3553 112.643 18.178C 112.456 18.0007 112.363 17.758 112.363 17.45C 112.363 17.142 112.456 16.8993 112.643 16.722C 112.83 16.5447 113.058 16.456 113.329 16.456C 113.6 16.456 113.828 16.5447 114.015 16.722C 114.202 16.8993 114.295 17.142 114.295 17.45C 114.295 17.758 114.202 18.0007 114.015 18.178C 113.828 18.3553 113.6 18.444 113.329 18.444ZM 121.723 22.168C 120.706 22.168 119.899 21.7667 119.301 20.964C 118.713 20.1613 118.419 19.0087 118.419 17.506C 118.419 15.994 118.713 14.8553 119.301 14.09C 119.899 13.3153 120.706 12.928 121.723 12.928C 122.741 12.928 123.543 13.3153 124.131 14.09C 124.729 14.8553 125.027 15.994 125.027 17.506C 125.027 19.0087 124.729 20.1613 124.131 20.964C 123.543 21.7667 122.741 22.168 121.723 22.168ZM 121.723 14.188C 121.453 14.188 121.205 14.2487 120.981 14.37C 120.757 14.482 120.561 14.6687 120.393 14.93C 120.235 15.1913 120.109 15.5367 120.015 15.966C 119.922 16.386 119.875 16.8993 119.875 17.506C 119.875 18.1127 119.922 18.6353 120.015 19.074C 120.109 19.5033 120.235 19.8533 120.393 20.124C 120.561 20.3947 120.757 20.5953 120.981 20.726C 121.205 20.8473 121.453 20.908 121.723 20.908C 121.985 20.908 122.227 20.8473 122.451 20.726C 122.685 20.5953 122.881 20.3947 123.039 20.124C 123.207 19.8533 123.338 19.5033 123.431 19.074C 123.525 18.6353 123.571 18.1127 123.571 17.506C 123.571 16.8993 123.525 16.386 123.431 15.966C 123.338 15.5367 123.207 15.1913 123.039 14.93C 122.881 14.6687 122.685 14.482 122.451 14.37C 122.227 14.2487 121.985 14.188 121.723 14.188ZM 121.723 18.444C 121.453 18.444 121.224 18.3553 121.037 18.178C 120.851 18.0007 120.757 17.758 120.757 17.45C 120.757 17.142 120.851 16.8993 121.037 16.722C 121.224 16.5447 121.453 16.456 121.723 16.456C 121.994 16.456 122.223 16.5447 122.409 16.722C 122.596 16.8993 122.689 17.142 122.689 17.45C 122.689 17.758 122.596 18.0007 122.409 18.178C 122.223 18.3553 121.994 18.444 121.723 18.444ZM 133.478 22.868L 133.478 24.128L 126.758 24.128L 126.758 22.868L 133.478 22.868ZM 135.936 20.082C 136.329 20.3527 136.735 20.5673 137.154 20.726C 137.584 20.8753 138.064 20.95 138.596 20.95C 139.138 20.95 139.534 20.8753 139.787 20.726C 140.039 20.5673 140.165 20.3667 140.165 20.124C 140.165 19.8813 140.001 19.6807 139.674 19.522C 139.348 19.354 138.834 19.1767 138.135 18.99C 137.808 18.906 137.491 18.8033 137.182 18.682C 136.875 18.5607 136.604 18.4207 136.37 18.262C 136.137 18.1033 135.951 17.9213 135.811 17.716C 135.671 17.5107 135.601 17.2773 135.601 17.016C 135.601 16.4093 135.862 15.9147 136.385 15.532C 136.907 15.1493 137.658 14.958 138.638 14.958C 139.198 14.958 139.726 15.0513 140.22 15.238C 140.715 15.4247 141.14 15.6347 141.495 15.868L 140.753 16.862C 140.444 16.6567 140.113 16.4933 139.758 16.372C 139.413 16.2413 139.044 16.176 138.653 16.176C 138.12 16.176 137.747 16.2507 137.533 16.4C 137.318 16.54 137.211 16.7173 137.211 16.932C 137.211 17.0533 137.257 17.1653 137.35 17.268C 137.453 17.3613 137.589 17.45 137.757 17.534C 137.934 17.6087 138.139 17.6833 138.372 17.758C 138.606 17.8327 138.862 17.9027 139.142 17.968C 139.544 18.0707 139.903 18.1873 140.22 18.318C 140.547 18.4393 140.822 18.5793 141.047 18.738C 141.28 18.8967 141.457 19.0833 141.578 19.298C 141.709 19.5127 141.774 19.76 141.774 20.04C 141.774 20.3387 141.704 20.6187 141.565 20.88C 141.425 21.132 141.219 21.356 140.949 21.552C 140.678 21.7387 140.342 21.888 139.941 22C 139.539 22.112 139.077 22.168 138.555 22.168C 137.91 22.168 137.294 22.0653 136.707 21.86C 136.119 21.6547 135.61 21.4027 135.18 21.104L 135.936 20.082ZM 143.575 18.57C 143.575 18.01 143.673 17.506 143.869 17.058C 144.074 16.61 144.34 16.232 144.667 15.924C 144.994 15.6067 145.367 15.3687 145.787 15.21C 146.216 15.042 146.655 14.958 147.103 14.958C 147.616 14.958 148.069 15.042 148.461 15.21C 148.862 15.3687 149.198 15.5927 149.469 15.882C 149.74 16.162 149.945 16.5027 150.085 16.904C 150.225 17.3053 150.295 17.744 150.295 18.22C 150.295 18.3787 150.286 18.528 150.267 18.668C 150.258 18.808 150.244 18.92 150.225 19.004L 145.227 19.004C 145.283 19.62 145.526 20.096 145.955 20.432C 146.384 20.7587 146.912 20.922 147.537 20.922C 147.892 20.922 148.223 20.8753 148.531 20.782C 148.839 20.6793 149.152 20.5393 149.469 20.362L 150.015 21.37C 149.642 21.6033 149.226 21.7947 148.769 21.944C 148.312 22.0933 147.831 22.168 147.327 22.168C 146.804 22.168 146.314 22.0887 145.857 21.93C 145.4 21.762 145.003 21.524 144.667 21.216C 144.331 20.908 144.065 20.5347 143.869 20.096C 143.673 19.648 143.575 19.1393 143.575 18.57ZM 148.811 17.912C 148.811 17.38 148.671 16.9647 148.391 16.666C 148.111 16.358 147.696 16.204 147.145 16.204C 146.678 16.204 146.263 16.3487 145.899 16.638C 145.535 16.9273 145.306 17.352 145.213 17.912L 148.811 17.912ZM 152.096 12.116L 155.876 12.116L 155.876 19.578C 155.876 20.0447 155.992 20.376 156.226 20.572C 156.459 20.7587 156.753 20.852 157.108 20.852C 157.444 20.852 157.836 20.7633 158.284 20.586L 158.662 21.776C 158.335 21.888 158.027 21.9813 157.738 22.056C 157.458 22.1307 157.117 22.168 156.716 22.168C 155.904 22.168 155.292 21.9347 154.882 21.468C 154.471 21.0013 154.266 20.3433 154.266 19.494L 154.266 13.39L 152.096 13.39L 152.096 12.116ZM 162.478 12.088L 166.482 12.088L 166.482 12.97L 163.724 12.97L 163.724 23.246L 166.482 23.246L 166.482 24.128L 162.478 24.128L 162.478 12.088ZM 256.008 23.246L 256.008 12.97L 253.264 12.97L 253.264 12.088L 257.268 12.088L 257.268 24.128L 253.264 24.128L 253.264 23.246L 256.008 23.246ZM 275.373 17.926L 270.053 21.454L 270.053 19.956L 274.015 17.38L 274.015 17.324L 270.053 14.748L 270.053 13.25L 275.373 16.778L 275.373 17.926ZM 1.022 35.57C 1.022 35.0007 1.12467 34.492 1.33 34.044C 1.54467 33.596 1.82933 33.218 2.184 32.91C 2.53867 32.602 2.954 32.3687 3.43 32.21C 3.906 32.042 4.40533 31.958 4.928 31.958C 5.488 31.958 5.978 32.0513 6.398 32.238C 6.82733 32.4247 7.18667 32.6533 7.476 32.924L 6.706 33.932C 6.43533 33.7173 6.16 33.554 5.88 33.442C 5.60933 33.33 5.32 33.274 5.012 33.274C 4.32133 33.274 3.76133 33.484 3.332 33.904C 2.90267 34.3147 2.688 34.87 2.688 35.57C 2.688 35.9153 2.744 36.228 2.856 36.508C 2.968 36.788 3.122 37.0307 3.318 37.236C 3.52333 37.432 3.766 37.586 4.046 37.698C 4.326 37.8007 4.634 37.852 4.97 37.852C 5.362 37.852 5.71667 37.7773 6.034 37.628C 6.36067 37.4787 6.65933 37.3013 6.93 37.096L 7.602 38.132C 7.21 38.4773 6.77133 38.7387 6.286 38.916C 5.80067 39.084 5.31067 39.168 4.816 39.168C 4.27467 39.168 3.77067 39.0887 3.304 38.93C 2.84667 38.7713 2.44533 38.538 2.1 38.23C 1.764 37.922 1.498 37.544 1.302 37.096C 1.11533 36.648 1.022 36.1393 1.022 35.57ZM 9.54253 29.116L 11.1665 29.116L 11.1665 31.664L 11.0685 33.134C 11.3859 32.8167 11.7405 32.5413 12.1325 32.308C 12.5339 32.0747 13.0005 31.958 13.5325 31.958C 14.3259 31.958 14.9092 32.2007 15.2825 32.686C 15.6559 33.162 15.8425 33.848 15.8425 34.744L 15.8425 39L 14.2185 39L 14.2185 34.954C 14.2185 34.394 14.1205 33.988 13.9245 33.736C 13.7379 33.4747 13.4065 33.344 12.9305 33.344C 12.5945 33.344 12.2959 33.4233 12.0345 33.582C 11.7732 33.7407 11.4839 33.9833 11.1665 34.31L 11.1665 39L 9.54253 39L 9.54253 29.116ZM 17.9651 32.126L 22.5571 32.126L 22.5571 39L 20.9471 39L 20.9471 33.4L 17.9651 33.4L 17.9651 32.126ZM 21.6331 30.922C 21.3064 30.922 21.0311 30.824 20.8071 30.628C 20.5924 30.432 20.4851 30.1707 20.4851 29.844C 20.4851 29.5173 20.5924 29.256 20.8071 29.06C 21.0311 28.8547 21.3064 28.752 21.6331 28.752C 21.9691 28.752 22.2444 28.8547 22.4591 29.06C 22.6737 29.256 22.7811 29.5173 22.7811 29.844C 22.7811 30.1707 22.6737 30.432 22.4591 30.628C 22.2444 30.824 21.9691 30.922 21.6331 30.922ZM 26.3316 32.126L 27.6616 32.126L 27.7876 33.162L 27.8436 33.162C 28.1703 32.8353 28.5296 32.5553 28.9216 32.322C 29.3229 32.0793 29.7896 31.958 30.3216 31.958C 31.1149 31.958 31.6983 32.2007 32.0716 32.686C 32.4449 33.162 32.6316 33.848 32.6316 34.744L 32.6316 39L 31.0076 39L 31.0076 34.954C 31.0076 34.394 30.9096 33.988 30.7136 33.736C 30.5269 33.4747 30.1956 33.344 29.7196 33.344C 29.3836 33.344 29.0849 33.4233 28.8236 33.582C 28.5623 33.7407 28.2729 33.9833 27.9556 34.31L 27.9556 39L 26.3316 39L 26.3316 32.126ZM 34.5721 37.152C 34.5721 36.7693 34.6608 36.4333 34.8381 36.144C 35.0155 35.8453 35.2955 35.5933 35.6781 35.388C 36.0608 35.1827 36.5508 35.0147 37.1481 34.884C 37.7455 34.7533 38.4688 34.66 39.3181 34.604C 39.2901 34.212 39.1501 33.89 38.8981 33.638C 38.6461 33.386 38.2401 33.26 37.6801 33.26C 37.2881 33.26 36.9008 33.3347 36.5181 33.484C 36.1448 33.624 35.7808 33.792 35.4261 33.988L 34.8381 32.91C 35.2581 32.6673 35.7388 32.448 36.2801 32.252C 36.8215 32.056 37.3861 31.958 37.9741 31.958C 38.9355 31.958 39.6681 32.2147 40.1721 32.728C 40.6761 33.232 40.9281 33.9647 40.9281 34.926L 40.9281 39L 39.6121 39L 39.4861 38.146L 39.4441 38.146C 39.0801 38.426 38.6741 38.6687 38.2261 38.874C 37.7875 39.07 37.3348 39.168 36.8681 39.168C 36.5321 39.168 36.2241 39.1167 35.9441 39.014C 35.6641 38.9207 35.4215 38.7853 35.2161 38.608C 35.0108 38.4307 34.8521 38.2207 34.7401 37.978C 34.6281 37.726 34.5721 37.4507 34.5721 37.152ZM 36.1261 37.026C 36.1261 37.334 36.2428 37.558 36.4761 37.698C 36.7188 37.838 37.0128 37.908 37.3581 37.908C 37.7035 37.908 38.0348 37.8333 38.3521 37.684C 38.6788 37.5253 39.0008 37.32 39.3181 37.068L 39.3181 35.612C 38.7021 35.6587 38.1888 35.724 37.7781 35.808C 37.3675 35.8827 37.0408 35.9807 36.7981 36.102C 36.5555 36.2233 36.3828 36.3633 36.2801 36.522C 36.1775 36.6713 36.1261 36.8393 36.1261 37.026ZM 51.4592 32.224L 57.6752 32.224L 57.6752 33.4L 51.4592 33.4L 51.4592 32.224ZM 51.4592 35.346L 57.6752 35.346L 57.6752 36.522L 51.4592 36.522L 51.4592 35.346ZM 74.9683 30.516C 74.7163 30.4133 74.4689 30.3387 74.2262 30.292C 73.9929 30.2453 73.7362 30.222 73.4562 30.222C 72.9243 30.222 72.5369 30.3527 72.2943 30.614C 72.0609 30.866 71.9443 31.2347 71.9443 31.72L 71.9443 32.126L 74.5622 32.126L 74.5622 33.4L 71.9443 33.4L 71.9443 39L 70.3483 39L 70.3483 33.4L 68.4443 33.4L 68.4443 32.196L 70.3483 32.126L 70.3483 31.748C 70.3483 31.3467 70.4042 30.9733 70.5162 30.628C 70.6283 30.2827 70.8009 29.9887 71.0343 29.746C 71.2769 29.494 71.5803 29.298 71.9443 29.158C 72.3176 29.018 72.7562 28.948 73.2602 28.948C 73.6336 28.948 73.9883 28.9807 74.3243 29.046C 74.6696 29.1113 74.9963 29.2047 75.3043 29.326L 74.9683 30.516ZM 77.0068 36.9C 77.3054 37.152 77.6368 37.376 78.0008 37.572C 78.3741 37.7587 78.8174 37.852 79.3308 37.852C 79.8908 37.852 80.3574 37.7027 80.7308 37.404C 81.1134 37.1053 81.3048 36.6853 81.3048 36.144C 81.3048 35.612 81.1274 35.2013 80.7728 34.912C 80.4274 34.6227 79.9701 34.478 79.4008 34.478C 79.0741 34.478 78.7941 34.52 78.5608 34.604C 78.3274 34.6787 78.0568 34.8047 77.7488 34.982L 76.9788 34.492L 77.2588 30.096L 82.5088 30.096L 82.5088 31.454L 78.6588 31.454L 78.4628 33.61C 78.6961 33.5167 78.9201 33.4467 79.1348 33.4C 79.3494 33.344 79.5921 33.316 79.8628 33.316C 80.2828 33.316 80.6794 33.372 81.0528 33.484C 81.4261 33.596 81.7481 33.7687 82.0188 34.002C 82.2988 34.226 82.5181 34.5153 82.6768 34.87C 82.8448 35.2153 82.9288 35.626 82.9288 36.102C 82.9288 36.5873 82.8354 37.0213 82.6488 37.404C 82.4621 37.7867 82.2101 38.1087 81.8928 38.37C 81.5754 38.6313 81.2114 38.832 80.8008 38.972C 80.3994 39.1027 79.9748 39.168 79.5268 39.168C 78.7428 39.168 78.0894 39.0467 77.5668 38.804C 77.0534 38.552 76.6194 38.2627 76.2648 37.936L 77.0068 36.9ZM 88.1453 39.168C 87.128 39.168 86.3206 38.7667 85.7233 37.964C 85.1353 37.1613 84.8413 36.0087 84.8413 34.506C 84.8413 32.994 85.1353 31.8553 85.7233 31.09C 86.3206 30.3153 87.128 29.928 88.1453 29.928C 89.1626 29.928 89.9653 30.3153 90.5533 31.09C 91.1506 31.8553 91.4493 32.994 91.4493 34.506C 91.4493 36.0087 91.1506 37.1613 90.5533 37.964C 89.9653 38.7667 89.1626 39.168 88.1453 39.168ZM 88.1453 31.188C 87.8746 31.188 87.6273 31.2487 87.4033 31.37C 87.1793 31.482 86.9833 31.6687 86.8153 31.93C 86.6566 32.1913 86.5306 32.5367 86.4373 32.966C 86.344 33.386 86.2973 33.8993 86.2973 34.506C 86.2973 35.1127 86.344 35.6353 86.4373 36.074C 86.5306 36.5033 86.6566 36.8533 86.8153 37.124C 86.9833 37.3947 87.1793 37.5953 87.4033 37.726C 87.6273 37.8473 87.8746 37.908 88.1453 37.908C 88.4066 37.908 88.6493 37.8473 88.8733 37.726C 89.1066 37.5953 89.3026 37.3947 89.4613 37.124C 89.6293 36.8533 89.76 36.5033 89.8533 36.074C 89.9466 35.6353 89.9933 35.1127 89.9933 34.506C 89.9933 33.8993 89.9466 33.386 89.8533 32.966C 89.76 32.5367 89.6293 32.1913 89.4613 31.93C 89.3026 31.6687 89.1066 31.482 88.8733 31.37C 88.6493 31.2487 88.4066 31.188 88.1453 31.188ZM 88.1453 35.444C 87.8746 35.444 87.646 35.3553 87.4593 35.178C 87.2726 35.0007 87.1793 34.758 87.1793 34.45C 87.1793 34.142 87.2726 33.8993 87.4593 33.722C 87.646 33.5447 87.8746 33.456 88.1453 33.456C 88.416 33.456 88.6446 33.5447 88.8313 33.722C 89.018 33.8993 89.1113 34.142 89.1113 34.45C 89.1113 34.758 89.018 35.0007 88.8313 35.178C 88.6446 35.3553 88.416 35.444 88.1453 35.444ZM 96.5398 39.168C 95.5225 39.168 94.7152 38.7667 94.1178 37.964C 93.5298 37.1613 93.2358 36.0087 93.2358 34.506C 93.2358 32.994 93.5298 31.8553 94.1178 31.09C 94.7152 30.3153 95.5225 29.928 96.5398 29.928C 97.5572 29.928 98.3598 30.3153 98.9478 31.09C 99.5452 31.8553 99.8438 32.994 99.8438 34.506C 99.8438 36.0087 99.5452 37.1613 98.9478 37.964C 98.3598 38.7667 97.5572 39.168 96.5398 39.168ZM 96.5398 31.188C 96.2692 31.188 96.0218 31.2487 95.7978 31.37C 95.5738 31.482 95.3778 31.6687 95.2098 31.93C 95.0512 32.1913 94.9252 32.5367 94.8318 32.966C 94.7385 33.386 94.6918 33.8993 94.6918 34.506C 94.6918 35.1127 94.7385 35.6353 94.8318 36.074C 94.9252 36.5033 95.0512 36.8533 95.2098 37.124C 95.3778 37.3947 95.5738 37.5953 95.7978 37.726C 96.0218 37.8473 96.2692 37.908 96.5398 37.908C 96.8012 37.908 97.0438 37.8473 97.2678 37.726C 97.5012 37.5953 97.6972 37.3947 97.8558 37.124C 98.0238 36.8533 98.1545 36.5033 98.2478 36.074C 98.3412 35.6353 98.3878 35.1127 98.3878 34.506C 98.3878 33.8993 98.3412 33.386 98.2478 32.966C 98.1545 32.5367 98.0238 32.1913 97.8558 31.93C 97.6972 31.6687 97.5012 31.482 97.2678 31.37C 97.0438 31.2487 96.8012 31.188 96.5398 31.188ZM 96.5398 35.444C 96.2692 35.444 96.0405 35.3553 95.8538 35.178C 95.6672 35.0007 95.5738 34.758 95.5738 34.45C 95.5738 34.142 95.6672 33.8993 95.8538 33.722C 96.0405 33.5447 96.2692 33.456 96.5398 33.456C 96.8105 33.456 97.0392 33.5447 97.2258 33.722C 97.4125 33.8993 97.5058 34.142 97.5058 34.45C 97.5058 34.758 97.4125 35.0007 97.2258 35.178C 97.0392 35.3553 96.8105 35.444 96.5398 35.444ZM 108.294 39.868L 108.294 41.128L 101.574 41.128L 101.574 39.868L 108.294 39.868ZM 110.753 37.082C 111.145 37.3527 111.551 37.5673 111.971 37.726C 112.4 37.8753 112.881 37.95 113.413 37.95C 113.954 37.95 114.351 37.8753 114.603 37.726C 114.855 37.5673 114.981 37.3667 114.981 37.124C 114.981 36.8813 114.818 36.6807 114.491 36.522C 114.164 36.354 113.651 36.1767 112.951 35.99C 112.624 35.906 112.307 35.8033 111.999 35.682C 111.691 35.5607 111.42 35.4207 111.187 35.262C 110.954 35.1033 110.767 34.9213 110.627 34.716C 110.487 34.5107 110.417 34.2773 110.417 34.016C 110.417 33.4093 110.678 32.9147 111.201 32.532C 111.724 32.1493 112.475 31.958 113.455 31.958C 114.015 31.958 114.542 32.0513 115.037 32.238C 115.532 32.4247 115.956 32.6347 116.311 32.868L 115.569 33.862C 115.261 33.6567 114.93 33.4933 114.575 33.372C 114.23 33.2413 113.861 33.176 113.469 33.176C 112.937 33.176 112.564 33.2507 112.349 33.4C 112.134 33.54 112.027 33.7173 112.027 33.932C 112.027 34.0533 112.074 34.1653 112.167 34.268C 112.27 34.3613 112.405 34.45 112.573 34.534C 112.75 34.6087 112.956 34.6833 113.189 34.758C 113.422 34.8327 113.679 34.9027 113.959 34.968C 114.36 35.0707 114.72 35.1873 115.037 35.318C 115.364 35.4393 115.639 35.5793 115.863 35.738C 116.096 35.8967 116.274 36.0833 116.395 36.298C 116.526 36.5127 116.591 36.76 116.591 37.04C 116.591 37.3387 116.521 37.6187 116.381 37.88C 116.241 38.132 116.036 38.356 115.765 38.552C 115.494 38.7387 115.158 38.888 114.757 39C 114.356 39.112 113.894 39.168 113.371 39.168C 112.727 39.168 112.111 39.0653 111.523 38.86C 110.935 38.6547 110.426 38.4027 109.997 38.104L 110.753 37.082ZM 118.391 35.57C 118.391 35.01 118.489 34.506 118.685 34.058C 118.891 33.61 119.157 33.232 119.483 32.924C 119.81 32.6067 120.183 32.3687 120.603 32.21C 121.033 32.042 121.471 31.958 121.919 31.958C 122.433 31.958 122.885 32.042 123.277 32.21C 123.679 32.3687 124.015 32.5927 124.285 32.882C 124.556 33.162 124.761 33.5027 124.901 33.904C 125.041 34.3053 125.111 34.744 125.111 35.22C 125.111 35.3787 125.102 35.528 125.083 35.668C 125.074 35.808 125.06 35.92 125.041 36.004L 120.043 36.004C 120.099 36.62 120.342 37.096 120.771 37.432C 121.201 37.7587 121.728 37.922 122.353 37.922C 122.708 37.922 123.039 37.8753 123.347 37.782C 123.655 37.6793 123.968 37.5393 124.285 37.362L 124.831 38.37C 124.458 38.6033 124.043 38.7947 123.585 38.944C 123.128 39.0933 122.647 39.168 122.143 39.168C 121.621 39.168 121.131 39.0887 120.673 38.93C 120.216 38.762 119.819 38.524 119.483 38.216C 119.147 37.908 118.881 37.5347 118.685 37.096C 118.489 36.648 118.391 36.1393 118.391 35.57ZM 123.627 34.912C 123.627 34.38 123.487 33.9647 123.207 33.666C 122.927 33.358 122.512 33.204 121.961 33.204C 121.495 33.204 121.079 33.3487 120.715 33.638C 120.351 33.9273 120.123 34.352 120.029 34.912L 123.627 34.912ZM 126.912 29.116L 130.692 29.116L 130.692 36.578C 130.692 37.0447 130.809 37.376 131.042 37.572C 131.275 37.7587 131.569 37.852 131.924 37.852C 132.26 37.852 132.652 37.7633 133.1 37.586L 133.478 38.776C 133.151 38.888 132.843 38.9813 132.554 39.056C 132.274 39.1307 131.933 39.168 131.532 39.168C 130.72 39.168 130.109 38.9347 129.698 38.468C 129.287 38.0013 129.082 37.3433 129.082 36.494L 129.082 30.39L 126.912 30.39L 126.912 29.116ZM 137.294 29.088L 141.299 29.088L 141.299 29.97L 138.54 29.97L 138.54 40.246L 141.299 40.246L 141.299 41.128L 137.294 41.128L 137.294 29.088ZM 222.43 40.246L 222.43 29.97L 219.686 29.97L 219.686 29.088L 223.69 29.088L 223.69 41.128L 219.686 41.128L 219.686 40.246L 222.43 40.246ZM 236.139 32.224L 242.355 32.224L 242.355 33.4L 236.139 33.4L 236.139 32.224ZM 236.139 35.346L 242.355 35.346L 242.355 36.522L 236.139 36.522L 236.139 35.346ZM 244.533 32.224L 250.749 32.224L 250.749 33.4L 244.533 33.4L 244.533 32.224ZM 244.533 35.346L 250.749 35.346L 250.749 36.522L 244.533 36.522L 244.533 35.346Z"/>
<path id="path11_fill" d="M 169.431 14.188L 169.389 12.396L 171.349 12.396L 171.307 14.188L 170.887 17.422L 169.851 17.422L 169.431 14.188ZM 172.889 14.188L 172.847 12.396L 174.807 12.396L 174.765 14.188L 174.345 17.422L 173.309 17.422L 172.889 14.188ZM 178.105 15.126L 179.435 15.126L 179.575 16.68L 179.617 16.68C 179.972 16.12 180.396 15.6953 180.891 15.406C 181.395 15.1073 181.946 14.958 182.543 14.958C 182.823 14.958 183.061 14.9813 183.257 15.028C 183.462 15.0653 183.668 15.1353 183.873 15.238L 183.537 16.596C 183.313 16.5213 183.112 16.47 182.935 16.442C 182.767 16.4047 182.552 16.386 182.291 16.386C 181.815 16.386 181.358 16.5213 180.919 16.792C 180.48 17.0627 180.084 17.534 179.729 18.206L 179.729 22L 178.105 22L 178.105 15.126ZM 185.548 18.57C 185.548 18.01 185.646 17.506 185.842 17.058C 186.047 16.61 186.313 16.232 186.64 15.924C 186.966 15.6067 187.34 15.3687 187.76 15.21C 188.189 15.042 188.628 14.958 189.076 14.958C 189.589 14.958 190.042 15.042 190.434 15.21C 190.835 15.3687 191.171 15.5927 191.442 15.882C 191.712 16.162 191.918 16.5027 192.058 16.904C 192.198 17.3053 192.268 17.744 192.268 18.22C 192.268 18.3787 192.258 18.528 192.24 18.668C 192.23 18.808 192.216 18.92 192.198 19.004L 187.2 19.004C 187.256 19.62 187.498 20.096 187.928 20.432C 188.357 20.7587 188.884 20.922 189.51 20.922C 189.864 20.922 190.196 20.8753 190.504 20.782C 190.812 20.6793 191.124 20.5393 191.442 20.362L 191.988 21.37C 191.614 21.6033 191.199 21.7947 190.742 21.944C 190.284 22.0933 189.804 22.168 189.3 22.168C 188.777 22.168 188.287 22.0887 187.83 21.93C 187.372 21.762 186.976 21.524 186.64 21.216C 186.304 20.908 186.038 20.5347 185.842 20.096C 185.646 19.648 185.548 19.1393 185.548 18.57ZM 190.784 17.912C 190.784 17.38 190.644 16.9647 190.364 16.666C 190.084 16.358 189.668 16.204 189.118 16.204C 188.651 16.204 188.236 16.3487 187.872 16.638C 187.508 16.9273 187.279 17.352 187.186 17.912L 190.784 17.912ZM 193.648 15.126L 195.272 15.126L 196.602 18.696C 196.733 19.0413 196.85 19.3867 196.952 19.732C 197.064 20.068 197.176 20.4133 197.288 20.768L 197.344 20.768C 197.456 20.4133 197.564 20.068 197.666 19.732C 197.778 19.3867 197.9 19.0413 198.03 18.696L 199.36 15.126L 200.9 15.126L 198.226 22L 196.392 22L 193.648 15.126ZM 202.337 18.57C 202.337 18.01 202.435 17.506 202.631 17.058C 202.836 16.61 203.102 16.232 203.429 15.924C 203.755 15.6067 204.129 15.3687 204.549 15.21C 204.978 15.042 205.417 14.958 205.865 14.958C 206.378 14.958 206.831 15.042 207.223 15.21C 207.624 15.3687 207.96 15.5927 208.231 15.882C 208.501 16.162 208.707 16.5027 208.847 16.904C 208.987 17.3053 209.057 17.744 209.057 18.22C 209.057 18.3787 209.047 18.528 209.029 18.668C 209.019 18.808 209.005 18.92 208.987 19.004L 203.989 19.004C 204.045 19.62 204.287 20.096 204.717 20.432C 205.146 20.7587 205.673 20.922 206.299 20.922C 206.653 20.922 206.985 20.8753 207.293 20.782C 207.601 20.6793 207.913 20.5393 208.231 20.362L 208.777 21.37C 208.403 21.6033 207.988 21.7947 207.531 21.944C 207.073 22.0933 206.593 22.168 206.089 22.168C 205.566 22.168 205.076 22.0887 204.619 21.93C 204.161 21.762 203.765 21.524 203.429 21.216C 203.093 20.908 202.827 20.5347 202.631 20.096C 202.435 19.648 202.337 19.1393 202.337 18.57ZM 207.573 17.912C 207.573 17.38 207.433 16.9647 207.153 16.666C 206.873 16.358 206.457 16.204 205.907 16.204C 205.44 16.204 205.025 16.3487 204.661 16.638C 204.297 16.9273 204.068 17.352 203.975 17.912L 207.573 17.912ZM 211.011 15.126L 212.341 15.126L 212.467 16.162L 212.523 16.162C 212.85 15.8353 213.209 15.5553 213.601 15.322C 214.003 15.0793 214.469 14.958 215.001 14.958C 215.795 14.958 216.378 15.2007 216.751 15.686C 217.125 16.162 217.311 16.848 217.311 17.744L 217.311 22L 215.687 22L 215.687 17.954C 215.687 17.394 215.589 16.988 215.393 16.736C 215.207 16.4747 214.875 16.344 214.399 16.344C 214.063 16.344 213.765 16.4233 213.503 16.582C 213.242 16.7407 212.953 16.9833 212.635 17.31L 212.635 22L 211.011 22L 211.011 15.126ZM 225.468 22L 224.152 22L 224.026 20.908L 223.97 20.908C 223.643 21.2907 223.284 21.5987 222.892 21.832C 222.5 22.056 222.047 22.168 221.534 22.168C 220.731 22.168 220.148 21.93 219.784 21.454C 219.42 20.9687 219.238 20.278 219.238 19.382L 219.238 15.126L 220.848 15.126L 220.848 19.172C 220.848 19.732 220.941 20.1427 221.128 20.404C 221.324 20.656 221.66 20.782 222.136 20.782C 222.462 20.782 222.752 20.7073 223.004 20.558C 223.265 20.4087 223.55 20.1427 223.858 19.76L 223.858 15.126L 225.468 15.126L 225.468 22ZM 227.52 18.57C 227.52 18.01 227.618 17.506 227.814 17.058C 228.02 16.61 228.286 16.232 228.612 15.924C 228.939 15.6067 229.312 15.3687 229.732 15.21C 230.162 15.042 230.6 14.958 231.048 14.958C 231.562 14.958 232.014 15.042 232.406 15.21C 232.808 15.3687 233.144 15.5927 233.414 15.882C 233.685 16.162 233.89 16.5027 234.03 16.904C 234.17 17.3053 234.24 17.744 234.24 18.22C 234.24 18.3787 234.231 18.528 234.212 18.668C 234.203 18.808 234.189 18.92 234.17 19.004L 229.172 19.004C 229.228 19.62 229.471 20.096 229.9 20.432C 230.33 20.7587 230.857 20.922 231.482 20.922C 231.837 20.922 232.168 20.8753 232.476 20.782C 232.784 20.6793 233.097 20.5393 233.414 20.362L 233.96 21.37C 233.587 21.6033 233.172 21.7947 232.714 21.944C 232.257 22.0933 231.776 22.168 231.272 22.168C 230.75 22.168 230.26 22.0887 229.802 21.93C 229.345 21.762 228.948 21.524 228.612 21.216C 228.276 20.908 228.01 20.5347 227.814 20.096C 227.618 19.648 227.52 19.1393 227.52 18.57ZM 232.756 17.912C 232.756 17.38 232.616 16.9647 232.336 16.666C 232.056 16.358 231.641 16.204 231.09 16.204C 230.624 16.204 230.208 16.3487 229.844 16.638C 229.48 16.9273 229.252 17.352 229.158 17.912L 232.756 17.912ZM 236.671 20.082C 237.063 20.3527 237.469 20.5673 237.889 20.726C 238.318 20.8753 238.799 20.95 239.331 20.95C 239.872 20.95 240.269 20.8753 240.521 20.726C 240.773 20.5673 240.899 20.3667 240.899 20.124C 240.899 19.8813 240.736 19.6807 240.409 19.522C 240.082 19.354 239.569 19.1767 238.869 18.99C 238.542 18.906 238.225 18.8033 237.917 18.682C 237.609 18.5607 237.338 18.4207 237.105 18.262C 236.872 18.1033 236.685 17.9213 236.545 17.716C 236.405 17.5107 236.335 17.2773 236.335 17.016C 236.335 16.4093 236.596 15.9147 237.119 15.532C 237.642 15.1493 238.393 14.958 239.373 14.958C 239.933 14.958 240.46 15.0513 240.955 15.238C 241.45 15.4247 241.874 15.6347 242.229 15.868L 241.487 16.862C 241.179 16.6567 240.848 16.4933 240.493 16.372C 240.148 16.2413 239.779 16.176 239.387 16.176C 238.855 16.176 238.482 16.2507 238.267 16.4C 238.052 16.54 237.945 16.7173 237.945 16.932C 237.945 17.0533 237.992 17.1653 238.085 17.268C 238.188 17.3613 238.323 17.45 238.491 17.534C 238.668 17.6087 238.874 17.6833 239.107 17.758C 239.34 17.8327 239.597 17.9027 239.877 17.968C 240.278 18.0707 240.638 18.1873 240.955 18.318C 241.282 18.4393 241.557 18.5793 241.781 18.738C 242.014 18.8967 242.192 19.0833 242.313 19.298C 242.444 19.5127 242.509 19.76 242.509 20.04C 242.509 20.3387 242.439 20.6187 242.299 20.88C 242.159 21.132 241.954 21.356 241.683 21.552C 241.412 21.7387 241.076 21.888 240.675 22C 240.274 22.112 239.812 22.168 239.289 22.168C 238.645 22.168 238.029 22.0653 237.441 21.86C 236.853 21.6547 236.344 21.4027 235.915 21.104L 236.671 20.082ZM 244.981 14.188L 244.939 12.396L 246.899 12.396L 246.857 14.188L 246.437 17.422L 245.401 17.422L 244.981 14.188ZM 248.439 14.188L 248.397 12.396L 250.357 12.396L 250.315 14.188L 249.895 17.422L 248.859 17.422L 248.439 14.188ZM 144.247 31.188L 144.205 29.396L 146.165 29.396L 146.123 31.188L 145.703 34.422L 144.667 34.422L 144.247 31.188ZM 147.705 31.188L 147.663 29.396L 149.623 29.396L 149.581 31.188L 149.161 34.422L 148.125 34.422L 147.705 31.188ZM 152.124 35.57C 152.124 35.0007 152.226 34.492 152.432 34.044C 152.646 33.596 152.931 33.218 153.286 32.91C 153.64 32.602 154.056 32.3687 154.532 32.21C 155.008 32.042 155.507 31.958 156.03 31.958C 156.59 31.958 157.08 32.0513 157.5 32.238C 157.929 32.4247 158.288 32.6533 158.578 32.924L 157.808 33.932C 157.537 33.7173 157.262 33.554 156.982 33.442C 156.711 33.33 156.422 33.274 156.114 33.274C 155.423 33.274 154.863 33.484 154.434 33.904C 154.004 34.3147 153.79 34.87 153.79 35.57C 153.79 35.9153 153.846 36.228 153.958 36.508C 154.07 36.788 154.224 37.0307 154.42 37.236C 154.625 37.432 154.868 37.586 155.148 37.698C 155.428 37.8007 155.736 37.852 156.072 37.852C 156.464 37.852 156.818 37.7773 157.136 37.628C 157.462 37.4787 157.761 37.3013 158.032 37.096L 158.704 38.132C 158.312 38.4773 157.873 38.7387 157.388 38.916C 156.902 39.084 156.412 39.168 155.918 39.168C 155.376 39.168 154.872 39.0887 154.406 38.93C 153.948 38.7713 153.547 38.538 153.202 38.23C 152.866 37.922 152.6 37.544 152.404 37.096C 152.217 36.648 152.124 36.1393 152.124 35.57ZM 160.238 35.57C 160.238 35.0007 160.331 34.492 160.518 34.044C 160.714 33.596 160.971 33.218 161.288 32.91C 161.605 32.602 161.974 32.3687 162.394 32.21C 162.814 32.042 163.248 31.958 163.696 31.958C 164.144 31.958 164.578 32.042 164.998 32.21C 165.418 32.3687 165.787 32.602 166.104 32.91C 166.421 33.218 166.673 33.596 166.86 34.044C 167.056 34.492 167.154 35.0007 167.154 35.57C 167.154 36.1393 167.056 36.648 166.86 37.096C 166.673 37.544 166.421 37.922 166.104 38.23C 165.787 38.538 165.418 38.7713 164.998 38.93C 164.578 39.0887 164.144 39.168 163.696 39.168C 163.248 39.168 162.814 39.0887 162.394 38.93C 161.974 38.7713 161.605 38.538 161.288 38.23C 160.971 37.922 160.714 37.544 160.518 37.096C 160.331 36.648 160.238 36.1393 160.238 35.57ZM 161.904 35.57C 161.904 36.2607 162.063 36.816 162.38 37.236C 162.697 37.6467 163.136 37.852 163.696 37.852C 164.256 37.852 164.695 37.6467 165.012 37.236C 165.329 36.816 165.488 36.2607 165.488 35.57C 165.488 34.87 165.329 34.3147 165.012 33.904C 164.695 33.484 164.256 33.274 163.696 33.274C 163.136 33.274 162.697 33.484 162.38 33.904C 162.063 34.3147 161.904 34.87 161.904 35.57ZM 175.101 39L 173.785 39L 173.659 37.908L 173.603 37.908C 173.276 38.2907 172.917 38.5987 172.525 38.832C 172.133 39.056 171.68 39.168 171.167 39.168C 170.364 39.168 169.781 38.93 169.417 38.454C 169.053 37.9687 168.871 37.278 168.871 36.382L 168.871 32.126L 170.481 32.126L 170.481 36.172C 170.481 36.732 170.574 37.1427 170.761 37.404C 170.957 37.656 171.293 37.782 171.769 37.782C 172.095 37.782 172.385 37.7073 172.637 37.558C 172.898 37.4087 173.183 37.1427 173.491 36.76L 173.491 32.126L 175.101 32.126L 175.101 39ZM 177.433 32.126L 178.763 32.126L 178.889 33.162L 178.945 33.162C 179.272 32.8353 179.631 32.5553 180.023 32.322C 180.424 32.0793 180.891 31.958 181.423 31.958C 182.216 31.958 182.8 32.2007 183.173 32.686C 183.546 33.162 183.733 33.848 183.733 34.744L 183.733 39L 182.109 39L 182.109 34.954C 182.109 34.394 182.011 33.988 181.815 33.736C 181.628 33.4747 181.297 33.344 180.821 33.344C 180.485 33.344 180.186 33.4233 179.925 33.582C 179.664 33.7407 179.374 33.9833 179.057 34.31L 179.057 39L 177.433 39L 177.433 32.126ZM 187.34 33.4L 185.506 33.4L 185.506 32.196L 187.41 32.126L 187.62 30.25L 188.95 30.25L 188.95 32.126L 192.086 32.126L 192.086 33.4L 188.95 33.4L 188.95 36.228C 188.95 36.7973 189.066 37.2173 189.3 37.488C 189.533 37.7493 189.944 37.88 190.532 37.88C 190.83 37.88 191.101 37.8567 191.344 37.81C 191.586 37.754 191.82 37.684 192.044 37.6L 192.352 38.776C 192.044 38.8787 191.703 38.9673 191.33 39.042C 190.956 39.126 190.56 39.168 190.14 39.168C 189.617 39.168 189.178 39.098 188.824 38.958C 188.469 38.818 188.18 38.622 187.956 38.37C 187.741 38.1087 187.582 37.796 187.48 37.432C 187.386 37.068 187.34 36.6667 187.34 36.228L 187.34 33.4ZM 194.894 32.126L 196.224 32.126L 196.364 33.68L 196.406 33.68C 196.761 33.12 197.186 32.6953 197.68 32.406C 198.184 32.1073 198.735 31.958 199.332 31.958C 199.612 31.958 199.85 31.9813 200.046 32.028C 200.252 32.0653 200.457 32.1353 200.662 32.238L 200.326 33.596C 200.102 33.5213 199.902 33.47 199.724 33.442C 199.556 33.4047 199.342 33.386 199.08 33.386C 198.604 33.386 198.147 33.5213 197.708 33.792C 197.27 34.0627 196.873 34.534 196.518 35.206L 196.518 39L 194.894 39L 194.894 32.126ZM 202.715 40.428C 202.808 40.456 202.901 40.4793 202.995 40.498C 203.088 40.5167 203.186 40.526 203.289 40.526C 203.727 40.526 204.077 40.414 204.339 40.19C 204.6 39.9753 204.801 39.6953 204.941 39.35L 205.109 38.916L 202.029 32.126L 203.639 32.126L 205.053 35.5C 205.183 35.808 205.309 36.1347 205.431 36.48C 205.552 36.8253 205.678 37.1707 205.809 37.516L 205.865 37.516C 205.967 37.1893 206.079 36.8533 206.201 36.508C 206.322 36.1627 206.439 35.8267 206.551 35.5L 207.797 32.126L 209.323 32.126L 206.453 39.308C 206.303 39.7 206.135 40.05 205.949 40.358C 205.771 40.666 205.561 40.9273 205.319 41.142C 205.076 41.366 204.796 41.534 204.479 41.646C 204.161 41.7673 203.797 41.828 203.387 41.828C 203.2 41.828 203.023 41.814 202.855 41.786C 202.687 41.7673 202.537 41.7347 202.407 41.688L 202.715 40.428ZM 211.403 31.188L 211.361 29.396L 213.321 29.396L 213.279 31.188L 212.859 34.422L 211.823 34.422L 211.403 31.188ZM 214.861 31.188L 214.819 29.396L 216.779 29.396L 216.737 31.188L 216.317 34.422L 215.281 34.422L 214.861 31.188ZM 261.77 31.188L 261.728 29.396L 263.688 29.396L 263.646 31.188L 263.226 34.422L 262.19 34.422L 261.77 31.188ZM 265.228 31.188L 265.186 29.396L 267.146 29.396L 267.104 31.188L 266.684 34.422L 265.648 34.422L 265.228 31.188ZM 269.465 34.45C 269.465 33.7033 269.572 33.036 269.787 32.448C 270.002 31.8507 270.296 31.3467 270.669 30.936C 271.052 30.5253 271.5 30.2127 272.013 29.998C 272.536 29.7833 273.1 29.676 273.707 29.676C 274.267 29.676 274.766 29.7927 275.205 30.026C 275.644 30.2593 276.012 30.5253 276.311 30.824L 275.401 31.832C 275.177 31.608 274.925 31.4307 274.645 31.3C 274.374 31.16 274.062 31.09 273.707 31.09C 273.324 31.09 272.974 31.1693 272.657 31.328C 272.34 31.4773 272.069 31.6967 271.845 31.986C 271.621 32.266 271.444 32.6113 271.313 33.022C 271.192 33.4327 271.131 33.8947 271.131 34.408C 271.131 34.9307 271.192 35.402 271.313 35.822C 271.444 36.2327 271.621 36.5827 271.845 36.872C 272.078 37.152 272.354 37.3713 272.671 37.53C 272.998 37.6793 273.357 37.754 273.749 37.754C 274.122 37.754 274.454 37.6747 274.743 37.516C 275.042 37.3573 275.322 37.1333 275.583 36.844L 276.479 37.838C 276.106 38.2673 275.686 38.5987 275.219 38.832C 274.752 39.056 274.23 39.168 273.651 39.168C 273.063 39.168 272.512 39.0653 271.999 38.86C 271.495 38.6547 271.052 38.3513 270.669 37.95C 270.296 37.5487 270.002 37.054 269.787 36.466C 269.572 35.878 269.465 35.206 269.465 34.45ZM 278.168 29.116L 279.792 29.116L 279.792 31.664L 279.694 33.134C 280.011 32.8167 280.366 32.5413 280.758 32.308C 281.159 32.0747 281.626 31.958 282.158 31.958C 282.951 31.958 283.534 32.2007 283.908 32.686C 284.281 33.162 284.468 33.848 284.468 34.744L 284.468 39L 282.844 39L 282.844 34.954C 282.844 34.394 282.746 33.988 282.55 33.736C 282.363 33.4747 282.032 33.344 281.556 33.344C 281.22 33.344 280.921 33.4233 280.66 33.582C 280.398 33.7407 280.109 33.9833 279.792 34.31L 279.792 39L 278.168 39L 278.168 29.116ZM 286.59 32.126L 291.182 32.126L 291.182 39L 289.572 39L 289.572 33.4L 286.59 33.4L 286.59 32.126ZM 290.258 30.922C 289.931 30.922 289.656 30.824 289.432 30.628C 289.217 30.432 289.11 30.1707 289.11 29.844C 289.11 29.5173 289.217 29.256 289.432 29.06C 289.656 28.8547 289.931 28.752 290.258 28.752C 290.594 28.752 290.869 28.8547 291.084 29.06C 291.299 29.256 291.406 29.5173 291.406 29.844C 291.406 30.1707 291.299 30.432 291.084 30.628C 290.869 30.824 290.594 30.922 290.258 30.922ZM 294.957 32.126L 296.287 32.126L 296.413 33.162L 296.469 33.162C 296.795 32.8353 297.155 32.5553 297.547 32.322C 297.948 32.0793 298.415 31.958 298.947 31.958C 299.74 31.958 300.323 32.2007 300.697 32.686C 301.07 33.162 301.257 33.848 301.257 34.744L 301.257 39L 299.633 39L 299.633 34.954C 299.633 34.394 299.535 33.988 299.339 33.736C 299.152 33.4747 298.821 33.344 298.345 33.344C 298.009 33.344 297.71 33.4233 297.449 33.582C 297.187 33.7407 296.898 33.9833 296.581 34.31L 296.581 39L 294.957 39L 294.957 32.126ZM 303.197 37.152C 303.197 36.7693 303.286 36.4333 303.463 36.144C 303.64 35.8453 303.92 35.5933 304.303 35.388C 304.686 35.1827 305.176 35.0147 305.773 34.884C 306.37 34.7533 307.094 34.66 307.943 34.604C 307.915 34.212 307.775 33.89 307.523 33.638C 307.271 33.386 306.865 33.26 306.305 33.26C 305.913 33.26 305.526 33.3347 305.143 33.484C 304.77 33.624 304.406 33.792 304.051 33.988L 303.463 32.91C 303.883 32.6673 304.364 32.448 304.905 32.252C 305.446 32.056 306.011 31.958 306.599 31.958C 307.56 31.958 308.293 32.2147 308.797 32.728C 309.301 33.232 309.553 33.9647 309.553 34.926L 309.553 39L 308.237 39L 308.111 38.146L 308.069 38.146C 307.705 38.426 307.299 38.6687 306.851 38.874C 306.412 39.07 305.96 39.168 305.493 39.168C 305.157 39.168 304.849 39.1167 304.569 39.014C 304.289 38.9207 304.046 38.7853 303.841 38.608C 303.636 38.4307 303.477 38.2207 303.365 37.978C 303.253 37.726 303.197 37.4507 303.197 37.152ZM 304.751 37.026C 304.751 37.334 304.868 37.558 305.101 37.698C 305.344 37.838 305.638 37.908 305.983 37.908C 306.328 37.908 306.66 37.8333 306.977 37.684C 307.304 37.5253 307.626 37.32 307.943 37.068L 307.943 35.612C 307.327 35.6587 306.814 35.724 306.403 35.808C 305.992 35.8827 305.666 35.9807 305.423 36.102C 305.18 36.2233 305.008 36.3633 304.905 36.522C 304.802 36.6713 304.751 36.8393 304.751 37.026ZM 312.138 31.188L 312.096 29.396L 314.056 29.396L 314.014 31.188L 313.594 34.422L 312.558 34.422L 312.138 31.188ZM 315.596 31.188L 315.554 29.396L 317.514 29.396L 317.472 31.188L 317.052 34.422L 316.016 34.422L 315.596 31.188Z"/>
<path id="path12_fill" d="M 286.324 21.062C 287.024 20.4647 287.649 19.9187 288.2 19.424C 288.751 18.92 289.217 18.4533 289.6 18.024C 289.992 17.5947 290.291 17.1933 290.496 16.82C 290.701 16.4467 290.804 16.0873 290.804 15.742C 290.804 15.266 290.659 14.8927 290.37 14.622C 290.081 14.342 289.656 14.202 289.096 14.202C 288.704 14.202 288.345 14.3 288.018 14.496C 287.701 14.692 287.407 14.9253 287.136 15.196L 286.254 14.3C 286.683 13.8613 287.136 13.5253 287.612 13.292C 288.088 13.0493 288.653 12.928 289.306 12.928C 289.763 12.928 290.179 12.9933 290.552 13.124C 290.925 13.2547 291.243 13.4413 291.504 13.684C 291.775 13.9173 291.98 14.202 292.12 14.538C 292.269 14.874 292.344 15.2473 292.344 15.658C 292.344 16.05 292.246 16.4513 292.05 16.862C 291.863 17.2633 291.607 17.674 291.28 18.094C 290.953 18.5047 290.561 18.9293 290.104 19.368C 289.656 19.8067 289.175 20.2593 288.662 20.726C 288.923 20.7073 289.199 20.6887 289.488 20.67C 289.777 20.642 290.043 20.628 290.286 20.628L 292.806 20.628L 292.806 22L 286.324 22L 286.324 21.062ZM 298.261 20.936C 298.485 20.936 298.69 20.8987 298.877 20.824C 299.073 20.7493 299.245 20.642 299.395 20.502C 299.544 20.3527 299.661 20.1753 299.745 19.97C 299.829 19.7553 299.871 19.5127 299.871 19.242C 299.871 18.71 299.726 18.3133 299.437 18.052C 299.157 17.7907 298.765 17.66 298.261 17.66C 297.962 17.66 297.645 17.7393 297.309 17.898C 296.973 18.0473 296.641 18.3133 296.315 18.696C 296.417 19.4893 296.641 20.0633 296.987 20.418C 297.332 20.7633 297.757 20.936 298.261 20.936ZM 300.347 14.916C 300.141 14.72 299.889 14.5613 299.591 14.44C 299.301 14.3093 298.998 14.244 298.681 14.244C 298.363 14.244 298.06 14.3 297.771 14.412C 297.491 14.524 297.239 14.7107 297.015 14.972C 296.8 15.2333 296.623 15.5787 296.483 16.008C 296.352 16.428 296.277 16.946 296.259 17.562C 296.604 17.226 296.982 16.9647 297.393 16.778C 297.803 16.582 298.205 16.484 298.597 16.484C 298.998 16.484 299.367 16.54 299.703 16.652C 300.039 16.764 300.328 16.9367 300.571 17.17C 300.823 17.394 301.019 17.6787 301.159 18.024C 301.299 18.3693 301.369 18.7753 301.369 19.242C 301.369 19.69 301.285 20.096 301.117 20.46C 300.949 20.8147 300.72 21.118 300.431 21.37C 300.151 21.622 299.824 21.818 299.451 21.958C 299.077 22.098 298.685 22.168 298.275 22.168C 297.808 22.168 297.36 22.084 296.931 21.916C 296.511 21.7387 296.137 21.4727 295.811 21.118C 295.493 20.7633 295.237 20.3107 295.041 19.76C 294.854 19.2093 294.761 18.5607 294.761 17.814C 294.761 16.946 294.863 16.204 295.069 15.588C 295.283 14.972 295.568 14.468 295.923 14.076C 296.277 13.684 296.679 13.3947 297.127 13.208C 297.584 13.0213 298.06 12.928 298.555 12.928C 299.143 12.928 299.656 13.026 300.095 13.222C 300.543 13.418 300.916 13.656 301.215 13.936L 300.347 14.916ZM 303.659 19.9C 303.958 20.152 304.289 20.376 304.653 20.572C 305.026 20.7587 305.47 20.852 305.983 20.852C 306.543 20.852 307.01 20.7027 307.383 20.404C 307.766 20.1053 307.957 19.6853 307.957 19.144C 307.957 18.612 307.78 18.2013 307.425 17.912C 307.08 17.6227 306.622 17.478 306.053 17.478C 305.726 17.478 305.446 17.52 305.213 17.604C 304.98 17.6787 304.709 17.8047 304.401 17.982L 303.631 17.492L 303.911 13.096L 309.161 13.096L 309.161 14.454L 305.311 14.454L 305.115 16.61C 305.348 16.5167 305.572 16.4467 305.787 16.4C 306.002 16.344 306.244 16.316 306.515 16.316C 306.935 16.316 307.332 16.372 307.705 16.484C 308.078 16.596 308.4 16.7687 308.671 17.002C 308.951 17.226 309.17 17.5153 309.329 17.87C 309.497 18.2153 309.581 18.626 309.581 19.102C 309.581 19.5873 309.488 20.0213 309.301 20.404C 309.114 20.7867 308.862 21.1087 308.545 21.37C 308.228 21.6313 307.864 21.832 307.453 21.972C 307.052 22.1027 306.627 22.168 306.179 22.168C 305.395 22.168 304.742 22.0467 304.219 21.804C 303.706 21.552 303.272 21.2627 302.917 20.936L 303.659 19.9ZM 314.798 22.168C 313.78 22.168 312.973 21.7667 312.376 20.964C 311.788 20.1613 311.494 19.0087 311.494 17.506C 311.494 15.994 311.788 14.8553 312.376 14.09C 312.973 13.3153 313.78 12.928 314.798 12.928C 315.815 12.928 316.618 13.3153 317.206 14.09C 317.803 14.8553 318.102 15.994 318.102 17.506C 318.102 19.0087 317.803 20.1613 317.206 20.964C 316.618 21.7667 315.815 22.168 314.798 22.168ZM 314.798 14.188C 314.527 14.188 314.28 14.2487 314.056 14.37C 313.832 14.482 313.636 14.6687 313.468 14.93C 313.309 15.1913 313.183 15.5367 313.09 15.966C 312.996 16.386 312.95 16.8993 312.95 17.506C 312.95 18.1127 312.996 18.6353 313.09 19.074C 313.183 19.5033 313.309 19.8533 313.468 20.124C 313.636 20.3947 313.832 20.5953 314.056 20.726C 314.28 20.8473 314.527 20.908 314.798 20.908C 315.059 20.908 315.302 20.8473 315.526 20.726C 315.759 20.5953 315.955 20.3947 316.114 20.124C 316.282 19.8533 316.412 19.5033 316.506 19.074C 316.599 18.6353 316.646 18.1127 316.646 17.506C 316.646 16.8993 316.599 16.386 316.506 15.966C 316.412 15.5367 316.282 15.1913 316.114 14.93C 315.955 14.6687 315.759 14.482 315.526 14.37C 315.302 14.2487 315.059 14.188 314.798 14.188ZM 314.798 18.444C 314.527 18.444 314.298 18.3553 314.112 18.178C 313.925 18.0007 313.832 17.758 313.832 17.45C 313.832 17.142 313.925 16.8993 314.112 16.722C 314.298 16.5447 314.527 16.456 314.798 16.456C 315.068 16.456 315.297 16.5447 315.484 16.722C 315.67 16.8993 315.764 17.142 315.764 17.45C 315.764 17.758 315.67 18.0007 315.484 18.178C 315.297 18.3553 315.068 18.444 314.798 18.444ZM 323.192 22.168C 322.175 22.168 321.368 21.7667 320.77 20.964C 320.182 20.1613 319.888 19.0087 319.888 17.506C 319.888 15.994 320.182 14.8553 320.77 14.09C 321.368 13.3153 322.175 12.928 323.192 12.928C 324.21 12.928 325.012 13.3153 325.6 14.09C 326.198 14.8553 326.496 15.994 326.496 17.506C 326.496 19.0087 326.198 20.1613 325.6 20.964C 325.012 21.7667 324.21 22.168 323.192 22.168ZM 323.192 14.188C 322.922 14.188 322.674 14.2487 322.45 14.37C 322.226 14.482 322.03 14.6687 321.862 14.93C 321.704 15.1913 321.578 15.5367 321.484 15.966C 321.391 16.386 321.344 16.8993 321.344 17.506C 321.344 18.1127 321.391 18.6353 321.484 19.074C 321.578 19.5033 321.704 19.8533 321.862 20.124C 322.03 20.3947 322.226 20.5953 322.45 20.726C 322.674 20.8473 322.922 20.908 323.192 20.908C 323.454 20.908 323.696 20.8473 323.92 20.726C 324.154 20.5953 324.35 20.3947 324.508 20.124C 324.676 19.8533 324.807 19.5033 324.9 19.074C 324.994 18.6353 325.04 18.1127 325.04 17.506C 325.04 16.8993 324.994 16.386 324.9 15.966C 324.807 15.5367 324.676 15.1913 324.508 14.93C 324.35 14.6687 324.154 14.482 323.92 14.37C 323.696 14.2487 323.454 14.188 323.192 14.188ZM 323.192 18.444C 322.922 18.444 322.693 18.3553 322.506 18.178C 322.32 18.0007 322.226 17.758 322.226 17.45C 322.226 17.142 322.32 16.8993 322.506 16.722C 322.693 16.5447 322.922 16.456 323.192 16.456C 323.463 16.456 323.692 16.5447 323.878 16.722C 324.065 16.8993 324.158 17.142 324.158 17.45C 324.158 17.758 324.065 18.0007 323.878 18.178C 323.692 18.3553 323.463 18.444 323.192 18.444ZM 331.587 22.168C 330.569 22.168 329.762 21.7667 329.165 20.964C 328.577 20.1613 328.283 19.0087 328.283 17.506C 328.283 15.994 328.577 14.8553 329.165 14.09C 329.762 13.3153 330.569 12.928 331.587 12.928C 332.604 12.928 333.407 13.3153 333.995 14.09C 334.592 14.8553 334.891 15.994 334.891 17.506C 334.891 19.0087 334.592 20.1613 333.995 20.964C 333.407 21.7667 332.604 22.168 331.587 22.168ZM 331.587 14.188C 331.316 14.188 331.069 14.2487 330.845 14.37C 330.621 14.482 330.425 14.6687 330.257 14.93C 330.098 15.1913 329.972 15.5367 329.879 15.966C 329.785 16.386 329.739 16.8993 329.739 17.506C 329.739 18.1127 329.785 18.6353 329.879 19.074C 329.972 19.5033 330.098 19.8533 330.257 20.124C 330.425 20.3947 330.621 20.5953 330.845 20.726C 331.069 20.8473 331.316 20.908 331.587 20.908C 331.848 20.908 332.091 20.8473 332.315 20.726C 332.548 20.5953 332.744 20.3947 332.903 20.124C 333.071 19.8533 333.201 19.5033 333.295 19.074C 333.388 18.6353 333.435 18.1127 333.435 17.506C 333.435 16.8993 333.388 16.386 333.295 15.966C 333.201 15.5367 333.071 15.1913 332.903 14.93C 332.744 14.6687 332.548 14.482 332.315 14.37C 332.091 14.2487 331.848 14.188 331.587 14.188ZM 331.587 18.444C 331.316 18.444 331.087 18.3553 330.901 18.178C 330.714 18.0007 330.621 17.758 330.621 17.45C 330.621 17.142 330.714 16.8993 330.901 16.722C 331.087 16.5447 331.316 16.456 331.587 16.456C 331.857 16.456 332.086 16.5447 332.273 16.722C 332.459 16.8993 332.553 17.142 332.553 17.45C 332.553 17.758 332.459 18.0007 332.273 18.178C 332.086 18.3553 331.857 18.444 331.587 18.444Z"/>
<path id="path13_fill" d="M 13.4517 10.528C 13.4517 9.94933 13.559 9.436 13.7737 8.988C 13.9977 8.53067 14.2917 8.148 14.6557 7.84C 15.029 7.532 15.4583 7.29867 15.9437 7.14C 16.429 6.972 16.9377 6.888 17.4697 6.888C 18.0203 6.888 18.515 6.97667 18.9537 7.154C 19.4017 7.33133 19.775 7.55533 20.0737 7.826L 19.1217 9.1C 18.6083 8.736 18.095 8.554 17.5817 8.554C 16.9843 8.554 16.499 8.73133 16.1257 9.086C 15.7523 9.44067 15.5657 9.92133 15.5657 10.528C 15.5657 11.1347 15.743 11.6153 16.0977 11.97C 16.4617 12.3247 16.933 12.502 17.5117 12.502C 17.8757 12.502 18.2117 12.4367 18.5197 12.306C 18.8277 12.1753 19.103 12.0213 19.3457 11.844L 20.1857 13.146C 19.7657 13.5007 19.299 13.762 18.7857 13.93C 18.2817 14.0887 17.7917 14.168 17.3157 14.168C 16.765 14.168 16.2563 14.0887 15.7897 13.93C 15.323 13.762 14.9123 13.524 14.5577 13.216C 14.2123 12.908 13.9417 12.53 13.7457 12.082C 13.5497 11.6247 13.4517 11.1067 13.4517 10.528ZM 21.9162 4.186L 23.9742 4.186L 23.9742 6.594L 23.8622 7.924C 24.0022 7.79333 24.1515 7.66733 24.3102 7.546C 24.4782 7.41533 24.6555 7.30333 24.8422 7.21C 25.0382 7.10733 25.2482 7.028 25.4722 6.972C 25.7055 6.916 25.9529 6.888 26.2142 6.888C 26.9982 6.888 27.5675 7.14 27.9222 7.644C 28.2862 8.148 28.4682 8.83867 28.4682 9.716L 28.4682 14L 26.4102 14L 26.4102 9.982C 26.4102 9.51533 26.3355 9.17467 26.1862 8.96C 26.0369 8.74533 25.7709 8.638 25.3882 8.638C 25.1082 8.638 24.8609 8.69867 24.6462 8.82C 24.4409 8.94133 24.2169 9.12333 23.9742 9.366L 23.9742 14L 21.9162 14L 21.9162 4.186ZM 30.4087 7.056L 35.2527 7.056L 35.2527 14L 33.1947 14L 33.1947 8.666L 30.4087 8.666L 30.4087 7.056ZM 34.1327 6.034C 33.7314 6.034 33.4001 5.922 33.1387 5.698C 32.8867 5.474 32.7607 5.17067 32.7607 4.788C 32.7607 4.40533 32.8867 4.09733 33.1387 3.864C 33.4001 3.62133 33.7314 3.5 34.1327 3.5C 34.5341 3.5 34.8607 3.62133 35.1127 3.864C 35.3741 4.09733 35.5047 4.40533 35.5047 4.788C 35.5047 5.17067 35.3741 5.474 35.1127 5.698C 34.8607 5.922 34.5341 6.034 34.1327 6.034ZM 38.7053 7.056L 40.3853 7.056L 40.5393 7.98L 40.5953 7.98C 40.8939 7.68133 41.2346 7.42467 41.6173 7.21C 42.0093 6.99533 42.4666 6.888 42.9893 6.888C 43.7733 6.888 44.3473 7.14 44.7113 7.644C 45.0753 8.148 45.2573 8.83867 45.2573 9.716L 45.2573 14L 43.1993 14L 43.1993 9.982C 43.1993 9.51533 43.1246 9.17467 42.9753 8.96C 42.8259 8.74533 42.5599 8.638 42.1773 8.638C 41.8973 8.638 41.6499 8.69867 41.4353 8.82C 41.2299 8.94133 41.0059 9.12333 40.7633 9.366L 40.7633 14L 38.7053 14L 38.7053 7.056ZM 46.9458 12.068C 46.9458 11.676 47.0298 11.3353 47.1978 11.046C 47.3658 10.7473 47.6318 10.4953 47.9958 10.29C 48.3691 10.0847 48.8451 9.92133 49.4238 9.8C 50.0025 9.66933 50.7025 9.58067 51.5238 9.534C 51.4865 9.21667 51.3465 8.96933 51.1038 8.792C 50.8705 8.61467 50.5158 8.526 50.0398 8.526C 49.7038 8.526 49.3631 8.58667 49.0178 8.708C 48.6818 8.82 48.3178 8.974 47.9258 9.17L 47.1978 7.826C 47.6738 7.55533 48.1825 7.33133 48.7238 7.154C 49.2745 6.97667 49.8485 6.888 50.4458 6.888C 51.4165 6.888 52.1818 7.14467 52.7418 7.658C 53.3018 8.17133 53.5818 8.96 53.5818 10.024L 53.5818 14L 51.9018 14L 51.7478 13.216L 51.6918 13.216C 51.3371 13.4867 50.9498 13.7153 50.5298 13.902C 50.1098 14.0793 49.6758 14.168 49.2278 14.168C 48.8731 14.168 48.5558 14.112 48.2758 14C 47.9958 13.8973 47.7578 13.7527 47.5618 13.566C 47.3658 13.37 47.2118 13.146 47.0998 12.894C 46.9971 12.642 46.9458 12.3667 46.9458 12.068ZM 48.9198 11.914C 48.9198 12.138 49.0038 12.306 49.1718 12.418C 49.3491 12.5207 49.5871 12.572 49.8858 12.572C 50.1938 12.572 50.4831 12.5113 50.7538 12.39C 51.0245 12.2593 51.2811 12.1007 51.5238 11.914L 51.5238 10.766C 51.0105 10.794 50.5858 10.8407 50.2498 10.906C 49.9138 10.9713 49.6478 11.0553 49.4518 11.158C 49.2558 11.2513 49.1158 11.3633 49.0318 11.494C 48.9571 11.6247 48.9198 11.7647 48.9198 11.914Z"/>
</defs>
</svg>
