<svg width="1110" height="552" viewBox="0 0 1110 552" fill="none" xmlns="http://www.w3.org/2000/svg">
<rect width="555" height="275.65" transform="translate(0 0.699951) scale(2)" fill="white"/>
<path d="M344.325 516.286H352.33V518.196H341.466V516.476L349.016 506.447H341.58V504.512H351.95V506.169L344.325 516.286Z" fill="#BDBDBD"/>
<path d="M346.892 472.784L350.079 462.528H352.583L347.081 478.323C346.23 480.599 344.877 481.738 343.022 481.738L342.579 481.7L341.707 481.535V479.638L342.339 479.689C343.132 479.689 343.747 479.529 344.185 479.208C344.632 478.888 344.999 478.302 345.286 477.45L345.804 476.059L340.923 462.528H343.477L346.892 472.784Z" fill="#BDBDBD"/>
<path d="M346.715 425.538L349.75 420.543H352.481L348.005 427.309L352.621 434.227H349.914L346.753 429.105L343.591 434.227H340.872L345.488 427.309L341.011 420.543H343.717L346.715 425.538Z" fill="#BDBDBD"/>
<path d="M350.926 389.017L353.556 378.559H355.896L351.912 392.242H350.015L346.689 381.872L343.452 392.242H341.555L337.584 378.559H339.911L342.605 388.802L345.792 378.559H347.676L350.926 389.017Z" fill="#BDBDBD"/>
<path d="M346.656 346.452L350.045 335.943H352.435L347.528 349.627H345.745L340.788 335.943H343.178L346.656 346.452Z" fill="#BDBDBD"/>
<rect x="362.724" y="316.786" width="42.7911" height="42.8167" fill="#EB5757" fill-opacity="0.2" stroke="black" stroke-width="0.925"/>
<rect x="362.724" y="358.873" width="42.7911" height="42.8167" fill="#EB5757" fill-opacity="0.2" stroke="black" stroke-width="0.925"/>
<rect x="362.724" y="400.959" width="42.7911" height="42.8167" fill="#EB5757" fill-opacity="0.2" stroke="black" stroke-width="0.925"/>
<rect x="362.724" y="443.046" width="42.7911" height="42.8167" fill="#EB5757" fill-opacity="0.2" stroke="black" stroke-width="0.925"/>
<rect x="362.724" y="485.133" width="42.7911" height="42.8167" fill="#EB5757" fill-opacity="0.2" stroke="black" stroke-width="0.925"/>
<path d="M433.033 516.286H441.038V518.196H430.175V516.476L437.725 506.447H430.289V504.512H440.659V506.169L433.033 516.286Z" fill="#BDBDBD"/>
<path d="M435.6 472.784L438.787 462.528H441.291L435.79 478.323C434.939 480.599 433.585 481.738 431.731 481.738L431.288 481.7L430.415 481.535V479.638L431.048 479.689C431.84 479.689 432.456 479.529 432.894 479.208C433.341 478.888 433.708 478.302 433.994 477.45L434.513 476.059L429.631 462.528H432.186L435.6 472.784Z" fill="#BDBDBD"/>
<path d="M435.423 425.538L438.459 420.543H441.19L436.713 427.309L441.329 434.227H438.623L435.461 429.105L432.3 434.227H429.581L434.197 427.309L429.72 420.543H432.426L435.423 425.538Z" fill="#BDBDBD"/>
<path d="M439.635 389.017L442.265 378.559H444.605L440.621 392.242H438.724L435.398 381.872L432.161 392.242H430.264L426.293 378.559H428.62L431.313 388.802L434.5 378.559H436.384L439.635 389.017Z" fill="#BDBDBD"/>
<path d="M435.364 346.452L438.753 335.943H441.144L436.237 349.627H434.454L429.496 335.943H431.886L435.364 346.452Z" fill="#BDBDBD"/>
<rect x="451.433" y="316.786" width="42.7911" height="42.8167" fill="#F2994A" fill-opacity="0.2" stroke="black" stroke-width="0.925"/>
<rect x="451.433" y="358.873" width="42.7911" height="42.8167" fill="#F2994A" fill-opacity="0.2" stroke="black" stroke-width="0.925"/>
<rect x="451.433" y="400.959" width="42.7911" height="42.8167" fill="#F2994A" fill-opacity="0.2" stroke="black" stroke-width="0.925"/>
<rect x="451.433" y="443.046" width="42.7911" height="42.8167" fill="#F2994A" fill-opacity="0.2" stroke="black" stroke-width="0.925"/>
<rect x="451.433" y="485.133" width="42.7911" height="42.8167" fill="#F2994A" fill-opacity="0.2" stroke="black" stroke-width="0.925"/>
<path d="M521.742 516.286H529.747V518.196H518.884V516.476L526.434 506.447H518.998V504.512H529.368V506.169L521.742 516.286Z" fill="#BDBDBD"/>
<path d="M524.309 472.784L527.496 462.528H530L524.499 478.323C523.647 480.599 522.294 481.738 520.439 481.738L519.997 481.7L519.124 481.535V479.638L519.756 479.689C520.549 479.689 521.164 479.529 521.603 479.208C522.05 478.888 522.416 478.302 522.703 477.45L523.221 476.059L518.34 462.528H520.894L524.309 472.784Z" fill="#BDBDBD"/>
<path d="M524.132 425.538L527.167 420.543H529.899L525.422 427.309L530.038 434.227H527.332L524.17 429.105L521.008 434.227H518.289L522.905 427.309L518.428 420.543H521.135L524.132 425.538Z" fill="#BDBDBD"/>
<path d="M528.343 389.017L530.974 378.559H533.313L529.33 392.242H527.433L524.107 381.872L520.869 392.242H518.972L515.001 378.559H517.328L520.022 388.802L523.209 378.559H525.093L528.343 389.017Z" fill="#BDBDBD"/>
<path d="M524.073 346.452L527.462 335.943H529.852L524.945 349.627H523.162L518.205 335.943H520.595L524.073 346.452Z" fill="#BDBDBD"/>
<rect x="540.142" y="316.786" width="42.7911" height="42.8167" fill="#F2C94C" fill-opacity="0.2" stroke="black" stroke-width="0.925"/>
<rect x="540.142" y="358.873" width="42.7911" height="42.8167" fill="#F2C94C" fill-opacity="0.2" stroke="black" stroke-width="0.925"/>
<rect x="540.142" y="400.959" width="42.7911" height="42.8167" fill="#F2C94C" fill-opacity="0.2" stroke="black" stroke-width="0.925"/>
<rect x="540.142" y="443.046" width="42.7911" height="42.8167" fill="#F2C94C" fill-opacity="0.2" stroke="black" stroke-width="0.925"/>
<rect x="540.142" y="485.133" width="42.7911" height="42.8167" fill="#F2C94C" fill-opacity="0.2" stroke="black" stroke-width="0.925"/>
<path d="M610.45 516.286H618.456V518.196H607.592V516.476L615.142 506.447H607.706V504.512H618.076V506.169L610.45 516.286Z" fill="#BDBDBD"/>
<path d="M613.018 472.784L616.205 462.528H618.709L613.207 478.323C612.356 480.599 611.003 481.738 609.148 481.738L608.705 481.7L607.833 481.535V479.638L608.465 479.689C609.257 479.689 609.873 479.529 610.311 479.208C610.758 478.888 611.125 478.302 611.412 477.45L611.93 476.059L607.049 462.528H609.603L613.018 472.784Z" fill="#BDBDBD"/>
<path d="M612.841 425.538L615.876 420.543H618.607L614.131 427.309L618.747 434.227H616.04L612.879 429.105L609.717 434.227H606.998L611.614 427.309L607.137 420.543H609.843L612.841 425.538Z" fill="#BDBDBD"/>
<path d="M617.052 389.017L619.682 378.559H622.022L618.038 392.242H616.141L612.815 381.872L609.578 392.242H607.681L603.71 378.559H606.037L608.731 388.802L611.917 378.559H613.802L617.052 389.017Z" fill="#BDBDBD"/>
<path d="M612.782 346.452L616.171 335.943H618.561L613.654 349.627H611.871L606.914 335.943H609.304L612.782 346.452Z" fill="#BDBDBD"/>
<rect x="628.85" y="316.786" width="42.7911" height="42.8167" fill="#27AE60" fill-opacity="0.2" stroke="black" stroke-width="0.925"/>
<rect x="628.85" y="358.873" width="42.7911" height="42.8167" fill="#27AE60" fill-opacity="0.2" stroke="black" stroke-width="0.925"/>
<rect x="628.85" y="400.959" width="42.7911" height="42.8167" fill="#27AE60" fill-opacity="0.2" stroke="black" stroke-width="0.925"/>
<rect x="628.85" y="443.046" width="42.7911" height="42.8167" fill="#27AE60" fill-opacity="0.2" stroke="black" stroke-width="0.925"/>
<rect x="628.85" y="485.133" width="42.7911" height="42.8167" fill="#27AE60" fill-opacity="0.2" stroke="black" stroke-width="0.925"/>
<path d="M699.159 516.286H707.164V518.196H696.301V516.476L703.851 506.447H696.415V504.512H706.785V506.169L699.159 516.286Z" fill="#BDBDBD"/>
<path d="M701.726 472.784L704.913 462.528H707.417L701.916 478.323C701.065 480.599 699.711 481.738 697.857 481.738L697.414 481.7L696.541 481.535V479.638L697.174 479.689C697.966 479.689 698.582 479.529 699.02 479.208C699.467 478.888 699.834 478.302 700.12 477.45L700.639 476.059L695.757 462.528H698.312L701.726 472.784Z" fill="#BDBDBD"/>
<path d="M701.549 425.538L704.584 420.543H707.316L702.839 427.309L707.455 434.227H704.749L701.587 429.105L698.426 434.227H695.707L700.323 427.309L695.846 420.543H698.552L701.549 425.538Z" fill="#BDBDBD"/>
<path d="M705.761 389.017L708.391 378.559H710.731L706.747 392.242H704.85L701.524 381.872L698.286 392.242H696.39L692.419 378.559H694.745L697.439 388.802L700.626 378.559H702.51L705.761 389.017Z" fill="#BDBDBD"/>
<path d="M701.49 346.452L704.879 335.943H707.27L702.363 349.627H700.58L695.622 335.943H698.012L701.49 346.452Z" fill="#BDBDBD"/>
<rect x="717.559" y="316.786" width="42.7911" height="42.8167" fill="#2D9CDB" fill-opacity="0.2" stroke="black" stroke-width="0.925"/>
<rect x="717.559" y="358.873" width="42.7911" height="42.8167" fill="#2D9CDB" fill-opacity="0.2" stroke="black" stroke-width="0.925"/>
<rect x="717.559" y="400.959" width="42.7911" height="42.8167" fill="#2D9CDB" fill-opacity="0.2" stroke="black" stroke-width="0.925"/>
<rect x="717.559" y="443.046" width="42.7911" height="42.8167" fill="#2D9CDB" fill-opacity="0.2" stroke="black" stroke-width="0.925"/>
<rect x="717.559" y="485.133" width="42.7911" height="42.8167" fill="#2D9CDB" fill-opacity="0.2" stroke="black" stroke-width="0.925"/>
<path d="M382.855 304.665C382.793 305.171 383.155 305.632 383.663 305.694L391.933 306.696C392.441 306.758 392.902 306.397 392.964 305.89C393.025 305.383 392.663 304.922 392.156 304.861L384.804 303.97L385.694 296.629C385.755 296.122 385.394 295.662 384.886 295.6C384.378 295.539 383.917 295.9 383.856 296.406L382.855 304.665ZM494.464 216.979L383.203 304.048L384.345 305.504L495.607 218.434L494.464 216.979Z" fill="black"/>
<path d="M471.579 304.976C471.689 305.474 472.183 305.789 472.682 305.679L480.816 303.88C481.316 303.77 481.631 303.277 481.521 302.778C481.411 302.28 480.917 301.965 480.417 302.075L473.187 303.674L471.591 296.453C471.48 295.955 470.986 295.64 470.487 295.75C469.988 295.861 469.673 296.354 469.783 296.853L471.579 304.976ZM527.333 217.21L471.702 304.279L473.263 305.273L528.893 218.204L527.333 217.21Z" fill="black"/>
<path d="M560.537 305.43C560.898 305.791 561.484 305.791 561.845 305.43L567.732 299.543C568.093 299.182 568.093 298.597 567.732 298.235C567.371 297.874 566.785 297.874 566.424 298.235L561.191 303.468L555.959 298.235C555.597 297.874 555.012 297.874 554.65 298.235C554.289 298.597 554.289 299.182 554.65 299.543L560.537 305.43ZM560.266 217.707V304.776H562.116V217.707H560.266Z" fill="black"/>
<path d="M649.7 305.679C650.199 305.789 650.693 305.474 650.804 304.976L652.599 296.853C652.709 296.354 652.394 295.861 651.895 295.75C651.396 295.64 650.902 295.955 650.791 296.453L649.195 303.674L641.965 302.075C641.466 301.965 640.972 302.28 640.861 302.778C640.751 303.277 641.067 303.77 641.566 303.88L649.7 305.679ZM593.489 218.204L649.12 305.273L650.68 304.279L595.049 217.21L593.489 218.204Z" fill="black"/>
<path d="M738.72 305.694C739.227 305.632 739.589 305.171 739.527 304.665L738.526 296.406C738.465 295.9 738.004 295.539 737.496 295.6C736.989 295.662 736.627 296.122 736.688 296.629L737.578 303.97L730.226 304.861C729.719 304.922 729.357 305.383 729.419 305.89C729.48 306.397 729.941 306.758 730.449 306.696L738.72 305.694ZM626.776 218.434L738.037 305.504L739.18 304.048L627.918 216.979L626.776 218.434Z" fill="black"/>
<path d="M464.418 200.962H471.279V202.599H461.968V201.125L468.439 192.529H462.065V190.871H470.954V192.291L464.418 200.962Z" fill="#BDBDBD"/>
<path d="M466.618 167.277L469.35 158.486H471.496L466.781 172.025C466.051 173.976 464.891 174.952 463.301 174.952L462.922 174.919L462.174 174.778V173.152L462.716 173.196C463.395 173.196 463.923 173.058 464.298 172.784C464.681 172.509 464.996 172.007 465.241 171.277L465.686 170.085L461.502 158.486H463.691L466.618 167.277Z" fill="#BDBDBD"/>
<path d="M466.466 130.383L469.068 126.102H471.409L467.572 131.901L471.528 137.83H469.209L466.499 133.44L463.789 137.83H461.458L465.415 131.901L461.578 126.102H463.897L466.466 130.383Z" fill="#BDBDBD"/>
<path d="M470.076 102.682L472.331 93.7176H474.336L470.921 105.446H469.295L466.445 96.5576L463.67 105.446H462.044L458.64 93.7176H460.634L462.943 102.498L465.675 93.7176H467.29L470.076 102.682Z" fill="#BDBDBD"/>
<path d="M466.427 69.8543L469.332 60.8464H471.381L467.175 72.5751H465.646L461.397 60.8464H463.446L466.427 69.8543Z" fill="#BDBDBD"/>
<rect x="478.497" y="48.0715" width="33.0778" height="33.0263" fill="#EB5757" fill-opacity="0.2" stroke="black" stroke-width="0.925"/>
<rect x="478.497" y="80.5349" width="33.0778" height="33.0263" fill="#EB5757" fill-opacity="0.2" stroke="black" stroke-width="0.925"/>
<rect x="478.497" y="112.998" width="33.0778" height="33.0263" fill="#EB5757" fill-opacity="0.2" stroke="black" stroke-width="0.925"/>
<rect x="478.497" y="145.462" width="33.0778" height="33.0263" fill="#EB5757" fill-opacity="0.2" stroke="black" stroke-width="0.925"/>
<rect x="511.574" y="48.0715" width="33.0778" height="33.0263" fill="#F2994A" fill-opacity="0.2" stroke="black" stroke-width="0.925"/>
<rect x="511.574" y="80.5349" width="33.0778" height="33.0263" fill="#F2994A" fill-opacity="0.2" stroke="black" stroke-width="0.925"/>
<rect x="511.574" y="112.998" width="33.0778" height="33.0263" fill="#F2994A" fill-opacity="0.2" stroke="black" stroke-width="0.925"/>
<rect x="511.574" y="145.462" width="33.0778" height="33.0263" fill="#F2994A" fill-opacity="0.2" stroke="black" stroke-width="0.925"/>
<rect x="478.497" y="177.925" width="33.0778" height="33.0263" fill="#EB5757" fill-opacity="0.2" stroke="black" stroke-width="0.925"/>
<rect x="511.574" y="177.925" width="33.0778" height="33.0263" fill="#F2994A" fill-opacity="0.2" stroke="black" stroke-width="0.925"/>
<rect x="544.652" y="48.0715" width="33.0778" height="33.0263" fill="#F2C94C" fill-opacity="0.2" stroke="black" stroke-width="0.925"/>
<rect x="544.652" y="80.5349" width="33.0778" height="33.0263" fill="#F2C94C" fill-opacity="0.2" stroke="black" stroke-width="0.925"/>
<rect x="544.652" y="112.998" width="33.0778" height="33.0263" fill="#F2C94C" fill-opacity="0.2" stroke="black" stroke-width="0.925"/>
<rect x="544.652" y="145.462" width="33.0778" height="33.0263" fill="#F2C94C" fill-opacity="0.2" stroke="black" stroke-width="0.925"/>
<rect x="544.652" y="177.925" width="33.0778" height="33.0263" fill="#F2C94C" fill-opacity="0.2" stroke="black" stroke-width="0.925"/>
<rect x="577.73" y="48.0715" width="33.0778" height="33.0263" fill="#27AE60" fill-opacity="0.2" stroke="black" stroke-width="0.925"/>
<rect x="577.73" y="80.5349" width="33.0778" height="33.0263" fill="#27AE60" fill-opacity="0.2" stroke="black" stroke-width="0.925"/>
<rect x="577.73" y="112.998" width="33.0778" height="33.0263" fill="#27AE60" fill-opacity="0.2" stroke="black" stroke-width="0.925"/>
<rect x="577.73" y="145.462" width="33.0778" height="33.0263" fill="#27AE60" fill-opacity="0.2" stroke="black" stroke-width="0.925"/>
<rect x="577.73" y="177.925" width="33.0778" height="33.0263" fill="#27AE60" fill-opacity="0.2" stroke="black" stroke-width="0.925"/>
<rect x="610.808" y="48.0715" width="33.0778" height="33.0263" fill="#2D9CDB" fill-opacity="0.2" stroke="black" stroke-width="0.925"/>
<rect x="610.808" y="80.5349" width="33.0778" height="33.0263" fill="#2D9CDB" fill-opacity="0.2" stroke="black" stroke-width="0.925"/>
<rect x="610.808" y="112.998" width="33.0778" height="33.0263" fill="#2D9CDB" fill-opacity="0.2" stroke="black" stroke-width="0.925"/>
<rect x="610.808" y="145.462" width="33.0778" height="33.0263" fill="#2D9CDB" fill-opacity="0.2" stroke="black" stroke-width="0.925"/>
<rect x="610.808" y="177.925" width="33.0778" height="33.0263" fill="#2D9CDB" fill-opacity="0.2" stroke="black" stroke-width="0.925"/>
<path d="M632.543 33.7548H625.703V39.3482H633.648V41.05H623.622V25.2672H633.54V26.9799H625.703V32.053H632.543V33.7548Z" fill="#BDBDBD"/>
<path d="M589.568 41.05V25.2672H594.023C595.396 25.2672 596.61 25.5708 597.666 26.1778C598.721 26.7848 599.534 27.6484 600.105 28.7685C600.683 29.8886 600.975 31.175 600.983 32.6275V33.6356C600.983 35.1243 600.693 36.4287 600.115 37.5488C599.544 38.6689 598.724 39.5289 597.655 40.1287C596.592 40.7285 595.353 41.0356 593.937 41.05H589.568ZM591.649 26.9799V39.3482H593.839C595.443 39.3482 596.69 38.8496 597.579 37.8523C598.475 36.855 598.923 35.435 598.923 33.5922V32.6708C598.923 30.8787 598.5 29.4875 597.655 28.4975C596.816 27.5002 595.624 26.9944 594.078 26.9799H591.649Z" fill="#BDBDBD"/>
<path d="M568.154 36.042C567.959 37.7114 567.341 39.0013 566.3 39.9119C565.267 40.8152 563.89 41.2668 562.17 41.2668C560.306 41.2668 558.81 40.5984 557.683 39.2615C556.563 37.9246 556.003 36.136 556.003 33.8958V32.3782C556.003 30.9112 556.263 29.6212 556.783 28.5083C557.311 27.3955 558.055 26.5427 559.016 25.9501C559.977 25.3503 561.09 25.0504 562.355 25.0504C564.031 25.0504 565.375 25.5202 566.387 26.4596C567.399 27.3918 567.988 28.6854 568.154 30.3403H566.062C565.881 29.0829 565.487 28.1723 564.88 27.6086C564.281 27.045 563.439 26.7631 562.355 26.7631C561.025 26.7631 559.981 27.2545 559.222 28.2374C558.47 29.2202 558.095 30.6185 558.095 32.4324V33.9608C558.095 35.6735 558.452 37.0357 559.168 38.0474C559.883 39.0591 560.884 39.565 562.17 39.565C563.327 39.565 564.212 39.3048 564.826 38.7845C565.448 38.257 565.86 37.3428 566.062 36.042H568.154Z" fill="#BDBDBD"/>
<path d="M523.781 41.05V25.2672H528.941C530.654 25.2672 531.94 25.6213 532.8 26.3295C533.667 27.0377 534.101 28.0856 534.101 29.4731C534.101 30.2102 533.891 30.8642 533.472 31.4351C533.053 31.9988 532.482 32.436 531.759 32.7467C532.612 32.9852 533.284 33.4405 533.775 34.1125C534.274 34.7774 534.523 35.5723 534.523 36.4973C534.523 37.9137 534.065 39.0266 533.147 39.836C532.229 40.6454 530.932 41.05 529.255 41.05H523.781ZM525.862 33.6681V39.3482H529.299C530.267 39.3482 531.029 39.0989 531.586 38.6002C532.15 38.0944 532.431 37.4006 532.431 36.519C532.431 34.6184 531.398 33.6681 529.331 33.6681H525.862ZM525.862 31.9988H529.006C529.916 31.9988 530.643 31.7711 531.185 31.3159C531.734 30.8606 532.009 30.2427 532.009 29.4623C532.009 28.5951 531.756 27.9664 531.25 27.5761C530.744 27.1787 529.974 26.9799 528.941 26.9799H525.862V31.9988Z" fill="#BDBDBD"/>
<path d="M499.093 36.9309H492.481L490.996 41.05H488.85L494.877 25.2672H496.698L502.736 41.05H500.6L499.093 36.9309ZM493.11 35.2182H498.476L495.787 27.8363L493.11 35.2182Z" fill="#BDBDBD"/>
</svg>
