<svg width="800" height="472" viewBox="0 0 800 472" version="1.1" xmlns="http://www.w3.org/2000/svg" xmlns:xlink="http://www.w3.org/1999/xlink">
<g id="Canvas" fill="none">
<g id="Frame" clip-path="url(#clip0)">
<rect width="400" height="236" fill="white" transform="scale(2)"/>
<g id="Rectangle">
<rect x="0.5" y="0.5" width="94.5176" height="72.814" transform="translate(40 46) scale(2)" stroke="black"/>
</g>
<g id="Explore the data in the column">
<path d="M 18.3036 19.0566L 14.6063 19.0566L 14.6063 22.0801L 18.9013 22.0801L 18.9013 23L 13.4813 23L 13.4813 14.4688L 18.8427 14.4688L 18.8427 15.3945L 14.6063 15.3945L 14.6063 18.1367L 18.3036 18.1367L 18.3036 19.0566ZM 22.2587 18.9746L 23.6649 16.6602L 24.9306 16.6602L 22.8563 19.7949L 24.995 23L 23.7411 23L 22.2763 20.627L 20.8114 23L 19.5516 23L 21.6903 19.7949L 19.6161 16.6602L 20.87 16.6602L 22.2587 18.9746ZM 31.4403 19.9004C 31.4403 20.8652 31.2196 21.6426 30.7782 22.2324C 30.3368 22.8223 29.7391 23.1172 28.9852 23.1172C 28.2157 23.1172 27.6102 22.873 27.1688 22.3848L 27.1688 25.4375L 26.0849 25.4375L 26.0849 16.6602L 27.0751 16.6602L 27.1278 17.3633C 27.5692 16.8164 28.1825 16.543 28.9677 16.543C 29.7294 16.543 30.3309 16.8301 30.7724 17.4043C 31.2177 17.9785 31.4403 18.7773 31.4403 19.8008L 31.4403 19.9004ZM 30.3563 19.7773C 30.3563 19.0625 30.204 18.498 29.8993 18.084C 29.5946 17.6699 29.1766 17.4629 28.6454 17.4629C 27.9891 17.4629 27.497 17.7539 27.1688 18.3359L 27.1688 21.3652C 27.4931 21.9434 27.9891 22.2324 28.6571 22.2324C 29.1766 22.2324 29.5888 22.0273 29.8934 21.6172C 30.202 21.2031 30.3563 20.5898 30.3563 19.7773ZM 34.0009 23L 32.9169 23L 32.9169 14L 34.0009 14L 34.0009 23ZM 35.454 19.7715C 35.454 19.1504 35.5751 18.5918 35.8173 18.0957C 36.0634 17.5996 36.4032 17.2168 36.8368 16.9473C 37.2743 16.6777 37.7724 16.543 38.3309 16.543C 39.1942 16.543 39.8915 16.8418 40.4227 17.4395C 40.9579 18.0371 41.2255 18.832 41.2255 19.8242L 41.2255 19.9004C 41.2255 20.5176 41.1063 21.0723 40.8681 21.5645C 40.6337 22.0527 40.2958 22.4336 39.8544 22.707C 39.4169 22.9805 38.913 23.1172 38.3427 23.1172C 37.4833 23.1172 36.786 22.8184 36.2509 22.2207C 35.7196 21.623 35.454 20.832 35.454 19.8477L 35.454 19.7715ZM 36.5438 19.9004C 36.5438 20.6035 36.7059 21.168 37.0302 21.5938C 37.3583 22.0195 37.7958 22.2324 38.3427 22.2324C 38.8934 22.2324 39.3309 22.0176 39.6552 21.5879C 39.9794 21.1543 40.1415 20.5488 40.1415 19.7715C 40.1415 19.0762 39.9755 18.5137 39.6434 18.084C 39.3153 17.6504 38.8778 17.4336 38.3309 17.4336C 37.7958 17.4336 37.3641 17.6465 37.036 18.0723C 36.7079 18.498 36.5438 19.1074 36.5438 19.9004ZM 45.6493 17.6328C 45.4852 17.6055 45.3075 17.5918 45.1161 17.5918C 44.4052 17.5918 43.9227 17.8945 43.6688 18.5L 43.6688 23L 42.5849 23L 42.5849 16.6602L 43.6395 16.6602L 43.6571 17.3926C 44.0126 16.8262 44.5165 16.543 45.1688 16.543C 45.3798 16.543 45.5399 16.5703 45.6493 16.625L 45.6493 17.6328ZM 49.1649 23.1172C 48.3056 23.1172 47.6063 22.8359 47.0673 22.2734C 46.5282 21.707 46.2587 20.9512 46.2587 20.0059L 46.2587 19.8066C 46.2587 19.1777 46.3778 18.6172 46.6161 18.125C 46.8583 17.6289 47.1942 17.2422 47.6239 16.9648C 48.0575 16.6836 48.5263 16.543 49.0302 16.543C 49.8544 16.543 50.495 16.8145 50.952 17.3574C 51.4091 17.9004 51.6376 18.6777 51.6376 19.6895L 51.6376 20.1406L 47.3427 20.1406C 47.3583 20.7656 47.5399 21.2715 47.8876 21.6582C 48.2391 22.041 48.6845 22.2324 49.2235 22.2324C 49.6063 22.2324 49.9306 22.1543 50.1962 21.998C 50.4618 21.8418 50.6942 21.6348 50.8934 21.377L 51.5556 21.8926C 51.0243 22.709 50.2274 23.1172 49.1649 23.1172ZM 49.0302 17.4336C 48.5927 17.4336 48.2255 17.5938 47.9286 17.9141C 47.6317 18.2305 47.4481 18.6758 47.3778 19.25L 50.5536 19.25L 50.5536 19.168C 50.5224 18.6172 50.3739 18.1914 50.1083 17.8906C 49.8427 17.5859 49.4833 17.4336 49.0302 17.4336ZM 57.3446 15.125L 57.3446 16.6602L 58.5282 16.6602L 58.5282 17.498L 57.3446 17.498L 57.3446 21.4297C 57.3446 21.6836 57.3974 21.875 57.5028 22.0039C 57.6083 22.1289 57.788 22.1914 58.0419 22.1914C 58.1669 22.1914 58.3388 22.168 58.5575 22.1211L 58.5575 23C 58.2724 23.0781 57.995 23.1172 57.7255 23.1172C 57.2411 23.1172 56.8759 22.9707 56.6298 22.6777C 56.3837 22.3848 56.2606 21.9688 56.2606 21.4297L 56.2606 17.498L 55.1063 17.498L 55.1063 16.6602L 56.2606 16.6602L 56.2606 15.125L 57.3446 15.125ZM 60.8837 17.4277C 61.3641 16.8379 61.9891 16.543 62.7587 16.543C 64.0985 16.543 64.7743 17.2988 64.786 18.8105L 64.786 23L 63.702 23L 63.702 18.8047C 63.6981 18.3477 63.5927 18.0098 63.3856 17.791C 63.1825 17.5723 62.8641 17.4629 62.4306 17.4629C 62.079 17.4629 61.7704 17.5566 61.5048 17.7441C 61.2391 17.9316 61.0321 18.1777 60.8837 18.4824L 60.8837 23L 59.7997 23L 59.7997 14L 60.8837 14L 60.8837 17.4277ZM 69.0399 23.1172C 68.1806 23.1172 67.4813 22.8359 66.9423 22.2734C 66.4032 21.707 66.1337 20.9512 66.1337 20.0059L 66.1337 19.8066C 66.1337 19.1777 66.2528 18.6172 66.4911 18.125C 66.7333 17.6289 67.0692 17.2422 67.4989 16.9648C 67.9325 16.6836 68.4013 16.543 68.9052 16.543C 69.7294 16.543 70.37 16.8145 70.827 17.3574C 71.2841 17.9004 71.5126 18.6777 71.5126 19.6895L 71.5126 20.1406L 67.2177 20.1406C 67.2333 20.7656 67.4149 21.2715 67.7626 21.6582C 68.1142 22.041 68.5595 22.2324 69.0985 22.2324C 69.4813 22.2324 69.8056 22.1543 70.0712 21.998C 70.3368 21.8418 70.5692 21.6348 70.7684 21.377L 71.4306 21.8926C 70.8993 22.709 70.1024 23.1172 69.0399 23.1172ZM 68.9052 17.4336C 68.4677 17.4336 68.1005 17.5938 67.8036 17.9141C 67.5067 18.2305 67.3231 18.6758 67.2528 19.25L 70.4286 19.25L 70.4286 19.168C 70.3974 18.6172 70.2489 18.1914 69.9833 17.8906C 69.7177 17.5859 69.3583 17.4336 68.9052 17.4336ZM 14.7059 33.7773C 14.7059 32.8047 14.9364 32.0234 15.3974 31.4336C 15.8583 30.8398 16.4618 30.543 17.2079 30.543C 17.9501 30.543 18.538 30.7969 18.9716 31.3047L 18.9716 28L 20.0556 28L 20.0556 37L 19.0595 37L 19.0067 36.3203C 18.5731 36.8516 17.9696 37.1172 17.1962 37.1172C 16.4618 37.1172 15.8622 36.8164 15.3974 36.2148C 14.9364 35.6133 14.7059 34.8281 14.7059 33.8594L 14.7059 33.7773ZM 15.7899 33.9004C 15.7899 34.6191 15.9384 35.1816 16.2352 35.5879C 16.5321 35.9941 16.9423 36.1973 17.4657 36.1973C 18.1532 36.1973 18.6552 35.8887 18.9716 35.2715L 18.9716 32.3594C 18.6474 31.7617 18.1493 31.4629 17.4774 31.4629C 16.9462 31.4629 16.5321 31.668 16.2352 32.0781C 15.9384 32.4883 15.7899 33.0957 15.7899 33.9004ZM 25.6571 37C 25.5946 36.875 25.5438 36.6523 25.5048 36.332C 25.0009 36.8555 24.3993 37.1172 23.7001 37.1172C 23.0751 37.1172 22.5614 36.9414 22.1591 36.5898C 21.7606 36.2344 21.5614 35.7852 21.5614 35.2422C 21.5614 34.582 21.8114 34.0703 22.3114 33.707C 22.8153 33.3398 23.5224 33.1562 24.4325 33.1562L 25.4872 33.1562L 25.4872 32.6582C 25.4872 32.2793 25.3739 31.9785 25.1474 31.7559C 24.9208 31.5293 24.5868 31.416 24.1454 31.416C 23.7587 31.416 23.4345 31.5137 23.1727 31.709C 22.911 31.9043 22.7802 32.1406 22.7802 32.418L 21.6903 32.418C 21.6903 32.1016 21.8016 31.7969 22.0243 31.5039C 22.2509 31.207 22.5556 30.9727 22.9384 30.8008C 23.3251 30.6289 23.7489 30.543 24.2099 30.543C 24.9403 30.543 25.5126 30.7266 25.9266 31.0938C 26.3407 31.457 26.5556 31.959 26.5712 32.5996L 26.5712 35.5176C 26.5712 36.0996 26.6454 36.5625 26.7938 36.9062L 26.7938 37L 25.6571 37ZM 23.8583 36.1738C 24.1981 36.1738 24.5204 36.0859 24.8251 35.9102C 25.1298 35.7344 25.3505 35.5059 25.4872 35.2246L 25.4872 33.9238L 24.6376 33.9238C 23.3095 33.9238 22.6454 34.3125 22.6454 35.0898C 22.6454 35.4297 22.7587 35.6953 22.9852 35.8867C 23.2118 36.0781 23.5028 36.1738 23.8583 36.1738ZM 29.7411 29.125L 29.7411 30.6602L 30.9247 30.6602L 30.9247 31.498L 29.7411 31.498L 29.7411 35.4297C 29.7411 35.6836 29.7938 35.875 29.8993 36.0039C 30.0048 36.1289 30.1845 36.1914 30.4384 36.1914C 30.5634 36.1914 30.7352 36.168 30.954 36.1211L 30.954 37C 30.6688 37.0781 30.3915 37.1172 30.122 37.1172C 29.6376 37.1172 29.2724 36.9707 29.0263 36.6777C 28.7802 36.3848 28.6571 35.9688 28.6571 35.4297L 28.6571 31.498L 27.5028 31.498L 27.5028 30.6602L 28.6571 30.6602L 28.6571 29.125L 29.7411 29.125ZM 36.1102 37C 36.0477 36.875 35.997 36.6523 35.9579 36.332C 35.454 36.8555 34.8524 37.1172 34.1532 37.1172C 33.5282 37.1172 33.0145 36.9414 32.6122 36.5898C 32.2138 36.2344 32.0145 35.7852 32.0145 35.2422C 32.0145 34.582 32.2645 34.0703 32.7645 33.707C 33.2684 33.3398 33.9755 33.1562 34.8856 33.1562L 35.9403 33.1562L 35.9403 32.6582C 35.9403 32.2793 35.827 31.9785 35.6005 31.7559C 35.3739 31.5293 35.0399 31.416 34.5985 31.416C 34.2118 31.416 33.8876 31.5137 33.6259 31.709C 33.3641 31.9043 33.2333 32.1406 33.2333 32.418L 32.1434 32.418C 32.1434 32.1016 32.2548 31.7969 32.4774 31.5039C 32.704 31.207 33.0087 30.9727 33.3915 30.8008C 33.7782 30.6289 34.202 30.543 34.663 30.543C 35.3934 30.543 35.9657 30.7266 36.3798 31.0938C 36.7938 31.457 37.0087 31.959 37.0243 32.5996L 37.0243 35.5176C 37.0243 36.0996 37.0985 36.5625 37.247 36.9062L 37.247 37L 36.1102 37ZM 34.3114 36.1738C 34.6513 36.1738 34.9735 36.0859 35.2782 35.9102C 35.5829 35.7344 35.8036 35.5059 35.9403 35.2246L 35.9403 33.9238L 35.0907 33.9238C 33.7626 33.9238 33.0985 34.3125 33.0985 35.0898C 33.0985 35.4297 33.2118 35.6953 33.4384 35.8867C 33.6649 36.0781 33.9559 36.1738 34.3114 36.1738ZM 42.8778 37L 41.7938 37L 41.7938 30.6602L 42.8778 30.6602L 42.8778 37ZM 41.7059 28.9785C 41.7059 28.8027 41.7587 28.6543 41.8641 28.5332C 41.9735 28.4121 42.1337 28.3516 42.3446 28.3516C 42.5556 28.3516 42.7157 28.4121 42.8251 28.5332C 42.9345 28.6543 42.9891 28.8027 42.9891 28.9785C 42.9891 29.1543 42.9345 29.3008 42.8251 29.418C 42.7157 29.5352 42.5556 29.5938 42.3446 29.5938C 42.1337 29.5938 41.9735 29.5352 41.8641 29.418C 41.7587 29.3008 41.7059 29.1543 41.7059 28.9785ZM 45.6434 30.6602L 45.6786 31.457C 46.163 30.8477 46.7958 30.543 47.577 30.543C 48.9169 30.543 49.5927 31.2988 49.6044 32.8105L 49.6044 37L 48.5204 37L 48.5204 32.8047C 48.5165 32.3477 48.411 32.0098 48.204 31.791C 48.0009 31.5723 47.6825 31.4629 47.2489 31.4629C 46.8974 31.4629 46.5888 31.5566 46.3231 31.7441C 46.0575 31.9316 45.8505 32.1777 45.702 32.4824L 45.702 37L 44.6181 37L 44.6181 30.6602L 45.6434 30.6602ZM 55.6864 29.125L 55.6864 30.6602L 56.87 30.6602L 56.87 31.498L 55.6864 31.498L 55.6864 35.4297C 55.6864 35.6836 55.7391 35.875 55.8446 36.0039C 55.9501 36.1289 56.1298 36.1914 56.3837 36.1914C 56.5087 36.1914 56.6806 36.168 56.8993 36.1211L 56.8993 37C 56.6141 37.0781 56.3368 37.1172 56.0673 37.1172C 55.5829 37.1172 55.2177 36.9707 54.9716 36.6777C 54.7255 36.3848 54.6024 35.9688 54.6024 35.4297L 54.6024 31.498L 53.4481 31.498L 53.4481 30.6602L 54.6024 30.6602L 54.6024 29.125L 55.6864 29.125ZM 59.2255 31.4277C 59.7059 30.8379 60.3309 30.543 61.1005 30.543C 62.4403 30.543 63.1161 31.2988 63.1278 32.8105L 63.1278 37L 62.0438 37L 62.0438 32.8047C 62.0399 32.3477 61.9345 32.0098 61.7274 31.791C 61.5243 31.5723 61.2059 31.4629 60.7724 31.4629C 60.4208 31.4629 60.1122 31.5566 59.8466 31.7441C 59.5809 31.9316 59.3739 32.1777 59.2255 32.4824L 59.2255 37L 58.1415 37L 58.1415 28L 59.2255 28L 59.2255 31.4277ZM 67.3817 37.1172C 66.5224 37.1172 65.8231 36.8359 65.2841 36.2734C 64.745 35.707 64.4755 34.9512 64.4755 34.0059L 64.4755 33.8066C 64.4755 33.1777 64.5946 32.6172 64.8329 32.125C 65.0751 31.6289 65.411 31.2422 65.8407 30.9648C 66.2743 30.6836 66.7431 30.543 67.247 30.543C 68.0712 30.543 68.7118 30.8145 69.1688 31.3574C 69.6259 31.9004 69.8544 32.6777 69.8544 33.6895L 69.8544 34.1406L 65.5595 34.1406C 65.5751 34.7656 65.7567 35.2715 66.1044 35.6582C 66.4559 36.041 66.9013 36.2324 67.4403 36.2324C 67.8231 36.2324 68.1474 36.1543 68.413 35.998C 68.6786 35.8418 68.911 35.6348 69.1102 35.377L 69.7724 35.8926C 69.2411 36.709 68.4442 37.1172 67.3817 37.1172ZM 67.247 31.4336C 66.8095 31.4336 66.4423 31.5938 66.1454 31.9141C 65.8485 32.2305 65.6649 32.6758 65.5946 33.25L 68.7704 33.25L 68.7704 33.168C 68.7391 32.6172 68.5907 32.1914 68.3251 31.8906C 68.0595 31.5859 67.7001 31.4336 67.247 31.4336ZM 25.6806 50.2324C 26.0673 50.2324 26.4052 50.1152 26.6942 49.8809C 26.9833 49.6465 27.1434 49.3535 27.1747 49.002L 28.2001 49.002C 28.1806 49.3652 28.0556 49.7109 27.8251 50.0391C 27.5946 50.3672 27.286 50.6289 26.8993 50.8242C 26.5165 51.0195 26.1102 51.1172 25.6806 51.1172C 24.8173 51.1172 24.1298 50.8301 23.6181 50.2559C 23.1102 49.6777 22.8563 48.8887 22.8563 47.8887L 22.8563 47.707C 22.8563 47.0898 22.9696 46.541 23.1962 46.0605C 23.4227 45.5801 23.747 45.207 24.1688 44.9414C 24.5946 44.6758 25.0966 44.543 25.6747 44.543C 26.3856 44.543 26.9755 44.7559 27.4442 45.1816C 27.9169 45.6074 28.1688 46.1602 28.2001 46.8398L 27.1747 46.8398C 27.1434 46.4297 26.9872 46.0938 26.7059 45.832C 26.4286 45.5664 26.0849 45.4336 25.6747 45.4336C 25.1239 45.4336 24.6962 45.6328 24.3915 46.0312C 24.0907 46.4258 23.9403 46.998 23.9403 47.748L 23.9403 47.9531C 23.9403 48.6836 24.0907 49.2461 24.3915 49.6406C 24.6923 50.0352 25.122 50.2324 25.6806 50.2324ZM 29.1317 47.7715C 29.1317 47.1504 29.2528 46.5918 29.495 46.0957C 29.7411 45.5996 30.0809 45.2168 30.5145 44.9473C 30.952 44.6777 31.4501 44.543 32.0087 44.543C 32.872 44.543 33.5692 44.8418 34.1005 45.4395C 34.6356 46.0371 34.9032 46.832 34.9032 47.8242L 34.9032 47.9004C 34.9032 48.5176 34.7841 49.0723 34.5458 49.5645C 34.3114 50.0527 33.9735 50.4336 33.5321 50.707C 33.0946 50.9805 32.5907 51.1172 32.0204 51.1172C 31.161 51.1172 30.4638 50.8184 29.9286 50.2207C 29.3974 49.623 29.1317 48.832 29.1317 47.8477L 29.1317 47.7715ZM 30.2216 47.9004C 30.2216 48.6035 30.3837 49.168 30.7079 49.5938C 31.036 50.0195 31.4735 50.2324 32.0204 50.2324C 32.5712 50.2324 33.0087 50.0176 33.3329 49.5879C 33.6571 49.1543 33.8192 48.5488 33.8192 47.7715C 33.8192 47.0762 33.6532 46.5137 33.3212 46.084C 32.9931 45.6504 32.5556 45.4336 32.0087 45.4336C 31.4735 45.4336 31.0419 45.6465 30.7138 46.0723C 30.3856 46.498 30.2216 47.1074 30.2216 47.9004ZM 37.4403 51L 36.3563 51L 36.3563 42L 37.4403 42L 37.4403 51ZM 43.0946 50.373C 42.6727 50.8691 42.0536 51.1172 41.2372 51.1172C 40.5614 51.1172 40.0458 50.9219 39.6903 50.5312C 39.3388 50.1367 39.161 49.5547 39.1571 48.7852L 39.1571 44.6602L 40.2411 44.6602L 40.2411 48.7559C 40.2411 49.7168 40.6317 50.1973 41.413 50.1973C 42.2411 50.1973 42.7919 49.8887 43.0653 49.2715L 43.0653 44.6602L 44.1493 44.6602L 44.1493 51L 43.1181 51L 43.0946 50.373ZM 46.8212 44.6602L 46.8505 45.3633C 47.3153 44.8164 47.9423 44.543 48.7313 44.543C 49.6181 44.543 50.2216 44.8828 50.5419 45.5625C 50.7528 45.2578 51.0263 45.0117 51.3622 44.8242C 51.702 44.6367 52.1024 44.543 52.5634 44.543C 53.954 44.543 54.661 45.2793 54.6845 46.752L 54.6845 51L 53.6005 51L 53.6005 46.8164C 53.6005 46.3633 53.497 46.0254 53.2899 45.8027C 53.0829 45.5762 52.7352 45.4629 52.247 45.4629C 51.8446 45.4629 51.5106 45.584 51.245 45.8262C 50.9794 46.0645 50.8251 46.3867 50.7821 46.793L 50.7821 51L 49.6923 51L 49.6923 46.8457C 49.6923 45.9238 49.2411 45.4629 48.3388 45.4629C 47.6278 45.4629 47.1415 45.7656 46.8798 46.3711L 46.8798 51L 45.7958 51L 45.7958 44.6602L 46.8212 44.6602ZM 57.3505 44.6602L 57.3856 45.457C 57.87 44.8477 58.5028 44.543 59.2841 44.543C 60.6239 44.543 61.2997 45.2988 61.3114 46.8105L 61.3114 51L 60.2274 51L 60.2274 46.8047C 60.2235 46.3477 60.1181 46.0098 59.911 45.791C 59.7079 45.5723 59.3895 45.4629 58.9559 45.4629C 58.6044 45.4629 58.2958 45.5566 58.0302 45.7441C 57.7645 45.9316 57.5575 46.1777 57.4091 46.4824L 57.4091 51L 56.3251 51L 56.3251 44.6602L 57.3505 44.6602Z" transform="translate(51.0745 54.5582) scale(2)" fill="#333333"/>
</g>
<g id="Rectangle_2">
<rect x="0.5" y="0.5" width="94.5176" height="72.814" transform="translate(297.482 46) scale(2)" stroke="black"/>
</g>
<g id="Identify patterns and special cases">
<path d="M 24.5556 23L 23.4306 23L 23.4306 14.4688L 24.5556 14.4688L 24.5556 23ZM 26.1845 19.7773C 26.1845 18.8047 26.4149 18.0234 26.8759 17.4336C 27.3368 16.8398 27.9403 16.543 28.6864 16.543C 29.4286 16.543 30.0165 16.7969 30.4501 17.3047L 30.4501 14L 31.5341 14L 31.5341 23L 30.538 23L 30.4852 22.3203C 30.0516 22.8516 29.4481 23.1172 28.6747 23.1172C 27.9403 23.1172 27.3407 22.8164 26.8759 22.2148C 26.4149 21.6133 26.1845 20.8281 26.1845 19.8594L 26.1845 19.7773ZM 27.2684 19.9004C 27.2684 20.6191 27.4169 21.1816 27.7138 21.5879C 28.0106 21.9941 28.4208 22.1973 28.9442 22.1973C 29.6317 22.1973 30.1337 21.8887 30.4501 21.2715L 30.4501 18.3594C 30.1259 17.7617 29.6278 17.4629 28.9559 17.4629C 28.4247 17.4629 28.0106 17.668 27.7138 18.0781C 27.4169 18.4883 27.2684 19.0957 27.2684 19.9004ZM 35.8524 23.1172C 34.9931 23.1172 34.2938 22.8359 33.7548 22.2734C 33.2157 21.707 32.9462 20.9512 32.9462 20.0059L 32.9462 19.8066C 32.9462 19.1777 33.0653 18.6172 33.3036 18.125C 33.5458 17.6289 33.8817 17.2422 34.3114 16.9648C 34.745 16.6836 35.2138 16.543 35.7177 16.543C 36.5419 16.543 37.1825 16.8145 37.6395 17.3574C 38.0966 17.9004 38.3251 18.6777 38.3251 19.6895L 38.3251 20.1406L 34.0302 20.1406C 34.0458 20.7656 34.2274 21.2715 34.5751 21.6582C 34.9266 22.041 35.372 22.2324 35.911 22.2324C 36.2938 22.2324 36.6181 22.1543 36.8837 21.998C 37.1493 21.8418 37.3817 21.6348 37.5809 21.377L 38.2431 21.8926C 37.7118 22.709 36.9149 23.1172 35.8524 23.1172ZM 35.7177 17.4336C 35.2802 17.4336 34.913 17.5938 34.6161 17.9141C 34.3192 18.2305 34.1356 18.6758 34.0653 19.25L 37.2411 19.25L 37.2411 19.168C 37.2099 18.6172 37.0614 18.1914 36.7958 17.8906C 36.5302 17.5859 36.1708 17.4336 35.7177 17.4336ZM 40.6102 16.6602L 40.6454 17.457C 41.1298 16.8477 41.7626 16.543 42.5438 16.543C 43.8837 16.543 44.5595 17.2988 44.5712 18.8105L 44.5712 23L 43.4872 23L 43.4872 18.8047C 43.4833 18.3477 43.3778 18.0098 43.1708 17.791C 42.9677 17.5723 42.6493 17.4629 42.2157 17.4629C 41.8641 17.4629 41.5556 17.5566 41.2899 17.7441C 41.0243 17.9316 40.8173 18.1777 40.6688 18.4824L 40.6688 23L 39.5849 23L 39.5849 16.6602L 40.6102 16.6602ZM 47.6766 15.125L 47.6766 16.6602L 48.8602 16.6602L 48.8602 17.498L 47.6766 17.498L 47.6766 21.4297C 47.6766 21.6836 47.7294 21.875 47.8349 22.0039C 47.9403 22.1289 48.12 22.1914 48.3739 22.1914C 48.4989 22.1914 48.6708 22.168 48.8895 22.1211L 48.8895 23C 48.6044 23.0781 48.327 23.1172 48.0575 23.1172C 47.5731 23.1172 47.2079 22.9707 46.9618 22.6777C 46.7157 22.3848 46.5927 21.9688 46.5927 21.4297L 46.5927 17.498L 45.4384 17.498L 45.4384 16.6602L 46.5927 16.6602L 46.5927 15.125L 47.6766 15.125ZM 51.3095 23L 50.2255 23L 50.2255 16.6602L 51.3095 16.6602L 51.3095 23ZM 50.1376 14.9785C 50.1376 14.8027 50.1903 14.6543 50.2958 14.5332C 50.4052 14.4121 50.5653 14.3516 50.7763 14.3516C 50.9872 14.3516 51.1474 14.4121 51.2567 14.5332C 51.3661 14.6543 51.4208 14.8027 51.4208 14.9785C 51.4208 15.1543 51.3661 15.3008 51.2567 15.418C 51.1474 15.5352 50.9872 15.5938 50.7763 15.5938C 50.5653 15.5938 50.4052 15.5352 50.2958 15.418C 50.1903 15.3008 50.1376 15.1543 50.1376 14.9785ZM 53.5829 23L 53.5829 17.498L 52.5809 17.498L 52.5809 16.6602L 53.5829 16.6602L 53.5829 16.0098C 53.5829 15.3301 53.7645 14.8047 54.1278 14.4336C 54.4911 14.0625 55.0048 13.877 55.6688 13.877C 55.9188 13.877 56.1669 13.9102 56.413 13.9766L 56.3544 14.8555C 56.1708 14.8203 55.9755 14.8027 55.7684 14.8027C 55.4169 14.8027 55.1454 14.9062 54.954 15.1133C 54.7626 15.3164 54.6669 15.6094 54.6669 15.9922L 54.6669 16.6602L 56.0204 16.6602L 56.0204 17.498L 54.6669 17.498L 54.6669 23L 53.5829 23ZM 59.2958 21.4121L 60.7724 16.6602L 61.9325 16.6602L 59.3837 23.9785C 58.9891 25.0332 58.3622 25.5605 57.5028 25.5605L 57.2977 25.543L 56.8934 25.4668L 56.8934 24.5879L 57.1864 24.6113C 57.5536 24.6113 57.8388 24.5371 58.0419 24.3887C 58.2489 24.2402 58.4188 23.9688 58.5516 23.5742L 58.7919 22.9297L 56.5302 16.6602L 57.7138 16.6602L 59.2958 21.4121ZM 14.7704 33.9004C 14.7704 34.8652 14.5497 35.6426 14.1083 36.2324C 13.6669 36.8223 13.0692 37.1172 12.3153 37.1172C 11.5458 37.1172 10.9403 36.873 10.4989 36.3848L 10.4989 39.4375L 9.41493 39.4375L 9.41493 30.6602L 10.4052 30.6602L 10.4579 31.3633C 10.8993 30.8164 11.5126 30.543 12.2977 30.543C 13.0595 30.543 13.661 30.8301 14.1024 31.4043C 14.5477 31.9785 14.7704 32.7773 14.7704 33.8008L 14.7704 33.9004ZM 13.6864 33.7773C 13.6864 33.0625 13.5341 32.498 13.2294 32.084C 12.9247 31.6699 12.5067 31.4629 11.9755 31.4629C 11.3192 31.4629 10.827 31.7539 10.4989 32.3359L 10.4989 35.3652C 10.8231 35.9434 11.3192 36.2324 11.9872 36.2324C 12.5067 36.2324 12.9188 36.0273 13.2235 35.6172C 13.5321 35.2031 13.6864 34.5898 13.6864 33.7773ZM 20.0673 37C 20.0048 36.875 19.954 36.6523 19.9149 36.332C 19.411 36.8555 18.8095 37.1172 18.1102 37.1172C 17.4852 37.1172 16.9716 36.9414 16.5692 36.5898C 16.1708 36.2344 15.9716 35.7852 15.9716 35.2422C 15.9716 34.582 16.2216 34.0703 16.7216 33.707C 17.2255 33.3398 17.9325 33.1562 18.8427 33.1562L 19.8974 33.1562L 19.8974 32.6582C 19.8974 32.2793 19.7841 31.9785 19.5575 31.7559C 19.3309 31.5293 18.997 31.416 18.5556 31.416C 18.1688 31.416 17.8446 31.5137 17.5829 31.709C 17.3212 31.9043 17.1903 32.1406 17.1903 32.418L 16.1005 32.418C 16.1005 32.1016 16.2118 31.7969 16.4345 31.5039C 16.661 31.207 16.9657 30.9727 17.3485 30.8008C 17.7352 30.6289 18.1591 30.543 18.62 30.543C 19.3505 30.543 19.9227 30.7266 20.3368 31.0938C 20.7509 31.457 20.9657 31.959 20.9813 32.5996L 20.9813 35.5176C 20.9813 36.0996 21.0556 36.5625 21.204 36.9062L 21.204 37L 20.0673 37ZM 18.2684 36.1738C 18.6083 36.1738 18.9306 36.0859 19.2352 35.9102C 19.5399 35.7344 19.7606 35.5059 19.8974 35.2246L 19.8974 33.9238L 19.0477 33.9238C 17.7196 33.9238 17.0556 34.3125 17.0556 35.0898C 17.0556 35.4297 17.1688 35.6953 17.3954 35.8867C 17.622 36.0781 17.913 36.1738 18.2684 36.1738ZM 24.1513 29.125L 24.1513 30.6602L 25.3349 30.6602L 25.3349 31.498L 24.1513 31.498L 24.1513 35.4297C 24.1513 35.6836 24.204 35.875 24.3095 36.0039C 24.4149 36.1289 24.5946 36.1914 24.8485 36.1914C 24.9735 36.1914 25.1454 36.168 25.3641 36.1211L 25.3641 37C 25.079 37.0781 24.8016 37.1172 24.5321 37.1172C 24.0477 37.1172 23.6825 36.9707 23.4364 36.6777C 23.1903 36.3848 23.0673 35.9688 23.0673 35.4297L 23.0673 31.498L 21.913 31.498L 21.913 30.6602L 23.0673 30.6602L 23.0673 29.125L 24.1513 29.125ZM 28.077 29.125L 28.077 30.6602L 29.2606 30.6602L 29.2606 31.498L 28.077 31.498L 28.077 35.4297C 28.077 35.6836 28.1298 35.875 28.2352 36.0039C 28.3407 36.1289 28.5204 36.1914 28.7743 36.1914C 28.8993 36.1914 29.0712 36.168 29.2899 36.1211L 29.2899 37C 29.0048 37.0781 28.7274 37.1172 28.4579 37.1172C 27.9735 37.1172 27.6083 36.9707 27.3622 36.6777C 27.1161 36.3848 26.9931 35.9688 26.9931 35.4297L 26.9931 31.498L 25.8388 31.498L 25.8388 30.6602L 26.9931 30.6602L 26.9931 29.125L 28.077 29.125ZM 33.163 37.1172C 32.3036 37.1172 31.6044 36.8359 31.0653 36.2734C 30.5263 35.707 30.2567 34.9512 30.2567 34.0059L 30.2567 33.8066C 30.2567 33.1777 30.3759 32.6172 30.6141 32.125C 30.8563 31.6289 31.1923 31.2422 31.622 30.9648C 32.0556 30.6836 32.5243 30.543 33.0282 30.543C 33.8524 30.543 34.4931 30.8145 34.9501 31.3574C 35.4071 31.9004 35.6356 32.6777 35.6356 33.6895L 35.6356 34.1406L 31.3407 34.1406C 31.3563 34.7656 31.538 35.2715 31.8856 35.6582C 32.2372 36.041 32.6825 36.2324 33.2216 36.2324C 33.6044 36.2324 33.9286 36.1543 34.1942 35.998C 34.4599 35.8418 34.6923 35.6348 34.8915 35.377L 35.5536 35.8926C 35.0224 36.709 34.2255 37.1172 33.163 37.1172ZM 33.0282 31.4336C 32.5907 31.4336 32.2235 31.5938 31.9266 31.9141C 31.6298 32.2305 31.4462 32.6758 31.3759 33.25L 34.5516 33.25L 34.5516 33.168C 34.5204 32.6172 34.372 32.1914 34.1063 31.8906C 33.8407 31.5859 33.4813 31.4336 33.0282 31.4336ZM 39.9599 31.6328C 39.7958 31.6055 39.6181 31.5918 39.4266 31.5918C 38.7157 31.5918 38.2333 31.8945 37.9794 32.5L 37.9794 37L 36.8954 37L 36.8954 30.6602L 37.9501 30.6602L 37.9677 31.3926C 38.3231 30.8262 38.827 30.543 39.4794 30.543C 39.6903 30.543 39.8505 30.5703 39.9599 30.625L 39.9599 31.6328ZM 41.9872 30.6602L 42.0224 31.457C 42.5067 30.8477 43.1395 30.543 43.9208 30.543C 45.2606 30.543 45.9364 31.2988 45.9481 32.8105L 45.9481 37L 44.8641 37L 44.8641 32.8047C 44.8602 32.3477 44.7548 32.0098 44.5477 31.791C 44.3446 31.5723 44.0263 31.4629 43.5927 31.4629C 43.2411 31.4629 42.9325 31.5566 42.6669 31.7441C 42.4013 31.9316 42.1942 32.1777 42.0458 32.4824L 42.0458 37L 40.9618 37L 40.9618 30.6602L 41.9872 30.6602ZM 51.2743 35.3184C 51.2743 35.0254 51.163 34.7988 50.9403 34.6387C 50.7216 34.4746 50.3368 34.334 49.786 34.2168C 49.2391 34.0996 48.8036 33.959 48.4794 33.7949C 48.1591 33.6309 47.9208 33.4355 47.7645 33.209C 47.6122 32.9824 47.536 32.7129 47.536 32.4004C 47.536 31.8809 47.7548 31.4414 48.1923 31.082C 48.6337 30.7227 49.1962 30.543 49.8798 30.543C 50.5985 30.543 51.1806 30.7285 51.6259 31.0996C 52.0751 31.4707 52.2997 31.9453 52.2997 32.5234L 51.2099 32.5234C 51.2099 32.2266 51.0829 31.9707 50.829 31.7559C 50.579 31.541 50.2626 31.4336 49.8798 31.4336C 49.4852 31.4336 49.1766 31.5195 48.954 31.6914C 48.7313 31.8633 48.62 32.0879 48.62 32.3652C 48.62 32.627 48.7235 32.8242 48.9306 32.957C 49.1376 33.0898 49.5106 33.2168 50.0497 33.3379C 50.5927 33.459 51.0321 33.6035 51.3681 33.7715C 51.704 33.9395 51.952 34.1426 52.1122 34.3809C 52.2763 34.6152 52.3583 34.9023 52.3583 35.2422C 52.3583 35.8086 52.1317 36.2637 51.6786 36.6074C 51.2255 36.9473 50.6376 37.1172 49.9149 37.1172C 49.4071 37.1172 48.9579 37.0273 48.5673 36.8477C 48.1766 36.668 47.87 36.418 47.6474 36.0977C 47.4286 35.7734 47.3192 35.4238 47.3192 35.0488L 48.4032 35.0488C 48.4227 35.4121 48.5673 35.7012 48.8368 35.916C 49.1102 36.127 49.4696 36.2324 49.9149 36.2324C 50.3251 36.2324 50.6532 36.1504 50.8993 35.9863C 51.1493 35.8184 51.2743 35.5957 51.2743 35.3184ZM 60.661 37C 60.5985 36.875 60.5477 36.6523 60.5087 36.332C 60.0048 36.8555 59.4032 37.1172 58.704 37.1172C 58.079 37.1172 57.5653 36.9414 57.163 36.5898C 56.7645 36.2344 56.5653 35.7852 56.5653 35.2422C 56.5653 34.582 56.8153 34.0703 57.3153 33.707C 57.8192 33.3398 58.5263 33.1562 59.4364 33.1562L 60.4911 33.1562L 60.4911 32.6582C 60.4911 32.2793 60.3778 31.9785 60.1513 31.7559C 59.9247 31.5293 59.5907 31.416 59.1493 31.416C 58.7626 31.416 58.4384 31.5137 58.1766 31.709C 57.9149 31.9043 57.7841 32.1406 57.7841 32.418L 56.6942 32.418C 56.6942 32.1016 56.8056 31.7969 57.0282 31.5039C 57.2548 31.207 57.5595 30.9727 57.9423 30.8008C 58.329 30.6289 58.7528 30.543 59.2138 30.543C 59.9442 30.543 60.5165 30.7266 60.9306 31.0938C 61.3446 31.457 61.5595 31.959 61.5751 32.5996L 61.5751 35.5176C 61.5751 36.0996 61.6493 36.5625 61.7977 36.9062L 61.7977 37L 60.661 37ZM 58.8622 36.1738C 59.202 36.1738 59.5243 36.0859 59.829 35.9102C 60.1337 35.7344 60.3544 35.5059 60.4911 35.2246L 60.4911 33.9238L 59.6415 33.9238C 58.3134 33.9238 57.6493 34.3125 57.6493 35.0898C 57.6493 35.4297 57.7626 35.6953 57.9891 35.8867C 58.2157 36.0781 58.5067 36.1738 58.8622 36.1738ZM 64.2997 30.6602L 64.3349 31.457C 64.8192 30.8477 65.452 30.543 66.2333 30.543C 67.5731 30.543 68.2489 31.2988 68.2606 32.8105L 68.2606 37L 67.1766 37L 67.1766 32.8047C 67.1727 32.3477 67.0673 32.0098 66.8602 31.791C 66.6571 31.5723 66.3388 31.4629 65.9052 31.4629C 65.5536 31.4629 65.245 31.5566 64.9794 31.7441C 64.7138 31.9316 64.5067 32.1777 64.3583 32.4824L 64.3583 37L 63.2743 37L 63.2743 30.6602L 64.2997 30.6602ZM 69.6317 33.7773C 69.6317 32.8047 69.8622 32.0234 70.3231 31.4336C 70.7841 30.8398 71.3876 30.543 72.1337 30.543C 72.8759 30.543 73.4638 30.7969 73.8974 31.3047L 73.8974 28L 74.9813 28L 74.9813 37L 73.9852 37L 73.9325 36.3203C 73.4989 36.8516 72.8954 37.1172 72.122 37.1172C 71.3876 37.1172 70.788 36.8164 70.3231 36.2148C 69.8622 35.6133 69.6317 34.8281 69.6317 33.8594L 69.6317 33.7773ZM 70.7157 33.9004C 70.7157 34.6191 70.8642 35.1816 71.161 35.5879C 71.4579 35.9941 71.8681 36.1973 72.3915 36.1973C 73.079 36.1973 73.5809 35.8887 73.8974 35.2715L 73.8974 32.3594C 73.5731 31.7617 73.0751 31.4629 72.4032 31.4629C 71.872 31.4629 71.4579 31.668 71.161 32.0781C 70.8642 32.4883 70.7157 33.0957 70.7157 33.9004ZM 10.5048 49.3184C 10.5048 49.0254 10.3934 48.7988 10.1708 48.6387C 9.95204 48.4746 9.56727 48.334 9.01649 48.2168C 8.46962 48.0996 8.03407 47.959 7.70985 47.7949C 7.38954 47.6309 7.15126 47.4355 6.99501 47.209C 6.84266 46.9824 6.76649 46.7129 6.76649 46.4004C 6.76649 45.8809 6.98524 45.4414 7.42274 45.082C 7.86415 44.7227 8.42665 44.543 9.11024 44.543C 9.82899 44.543 10.411 44.7285 10.8563 45.0996C 11.3056 45.4707 11.5302 45.9453 11.5302 46.5234L 10.4403 46.5234C 10.4403 46.2266 10.3134 45.9707 10.0595 45.7559C 9.80946 45.541 9.49305 45.4336 9.11024 45.4336C 8.71571 45.4336 8.40712 45.5195 8.18446 45.6914C 7.9618 45.8633 7.85048 46.0879 7.85048 46.3652C 7.85048 46.627 7.95399 46.8242 8.16102 46.957C 8.36805 47.0898 8.7411 47.2168 9.28016 47.3379C 9.82313 47.459 10.2626 47.6035 10.5985 47.7715C 10.9345 47.9395 11.1825 48.1426 11.3427 48.3809C 11.5067 48.6152 11.5888 48.9023 11.5888 49.2422C 11.5888 49.8086 11.3622 50.2637 10.9091 50.6074C 10.4559 50.9473 9.86805 51.1172 9.1454 51.1172C 8.63758 51.1172 8.18837 51.0273 7.79774 50.8477C 7.40712 50.668 7.10048 50.418 6.87782 50.0977C 6.65907 49.7734 6.54969 49.4238 6.54969 49.0488L 7.63368 49.0488C 7.65321 49.4121 7.79774 49.7012 8.06727 49.916C 8.34071 50.127 8.70008 50.2324 9.1454 50.2324C 9.55555 50.2324 9.88368 50.1504 10.1298 49.9863C 10.3798 49.8184 10.5048 49.5957 10.5048 49.3184ZM 18.3563 47.9004C 18.3563 48.8652 18.1356 49.6426 17.6942 50.2324C 17.2528 50.8223 16.6552 51.1172 15.9013 51.1172C 15.1317 51.1172 14.5263 50.873 14.0849 50.3848L 14.0849 53.4375L 13.0009 53.4375L 13.0009 44.6602L 13.9911 44.6602L 14.0438 45.3633C 14.4852 44.8164 15.0985 44.543 15.8837 44.543C 16.6454 44.543 17.247 44.8301 17.6884 45.4043C 18.1337 45.9785 18.3563 46.7773 18.3563 47.8008L 18.3563 47.9004ZM 17.2724 47.7773C 17.2724 47.0625 17.12 46.498 16.8153 46.084C 16.5106 45.6699 16.0927 45.4629 15.5614 45.4629C 14.9052 45.4629 14.413 45.7539 14.0849 46.3359L 14.0849 49.3652C 14.4091 49.9434 14.9052 50.2324 15.5731 50.2324C 16.0927 50.2324 16.5048 50.0273 16.8095 49.6172C 17.1181 49.2031 17.2724 48.5898 17.2724 47.7773ZM 22.37 51.1172C 21.5106 51.1172 20.8114 50.8359 20.2724 50.2734C 19.7333 49.707 19.4638 48.9512 19.4638 48.0059L 19.4638 47.8066C 19.4638 47.1777 19.5829 46.6172 19.8212 46.125C 20.0634 45.6289 20.3993 45.2422 20.829 44.9648C 21.2626 44.6836 21.7313 44.543 22.2352 44.543C 23.0595 44.543 23.7001 44.8145 24.1571 45.3574C 24.6141 45.9004 24.8427 46.6777 24.8427 47.6895L 24.8427 48.1406L 20.5477 48.1406C 20.5634 48.7656 20.745 49.2715 21.0927 49.6582C 21.4442 50.041 21.8895 50.2324 22.4286 50.2324C 22.8114 50.2324 23.1356 50.1543 23.4013 49.998C 23.6669 49.8418 23.8993 49.6348 24.0985 49.377L 24.7606 49.8926C 24.2294 50.709 23.4325 51.1172 22.37 51.1172ZM 22.2352 45.4336C 21.7977 45.4336 21.4306 45.5938 21.1337 45.9141C 20.8368 46.2305 20.6532 46.6758 20.5829 47.25L 23.7587 47.25L 23.7587 47.168C 23.7274 46.6172 23.579 46.1914 23.3134 45.8906C 23.0477 45.5859 22.6884 45.4336 22.2352 45.4336ZM 28.6454 50.2324C 29.0321 50.2324 29.37 50.1152 29.6591 49.8809C 29.9481 49.6465 30.1083 49.3535 30.1395 49.002L 31.1649 49.002C 31.1454 49.3652 31.0204 49.7109 30.7899 50.0391C 30.5595 50.3672 30.2509 50.6289 29.8641 50.8242C 29.4813 51.0195 29.0751 51.1172 28.6454 51.1172C 27.7821 51.1172 27.0946 50.8301 26.5829 50.2559C 26.0751 49.6777 25.8212 48.8887 25.8212 47.8887L 25.8212 47.707C 25.8212 47.0898 25.9345 46.541 26.161 46.0605C 26.3876 45.5801 26.7118 45.207 27.1337 44.9414C 27.5595 44.6758 28.0614 44.543 28.6395 44.543C 29.3505 44.543 29.9403 44.7559 30.4091 45.1816C 30.8817 45.6074 31.1337 46.1602 31.1649 46.8398L 30.1395 46.8398C 30.1083 46.4297 29.952 46.0938 29.6708 45.832C 29.3934 45.5664 29.0497 45.4336 28.6395 45.4336C 28.0888 45.4336 27.661 45.6328 27.3563 46.0312C 27.0556 46.4258 26.9052 46.998 26.9052 47.748L 26.9052 47.9531C 26.9052 48.6836 27.0556 49.2461 27.3563 49.6406C 27.6571 50.0352 28.0868 50.2324 28.6454 50.2324ZM 33.5614 51L 32.4774 51L 32.4774 44.6602L 33.5614 44.6602L 33.5614 51ZM 32.3895 42.9785C 32.3895 42.8027 32.4423 42.6543 32.5477 42.5332C 32.6571 42.4121 32.8173 42.3516 33.0282 42.3516C 33.2391 42.3516 33.3993 42.4121 33.5087 42.5332C 33.6181 42.6543 33.6727 42.8027 33.6727 42.9785C 33.6727 43.1543 33.6181 43.3008 33.5087 43.418C 33.3993 43.5352 33.2391 43.5938 33.0282 43.5938C 32.8173 43.5938 32.6571 43.5352 32.5477 43.418C 32.4423 43.3008 32.3895 43.1543 32.3895 42.9785ZM 39.2157 51C 39.1532 50.875 39.1024 50.6523 39.0634 50.332C 38.5595 50.8555 37.9579 51.1172 37.2587 51.1172C 36.6337 51.1172 36.12 50.9414 35.7177 50.5898C 35.3192 50.2344 35.12 49.7852 35.12 49.2422C 35.12 48.582 35.37 48.0703 35.87 47.707C 36.3739 47.3398 37.0809 47.1562 37.9911 47.1562L 39.0458 47.1562L 39.0458 46.6582C 39.0458 46.2793 38.9325 45.9785 38.7059 45.7559C 38.4794 45.5293 38.1454 45.416 37.704 45.416C 37.3173 45.416 36.9931 45.5137 36.7313 45.709C 36.4696 45.9043 36.3388 46.1406 36.3388 46.418L 35.2489 46.418C 35.2489 46.1016 35.3602 45.7969 35.5829 45.5039C 35.8095 45.207 36.1141 44.9727 36.497 44.8008C 36.8837 44.6289 37.3075 44.543 37.7684 44.543C 38.4989 44.543 39.0712 44.7266 39.4852 45.0938C 39.8993 45.457 40.1141 45.959 40.1298 46.5996L 40.1298 49.5176C 40.1298 50.0996 40.204 50.5625 40.3524 50.9062L 40.3524 51L 39.2157 51ZM 37.4169 50.1738C 37.7567 50.1738 38.079 50.0859 38.3837 49.9102C 38.6884 49.7344 38.9091 49.5059 39.0458 49.2246L 39.0458 47.9238L 38.1962 47.9238C 36.8681 47.9238 36.204 48.3125 36.204 49.0898C 36.204 49.4297 36.3173 49.6953 36.5438 49.8867C 36.7704 50.0781 37.0614 50.1738 37.4169 50.1738ZM 43.0067 51L 41.9227 51L 41.9227 42L 43.0067 42L 43.0067 51ZM 50.2665 50.2324C 50.6532 50.2324 50.9911 50.1152 51.2802 49.8809C 51.5692 49.6465 51.7294 49.3535 51.7606 49.002L 52.786 49.002C 52.7665 49.3652 52.6415 49.7109 52.411 50.0391C 52.1806 50.3672 51.872 50.6289 51.4852 50.8242C 51.1024 51.0195 50.6962 51.1172 50.2665 51.1172C 49.4032 51.1172 48.7157 50.8301 48.204 50.2559C 47.6962 49.6777 47.4423 48.8887 47.4423 47.8887L 47.4423 47.707C 47.4423 47.0898 47.5556 46.541 47.7821 46.0605C 48.0087 45.5801 48.3329 45.207 48.7548 44.9414C 49.1806 44.6758 49.6825 44.543 50.2606 44.543C 50.9716 44.543 51.5614 44.7559 52.0302 45.1816C 52.5028 45.6074 52.7548 46.1602 52.786 46.8398L 51.7606 46.8398C 51.7294 46.4297 51.5731 46.0938 51.2919 45.832C 51.0145 45.5664 50.6708 45.4336 50.2606 45.4336C 49.7099 45.4336 49.2821 45.6328 48.9774 46.0312C 48.6766 46.4258 48.5263 46.998 48.5263 47.748L 48.5263 47.9531C 48.5263 48.6836 48.6766 49.2461 48.9774 49.6406C 49.2782 50.0352 49.7079 50.2324 50.2665 50.2324ZM 57.9188 51C 57.8563 50.875 57.8056 50.6523 57.7665 50.332C 57.2626 50.8555 56.661 51.1172 55.9618 51.1172C 55.3368 51.1172 54.8231 50.9414 54.4208 50.5898C 54.0224 50.2344 53.8231 49.7852 53.8231 49.2422C 53.8231 48.582 54.0731 48.0703 54.5731 47.707C 55.077 47.3398 55.7841 47.1562 56.6942 47.1562L 57.7489 47.1562L 57.7489 46.6582C 57.7489 46.2793 57.6356 45.9785 57.4091 45.7559C 57.1825 45.5293 56.8485 45.416 56.4071 45.416C 56.0204 45.416 55.6962 45.5137 55.4345 45.709C 55.1727 45.9043 55.0419 46.1406 55.0419 46.418L 53.952 46.418C 53.952 46.1016 54.0634 45.7969 54.286 45.5039C 54.5126 45.207 54.8173 44.9727 55.2001 44.8008C 55.5868 44.6289 56.0106 44.543 56.4716 44.543C 57.202 44.543 57.7743 44.7266 58.1884 45.0938C 58.6024 45.457 58.8173 45.959 58.8329 46.5996L 58.8329 49.5176C 58.8329 50.0996 58.9071 50.5625 59.0556 50.9062L 59.0556 51L 57.9188 51ZM 56.12 50.1738C 56.4599 50.1738 56.7821 50.0859 57.0868 49.9102C 57.3915 49.7344 57.6122 49.5059 57.7489 49.2246L 57.7489 47.9238L 56.8993 47.9238C 55.5712 47.9238 54.9071 48.3125 54.9071 49.0898C 54.9071 49.4297 55.0204 49.6953 55.247 49.8867C 55.4735 50.0781 55.7645 50.1738 56.12 50.1738ZM 64.2235 49.3184C 64.2235 49.0254 64.1122 48.7988 63.8895 48.6387C 63.6708 48.4746 63.286 48.334 62.7352 48.2168C 62.1884 48.0996 61.7528 47.959 61.4286 47.7949C 61.1083 47.6309 60.87 47.4355 60.7138 47.209C 60.5614 46.9824 60.4852 46.7129 60.4852 46.4004C 60.4852 45.8809 60.704 45.4414 61.1415 45.082C 61.5829 44.7227 62.1454 44.543 62.829 44.543C 63.5477 44.543 64.1298 44.7285 64.5751 45.0996C 65.0243 45.4707 65.2489 45.9453 65.2489 46.5234L 64.1591 46.5234C 64.1591 46.2266 64.0321 45.9707 63.7782 45.7559C 63.5282 45.541 63.2118 45.4336 62.829 45.4336C 62.4345 45.4336 62.1259 45.5195 61.9032 45.6914C 61.6806 45.8633 61.5692 46.0879 61.5692 46.3652C 61.5692 46.627 61.6727 46.8242 61.8798 46.957C 62.0868 47.0898 62.4599 47.2168 62.9989 47.3379C 63.5419 47.459 63.9813 47.6035 64.3173 47.7715C 64.6532 47.9395 64.9013 48.1426 65.0614 48.3809C 65.2255 48.6152 65.3075 48.9023 65.3075 49.2422C 65.3075 49.8086 65.0809 50.2637 64.6278 50.6074C 64.1747 50.9473 63.5868 51.1172 62.8641 51.1172C 62.3563 51.1172 61.9071 51.0273 61.5165 50.8477C 61.1259 50.668 60.8192 50.418 60.5966 50.0977C 60.3778 49.7734 60.2684 49.4238 60.2684 49.0488L 61.3524 49.0488C 61.372 49.4121 61.5165 49.7012 61.786 49.916C 62.0595 50.127 62.4188 50.2324 62.8641 50.2324C 63.2743 50.2324 63.6024 50.1504 63.8485 49.9863C 64.0985 49.8184 64.2235 49.5957 64.2235 49.3184ZM 69.3505 51.1172C 68.4911 51.1172 67.7919 50.8359 67.2528 50.2734C 66.7138 49.707 66.4442 48.9512 66.4442 48.0059L 66.4442 47.8066C 66.4442 47.1777 66.5634 46.6172 66.8017 46.125C 67.0438 45.6289 67.3798 45.2422 67.8095 44.9648C 68.2431 44.6836 68.7118 44.543 69.2157 44.543C 70.0399 44.543 70.6806 44.8145 71.1376 45.3574C 71.5946 45.9004 71.8231 46.6777 71.8231 47.6895L 71.8231 48.1406L 67.5282 48.1406C 67.5438 48.7656 67.7255 49.2715 68.0731 49.6582C 68.4247 50.041 68.87 50.2324 69.4091 50.2324C 69.7919 50.2324 70.1161 50.1543 70.3817 49.998C 70.6474 49.8418 70.8798 49.6348 71.079 49.377L 71.7411 49.8926C 71.2099 50.709 70.413 51.1172 69.3505 51.1172ZM 69.2157 45.4336C 68.7782 45.4336 68.411 45.5938 68.1142 45.9141C 67.8173 46.2305 67.6337 46.6758 67.5634 47.25L 70.7392 47.25L 70.7392 47.168C 70.7079 46.6172 70.5595 46.1914 70.2938 45.8906C 70.0282 45.5859 69.6688 45.4336 69.2157 45.4336ZM 76.7743 49.3184C 76.7743 49.0254 76.663 48.7988 76.4403 48.6387C 76.2216 48.4746 75.8368 48.334 75.286 48.2168C 74.7392 48.0996 74.3036 47.959 73.9794 47.7949C 73.6591 47.6309 73.4208 47.4355 73.2645 47.209C 73.1122 46.9824 73.036 46.7129 73.036 46.4004C 73.036 45.8809 73.2548 45.4414 73.6923 45.082C 74.1337 44.7227 74.6962 44.543 75.3798 44.543C 76.0985 44.543 76.6806 44.7285 77.1259 45.0996C 77.5751 45.4707 77.7997 45.9453 77.7997 46.5234L 76.7099 46.5234C 76.7099 46.2266 76.5829 45.9707 76.329 45.7559C 76.079 45.541 75.7626 45.4336 75.3798 45.4336C 74.9852 45.4336 74.6767 45.5195 74.454 45.6914C 74.2313 45.8633 74.12 46.0879 74.12 46.3652C 74.12 46.627 74.2235 46.8242 74.4306 46.957C 74.6376 47.0898 75.0106 47.2168 75.5497 47.3379C 76.0927 47.459 76.5321 47.6035 76.8681 47.7715C 77.204 47.9395 77.452 48.1426 77.6122 48.3809C 77.7763 48.6152 77.8583 48.9023 77.8583 49.2422C 77.8583 49.8086 77.6317 50.2637 77.1786 50.6074C 76.7255 50.9473 76.1376 51.1172 75.4149 51.1172C 74.9071 51.1172 74.4579 51.0273 74.0673 50.8477C 73.6767 50.668 73.37 50.418 73.1474 50.0977C 72.9286 49.7734 72.8192 49.4238 72.8192 49.0488L 73.9032 49.0488C 73.9227 49.4121 74.0673 49.7012 74.3368 49.916C 74.6102 50.127 74.9696 50.2324 75.4149 50.2324C 75.8251 50.2324 76.1532 50.1504 76.3993 49.9863C 76.6493 49.8184 76.7743 49.5957 76.7743 49.3184Z" transform="translate(308.557 54.5582) scale(2)" fill="#333333"/>
</g>
<g id="Rectangle_3">
<rect x="0.5" y="0.5" width="94.5176" height="72.814" transform="translate(554.965 46) scale(2)" stroke="black"/>
</g>
<g id="Remove non-digit characters">
<path d="M 24.7782 19.5488L 22.7743 19.5488L 22.7743 23L 21.6434 23L 21.6434 14.4688L 24.4677 14.4688C 25.4286 14.4688 26.1669 14.6875 26.6825 15.125C 27.202 15.5625 27.4618 16.1992 27.4618 17.0352C 27.4618 17.5664 27.3173 18.0293 27.0282 18.4238C 26.7431 18.8184 26.3446 19.1133 25.8329 19.3086L 27.8368 22.9297L 27.8368 23L 26.6298 23L 24.7782 19.5488ZM 22.7743 18.6289L 24.5028 18.6289C 25.0614 18.6289 25.5048 18.4844 25.8329 18.1953C 26.1649 17.9062 26.3309 17.5195 26.3309 17.0352C 26.3309 16.5078 26.1727 16.1035 25.8563 15.8223C 25.5438 15.541 25.0907 15.3984 24.497 15.3945L 22.7743 15.3945L 22.7743 18.6289ZM 31.5048 23.1172C 30.6454 23.1172 29.9462 22.8359 29.4071 22.2734C 28.8681 21.707 28.5985 20.9512 28.5985 20.0059L 28.5985 19.8066C 28.5985 19.1777 28.7177 18.6172 28.9559 18.125C 29.1981 17.6289 29.5341 17.2422 29.9638 16.9648C 30.3974 16.6836 30.8661 16.543 31.37 16.543C 32.1942 16.543 32.8349 16.8145 33.2919 17.3574C 33.7489 17.9004 33.9774 18.6777 33.9774 19.6895L 33.9774 20.1406L 29.6825 20.1406C 29.6981 20.7656 29.8798 21.2715 30.2274 21.6582C 30.579 22.041 31.0243 22.2324 31.5634 22.2324C 31.9462 22.2324 32.2704 22.1543 32.536 21.998C 32.8016 21.8418 33.0341 21.6348 33.2333 21.377L 33.8954 21.8926C 33.3641 22.709 32.5673 23.1172 31.5048 23.1172ZM 31.37 17.4336C 30.9325 17.4336 30.5653 17.5938 30.2684 17.9141C 29.9716 18.2305 29.788 18.6758 29.7177 19.25L 32.8934 19.25L 32.8934 19.168C 32.8622 18.6172 32.7138 18.1914 32.4481 17.8906C 32.1825 17.5859 31.8231 17.4336 31.37 17.4336ZM 36.2567 16.6602L 36.286 17.3633C 36.7509 16.8164 37.3778 16.543 38.1669 16.543C 39.0536 16.543 39.6571 16.8828 39.9774 17.5625C 40.1884 17.2578 40.4618 17.0117 40.7977 16.8242C 41.1376 16.6367 41.538 16.543 41.9989 16.543C 43.3895 16.543 44.0966 17.2793 44.12 18.752L 44.12 23L 43.036 23L 43.036 18.8164C 43.036 18.3633 42.9325 18.0254 42.7255 17.8027C 42.5184 17.5762 42.1708 17.4629 41.6825 17.4629C 41.2802 17.4629 40.9462 17.584 40.6806 17.8262C 40.4149 18.0645 40.2606 18.3867 40.2177 18.793L 40.2177 23L 39.1278 23L 39.1278 18.8457C 39.1278 17.9238 38.6766 17.4629 37.7743 17.4629C 37.0634 17.4629 36.577 17.7656 36.3153 18.3711L 36.3153 23L 35.2313 23L 35.2313 16.6602L 36.2567 16.6602ZM 45.4735 19.7715C 45.4735 19.1504 45.5946 18.5918 45.8368 18.0957C 46.0829 17.5996 46.4227 17.2168 46.8563 16.9473C 47.2938 16.6777 47.7919 16.543 48.3505 16.543C 49.2138 16.543 49.911 16.8418 50.4423 17.4395C 50.9774 18.0371 51.245 18.832 51.245 19.8242L 51.245 19.9004C 51.245 20.5176 51.1259 21.0723 50.8876 21.5645C 50.6532 22.0527 50.3153 22.4336 49.8739 22.707C 49.4364 22.9805 48.9325 23.1172 48.3622 23.1172C 47.5028 23.1172 46.8056 22.8184 46.2704 22.2207C 45.7391 21.623 45.4735 20.832 45.4735 19.8477L 45.4735 19.7715ZM 46.5634 19.9004C 46.5634 20.6035 46.7255 21.168 47.0497 21.5938C 47.3778 22.0195 47.8153 22.2324 48.3622 22.2324C 48.913 22.2324 49.3505 22.0176 49.6747 21.5879C 49.9989 21.1543 50.161 20.5488 50.161 19.7715C 50.161 19.0762 49.995 18.5137 49.663 18.084C 49.3349 17.6504 48.8974 17.4336 48.3505 17.4336C 47.8153 17.4336 47.3837 17.6465 47.0556 18.0723C 46.7274 18.498 46.5634 19.1074 46.5634 19.9004ZM 54.6024 21.5293L 56.1727 16.6602L 57.2802 16.6602L 55.0067 23L 54.1806 23L 51.8837 16.6602L 52.9911 16.6602L 54.6024 21.5293ZM 60.872 23.1172C 60.0126 23.1172 59.3134 22.8359 58.7743 22.2734C 58.2352 21.707 57.9657 20.9512 57.9657 20.0059L 57.9657 19.8066C 57.9657 19.1777 58.0849 18.6172 58.3231 18.125C 58.5653 17.6289 58.9013 17.2422 59.3309 16.9648C 59.7645 16.6836 60.2333 16.543 60.7372 16.543C 61.5614 16.543 62.202 16.8145 62.6591 17.3574C 63.1161 17.9004 63.3446 18.6777 63.3446 19.6895L 63.3446 20.1406L 59.0497 20.1406C 59.0653 20.7656 59.247 21.2715 59.5946 21.6582C 59.9462 22.041 60.3915 22.2324 60.9306 22.2324C 61.3134 22.2324 61.6376 22.1543 61.9032 21.998C 62.1688 21.8418 62.4013 21.6348 62.6005 21.377L 63.2626 21.8926C 62.7313 22.709 61.9345 23.1172 60.872 23.1172ZM 60.7372 17.4336C 60.2997 17.4336 59.9325 17.5938 59.6356 17.9141C 59.3388 18.2305 59.1552 18.6758 59.0849 19.25L 62.2606 19.25L 62.2606 19.168C 62.2294 18.6172 62.0809 18.1914 61.8153 17.8906C 61.5497 17.5859 61.1903 17.4336 60.7372 17.4336ZM 20.7294 30.6602L 20.7645 31.457C 21.2489 30.8477 21.8817 30.543 22.663 30.543C 24.0028 30.543 24.6786 31.2988 24.6903 32.8105L 24.6903 37L 23.6063 37L 23.6063 32.8047C 23.6024 32.3477 23.497 32.0098 23.2899 31.791C 23.0868 31.5723 22.7684 31.4629 22.3349 31.4629C 21.9833 31.4629 21.6747 31.5566 21.4091 31.7441C 21.1434 31.9316 20.9364 32.1777 20.788 32.4824L 20.788 37L 19.704 37L 19.704 30.6602L 20.7294 30.6602ZM 26.038 33.7715C 26.038 33.1504 26.1591 32.5918 26.4013 32.0957C 26.6474 31.5996 26.9872 31.2168 27.4208 30.9473C 27.8583 30.6777 28.3563 30.543 28.9149 30.543C 29.7782 30.543 30.4755 30.8418 31.0067 31.4395C 31.5419 32.0371 31.8095 32.832 31.8095 33.8242L 31.8095 33.9004C 31.8095 34.5176 31.6903 35.0723 31.452 35.5645C 31.2177 36.0527 30.8798 36.4336 30.4384 36.707C 30.0009 36.9805 29.497 37.1172 28.9266 37.1172C 28.0673 37.1172 27.37 36.8184 26.8349 36.2207C 26.3036 35.623 26.038 34.832 26.038 33.8477L 26.038 33.7715ZM 27.1278 33.9004C 27.1278 34.6035 27.2899 35.168 27.6141 35.5938C 27.9423 36.0195 28.3798 36.2324 28.9266 36.2324C 29.4774 36.2324 29.9149 36.0176 30.2391 35.5879C 30.5634 35.1543 30.7255 34.5488 30.7255 33.7715C 30.7255 33.0762 30.5595 32.5137 30.2274 32.084C 29.8993 31.6504 29.4618 31.4336 28.9149 31.4336C 28.3798 31.4336 27.9481 31.6465 27.62 32.0723C 27.2919 32.498 27.1278 33.1074 27.1278 33.9004ZM 34.1942 30.6602L 34.2294 31.457C 34.7138 30.8477 35.3466 30.543 36.1278 30.543C 37.4677 30.543 38.1434 31.2988 38.1552 32.8105L 38.1552 37L 37.0712 37L 37.0712 32.8047C 37.0673 32.3477 36.9618 32.0098 36.7548 31.791C 36.5516 31.5723 36.2333 31.4629 35.7997 31.4629C 35.4481 31.4629 35.1395 31.5566 34.8739 31.7441C 34.6083 31.9316 34.4013 32.1777 34.2528 32.4824L 34.2528 37L 33.1688 37L 33.1688 30.6602L 34.1942 30.6602ZM 42.0458 33.8184L 39.1864 33.8184L 39.1864 32.9336L 42.0458 32.9336L 42.0458 33.8184ZM 42.8427 33.7773C 42.8427 32.8047 43.0731 32.0234 43.5341 31.4336C 43.995 30.8398 44.5985 30.543 45.3446 30.543C 46.0868 30.543 46.6747 30.7969 47.1083 31.3047L 47.1083 28L 48.1923 28L 48.1923 37L 47.1962 37L 47.1434 36.3203C 46.7099 36.8516 46.1063 37.1172 45.3329 37.1172C 44.5985 37.1172 43.9989 36.8164 43.5341 36.2148C 43.0731 35.6133 42.8427 34.8281 42.8427 33.8594L 42.8427 33.7773ZM 43.9266 33.9004C 43.9266 34.6191 44.0751 35.1816 44.372 35.5879C 44.6688 35.9941 45.079 36.1973 45.6024 36.1973C 46.2899 36.1973 46.7919 35.8887 47.1083 35.2715L 47.1083 32.3594C 46.7841 31.7617 46.286 31.4629 45.6141 31.4629C 45.0829 31.4629 44.6688 31.668 44.372 32.0781C 44.0751 32.4883 43.9266 33.0957 43.9266 33.9004ZM 51.0575 37L 49.9735 37L 49.9735 30.6602L 51.0575 30.6602L 51.0575 37ZM 49.8856 28.9785C 49.8856 28.8027 49.9384 28.6543 50.0438 28.5332C 50.1532 28.4121 50.3134 28.3516 50.5243 28.3516C 50.7352 28.3516 50.8954 28.4121 51.0048 28.5332C 51.1141 28.6543 51.1688 28.8027 51.1688 28.9785C 51.1688 29.1543 51.1141 29.3008 51.0048 29.418C 50.8954 29.5352 50.7352 29.5938 50.5243 29.5938C 50.3134 29.5938 50.1532 29.5352 50.0438 29.418C 49.9384 29.3008 49.8856 29.1543 49.8856 28.9785ZM 52.5399 33.7773C 52.5399 32.7891 52.7684 32.0039 53.2255 31.4219C 53.6825 30.8359 54.288 30.543 55.0419 30.543C 55.8153 30.543 56.4188 30.8164 56.8524 31.3633L 56.9052 30.6602L 57.8954 30.6602L 57.8954 36.8477C 57.8954 37.668 57.6513 38.3145 57.163 38.7871C 56.6786 39.2598 56.0263 39.4961 55.2059 39.4961C 54.7489 39.4961 54.3016 39.3984 53.8641 39.2031C 53.4266 39.0078 53.0927 38.7402 52.8622 38.4004L 53.4247 37.75C 53.8895 38.3242 54.4579 38.6113 55.1298 38.6113C 55.6571 38.6113 56.0673 38.4629 56.3602 38.166C 56.6571 37.8691 56.8056 37.4512 56.8056 36.9121L 56.8056 36.3672C 56.372 36.8672 55.7802 37.1172 55.0302 37.1172C 54.288 37.1172 53.6864 36.8184 53.2255 36.2207C 52.7684 35.623 52.5399 34.8086 52.5399 33.7773ZM 53.6298 33.9004C 53.6298 34.6152 53.7763 35.1777 54.0692 35.5879C 54.3622 35.9941 54.7724 36.1973 55.2997 36.1973C 55.9833 36.1973 56.4852 35.8867 56.8056 35.2656L 56.8056 32.3711C 56.4735 31.7656 55.9755 31.4629 55.3114 31.4629C 54.7841 31.4629 54.372 31.668 54.0751 32.0781C 53.7782 32.4883 53.6298 33.0957 53.6298 33.9004ZM 60.7138 37L 59.6298 37L 59.6298 30.6602L 60.7138 30.6602L 60.7138 37ZM 59.5419 28.9785C 59.5419 28.8027 59.5946 28.6543 59.7001 28.5332C 59.8095 28.4121 59.9696 28.3516 60.1806 28.3516C 60.3915 28.3516 60.5516 28.4121 60.661 28.5332C 60.7704 28.6543 60.8251 28.8027 60.8251 28.9785C 60.8251 29.1543 60.7704 29.3008 60.661 29.418C 60.5516 29.5352 60.3915 29.5938 60.1806 29.5938C 59.9696 29.5938 59.8095 29.5352 59.7001 29.418C 59.5946 29.3008 59.5419 29.1543 59.5419 28.9785ZM 63.9247 29.125L 63.9247 30.6602L 65.1083 30.6602L 65.1083 31.498L 63.9247 31.498L 63.9247 35.4297C 63.9247 35.6836 63.9774 35.875 64.0829 36.0039C 64.1884 36.1289 64.3681 36.1914 64.622 36.1914C 64.747 36.1914 64.9188 36.168 65.1376 36.1211L 65.1376 37C 64.8524 37.0781 64.5751 37.1172 64.3056 37.1172C 63.8212 37.1172 63.4559 36.9707 63.2099 36.6777C 62.9638 36.3848 62.8407 35.9688 62.8407 35.4297L 62.8407 31.498L 61.6864 31.498L 61.6864 30.6602L 62.8407 30.6602L 62.8407 29.125L 63.9247 29.125ZM 17.2841 50.2324C 17.6708 50.2324 18.0087 50.1152 18.2977 49.8809C 18.5868 49.6465 18.747 49.3535 18.7782 49.002L 19.8036 49.002C 19.7841 49.3652 19.6591 49.7109 19.4286 50.0391C 19.1981 50.3672 18.8895 50.6289 18.5028 50.8242C 18.12 51.0195 17.7138 51.1172 17.2841 51.1172C 16.4208 51.1172 15.7333 50.8301 15.2216 50.2559C 14.7138 49.6777 14.4599 48.8887 14.4599 47.8887L 14.4599 47.707C 14.4599 47.0898 14.5731 46.541 14.7997 46.0605C 15.0263 45.5801 15.3505 45.207 15.7724 44.9414C 16.1981 44.6758 16.7001 44.543 17.2782 44.543C 17.9891 44.543 18.579 44.7559 19.0477 45.1816C 19.5204 45.6074 19.7724 46.1602 19.8036 46.8398L 18.7782 46.8398C 18.747 46.4297 18.5907 46.0938 18.3095 45.832C 18.0321 45.5664 17.6884 45.4336 17.2782 45.4336C 16.7274 45.4336 16.2997 45.6328 15.995 46.0312C 15.6942 46.4258 15.5438 46.998 15.5438 47.748L 15.5438 47.9531C 15.5438 48.6836 15.6942 49.2461 15.995 49.6406C 16.2958 50.0352 16.7255 50.2324 17.2841 50.2324ZM 22.1063 45.4277C 22.5868 44.8379 23.2118 44.543 23.9813 44.543C 25.3212 44.543 25.997 45.2988 26.0087 46.8105L 26.0087 51L 24.9247 51L 24.9247 46.8047C 24.9208 46.3477 24.8153 46.0098 24.6083 45.791C 24.4052 45.5723 24.0868 45.4629 23.6532 45.4629C 23.3016 45.4629 22.9931 45.5566 22.7274 45.7441C 22.4618 45.9316 22.2548 46.1777 22.1063 46.4824L 22.1063 51L 21.0224 51L 21.0224 42L 22.1063 42L 22.1063 45.4277ZM 31.5458 51C 31.4833 50.875 31.4325 50.6523 31.3934 50.332C 30.8895 50.8555 30.288 51.1172 29.5888 51.1172C 28.9638 51.1172 28.4501 50.9414 28.0477 50.5898C 27.6493 50.2344 27.4501 49.7852 27.4501 49.2422C 27.4501 48.582 27.7001 48.0703 28.2001 47.707C 28.704 47.3398 29.411 47.1562 30.3212 47.1562L 31.3759 47.1562L 31.3759 46.6582C 31.3759 46.2793 31.2626 45.9785 31.036 45.7559C 30.8095 45.5293 30.4755 45.416 30.0341 45.416C 29.6474 45.416 29.3231 45.5137 29.0614 45.709C 28.7997 45.9043 28.6688 46.1406 28.6688 46.418L 27.579 46.418C 27.579 46.1016 27.6903 45.7969 27.913 45.5039C 28.1395 45.207 28.4442 44.9727 28.827 44.8008C 29.2138 44.6289 29.6376 44.543 30.0985 44.543C 30.829 44.543 31.4013 44.7266 31.8153 45.0938C 32.2294 45.457 32.4442 45.959 32.4599 46.5996L 32.4599 49.5176C 32.4599 50.0996 32.5341 50.5625 32.6825 50.9062L 32.6825 51L 31.5458 51ZM 29.747 50.1738C 30.0868 50.1738 30.4091 50.0859 30.7138 49.9102C 31.0184 49.7344 31.2391 49.5059 31.3759 49.2246L 31.3759 47.9238L 30.5263 47.9238C 29.1981 47.9238 28.5341 48.3125 28.5341 49.0898C 28.5341 49.4297 28.6474 49.6953 28.8739 49.8867C 29.1005 50.0781 29.3915 50.1738 29.747 50.1738ZM 37.2235 45.6328C 37.0595 45.6055 36.8817 45.5918 36.6903 45.5918C 35.9794 45.5918 35.497 45.8945 35.2431 46.5L 35.2431 51L 34.1591 51L 34.1591 44.6602L 35.2138 44.6602L 35.2313 45.3926C 35.5868 44.8262 36.0907 44.543 36.7431 44.543C 36.954 44.543 37.1141 44.5703 37.2235 44.625L 37.2235 45.6328ZM 41.9052 51C 41.8427 50.875 41.7919 50.6523 41.7528 50.332C 41.2489 50.8555 40.6474 51.1172 39.9481 51.1172C 39.3231 51.1172 38.8095 50.9414 38.4071 50.5898C 38.0087 50.2344 37.8095 49.7852 37.8095 49.2422C 37.8095 48.582 38.0595 48.0703 38.5595 47.707C 39.0634 47.3398 39.7704 47.1562 40.6806 47.1562L 41.7352 47.1562L 41.7352 46.6582C 41.7352 46.2793 41.622 45.9785 41.3954 45.7559C 41.1688 45.5293 40.8349 45.416 40.3934 45.416C 40.0067 45.416 39.6825 45.5137 39.4208 45.709C 39.1591 45.9043 39.0282 46.1406 39.0282 46.418L 37.9384 46.418C 37.9384 46.1016 38.0497 45.7969 38.2724 45.5039C 38.4989 45.207 38.8036 44.9727 39.1864 44.8008C 39.5731 44.6289 39.997 44.543 40.4579 44.543C 41.1884 44.543 41.7606 44.7266 42.1747 45.0938C 42.5888 45.457 42.8036 45.959 42.8192 46.5996L 42.8192 49.5176C 42.8192 50.0996 42.8934 50.5625 43.0419 50.9062L 43.0419 51L 41.9052 51ZM 40.1063 50.1738C 40.4462 50.1738 40.7684 50.0859 41.0731 49.9102C 41.3778 49.7344 41.5985 49.5059 41.7352 49.2246L 41.7352 47.9238L 40.8856 47.9238C 39.5575 47.9238 38.8934 48.3125 38.8934 49.0898C 38.8934 49.4297 39.0067 49.6953 39.2333 49.8867C 39.4599 50.0781 39.7509 50.1738 40.1063 50.1738ZM 47.0614 50.2324C 47.4481 50.2324 47.786 50.1152 48.0751 49.8809C 48.3641 49.6465 48.5243 49.3535 48.5556 49.002L 49.5809 49.002C 49.5614 49.3652 49.4364 49.7109 49.2059 50.0391C 48.9755 50.3672 48.6669 50.6289 48.2802 50.8242C 47.8974 51.0195 47.4911 51.1172 47.0614 51.1172C 46.1981 51.1172 45.5106 50.8301 44.9989 50.2559C 44.4911 49.6777 44.2372 48.8887 44.2372 47.8887L 44.2372 47.707C 44.2372 47.0898 44.3505 46.541 44.577 46.0605C 44.8036 45.5801 45.1278 45.207 45.5497 44.9414C 45.9755 44.6758 46.4774 44.543 47.0556 44.543C 47.7665 44.543 48.3563 44.7559 48.8251 45.1816C 49.2977 45.6074 49.5497 46.1602 49.5809 46.8398L 48.5556 46.8398C 48.5243 46.4297 48.3681 46.0938 48.0868 45.832C 47.8095 45.5664 47.4657 45.4336 47.0556 45.4336C 46.5048 45.4336 46.077 45.6328 45.7724 46.0312C 45.4716 46.4258 45.3212 46.998 45.3212 47.748L 45.3212 47.9531C 45.3212 48.6836 45.4716 49.2461 45.7724 49.6406C 46.0731 50.0352 46.5028 50.2324 47.0614 50.2324ZM 52.2704 43.125L 52.2704 44.6602L 53.454 44.6602L 53.454 45.498L 52.2704 45.498L 52.2704 49.4297C 52.2704 49.6836 52.3231 49.875 52.4286 50.0039C 52.5341 50.1289 52.7138 50.1914 52.9677 50.1914C 53.0927 50.1914 53.2645 50.168 53.4833 50.1211L 53.4833 51C 53.1981 51.0781 52.9208 51.1172 52.6513 51.1172C 52.1669 51.1172 51.8016 50.9707 51.5556 50.6777C 51.3095 50.3848 51.1864 49.9688 51.1864 49.4297L 51.1864 45.498L 50.0321 45.498L 50.0321 44.6602L 51.1864 44.6602L 51.1864 43.125L 52.2704 43.125ZM 57.3563 51.1172C 56.497 51.1172 55.7977 50.8359 55.2587 50.2734C 54.7196 49.707 54.4501 48.9512 54.4501 48.0059L 54.4501 47.8066C 54.4501 47.1777 54.5692 46.6172 54.8075 46.125C 55.0497 45.6289 55.3856 45.2422 55.8153 44.9648C 56.2489 44.6836 56.7177 44.543 57.2216 44.543C 58.0458 44.543 58.6864 44.8145 59.1434 45.3574C 59.6005 45.9004 59.829 46.6777 59.829 47.6895L 59.829 48.1406L 55.5341 48.1406C 55.5497 48.7656 55.7313 49.2715 56.079 49.6582C 56.4306 50.041 56.8759 50.2324 57.4149 50.2324C 57.7977 50.2324 58.122 50.1543 58.3876 49.998C 58.6532 49.8418 58.8856 49.6348 59.0849 49.377L 59.747 49.8926C 59.2157 50.709 58.4188 51.1172 57.3563 51.1172ZM 57.2216 45.4336C 56.7841 45.4336 56.4169 45.5938 56.12 45.9141C 55.8231 46.2305 55.6395 46.6758 55.5692 47.25L 58.745 47.25L 58.745 47.168C 58.7138 46.6172 58.5653 46.1914 58.2997 45.8906C 58.0341 45.5859 57.6747 45.4336 57.2216 45.4336ZM 64.1532 45.6328C 63.9891 45.6055 63.8114 45.5918 63.62 45.5918C 62.9091 45.5918 62.4266 45.8945 62.1727 46.5L 62.1727 51L 61.0888 51L 61.0888 44.6602L 62.1434 44.6602L 62.161 45.3926C 62.5165 44.8262 63.0204 44.543 63.6727 44.543C 63.8837 44.543 64.0438 44.5703 64.1532 44.625L 64.1532 45.6328ZM 68.8466 49.3184C 68.8466 49.0254 68.7352 48.7988 68.5126 48.6387C 68.2938 48.4746 67.9091 48.334 67.3583 48.2168C 66.8114 48.0996 66.3759 47.959 66.0517 47.7949C 65.7313 47.6309 65.4931 47.4355 65.3368 47.209C 65.1845 46.9824 65.1083 46.7129 65.1083 46.4004C 65.1083 45.8809 65.327 45.4414 65.7645 45.082C 66.2059 44.7227 66.7684 44.543 67.452 44.543C 68.1708 44.543 68.7528 44.7285 69.1981 45.0996C 69.6474 45.4707 69.872 45.9453 69.872 46.5234L 68.7821 46.5234C 68.7821 46.2266 68.6552 45.9707 68.4013 45.7559C 68.1513 45.541 67.8349 45.4336 67.452 45.4336C 67.0575 45.4336 66.7489 45.5195 66.5263 45.6914C 66.3036 45.8633 66.1923 46.0879 66.1923 46.3652C 66.1923 46.627 66.2958 46.8242 66.5028 46.957C 66.7099 47.0898 67.0829 47.2168 67.622 47.3379C 68.1649 47.459 68.6044 47.6035 68.9403 47.7715C 69.2763 47.9395 69.5243 48.1426 69.6845 48.3809C 69.8485 48.6152 69.9306 48.9023 69.9306 49.2422C 69.9306 49.8086 69.704 50.2637 69.2509 50.6074C 68.7977 50.9473 68.2099 51.1172 67.4872 51.1172C 66.9794 51.1172 66.5302 51.0273 66.1395 50.8477C 65.7489 50.668 65.4423 50.418 65.2196 50.0977C 65.0009 49.7734 64.8915 49.4238 64.8915 49.0488L 65.9755 49.0488C 65.995 49.4121 66.1395 49.7012 66.4091 49.916C 66.6825 50.127 67.0419 50.2324 67.4872 50.2324C 67.8974 50.2324 68.2255 50.1504 68.4716 49.9863C 68.7216 49.8184 68.8466 49.5957 68.8466 49.3184Z" transform="translate(566.039 54.5582) scale(2)" fill="#333333"/>
</g>
<g id="Rectangle_4">
<rect x="0.5" y="0.5" width="94.5176" height="72.814" transform="translate(296 260) scale(2)" stroke="black"/>
</g>
<g id="Convert the column to a numeric dtype">
<path d="M 18.7196 20.293C 18.6141 21.1953 18.2802 21.8926 17.7177 22.3848C 17.1591 22.873 16.4149 23.1172 15.4852 23.1172C 14.4774 23.1172 13.6688 22.7559 13.0595 22.0332C 12.454 21.3105 12.1513 20.3438 12.1513 19.1328L 12.1513 18.3125C 12.1513 17.5195 12.2919 16.8223 12.5731 16.2207C 12.8583 15.6191 13.2606 15.1582 13.7802 14.8379C 14.2997 14.5137 14.9013 14.3516 15.5849 14.3516C 16.4911 14.3516 17.2177 14.6055 17.7645 15.1133C 18.3114 15.6172 18.6298 16.3164 18.7196 17.2109L 17.5888 17.2109C 17.4911 16.5312 17.2782 16.0391 16.9501 15.7344C 16.6259 15.4297 16.1708 15.2773 15.5849 15.2773C 14.8661 15.2773 14.3016 15.543 13.8915 16.0742C 13.4852 16.6055 13.2821 17.3613 13.2821 18.3418L 13.2821 19.168C 13.2821 20.0938 13.4755 20.8301 13.8622 21.377C 14.2489 21.9238 14.7899 22.1973 15.4852 22.1973C 16.1102 22.1973 16.5888 22.0566 16.9208 21.7754C 17.2567 21.4902 17.4794 20.9961 17.5888 20.293L 18.7196 20.293ZM 19.8036 19.7715C 19.8036 19.1504 19.9247 18.5918 20.1669 18.0957C 20.413 17.5996 20.7528 17.2168 21.1864 16.9473C 21.6239 16.6777 22.122 16.543 22.6806 16.543C 23.5438 16.543 24.2411 16.8418 24.7724 17.4395C 25.3075 18.0371 25.5751 18.832 25.5751 19.8242L 25.5751 19.9004C 25.5751 20.5176 25.4559 21.0723 25.2177 21.5645C 24.9833 22.0527 24.6454 22.4336 24.204 22.707C 23.7665 22.9805 23.2626 23.1172 22.6923 23.1172C 21.8329 23.1172 21.1356 22.8184 20.6005 22.2207C 20.0692 21.623 19.8036 20.832 19.8036 19.8477L 19.8036 19.7715ZM 20.8934 19.9004C 20.8934 20.6035 21.0556 21.168 21.3798 21.5938C 21.7079 22.0195 22.1454 22.2324 22.6923 22.2324C 23.2431 22.2324 23.6806 22.0176 24.0048 21.5879C 24.329 21.1543 24.4911 20.5488 24.4911 19.7715C 24.4911 19.0762 24.3251 18.5137 23.9931 18.084C 23.6649 17.6504 23.2274 17.4336 22.6806 17.4336C 22.1454 17.4336 21.7138 17.6465 21.3856 18.0723C 21.0575 18.498 20.8934 19.1074 20.8934 19.9004ZM 27.9599 16.6602L 27.995 17.457C 28.4794 16.8477 29.1122 16.543 29.8934 16.543C 31.2333 16.543 31.9091 17.2988 31.9208 18.8105L 31.9208 23L 30.8368 23L 30.8368 18.8047C 30.8329 18.3477 30.7274 18.0098 30.5204 17.791C 30.3173 17.5723 29.9989 17.4629 29.5653 17.4629C 29.2138 17.4629 28.9052 17.5566 28.6395 17.7441C 28.3739 17.9316 28.1669 18.1777 28.0184 18.4824L 28.0184 23L 26.9345 23L 26.9345 16.6602L 27.9599 16.6602ZM 35.6474 21.5293L 37.2177 16.6602L 38.3251 16.6602L 36.0516 23L 35.2255 23L 32.9286 16.6602L 34.036 16.6602L 35.6474 21.5293ZM 41.9169 23.1172C 41.0575 23.1172 40.3583 22.8359 39.8192 22.2734C 39.2802 21.707 39.0106 20.9512 39.0106 20.0059L 39.0106 19.8066C 39.0106 19.1777 39.1298 18.6172 39.3681 18.125C 39.6102 17.6289 39.9462 17.2422 40.3759 16.9648C 40.8095 16.6836 41.2782 16.543 41.7821 16.543C 42.6063 16.543 43.247 16.8145 43.704 17.3574C 44.161 17.9004 44.3895 18.6777 44.3895 19.6895L 44.3895 20.1406L 40.0946 20.1406C 40.1102 20.7656 40.2919 21.2715 40.6395 21.6582C 40.9911 22.041 41.4364 22.2324 41.9755 22.2324C 42.3583 22.2324 42.6825 22.1543 42.9481 21.998C 43.2138 21.8418 43.4462 21.6348 43.6454 21.377L 44.3075 21.8926C 43.7763 22.709 42.9794 23.1172 41.9169 23.1172ZM 41.7821 17.4336C 41.3446 17.4336 40.9774 17.5938 40.6806 17.9141C 40.3837 18.2305 40.2001 18.6758 40.1298 19.25L 43.3056 19.25L 43.3056 19.168C 43.2743 18.6172 43.1259 18.1914 42.8602 17.8906C 42.5946 17.5859 42.2352 17.4336 41.7821 17.4336ZM 48.7138 17.6328C 48.5497 17.6055 48.372 17.5918 48.1806 17.5918C 47.4696 17.5918 46.9872 17.8945 46.7333 18.5L 46.7333 23L 45.6493 23L 45.6493 16.6602L 46.704 16.6602L 46.7216 17.3926C 47.077 16.8262 47.5809 16.543 48.2333 16.543C 48.4442 16.543 48.6044 16.5703 48.7138 16.625L 48.7138 17.6328ZM 51.4794 15.125L 51.4794 16.6602L 52.663 16.6602L 52.663 17.498L 51.4794 17.498L 51.4794 21.4297C 51.4794 21.6836 51.5321 21.875 51.6376 22.0039C 51.7431 22.1289 51.9227 22.1914 52.1766 22.1914C 52.3016 22.1914 52.4735 22.168 52.6923 22.1211L 52.6923 23C 52.4071 23.0781 52.1298 23.1172 51.8602 23.1172C 51.3759 23.1172 51.0106 22.9707 50.7645 22.6777C 50.5184 22.3848 50.3954 21.9688 50.3954 21.4297L 50.3954 17.498L 49.2411 17.498L 49.2411 16.6602L 50.3954 16.6602L 50.3954 15.125L 51.4794 15.125ZM 58.3817 15.125L 58.3817 16.6602L 59.5653 16.6602L 59.5653 17.498L 58.3817 17.498L 58.3817 21.4297C 58.3817 21.6836 58.4345 21.875 58.5399 22.0039C 58.6454 22.1289 58.8251 22.1914 59.079 22.1914C 59.204 22.1914 59.3759 22.168 59.5946 22.1211L 59.5946 23C 59.3095 23.0781 59.0321 23.1172 58.7626 23.1172C 58.2782 23.1172 57.913 22.9707 57.6669 22.6777C 57.4208 22.3848 57.2977 21.9688 57.2977 21.4297L 57.2977 17.498L 56.1434 17.498L 56.1434 16.6602L 57.2977 16.6602L 57.2977 15.125L 58.3817 15.125ZM 61.9208 17.4277C 62.4013 16.8379 63.0263 16.543 63.7958 16.543C 65.1356 16.543 65.8114 17.2988 65.8231 18.8105L 65.8231 23L 64.7391 23L 64.7391 18.8047C 64.7352 18.3477 64.6298 18.0098 64.4227 17.791C 64.2196 17.5723 63.9013 17.4629 63.4677 17.4629C 63.1161 17.4629 62.8075 17.5566 62.5419 17.7441C 62.2763 17.9316 62.0692 18.1777 61.9208 18.4824L 61.9208 23L 60.8368 23L 60.8368 14L 61.9208 14L 61.9208 17.4277ZM 70.077 23.1172C 69.2177 23.1172 68.5184 22.8359 67.9794 22.2734C 67.4403 21.707 67.1708 20.9512 67.1708 20.0059L 67.1708 19.8066C 67.1708 19.1777 67.2899 18.6172 67.5282 18.125C 67.7704 17.6289 68.1063 17.2422 68.536 16.9648C 68.9696 16.6836 69.4384 16.543 69.9423 16.543C 70.7665 16.543 71.4071 16.8145 71.8642 17.3574C 72.3212 17.9004 72.5497 18.6777 72.5497 19.6895L 72.5497 20.1406L 68.2548 20.1406C 68.2704 20.7656 68.452 21.2715 68.7997 21.6582C 69.1513 22.041 69.5966 22.2324 70.1356 22.2324C 70.5184 22.2324 70.8427 22.1543 71.1083 21.998C 71.3739 21.8418 71.6063 21.6348 71.8056 21.377L 72.4677 21.8926C 71.9364 22.709 71.1395 23.1172 70.077 23.1172ZM 69.9423 17.4336C 69.5048 17.4336 69.1376 17.5938 68.8407 17.9141C 68.5438 18.2305 68.3602 18.6758 68.2899 19.25L 71.4657 19.25L 71.4657 19.168C 71.4345 18.6172 71.286 18.1914 71.0204 17.8906C 70.7548 17.5859 70.3954 17.4336 69.9423 17.4336ZM 14.1141 36.2324C 14.5009 36.2324 14.8388 36.1152 15.1278 35.8809C 15.4169 35.6465 15.577 35.3535 15.6083 35.002L 16.6337 35.002C 16.6141 35.3652 16.4891 35.7109 16.2587 36.0391C 16.0282 36.3672 15.7196 36.6289 15.3329 36.8242C 14.9501 37.0195 14.5438 37.1172 14.1141 37.1172C 13.2509 37.1172 12.5634 36.8301 12.0516 36.2559C 11.5438 35.6777 11.2899 34.8887 11.2899 33.8887L 11.2899 33.707C 11.2899 33.0898 11.4032 32.541 11.6298 32.0605C 11.8563 31.5801 12.1806 31.207 12.6024 30.9414C 13.0282 30.6758 13.5302 30.543 14.1083 30.543C 14.8192 30.543 15.4091 30.7559 15.8778 31.1816C 16.3505 31.6074 16.6024 32.1602 16.6337 32.8398L 15.6083 32.8398C 15.577 32.4297 15.4208 32.0938 15.1395 31.832C 14.8622 31.5664 14.5184 31.4336 14.1083 31.4336C 13.5575 31.4336 13.1298 31.6328 12.8251 32.0312C 12.5243 32.4258 12.3739 32.998 12.3739 33.748L 12.3739 33.9531C 12.3739 34.6836 12.5243 35.2461 12.8251 35.6406C 13.1259 36.0352 13.5556 36.2324 14.1141 36.2324ZM 17.5653 33.7715C 17.5653 33.1504 17.6864 32.5918 17.9286 32.0957C 18.1747 31.5996 18.5145 31.2168 18.9481 30.9473C 19.3856 30.6777 19.8837 30.543 20.4423 30.543C 21.3056 30.543 22.0028 30.8418 22.5341 31.4395C 23.0692 32.0371 23.3368 32.832 23.3368 33.8242L 23.3368 33.9004C 23.3368 34.5176 23.2177 35.0723 22.9794 35.5645C 22.745 36.0527 22.4071 36.4336 21.9657 36.707C 21.5282 36.9805 21.0243 37.1172 20.454 37.1172C 19.5946 37.1172 18.8974 36.8184 18.3622 36.2207C 17.8309 35.623 17.5653 34.832 17.5653 33.8477L 17.5653 33.7715ZM 18.6552 33.9004C 18.6552 34.6035 18.8173 35.168 19.1415 35.5938C 19.4696 36.0195 19.9071 36.2324 20.454 36.2324C 21.0048 36.2324 21.4423 36.0176 21.7665 35.5879C 22.0907 35.1543 22.2528 34.5488 22.2528 33.7715C 22.2528 33.0762 22.0868 32.5137 21.7548 32.084C 21.4266 31.6504 20.9891 31.4336 20.4423 31.4336C 19.9071 31.4336 19.4755 31.6465 19.1474 32.0723C 18.8192 32.498 18.6552 33.1074 18.6552 33.9004ZM 25.8739 37L 24.7899 37L 24.7899 28L 25.8739 28L 25.8739 37ZM 31.5282 36.373C 31.1063 36.8691 30.4872 37.1172 29.6708 37.1172C 28.995 37.1172 28.4794 36.9219 28.1239 36.5312C 27.7724 36.1367 27.5946 35.5547 27.5907 34.7852L 27.5907 30.6602L 28.6747 30.6602L 28.6747 34.7559C 28.6747 35.7168 29.0653 36.1973 29.8466 36.1973C 30.6747 36.1973 31.2255 35.8887 31.4989 35.2715L 31.4989 30.6602L 32.5829 30.6602L 32.5829 37L 31.5516 37L 31.5282 36.373ZM 35.2548 30.6602L 35.2841 31.3633C 35.7489 30.8164 36.3759 30.543 37.1649 30.543C 38.0516 30.543 38.6552 30.8828 38.9755 31.5625C 39.1864 31.2578 39.4599 31.0117 39.7958 30.8242C 40.1356 30.6367 40.536 30.543 40.997 30.543C 42.3876 30.543 43.0946 31.2793 43.1181 32.752L 43.1181 37L 42.0341 37L 42.0341 32.8164C 42.0341 32.3633 41.9306 32.0254 41.7235 31.8027C 41.5165 31.5762 41.1688 31.4629 40.6806 31.4629C 40.2782 31.4629 39.9442 31.584 39.6786 31.8262C 39.413 32.0645 39.2587 32.3867 39.2157 32.793L 39.2157 37L 38.1259 37L 38.1259 32.8457C 38.1259 31.9238 37.6747 31.4629 36.7724 31.4629C 36.0614 31.4629 35.5751 31.7656 35.3134 32.3711L 35.3134 37L 34.2294 37L 34.2294 30.6602L 35.2548 30.6602ZM 45.7841 30.6602L 45.8192 31.457C 46.3036 30.8477 46.9364 30.543 47.7177 30.543C 49.0575 30.543 49.7333 31.2988 49.745 32.8105L 49.745 37L 48.661 37L 48.661 32.8047C 48.6571 32.3477 48.5516 32.0098 48.3446 31.791C 48.1415 31.5723 47.8231 31.4629 47.3895 31.4629C 47.038 31.4629 46.7294 31.5566 46.4638 31.7441C 46.1981 31.9316 45.9911 32.1777 45.8427 32.4824L 45.8427 37L 44.7587 37L 44.7587 30.6602L 45.7841 30.6602ZM 55.827 29.125L 55.827 30.6602L 57.0106 30.6602L 57.0106 31.498L 55.827 31.498L 55.827 35.4297C 55.827 35.6836 55.8798 35.875 55.9852 36.0039C 56.0907 36.1289 56.2704 36.1914 56.5243 36.1914C 56.6493 36.1914 56.8212 36.168 57.0399 36.1211L 57.0399 37C 56.7548 37.0781 56.4774 37.1172 56.2079 37.1172C 55.7235 37.1172 55.3583 36.9707 55.1122 36.6777C 54.8661 36.3848 54.7431 35.9688 54.7431 35.4297L 54.7431 31.498L 53.5888 31.498L 53.5888 30.6602L 54.7431 30.6602L 54.7431 29.125L 55.827 29.125ZM 57.8778 33.7715C 57.8778 33.1504 57.9989 32.5918 58.2411 32.0957C 58.4872 31.5996 58.827 31.2168 59.2606 30.9473C 59.6981 30.6777 60.1962 30.543 60.7548 30.543C 61.6181 30.543 62.3153 30.8418 62.8466 31.4395C 63.3817 32.0371 63.6493 32.832 63.6493 33.8242L 63.6493 33.9004C 63.6493 34.5176 63.5302 35.0723 63.2919 35.5645C 63.0575 36.0527 62.7196 36.4336 62.2782 36.707C 61.8407 36.9805 61.3368 37.1172 60.7665 37.1172C 59.9071 37.1172 59.2099 36.8184 58.6747 36.2207C 58.1434 35.623 57.8778 34.832 57.8778 33.8477L 57.8778 33.7715ZM 58.9677 33.9004C 58.9677 34.6035 59.1298 35.168 59.454 35.5938C 59.7821 36.0195 60.2196 36.2324 60.7665 36.2324C 61.3173 36.2324 61.7548 36.0176 62.079 35.5879C 62.4032 35.1543 62.5653 34.5488 62.5653 33.7715C 62.5653 33.0762 62.3993 32.5137 62.0673 32.084C 61.7391 31.6504 61.3016 31.4336 60.7548 31.4336C 60.2196 31.4336 59.788 31.6465 59.4599 32.0723C 59.1317 32.498 58.9677 33.1074 58.9677 33.9004ZM 71.8993 37C 71.8368 36.875 71.786 36.6523 71.747 36.332C 71.2431 36.8555 70.6415 37.1172 69.9423 37.1172C 69.3173 37.1172 68.8036 36.9414 68.4013 36.5898C 68.0028 36.2344 67.8036 35.7852 67.8036 35.2422C 67.8036 34.582 68.0536 34.0703 68.5536 33.707C 69.0575 33.3398 69.7645 33.1562 70.6747 33.1562L 71.7294 33.1562L 71.7294 32.6582C 71.7294 32.2793 71.6161 31.9785 71.3895 31.7559C 71.163 31.5293 70.829 31.416 70.3876 31.416C 70.0009 31.416 69.6767 31.5137 69.4149 31.709C 69.1532 31.9043 69.0224 32.1406 69.0224 32.418L 67.9325 32.418C 67.9325 32.1016 68.0438 31.7969 68.2665 31.5039C 68.4931 31.207 68.7977 30.9727 69.1806 30.8008C 69.5673 30.6289 69.9911 30.543 70.452 30.543C 71.1825 30.543 71.7548 30.7266 72.1688 31.0938C 72.5829 31.457 72.7977 31.959 72.8134 32.5996L 72.8134 35.5176C 72.8134 36.0996 72.8876 36.5625 73.036 36.9062L 73.036 37L 71.8993 37ZM 70.1005 36.1738C 70.4403 36.1738 70.7626 36.0859 71.0673 35.9102C 71.372 35.7344 71.5927 35.5059 71.7294 35.2246L 71.7294 33.9238L 70.8798 33.9238C 69.5517 33.9238 68.8876 34.3125 68.8876 35.0898C 68.8876 35.4297 69.0009 35.6953 69.2274 35.8867C 69.454 36.0781 69.745 36.1738 70.1005 36.1738ZM 6.13954 44.6602L 6.17469 45.457C 6.65907 44.8477 7.29188 44.543 8.07313 44.543C 9.41298 44.543 10.0888 45.2988 10.1005 46.8105L 10.1005 51L 9.01649 51L 9.01649 46.8047C 9.01258 46.3477 8.90712 46.0098 8.70008 45.791C 8.49696 45.5723 8.1786 45.4629 7.74501 45.4629C 7.39344 45.4629 7.08485 45.5566 6.81923 45.7441C 6.5536 45.9316 6.34657 46.1777 6.19813 46.4824L 6.19813 51L 5.11415 51L 5.11415 44.6602L 6.13954 44.6602ZM 15.6493 50.373C 15.2274 50.8691 14.6083 51.1172 13.7919 51.1172C 13.1161 51.1172 12.6005 50.9219 12.245 50.5312C 11.8934 50.1367 11.7157 49.5547 11.7118 48.7852L 11.7118 44.6602L 12.7958 44.6602L 12.7958 48.7559C 12.7958 49.7168 13.1864 50.1973 13.9677 50.1973C 14.7958 50.1973 15.3466 49.8887 15.62 49.2715L 15.62 44.6602L 16.704 44.6602L 16.704 51L 15.6727 51L 15.6493 50.373ZM 19.3759 44.6602L 19.4052 45.3633C 19.87 44.8164 20.497 44.543 21.286 44.543C 22.1727 44.543 22.7763 44.8828 23.0966 45.5625C 23.3075 45.2578 23.5809 45.0117 23.9169 44.8242C 24.2567 44.6367 24.6571 44.543 25.1181 44.543C 26.5087 44.543 27.2157 45.2793 27.2391 46.752L 27.2391 51L 26.1552 51L 26.1552 46.8164C 26.1552 46.3633 26.0516 46.0254 25.8446 45.8027C 25.6376 45.5762 25.2899 45.4629 24.8016 45.4629C 24.3993 45.4629 24.0653 45.584 23.7997 45.8262C 23.5341 46.0645 23.3798 46.3867 23.3368 46.793L 23.3368 51L 22.247 51L 22.247 46.8457C 22.247 45.9238 21.7958 45.4629 20.8934 45.4629C 20.1825 45.4629 19.6962 45.7656 19.4345 46.3711L 19.4345 51L 18.3505 51L 18.3505 44.6602L 19.3759 44.6602ZM 31.5106 51.1172C 30.6513 51.1172 29.952 50.8359 29.413 50.2734C 28.8739 49.707 28.6044 48.9512 28.6044 48.0059L 28.6044 47.8066C 28.6044 47.1777 28.7235 46.6172 28.9618 46.125C 29.204 45.6289 29.5399 45.2422 29.9696 44.9648C 30.4032 44.6836 30.872 44.543 31.3759 44.543C 32.2001 44.543 32.8407 44.8145 33.2977 45.3574C 33.7548 45.9004 33.9833 46.6777 33.9833 47.6895L 33.9833 48.1406L 29.6884 48.1406C 29.704 48.7656 29.8856 49.2715 30.2333 49.6582C 30.5849 50.041 31.0302 50.2324 31.5692 50.2324C 31.952 50.2324 32.2763 50.1543 32.5419 49.998C 32.8075 49.8418 33.0399 49.6348 33.2391 49.377L 33.9013 49.8926C 33.37 50.709 32.5731 51.1172 31.5106 51.1172ZM 31.3759 45.4336C 30.9384 45.4336 30.5712 45.5938 30.2743 45.9141C 29.9774 46.2305 29.7938 46.6758 29.7235 47.25L 32.8993 47.25L 32.8993 47.168C 32.8681 46.6172 32.7196 46.1914 32.454 45.8906C 32.1884 45.5859 31.829 45.4336 31.3759 45.4336ZM 38.3075 45.6328C 38.1434 45.6055 37.9657 45.5918 37.7743 45.5918C 37.0634 45.5918 36.5809 45.8945 36.327 46.5L 36.327 51L 35.2431 51L 35.2431 44.6602L 36.2977 44.6602L 36.3153 45.3926C 36.6708 44.8262 37.1747 44.543 37.827 44.543C 38.038 44.543 38.1981 44.5703 38.3075 44.625L 38.3075 45.6328ZM 40.4872 51L 39.4032 51L 39.4032 44.6602L 40.4872 44.6602L 40.4872 51ZM 39.3153 42.9785C 39.3153 42.8027 39.3681 42.6543 39.4735 42.5332C 39.5829 42.4121 39.7431 42.3516 39.954 42.3516C 40.1649 42.3516 40.3251 42.4121 40.4345 42.5332C 40.5438 42.6543 40.5985 42.8027 40.5985 42.9785C 40.5985 43.1543 40.5438 43.3008 40.4345 43.418C 40.3251 43.5352 40.1649 43.5938 39.954 43.5938C 39.7431 43.5938 39.5829 43.5352 39.4735 43.418C 39.3681 43.3008 39.3153 43.1543 39.3153 42.9785ZM 44.7704 50.2324C 45.1571 50.2324 45.495 50.1152 45.7841 49.8809C 46.0731 49.6465 46.2333 49.3535 46.2645 49.002L 47.2899 49.002C 47.2704 49.3652 47.1454 49.7109 46.9149 50.0391C 46.6845 50.3672 46.3759 50.6289 45.9891 50.8242C 45.6063 51.0195 45.2001 51.1172 44.7704 51.1172C 43.9071 51.1172 43.2196 50.8301 42.7079 50.2559C 42.2001 49.6777 41.9462 48.8887 41.9462 47.8887L 41.9462 47.707C 41.9462 47.0898 42.0595 46.541 42.286 46.0605C 42.5126 45.5801 42.8368 45.207 43.2587 44.9414C 43.6845 44.6758 44.1864 44.543 44.7645 44.543C 45.4755 44.543 46.0653 44.7559 46.5341 45.1816C 47.0067 45.6074 47.2587 46.1602 47.2899 46.8398L 46.2645 46.8398C 46.2333 46.4297 46.077 46.0938 45.7958 45.832C 45.5184 45.5664 45.1747 45.4336 44.7645 45.4336C 44.2138 45.4336 43.786 45.6328 43.4813 46.0312C 43.1806 46.4258 43.0302 46.998 43.0302 47.748L 43.0302 47.9531C 43.0302 48.6836 43.1806 49.2461 43.4813 49.6406C 43.7821 50.0352 44.2118 50.2324 44.7704 50.2324ZM 51.2216 47.7773C 51.2216 46.8047 51.452 46.0234 51.913 45.4336C 52.3739 44.8398 52.9774 44.543 53.7235 44.543C 54.4657 44.543 55.0536 44.7969 55.4872 45.3047L 55.4872 42L 56.5712 42L 56.5712 51L 55.5751 51L 55.5224 50.3203C 55.0888 50.8516 54.4852 51.1172 53.7118 51.1172C 52.9774 51.1172 52.3778 50.8164 51.913 50.2148C 51.452 49.6133 51.2216 48.8281 51.2216 47.8594L 51.2216 47.7773ZM 52.3056 47.9004C 52.3056 48.6191 52.454 49.1816 52.7509 49.5879C 53.0477 49.9941 53.4579 50.1973 53.9813 50.1973C 54.6688 50.1973 55.1708 49.8887 55.4872 49.2715L 55.4872 46.3594C 55.163 45.7617 54.6649 45.4629 53.9931 45.4629C 53.4618 45.4629 53.0477 45.668 52.7509 46.0781C 52.454 46.4883 52.3056 47.0957 52.3056 47.9004ZM 59.7294 43.125L 59.7294 44.6602L 60.913 44.6602L 60.913 45.498L 59.7294 45.498L 59.7294 49.4297C 59.7294 49.6836 59.7821 49.875 59.8876 50.0039C 59.9931 50.1289 60.1727 50.1914 60.4266 50.1914C 60.5516 50.1914 60.7235 50.168 60.9423 50.1211L 60.9423 51C 60.6571 51.0781 60.3798 51.1172 60.1102 51.1172C 59.6259 51.1172 59.2606 50.9707 59.0145 50.6777C 58.7684 50.3848 58.6454 49.9688 58.6454 49.4297L 58.6454 45.498L 57.4911 45.498L 57.4911 44.6602L 58.6454 44.6602L 58.6454 43.125L 59.7294 43.125ZM 64.2587 49.4121L 65.7352 44.6602L 66.8954 44.6602L 64.3466 51.9785C 63.952 53.0332 63.3251 53.5605 62.4657 53.5605L 62.2606 53.543L 61.8563 53.4668L 61.8563 52.5879L 62.1493 52.6113C 62.5165 52.6113 62.8016 52.5371 63.0048 52.3887C 63.2118 52.2402 63.3817 51.9688 63.5145 51.5742L 63.7548 50.9297L 61.4931 44.6602L 62.6766 44.6602L 64.2587 49.4121ZM 73.2235 47.9004C 73.2235 48.8652 73.0028 49.6426 72.5614 50.2324C 72.12 50.8223 71.5224 51.1172 70.7684 51.1172C 69.9989 51.1172 69.3934 50.873 68.952 50.3848L 68.952 53.4375L 67.8681 53.4375L 67.8681 44.6602L 68.8583 44.6602L 68.911 45.3633C 69.3524 44.8164 69.9657 44.543 70.7509 44.543C 71.5126 44.543 72.1142 44.8301 72.5556 45.4043C 73.0009 45.9785 73.2235 46.7773 73.2235 47.8008L 73.2235 47.9004ZM 72.1395 47.7773C 72.1395 47.0625 71.9872 46.498 71.6825 46.084C 71.3778 45.6699 70.9599 45.4629 70.4286 45.4629C 69.7724 45.4629 69.2802 45.7539 68.952 46.3359L 68.952 49.3652C 69.2763 49.9434 69.7724 50.2324 70.4403 50.2324C 70.9599 50.2324 71.372 50.0273 71.6767 49.6172C 71.9852 49.2031 72.1395 48.5898 72.1395 47.7773ZM 77.2372 51.1172C 76.3778 51.1172 75.6786 50.8359 75.1395 50.2734C 74.6005 49.707 74.3309 48.9512 74.3309 48.0059L 74.3309 47.8066C 74.3309 47.1777 74.4501 46.6172 74.6884 46.125C 74.9306 45.6289 75.2665 45.2422 75.6962 44.9648C 76.1298 44.6836 76.5985 44.543 77.1024 44.543C 77.9267 44.543 78.5673 44.8145 79.0243 45.3574C 79.4813 45.9004 79.7099 46.6777 79.7099 47.6895L 79.7099 48.1406L 75.4149 48.1406C 75.4306 48.7656 75.6122 49.2715 75.9599 49.6582C 76.3114 50.041 76.7567 50.2324 77.2958 50.2324C 77.6786 50.2324 78.0028 50.1543 78.2684 49.998C 78.5341 49.8418 78.7665 49.6348 78.9657 49.377L 79.6278 49.8926C 79.0966 50.709 78.2997 51.1172 77.2372 51.1172ZM 77.1024 45.4336C 76.6649 45.4336 76.2977 45.5938 76.0009 45.9141C 75.704 46.2305 75.5204 46.6758 75.4501 47.25L 78.6259 47.25L 78.6259 47.168C 78.5946 46.6172 78.4462 46.1914 78.1806 45.8906C 77.9149 45.5859 77.5556 45.4336 77.1024 45.4336Z" transform="translate(307.075 268.558) scale(2)" fill="#333333"/>
</g>
<g id="Rectangle_5">
<rect x="0.5" y="0.5" width="94.5176" height="72.814" transform="translate(40 260.372) scale(2)" stroke="black"/>
</g>
<g id="Rename column if required">
<path d="M 24.4442 19.5488L 22.4403 19.5488L 22.4403 23L 21.3095 23L 21.3095 14.4688L 24.1337 14.4688C 25.0946 14.4688 25.8329 14.6875 26.3485 15.125C 26.8681 15.5625 27.1278 16.1992 27.1278 17.0352C 27.1278 17.5664 26.9833 18.0293 26.6942 18.4238C 26.4091 18.8184 26.0106 19.1133 25.4989 19.3086L 27.5028 22.9297L 27.5028 23L 26.2958 23L 24.4442 19.5488ZM 22.4403 18.6289L 24.1688 18.6289C 24.7274 18.6289 25.1708 18.4844 25.4989 18.1953C 25.8309 17.9062 25.997 17.5195 25.997 17.0352C 25.997 16.5078 25.8388 16.1035 25.5224 15.8223C 25.2099 15.541 24.7567 15.3984 24.163 15.3945L 22.4403 15.3945L 22.4403 18.6289ZM 31.1708 23.1172C 30.3114 23.1172 29.6122 22.8359 29.0731 22.2734C 28.5341 21.707 28.2645 20.9512 28.2645 20.0059L 28.2645 19.8066C 28.2645 19.1777 28.3837 18.6172 28.622 18.125C 28.8641 17.6289 29.2001 17.2422 29.6298 16.9648C 30.0634 16.6836 30.5321 16.543 31.036 16.543C 31.8602 16.543 32.5009 16.8145 32.9579 17.3574C 33.4149 17.9004 33.6434 18.6777 33.6434 19.6895L 33.6434 20.1406L 29.3485 20.1406C 29.3641 20.7656 29.5458 21.2715 29.8934 21.6582C 30.245 22.041 30.6903 22.2324 31.2294 22.2324C 31.6122 22.2324 31.9364 22.1543 32.202 21.998C 32.4677 21.8418 32.7001 21.6348 32.8993 21.377L 33.5614 21.8926C 33.0302 22.709 32.2333 23.1172 31.1708 23.1172ZM 31.036 17.4336C 30.5985 17.4336 30.2313 17.5938 29.9345 17.9141C 29.6376 18.2305 29.454 18.6758 29.3837 19.25L 32.5595 19.25L 32.5595 19.168C 32.5282 18.6172 32.3798 18.1914 32.1141 17.8906C 31.8485 17.5859 31.4891 17.4336 31.036 17.4336ZM 35.9286 16.6602L 35.9638 17.457C 36.4481 16.8477 37.0809 16.543 37.8622 16.543C 39.202 16.543 39.8778 17.2988 39.8895 18.8105L 39.8895 23L 38.8056 23L 38.8056 18.8047C 38.8016 18.3477 38.6962 18.0098 38.4891 17.791C 38.286 17.5723 37.9677 17.4629 37.5341 17.4629C 37.1825 17.4629 36.8739 17.5566 36.6083 17.7441C 36.3427 17.9316 36.1356 18.1777 35.9872 18.4824L 35.9872 23L 34.9032 23L 34.9032 16.6602L 35.9286 16.6602ZM 45.4384 23C 45.3759 22.875 45.3251 22.6523 45.286 22.332C 44.7821 22.8555 44.1806 23.1172 43.4813 23.1172C 42.8563 23.1172 42.3427 22.9414 41.9403 22.5898C 41.5419 22.2344 41.3427 21.7852 41.3427 21.2422C 41.3427 20.582 41.5927 20.0703 42.0927 19.707C 42.5966 19.3398 43.3036 19.1562 44.2138 19.1562L 45.2684 19.1562L 45.2684 18.6582C 45.2684 18.2793 45.1552 17.9785 44.9286 17.7559C 44.702 17.5293 44.3681 17.416 43.9266 17.416C 43.5399 17.416 43.2157 17.5137 42.954 17.709C 42.6923 17.9043 42.5614 18.1406 42.5614 18.418L 41.4716 18.418C 41.4716 18.1016 41.5829 17.7969 41.8056 17.5039C 42.0321 17.207 42.3368 16.9727 42.7196 16.8008C 43.1063 16.6289 43.5302 16.543 43.9911 16.543C 44.7216 16.543 45.2938 16.7266 45.7079 17.0938C 46.122 17.457 46.3368 17.959 46.3524 18.5996L 46.3524 21.5176C 46.3524 22.0996 46.4266 22.5625 46.5751 22.9062L 46.5751 23L 45.4384 23ZM 43.6395 22.1738C 43.9794 22.1738 44.3016 22.0859 44.6063 21.9102C 44.911 21.7344 45.1317 21.5059 45.2684 21.2246L 45.2684 19.9238L 44.4188 19.9238C 43.0907 19.9238 42.4266 20.3125 42.4266 21.0898C 42.4266 21.4297 42.5399 21.6953 42.7665 21.8867C 42.9931 22.0781 43.2841 22.1738 43.6395 22.1738ZM 49.0712 16.6602L 49.1005 17.3633C 49.5653 16.8164 50.1923 16.543 50.9813 16.543C 51.8681 16.543 52.4716 16.8828 52.7919 17.5625C 53.0028 17.2578 53.2763 17.0117 53.6122 16.8242C 53.952 16.6367 54.3524 16.543 54.8134 16.543C 56.204 16.543 56.911 17.2793 56.9345 18.752L 56.9345 23L 55.8505 23L 55.8505 18.8164C 55.8505 18.3633 55.747 18.0254 55.5399 17.8027C 55.3329 17.5762 54.9852 17.4629 54.497 17.4629C 54.0946 17.4629 53.7606 17.584 53.495 17.8262C 53.2294 18.0645 53.0751 18.3867 53.0321 18.793L 53.0321 23L 51.9423 23L 51.9423 18.8457C 51.9423 17.9238 51.4911 17.4629 50.5888 17.4629C 49.8778 17.4629 49.3915 17.7656 49.1298 18.3711L 49.1298 23L 48.0458 23L 48.0458 16.6602L 49.0712 16.6602ZM 61.2059 23.1172C 60.3466 23.1172 59.6474 22.8359 59.1083 22.2734C 58.5692 21.707 58.2997 20.9512 58.2997 20.0059L 58.2997 19.8066C 58.2997 19.1777 58.4188 18.6172 58.6571 18.125C 58.8993 17.6289 59.2352 17.2422 59.6649 16.9648C 60.0985 16.6836 60.5673 16.543 61.0712 16.543C 61.8954 16.543 62.536 16.8145 62.9931 17.3574C 63.4501 17.9004 63.6786 18.6777 63.6786 19.6895L 63.6786 20.1406L 59.3837 20.1406C 59.3993 20.7656 59.5809 21.2715 59.9286 21.6582C 60.2802 22.041 60.7255 22.2324 61.2645 22.2324C 61.6474 22.2324 61.9716 22.1543 62.2372 21.998C 62.5028 21.8418 62.7352 21.6348 62.9345 21.377L 63.5966 21.8926C 63.0653 22.709 62.2684 23.1172 61.2059 23.1172ZM 61.0712 17.4336C 60.6337 17.4336 60.2665 17.5938 59.9696 17.9141C 59.6727 18.2305 59.4891 18.6758 59.4188 19.25L 62.5946 19.25L 62.5946 19.168C 62.5634 18.6172 62.4149 18.1914 62.1493 17.8906C 61.8837 17.5859 61.5243 17.4336 61.0712 17.4336ZM 20.6474 36.2324C 21.0341 36.2324 21.372 36.1152 21.661 35.8809C 21.9501 35.6465 22.1102 35.3535 22.1415 35.002L 23.1669 35.002C 23.1474 35.3652 23.0224 35.7109 22.7919 36.0391C 22.5614 36.3672 22.2528 36.6289 21.8661 36.8242C 21.4833 37.0195 21.077 37.1172 20.6474 37.1172C 19.7841 37.1172 19.0966 36.8301 18.5849 36.2559C 18.077 35.6777 17.8231 34.8887 17.8231 33.8887L 17.8231 33.707C 17.8231 33.0898 17.9364 32.541 18.163 32.0605C 18.3895 31.5801 18.7138 31.207 19.1356 30.9414C 19.5614 30.6758 20.0634 30.543 20.6415 30.543C 21.3524 30.543 21.9423 30.7559 22.411 31.1816C 22.8837 31.6074 23.1356 32.1602 23.1669 32.8398L 22.1415 32.8398C 22.1102 32.4297 21.954 32.0938 21.6727 31.832C 21.3954 31.5664 21.0516 31.4336 20.6415 31.4336C 20.0907 31.4336 19.663 31.6328 19.3583 32.0312C 19.0575 32.4258 18.9071 32.998 18.9071 33.748L 18.9071 33.9531C 18.9071 34.6836 19.0575 35.2461 19.3583 35.6406C 19.6591 36.0352 20.0888 36.2324 20.6474 36.2324ZM 24.0985 33.7715C 24.0985 33.1504 24.2196 32.5918 24.4618 32.0957C 24.7079 31.5996 25.0477 31.2168 25.4813 30.9473C 25.9188 30.6777 26.4169 30.543 26.9755 30.543C 27.8388 30.543 28.536 30.8418 29.0673 31.4395C 29.6024 32.0371 29.87 32.832 29.87 33.8242L 29.87 33.9004C 29.87 34.5176 29.7509 35.0723 29.5126 35.5645C 29.2782 36.0527 28.9403 36.4336 28.4989 36.707C 28.0614 36.9805 27.5575 37.1172 26.9872 37.1172C 26.1278 37.1172 25.4306 36.8184 24.8954 36.2207C 24.3641 35.623 24.0985 34.832 24.0985 33.8477L 24.0985 33.7715ZM 25.1884 33.9004C 25.1884 34.6035 25.3505 35.168 25.6747 35.5938C 26.0028 36.0195 26.4403 36.2324 26.9872 36.2324C 27.538 36.2324 27.9755 36.0176 28.2997 35.5879C 28.6239 35.1543 28.786 34.5488 28.786 33.7715C 28.786 33.0762 28.62 32.5137 28.288 32.084C 27.9599 31.6504 27.5224 31.4336 26.9755 31.4336C 26.4403 31.4336 26.0087 31.6465 25.6806 32.0723C 25.3524 32.498 25.1884 33.1074 25.1884 33.9004ZM 32.4071 37L 31.3231 37L 31.3231 28L 32.4071 28L 32.4071 37ZM 38.0614 36.373C 37.6395 36.8691 37.0204 37.1172 36.204 37.1172C 35.5282 37.1172 35.0126 36.9219 34.6571 36.5312C 34.3056 36.1367 34.1278 35.5547 34.1239 34.7852L 34.1239 30.6602L 35.2079 30.6602L 35.2079 34.7559C 35.2079 35.7168 35.5985 36.1973 36.3798 36.1973C 37.2079 36.1973 37.7587 35.8887 38.0321 35.2715L 38.0321 30.6602L 39.1161 30.6602L 39.1161 37L 38.0849 37L 38.0614 36.373ZM 41.788 30.6602L 41.8173 31.3633C 42.2821 30.8164 42.9091 30.543 43.6981 30.543C 44.5849 30.543 45.1884 30.8828 45.5087 31.5625C 45.7196 31.2578 45.9931 31.0117 46.329 30.8242C 46.6688 30.6367 47.0692 30.543 47.5302 30.543C 48.9208 30.543 49.6278 31.2793 49.6513 32.752L 49.6513 37L 48.5673 37L 48.5673 32.8164C 48.5673 32.3633 48.4638 32.0254 48.2567 31.8027C 48.0497 31.5762 47.702 31.4629 47.2138 31.4629C 46.8114 31.4629 46.4774 31.584 46.2118 31.8262C 45.9462 32.0645 45.7919 32.3867 45.7489 32.793L 45.7489 37L 44.6591 37L 44.6591 32.8457C 44.6591 31.9238 44.2079 31.4629 43.3056 31.4629C 42.5946 31.4629 42.1083 31.7656 41.8466 32.3711L 41.8466 37L 40.7626 37L 40.7626 30.6602L 41.788 30.6602ZM 52.3173 30.6602L 52.3524 31.457C 52.8368 30.8477 53.4696 30.543 54.2509 30.543C 55.5907 30.543 56.2665 31.2988 56.2782 32.8105L 56.2782 37L 55.1942 37L 55.1942 32.8047C 55.1903 32.3477 55.0849 32.0098 54.8778 31.791C 54.6747 31.5723 54.3563 31.4629 53.9227 31.4629C 53.5712 31.4629 53.2626 31.5566 52.997 31.7441C 52.7313 31.9316 52.5243 32.1777 52.3759 32.4824L 52.3759 37L 51.2919 37L 51.2919 30.6602L 52.3173 30.6602ZM 62.0673 37L 60.9833 37L 60.9833 30.6602L 62.0673 30.6602L 62.0673 37ZM 60.8954 28.9785C 60.8954 28.8027 60.9481 28.6543 61.0536 28.5332C 61.163 28.4121 61.3231 28.3516 61.5341 28.3516C 61.745 28.3516 61.9052 28.4121 62.0145 28.5332C 62.1239 28.6543 62.1786 28.8027 62.1786 28.9785C 62.1786 29.1543 62.1239 29.3008 62.0145 29.418C 61.9052 29.5352 61.745 29.5938 61.5341 29.5938C 61.3231 29.5938 61.163 29.5352 61.0536 29.418C 60.9481 29.3008 60.8954 29.1543 60.8954 28.9785ZM 64.3407 37L 64.3407 31.498L 63.3388 31.498L 63.3388 30.6602L 64.3407 30.6602L 64.3407 30.0098C 64.3407 29.3301 64.5224 28.8047 64.8856 28.4336C 65.2489 28.0625 65.7626 27.877 66.4266 27.877C 66.6766 27.877 66.9247 27.9102 67.1708 27.9766L 67.1122 28.8555C 66.9286 28.8203 66.7333 28.8027 66.5263 28.8027C 66.1747 28.8027 65.9032 28.9062 65.7118 29.1133C 65.5204 29.3164 65.4247 29.6094 65.4247 29.9922L 65.4247 30.6602L 66.7782 30.6602L 66.7782 31.498L 65.4247 31.498L 65.4247 37L 64.3407 37ZM 24.2274 45.6328C 24.0634 45.6055 23.8856 45.5918 23.6942 45.5918C 22.9833 45.5918 22.5009 45.8945 22.247 46.5L 22.247 51L 21.163 51L 21.163 44.6602L 22.2177 44.6602L 22.2352 45.3926C 22.5907 44.8262 23.0946 44.543 23.747 44.543C 23.9579 44.543 24.1181 44.5703 24.2274 44.625L 24.2274 45.6328ZM 27.7431 51.1172C 26.8837 51.1172 26.1845 50.8359 25.6454 50.2734C 25.1063 49.707 24.8368 48.9512 24.8368 48.0059L 24.8368 47.8066C 24.8368 47.1777 24.9559 46.6172 25.1942 46.125C 25.4364 45.6289 25.7724 45.2422 26.202 44.9648C 26.6356 44.6836 27.1044 44.543 27.6083 44.543C 28.4325 44.543 29.0731 44.8145 29.5302 45.3574C 29.9872 45.9004 30.2157 46.6777 30.2157 47.6895L 30.2157 48.1406L 25.9208 48.1406C 25.9364 48.7656 26.1181 49.2715 26.4657 49.6582C 26.8173 50.041 27.2626 50.2324 27.8016 50.2324C 28.1845 50.2324 28.5087 50.1543 28.7743 49.998C 29.0399 49.8418 29.2724 49.6348 29.4716 49.377L 30.1337 49.8926C 29.6024 50.709 28.8056 51.1172 27.7431 51.1172ZM 27.6083 45.4336C 27.1708 45.4336 26.8036 45.5938 26.5067 45.9141C 26.2099 46.2305 26.0263 46.6758 25.9559 47.25L 29.1317 47.25L 29.1317 47.168C 29.1005 46.6172 28.952 46.1914 28.6864 45.8906C 28.4208 45.5859 28.0614 45.4336 27.6083 45.4336ZM 31.2118 47.7773C 31.2118 46.7812 31.4403 45.9941 31.8974 45.416C 32.3544 44.834 32.9677 44.543 33.7372 44.543C 34.4872 44.543 35.079 44.7949 35.5126 45.2988L 35.5595 44.6602L 36.5556 44.6602L 36.5556 53.4375L 35.4716 53.4375L 35.4716 50.4141C 35.0341 50.8828 34.452 51.1172 33.7255 51.1172C 32.9599 51.1172 32.3485 50.8203 31.8915 50.2266C 31.4384 49.6289 31.2118 48.8379 31.2118 47.8535L 31.2118 47.7773ZM 32.2958 47.9004C 32.2958 48.627 32.4481 49.1973 32.7528 49.6113C 33.0614 50.0254 33.4755 50.2324 33.995 50.2324C 34.6395 50.2324 35.1317 49.9473 35.4716 49.377L 35.4716 46.2715C 35.1278 45.7129 34.6395 45.4336 34.0067 45.4336C 33.4833 45.4336 33.0673 45.6426 32.7587 46.0605C 32.4501 46.4746 32.2958 47.0879 32.2958 47.9004ZM 42.2099 50.373C 41.788 50.8691 41.1688 51.1172 40.3524 51.1172C 39.6766 51.1172 39.161 50.9219 38.8056 50.5312C 38.454 50.1367 38.2763 49.5547 38.2724 48.7852L 38.2724 44.6602L 39.3563 44.6602L 39.3563 48.7559C 39.3563 49.7168 39.747 50.1973 40.5282 50.1973C 41.3563 50.1973 41.9071 49.8887 42.1806 49.2715L 42.1806 44.6602L 43.2645 44.6602L 43.2645 51L 42.2333 51L 42.2099 50.373ZM 46.0946 51L 45.0106 51L 45.0106 44.6602L 46.0946 44.6602L 46.0946 51ZM 44.9227 42.9785C 44.9227 42.8027 44.9755 42.6543 45.0809 42.5332C 45.1903 42.4121 45.3505 42.3516 45.5614 42.3516C 45.7724 42.3516 45.9325 42.4121 46.0419 42.5332C 46.1513 42.6543 46.2059 42.8027 46.2059 42.9785C 46.2059 43.1543 46.1513 43.3008 46.0419 43.418C 45.9325 43.5352 45.7724 43.5938 45.5614 43.5938C 45.3505 43.5938 45.1903 43.5352 45.0809 43.418C 44.9755 43.3008 44.9227 43.1543 44.9227 42.9785ZM 50.8993 45.6328C 50.7352 45.6055 50.5575 45.5918 50.3661 45.5918C 49.6552 45.5918 49.1727 45.8945 48.9188 46.5L 48.9188 51L 47.8349 51L 47.8349 44.6602L 48.8895 44.6602L 48.9071 45.3926C 49.2626 44.8262 49.7665 44.543 50.4188 44.543C 50.6298 44.543 50.7899 44.5703 50.8993 44.625L 50.8993 45.6328ZM 54.4149 51.1172C 53.5556 51.1172 52.8563 50.8359 52.3173 50.2734C 51.7782 49.707 51.5087 48.9512 51.5087 48.0059L 51.5087 47.8066C 51.5087 47.1777 51.6278 46.6172 51.8661 46.125C 52.1083 45.6289 52.4442 45.2422 52.8739 44.9648C 53.3075 44.6836 53.7763 44.543 54.2802 44.543C 55.1044 44.543 55.745 44.8145 56.202 45.3574C 56.6591 45.9004 56.8876 46.6777 56.8876 47.6895L 56.8876 48.1406L 52.5927 48.1406C 52.6083 48.7656 52.7899 49.2715 53.1376 49.6582C 53.4891 50.041 53.9345 50.2324 54.4735 50.2324C 54.8563 50.2324 55.1806 50.1543 55.4462 49.998C 55.7118 49.8418 55.9442 49.6348 56.1434 49.377L 56.8056 49.8926C 56.2743 50.709 55.4774 51.1172 54.4149 51.1172ZM 54.2802 45.4336C 53.8427 45.4336 53.4755 45.5938 53.1786 45.9141C 52.8817 46.2305 52.6981 46.6758 52.6278 47.25L 55.8036 47.25L 55.8036 47.168C 55.7724 46.6172 55.6239 46.1914 55.3583 45.8906C 55.0927 45.5859 54.7333 45.4336 54.2802 45.4336ZM 57.8837 47.7773C 57.8837 46.8047 58.1141 46.0234 58.5751 45.4336C 59.036 44.8398 59.6395 44.543 60.3856 44.543C 61.1278 44.543 61.7157 44.7969 62.1493 45.3047L 62.1493 42L 63.2333 42L 63.2333 51L 62.2372 51L 62.1845 50.3203C 61.7509 50.8516 61.1474 51.1172 60.3739 51.1172C 59.6395 51.1172 59.0399 50.8164 58.5751 50.2148C 58.1141 49.6133 57.8837 48.8281 57.8837 47.8594L 57.8837 47.7773ZM 58.9677 47.9004C 58.9677 48.6191 59.1161 49.1816 59.413 49.5879C 59.7099 49.9941 60.12 50.1973 60.6434 50.1973C 61.3309 50.1973 61.8329 49.8887 62.1493 49.2715L 62.1493 46.3594C 61.8251 45.7617 61.327 45.4629 60.6552 45.4629C 60.1239 45.4629 59.7099 45.668 59.413 46.0781C 59.1161 46.4883 58.9677 47.0957 58.9677 47.9004Z" transform="translate(51.0745 268.93) scale(2)" fill="#333333"/>
</g>
<g id="Arrow">
<path d="M 27.7071 0.707107C 28.0976 0.316582 28.0976 -0.316582 27.7071 -0.707107L 21.3431 -7.07107C 20.9526 -7.46159 20.3195 -7.46159 19.9289 -7.07107C 19.5384 -6.68054 19.5384 -6.04738 19.9289 -5.65685L 25.5858 0L 19.9289 5.65685C 19.5384 6.04738 19.5384 6.68054 19.9289 7.07107C 20.3195 7.46159 20.9526 7.46159 21.3431 7.07107L 27.7071 0.707107ZM 0 1L 27 1L 27 -1L 0 -1L 0 1Z" transform="translate(238 120) scale(2)" fill="#2D9CDB"/>
</g>
<g id="Arrow_2">
<path d="M 27.7071 0.707107C 28.0976 0.316582 28.0976 -0.316582 27.7071 -0.707107L 21.3431 -7.07107C 20.9526 -7.46159 20.3195 -7.46159 19.9289 -7.07107C 19.5384 -6.68054 19.5384 -6.04738 19.9289 -5.65685L 25.5858 0L 19.9289 5.65685C 19.5384 6.04738 19.5384 6.68054 19.9289 7.07107C 20.3195 7.46159 20.9526 7.46159 21.3431 7.07107L 27.7071 0.707107ZM 0 1L 27 1L 27 -1L 0 -1L 0 1Z" transform="translate(494 120) scale(2)" fill="#2D9CDB"/>
</g>
<g id="Arrow_3">
<path d="M 27.7071 0.707107C 28.0976 0.316582 28.0976 -0.316582 27.7071 -0.707107L 21.3431 -7.07107C 20.9526 -7.46159 20.3195 -7.46159 19.9289 -7.07107C 19.5384 -6.68054 19.5384 -6.04738 19.9289 -5.65685L 25.5858 0L 19.9289 5.65685C 19.5384 6.04738 19.5384 6.68054 19.9289 7.07107C 20.3195 7.46159 20.9526 7.46159 21.3431 7.07107L 27.7071 0.707107ZM 0 1L 27 1L 27 -1L 0 -1L 0 1Z" transform="translate(292 334) scale(-2 2)" fill="#2D9CDB"/>
</g>
<g id="Arrow_4">
<path d="M 80.7071 0.707107C 81.0976 0.316582 81.0976 -0.316582 80.7071 -0.707107L 74.3431 -7.07107C 73.9526 -7.46159 73.3195 -7.46159 72.9289 -7.07107C 72.5384 -6.68054 72.5384 -6.04738 72.9289 -5.65685L 78.5858 0L 72.9289 5.65685C 72.5384 6.04738 72.5384 6.68054 72.9289 7.07107C 73.3195 7.46159 73.9526 7.46159 74.3431 7.07107L 80.7071 0.707107ZM 0 1L 80 1L 80 -1L 0 -1L 0 1Z" transform="translate(654 334) scale(-2)" fill="#2D9CDB"/>
</g>
<g id="Line">
<line y1="-1" x2="67" y2="-1" stroke-width="2" transform="matrix(0 -2 2 0 654 334)" stroke="#2D9CDB"/>
</g>
</g>
</g>
<defs>

<clipPath id="clip0">
<rect width="400" height="236" fill="white" transform="scale(2)"/>
</clipPath>

</defs>
</svg>

