<svg width="1090" height="1172" viewBox="0 0 1090 1172" version="1.1" xmlns="http://www.w3.org/2000/svg" xmlns:xlink="http://www.w3.org/1999/xlink" xmlns:figma="http://www.figma.com/figma/ns">
<title>three_threads</title>
<desc>Created using Figma</desc>
<g id="Canvas" transform="translate(1055 193)" figma:type="canvas">
<g id="Rectangle" style="mix-blend-mode:normal;" figma:type="rounded-rectangle">
<use xlink:href="#path0_fill" transform="translate(-1055 -122.5)" fill="#EB5757" style="mix-blend-mode:normal;"/>
</g>
<g id="print(team)" style="mix-blend-mode:normal;" figma:type="text">
<use xlink:href="#path1_fill" transform="translate(-1014.5 -81.5)" fill="#F2F2F2" style="mix-blend-mode:normal;"/>
</g>
<g id="Rectangle" style="mix-blend-mode:normal;" figma:type="rounded-rectangle">
<use xlink:href="#path0_fill" transform="translate(-687 -122)" fill="#EB5757" style="mix-blend-mode:normal;"/>
</g>
<g id="t1 = Threading.Thread(...)" style="mix-blend-mode:normal;" figma:type="text">
<use xlink:href="#path2_fill" transform="translate(-646.5 -81)" style="mix-blend-mode:normal;"/>
</g>
<g id="Rectangle" style="mix-blend-mode:normal;" figma:type="rounded-rectangle">
<use xlink:href="#path0_fill" transform="translate(-687 144)" fill="#2D9CDB" style="mix-blend-mode:normal;"/>
</g>
<g id="t1 = Threading.Thread(...)" style="mix-blend-mode:normal;" figma:type="text">
<use xlink:href="#path2_fill" transform="translate(-646.5 -81)" fill="#F2F2F2" style="mix-blend-mode:normal;"/>
</g>
<g id="t2 = Threading.Thread(...)" style="mix-blend-mode:normal;" figma:type="text">
<use xlink:href="#path3_fill" transform="translate(-646.5 185)" fill="#F2F2F2" style="mix-blend-mode:normal;"/>
</g>
<g id="Rectangle" style="mix-blend-mode:normal;" figma:type="rounded-rectangle">
<use xlink:href="#path0_fill" transform="translate(-687 410.5)" fill="#EB5757" style="mix-blend-mode:normal;"/>
</g>
<g id="t1.start()" style="mix-blend-mode:normal;" figma:type="text">
<use xlink:href="#path4_fill" transform="translate(-606 458)" fill="#F2F2F2" style="mix-blend-mode:normal;"/>
</g>
<g id="Rectangle" style="mix-blend-mode:normal;" figma:type="rounded-rectangle">
<use xlink:href="#path0_fill" transform="translate(-687 676.75)" fill="#2D9CDB" style="mix-blend-mode:normal;"/>
</g>
<g id="t2.start()" style="mix-blend-mode:normal;" figma:type="text">
<use xlink:href="#path5_fill" transform="translate(-606 724.25)" fill="#F2F2F2" style="mix-blend-mode:normal;"/>
</g>
<g id="Arrow 2" style="mix-blend-mode:normal;" figma:type="vector">
<use xlink:href="#path6_stroke" transform="matrix(6.12323e-17 1 -1 6.12323e-17 -557 855)" style="mix-blend-mode:normal;"/>
</g>
<g id="&#226;&#128;&#156;Main&#226;&#128;&#157; Thread" style="mix-blend-mode:normal;" figma:type="text">
<use xlink:href="#path7_fill" transform="translate(-611 -196.5)" style="mix-blend-mode:normal;"/>
</g>
<g id="Arrow" style="mix-blend-mode:normal;" figma:type="vector">
<use xlink:href="#path6_stroke" transform="matrix(6.18888e-17 1 -1 5.89806e-17 -910 45.5)" style="mix-blend-mode:normal;"/>
</g>
<g id="Arrow" style="mix-blend-mode:normal;" figma:type="vector">
<use xlink:href="#path6_stroke" transform="matrix(6.18888e-17 1 -1 5.89806e-17 -557 56)" style="mix-blend-mode:normal;"/>
</g>
<g id="Arrow" style="mix-blend-mode:normal;" figma:type="vector">
<use xlink:href="#path6_stroke" transform="matrix(6.18888e-17 1 -1 5.89806e-17 -557 321.5)" style="mix-blend-mode:normal;"/>
</g>
<g id="Arrow" style="mix-blend-mode:normal;" figma:type="vector">
<use xlink:href="#path6_stroke" transform="matrix(6.18888e-17 1 -1 5.89806e-17 -549 588.25)" style="mix-blend-mode:normal;"/>
</g>
<g id="Done" style="mix-blend-mode:normal;" figma:type="text">
<use xlink:href="#path8_fill" transform="translate(-585 956)" style="mix-blend-mode:normal;"/>
</g>
<g id="ATL Thread" style="mix-blend-mode:normal;" figma:type="text">
<use xlink:href="#path9_fill" transform="translate(-971 -196.5)" fill="#EB5757" style="mix-blend-mode:normal;"/>
</g>
<g id="BOS Thread" style="mix-blend-mode:normal;" figma:type="text">
<use xlink:href="#path10_fill" transform="translate(-183.5 -196.5)" fill="#2D9CDB" style="mix-blend-mode:normal;"/>
</g>
<g id="Line" style="mix-blend-mode:normal;" figma:type="line">
<use xlink:href="#path11_stroke" transform="matrix(-1 1.22465e-16 -1.22465e-16 -1 -704 -67)" style="mix-blend-mode:normal;"/>
</g>
<g id="Line 2" style="mix-blend-mode:normal;" figma:type="line">
<use xlink:href="#path12_stroke" transform="matrix(-4.03254e-10 -1 1 -4.03254e-10 -730 -67)" style="mix-blend-mode:normal;"/>
</g>
<g id="Arrow 3" style="mix-blend-mode:normal;" figma:type="vector">
<use xlink:href="#path13_stroke" transform="matrix(-0.999879 0.0155299 -0.0155299 -0.999879 -730 -169.017)" style="mix-blend-mode:normal;"/>
</g>
<g id="Line 3" style="mix-blend-mode:normal;" figma:type="line">
<use xlink:href="#path14_stroke" transform="translate(-361 211)" style="mix-blend-mode:normal;"/>
</g>
<g id="Line 4" style="mix-blend-mode:normal;" figma:type="line">
<use xlink:href="#path15_stroke" transform="matrix(6.12323e-17 -1 1 6.12323e-17 -301 211)" style="mix-blend-mode:normal;"/>
</g>
<g id="Arrow 4" style="mix-blend-mode:normal;" figma:type="vector">
<use xlink:href="#path16_stroke" transform="matrix(0.999961 -0.00884921 -0.00884921 -0.999961 -301 -168)" style="mix-blend-mode:normal;"/>
</g>
<g id="Done" style="mix-blend-mode:normal;" figma:type="text">
<use xlink:href="#path8_fill" transform="translate(-938 141.5)" style="mix-blend-mode:normal;"/>
</g>
<g id="Rectangle" style="mix-blend-mode:normal;" figma:type="rounded-rectangle">
<use xlink:href="#path0_fill" transform="translate(-265.5 -122.5)" fill="#2D9CDB" style="mix-blend-mode:normal;"/>
</g>
<g id="print(team)" style="mix-blend-mode:normal;" figma:type="text">
<use xlink:href="#path1_fill" transform="translate(-225 -81.5)" fill="#F2F2F2" style="mix-blend-mode:normal;"/>
</g>
<g id="Arrow" style="mix-blend-mode:normal;" figma:type="vector">
<use xlink:href="#path6_stroke" transform="matrix(6.18888e-17 1 -1 5.89806e-17 -120.5 45.5)" style="mix-blend-mode:normal;"/>
</g>
<g id="Done" style="mix-blend-mode:normal;" figma:type="text">
<use xlink:href="#path8_fill" transform="translate(-148.5 141.5)" style="mix-blend-mode:normal;"/>
</g>
<g id="Line 5" style="mix-blend-mode:normal;" figma:type="line">
<use xlink:href="#path11_stroke" transform="matrix(-1 1.22465e-16 -1.22465e-16 -1 -704 486)" style="mix-blend-mode:normal;"/>
</g>
<g id="Line 6" style="mix-blend-mode:normal;" figma:type="line">
<use xlink:href="#path17_stroke" transform="matrix(-7.32856e-11 -1 1 -7.32856e-11 -730 486)" style="mix-blend-mode:normal;"/>
</g>
<g id="Line 7" style="mix-blend-mode:normal;" figma:type="line">
<use xlink:href="#path18_stroke" transform="translate(-370 752)" style="mix-blend-mode:normal;"/>
</g>
<g id="Line 8" style="mix-blend-mode:normal;" figma:type="line">
<use xlink:href="#path19_stroke" transform="matrix(6.12323e-17 -1 1 6.12323e-17 -301 752)" style="mix-blend-mode:normal;"/>
</g>
</g>
<defs>
<path id="path0_fill" d="M 0 0L 300 0L 300 150L 0 150L 0 0Z"/>
<path id="path1_fill" d="M 12.3516 15.8008C 12.3516 17.7305 11.9102 19.2852 11.0273 20.4648C 10.1445 21.6445 8.94922 22.2344 7.44141 22.2344C 5.90234 22.2344 4.69141 21.7461 3.80859 20.7695L 3.80859 26.875L 1.64062 26.875L 1.64062 9.32031L 3.62109 9.32031L 3.72656 10.7266C 4.60938 9.63281 5.83594 9.08594 7.40625 9.08594C 8.92969 9.08594 10.1328 9.66016 11.0156 10.8086C 11.9062 11.957 12.3516 13.5547 12.3516 15.6016L 12.3516 15.8008ZM 10.1836 15.5547C 10.1836 14.125 9.87891 12.9961 9.26953 12.168C 8.66016 11.3398 7.82422 10.9258 6.76172 10.9258C 5.44922 10.9258 4.46484 11.5078 3.80859 12.6719L 3.80859 18.7305C 4.45703 19.8867 5.44922 20.4648 6.78516 20.4648C 7.82422 20.4648 8.64844 20.0547 9.25781 19.2344C 9.875 18.4062 10.1836 17.1797 10.1836 15.5547ZM 21.2461 11.2656C 20.918 11.2109 20.5625 11.1836 20.1797 11.1836C 18.7578 11.1836 17.793 11.7891 17.2852 13L 17.2852 22L 15.1172 22L 15.1172 9.32031L 17.2266 9.32031L 17.2617 10.7852C 17.9727 9.65234 18.9805 9.08594 20.2852 9.08594C 20.707 9.08594 21.0273 9.14062 21.2461 9.25L 21.2461 11.2656ZM 25.6055 22L 23.4375 22L 23.4375 9.32031L 25.6055 9.32031L 25.6055 22ZM 23.2617 5.95703C 23.2617 5.60547 23.3672 5.30859 23.5781 5.06641C 23.7969 4.82422 24.1172 4.70312 24.5391 4.70312C 24.9609 4.70312 25.2812 4.82422 25.5 5.06641C 25.7188 5.30859 25.8281 5.60547 25.8281 5.95703C 25.8281 6.30859 25.7188 6.60156 25.5 6.83594C 25.2812 7.07031 24.9609 7.1875 24.5391 7.1875C 24.1172 7.1875 23.7969 7.07031 23.5781 6.83594C 23.3672 6.60156 23.2617 6.30859 23.2617 5.95703ZM 31.1367 9.32031L 31.207 10.9141C 32.1758 9.69531 33.4414 9.08594 35.0039 9.08594C 37.6836 9.08594 39.0352 10.5977 39.0586 13.6211L 39.0586 22L 36.8906 22L 36.8906 13.6094C 36.8828 12.6953 36.6719 12.0195 36.2578 11.582C 35.8516 11.1445 35.2148 10.9258 34.3477 10.9258C 33.6445 10.9258 33.0273 11.1133 32.4961 11.4883C 31.9648 11.8633 31.5508 12.3555 31.2539 12.9648L 31.2539 22L 29.0859 22L 29.0859 9.32031L 31.1367 9.32031ZM 45.2695 6.25L 45.2695 9.32031L 47.6367 9.32031L 47.6367 10.9961L 45.2695 10.9961L 45.2695 18.8594C 45.2695 19.3672 45.375 19.75 45.5859 20.0078C 45.7969 20.2578 46.1562 20.3828 46.6641 20.3828C 46.9141 20.3828 47.2578 20.3359 47.6953 20.2422L 47.6953 22C 47.125 22.1562 46.5703 22.2344 46.0312 22.2344C 45.0625 22.2344 44.332 21.9414 43.8398 21.3555C 43.3477 20.7695 43.1016 19.9375 43.1016 18.8594L 43.1016 10.9961L 40.793 10.9961L 40.793 9.32031L 43.1016 9.32031L 43.1016 6.25L 45.2695 6.25ZM 50.0977 15.0742C 50.0977 13.3086 50.332 11.6133 50.8008 9.98828C 51.2773 8.36328 51.9844 6.88672 52.9219 5.55859C 53.8594 4.23047 54.832 3.29297 55.8398 2.74609L 56.2852 4.17578C 55.1445 5.05078 54.207 6.38672 53.4727 8.18359C 52.7461 9.98047 52.3477 11.9922 52.2773 14.2188L 52.2656 15.2148C 52.2656 18.2305 52.8164 20.8477 53.918 23.0664C 54.582 24.3945 55.3711 25.4336 56.2852 26.1836L 55.8398 27.5078C 54.8008 26.9297 53.8086 25.9609 52.8633 24.6016C 51.0195 21.9453 50.0977 18.7695 50.0977 15.0742ZM 61.3242 6.25L 61.3242 9.32031L 63.6914 9.32031L 63.6914 10.9961L 61.3242 10.9961L 61.3242 18.8594C 61.3242 19.3672 61.4297 19.75 61.6406 20.0078C 61.8516 20.2578 62.2109 20.3828 62.7188 20.3828C 62.9688 20.3828 63.3125 20.3359 63.75 20.2422L 63.75 22C 63.1797 22.1562 62.625 22.2344 62.0859 22.2344C 61.1172 22.2344 60.3867 21.9414 59.8945 21.3555C 59.4023 20.7695 59.1562 19.9375 59.1562 18.8594L 59.1562 10.9961L 56.8477 10.9961L 56.8477 9.32031L 59.1562 9.32031L 59.1562 6.25L 61.3242 6.25ZM 71.4961 22.2344C 69.7773 22.2344 68.3789 21.6719 67.3008 20.5469C 66.2227 19.4141 65.6836 17.9023 65.6836 16.0117L 65.6836 15.6133C 65.6836 14.3555 65.9219 13.2344 66.3984 12.25C 66.8828 11.2578 67.5547 10.4844 68.4141 9.92969C 69.2812 9.36719 70.2188 9.08594 71.2266 9.08594C 72.875 9.08594 74.1562 9.62891 75.0703 10.7148C 75.9844 11.8008 76.4414 13.3555 76.4414 15.3789L 76.4414 16.2812L 67.8516 16.2812C 67.8828 17.5312 68.2461 18.543 68.9414 19.3164C 69.6445 20.082 70.5352 20.4648 71.6133 20.4648C 72.3789 20.4648 73.0273 20.3086 73.5586 19.9961C 74.0898 19.6836 74.5547 19.2695 74.9531 18.7539L 76.2773 19.7852C 75.2148 21.418 73.6211 22.2344 71.4961 22.2344ZM 71.2266 10.8672C 70.3516 10.8672 69.6172 11.1875 69.0234 11.8281C 68.4297 12.4609 68.0625 13.3516 67.9219 14.5L 74.2734 14.5L 74.2734 14.3359C 74.2109 13.2344 73.9141 12.3828 73.3828 11.7812C 72.8516 11.1719 72.1328 10.8672 71.2266 10.8672ZM 86.7891 22C 86.6641 21.75 86.5625 21.3047 86.4844 20.6641C 85.4766 21.7109 84.2734 22.2344 82.875 22.2344C 81.625 22.2344 80.5977 21.8828 79.793 21.1797C 78.9961 20.4688 78.5977 19.5703 78.5977 18.4844C 78.5977 17.1641 79.0977 16.1406 80.0977 15.4141C 81.1055 14.6797 82.5195 14.3125 84.3398 14.3125L 86.4492 14.3125L 86.4492 13.3164C 86.4492 12.5586 86.2227 11.957 85.7695 11.5117C 85.3164 11.0586 84.6484 10.832 83.7656 10.832C 82.9922 10.832 82.3438 11.0273 81.8203 11.418C 81.2969 11.8086 81.0352 12.2812 81.0352 12.8359L 78.8555 12.8359C 78.8555 12.2031 79.0781 11.5938 79.5234 11.0078C 79.9766 10.4141 80.5859 9.94531 81.3516 9.60156C 82.125 9.25781 82.9727 9.08594 83.8945 9.08594C 85.3555 9.08594 86.5 9.45312 87.3281 10.1875C 88.1562 10.9141 88.5859 11.918 88.6172 13.1992L 88.6172 19.0352C 88.6172 20.1992 88.7656 21.125 89.0625 21.8125L 89.0625 22L 86.7891 22ZM 83.1914 20.3477C 83.8711 20.3477 84.5156 20.1719 85.125 19.8203C 85.7344 19.4688 86.1758 19.0117 86.4492 18.4492L 86.4492 15.8477L 84.75 15.8477C 82.0938 15.8477 80.7656 16.625 80.7656 18.1797C 80.7656 18.8594 80.9922 19.3906 81.4453 19.7734C 81.8984 20.1562 82.4805 20.3477 83.1914 20.3477ZM 94.0547 9.32031L 94.1133 10.7266C 95.043 9.63281 96.2969 9.08594 97.875 9.08594C 99.6484 9.08594 100.855 9.76562 101.496 11.125C 101.918 10.5156 102.465 10.0234 103.137 9.64844C 103.816 9.27344 104.617 9.08594 105.539 9.08594C 108.32 9.08594 109.734 10.5586 109.781 13.5039L 109.781 22L 107.613 22L 107.613 13.6328C 107.613 12.7266 107.406 12.0508 106.992 11.6055C 106.578 11.1523 105.883 10.9258 104.906 10.9258C 104.102 10.9258 103.434 11.168 102.902 11.6523C 102.371 12.1289 102.062 12.7734 101.977 13.5859L 101.977 22L 99.7969 22L 99.7969 13.6914C 99.7969 11.8477 98.8945 10.9258 97.0898 10.9258C 95.668 10.9258 94.6953 11.5312 94.1719 12.7422L 94.1719 22L 92.0039 22L 92.0039 9.32031L 94.0547 9.32031ZM 118.066 15.1914C 118.066 16.9336 117.836 18.6055 117.375 20.207C 116.922 21.8008 116.223 23.2734 115.277 24.625C 114.34 25.9766 113.355 26.9375 112.324 27.5078L 111.867 26.1836C 113.07 25.2617 114.035 23.832 114.762 21.8945C 115.496 19.9492 115.871 17.793 115.887 15.4258L 115.887 15.0508C 115.887 13.4102 115.715 11.8867 115.371 10.4805C 115.027 9.06641 114.547 7.80078 113.93 6.68359C 113.32 5.56641 112.633 4.69531 111.867 4.07031L 112.324 2.74609C 113.355 3.31641 114.336 4.26953 115.266 5.60547C 116.203 6.94141 116.902 8.41406 117.363 10.0234C 117.832 11.6328 118.066 13.3555 118.066 15.1914Z"/>
<path id="path2_fill" d="M 4.58203 6.25L 4.58203 9.32031L 6.94922 9.32031L 6.94922 10.9961L 4.58203 10.9961L 4.58203 18.8594C 4.58203 19.3672 4.6875 19.75 4.89844 20.0078C 5.10938 20.2578 5.46875 20.3828 5.97656 20.3828C 6.22656 20.3828 6.57031 20.3359 7.00781 20.2422L 7.00781 22C 6.4375 22.1562 5.88281 22.2344 5.34375 22.2344C 4.375 22.2344 3.64453 21.9414 3.15234 21.3555C 2.66016 20.7695 2.41406 19.9375 2.41406 18.8594L 2.41406 10.9961L 0.105469 10.9961L 0.105469 9.32031L 2.41406 9.32031L 2.41406 6.25L 4.58203 6.25ZM 16.3945 22L 14.2148 22L 14.2148 7.55078L 9.84375 9.15625L 9.84375 7.1875L 16.0547 4.85547L 16.3945 4.85547L 16.3945 22ZM 38.8359 12.4609L 29.0625 12.4609L 29.0625 10.5742L 38.8359 10.5742L 38.8359 12.4609ZM 38.8359 17.3242L 29.0625 17.3242L 29.0625 15.4492L 38.8359 15.4492L 38.8359 17.3242ZM 13.7695 34.7891L 8.28516 34.7891L 8.28516 50L 6.04688 50L 6.04688 34.7891L 0.574219 34.7891L 0.574219 32.9375L 13.7695 32.9375L 13.7695 34.7891ZM 18.1289 38.8555C 19.0898 37.6758 20.3398 37.0859 21.8789 37.0859C 24.5586 37.0859 25.9102 38.5977 25.9336 41.6211L 25.9336 50L 23.7656 50L 23.7656 41.6094C 23.7578 40.6953 23.5469 40.0195 23.1328 39.582C 22.7266 39.1445 22.0898 38.9258 21.2227 38.9258C 20.5195 38.9258 19.9023 39.1133 19.3711 39.4883C 18.8398 39.8633 18.4258 40.3555 18.1289 40.9648L 18.1289 50L 15.9609 50L 15.9609 32L 18.1289 32L 18.1289 38.8555ZM 35.3086 39.2656C 34.9805 39.2109 34.625 39.1836 34.2422 39.1836C 32.8203 39.1836 31.8555 39.7891 31.3477 41L 31.3477 50L 29.1797 50L 29.1797 37.3203L 31.2891 37.3203L 31.3242 38.7852C 32.0352 37.6523 33.043 37.0859 34.3477 37.0859C 34.7695 37.0859 35.0898 37.1406 35.3086 37.25L 35.3086 39.2656ZM 42.3633 50.2344C 40.6445 50.2344 39.2461 49.6719 38.168 48.5469C 37.0898 47.4141 36.5508 45.9023 36.5508 44.0117L 36.5508 43.6133C 36.5508 42.3555 36.7891 41.2344 37.2656 40.25C 37.75 39.2578 38.4219 38.4844 39.2812 37.9297C 40.1484 37.3672 41.0859 37.0859 42.0938 37.0859C 43.7422 37.0859 45.0234 37.6289 45.9375 38.7148C 46.8516 39.8008 47.3086 41.3555 47.3086 43.3789L 47.3086 44.2812L 38.7188 44.2812C 38.75 45.5312 39.1133 46.543 39.8086 47.3164C 40.5117 48.082 41.4023 48.4648 42.4805 48.4648C 43.2461 48.4648 43.8945 48.3086 44.4258 47.9961C 44.957 47.6836 45.4219 47.2695 45.8203 46.7539L 47.1445 47.7852C 46.082 49.418 44.4883 50.2344 42.3633 50.2344ZM 42.0938 38.8672C 41.2188 38.8672 40.4844 39.1875 39.8906 39.8281C 39.2969 40.4609 38.9297 41.3516 38.7891 42.5L 45.1406 42.5L 45.1406 42.3359C 45.0781 41.2344 44.7812 40.3828 44.25 39.7812C 43.7188 39.1719 43 38.8672 42.0938 38.8672ZM 57.6562 50C 57.5312 49.75 57.4297 49.3047 57.3516 48.6641C 56.3438 49.7109 55.1406 50.2344 53.7422 50.2344C 52.4922 50.2344 51.4648 49.8828 50.6602 49.1797C 49.8633 48.4688 49.4648 47.5703 49.4648 46.4844C 49.4648 45.1641 49.9648 44.1406 50.9648 43.4141C 51.9727 42.6797 53.3867 42.3125 55.207 42.3125L 57.3164 42.3125L 57.3164 41.3164C 57.3164 40.5586 57.0898 39.957 56.6367 39.5117C 56.1836 39.0586 55.5156 38.832 54.6328 38.832C 53.8594 38.832 53.2109 39.0273 52.6875 39.418C 52.1641 39.8086 51.9023 40.2812 51.9023 40.8359L 49.7227 40.8359C 49.7227 40.2031 49.9453 39.5938 50.3906 39.0078C 50.8438 38.4141 51.4531 37.9453 52.2188 37.6016C 52.9922 37.2578 53.8398 37.0859 54.7617 37.0859C 56.2227 37.0859 57.3672 37.4531 58.1953 38.1875C 59.0234 38.9141 59.4531 39.918 59.4844 41.1992L 59.4844 47.0352C 59.4844 48.1992 59.6328 49.125 59.9297 49.8125L 59.9297 50L 57.6562 50ZM 54.0586 48.3477C 54.7383 48.3477 55.3828 48.1719 55.9922 47.8203C 56.6016 47.4688 57.043 47.0117 57.3164 46.4492L 57.3164 43.8477L 55.6172 43.8477C 52.9609 43.8477 51.6328 44.625 51.6328 46.1797C 51.6328 46.8594 51.8594 47.3906 52.3125 47.7734C 52.7656 48.1562 53.3477 48.3477 54.0586 48.3477ZM 62.3555 43.5547C 62.3555 41.6094 62.8164 40.0469 63.7383 38.8672C 64.6602 37.6797 65.8672 37.0859 67.3594 37.0859C 68.8438 37.0859 70.0195 37.5938 70.8867 38.6094L 70.8867 32L 73.0547 32L 73.0547 50L 71.0625 50L 70.957 48.6406C 70.0898 49.7031 68.8828 50.2344 67.3359 50.2344C 65.8672 50.2344 64.668 49.6328 63.7383 48.4297C 62.8164 47.2266 62.3555 45.6562 62.3555 43.7188L 62.3555 43.5547ZM 64.5234 43.8008C 64.5234 45.2383 64.8203 46.3633 65.4141 47.1758C 66.0078 47.9883 66.8281 48.3945 67.875 48.3945C 69.25 48.3945 70.2539 47.7773 70.8867 46.543L 70.8867 40.7188C 70.2383 39.5234 69.2422 38.9258 67.8984 38.9258C 66.8359 38.9258 66.0078 39.3359 65.4141 40.1562C 64.8203 40.9766 64.5234 42.1914 64.5234 43.8008ZM 78.7852 50L 76.6172 50L 76.6172 37.3203L 78.7852 37.3203L 78.7852 50ZM 76.4414 33.957C 76.4414 33.6055 76.5469 33.3086 76.7578 33.0664C 76.9766 32.8242 77.2969 32.7031 77.7188 32.7031C 78.1406 32.7031 78.4609 32.8242 78.6797 33.0664C 78.8984 33.3086 79.0078 33.6055 79.0078 33.957C 79.0078 34.3086 78.8984 34.6016 78.6797 34.8359C 78.4609 35.0703 78.1406 35.1875 77.7188 35.1875C 77.2969 35.1875 76.9766 35.0703 76.7578 34.8359C 76.5469 34.6016 76.4414 34.3086 76.4414 33.957ZM 84.3164 37.3203L 84.3867 38.9141C 85.3555 37.6953 86.6211 37.0859 88.1836 37.0859C 90.8633 37.0859 92.2148 38.5977 92.2383 41.6211L 92.2383 50L 90.0703 50L 90.0703 41.6094C 90.0625 40.6953 89.8516 40.0195 89.4375 39.582C 89.0312 39.1445 88.3945 38.9258 87.5273 38.9258C 86.8242 38.9258 86.207 39.1133 85.6758 39.4883C 85.1445 39.8633 84.7305 40.3555 84.4336 40.9648L 84.4336 50L 82.2656 50L 82.2656 37.3203L 84.3164 37.3203ZM 94.9922 43.5547C 94.9922 41.5781 95.4492 40.0078 96.3633 38.8438C 97.2773 37.6719 98.4883 37.0859 99.9961 37.0859C 101.543 37.0859 102.75 37.6328 103.617 38.7266L 103.723 37.3203L 105.703 37.3203L 105.703 49.6953C 105.703 51.3359 105.215 52.6289 104.238 53.5742C 103.27 54.5195 101.965 54.9922 100.324 54.9922C 99.4102 54.9922 98.5156 54.7969 97.6406 54.4062C 96.7656 54.0156 96.0977 53.4805 95.6367 52.8008L 96.7617 51.5C 97.6914 52.6484 98.8281 53.2227 100.172 53.2227C 101.227 53.2227 102.047 52.9258 102.633 52.332C 103.227 51.7383 103.523 50.9023 103.523 49.8242L 103.523 48.7344C 102.656 49.7344 101.473 50.2344 99.9727 50.2344C 98.4883 50.2344 97.2852 49.6367 96.3633 48.4414C 95.4492 47.2461 94.9922 45.6172 94.9922 43.5547ZM 97.1719 43.8008C 97.1719 45.2305 97.4648 46.3555 98.0508 47.1758C 98.6367 47.9883 99.457 48.3945 100.512 48.3945C 101.879 48.3945 102.883 47.7734 103.523 46.5312L 103.523 40.7422C 102.859 39.5312 101.863 38.9258 100.535 38.9258C 99.4805 38.9258 98.6562 39.3359 98.0625 40.1562C 97.4688 40.9766 97.1719 42.1914 97.1719 43.8008ZM 109.031 48.8633C 109.031 48.4883 109.141 48.1758 109.359 47.9258C 109.586 47.6758 109.922 47.5508 110.367 47.5508C 110.812 47.5508 111.148 47.6758 111.375 47.9258C 111.609 48.1758 111.727 48.4883 111.727 48.8633C 111.727 49.2227 111.609 49.5234 111.375 49.7656C 111.148 50.0078 110.812 50.1289 110.367 50.1289C 109.922 50.1289 109.586 50.0078 109.359 49.7656C 109.141 49.5234 109.031 49.2227 109.031 48.8633ZM 127.441 34.7891L 121.957 34.7891L 121.957 50L 119.719 50L 119.719 34.7891L 114.246 34.7891L 114.246 32.9375L 127.441 32.9375L 127.441 34.7891ZM 131.801 38.8555C 132.762 37.6758 134.012 37.0859 135.551 37.0859C 138.23 37.0859 139.582 38.5977 139.605 41.6211L 139.605 50L 137.438 50L 137.438 41.6094C 137.43 40.6953 137.219 40.0195 136.805 39.582C 136.398 39.1445 135.762 38.9258 134.895 38.9258C 134.191 38.9258 133.574 39.1133 133.043 39.4883C 132.512 39.8633 132.098 40.3555 131.801 40.9648L 131.801 50L 129.633 50L 129.633 32L 131.801 32L 131.801 38.8555ZM 148.98 39.2656C 148.652 39.2109 148.297 39.1836 147.914 39.1836C 146.492 39.1836 145.527 39.7891 145.02 41L 145.02 50L 142.852 50L 142.852 37.3203L 144.961 37.3203L 144.996 38.7852C 145.707 37.6523 146.715 37.0859 148.02 37.0859C 148.441 37.0859 148.762 37.1406 148.98 37.25L 148.98 39.2656ZM 156.035 50.2344C 154.316 50.2344 152.918 49.6719 151.84 48.5469C 150.762 47.4141 150.223 45.9023 150.223 44.0117L 150.223 43.6133C 150.223 42.3555 150.461 41.2344 150.938 40.25C 151.422 39.2578 152.094 38.4844 152.953 37.9297C 153.82 37.3672 154.758 37.0859 155.766 37.0859C 157.414 37.0859 158.695 37.6289 159.609 38.7148C 160.523 39.8008 160.98 41.3555 160.98 43.3789L 160.98 44.2812L 152.391 44.2812C 152.422 45.5312 152.785 46.543 153.48 47.3164C 154.184 48.082 155.074 48.4648 156.152 48.4648C 156.918 48.4648 157.566 48.3086 158.098 47.9961C 158.629 47.6836 159.094 47.2695 159.492 46.7539L 160.816 47.7852C 159.754 49.418 158.16 50.2344 156.035 50.2344ZM 155.766 38.8672C 154.891 38.8672 154.156 39.1875 153.562 39.8281C 152.969 40.4609 152.602 41.3516 152.461 42.5L 158.812 42.5L 158.812 42.3359C 158.75 41.2344 158.453 40.3828 157.922 39.7812C 157.391 39.1719 156.672 38.8672 155.766 38.8672ZM 171.328 50C 171.203 49.75 171.102 49.3047 171.023 48.6641C 170.016 49.7109 168.812 50.2344 167.414 50.2344C 166.164 50.2344 165.137 49.8828 164.332 49.1797C 163.535 48.4688 163.137 47.5703 163.137 46.4844C 163.137 45.1641 163.637 44.1406 164.637 43.4141C 165.645 42.6797 167.059 42.3125 168.879 42.3125L 170.988 42.3125L 170.988 41.3164C 170.988 40.5586 170.762 39.957 170.309 39.5117C 169.855 39.0586 169.188 38.832 168.305 38.832C 167.531 38.832 166.883 39.0273 166.359 39.418C 165.836 39.8086 165.574 40.2812 165.574 40.8359L 163.395 40.8359C 163.395 40.2031 163.617 39.5938 164.062 39.0078C 164.516 38.4141 165.125 37.9453 165.891 37.6016C 166.664 37.2578 167.512 37.0859 168.434 37.0859C 169.895 37.0859 171.039 37.4531 171.867 38.1875C 172.695 38.9141 173.125 39.918 173.156 41.1992L 173.156 47.0352C 173.156 48.1992 173.305 49.125 173.602 49.8125L 173.602 50L 171.328 50ZM 167.73 48.3477C 168.41 48.3477 169.055 48.1719 169.664 47.8203C 170.273 47.4688 170.715 47.0117 170.988 46.4492L 170.988 43.8477L 169.289 43.8477C 166.633 43.8477 165.305 44.625 165.305 46.1797C 165.305 46.8594 165.531 47.3906 165.984 47.7734C 166.438 48.1562 167.02 48.3477 167.73 48.3477ZM 176.027 43.5547C 176.027 41.6094 176.488 40.0469 177.41 38.8672C 178.332 37.6797 179.539 37.0859 181.031 37.0859C 182.516 37.0859 183.691 37.5938 184.559 38.6094L 184.559 32L 186.727 32L 186.727 50L 184.734 50L 184.629 48.6406C 183.762 49.7031 182.555 50.2344 181.008 50.2344C 179.539 50.2344 178.34 49.6328 177.41 48.4297C 176.488 47.2266 176.027 45.6562 176.027 43.7188L 176.027 43.5547ZM 178.195 43.8008C 178.195 45.2383 178.492 46.3633 179.086 47.1758C 179.68 47.9883 180.5 48.3945 181.547 48.3945C 182.922 48.3945 183.926 47.7773 184.559 46.543L 184.559 40.7188C 183.91 39.5234 182.914 38.9258 181.57 38.9258C 180.508 38.9258 179.68 39.3359 179.086 40.1562C 178.492 40.9766 178.195 42.1914 178.195 43.8008ZM 190.02 43.0742C 190.02 41.3086 190.254 39.6133 190.723 37.9883C 191.199 36.3633 191.906 34.8867 192.844 33.5586C 193.781 32.2305 194.754 31.293 195.762 30.7461L 196.207 32.1758C 195.066 33.0508 194.129 34.3867 193.395 36.1836C 192.668 37.9805 192.27 39.9922 192.199 42.2188L 192.188 43.2148C 192.188 46.2305 192.738 48.8477 193.84 51.0664C 194.504 52.3945 195.293 53.4336 196.207 54.1836L 195.762 55.5078C 194.723 54.9297 193.73 53.9609 192.785 52.6016C 190.941 49.9453 190.02 46.7695 190.02 43.0742ZM 198.352 48.8633C 198.352 48.4883 198.461 48.1758 198.68 47.9258C 198.906 47.6758 199.242 47.5508 199.688 47.5508C 200.133 47.5508 200.469 47.6758 200.695 47.9258C 200.93 48.1758 201.047 48.4883 201.047 48.8633C 201.047 49.2227 200.93 49.5234 200.695 49.7656C 200.469 50.0078 200.133 50.1289 199.688 50.1289C 199.242 50.1289 198.906 50.0078 198.68 49.7656C 198.461 49.5234 198.352 49.2227 198.352 48.8633ZM 204.68 48.8633C 204.68 48.4883 204.789 48.1758 205.008 47.9258C 205.234 47.6758 205.57 47.5508 206.016 47.5508C 206.461 47.5508 206.797 47.6758 207.023 47.9258C 207.258 48.1758 207.375 48.4883 207.375 48.8633C 207.375 49.2227 207.258 49.5234 207.023 49.7656C 206.797 50.0078 206.461 50.1289 206.016 50.1289C 205.57 50.1289 205.234 50.0078 205.008 49.7656C 204.789 49.5234 204.68 49.2227 204.68 48.8633ZM 211.008 48.8633C 211.008 48.4883 211.117 48.1758 211.336 47.9258C 211.562 47.6758 211.898 47.5508 212.344 47.5508C 212.789 47.5508 213.125 47.6758 213.352 47.9258C 213.586 48.1758 213.703 48.4883 213.703 48.8633C 213.703 49.2227 213.586 49.5234 213.352 49.7656C 213.125 50.0078 212.789 50.1289 212.344 50.1289C 211.898 50.1289 211.562 50.0078 211.336 49.7656C 211.117 49.5234 211.008 49.2227 211.008 48.8633ZM 6.64453 72.1914C 6.64453 73.9336 6.41406 75.6055 5.95312 77.207C 5.5 78.8008 4.80078 80.2734 3.85547 81.625C 2.91797 82.9766 1.93359 83.9375 0.902344 84.5078L 0.445312 83.1836C 1.64844 82.2617 2.61328 80.832 3.33984 78.8945C 4.07422 76.9492 4.44922 74.793 4.46484 72.4258L 4.46484 72.0508C 4.46484 70.4102 4.29297 68.8867 3.94922 67.4805C 3.60547 66.0664 3.125 64.8008 2.50781 63.6836C 1.89844 62.5664 1.21094 61.6953 0.445312 61.0703L 0.902344 59.7461C 1.93359 60.3164 2.91406 61.2695 3.84375 62.6055C 4.78125 63.9414 5.48047 65.4141 5.94141 67.0234C 6.41016 68.6328 6.64453 70.3555 6.64453 72.1914Z"/>
<path id="path3_fill" d="M 4.58203 6.25L 4.58203 9.32031L 6.94922 9.32031L 6.94922 10.9961L 4.58203 10.9961L 4.58203 18.8594C 4.58203 19.3672 4.6875 19.75 4.89844 20.0078C 5.10938 20.2578 5.46875 20.3828 5.97656 20.3828C 6.22656 20.3828 6.57031 20.3359 7.00781 20.2422L 7.00781 22C 6.4375 22.1562 5.88281 22.2344 5.34375 22.2344C 4.375 22.2344 3.64453 21.9414 3.15234 21.3555C 2.66016 20.7695 2.41406 19.9375 2.41406 18.8594L 2.41406 10.9961L 0.105469 10.9961L 0.105469 9.32031L 2.41406 9.32031L 2.41406 6.25L 4.58203 6.25ZM 20.4492 22L 9.26953 22L 9.26953 20.4414L 15.1758 13.8789C 16.0508 12.8867 16.6523 12.082 16.9805 11.4648C 17.3164 10.8398 17.4844 10.1953 17.4844 9.53125C 17.4844 8.64062 17.2148 7.91016 16.6758 7.33984C 16.1367 6.76953 15.418 6.48438 14.5195 6.48438C 13.4414 6.48438 12.6016 6.79297 12 7.41016C 11.4062 8.01953 11.1094 8.87109 11.1094 9.96484L 8.94141 9.96484C 8.94141 8.39453 9.44531 7.125 10.4531 6.15625C 11.4688 5.1875 12.8242 4.70312 14.5195 4.70312C 16.1055 4.70312 17.3594 5.12109 18.2812 5.95703C 19.2031 6.78516 19.6641 7.89062 19.6641 9.27344C 19.6641 10.9531 18.5938 12.9531 16.4531 15.2734L 11.8828 20.2305L 20.4492 20.2305L 20.4492 22ZM 38.8359 12.4609L 29.0625 12.4609L 29.0625 10.5742L 38.8359 10.5742L 38.8359 12.4609ZM 38.8359 17.3242L 29.0625 17.3242L 29.0625 15.4492L 38.8359 15.4492L 38.8359 17.3242ZM 13.7695 34.7891L 8.28516 34.7891L 8.28516 50L 6.04688 50L 6.04688 34.7891L 0.574219 34.7891L 0.574219 32.9375L 13.7695 32.9375L 13.7695 34.7891ZM 18.1289 38.8555C 19.0898 37.6758 20.3398 37.0859 21.8789 37.0859C 24.5586 37.0859 25.9102 38.5977 25.9336 41.6211L 25.9336 50L 23.7656 50L 23.7656 41.6094C 23.7578 40.6953 23.5469 40.0195 23.1328 39.582C 22.7266 39.1445 22.0898 38.9258 21.2227 38.9258C 20.5195 38.9258 19.9023 39.1133 19.3711 39.4883C 18.8398 39.8633 18.4258 40.3555 18.1289 40.9648L 18.1289 50L 15.9609 50L 15.9609 32L 18.1289 32L 18.1289 38.8555ZM 35.3086 39.2656C 34.9805 39.2109 34.625 39.1836 34.2422 39.1836C 32.8203 39.1836 31.8555 39.7891 31.3477 41L 31.3477 50L 29.1797 50L 29.1797 37.3203L 31.2891 37.3203L 31.3242 38.7852C 32.0352 37.6523 33.043 37.0859 34.3477 37.0859C 34.7695 37.0859 35.0898 37.1406 35.3086 37.25L 35.3086 39.2656ZM 42.3633 50.2344C 40.6445 50.2344 39.2461 49.6719 38.168 48.5469C 37.0898 47.4141 36.5508 45.9023 36.5508 44.0117L 36.5508 43.6133C 36.5508 42.3555 36.7891 41.2344 37.2656 40.25C 37.75 39.2578 38.4219 38.4844 39.2812 37.9297C 40.1484 37.3672 41.0859 37.0859 42.0938 37.0859C 43.7422 37.0859 45.0234 37.6289 45.9375 38.7148C 46.8516 39.8008 47.3086 41.3555 47.3086 43.3789L 47.3086 44.2812L 38.7188 44.2812C 38.75 45.5312 39.1133 46.543 39.8086 47.3164C 40.5117 48.082 41.4023 48.4648 42.4805 48.4648C 43.2461 48.4648 43.8945 48.3086 44.4258 47.9961C 44.957 47.6836 45.4219 47.2695 45.8203 46.7539L 47.1445 47.7852C 46.082 49.418 44.4883 50.2344 42.3633 50.2344ZM 42.0938 38.8672C 41.2188 38.8672 40.4844 39.1875 39.8906 39.8281C 39.2969 40.4609 38.9297 41.3516 38.7891 42.5L 45.1406 42.5L 45.1406 42.3359C 45.0781 41.2344 44.7812 40.3828 44.25 39.7812C 43.7188 39.1719 43 38.8672 42.0938 38.8672ZM 57.6562 50C 57.5312 49.75 57.4297 49.3047 57.3516 48.6641C 56.3438 49.7109 55.1406 50.2344 53.7422 50.2344C 52.4922 50.2344 51.4648 49.8828 50.6602 49.1797C 49.8633 48.4688 49.4648 47.5703 49.4648 46.4844C 49.4648 45.1641 49.9648 44.1406 50.9648 43.4141C 51.9727 42.6797 53.3867 42.3125 55.207 42.3125L 57.3164 42.3125L 57.3164 41.3164C 57.3164 40.5586 57.0898 39.957 56.6367 39.5117C 56.1836 39.0586 55.5156 38.832 54.6328 38.832C 53.8594 38.832 53.2109 39.0273 52.6875 39.418C 52.1641 39.8086 51.9023 40.2812 51.9023 40.8359L 49.7227 40.8359C 49.7227 40.2031 49.9453 39.5938 50.3906 39.0078C 50.8438 38.4141 51.4531 37.9453 52.2188 37.6016C 52.9922 37.2578 53.8398 37.0859 54.7617 37.0859C 56.2227 37.0859 57.3672 37.4531 58.1953 38.1875C 59.0234 38.9141 59.4531 39.918 59.4844 41.1992L 59.4844 47.0352C 59.4844 48.1992 59.6328 49.125 59.9297 49.8125L 59.9297 50L 57.6562 50ZM 54.0586 48.3477C 54.7383 48.3477 55.3828 48.1719 55.9922 47.8203C 56.6016 47.4688 57.043 47.0117 57.3164 46.4492L 57.3164 43.8477L 55.6172 43.8477C 52.9609 43.8477 51.6328 44.625 51.6328 46.1797C 51.6328 46.8594 51.8594 47.3906 52.3125 47.7734C 52.7656 48.1562 53.3477 48.3477 54.0586 48.3477ZM 62.3555 43.5547C 62.3555 41.6094 62.8164 40.0469 63.7383 38.8672C 64.6602 37.6797 65.8672 37.0859 67.3594 37.0859C 68.8438 37.0859 70.0195 37.5938 70.8867 38.6094L 70.8867 32L 73.0547 32L 73.0547 50L 71.0625 50L 70.957 48.6406C 70.0898 49.7031 68.8828 50.2344 67.3359 50.2344C 65.8672 50.2344 64.668 49.6328 63.7383 48.4297C 62.8164 47.2266 62.3555 45.6562 62.3555 43.7188L 62.3555 43.5547ZM 64.5234 43.8008C 64.5234 45.2383 64.8203 46.3633 65.4141 47.1758C 66.0078 47.9883 66.8281 48.3945 67.875 48.3945C 69.25 48.3945 70.2539 47.7773 70.8867 46.543L 70.8867 40.7188C 70.2383 39.5234 69.2422 38.9258 67.8984 38.9258C 66.8359 38.9258 66.0078 39.3359 65.4141 40.1562C 64.8203 40.9766 64.5234 42.1914 64.5234 43.8008ZM 78.7852 50L 76.6172 50L 76.6172 37.3203L 78.7852 37.3203L 78.7852 50ZM 76.4414 33.957C 76.4414 33.6055 76.5469 33.3086 76.7578 33.0664C 76.9766 32.8242 77.2969 32.7031 77.7188 32.7031C 78.1406 32.7031 78.4609 32.8242 78.6797 33.0664C 78.8984 33.3086 79.0078 33.6055 79.0078 33.957C 79.0078 34.3086 78.8984 34.6016 78.6797 34.8359C 78.4609 35.0703 78.1406 35.1875 77.7188 35.1875C 77.2969 35.1875 76.9766 35.0703 76.7578 34.8359C 76.5469 34.6016 76.4414 34.3086 76.4414 33.957ZM 84.3164 37.3203L 84.3867 38.9141C 85.3555 37.6953 86.6211 37.0859 88.1836 37.0859C 90.8633 37.0859 92.2148 38.5977 92.2383 41.6211L 92.2383 50L 90.0703 50L 90.0703 41.6094C 90.0625 40.6953 89.8516 40.0195 89.4375 39.582C 89.0312 39.1445 88.3945 38.9258 87.5273 38.9258C 86.8242 38.9258 86.207 39.1133 85.6758 39.4883C 85.1445 39.8633 84.7305 40.3555 84.4336 40.9648L 84.4336 50L 82.2656 50L 82.2656 37.3203L 84.3164 37.3203ZM 94.9922 43.5547C 94.9922 41.5781 95.4492 40.0078 96.3633 38.8438C 97.2773 37.6719 98.4883 37.0859 99.9961 37.0859C 101.543 37.0859 102.75 37.6328 103.617 38.7266L 103.723 37.3203L 105.703 37.3203L 105.703 49.6953C 105.703 51.3359 105.215 52.6289 104.238 53.5742C 103.27 54.5195 101.965 54.9922 100.324 54.9922C 99.4102 54.9922 98.5156 54.7969 97.6406 54.4062C 96.7656 54.0156 96.0977 53.4805 95.6367 52.8008L 96.7617 51.5C 97.6914 52.6484 98.8281 53.2227 100.172 53.2227C 101.227 53.2227 102.047 52.9258 102.633 52.332C 103.227 51.7383 103.523 50.9023 103.523 49.8242L 103.523 48.7344C 102.656 49.7344 101.473 50.2344 99.9727 50.2344C 98.4883 50.2344 97.2852 49.6367 96.3633 48.4414C 95.4492 47.2461 94.9922 45.6172 94.9922 43.5547ZM 97.1719 43.8008C 97.1719 45.2305 97.4648 46.3555 98.0508 47.1758C 98.6367 47.9883 99.457 48.3945 100.512 48.3945C 101.879 48.3945 102.883 47.7734 103.523 46.5312L 103.523 40.7422C 102.859 39.5312 101.863 38.9258 100.535 38.9258C 99.4805 38.9258 98.6562 39.3359 98.0625 40.1562C 97.4688 40.9766 97.1719 42.1914 97.1719 43.8008ZM 109.031 48.8633C 109.031 48.4883 109.141 48.1758 109.359 47.9258C 109.586 47.6758 109.922 47.5508 110.367 47.5508C 110.812 47.5508 111.148 47.6758 111.375 47.9258C 111.609 48.1758 111.727 48.4883 111.727 48.8633C 111.727 49.2227 111.609 49.5234 111.375 49.7656C 111.148 50.0078 110.812 50.1289 110.367 50.1289C 109.922 50.1289 109.586 50.0078 109.359 49.7656C 109.141 49.5234 109.031 49.2227 109.031 48.8633ZM 127.441 34.7891L 121.957 34.7891L 121.957 50L 119.719 50L 119.719 34.7891L 114.246 34.7891L 114.246 32.9375L 127.441 32.9375L 127.441 34.7891ZM 131.801 38.8555C 132.762 37.6758 134.012 37.0859 135.551 37.0859C 138.23 37.0859 139.582 38.5977 139.605 41.6211L 139.605 50L 137.438 50L 137.438 41.6094C 137.43 40.6953 137.219 40.0195 136.805 39.582C 136.398 39.1445 135.762 38.9258 134.895 38.9258C 134.191 38.9258 133.574 39.1133 133.043 39.4883C 132.512 39.8633 132.098 40.3555 131.801 40.9648L 131.801 50L 129.633 50L 129.633 32L 131.801 32L 131.801 38.8555ZM 148.98 39.2656C 148.652 39.2109 148.297 39.1836 147.914 39.1836C 146.492 39.1836 145.527 39.7891 145.02 41L 145.02 50L 142.852 50L 142.852 37.3203L 144.961 37.3203L 144.996 38.7852C 145.707 37.6523 146.715 37.0859 148.02 37.0859C 148.441 37.0859 148.762 37.1406 148.98 37.25L 148.98 39.2656ZM 156.035 50.2344C 154.316 50.2344 152.918 49.6719 151.84 48.5469C 150.762 47.4141 150.223 45.9023 150.223 44.0117L 150.223 43.6133C 150.223 42.3555 150.461 41.2344 150.938 40.25C 151.422 39.2578 152.094 38.4844 152.953 37.9297C 153.82 37.3672 154.758 37.0859 155.766 37.0859C 157.414 37.0859 158.695 37.6289 159.609 38.7148C 160.523 39.8008 160.98 41.3555 160.98 43.3789L 160.98 44.2812L 152.391 44.2812C 152.422 45.5312 152.785 46.543 153.48 47.3164C 154.184 48.082 155.074 48.4648 156.152 48.4648C 156.918 48.4648 157.566 48.3086 158.098 47.9961C 158.629 47.6836 159.094 47.2695 159.492 46.7539L 160.816 47.7852C 159.754 49.418 158.16 50.2344 156.035 50.2344ZM 155.766 38.8672C 154.891 38.8672 154.156 39.1875 153.562 39.8281C 152.969 40.4609 152.602 41.3516 152.461 42.5L 158.812 42.5L 158.812 42.3359C 158.75 41.2344 158.453 40.3828 157.922 39.7812C 157.391 39.1719 156.672 38.8672 155.766 38.8672ZM 171.328 50C 171.203 49.75 171.102 49.3047 171.023 48.6641C 170.016 49.7109 168.812 50.2344 167.414 50.2344C 166.164 50.2344 165.137 49.8828 164.332 49.1797C 163.535 48.4688 163.137 47.5703 163.137 46.4844C 163.137 45.1641 163.637 44.1406 164.637 43.4141C 165.645 42.6797 167.059 42.3125 168.879 42.3125L 170.988 42.3125L 170.988 41.3164C 170.988 40.5586 170.762 39.957 170.309 39.5117C 169.855 39.0586 169.188 38.832 168.305 38.832C 167.531 38.832 166.883 39.0273 166.359 39.418C 165.836 39.8086 165.574 40.2812 165.574 40.8359L 163.395 40.8359C 163.395 40.2031 163.617 39.5938 164.062 39.0078C 164.516 38.4141 165.125 37.9453 165.891 37.6016C 166.664 37.2578 167.512 37.0859 168.434 37.0859C 169.895 37.0859 171.039 37.4531 171.867 38.1875C 172.695 38.9141 173.125 39.918 173.156 41.1992L 173.156 47.0352C 173.156 48.1992 173.305 49.125 173.602 49.8125L 173.602 50L 171.328 50ZM 167.73 48.3477C 168.41 48.3477 169.055 48.1719 169.664 47.8203C 170.273 47.4688 170.715 47.0117 170.988 46.4492L 170.988 43.8477L 169.289 43.8477C 166.633 43.8477 165.305 44.625 165.305 46.1797C 165.305 46.8594 165.531 47.3906 165.984 47.7734C 166.438 48.1562 167.02 48.3477 167.73 48.3477ZM 176.027 43.5547C 176.027 41.6094 176.488 40.0469 177.41 38.8672C 178.332 37.6797 179.539 37.0859 181.031 37.0859C 182.516 37.0859 183.691 37.5938 184.559 38.6094L 184.559 32L 186.727 32L 186.727 50L 184.734 50L 184.629 48.6406C 183.762 49.7031 182.555 50.2344 181.008 50.2344C 179.539 50.2344 178.34 49.6328 177.41 48.4297C 176.488 47.2266 176.027 45.6562 176.027 43.7188L 176.027 43.5547ZM 178.195 43.8008C 178.195 45.2383 178.492 46.3633 179.086 47.1758C 179.68 47.9883 180.5 48.3945 181.547 48.3945C 182.922 48.3945 183.926 47.7773 184.559 46.543L 184.559 40.7188C 183.91 39.5234 182.914 38.9258 181.57 38.9258C 180.508 38.9258 179.68 39.3359 179.086 40.1562C 178.492 40.9766 178.195 42.1914 178.195 43.8008ZM 190.02 43.0742C 190.02 41.3086 190.254 39.6133 190.723 37.9883C 191.199 36.3633 191.906 34.8867 192.844 33.5586C 193.781 32.2305 194.754 31.293 195.762 30.7461L 196.207 32.1758C 195.066 33.0508 194.129 34.3867 193.395 36.1836C 192.668 37.9805 192.27 39.9922 192.199 42.2188L 192.188 43.2148C 192.188 46.2305 192.738 48.8477 193.84 51.0664C 194.504 52.3945 195.293 53.4336 196.207 54.1836L 195.762 55.5078C 194.723 54.9297 193.73 53.9609 192.785 52.6016C 190.941 49.9453 190.02 46.7695 190.02 43.0742ZM 198.352 48.8633C 198.352 48.4883 198.461 48.1758 198.68 47.9258C 198.906 47.6758 199.242 47.5508 199.688 47.5508C 200.133 47.5508 200.469 47.6758 200.695 47.9258C 200.93 48.1758 201.047 48.4883 201.047 48.8633C 201.047 49.2227 200.93 49.5234 200.695 49.7656C 200.469 50.0078 200.133 50.1289 199.688 50.1289C 199.242 50.1289 198.906 50.0078 198.68 49.7656C 198.461 49.5234 198.352 49.2227 198.352 48.8633ZM 204.68 48.8633C 204.68 48.4883 204.789 48.1758 205.008 47.9258C 205.234 47.6758 205.57 47.5508 206.016 47.5508C 206.461 47.5508 206.797 47.6758 207.023 47.9258C 207.258 48.1758 207.375 48.4883 207.375 48.8633C 207.375 49.2227 207.258 49.5234 207.023 49.7656C 206.797 50.0078 206.461 50.1289 206.016 50.1289C 205.57 50.1289 205.234 50.0078 205.008 49.7656C 204.789 49.5234 204.68 49.2227 204.68 48.8633ZM 211.008 48.8633C 211.008 48.4883 211.117 48.1758 211.336 47.9258C 211.562 47.6758 211.898 47.5508 212.344 47.5508C 212.789 47.5508 213.125 47.6758 213.352 47.9258C 213.586 48.1758 213.703 48.4883 213.703 48.8633C 213.703 49.2227 213.586 49.5234 213.352 49.7656C 213.125 50.0078 212.789 50.1289 212.344 50.1289C 211.898 50.1289 211.562 50.0078 211.336 49.7656C 211.117 49.5234 211.008 49.2227 211.008 48.8633ZM 6.64453 72.1914C 6.64453 73.9336 6.41406 75.6055 5.95312 77.207C 5.5 78.8008 4.80078 80.2734 3.85547 81.625C 2.91797 82.9766 1.93359 83.9375 0.902344 84.5078L 0.445312 83.1836C 1.64844 82.2617 2.61328 80.832 3.33984 78.8945C 4.07422 76.9492 4.44922 74.793 4.46484 72.4258L 4.46484 72.0508C 4.46484 70.4102 4.29297 68.8867 3.94922 67.4805C 3.60547 66.0664 3.125 64.8008 2.50781 63.6836C 1.89844 62.5664 1.21094 61.6953 0.445312 61.0703L 0.902344 59.7461C 1.93359 60.3164 2.91406 61.2695 3.84375 62.6055C 4.78125 63.9414 5.48047 65.4141 5.94141 67.0234C 6.41016 68.6328 6.64453 70.3555 6.64453 72.1914Z"/>
<path id="path4_fill" d="M 4.58203 6.25L 4.58203 9.32031L 6.94922 9.32031L 6.94922 10.9961L 4.58203 10.9961L 4.58203 18.8594C 4.58203 19.3672 4.6875 19.75 4.89844 20.0078C 5.10938 20.2578 5.46875 20.3828 5.97656 20.3828C 6.22656 20.3828 6.57031 20.3359 7.00781 20.2422L 7.00781 22C 6.4375 22.1562 5.88281 22.2344 5.34375 22.2344C 4.375 22.2344 3.64453 21.9414 3.15234 21.3555C 2.66016 20.7695 2.41406 19.9375 2.41406 18.8594L 2.41406 10.9961L 0.105469 10.9961L 0.105469 9.32031L 2.41406 9.32031L 2.41406 6.25L 4.58203 6.25ZM 16.3945 22L 14.2148 22L 14.2148 7.55078L 9.84375 9.15625L 9.84375 7.1875L 16.0547 4.85547L 16.3945 4.85547L 16.3945 22ZM 23.0156 20.8633C 23.0156 20.4883 23.125 20.1758 23.3438 19.9258C 23.5703 19.6758 23.9062 19.5508 24.3516 19.5508C 24.7969 19.5508 25.1328 19.6758 25.3594 19.9258C 25.5938 20.1758 25.7109 20.4883 25.7109 20.8633C 25.7109 21.2227 25.5938 21.5234 25.3594 21.7656C 25.1328 22.0078 24.7969 22.1289 24.3516 22.1289C 23.9062 22.1289 23.5703 22.0078 23.3438 21.7656C 23.125 21.5234 23.0156 21.2227 23.0156 20.8633ZM 36.6797 18.6367C 36.6797 18.0508 36.457 17.5977 36.0117 17.2773C 35.5742 16.9492 34.8047 16.668 33.7031 16.4336C 32.6094 16.1992 31.7383 15.918 31.0898 15.5898C 30.4492 15.2617 29.9727 14.8711 29.6602 14.418C 29.3555 13.9648 29.2031 13.4258 29.2031 12.8008C 29.2031 11.7617 29.6406 10.8828 30.5156 10.1641C 31.3984 9.44531 32.5234 9.08594 33.8906 9.08594C 35.3281 9.08594 36.4922 9.45703 37.3828 10.1992C 38.2812 10.9414 38.7305 11.8906 38.7305 13.0469L 36.5508 13.0469C 36.5508 12.4531 36.2969 11.9414 35.7891 11.5117C 35.2891 11.082 34.6562 10.8672 33.8906 10.8672C 33.1016 10.8672 32.4844 11.0391 32.0391 11.3828C 31.5938 11.7266 31.3711 12.1758 31.3711 12.7305C 31.3711 13.2539 31.5781 13.6484 31.9922 13.9141C 32.4062 14.1797 33.1523 14.4336 34.2305 14.6758C 35.3164 14.918 36.1953 15.207 36.8672 15.543C 37.5391 15.8789 38.0352 16.2852 38.3555 16.7617C 38.6836 17.2305 38.8477 17.8047 38.8477 18.4844C 38.8477 19.6172 38.3945 20.5273 37.4883 21.2148C 36.582 21.8945 35.4062 22.2344 33.9609 22.2344C 32.9453 22.2344 32.0469 22.0547 31.2656 21.6953C 30.4844 21.3359 29.8711 20.8359 29.4258 20.1953C 28.9883 19.5469 28.7695 18.8477 28.7695 18.0977L 30.9375 18.0977C 30.9766 18.8242 31.2656 19.4023 31.8047 19.832C 32.3516 20.2539 33.0703 20.4648 33.9609 20.4648C 34.7812 20.4648 35.4375 20.3008 35.9297 19.9727C 36.4297 19.6367 36.6797 19.1914 36.6797 18.6367ZM 44.6133 6.25L 44.6133 9.32031L 46.9805 9.32031L 46.9805 10.9961L 44.6133 10.9961L 44.6133 18.8594C 44.6133 19.3672 44.7188 19.75 44.9297 20.0078C 45.1406 20.2578 45.5 20.3828 46.0078 20.3828C 46.2578 20.3828 46.6016 20.3359 47.0391 20.2422L 47.0391 22C 46.4688 22.1562 45.9141 22.2344 45.375 22.2344C 44.4062 22.2344 43.6758 21.9414 43.1836 21.3555C 42.6914 20.7695 42.4453 19.9375 42.4453 18.8594L 42.4453 10.9961L 40.1367 10.9961L 40.1367 9.32031L 42.4453 9.32031L 42.4453 6.25L 44.6133 6.25ZM 57.3516 22C 57.2266 21.75 57.125 21.3047 57.0469 20.6641C 56.0391 21.7109 54.8359 22.2344 53.4375 22.2344C 52.1875 22.2344 51.1602 21.8828 50.3555 21.1797C 49.5586 20.4688 49.1602 19.5703 49.1602 18.4844C 49.1602 17.1641 49.6602 16.1406 50.6602 15.4141C 51.668 14.6797 53.082 14.3125 54.9023 14.3125L 57.0117 14.3125L 57.0117 13.3164C 57.0117 12.5586 56.7852 11.957 56.332 11.5117C 55.8789 11.0586 55.2109 10.832 54.3281 10.832C 53.5547 10.832 52.9062 11.0273 52.3828 11.418C 51.8594 11.8086 51.5977 12.2812 51.5977 12.8359L 49.418 12.8359C 49.418 12.2031 49.6406 11.5938 50.0859 11.0078C 50.5391 10.4141 51.1484 9.94531 51.9141 9.60156C 52.6875 9.25781 53.5352 9.08594 54.457 9.08594C 55.918 9.08594 57.0625 9.45312 57.8906 10.1875C 58.7188 10.9141 59.1484 11.918 59.1797 13.1992L 59.1797 19.0352C 59.1797 20.1992 59.3281 21.125 59.625 21.8125L 59.625 22L 57.3516 22ZM 53.7539 20.3477C 54.4336 20.3477 55.0781 20.1719 55.6875 19.8203C 56.2969 19.4688 56.7383 19.0117 57.0117 18.4492L 57.0117 15.8477L 55.3125 15.8477C 52.6562 15.8477 51.3281 16.625 51.3281 18.1797C 51.3281 18.8594 51.5547 19.3906 52.0078 19.7734C 52.4609 20.1562 53.043 20.3477 53.7539 20.3477ZM 68.707 11.2656C 68.3789 11.2109 68.0234 11.1836 67.6406 11.1836C 66.2188 11.1836 65.2539 11.7891 64.7461 13L 64.7461 22L 62.5781 22L 62.5781 9.32031L 64.6875 9.32031L 64.7227 10.7852C 65.4336 9.65234 66.4414 9.08594 67.7461 9.08594C 68.168 9.08594 68.4883 9.14062 68.707 9.25L 68.707 11.2656ZM 74.2383 6.25L 74.2383 9.32031L 76.6055 9.32031L 76.6055 10.9961L 74.2383 10.9961L 74.2383 18.8594C 74.2383 19.3672 74.3438 19.75 74.5547 20.0078C 74.7656 20.2578 75.125 20.3828 75.6328 20.3828C 75.8828 20.3828 76.2266 20.3359 76.6641 20.2422L 76.6641 22C 76.0938 22.1562 75.5391 22.2344 75 22.2344C 74.0312 22.2344 73.3008 21.9414 72.8086 21.3555C 72.3164 20.7695 72.0703 19.9375 72.0703 18.8594L 72.0703 10.9961L 69.7617 10.9961L 69.7617 9.32031L 72.0703 9.32031L 72.0703 6.25L 74.2383 6.25ZM 79.0664 15.0742C 79.0664 13.3086 79.3008 11.6133 79.7695 9.98828C 80.2461 8.36328 80.9531 6.88672 81.8906 5.55859C 82.8281 4.23047 83.8008 3.29297 84.8086 2.74609L 85.2539 4.17578C 84.1133 5.05078 83.1758 6.38672 82.4414 8.18359C 81.7148 9.98047 81.3164 11.9922 81.2461 14.2188L 81.2344 15.2148C 81.2344 18.2305 81.7852 20.8477 82.8867 23.0664C 83.5508 24.3945 84.3398 25.4336 85.2539 26.1836L 84.8086 27.5078C 83.7695 26.9297 82.7773 25.9609 81.832 24.6016C 79.9883 21.9453 79.0664 18.7695 79.0664 15.0742ZM 92.3555 15.1914C 92.3555 16.9336 92.125 18.6055 91.6641 20.207C 91.2109 21.8008 90.5117 23.2734 89.5664 24.625C 88.6289 25.9766 87.6445 26.9375 86.6133 27.5078L 86.1562 26.1836C 87.3594 25.2617 88.3242 23.832 89.0508 21.8945C 89.7852 19.9492 90.1602 17.793 90.1758 15.4258L 90.1758 15.0508C 90.1758 13.4102 90.0039 11.8867 89.6602 10.4805C 89.3164 9.06641 88.8359 7.80078 88.2188 6.68359C 87.6094 5.56641 86.9219 4.69531 86.1562 4.07031L 86.6133 2.74609C 87.6445 3.31641 88.625 4.26953 89.5547 5.60547C 90.4922 6.94141 91.1914 8.41406 91.6523 10.0234C 92.1211 11.6328 92.3555 13.3555 92.3555 15.1914Z"/>
<path id="path5_fill" d="M 4.58203 6.25L 4.58203 9.32031L 6.94922 9.32031L 6.94922 10.9961L 4.58203 10.9961L 4.58203 18.8594C 4.58203 19.3672 4.6875 19.75 4.89844 20.0078C 5.10938 20.2578 5.46875 20.3828 5.97656 20.3828C 6.22656 20.3828 6.57031 20.3359 7.00781 20.2422L 7.00781 22C 6.4375 22.1562 5.88281 22.2344 5.34375 22.2344C 4.375 22.2344 3.64453 21.9414 3.15234 21.3555C 2.66016 20.7695 2.41406 19.9375 2.41406 18.8594L 2.41406 10.9961L 0.105469 10.9961L 0.105469 9.32031L 2.41406 9.32031L 2.41406 6.25L 4.58203 6.25ZM 20.4492 22L 9.26953 22L 9.26953 20.4414L 15.1758 13.8789C 16.0508 12.8867 16.6523 12.082 16.9805 11.4648C 17.3164 10.8398 17.4844 10.1953 17.4844 9.53125C 17.4844 8.64062 17.2148 7.91016 16.6758 7.33984C 16.1367 6.76953 15.418 6.48438 14.5195 6.48438C 13.4414 6.48438 12.6016 6.79297 12 7.41016C 11.4062 8.01953 11.1094 8.87109 11.1094 9.96484L 8.94141 9.96484C 8.94141 8.39453 9.44531 7.125 10.4531 6.15625C 11.4688 5.1875 12.8242 4.70312 14.5195 4.70312C 16.1055 4.70312 17.3594 5.12109 18.2812 5.95703C 19.2031 6.78516 19.6641 7.89062 19.6641 9.27344C 19.6641 10.9531 18.5938 12.9531 16.4531 15.2734L 11.8828 20.2305L 20.4492 20.2305L 20.4492 22ZM 23.0156 20.8633C 23.0156 20.4883 23.125 20.1758 23.3438 19.9258C 23.5703 19.6758 23.9062 19.5508 24.3516 19.5508C 24.7969 19.5508 25.1328 19.6758 25.3594 19.9258C 25.5938 20.1758 25.7109 20.4883 25.7109 20.8633C 25.7109 21.2227 25.5938 21.5234 25.3594 21.7656C 25.1328 22.0078 24.7969 22.1289 24.3516 22.1289C 23.9062 22.1289 23.5703 22.0078 23.3438 21.7656C 23.125 21.5234 23.0156 21.2227 23.0156 20.8633ZM 36.6797 18.6367C 36.6797 18.0508 36.457 17.5977 36.0117 17.2773C 35.5742 16.9492 34.8047 16.668 33.7031 16.4336C 32.6094 16.1992 31.7383 15.918 31.0898 15.5898C 30.4492 15.2617 29.9727 14.8711 29.6602 14.418C 29.3555 13.9648 29.2031 13.4258 29.2031 12.8008C 29.2031 11.7617 29.6406 10.8828 30.5156 10.1641C 31.3984 9.44531 32.5234 9.08594 33.8906 9.08594C 35.3281 9.08594 36.4922 9.45703 37.3828 10.1992C 38.2812 10.9414 38.7305 11.8906 38.7305 13.0469L 36.5508 13.0469C 36.5508 12.4531 36.2969 11.9414 35.7891 11.5117C 35.2891 11.082 34.6562 10.8672 33.8906 10.8672C 33.1016 10.8672 32.4844 11.0391 32.0391 11.3828C 31.5938 11.7266 31.3711 12.1758 31.3711 12.7305C 31.3711 13.2539 31.5781 13.6484 31.9922 13.9141C 32.4062 14.1797 33.1523 14.4336 34.2305 14.6758C 35.3164 14.918 36.1953 15.207 36.8672 15.543C 37.5391 15.8789 38.0352 16.2852 38.3555 16.7617C 38.6836 17.2305 38.8477 17.8047 38.8477 18.4844C 38.8477 19.6172 38.3945 20.5273 37.4883 21.2148C 36.582 21.8945 35.4062 22.2344 33.9609 22.2344C 32.9453 22.2344 32.0469 22.0547 31.2656 21.6953C 30.4844 21.3359 29.8711 20.8359 29.4258 20.1953C 28.9883 19.5469 28.7695 18.8477 28.7695 18.0977L 30.9375 18.0977C 30.9766 18.8242 31.2656 19.4023 31.8047 19.832C 32.3516 20.2539 33.0703 20.4648 33.9609 20.4648C 34.7812 20.4648 35.4375 20.3008 35.9297 19.9727C 36.4297 19.6367 36.6797 19.1914 36.6797 18.6367ZM 44.6133 6.25L 44.6133 9.32031L 46.9805 9.32031L 46.9805 10.9961L 44.6133 10.9961L 44.6133 18.8594C 44.6133 19.3672 44.7188 19.75 44.9297 20.0078C 45.1406 20.2578 45.5 20.3828 46.0078 20.3828C 46.2578 20.3828 46.6016 20.3359 47.0391 20.2422L 47.0391 22C 46.4688 22.1562 45.9141 22.2344 45.375 22.2344C 44.4062 22.2344 43.6758 21.9414 43.1836 21.3555C 42.6914 20.7695 42.4453 19.9375 42.4453 18.8594L 42.4453 10.9961L 40.1367 10.9961L 40.1367 9.32031L 42.4453 9.32031L 42.4453 6.25L 44.6133 6.25ZM 57.3516 22C 57.2266 21.75 57.125 21.3047 57.0469 20.6641C 56.0391 21.7109 54.8359 22.2344 53.4375 22.2344C 52.1875 22.2344 51.1602 21.8828 50.3555 21.1797C 49.5586 20.4688 49.1602 19.5703 49.1602 18.4844C 49.1602 17.1641 49.6602 16.1406 50.6602 15.4141C 51.668 14.6797 53.082 14.3125 54.9023 14.3125L 57.0117 14.3125L 57.0117 13.3164C 57.0117 12.5586 56.7852 11.957 56.332 11.5117C 55.8789 11.0586 55.2109 10.832 54.3281 10.832C 53.5547 10.832 52.9062 11.0273 52.3828 11.418C 51.8594 11.8086 51.5977 12.2812 51.5977 12.8359L 49.418 12.8359C 49.418 12.2031 49.6406 11.5938 50.0859 11.0078C 50.5391 10.4141 51.1484 9.94531 51.9141 9.60156C 52.6875 9.25781 53.5352 9.08594 54.457 9.08594C 55.918 9.08594 57.0625 9.45312 57.8906 10.1875C 58.7188 10.9141 59.1484 11.918 59.1797 13.1992L 59.1797 19.0352C 59.1797 20.1992 59.3281 21.125 59.625 21.8125L 59.625 22L 57.3516 22ZM 53.7539 20.3477C 54.4336 20.3477 55.0781 20.1719 55.6875 19.8203C 56.2969 19.4688 56.7383 19.0117 57.0117 18.4492L 57.0117 15.8477L 55.3125 15.8477C 52.6562 15.8477 51.3281 16.625 51.3281 18.1797C 51.3281 18.8594 51.5547 19.3906 52.0078 19.7734C 52.4609 20.1562 53.043 20.3477 53.7539 20.3477ZM 68.707 11.2656C 68.3789 11.2109 68.0234 11.1836 67.6406 11.1836C 66.2188 11.1836 65.2539 11.7891 64.7461 13L 64.7461 22L 62.5781 22L 62.5781 9.32031L 64.6875 9.32031L 64.7227 10.7852C 65.4336 9.65234 66.4414 9.08594 67.7461 9.08594C 68.168 9.08594 68.4883 9.14062 68.707 9.25L 68.707 11.2656ZM 74.2383 6.25L 74.2383 9.32031L 76.6055 9.32031L 76.6055 10.9961L 74.2383 10.9961L 74.2383 18.8594C 74.2383 19.3672 74.3438 19.75 74.5547 20.0078C 74.7656 20.2578 75.125 20.3828 75.6328 20.3828C 75.8828 20.3828 76.2266 20.3359 76.6641 20.2422L 76.6641 22C 76.0938 22.1562 75.5391 22.2344 75 22.2344C 74.0312 22.2344 73.3008 21.9414 72.8086 21.3555C 72.3164 20.7695 72.0703 19.9375 72.0703 18.8594L 72.0703 10.9961L 69.7617 10.9961L 69.7617 9.32031L 72.0703 9.32031L 72.0703 6.25L 74.2383 6.25ZM 79.0664 15.0742C 79.0664 13.3086 79.3008 11.6133 79.7695 9.98828C 80.2461 8.36328 80.9531 6.88672 81.8906 5.55859C 82.8281 4.23047 83.8008 3.29297 84.8086 2.74609L 85.2539 4.17578C 84.1133 5.05078 83.1758 6.38672 82.4414 8.18359C 81.7148 9.98047 81.3164 11.9922 81.2461 14.2188L 81.2344 15.2148C 81.2344 18.2305 81.7852 20.8477 82.8867 23.0664C 83.5508 24.3945 84.3398 25.4336 85.2539 26.1836L 84.8086 27.5078C 83.7695 26.9297 82.7773 25.9609 81.832 24.6016C 79.9883 21.9453 79.0664 18.7695 79.0664 15.0742ZM 92.3555 15.1914C 92.3555 16.9336 92.125 18.6055 91.6641 20.207C 91.2109 21.8008 90.5117 23.2734 89.5664 24.625C 88.6289 25.9766 87.6445 26.9375 86.6133 27.5078L 86.1562 26.1836C 87.3594 25.2617 88.3242 23.832 89.0508 21.8945C 89.7852 19.9492 90.1602 17.793 90.1758 15.4258L 90.1758 15.0508C 90.1758 13.4102 90.0039 11.8867 89.6602 10.4805C 89.3164 9.06641 88.8359 7.80078 88.2188 6.68359C 87.6094 5.56641 86.9219 4.69531 86.1562 4.07031L 86.6133 2.74609C 87.6445 3.31641 88.625 4.26953 89.5547 5.60547C 90.4922 6.94141 91.1914 8.41406 91.6523 10.0234C 92.1211 11.6328 92.3555 13.3555 92.3555 15.1914Z"/>
<path id="path6_stroke" d="M 61.3536 0.353553C 61.5488 0.158291 61.5488 -0.158291 61.3536 -0.353553L 58.1716 -3.53553C 57.9763 -3.7308 57.6597 -3.7308 57.4645 -3.53553C 57.2692 -3.34027 57.2692 -3.02369 57.4645 -2.82843L 60.2929 0L 57.4645 2.82843C 57.2692 3.02369 57.2692 3.34027 57.4645 3.53553C 57.6597 3.7308 57.9763 3.7308 58.1716 3.53553L 61.3536 0.353553ZM 0 0.5L 61 0.5L 61 -0.5L 0 -0.5L 0 0.5Z"/>
<path id="path7_fill" d="M 3.25781 3.77734L 4.5 4.62109C 3.77344 5.61328 3.39844 6.68359 3.375 7.83203L 3.375 9.42578L 1.21875 9.42578L 1.21875 8.06641C 1.21875 7.26953 1.40625 6.48047 1.78125 5.69922C 2.16406 4.91797 2.65625 4.27734 3.25781 3.77734ZM 6.94922 3.77734L 8.19141 4.62109C 7.46484 5.61328 7.08984 6.68359 7.06641 7.83203L 7.06641 9.42578L 4.91016 9.42578L 4.91016 8.06641C 4.91016 7.26953 5.09766 6.48047 5.47266 5.69922C 5.85547 4.91797 6.34766 4.27734 6.94922 3.77734ZM 13.3711 4.9375L 18.9492 18.8594L 24.5273 4.9375L 27.4453 4.9375L 27.4453 22L 25.1953 22L 25.1953 15.3555L 25.4062 8.18359L 19.8047 22L 18.082 22L 12.4922 8.21875L 12.7148 15.3555L 12.7148 22L 10.4648 22L 10.4648 4.9375L 13.3711 4.9375ZM 38.9062 22C 38.7812 21.75 38.6797 21.3047 38.6016 20.6641C 37.5938 21.7109 36.3906 22.2344 34.9922 22.2344C 33.7422 22.2344 32.7148 21.8828 31.9102 21.1797C 31.1133 20.4688 30.7148 19.5703 30.7148 18.4844C 30.7148 17.1641 31.2148 16.1406 32.2148 15.4141C 33.2227 14.6797 34.6367 14.3125 36.457 14.3125L 38.5664 14.3125L 38.5664 13.3164C 38.5664 12.5586 38.3398 11.957 37.8867 11.5117C 37.4336 11.0586 36.7656 10.832 35.8828 10.832C 35.1094 10.832 34.4609 11.0273 33.9375 11.418C 33.4141 11.8086 33.1523 12.2812 33.1523 12.8359L 30.9727 12.8359C 30.9727 12.2031 31.1953 11.5938 31.6406 11.0078C 32.0938 10.4141 32.7031 9.94531 33.4688 9.60156C 34.2422 9.25781 35.0898 9.08594 36.0117 9.08594C 37.4727 9.08594 38.6172 9.45312 39.4453 10.1875C 40.2734 10.9141 40.7031 11.918 40.7344 13.1992L 40.7344 19.0352C 40.7344 20.1992 40.8828 21.125 41.1797 21.8125L 41.1797 22L 38.9062 22ZM 35.3086 20.3477C 35.9883 20.3477 36.6328 20.1719 37.2422 19.8203C 37.8516 19.4688 38.293 19.0117 38.5664 18.4492L 38.5664 15.8477L 36.8672 15.8477C 34.2109 15.8477 32.8828 16.625 32.8828 18.1797C 32.8828 18.8594 33.1094 19.3906 33.5625 19.7734C 34.0156 20.1562 34.5977 20.3477 35.3086 20.3477ZM 46.4883 22L 44.3203 22L 44.3203 9.32031L 46.4883 9.32031L 46.4883 22ZM 44.1445 5.95703C 44.1445 5.60547 44.25 5.30859 44.4609 5.06641C 44.6797 4.82422 45 4.70312 45.4219 4.70312C 45.8438 4.70312 46.1641 4.82422 46.3828 5.06641C 46.6016 5.30859 46.7109 5.60547 46.7109 5.95703C 46.7109 6.30859 46.6016 6.60156 46.3828 6.83594C 46.1641 7.07031 45.8438 7.1875 45.4219 7.1875C 45 7.1875 44.6797 7.07031 44.4609 6.83594C 44.25 6.60156 44.1445 6.30859 44.1445 5.95703ZM 52.0195 9.32031L 52.0898 10.9141C 53.0586 9.69531 54.3242 9.08594 55.8867 9.08594C 58.5664 9.08594 59.918 10.5977 59.9414 13.6211L 59.9414 22L 57.7734 22L 57.7734 13.6094C 57.7656 12.6953 57.5547 12.0195 57.1406 11.582C 56.7344 11.1445 56.0977 10.9258 55.2305 10.9258C 54.5273 10.9258 53.9102 11.1133 53.3789 11.4883C 52.8477 11.8633 52.4336 12.3555 52.1367 12.9648L 52.1367 22L 49.9688 22L 49.9688 9.32031L 52.0195 9.32031ZM 62.2852 9.74219L 61.0547 8.89844C 61.7812 7.88281 62.1562 6.8125 62.1797 5.6875L 62.1797 4L 64.3242 4L 64.3242 5.52344C 64.3164 6.30469 64.1211 7.08594 63.7383 7.86719C 63.3633 8.64062 62.8789 9.26562 62.2852 9.74219ZM 65.8828 9.74219L 64.6523 8.89844C 65.3789 7.88281 65.7539 6.8125 65.7773 5.6875L 65.7773 4L 67.9219 4L 67.9219 5.52344C 67.9141 6.30469 67.7188 7.08594 67.3359 7.86719C 66.9609 8.64062 66.4766 9.26562 65.8828 9.74219ZM 88.1836 6.78906L 82.6992 6.78906L 82.6992 22L 80.4609 22L 80.4609 6.78906L 74.9883 6.78906L 74.9883 4.9375L 88.1836 4.9375L 88.1836 6.78906ZM 92.543 10.8555C 93.5039 9.67578 94.7539 9.08594 96.293 9.08594C 98.9727 9.08594 100.324 10.5977 100.348 13.6211L 100.348 22L 98.1797 22L 98.1797 13.6094C 98.1719 12.6953 97.9609 12.0195 97.5469 11.582C 97.1406 11.1445 96.5039 10.9258 95.6367 10.9258C 94.9336 10.9258 94.3164 11.1133 93.7852 11.4883C 93.2539 11.8633 92.8398 12.3555 92.543 12.9648L 92.543 22L 90.375 22L 90.375 4L 92.543 4L 92.543 10.8555ZM 109.723 11.2656C 109.395 11.2109 109.039 11.1836 108.656 11.1836C 107.234 11.1836 106.27 11.7891 105.762 13L 105.762 22L 103.594 22L 103.594 9.32031L 105.703 9.32031L 105.738 10.7852C 106.449 9.65234 107.457 9.08594 108.762 9.08594C 109.184 9.08594 109.504 9.14062 109.723 9.25L 109.723 11.2656ZM 116.777 22.2344C 115.059 22.2344 113.66 21.6719 112.582 20.5469C 111.504 19.4141 110.965 17.9023 110.965 16.0117L 110.965 15.6133C 110.965 14.3555 111.203 13.2344 111.68 12.25C 112.164 11.2578 112.836 10.4844 113.695 9.92969C 114.562 9.36719 115.5 9.08594 116.508 9.08594C 118.156 9.08594 119.438 9.62891 120.352 10.7148C 121.266 11.8008 121.723 13.3555 121.723 15.3789L 121.723 16.2812L 113.133 16.2812C 113.164 17.5312 113.527 18.543 114.223 19.3164C 114.926 20.082 115.816 20.4648 116.895 20.4648C 117.66 20.4648 118.309 20.3086 118.84 19.9961C 119.371 19.6836 119.836 19.2695 120.234 18.7539L 121.559 19.7852C 120.496 21.418 118.902 22.2344 116.777 22.2344ZM 116.508 10.8672C 115.633 10.8672 114.898 11.1875 114.305 11.8281C 113.711 12.4609 113.344 13.3516 113.203 14.5L 119.555 14.5L 119.555 14.3359C 119.492 13.2344 119.195 12.3828 118.664 11.7812C 118.133 11.1719 117.414 10.8672 116.508 10.8672ZM 132.07 22C 131.945 21.75 131.844 21.3047 131.766 20.6641C 130.758 21.7109 129.555 22.2344 128.156 22.2344C 126.906 22.2344 125.879 21.8828 125.074 21.1797C 124.277 20.4688 123.879 19.5703 123.879 18.4844C 123.879 17.1641 124.379 16.1406 125.379 15.4141C 126.387 14.6797 127.801 14.3125 129.621 14.3125L 131.73 14.3125L 131.73 13.3164C 131.73 12.5586 131.504 11.957 131.051 11.5117C 130.598 11.0586 129.93 10.832 129.047 10.832C 128.273 10.832 127.625 11.0273 127.102 11.418C 126.578 11.8086 126.316 12.2812 126.316 12.8359L 124.137 12.8359C 124.137 12.2031 124.359 11.5938 124.805 11.0078C 125.258 10.4141 125.867 9.94531 126.633 9.60156C 127.406 9.25781 128.254 9.08594 129.176 9.08594C 130.637 9.08594 131.781 9.45312 132.609 10.1875C 133.438 10.9141 133.867 11.918 133.898 13.1992L 133.898 19.0352C 133.898 20.1992 134.047 21.125 134.344 21.8125L 134.344 22L 132.07 22ZM 128.473 20.3477C 129.152 20.3477 129.797 20.1719 130.406 19.8203C 131.016 19.4688 131.457 19.0117 131.73 18.4492L 131.73 15.8477L 130.031 15.8477C 127.375 15.8477 126.047 16.625 126.047 18.1797C 126.047 18.8594 126.273 19.3906 126.727 19.7734C 127.18 20.1562 127.762 20.3477 128.473 20.3477ZM 136.77 15.5547C 136.77 13.6094 137.23 12.0469 138.152 10.8672C 139.074 9.67969 140.281 9.08594 141.773 9.08594C 143.258 9.08594 144.434 9.59375 145.301 10.6094L 145.301 4L 147.469 4L 147.469 22L 145.477 22L 145.371 20.6406C 144.504 21.7031 143.297 22.2344 141.75 22.2344C 140.281 22.2344 139.082 21.6328 138.152 20.4297C 137.23 19.2266 136.77 17.6562 136.77 15.7188L 136.77 15.5547ZM 138.938 15.8008C 138.938 17.2383 139.234 18.3633 139.828 19.1758C 140.422 19.9883 141.242 20.3945 142.289 20.3945C 143.664 20.3945 144.668 19.7773 145.301 18.543L 145.301 12.7188C 144.652 11.5234 143.656 10.9258 142.312 10.9258C 141.25 10.9258 140.422 11.3359 139.828 12.1562C 139.234 12.9766 138.938 14.1914 138.938 15.8008Z"/>
<path id="path8_fill" d="M 1.98047 22L 1.98047 4.9375L 6.79688 4.9375C 8.28125 4.9375 9.59375 5.26562 10.7344 5.92188C 11.875 6.57812 12.7539 7.51172 13.3711 8.72266C 13.9961 9.93359 14.3125 11.3242 14.3203 12.8945L 14.3203 13.9844C 14.3203 15.5938 14.0078 17.0039 13.3828 18.2148C 12.7656 19.4258 11.8789 20.3555 10.7227 21.0039C 9.57422 21.6523 8.23438 21.9844 6.70312 22L 1.98047 22ZM 4.23047 6.78906L 4.23047 20.1602L 6.59766 20.1602C 8.33203 20.1602 9.67969 19.6211 10.6406 18.543C 11.6094 17.4648 12.0938 15.9297 12.0938 13.9375L 12.0938 12.9414C 12.0938 11.0039 11.6367 9.5 10.7227 8.42969C 9.81641 7.35156 8.52734 6.80469 6.85547 6.78906L 4.23047 6.78906ZM 16.8164 15.543C 16.8164 14.3008 17.0586 13.1836 17.543 12.1914C 18.0352 11.1992 18.7148 10.4336 19.582 9.89453C 20.457 9.35547 21.4531 9.08594 22.5703 9.08594C 24.2969 9.08594 25.6914 9.68359 26.7539 10.8789C 27.8242 12.0742 28.3594 13.6641 28.3594 15.6484L 28.3594 15.8008C 28.3594 17.0352 28.1211 18.1445 27.6445 19.1289C 27.1758 20.1055 26.5 20.8672 25.6172 21.4141C 24.7422 21.9609 23.7344 22.2344 22.5938 22.2344C 20.875 22.2344 19.4805 21.6367 18.4102 20.4414C 17.3477 19.2461 16.8164 17.6641 16.8164 15.6953L 16.8164 15.543ZM 18.9961 15.8008C 18.9961 17.207 19.3203 18.3359 19.9688 19.1875C 20.625 20.0391 21.5 20.4648 22.5938 20.4648C 23.6953 20.4648 24.5703 20.0352 25.2188 19.1758C 25.8672 18.3086 26.1914 17.0977 26.1914 15.543C 26.1914 14.1523 25.8594 13.0273 25.1953 12.168C 24.5391 11.3008 23.6641 10.8672 22.5703 10.8672C 21.5 10.8672 20.6367 11.293 19.9805 12.1445C 19.3242 12.9961 18.9961 14.2148 18.9961 15.8008ZM 33.1289 9.32031L 33.1992 10.9141C 34.168 9.69531 35.4336 9.08594 36.9961 9.08594C 39.6758 9.08594 41.0273 10.5977 41.0508 13.6211L 41.0508 22L 38.8828 22L 38.8828 13.6094C 38.875 12.6953 38.6641 12.0195 38.25 11.582C 37.8438 11.1445 37.207 10.9258 36.3398 10.9258C 35.6367 10.9258 35.0195 11.1133 34.4883 11.4883C 33.957 11.8633 33.543 12.3555 33.2461 12.9648L 33.2461 22L 31.0781 22L 31.0781 9.32031L 33.1289 9.32031ZM 49.582 22.2344C 47.8633 22.2344 46.4648 21.6719 45.3867 20.5469C 44.3086 19.4141 43.7695 17.9023 43.7695 16.0117L 43.7695 15.6133C 43.7695 14.3555 44.0078 13.2344 44.4844 12.25C 44.9688 11.2578 45.6406 10.4844 46.5 9.92969C 47.3672 9.36719 48.3047 9.08594 49.3125 9.08594C 50.9609 9.08594 52.2422 9.62891 53.1562 10.7148C 54.0703 11.8008 54.5273 13.3555 54.5273 15.3789L 54.5273 16.2812L 45.9375 16.2812C 45.9688 17.5312 46.332 18.543 47.0273 19.3164C 47.7305 20.082 48.6211 20.4648 49.6992 20.4648C 50.4648 20.4648 51.1133 20.3086 51.6445 19.9961C 52.1758 19.6836 52.6406 19.2695 53.0391 18.7539L 54.3633 19.7852C 53.3008 21.418 51.707 22.2344 49.582 22.2344ZM 49.3125 10.8672C 48.4375 10.8672 47.7031 11.1875 47.1094 11.8281C 46.5156 12.4609 46.1484 13.3516 46.0078 14.5L 52.3594 14.5L 52.3594 14.3359C 52.2969 13.2344 52 12.3828 51.4688 11.7812C 50.9375 11.1719 50.2188 10.8672 49.3125 10.8672Z"/>
<path id="path9_fill" d="M 11.4023 17.5469L 4.25391 17.5469L 2.64844 22L 0.328125 22L 6.84375 4.9375L 8.8125 4.9375L 15.3398 22L 13.0312 22L 11.4023 17.5469ZM 4.93359 15.6953L 10.7344 15.6953L 7.82812 7.71484L 4.93359 15.6953ZM 27.9258 6.78906L 22.4414 6.78906L 22.4414 22L 20.2031 22L 20.2031 6.78906L 14.7305 6.78906L 14.7305 4.9375L 27.9258 4.9375L 27.9258 6.78906ZM 32.7188 20.1602L 40.8047 20.1602L 40.8047 22L 30.457 22L 30.457 4.9375L 32.7188 4.9375L 32.7188 20.1602ZM 60.6445 6.78906L 55.1602 6.78906L 55.1602 22L 52.9219 22L 52.9219 6.78906L 47.4492 6.78906L 47.4492 4.9375L 60.6445 4.9375L 60.6445 6.78906ZM 65.0039 10.8555C 65.9648 9.67578 67.2148 9.08594 68.7539 9.08594C 71.4336 9.08594 72.7852 10.5977 72.8086 13.6211L 72.8086 22L 70.6406 22L 70.6406 13.6094C 70.6328 12.6953 70.4219 12.0195 70.0078 11.582C 69.6016 11.1445 68.9648 10.9258 68.0977 10.9258C 67.3945 10.9258 66.7773 11.1133 66.2461 11.4883C 65.7148 11.8633 65.3008 12.3555 65.0039 12.9648L 65.0039 22L 62.8359 22L 62.8359 4L 65.0039 4L 65.0039 10.8555ZM 82.1836 11.2656C 81.8555 11.2109 81.5 11.1836 81.1172 11.1836C 79.6953 11.1836 78.7305 11.7891 78.2227 13L 78.2227 22L 76.0547 22L 76.0547 9.32031L 78.1641 9.32031L 78.1992 10.7852C 78.9102 9.65234 79.918 9.08594 81.2227 9.08594C 81.6445 9.08594 81.9648 9.14062 82.1836 9.25L 82.1836 11.2656ZM 89.2383 22.2344C 87.5195 22.2344 86.1211 21.6719 85.043 20.5469C 83.9648 19.4141 83.4258 17.9023 83.4258 16.0117L 83.4258 15.6133C 83.4258 14.3555 83.6641 13.2344 84.1406 12.25C 84.625 11.2578 85.2969 10.4844 86.1562 9.92969C 87.0234 9.36719 87.9609 9.08594 88.9688 9.08594C 90.6172 9.08594 91.8984 9.62891 92.8125 10.7148C 93.7266 11.8008 94.1836 13.3555 94.1836 15.3789L 94.1836 16.2812L 85.5938 16.2812C 85.625 17.5312 85.9883 18.543 86.6836 19.3164C 87.3867 20.082 88.2773 20.4648 89.3555 20.4648C 90.1211 20.4648 90.7695 20.3086 91.3008 19.9961C 91.832 19.6836 92.2969 19.2695 92.6953 18.7539L 94.0195 19.7852C 92.957 21.418 91.3633 22.2344 89.2383 22.2344ZM 88.9688 10.8672C 88.0938 10.8672 87.3594 11.1875 86.7656 11.8281C 86.1719 12.4609 85.8047 13.3516 85.6641 14.5L 92.0156 14.5L 92.0156 14.3359C 91.9531 13.2344 91.6562 12.3828 91.125 11.7812C 90.5938 11.1719 89.875 10.8672 88.9688 10.8672ZM 104.531 22C 104.406 21.75 104.305 21.3047 104.227 20.6641C 103.219 21.7109 102.016 22.2344 100.617 22.2344C 99.3672 22.2344 98.3398 21.8828 97.5352 21.1797C 96.7383 20.4688 96.3398 19.5703 96.3398 18.4844C 96.3398 17.1641 96.8398 16.1406 97.8398 15.4141C 98.8477 14.6797 100.262 14.3125 102.082 14.3125L 104.191 14.3125L 104.191 13.3164C 104.191 12.5586 103.965 11.957 103.512 11.5117C 103.059 11.0586 102.391 10.832 101.508 10.832C 100.734 10.832 100.086 11.0273 99.5625 11.418C 99.0391 11.8086 98.7773 12.2812 98.7773 12.8359L 96.5977 12.8359C 96.5977 12.2031 96.8203 11.5938 97.2656 11.0078C 97.7188 10.4141 98.3281 9.94531 99.0938 9.60156C 99.8672 9.25781 100.715 9.08594 101.637 9.08594C 103.098 9.08594 104.242 9.45312 105.07 10.1875C 105.898 10.9141 106.328 11.918 106.359 13.1992L 106.359 19.0352C 106.359 20.1992 106.508 21.125 106.805 21.8125L 106.805 22L 104.531 22ZM 100.934 20.3477C 101.613 20.3477 102.258 20.1719 102.867 19.8203C 103.477 19.4688 103.918 19.0117 104.191 18.4492L 104.191 15.8477L 102.492 15.8477C 99.8359 15.8477 98.5078 16.625 98.5078 18.1797C 98.5078 18.8594 98.7344 19.3906 99.1875 19.7734C 99.6406 20.1562 100.223 20.3477 100.934 20.3477ZM 109.23 15.5547C 109.23 13.6094 109.691 12.0469 110.613 10.8672C 111.535 9.67969 112.742 9.08594 114.234 9.08594C 115.719 9.08594 116.895 9.59375 117.762 10.6094L 117.762 4L 119.93 4L 119.93 22L 117.938 22L 117.832 20.6406C 116.965 21.7031 115.758 22.2344 114.211 22.2344C 112.742 22.2344 111.543 21.6328 110.613 20.4297C 109.691 19.2266 109.23 17.6562 109.23 15.7188L 109.23 15.5547ZM 111.398 15.8008C 111.398 17.2383 111.695 18.3633 112.289 19.1758C 112.883 19.9883 113.703 20.3945 114.75 20.3945C 116.125 20.3945 117.129 19.7773 117.762 18.543L 117.762 12.7188C 117.113 11.5234 116.117 10.9258 114.773 10.9258C 113.711 10.9258 112.883 11.3359 112.289 12.1562C 111.695 12.9766 111.398 14.1914 111.398 15.8008Z"/>
<path id="path10_fill" d="M 1.98047 22L 1.98047 4.9375L 7.55859 4.9375C 9.41016 4.9375 10.8008 5.32031 11.7305 6.08594C 12.668 6.85156 13.1367 7.98438 13.1367 9.48438C 13.1367 10.2812 12.9102 10.9883 12.457 11.6055C 12.0039 12.2148 11.3867 12.6875 10.6055 13.0234C 11.5273 13.2812 12.2539 13.7734 12.7852 14.5C 13.3242 15.2188 13.5938 16.0781 13.5938 17.0781C 13.5938 18.6094 13.0977 19.8125 12.1055 20.6875C 11.1133 21.5625 9.71094 22 7.89844 22L 1.98047 22ZM 4.23047 14.0195L 4.23047 20.1602L 7.94531 20.1602C 8.99219 20.1602 9.81641 19.8906 10.418 19.3516C 11.0273 18.8047 11.332 18.0547 11.332 17.1016C 11.332 15.0469 10.2148 14.0195 7.98047 14.0195L 4.23047 14.0195ZM 4.23047 12.2148L 7.62891 12.2148C 8.61328 12.2148 9.39844 11.9688 9.98438 11.4766C 10.5781 10.9844 10.875 10.3164 10.875 9.47266C 10.875 8.53516 10.6016 7.85547 10.0547 7.43359C 9.50781 7.00391 8.67578 6.78906 7.55859 6.78906L 4.23047 6.78906L 4.23047 12.2148ZM 30.0586 14.0195C 30.0586 15.6914 29.7773 17.1523 29.2148 18.4023C 28.6523 19.6445 27.8555 20.5938 26.8242 21.25C 25.793 21.9062 24.5898 22.2344 23.2148 22.2344C 21.8711 22.2344 20.6797 21.9062 19.6406 21.25C 18.6016 20.5859 17.793 19.6445 17.2148 18.4258C 16.6445 17.1992 16.3516 15.7812 16.3359 14.1719L 16.3359 12.9414C 16.3359 11.3008 16.6211 9.85156 17.1914 8.59375C 17.7617 7.33594 18.5664 6.375 19.6055 5.71094C 20.6523 5.03906 21.8477 4.70312 23.1914 4.70312C 24.5586 4.70312 25.7617 5.03516 26.8008 5.69922C 27.8477 6.35547 28.6523 7.3125 29.2148 8.57031C 29.7773 9.82031 30.0586 11.2773 30.0586 12.9414L 30.0586 14.0195ZM 27.8203 12.918C 27.8203 10.8945 27.4141 9.34375 26.6016 8.26562C 25.7891 7.17969 24.6523 6.63672 23.1914 6.63672C 21.7695 6.63672 20.6484 7.17969 19.8281 8.26562C 19.0156 9.34375 18.5977 10.8438 18.5742 12.7656L 18.5742 14.0195C 18.5742 15.9805 18.9844 17.5234 19.8047 18.6484C 20.6328 19.7656 21.7695 20.3242 23.2148 20.3242C 24.668 20.3242 25.793 19.7969 26.5898 18.7422C 27.3867 17.6797 27.7969 16.1602 27.8203 14.1836L 27.8203 12.918ZM 38.4609 14.3945C 36.5312 13.8398 35.125 13.1602 34.2422 12.3555C 33.3672 11.543 32.9297 10.543 32.9297 9.35547C 32.9297 8.01172 33.4648 6.90234 34.5352 6.02734C 35.6133 5.14453 37.0117 4.70312 38.7305 4.70312C 39.9023 4.70312 40.9453 4.92969 41.8594 5.38281C 42.7812 5.83594 43.4922 6.46094 43.9922 7.25781C 44.5 8.05469 44.7539 8.92578 44.7539 9.87109L 42.4922 9.87109C 42.4922 8.83984 42.1641 8.03125 41.5078 7.44531C 40.8516 6.85156 39.9258 6.55469 38.7305 6.55469C 37.6211 6.55469 36.7539 6.80078 36.1289 7.29297C 35.5117 7.77734 35.2031 8.45312 35.2031 9.32031C 35.2031 10.0156 35.4961 10.6055 36.082 11.0898C 36.6758 11.5664 37.6797 12.0039 39.0938 12.4023C 40.5156 12.8008 41.625 13.2422 42.4219 13.7266C 43.2266 14.2031 43.8203 14.7617 44.2031 15.4023C 44.5938 16.043 44.7891 16.7969 44.7891 17.6641C 44.7891 19.0469 44.25 20.1562 43.1719 20.9922C 42.0938 21.8203 40.6523 22.2344 38.8477 22.2344C 37.6758 22.2344 36.582 22.0117 35.5664 21.5664C 34.5508 21.1133 33.7656 20.4961 33.2109 19.7148C 32.6641 18.9336 32.3906 18.0469 32.3906 17.0547L 34.6523 17.0547C 34.6523 18.0859 35.0312 18.9023 35.7891 19.5039C 36.5547 20.0977 37.5742 20.3945 38.8477 20.3945C 40.0352 20.3945 40.9453 20.1523 41.5781 19.668C 42.2109 19.1836 42.5273 18.5234 42.5273 17.6875C 42.5273 16.8516 42.2344 16.207 41.6484 15.7539C 41.0625 15.293 40 14.8398 38.4609 14.3945ZM 64.957 6.78906L 59.4727 6.78906L 59.4727 22L 57.2344 22L 57.2344 6.78906L 51.7617 6.78906L 51.7617 4.9375L 64.957 4.9375L 64.957 6.78906ZM 69.3164 10.8555C 70.2773 9.67578 71.5273 9.08594 73.0664 9.08594C 75.7461 9.08594 77.0977 10.5977 77.1211 13.6211L 77.1211 22L 74.9531 22L 74.9531 13.6094C 74.9453 12.6953 74.7344 12.0195 74.3203 11.582C 73.9141 11.1445 73.2773 10.9258 72.4102 10.9258C 71.707 10.9258 71.0898 11.1133 70.5586 11.4883C 70.0273 11.8633 69.6133 12.3555 69.3164 12.9648L 69.3164 22L 67.1484 22L 67.1484 4L 69.3164 4L 69.3164 10.8555ZM 86.4961 11.2656C 86.168 11.2109 85.8125 11.1836 85.4297 11.1836C 84.0078 11.1836 83.043 11.7891 82.5352 13L 82.5352 22L 80.3672 22L 80.3672 9.32031L 82.4766 9.32031L 82.5117 10.7852C 83.2227 9.65234 84.2305 9.08594 85.5352 9.08594C 85.957 9.08594 86.2773 9.14062 86.4961 9.25L 86.4961 11.2656ZM 93.5508 22.2344C 91.832 22.2344 90.4336 21.6719 89.3555 20.5469C 88.2773 19.4141 87.7383 17.9023 87.7383 16.0117L 87.7383 15.6133C 87.7383 14.3555 87.9766 13.2344 88.4531 12.25C 88.9375 11.2578 89.6094 10.4844 90.4688 9.92969C 91.3359 9.36719 92.2734 9.08594 93.2812 9.08594C 94.9297 9.08594 96.2109 9.62891 97.125 10.7148C 98.0391 11.8008 98.4961 13.3555 98.4961 15.3789L 98.4961 16.2812L 89.9062 16.2812C 89.9375 17.5312 90.3008 18.543 90.9961 19.3164C 91.6992 20.082 92.5898 20.4648 93.668 20.4648C 94.4336 20.4648 95.082 20.3086 95.6133 19.9961C 96.1445 19.6836 96.6094 19.2695 97.0078 18.7539L 98.332 19.7852C 97.2695 21.418 95.6758 22.2344 93.5508 22.2344ZM 93.2812 10.8672C 92.4062 10.8672 91.6719 11.1875 91.0781 11.8281C 90.4844 12.4609 90.1172 13.3516 89.9766 14.5L 96.3281 14.5L 96.3281 14.3359C 96.2656 13.2344 95.9688 12.3828 95.4375 11.7812C 94.9062 11.1719 94.1875 10.8672 93.2812 10.8672ZM 108.844 22C 108.719 21.75 108.617 21.3047 108.539 20.6641C 107.531 21.7109 106.328 22.2344 104.93 22.2344C 103.68 22.2344 102.652 21.8828 101.848 21.1797C 101.051 20.4688 100.652 19.5703 100.652 18.4844C 100.652 17.1641 101.152 16.1406 102.152 15.4141C 103.16 14.6797 104.574 14.3125 106.395 14.3125L 108.504 14.3125L 108.504 13.3164C 108.504 12.5586 108.277 11.957 107.824 11.5117C 107.371 11.0586 106.703 10.832 105.82 10.832C 105.047 10.832 104.398 11.0273 103.875 11.418C 103.352 11.8086 103.09 12.2812 103.09 12.8359L 100.91 12.8359C 100.91 12.2031 101.133 11.5938 101.578 11.0078C 102.031 10.4141 102.641 9.94531 103.406 9.60156C 104.18 9.25781 105.027 9.08594 105.949 9.08594C 107.41 9.08594 108.555 9.45312 109.383 10.1875C 110.211 10.9141 110.641 11.918 110.672 13.1992L 110.672 19.0352C 110.672 20.1992 110.82 21.125 111.117 21.8125L 111.117 22L 108.844 22ZM 105.246 20.3477C 105.926 20.3477 106.57 20.1719 107.18 19.8203C 107.789 19.4688 108.23 19.0117 108.504 18.4492L 108.504 15.8477L 106.805 15.8477C 104.148 15.8477 102.82 16.625 102.82 18.1797C 102.82 18.8594 103.047 19.3906 103.5 19.7734C 103.953 20.1562 104.535 20.3477 105.246 20.3477ZM 113.543 15.5547C 113.543 13.6094 114.004 12.0469 114.926 10.8672C 115.848 9.67969 117.055 9.08594 118.547 9.08594C 120.031 9.08594 121.207 9.59375 122.074 10.6094L 122.074 4L 124.242 4L 124.242 22L 122.25 22L 122.145 20.6406C 121.277 21.7031 120.07 22.2344 118.523 22.2344C 117.055 22.2344 115.855 21.6328 114.926 20.4297C 114.004 19.2266 113.543 17.6562 113.543 15.7188L 113.543 15.5547ZM 115.711 15.8008C 115.711 17.2383 116.008 18.3633 116.602 19.1758C 117.195 19.9883 118.016 20.3945 119.062 20.3945C 120.438 20.3945 121.441 19.7773 122.074 18.543L 122.074 12.7188C 121.426 11.5234 120.43 10.9258 119.086 10.9258C 118.023 10.9258 117.195 11.3359 116.602 12.1562C 116.008 12.9766 115.711 14.1914 115.711 15.8008Z"/>
<path id="path11_stroke" d="M 0 0L 26 0L 26 -1L 0 -1L 0 0Z"/>
<path id="path12_stroke" d="M 0 0L 101 0L 101 -1L 0 -1L 0 0Z"/>
<path id="path13_stroke" d="M 65.8614 0.353553C 66.0567 0.158291 66.0567 -0.158291 65.8614 -0.353553L 62.6795 -3.53553C 62.4842 -3.7308 62.1676 -3.7308 61.9724 -3.53553C 61.7771 -3.34027 61.7771 -3.02369 61.9724 -2.82843L 64.8008 0L 61.9724 2.82843C 61.7771 3.02369 61.7771 3.34027 61.9724 3.53553C 62.1676 3.7308 62.4842 3.7308 62.6795 3.53553L 65.8614 0.353553ZM 0 0.5L 65.5079 0.5L 65.5079 -0.5L 0 -0.5L 0 0.5Z"/>
<path id="path14_stroke" d="M 0 0L 60 0L 60 -1L 0 -1L 0 0Z"/>
<path id="path15_stroke" d="M 0 0L 379 0L 379 -1L 0 -1L 0 0Z"/>
<path id="path16_stroke" d="M 56.3602 0.353553C 56.5555 0.158291 56.5555 -0.158291 56.3602 -0.353553L 53.1782 -3.53553C 52.983 -3.7308 52.6664 -3.7308 52.4711 -3.53553C 52.2759 -3.34027 52.2759 -3.02369 52.4711 -2.82843L 55.2995 0L 52.4711 2.82843C 52.2759 3.02369 52.2759 3.34027 52.4711 3.53553C 52.6664 3.7308 52.983 3.7308 53.1782 3.53553L 56.3602 0.353553ZM 0 0.5L 56.0067 0.5L 56.0067 -0.5L 0 -0.5L 0 0.5Z"/>
<path id="path17_stroke" d="M 0 0L 553 0L 553 -1L 0 -1L 0 0Z"/>
<path id="path18_stroke" d="M 0 0L 69 0L 69 -1L 0 -1L 0 0Z"/>
<path id="path19_stroke" d="M 0 0L 541 0L 541 -1L 0 -1L 0 0Z"/>
</defs>
</svg>
